<svg width="149" height="313" fill="none" xmlns="http://www.w3.org/2000/svg"><path d="M148.466 80.578L11.443 1l-.498 215.855c0 1.492 1.244 3.482 2.487 4.476L130.81 289.47l17.159 9.45.497-218.342z" fill="#fff" stroke="#262626" stroke-width=".75" stroke-miterlimit="10" stroke-linecap="round" stroke-linejoin="round"/><path d="M142.747 90.525L5.724 10.947l-.497 215.855c0 1.492 1.243 3.482 2.486 4.477l117.378 68.138 17.159 9.45.497-218.342z" fill="#fff" stroke="#262626" stroke-width=".75" stroke-miterlimit="10" stroke-linecap="round" stroke-linejoin="round"/><path d="M124.843 85.054L1.497 13.434 1 232.273l120.113 69.631 17.159 10.196.249-202.178-13.678-24.868z" fill="#fff" stroke="#262626" stroke-width=".75" stroke-miterlimit="10" stroke-linecap="round" stroke-linejoin="round"/><path d="M124.844 85.054v16.91l13.677 7.958" fill="#262626"/><path d="M124.844 85.054v16.91l13.677 7.958" stroke="#262626" stroke-width=".75" stroke-miterlimit="10" stroke-linecap="round" stroke-linejoin="round"/><path d="M42.282 223.321l-11.937-6.963c-.995-.746-1.99-2.238-1.99-3.731v-13.18c0-1.492.995-2.238 1.99-1.492l11.937 6.963c.994.746 1.989 2.239 1.989 3.731v13.18c0 1.243-.746 1.989-1.99 1.492z" fill="#D0D2D3" stroke="#262626" stroke-width=".75" stroke-miterlimit="10" stroke-linecap="round" stroke-linejoin="round"/><path d="M31.84 207.654l3.233 5.471 5.72-3.233m11.934 2.487l28.1 16.413m-28.1-8.704l58.688 33.821m-58.688-26.361l58.688 33.821" stroke="#262626" stroke-width=".75" stroke-miterlimit="10" stroke-linecap="round" stroke-linejoin="round"/><path d="M42.282 189.998l-11.937-6.964c-.995-.746-1.99-2.238-1.99-3.73v-13.18c0-1.492.995-2.238 1.99-1.492l11.937 6.963c.994.746 1.989 2.238 1.989 3.73v13.18c0 1.493-.746 1.99-1.99 1.493z" fill="#E84142" stroke="#262626" stroke-width=".75" stroke-miterlimit="10" stroke-linecap="round" stroke-linejoin="round"/><path d="M31.84 174.331l3.233 5.471 5.72-3.233m11.934 2.735l28.1 16.164m-28.1-8.703l58.688 33.82m-58.688-26.36l58.688 33.821" stroke="#262626" stroke-width=".75" stroke-miterlimit="10" stroke-linecap="round" stroke-linejoin="round"/><path d="M42.282 156.674l-11.937-6.963c-.995-.746-1.99-2.238-1.99-3.73v-13.18c0-1.492.995-2.238 1.99-1.492l11.937 6.963c.994.746 1.989 2.238 1.989 3.73v13.18c0 1.492-.746 1.99-1.99 1.492z" fill="#E06AE9" stroke="#262626" stroke-width=".75" stroke-miterlimit="10" stroke-linecap="round" stroke-linejoin="round"/><path d="M31.84 141.007l3.233 5.471 5.72-3.233m11.934 2.736l28.1 16.164m-28.1-8.704l58.688 33.821m-58.688-26.36l58.688 33.82" stroke="#262626" stroke-width=".75" stroke-miterlimit="10" stroke-linecap="round" stroke-linejoin="round"/><path d="M42.282 123.351l-11.937-6.963c-.995-.746-1.99-2.238-1.99-3.73v-13.18c0-1.492.995-2.238 1.99-1.492l11.937 6.963c.994.746 1.989 2.238 1.989 3.73v13.18c0 1.492-.746 2.238-1.99 1.492z" fill="#FFAD28" stroke="#262626" stroke-width=".75" stroke-miterlimit="10" stroke-linecap="round" stroke-linejoin="round"/><path d="M31.84 107.684l3.233 5.471 5.72-3.233m11.934 2.736l28.1 16.164m-28.1-8.704l58.688 33.821m-58.688-26.36l58.688 33.82" stroke="#262626" stroke-width=".75" stroke-miterlimit="10" stroke-linecap="round" stroke-linejoin="round"/><path d="M42.282 90.028l-11.937-6.963c-.995-.746-1.99-2.238-1.99-3.73v-13.18c0-1.493.995-2.239 1.99-1.493l11.937 6.963c.994.746 1.989 2.239 1.989 3.73v13.18c0 1.493-.746 2.239-1.99 1.493z" fill="#C1A9E0" stroke="#262626" stroke-width=".75" stroke-miterlimit="10" stroke-linecap="round" stroke-linejoin="round"/><path d="M31.84 74.36l3.233 5.72 5.72-3.481m11.934 2.736l28.1 16.164m-28.1-8.704l58.688 33.82m-58.688-26.36l58.688 33.821" stroke="#262626" stroke-width=".75" stroke-miterlimit="10" stroke-linecap="round" stroke-linejoin="round"/></svg>