<svg width="131" height="306" fill="none" xmlns="http://www.w3.org/2000/svg"><path d="M1 229.782c0 6.301 4.2 13.652 9.714 16.803l98.455 56.71c2.888 1.575 5.251 1.837 7.088.525.263 0 .263-.263.525-.263.263 0 .263-.262.526-.262 0 0 .262-.263.262-.525.263-.263.525-.526.525-1.051 0-.262.263-.262.263-.525 0-.262.262-.525.262-.787v-58.811l.263-56.972v-16.278l.262-55.922V81.707c0-6.302-4.2-13.653-9.714-16.803L87.377 52.3 69.262 41.8 40.644 25.26l-3.15-1.839L11.239 8.194c-.262-.263-.787-.525-1.05-.525-1.313-.525-2.625-.788-3.676-.788h-1.05c-.262 0-.787.263-1.05.525-1.838 1.05-2.888 3.15-2.888 6.301v30.718L1 198.802v30.98z" fill="#fff" stroke="#262626" stroke-width=".75" stroke-miterlimit="10" stroke-linecap="round" stroke-linejoin="round"/><path d="M111.008 111.899c0-2.363-1.576-4.988-3.414-6.038L12.291 50.989c-1.838-1.05-3.413-.263-3.676 2.1L8.09 199.327c0 2.363 1.575 4.988 3.413 6.038l95.041 54.872c1.838 1.051 3.676.263 3.676-2.1l.788-146.238z" fill="#E06AE9" stroke="#262626" stroke-width=".75" stroke-miterlimit="10" stroke-linecap="round" stroke-linejoin="round"/><path d="M111.008 111.899c0-2.363-1.576-4.988-3.414-6.038L12.291 50.989c-1.838-1.05-3.413-.263-3.676 2.1L8.09 199.327c0 2.363 1.575 4.988 3.413 6.038l95.041 54.872c1.838 1.051 3.676.263 3.676-2.1l.788-146.238z" stroke="#262626" stroke-width=".75" stroke-miterlimit="10" stroke-linecap="round" stroke-linejoin="round"/><path d="M4.676 7.931c.262-.262.525-.262 1.05-.525h1.05c1.05 0 2.363 0 3.676.788.262.262.787.262 1.05.525l26.255 15.228 3.15 1.837 28.617 16.54L87.64 52.827l22.054 12.603c5.251 3.15 9.714 10.501 9.714 16.802v30.718l.788-.525 9.976-5.776V75.93c0-6.3-4.463-13.652-9.714-16.803L22.266 2.417C19.641.843 17.016.58 15.44 1.63L4.676 7.931z" fill="#fff" stroke="#262626" stroke-width=".75" stroke-miterlimit="10" stroke-linecap="round" stroke-linejoin="round"/><path d="M116.258 304.345l10.764-6.301c1.838-1.05 2.888-3.151 2.888-6.301v-30.718l-10.764 6.301v33.343c0 .263-.263.525-.263.788 0 .262-.262.262-.262.525-.263.262-.263.788-.525 1.05 0 .263-.263.263-.263.525-.262 0-.262.263-.525.263-.788 0-.788.262-1.05.525 0-.263 0-.263 0 0z" fill="#fff"/><path d="M116.258 304.345l10.764-6.301c1.838-1.05 2.888-3.151 2.888-6.301v-30.718l-10.764 6.301v33.343c0 .263-.263.525-.263.788 0 .262-.262.262-.262.525-.263.262-.263.788-.525 1.05 0 .263-.263.263-.263.525-.262 0-.262.263-.525.263-.788 0-.788.262-1.05.525zm0 0c0-.263 0-.263 0 0z" stroke="#262626" stroke-width=".75" stroke-miterlimit="10" stroke-linecap="round" stroke-linejoin="round"/><path d="M119.145 267.326l10.764-6.301.262-154.377-9.976 5.776-.788.525v71.938l-.262 56.972v25.467zm-64.59-108.694c.787.262 1.575.525 2.363 1.05-.788-.525-1.576-.788-2.363-1.05zM35.39 173.597c.788-9.977 6.302-15.753 13.916-15.753h1.312c.263 0 .788 0 1.05.263.526 0 .788.262 1.313.262-.262 0-.525-.262-1.05-.262-.262 0-.525 0-1.05-.263-8.402-1.05-14.965 4.726-15.49 15.753zm13.391-32.555c0 7.351 5.251 16.54 11.552 20.216 6.564 3.675 11.815.787 11.815-6.826 0-7.352-5.251-16.541-11.552-20.217-6.564-3.675-11.815-.525-11.815 6.827z" fill="#fff" stroke="#262626" stroke-width=".75" stroke-miterlimit="10" stroke-linecap="round" stroke-linejoin="round"/><path d="M35.39 173.597c.788-9.977 6.302-15.753 13.916-15.753h1.837c-8.664-1.05-15.227 4.726-15.752 15.753zm16.804-15.49c-.263 0-.526 0-1.05-.263h.525c.262.263.525.263.525.263z" fill="#fff" stroke="#262626" stroke-width=".75" stroke-miterlimit="10" stroke-linecap="round" stroke-linejoin="round"/><path d="M35.391 175.697v-2.1c.526-11.027 7.09-16.803 15.753-15.753.263 0 .525 0 1.05.263.263 0 .525 0 1.05.262.526 0 1.05.263 1.313.263.788.262 1.575.525 2.363 1.05l3.15 1.575c-6.563-3.675-11.551-12.864-11.551-20.216 0-7.351 5.25-10.501 11.814-6.563 6.564 3.675 11.552 12.864 11.552 20.216 0 7.351-5.25 10.501-11.814 6.826 13.915 7.876 24.942 27.567 24.942 43.32 8.401-3.413 13.914-12.34 13.914-25.992 0-24.679-17.328-54.609-38.594-66.949-21.529-12.34-38.856-2.363-38.856 22.054 0 13.389 5.513 28.617 13.914 41.744z" fill="#262626" stroke="#262626" stroke-width=".75" stroke-miterlimit="10" stroke-linecap="round" stroke-linejoin="round"/><path d="M35.39 175.435c6.827 10.764 15.49 19.69 24.942 25.204 9.452 5.513 18.116 6.564 24.942 3.938 0-15.753-11.027-35.444-24.942-43.32-1.05-.525-2.1-1.313-3.15-1.575-.788-.263-1.575-.525-2.363-1.05-.525-.263-1.05-.263-1.313-.263-.525 0-.787-.262-1.312-.262-.263 0-.788 0-1.05-.263H49.83c-7.877 0-13.39 5.776-13.915 15.753-.525.525-.525 1.313-.525 1.838z" fill="#fff" stroke="#262626" stroke-width=".75" stroke-miterlimit="10" stroke-linecap="round" stroke-linejoin="round"/><path d="M50.883 248.948l18.378 10.501M51.41 52.564l18.378 10.764" stroke="#262626" stroke-width=".75" stroke-miterlimit="10" stroke-linecap="round" stroke-linejoin="round"/></svg>