<svg width="177" height="306" fill="none" xmlns="http://www.w3.org/2000/svg"><path d="M157.246 130.531L1.489 40.549 1 207.553c0 3.668 2.69 8.314 5.868 10.026l107.098 61.862 43.035 24.696c3.179 1.956 5.869.489 5.869-3.423l.244-78.979.245-81.668v-6.602l-6.113-2.934z" fill="#fff" stroke="#262626" stroke-width=".75" stroke-miterlimit="10" stroke-linecap="round" stroke-linejoin="round"/><path d="M163.358 105.346v28.608l-6.113-3.423L1.488 40.549V11.941c0-1.957.734-3.424 1.956-3.913.245 0 .49-.244.49-.244h.733c.734 0 1.712.244 2.69.733L157.49 95.076c3.178 2.2 5.868 6.602 5.868 10.27z" fill="#7A18D5" stroke="#262626" stroke-width=".75" stroke-miterlimit="10" stroke-linecap="round" stroke-linejoin="round"/><path d="M175.827 126.619l-.244 88.026-.245 78.979c0 1.956-.733 3.178-1.711 3.667l-12.471 7.091c.245-.244.489-.244.489-.489l.245-.244c0-.245.244-.245.244-.489 0-.245.245-.489.245-.734 0-.244 0-.489.244-.733v-1.223l.245-78.979.244-81.668v-6.602l3.668-2.201 9.047-4.401z" fill="#fff" stroke="#262626" stroke-width=".75" stroke-miterlimit="10" stroke-linecap="round" stroke-linejoin="round"/><path d="M175.829 98.255v28.608l-8.802 5.135-3.668 2.201V105.59c0-3.667-2.69-8.313-5.869-10.025L7.358 9.007c-.978-.49-1.712-.734-2.69-.734h-.734c-.244 0-.489 0-.489.244l12.226-7.09c.978-.734 2.445-.49 4.157.488l150.133 86.56c3.178 1.466 5.868 5.868 5.868 9.78z" fill="#3B2E56" stroke="#262626" stroke-width=".75" stroke-miterlimit="10" stroke-linecap="round" stroke-linejoin="round"/><path d="M28.384 38.593c0 2.69-1.956 3.668-4.157 2.445-2.2-1.222-4.157-4.646-4.157-7.09 0-2.69 1.956-3.669 4.157-2.446 2.2 1.223 4.157 4.401 4.157 7.09zm14.184 9.292c0 2.69-1.957 3.667-4.157 2.445-2.201-1.223-4.157-4.646-4.157-7.091 0-2.69 1.956-3.668 4.157-2.445 2.2 1.222 4.157 4.401 4.157 7.09zm15.16 8.314c0 2.69-1.956 3.667-4.157 2.445-2.2-1.223-4.157-4.646-4.157-7.091 0-2.69 1.956-3.668 4.157-2.445 2.445 1.222 4.157 4.645 4.157 7.09z" fill="#262626" stroke="#fff" stroke-width=".75" stroke-miterlimit="10" stroke-linecap="round" stroke-linejoin="round"/><path d="M136 153.185c0-2.627-1.81-5.861-4.022-7.074L32.022 88.509C29.81 87.296 28 88.307 28 90.934v103.679c0 2.627 1.81 5.861 4.022 7.074l99.755 57.804c2.212 1.213 4.022.202 4.223-2.425V153.185z" fill="#fff" stroke="#262626" stroke-width=".75" stroke-miterlimit="10" stroke-linecap="round" stroke-linejoin="round"/><path stroke="#262626" stroke-width=".75" d="M33.315 94.797l103 160m-2.162-105.454l-101 45"/><path d="M19.21 102.331c-5.607-12.725-3.609-25.92 4.447-29.448 8.055-3.548 19.149 3.916 24.757 16.641 5.608 12.726 3.63 25.92-4.446 29.468-8.055 3.508-19.15-3.936-24.757-16.661z" fill="#FFAD28" stroke="#262626" stroke-width=".5" stroke-miterlimit="10"/><path d="M38.421 93.909v1.53l-4.772-2.774-.04 11.277-1.326-.775.04-11.257-4.792-2.773.02-1.51 10.87 6.282z" fill="#fff" stroke="#262626" stroke-width=".5" stroke-miterlimit="10"/><path d="M32.937 106.512c-5.16-2.978-9.34-10.217-9.32-16.151.02-5.935 4.221-8.321 9.38-5.344 5.16 2.978 9.34 10.217 9.32 16.152 0 5.914-4.221 8.32-9.38 5.343zm.081-23.187c-5.975-3.447-10.85-.673-10.87 6.179-.02 6.852 4.813 15.234 10.789 18.68 5.975 3.447 10.828.673 10.849-6.179.02-6.852-4.813-15.234-10.768-18.68z" fill="#fff" stroke="#262626" stroke-width=".5" stroke-miterlimit="10"/><path d="M19.21 202.331c-5.607-12.725-3.609-25.92 4.447-29.448 8.055-3.548 19.149 3.916 24.757 16.641 5.608 12.726 3.63 25.92-4.446 29.468-8.055 3.508-19.15-3.936-24.757-16.661z" fill="#7A18D5" stroke="#262626" stroke-width=".5" stroke-miterlimit="10"/><path d="M38.421 193.909v1.529l-4.772-2.773-.04 11.277-1.326-.775.04-11.257-4.792-2.773.02-1.509 10.87 6.281z" fill="#fff" stroke="#262626" stroke-width=".5" stroke-miterlimit="10"/><path d="M32.937 206.512c-5.16-2.978-9.34-10.217-9.32-16.152.02-5.934 4.221-8.32 9.38-5.343 5.16 2.978 9.34 10.217 9.32 16.152 0 5.914-4.221 8.32-9.38 5.343zm.081-23.187c-5.975-3.447-10.85-.673-10.87 6.179-.02 6.852 4.813 15.234 10.789 18.68 5.975 3.447 10.828.673 10.849-6.179.02-6.852-4.813-15.234-10.768-18.68z" fill="#fff" stroke="#262626" stroke-width=".5" stroke-miterlimit="10"/><path d="M119.183 258.331c-5.608-12.725-3.609-25.92 4.446-29.448 8.055-3.548 19.149 3.916 24.758 16.641 5.608 12.726 3.63 25.92-4.446 29.468-8.056 3.508-19.149-3.936-24.758-16.661z" fill="#E84142" stroke="#262626" stroke-width=".5" stroke-miterlimit="10"/><path d="M138.394 249.909v1.529l-4.772-2.773-.041 11.277-1.325-.775.04-11.257-4.792-2.773.02-1.509 10.87 6.281z" fill="#fff" stroke="#262626" stroke-width=".5" stroke-miterlimit="10"/><path d="M132.909 262.512c-5.159-2.978-9.34-10.217-9.32-16.152.021-5.934 4.222-8.32 9.381-5.343 5.16 2.978 9.34 10.217 9.32 16.152 0 5.914-4.221 8.32-9.381 5.343zm.082-23.187c-5.975-3.447-10.849-.673-10.87 6.179-.02 6.852 4.813 15.234 10.788 18.68 5.975 3.447 10.829.673 10.849-6.179.021-6.852-4.812-15.234-10.767-18.68z" fill="#fff" stroke="#262626" stroke-width=".5" stroke-miterlimit="10"/><path d="M119.183 161.331c-5.608-12.725-3.609-25.92 4.446-29.448 8.055-3.548 19.149 3.916 24.758 16.641 5.608 12.726 3.63 25.92-4.446 29.468-8.056 3.508-19.149-3.936-24.758-16.661z" fill="#E06AE9" stroke="#262626" stroke-width=".5" stroke-miterlimit="10"/><path d="M138.394 152.909v1.529l-4.772-2.773-.041 11.277-1.325-.775.04-11.257-4.792-2.773.02-1.509 10.87 6.281z" fill="#fff" stroke="#262626" stroke-width=".5" stroke-miterlimit="10"/><path d="M132.909 165.512c-5.159-2.978-9.34-10.217-9.32-16.152.021-5.934 4.222-8.32 9.381-5.343 5.16 2.978 9.34 10.217 9.32 16.152 0 5.914-4.221 8.32-9.381 5.343zm.082-23.187c-5.975-3.447-10.849-.673-10.87 6.179-.02 6.852 4.813 15.234 10.788 18.68 5.975 3.447 10.829.673 10.849-6.179.021-6.852-4.812-15.234-10.767-18.68z" fill="#fff" stroke="#262626" stroke-width=".5" stroke-miterlimit="10"/></svg>