<svg width="230" height="306" fill="none" xmlns="http://www.w3.org/2000/svg"><path d="M157.399 232.731l-.072.036-.058.057-.208.209-.674.449-5.586 3.157-.009.006-.01.006c-.877.548-2.058.837-3.266.837-1.207 0-2.389-.289-3.266-.837l-.008-.006-.009-.005-10.219-5.839-.009-.005-2.426-1.456h0l-.008-.005-24.597-14.125h0l-13.142-7.544-1.892-1.183-.203-.203-.058-.057-.072-.037c-.86-.43-1.185-1.015-1.185-1.501v-.243c0-.486.324-1.071 1.185-1.501l.016-.008.015-.009 6.56-3.887c.884-.439 2.074-.67 3.292-.67s2.41.232 3.295.671l12.409 7.056.305.174.267-.229c5.227-4.481 8.211-11.196 8.211-17.914v-21.206l23.596 16.354v21.899c0 5.682-2.843 11.136-7.346 14.453l-.614.453.66.382 4.627 2.679.004.002 10.624 6.037c.336.45.598.824.781 1.163.192.356.275.637.275.889 0 .486-.324 1.071-1.185 1.501z" fill="#fff" stroke="#262626"/><mask id="a" fill="#fff"><path d="M149.588 199.328c-2.922-2.192-6.088-3.897-9.254-5.601-.974-.488-2.191-.975-3.165-.731-1.218.243-2.192 1.461-2.923 2.435-1.461 2.192-2.679 4.384-4.14 6.575-1.461 2.192-3.409 3.897-5.601 5.115-2.435.974-5.358.974-7.306-.731 3.897-2.922 6.332-7.549 7.306-12.176.974-4.871.974-10.472.731-15.343 1.217.731 6.575 4.627 9.984 6.089 3.897 1.704 7.793 4.139 11.446 6.331.974.487 1.948 1.218 2.435 2.192.975 1.705.488 3.653 0 5.601"/></mask><path d="M149.588 199.328c-2.922-2.192-6.088-3.897-9.254-5.601-.974-.488-2.191-.975-3.165-.731-1.218.243-2.192 1.461-2.923 2.435-1.461 2.192-2.679 4.384-4.14 6.575-1.461 2.192-3.409 3.897-5.601 5.115-2.435.974-5.358.974-7.306-.731 3.897-2.922 6.332-7.549 7.306-12.176.974-4.871.974-10.472.731-15.343 1.217.731 6.575 4.627 9.984 6.089 3.897 1.704 7.793 4.139 11.446 6.331.974.487 1.948 1.218 2.435 2.192.975 1.705.488 3.653 0 5.601" fill="#ADADAD"/><path d="M140.334 193.727l.474-.881-.013-.007-.013-.007-.448.895zm-3.165-.731l.196.981.023-.005.023-.006-.242-.97zm-2.923 2.435l-.8-.6-.016.022-.016.024.832.554zm-9.741 11.69l.371.928.059-.024.056-.03-.486-.874zm-7.306-.731l-.6-.8-.987.74.929.813.658-.753zm7.306-12.176l.979.206.002-.01-.981-.196zm.731-15.343l.514-.857-1.607-.964.094 1.871.999-.05zm9.984 6.089l.401-.917-.007-.003-.394.92zm11.446 6.331l-.514.858.033.019.034.018.447-.895zm2.435 2.192l-.894.447.012.025.014.024.868-.496zm1.087 5.045c-2.992-2.244-6.224-3.983-9.38-5.682l-.948 1.761c3.177 1.71 6.276 3.381 9.128 5.521l1.2-1.6zm-9.406-5.696c-.51-.255-1.124-.531-1.763-.708-.628-.175-1.369-.279-2.093-.098l.485 1.94c.25-.062.605-.045 1.073.085.457.127.939.338 1.403.57l.895-1.789zm-3.81-.817c-.867.174-1.579.677-2.131 1.195-.557.522-1.028 1.132-1.395 1.621l1.6 1.2c.364-.484.745-.97 1.163-1.362.422-.395.806-.623 1.156-.692l-.393-1.962zm-3.558 2.862c-.743 1.114-1.423 2.227-2.091 3.32a95.768 95.768 0 01-2.049 3.255l1.664 1.109a96.634 96.634 0 002.091-3.321c.672-1.098 1.331-2.177 2.049-3.254l-1.664-1.109zm-4.14 6.575c-1.365 2.047-3.189 3.647-5.255 4.794l.972 1.749c2.318-1.288 4.39-3.098 5.947-5.434l-1.664-1.109zm-5.14 4.74c-2.24.896-4.717.81-6.276-.555l-1.317 1.506c2.337 2.044 5.704 1.959 8.335.906l-.742-1.857zm-6.335.998c4.136-3.102 6.674-7.968 7.685-12.77l-1.957-.412c-.938 4.451-3.271 8.839-6.928 11.582l1.2 1.6zm7.687-12.78c.999-4.995.993-10.696.748-15.589l-1.997.1c.242 4.849.237 10.35-.713 15.096l1.962.393zm-.765-14.681c.597.358 2.154 1.459 4.14 2.751 1.917 1.247 4.173 2.63 5.965 3.399l.788-1.839c-1.617-.693-3.744-1.988-5.662-3.237-1.851-1.204-3.581-2.417-4.202-2.789l-1.029 1.715zm10.099 6.147c3.822 1.672 7.65 4.064 11.332 6.273l1.029-1.715c-3.625-2.175-7.589-4.654-11.56-6.391l-.801 1.833zm11.399 6.31c.888.444 1.64 1.049 1.988 1.744l1.789-.894c-.627-1.253-1.822-2.109-2.883-2.639l-.894 1.789zm2.014 1.793c.74 1.294.41 2.815-.102 4.863l1.941.485c.462-1.849 1.107-4.225-.102-6.34l-1.737.992z" fill="#262626" mask="url(#a)"/><path d="M154.945 183.255v22.161c0 6.819-2.923 13.15-8.037 17.534l-4.627-2.679c4.627-3.409 7.55-9.01 7.55-14.855v-22.161h5.114z" fill="#262626" stroke="#262626" stroke-width=".75" stroke-miterlimit="10" stroke-linecap="round" stroke-linejoin="round"/><path d="M159.084 231.23c0 .73-.487 1.461-1.461 1.948l-.244.244-.73.487-5.602 3.166c-1.948 1.217-5.114 1.217-7.062 0l-10.228-5.845-2.435-1.461-24.597-14.125-13.15-7.549-1.948-1.218-.244-.243c-.974-.488-1.461-1.218-1.461-1.949v-.243c0-.731.487-1.461 1.461-1.948l6.575-3.897c1.949-.974 5.114-.974 7.063 0l12.42 7.062c5.114-4.383 8.036-10.958 8.036-17.534v-22.161l24.596 17.047v22.161c0 5.845-2.922 11.446-7.549 14.856l4.627 2.678 10.715 6.089c.731.974 1.218 1.704 1.218 2.435z" stroke="#262626" stroke-width=".75" stroke-miterlimit="10" stroke-linecap="round" stroke-linejoin="round"/><path d="M217.048 206.633v19.239c0 1.705-.487 2.679-1.461 3.409-.243 0-.243.244-.487.244-.974.487-2.192.243-3.653-.487L64.6 144.29c-2.922-1.705-5.358-5.845-5.358-9.254v-19.239l11.446 6.576 146.36 84.26z" fill="#fff" stroke="#262626" stroke-width=".75" stroke-miterlimit="10" stroke-linecap="round" stroke-linejoin="round"/><path d="M217.047 102.403v104.23L70.93 122.373l-11.446-6.575V11.324c0-1.948.731-3.166 1.949-3.653.974-.487 2.191-.243 3.409.487l6.088 3.653.974.487 84.992 49.193 9.497 5.6 45.053 26.058c3.409 1.705 5.601 5.845 5.601 9.254z" fill="#ADADAD" stroke="#262626" stroke-width=".75" stroke-miterlimit="10" stroke-linecap="round" stroke-linejoin="round"/><path d="M228.738 199.815v19.238c0 1.705-.487 2.923-1.462 3.41l-11.202 6.575c.731-.487 1.461-1.705 1.461-3.409v-18.996l11.203-6.818z" fill="#262626" stroke="#262626" stroke-width=".75" stroke-miterlimit="10" stroke-linecap="round" stroke-linejoin="round"/><path d="M227.275 90.714l-11.69 6.576c-.974-1.705-2.435-3.41-3.896-4.14l-45.053-26.058-9.497-5.601-84.992-49.193-.974-.487-6.088-3.653c-1.217-.73-2.435-.974-3.41-.487l10.96-6.332c.974-.487 2.435-.487 3.896.244l92.054 53.09 9.497 5.6 45.053 26.058c1.704.974 3.166 2.678 4.14 4.383z" fill="#fff" stroke="#262626" stroke-width=".75" stroke-miterlimit="10" stroke-linecap="round" stroke-linejoin="round"/><path d="M228.735 95.828v104.23l-11.446 6.576v-104.23c0-1.705-.487-3.41-1.461-5.114l11.689-6.576c.731 1.705 1.218 3.41 1.218 5.114zm-69.65 135.402v5.845c0 .73-.487 1.461-1.461 1.948l-6.575 3.896c-1.948.974-5.114.974-7.063 0l-52.845-30.441c-.974-.487-1.461-1.461-1.461-2.192v-5.601c0 .731.487 1.461 1.46 1.949l.244.243 1.949 1.218 13.15 7.549 24.596 14.125 2.436 1.461 10.228 5.845c1.948 1.217 5.114 1.217 7.062 0l5.601-3.166.731-.487.243-.244c1.218-.487 1.705-1.218 1.705-1.948z" fill="#262626" stroke="#262626" stroke-width=".75" stroke-miterlimit="10" stroke-linecap="round" stroke-linejoin="round"/><path d="M172.479 276.039c0 1.461-.974 2.922-2.922 3.896l-.731.487-1.461.731-27.762 16.073c-3.653 2.192-9.985 2.192-13.638 0L8.341 229.282l-3.896-2.192-.731-.487c-1.705-.974-2.679-2.436-2.679-3.653v-.487c0-1.461.974-2.679 2.923-3.653l29.953-17.291c3.653-2.191 9.985-2.191 13.638 0L169.8 272.142c1.705.975 2.679 2.436 2.679 3.897z" fill="#fff" stroke="#262626" stroke-width=".75" stroke-miterlimit="10" stroke-linecap="round" stroke-linejoin="round"/><path d="M125.238 254.852c0 1.218-.731 2.192-1.948 2.922l-.487.244-.974.731-20.457 11.932c-2.679 1.462-7.306 1.462-9.984 0l-17.291-9.984c-.73-.487-.73-1.705 0-2.192l2.192-1.218h.243c.244-.243.487-.487.487-.73 0-.244-.243-.487-.487-.487l-38.964-22.648c-.487-.244-1.461-.244-2.192 0l-1.948 1.217a4.425 4.425 0 01-4.87 0l-11.446-6.575-2.923-1.705-.487-.243c-1.217-.731-1.948-1.705-1.948-2.679v-.244c0-.974.73-1.948 1.948-2.678l21.918-12.664c2.678-1.461 7.306-1.461 9.984 0l77.686 44.809c1.217 0 1.948.974 1.948 2.192zm36.039 20.943c0 1.218-.731 2.192-1.948 2.923l-.487.243-.974.731-20.457 11.933c-2.679 1.461-7.306 1.461-9.984 0l-16.073-9.254-2.923-1.705-.487-.244c-1.217-.73-1.948-1.704-1.948-2.678v-.487c0-.975.731-1.949 1.948-2.679l21.918-12.664c2.679-1.461 7.306-1.461 9.984 0l19.239 11.203c1.461.487 2.192 1.704 2.192 2.678z" fill="#ADADAD" stroke="#262626" stroke-width=".75" stroke-miterlimit="10" stroke-linecap="round" stroke-linejoin="round"/><path d="M172.481 276.039v5.845c0 1.461-.975 2.922-2.923 3.896l-29.954 17.291c-3.653 2.191-9.984 2.191-13.637 0L3.716 232.448c-1.949-1.218-2.923-2.679-2.68-4.14v-5.358c0 1.218.975 2.679 2.68 3.653l.73.487 3.897 2.192 117.624 67.944c3.653 2.192 9.984 2.192 13.637 0l27.762-16.073 1.462-.73.73-.487c1.948-.975 2.923-2.436 2.923-3.897z" fill="#262626" stroke="#262626" stroke-width=".75" stroke-miterlimit="10" stroke-linecap="round" stroke-linejoin="round"/><path d="M68.495 113.849l138.567 80.121c1.462.974 3.41-.243 3.41-1.948v-73.058l-143.195-82.8v75.737c.244.974.487 1.705 1.218 1.948z" fill="#fff" stroke="#262626" stroke-width=".75" stroke-miterlimit="10" stroke-linecap="round" stroke-linejoin="round"/><path d="M67.521 36.407l143.194 82.8v-15.586c0-.974-.487-2.192-1.461-2.679l-137.35-79.39c-1.948-1.218-4.627.244-4.627 2.679v12.176h.244z" fill="#262626" stroke="#262626" stroke-width=".75" stroke-miterlimit="10" stroke-linecap="round" stroke-linejoin="round"/><path d="M77.99 33.729c0 1.705-1.217 2.435-2.678 1.461-1.462-.974-2.68-2.922-2.68-4.627 0-1.705 1.218-2.435 2.68-1.461 1.46.73 2.678 2.922 2.678 4.627z" fill="#E84142" stroke="#262626" stroke-width=".75" stroke-miterlimit="10" stroke-linecap="round" stroke-linejoin="round"/><path d="M84.713 39.752c1.048-.605 1.025-2.606-.05-4.47-1.077-1.863-2.799-2.883-3.847-2.278s-1.026 2.606.05 4.47c1.076 1.864 2.798 2.884 3.847 2.278z" fill="#FFAD28" stroke="#262626" stroke-width=".75" stroke-miterlimit="10" stroke-linecap="round" stroke-linejoin="round"/><path d="M93.092 42.495c0 1.705-1.218 2.436-2.679 1.462-1.461-.974-2.679-2.923-2.679-4.627 0-1.705 1.218-2.436 2.68-1.462 1.46.731 2.678 2.923 2.678 4.627z" fill="#ADADAD" stroke="#262626" stroke-width=".75" stroke-miterlimit="10" stroke-linecap="round" stroke-linejoin="round"/><path d="M88.46 113.119v-6.332l10.473 2.435v-4.383h10.715l10.715 6.088 10.472-1.461 5.601-.974 5.114 2.922v32.146m-42.616-38.721v14.368m10.714-14.368v20.456m10.715-14.368v20.456m10.473-21.917v27.762M98.203 76.59l53.089 30.928M98.203 67.335l28.249 16.317" stroke="#262626" stroke-width=".75" stroke-miterlimit="10" stroke-linecap="round" stroke-linejoin="round"/><path d="M79.942 66.362l10.715 6.331c.974.487 1.461 0 1.461-1.217v-5.602c0-1.217-.73-2.435-1.46-2.922l-10.716-6.331c-.974-.488-1.461 0-1.461 1.217v5.601c-.244 1.218.487 2.435 1.46 2.923z" fill="#FFAD28" stroke="#262626" stroke-width=".75" stroke-miterlimit="10" stroke-linecap="round" stroke-linejoin="round"/><path d="M79.942 85.356l10.715 6.332c.974.487 1.461 0 1.461-1.217v-5.602c0-1.217-.73-2.435-1.46-2.922l-10.716-6.332c-.974-.487-1.461 0-1.461 1.218v5.601c-.244.974.487 2.435 1.46 2.922z" fill="#E84142" stroke="#262626" stroke-width=".75" stroke-miterlimit="10" stroke-linecap="round" stroke-linejoin="round"/><path d="M88.463 106.787l-10.229-5.845v6.332m63.317 4.14l9.741 5.601v32.389m-73.058-42.13l73.059 42.13" stroke="#262626" stroke-width=".75" stroke-miterlimit="10" stroke-linecap="round" stroke-linejoin="round"/><path d="M163.2 148.123c-6.78-15.385-4.364-31.336 5.375-35.601 9.738-4.29 23.15 4.734 29.93 20.118 6.78 15.384 4.389 31.335-5.375 35.625-9.738 4.241-23.15-4.758-29.93-20.142z" fill="#E84142" stroke="#262626" stroke-width=".5" stroke-miterlimit="10"/><path d="M186.423 137.941v1.849l-5.769-3.353-.049 13.633-1.603-.936.05-13.61-5.794-3.353.024-1.824 13.141 7.594z" fill="#fff" stroke="#262626" stroke-width=".5" stroke-miterlimit="10"/><path d="M179.792 153.177c-6.237-3.6-11.291-12.352-11.267-19.526.025-7.175 5.104-10.059 11.341-6.46 6.238 3.6 11.292 12.352 11.267 19.526 0 7.15-5.103 10.059-11.341 6.46zm.099-28.032c-7.224-4.167-13.116-.814-13.141 7.47-.025 8.284 5.818 18.417 13.042 22.583 7.224 4.167 13.092.814 13.116-7.47.025-8.284-5.818-18.417-13.017-22.583z" fill="#fff" stroke="#262626" stroke-width=".5" stroke-miterlimit="10"/></svg>