<svg width="172" height="306" fill="none" xmlns="http://www.w3.org/2000/svg"><path d="M102.768 223.45v63.545c0 1.217-.244 2.678-.487 3.895-1.705 8.035-8.522 13.878-16.556 13.878-9.252 0-16.8-9.008-16.8-18.26v-62.327c.244 2.191 1.949 4.626 4.87 6.33 2.435 1.461 5.356 2.191 8.765 2.678 5.356.73 11.2-.244 15.338-2.678 3.165-1.948 4.87-4.383 4.87-7.061z" fill="#FFAD28" stroke="#262626" stroke-width=".75" stroke-miterlimit="10" stroke-linecap="round" stroke-linejoin="round"/><path d="M102.281 290.89c-1.705 8.035-8.522 13.878-16.556 13.878-9.252 0-16.8-9.008-16.8-18.26v-62.327c.244 2.191 1.949 4.626 4.87 6.33 2.435 1.461 5.356 2.191 8.765 2.678-.244 15.095-.487 27.999 0 46.745 0 4.87 3.165 10.47 7.304 13.391 2.678 1.948 6.33 2.191 9.251.487 1.218-.73 2.435-1.704 3.166-2.922z" fill="#FFAD28"/><path d="M102.768 223.45v63.545c0 1.217-.244 2.678-.487 3.895-1.705 8.035-8.522 13.878-16.556 13.878-9.252 0-16.8-9.008-16.8-18.26v-62.327c.244 2.191 1.949 4.626 4.87 6.33 2.435 1.461 5.356 2.191 8.765 2.678 5.356.73 11.2-.244 15.338-2.678 3.165-1.948 4.87-4.383 4.87-7.061z" stroke="#262626" stroke-width=".75" stroke-miterlimit="10" stroke-linecap="round" stroke-linejoin="round"/><path d="M102.77 223.45c0 2.435-1.704 5.113-4.87 6.817-6.573 3.896-17.285 3.896-23.859 0-2.921-1.704-4.626-3.895-4.87-6.33v-.487h33.599z" fill="#fff" stroke="#262626" stroke-width=".75" stroke-miterlimit="10" stroke-linecap="round" stroke-linejoin="round"/><path d="M102.77 223.45c0 2.435-1.705 5.113-4.87 6.817-6.573 3.896-17.286 3.896-23.86 0-2.921-1.704-4.625-3.895-4.869-6.33-.243-2.678 1.461-5.356 4.87-7.547 1.46-.974 3.408-1.704 5.356-1.948 4.382-.974 9.252-.974 13.39 0 1.948.487 3.652 1.217 5.357 1.948 2.921 2.191 4.626 4.626 4.626 7.06z" fill="#FFAD28" stroke="#262626" stroke-width=".75" stroke-miterlimit="10" stroke-linecap="round" stroke-linejoin="round"/><path d="M96.439 212.982l-.244.487.244-.487z" fill="#D0D2D3"/><path d="M92.785 196.669v25.077c0 .974-.73 1.948-1.947 2.679-1.705.974-3.896 1.217-6.087.973-1.218-.243-2.435-.486-3.409-.973-1.217-.731-1.948-1.705-1.948-2.679v-25.077c0-3.651 2.922-6.817 6.818-6.817 3.652.244 6.573 3.166 6.573 6.817z" fill="#fff"/><path d="M92.784 196.669v16.069c-.974-.487-1.948-1.217-2.922-1.704-.974-.487-2.434-.73-3.408-.244-.73.487-1.217 1.218-1.461 2.192-.243.974-.243 1.704-.243 2.678 0 2.921.243 5.843.243 8.765v.973c-1.217-.243-2.435-.486-3.408-.973-1.218-.731-1.948-1.705-1.948-2.679v-25.077c0-3.651 2.921-6.817 6.817-6.817 3.408.244 6.33 3.166 6.33 6.817z" fill="#D0D2D3"/><path d="M92.785 196.669v25.077c0 .974-.73 1.948-1.947 2.679-1.705.974-3.896 1.217-6.087.973-1.218-.243-2.435-.486-3.409-.973-1.217-.731-1.948-1.705-1.948-2.679v-25.077c0-3.651 2.922-6.817 6.818-6.817 3.652.244 6.573 3.166 6.573 6.817z" stroke="#262626" stroke-width=".75" stroke-miterlimit="10" stroke-linecap="round" stroke-linejoin="round"/><path d="M170.937 147.733c0 25.32-9.008 42.85-23.372 50.884l-11.443 6.574c1.704-.974 3.408-2.192 4.869-3.652 1.948-1.705 3.896-3.896 5.6-6.087 7.304-9.495 11.443-23.129 11.443-40.415 0-50.154-35.059-110.777-78.396-135.854C65.03 10.66 51.152 7.496 39.466 8.713c-2.922.244-5.843.975-8.278 1.705-1.46 1.217-2.922 2.921-4.382 4.382l-3.896-.487L36.788 6.28h.243c14.121-8.278 33.842-7.06 55.754 5.356 43.093 25.32 78.152 85.944 78.152 136.098z" fill="#262626" stroke="#262626" stroke-width=".75" stroke-miterlimit="10" stroke-linecap="round" stroke-linejoin="round"/><path d="M79.64 19.183C65.034 10.662 51.156 7.496 39.47 8.713c-2.922.244-5.843.975-8.278 1.705-1.46 1.217-2.921 2.922-4.382 4.382-8.035 9.496-12.66 23.86-12.66 42.12 0 48.45 32.867 106.882 74.013 133.176 1.46.974 2.922 1.948 4.382 2.678 1.461.974 2.922 1.704 4.383 2.435 14.364 7.304 27.755 9.738 38.954 7.547 1.705-.243 3.409-.73 5.113-1.217 1.948-1.704 3.896-3.896 5.6-6.087 7.304-9.495 11.443-23.129 11.443-40.415 0-49.911-35.059-110.777-78.396-135.854zm47.233 157.766c-9.739 2.434-21.425.487-34.329-7.061-32.38-18.747-58.431-64.031-58.431-101.282 0-14.85 4.139-26.294 11.199-33.354 10.713-10.713 27.755-11.687 47.233-.487 32.38 18.746 58.431 64.031 58.431 101.281 0 22.643-9.495 37.007-24.103 40.903z" fill="#262626" stroke="#262626" stroke-width=".75" stroke-miterlimit="10" stroke-linecap="round" stroke-linejoin="round"/><path d="M79.64 19.183C61.38 8.713 44.58 6.036 30.945 10.66 12.686 16.748 1 35.738 1 64.467c0 48.45 32.868 106.882 74.014 133.176 1.46.974 2.921 1.948 4.382 2.678 1.46.974 2.922 1.705 4.382 2.435 1.461.73 2.678 1.461 4.14 1.948 2.92 1.461 5.842 2.434 8.764 3.408 14.852 4.626 28.242 3.652 38.468-2.434.243 0 .487-.244.73-.487 1.704-.974 3.409-2.191 4.869-3.652 1.948-1.705 3.896-3.896 5.6-6.087 7.304-9.495 11.443-23.129 11.443-40.415.244-49.911-34.816-110.777-78.153-135.854zm2.678 162.148c-33.355-20.938-61.84-70.118-63.301-109.56C17.556 32.33 43.362 17.478 76.96 38.416c33.355 20.939 61.841 70.119 63.301 109.56 1.461 39.442-24.59 54.293-57.944 33.355z" fill="#fff" stroke="#262626" stroke-width=".75" stroke-miterlimit="10" stroke-linecap="round" stroke-linejoin="round"/></svg>