<svg width="268" height="288" fill="none" xmlns="http://www.w3.org/2000/svg"><path d="M256.459 217.754v7.219c0 2.095-1.63 4.191-4.424 5.821l-92.683 53.328c-5.356 3.027-13.273 3.493-17.931.698L4.027 205.411C1.931 204.247 1 202.617 1 200.754v-6.986c0 1.164.466 2.329 1.63 3.493.466.466.932.699 1.397 1.164l3.26 1.863 134.134 77.546c4.658 2.562 12.575 2.329 17.931-.698l91.518-52.862.932-.699c1.164-.698 2.096-1.397 2.794-2.328 1.165-.932 1.863-2.329 1.863-3.493z" fill="#262626" stroke="#262626" stroke-width=".75" stroke-miterlimit="10" stroke-linecap="round" stroke-linejoin="round"/><path d="M256.459 217.753c0 1.165-.465 2.562-1.63 3.726-.698.699-1.63 1.63-2.794 2.329l-.932.698-91.751 52.629c-5.356 3.028-13.273 3.493-17.931.699L7.288 200.288l-3.26-1.863c-.7-.233-1.165-.699-1.398-1.164-1.164-.932-1.63-2.096-1.63-3.493 0-2.096 1.63-4.192 4.425-5.822l92.682-53.561c5.356-3.027 13.274-3.493 17.931-.698l137.394 79.409c1.863 1.397 3.027 3.027 3.027 4.657z" fill="#fff" stroke="#262626" stroke-width=".75" stroke-miterlimit="10" stroke-linecap="round" stroke-linejoin="round"/><path d="M236.201 220.315l-18.63 10.712c-1.63.932-3.726.932-5.123 0l-22.822-13.041a16.005 16.005 0 00-15.835 0l-21.191 12.11c-1.63.931-3.726.931-5.123 0l-92.916-53.561c-1.863-.931-1.863-3.493 0-4.657l48.67-27.945c1.165-.698 3.028-1.164 4.891-1.164 1.397 0 2.328.233 2.328.466l125.751 72.656a2.45 2.45 0 010 4.424zM87.63 205.178c1.397 0 2.328.233 2.328.466l38.191 22.123c1.863.931 1.863 3.493 0 4.657l-20.26 11.876c-1.164.699-3.027 1.165-4.89 1.165-1.165 0-2.562-.466-3.493-.932l-37.027-21.424c-1.863-.931-1.863-3.493 0-4.657l20.26-11.877c1.164-.931 3.027-1.397 4.89-1.397z" fill="#ADADAD" stroke="#262626" stroke-width=".75" stroke-miterlimit="10" stroke-linecap="round" stroke-linejoin="round"/><path d="M261.582 100.154v106.888c0 .698 0 1.164-.232 1.863 0 .233 0 .465-.233.931-.466 1.863-1.165 3.028-2.329 3.959l-.233.233c-1.397.931-3.26.698-5.356-.466l-137.394-79.409c-4.657-2.561-8.383-9.78-8.383-15.835V11.198c0-3.494 1.164-5.822 3.027-6.754h.233c1.164-.699 2.794-.699 4.425 0 .232.233.698.233.931.466l.466.233 136.928 78.943c5.822 3.26 8.15 8.15 8.15 16.068z" fill="#fff" stroke="#262626" stroke-width=".75" stroke-miterlimit="10" stroke-linecap="round" stroke-linejoin="round"/><path d="M264.377 87.113l-5.123 2.561c-1.398-2.328-3.26-4.191-6.055-5.589L116.271 5.142l-.466-.233c-.233-.232-.698-.232-.931-.465-1.63-.699-3.028-.699-4.425 0 .932-.466 4.192-2.562 5.123-2.795 1.398-.931 3.493-.931 5.589.466l137.394 79.409c2.329.698 4.425 3.027 5.822 5.589z" fill="#fff" stroke="#262626" stroke-width=".75" stroke-miterlimit="10" stroke-linecap="round" stroke-linejoin="round"/><path d="M267.172 96.893V203.78c0 3.493-1.165 5.822-3.028 6.754l-4.89 2.794c1.164-.699 1.863-2.096 2.329-3.959 0-.233 0-.465.232-.931 0-.466.233-1.165.233-1.863V100.153c0-4.192-.698-7.452-2.095-10.246l5.123-2.562c.931 2.794 2.096 6.287 2.096 9.548z" fill="#262626" stroke="#262626" stroke-width=".75" stroke-miterlimit="10" stroke-linecap="round" stroke-linejoin="round"/><path d="M182.174 247.095l-17.931-10.48c-2.096-1.164-1.863-3.493.698-4.89l12.343-7.219c2.561-1.397 6.287-1.63 8.383-.466l17.931 10.48c2.096 1.164 1.863 3.493-.699 4.89l-12.342 7.219c-2.329 1.63-6.054 1.63-8.383.466z" fill="#ADADAD" stroke="#262626" stroke-width=".75" stroke-miterlimit="10" stroke-linecap="round" stroke-linejoin="round"/><path d="M252.037 207.041L117.67 129.262c-2.794-1.63-5.123-6.054-5.123-9.78V16.32c0-3.726 2.329-5.59 5.123-3.959L252.269 90.14c2.795 1.63 5.124 6.055 5.124 9.78v103.395c-.233 3.726-2.562 5.356-5.356 3.726z" fill="#7A18D5" stroke="#262626" stroke-width=".75" stroke-miterlimit="10" stroke-linecap="round" stroke-linejoin="round"/><path d="M206.855 93.4l-18.863-10.712M206.854 93.4l-6.288-3.493m-68.927-39.822l-6.287-3.726m6.287 18.165l-6.287-3.726m6.287 18.164l-6.287-3.726m6.287 18.164l-6.287-3.494m6.287 17.931l-6.287-3.493m43.777-32.602l-31.438-18.164m6.288 18.164l-6.288-3.726m6.288 18.164l-6.288-3.493m12.575 21.657l-12.575-7.22m6.288 18.165l-6.288-3.726m18.866-32.601l-6.287-3.726m6.287 32.601l-6.287-3.493m6.286 18.164l-12.576-7.219m25.15 14.438l-12.575-7.219m25.151-43.546l-6.288-3.726m6.288 61.71l-6.288-3.726m37.724 21.89l-25.15-14.671m31.44-39.821l-6.287-3.493m24.917 28.876l-24.917-14.438m6.287 32.602l-6.287-3.726m6.287 18.164l-6.287-3.493m18.86-47.273l-12.575-7.219m12.576 36.328l-6.287-3.726m6.287 18.164l-6.287-3.493m6.287 17.931l-6.287-3.493m18.631-47.04l-6.288-3.726m-106.423 10.712l-6.287-3.493m43.777 25.383l-31.438-18.164m44.015 25.383l-6.288-3.726m31.437 18.164l-18.863-10.945m31.44 18.164l-6.287-3.493m18.86 10.712l-12.575-7.219m24.92 14.438l-6.288-3.493m6.288-54.259l-6.288-3.726m6.288 18.164l-6.288-3.726m6.284 18.164l-12.342-7.219m12.346 21.657l-6.288-3.493M131.639 35.181l-6.287-3.725M143.979 42.4l-6.288-3.492m18.865 10.712L143.98 42.4m25.15 14.439l-12.575-7.219m25.151 14.437l-6.288-3.493m37.724 21.658l-25.15-14.438m44.014 25.382l-6.287-3.726m18.631 10.945l-6.288-3.726M195.91 99.92l13.972 24.218-13.972 8.151m-22.121-12.575l-13.973-24.452 13.973-8.15" stroke="#fff" stroke-width=".75" stroke-miterlimit="10" stroke-linecap="round" stroke-linejoin="round"/></svg>