<svg width="80" height="81" viewBox="0 0 80 81" fill="none" xmlns="http://www.w3.org/2000/svg">
<g clip-path="url(#clip0_249_1170)">
<path d="M51.6695 50.7435H45.8351V34.0442H34.1664V50.7435H28.332L40.0008 66.4315L51.6695 50.7435Z" fill="#00EC89"/>
<path d="M45.8344 34.0442H40V66.4315L51.6687 50.7435H45.8344V34.0442Z" fill="#00CBB1"/>
<path d="M40.0026 0.0493774C29.2672 0.0493774 20.5547 8.76193 20.5547 19.4973C20.5547 30.2326 29.2672 38.9452 40.0026 38.9452C50.7379 38.9452 59.4505 30.2326 59.4505 19.4973C59.4505 8.76193 50.7379 0.0493774 40.0026 0.0493774Z" fill="#FFD400"/>
<path d="M59.4518 19.4973C59.4518 30.2326 50.7392 38.9452 40.0039 38.9452V0.0493774C50.7392 0.0493774 59.4518 8.76193 59.4518 19.4973Z" fill="#FDBF00"/>
<path d="M40.0036 3.9389C31.4076 3.9389 24.4453 10.9011 24.4453 19.4972C24.4453 28.0933 31.4076 35.0555 40.0036 35.0555C48.5997 35.0555 55.5619 28.0933 55.5619 19.4972C55.5619 10.9011 48.5997 3.9389 40.0036 3.9389Z" fill="#FDBF00"/>
<path d="M55.5622 19.4972C55.5622 28.0933 48.6 35.0555 40.0039 35.0555V3.9389C48.6 3.9389 55.5622 10.9011 55.5622 19.4972Z" fill="#FF9F00"/>
<path d="M32.2227 11.7181H36.1122V15.6077H32.2227V11.7181Z" fill="#FFDA2D"/>
<path d="M43.8906 23.3869H47.7802V27.2765H43.8906V23.3869Z" fill="#FDBF00"/>
<path d="M47.2 15.0243L35.5313 26.693L32.8086 23.9703L44.4773 12.3016L47.2 15.0243Z" fill="#FFDA2D"/>
<path d="M44.4769 12.3016L47.1996 15.0243L40.0039 22.22V16.7746L44.4769 12.3016Z" fill="#FDBF00"/>
</g>
<defs>
<clipPath id="clip0_249_1170">
<rect width="80" height="80" fill="white" transform="translate(0 0.0493164)"/>
</clipPath>
</defs>
</svg>
