<svg width="80" height="81" viewBox="0 0 80 81" fill="none" xmlns="http://www.w3.org/2000/svg">
<g clip-path="url(#clip0_249_1141)">
<path d="M33.2829 0.0493164H26.5699C23.7938 0.0493164 21.5352 2.41984 21.5352 5.19594C21.5352 7.97205 23.7938 10.2307 26.5699 10.2307H33.2829C36.059 10.2307 38.3176 7.97205 38.3176 5.19594C38.3176 2.41984 36.059 0.0493164 33.2829 0.0493164ZM33.2829 6.87419H26.5699C25.6447 6.87419 24.8917 6.12117 24.8917 5.19594C24.8917 4.24231 25.6757 3.40581 26.5699 3.40581H33.2829C34.1771 3.40581 34.9611 4.24231 34.9611 5.19594C34.9611 6.12117 34.2081 6.87419 33.2829 6.87419Z" fill="#FDBF00"/>
<path d="M33.2829 47.264H26.5699C23.7938 47.264 21.5352 49.5227 21.5352 52.2988C21.5352 55.0749 23.7938 57.3335 26.5699 57.3335H33.2829C36.059 57.3335 38.3176 55.0749 38.3176 52.2988C38.3176 49.5227 36.059 47.264 33.2829 47.264ZM33.2829 53.977H26.5699C25.6447 53.977 24.8917 53.224 24.8917 52.2988C24.8917 51.3736 25.6447 50.6205 26.5699 50.6205H33.2829C34.2081 50.6205 34.9611 51.3736 34.9611 52.2988C34.9611 53.224 34.2081 53.977 33.2829 53.977Z" fill="#FDBF00"/>
<path d="M63.6051 30.3697C60.829 30.3697 58.5703 32.6283 58.5703 35.4044V42.1174C58.5703 44.8935 60.829 47.264 63.6051 47.264C66.3812 47.264 68.6398 44.8935 68.6398 42.1174V35.4044C68.6398 32.6283 66.3812 30.3697 63.6051 30.3697ZM65.2833 42.1174C65.2833 43.071 64.4988 43.9075 63.6051 43.9075C62.7113 43.9075 61.9268 43.071 61.9268 42.1174V35.4044C61.9268 34.4792 62.6798 33.7262 63.6051 33.7262C64.5303 33.7262 65.2833 34.4792 65.2833 35.4044V42.1174Z" fill="#FF9F00"/>
<path d="M53.5354 0.0493164H46.7105C43.9344 0.0493164 41.6758 2.41984 41.6758 5.19594C41.6758 7.97205 43.9344 10.2307 46.7105 10.2307H53.5354C56.3115 10.2307 58.5701 7.97205 58.5701 5.19594C58.5701 2.41984 56.3115 0.0493164 53.5354 0.0493164ZM53.5354 6.87419H46.7105C45.7853 6.87419 45.0323 6.12117 45.0323 5.19594C45.0323 4.24231 45.8168 3.40581 46.7105 3.40581H53.5354C54.4292 3.40581 55.2137 4.24231 55.2137 5.19594C55.2137 6.12117 54.4606 6.87419 53.5354 6.87419Z" fill="#FF9F00"/>
<path d="M16.5021 30.3697C13.726 30.3697 11.3555 32.6283 11.3555 35.4044V42.1174C11.3555 44.8935 13.726 47.264 16.5021 47.264C19.2782 47.264 21.5368 44.8935 21.5368 42.1174V35.4044C21.5368 32.6283 19.2782 30.3697 16.5021 30.3697ZM18.1803 42.1174C18.1803 43.071 17.3963 43.9075 16.5021 43.9075C15.5821 43.9075 14.712 43.0374 14.712 42.1174V35.4044C14.712 34.5102 15.5485 33.7262 16.5021 33.7262C17.4273 33.7262 18.1803 34.4792 18.1803 35.4044V42.1174Z" fill="#FDBF00"/>
<path d="M16.5021 10.2307C13.726 10.2307 11.3555 12.4893 11.3555 15.2654V21.9784C11.3555 24.7545 13.726 27.0132 16.5021 27.0132C19.2782 27.0132 21.5368 24.7545 21.5368 21.9784V15.2654C21.5368 12.4893 19.2782 10.2307 16.5021 10.2307ZM18.1803 21.9784C18.1803 22.9036 17.4273 23.6567 16.5021 23.6567C15.5485 23.6567 14.712 22.8726 14.712 21.9784V15.2654C14.712 14.3712 15.5485 13.5872 16.5021 13.5872C17.4273 13.5872 18.1803 14.3402 18.1803 15.2654V21.9784Z" fill="#FDBF00"/>
<path d="M63.6051 10.2307C60.829 10.2307 58.5703 12.4893 58.5703 15.2654V21.9784C58.5703 24.7545 60.829 27.0132 63.6051 27.0132C66.3812 27.0132 68.6398 24.7545 68.6398 21.9784V15.2654C68.6398 12.4893 66.3812 10.2307 63.6051 10.2307ZM65.2833 21.9784C65.2833 22.9036 64.5303 23.6567 63.6051 23.6567C62.6798 23.6567 61.9268 22.9036 61.9268 21.9784V15.2654C61.9268 14.3402 62.6798 13.5872 63.6051 13.5872C64.5303 13.5872 65.2833 14.3402 65.2833 15.2654V21.9784Z" fill="#FF9F00"/>
<path d="M53.5354 47.264H46.7105C43.9344 47.264 41.6758 49.5227 41.6758 52.2988C41.6758 55.0749 43.9344 57.3335 46.7105 57.3335H53.5354C56.3115 57.3335 58.5701 55.0749 58.5701 52.2988C58.5701 49.5227 56.3115 47.264 53.5354 47.264ZM53.5354 53.977H46.7105C45.7853 53.977 45.0323 53.224 45.0323 52.2988C45.0323 51.3736 45.7853 50.6205 46.7105 50.6205H53.5354C54.4606 50.6205 55.2137 51.3736 55.2137 52.2988C55.2137 53.224 54.4606 53.977 53.5354 53.977Z" fill="#FF9F00"/>
<path d="M63.6061 13.5872C62.6787 13.5872 61.9278 12.8363 61.9278 11.9089V8.55244C61.9278 7.62635 61.1757 6.8742 60.2496 6.8742H56.8931C55.9657 6.8742 55.2148 6.12336 55.2148 5.19595C55.2148 4.26854 55.9657 3.5177 56.8931 3.5177H60.2496C63.0257 3.5177 65.2843 5.77634 65.2843 8.55244V11.9089C65.2843 12.8363 64.5335 13.5872 63.6061 13.5872Z" fill="#FDBF00"/>
<path d="M45.0304 5.19595C45.0304 6.13559 44.2923 6.8742 43.3522 6.8742H36.6392C35.6991 6.8742 34.9609 6.13559 34.9609 5.19595C34.9609 4.25587 35.6991 3.5177 36.6392 3.5177H43.3522C44.2923 3.5177 45.0304 4.25587 45.0304 5.19595Z" fill="#FFD400"/>
<path d="M45.0304 52.2987C45.0304 53.2384 44.2923 53.977 43.3522 53.977H36.6392C35.6991 53.977 34.9609 53.2384 34.9609 52.2987C34.9609 51.3587 35.6991 50.6205 36.6392 50.6205H43.3522C44.2923 50.6205 45.0304 51.3587 45.0304 52.2987Z" fill="#FFD400"/>
<path d="M23.2116 53.977H19.8551C17.079 53.977 14.8203 51.7184 14.8203 48.9423V45.4739C14.8203 44.5465 15.5712 43.7957 16.4986 43.7957C17.426 43.7957 18.1768 44.5465 18.1768 45.4739V48.9423C18.1768 49.8684 18.929 50.6205 19.8551 50.6205H23.2116C24.139 50.6205 24.8898 51.3714 24.8898 52.2988C24.8898 53.2262 24.139 53.977 23.2116 53.977Z" fill="#FFD400"/>
<path d="M16.4986 33.7262C15.5712 33.7262 14.8203 32.9753 14.8203 32.0479V25.3349C14.8203 24.4075 15.5712 23.6567 16.4986 23.6567C17.426 23.6567 18.1768 24.4075 18.1768 25.3349V32.0479C18.1768 32.9753 17.426 33.7262 16.4986 33.7262Z" fill="#FFD400"/>
<path d="M60.2496 53.977H56.8931C55.9657 53.977 55.2148 53.2262 55.2148 52.2988C55.2148 51.3714 55.9657 50.6205 56.8931 50.6205H60.2496C61.1757 50.6205 61.9278 49.8684 61.9278 48.9423V45.4739C61.9278 44.5465 62.6787 43.7957 63.6061 43.7957C64.5335 43.7957 65.2843 44.5465 65.2843 45.4739V48.9423C65.2843 51.7184 63.0257 53.977 60.2496 53.977Z" fill="#FDBF00"/>
<path d="M16.5025 13.5872C15.5751 13.5872 14.8242 12.8363 14.8242 11.9089V8.55244C14.8242 5.77634 17.0829 3.5177 19.859 3.5177H23.2155C24.1429 3.5177 24.8937 4.26854 24.8937 5.19595C24.8937 6.12336 24.1429 6.8742 23.2155 6.8742H19.859C18.9329 6.8742 18.1807 7.62635 18.1807 8.55244V11.9089C18.1807 12.8363 17.4299 13.5872 16.5025 13.5872Z" fill="#FFD400"/>
<path d="M63.604 33.7261C62.6766 33.7261 61.9258 32.9753 61.9258 32.0479V25.3349C61.9258 24.4075 62.6766 23.6566 63.604 23.6566C64.5314 23.6566 65.2823 24.4075 65.2823 25.3349V32.0479C65.2823 32.9753 64.5314 33.7261 63.604 33.7261Z" fill="#FDBF00"/>
<path d="M55.2132 21.2735V36.1093C55.2132 36.7133 54.8776 37.2505 54.3741 37.5525L40.8026 45.2724C40.5679 45.4066 40.2659 45.4739 39.9971 45.4739L36.6406 36.5057L39.9971 28.6914L47.5492 21.141L54.9781 20.4343C55.1459 20.7031 55.2132 20.9715 55.2132 21.2735Z" fill="#5A69E6"/>
<path d="M39.9988 28.6914V45.4739C39.73 45.4739 39.4284 45.4066 39.1933 45.2724L25.7337 37.5525C25.2302 37.2505 24.8945 36.7133 24.8945 36.1093V21.2735C24.8945 20.9715 24.9618 20.7031 25.1297 20.4343L32.7399 21.304L39.9988 28.6914Z" fill="#7984EB"/>
<path d="M54.979 20.4343L39.998 28.6914L25.1289 20.4343C25.2967 20.1992 25.4978 19.9645 25.7666 19.8304C25.7666 19.8304 39.2598 12.0768 39.2931 12.0768C39.5282 11.9762 39.7629 11.9089 39.998 11.9089C40.2331 11.9089 40.4678 11.9762 40.703 12.0768C40.7362 12.0768 54.3414 19.8304 54.3414 19.8304C54.6101 19.9645 54.8112 20.1992 54.979 20.4343Z" fill="#979FEF"/>
<path d="M54.9771 20.4343L39.9961 28.6914V11.9089C40.2312 11.9089 40.4659 11.9762 40.701 12.0768C40.7343 12.0768 54.3394 19.8304 54.3394 19.8304C54.6082 19.9645 54.8093 20.1992 54.9771 20.4343Z" fill="#7984EB"/>
<path d="M45.0308 52.2987C45.0308 53.2384 44.2927 53.977 43.3526 53.977H39.9961V50.6205H43.3526C44.2927 50.6205 45.0308 51.3587 45.0308 52.2987Z" fill="#FDBF00"/>
<path d="M43.3526 6.8742H39.9961V3.5177H43.3526C44.2927 3.5177 45.0308 4.25587 45.0308 5.19595C45.0308 6.13559 44.2927 6.8742 43.3526 6.8742Z" fill="#FDBF00"/>
</g>
<defs>
<clipPath id="clip0_249_1141">
<rect width="80" height="80" fill="white" transform="translate(0 0.0493164)"/>
</clipPath>
</defs>
</svg>
