<svg width="250" height="250" viewBox="0 0 250 250" fill="none" xmlns="http://www.w3.org/2000/svg">
<g clip-path="url(#clip0_1801_6547)">
<path d="M182.04 106.412L54.38 32.7117L54 169.632C54 172.672 56.14 176.392 58.78 177.912L146.52 228.572L181.76 248.912C184.4 250.432 186.56 249.212 186.56 246.172L186.76 181.472L186.96 114.632L186.98 109.272L182.04 106.412Z" fill="white" stroke="#231F20" stroke-width="0.75" stroke-miterlimit="10" stroke-linecap="round" stroke-linejoin="round"/>
<path d="M173.842 225.892C173.962 225.472 174.042 224.992 174.042 224.452L174.322 121.952C174.322 121.752 174.302 121.572 174.282 121.372C174.282 121.192 174.242 121.012 174.222 120.832C174.182 120.552 174.122 120.292 174.062 120.012C174.022 119.812 173.942 119.572 173.862 119.372C173.282 117.592 172.182 115.832 170.822 114.632C170.682 114.512 170.542 114.392 170.382 114.272C170.262 114.172 170.142 114.072 170.022 113.992C169.862 113.872 169.702 113.772 169.542 113.672L71.7016 57.1916C69.0616 55.6716 66.9016 56.8917 66.8816 59.9317L66.6016 162.432C66.6016 165.472 68.7416 169.172 71.3816 170.712L169.222 227.192C171.402 228.432 173.262 227.852 173.842 225.892Z" fill="white" stroke="#231F20" stroke-width="0.75" stroke-miterlimit="10" stroke-linecap="round" stroke-linejoin="round"/>
<path d="M187.019 85.8717L186.999 89.6117L186.959 104.112L186.939 109.252L182.019 106.412L54.3594 32.7117L54.4394 9.3717C54.4394 7.7517 55.0394 6.65165 56.0194 6.19165C56.0394 6.19165 56.0594 6.17169 56.0594 6.17169C56.1994 6.11169 56.3594 6.05168 56.5194 6.03168C56.6994 5.99168 56.8794 5.97168 57.0794 5.97168C57.7394 5.97168 58.4594 6.17165 59.2394 6.63165L182.219 77.6316C184.879 79.1316 187.019 82.8317 187.019 85.8717Z" fill="#2B2829" stroke="#231F20" stroke-width="0.75" stroke-miterlimit="10" stroke-linecap="round" stroke-linejoin="round"/>
<path d="M197.097 103.352L197.157 174.332L196.717 240.252C196.697 241.752 196.177 242.812 195.297 243.312L185.297 249.112C185.457 248.992 185.597 248.872 185.737 248.732C185.797 248.672 185.857 248.592 185.917 248.512C185.997 248.392 186.057 248.292 186.117 248.152C186.217 247.992 186.277 247.812 186.337 247.632C186.337 247.592 186.357 247.592 186.357 247.552C186.397 247.392 186.457 247.232 186.477 247.032C186.517 246.932 186.517 246.812 186.517 246.692C186.537 246.512 186.557 246.332 186.557 246.112L186.757 181.412L186.957 114.572L186.977 109.212L189.977 107.472L197.097 103.352Z" fill="white" stroke="#231F20" stroke-width="0.75" stroke-miterlimit="10" stroke-linecap="round" stroke-linejoin="round"/>
<path d="M197.162 79.9918L197.102 103.332L189.962 107.492L186.962 109.232L186.982 104.092L187.022 89.5918L187.042 85.8518C187.042 82.8118 184.902 79.0917 182.262 77.5717L59.2816 6.57174C58.5016 6.13174 57.7816 5.91177 57.1216 5.91177C56.9216 5.91177 56.7416 5.93177 56.5616 5.97177C56.4016 6.01177 56.2416 6.05178 56.1016 6.11178L66.0216 0.331754C66.8816 -0.188246 68.1016 -0.108238 69.4416 0.651762L192.402 71.6518C195.042 73.2318 197.162 76.9518 197.162 79.9918Z" fill="#424242" stroke="#231F20" stroke-width="0.75" stroke-miterlimit="10" stroke-linecap="round" stroke-linejoin="round"/>
<path d="M76.4216 31.0516C76.4016 33.2116 74.8816 34.0916 73.0016 33.0116C71.1216 31.9316 69.6016 29.2916 69.6016 27.1116C69.6016 24.9516 71.1416 24.0716 73.0216 25.1516C74.9016 26.2516 76.4216 28.8716 76.4216 31.0516Z" fill="#231F20" stroke="white" stroke-width="0.75" stroke-miterlimit="10" stroke-linecap="round" stroke-linejoin="round"/>
<path d="M88.0388 38.6517C88.0188 40.8117 86.4987 41.6917 84.6187 40.6117C82.7387 39.5317 81.2188 36.8917 81.2188 34.7117C81.2188 32.5517 82.7587 31.6717 84.6387 32.7517C86.5387 33.8517 88.0388 36.4717 88.0388 38.6517Z" fill="#231F20" stroke="white" stroke-width="0.75" stroke-miterlimit="10" stroke-linecap="round" stroke-linejoin="round"/>
<path d="M100.601 45.6119C100.581 47.7719 99.0613 48.6518 97.1813 47.5718C95.3013 46.4918 93.7812 43.8519 93.7812 41.6719C93.7812 39.4919 95.3212 38.6319 97.2012 39.7119C99.1012 40.8119 100.601 43.4319 100.601 45.6119Z" fill="#231F20" stroke="white" stroke-width="0.75" stroke-miterlimit="10" stroke-linecap="round" stroke-linejoin="round"/>
<path d="M94.5581 107.652L82.2981 100.572C81.0581 99.8518 80.0781 97.9518 80.0781 96.3118V82.9518C80.0781 81.3118 81.0781 80.5518 82.2981 81.2718L94.5581 88.3518C95.7981 89.0718 96.7781 90.9718 96.7781 92.6118V105.972C96.7981 107.612 95.7981 108.372 94.5581 107.652Z" fill="#9CE2C8" stroke="#231F20" stroke-width="0.75" stroke-miterlimit="10" stroke-linecap="round" stroke-linejoin="round"/>
<path d="M107.719 97.1318L138.239 114.752" stroke="#231F20" stroke-width="0.75" stroke-miterlimit="10" stroke-linecap="round" stroke-linejoin="round"/>
<path d="M107.719 105.592L160.859 136.292" stroke="#231F20" stroke-width="0.75" stroke-miterlimit="10" stroke-linecap="round" stroke-linejoin="round"/>
<path d="M107.719 114.072L160.859 144.752" stroke="#231F20" stroke-width="0.75" stroke-miterlimit="10" stroke-linecap="round" stroke-linejoin="round"/>
<path d="M83.8594 91.8118L86.9194 97.0917L92.9994 93.5917" stroke="#231F20" stroke-width="0.75" stroke-miterlimit="10" stroke-linecap="round" stroke-linejoin="round"/>
<path d="M94.5581 136.952L82.2981 129.872C81.0581 129.152 80.0781 127.252 80.0781 125.612V112.252C80.0781 110.612 81.0781 109.852 82.2981 110.572L94.5581 117.652C95.7981 118.372 96.7781 120.272 96.7781 121.912V135.272C96.7981 136.912 95.7981 137.672 94.5581 136.952Z" fill="white" stroke="#231F20" stroke-width="0.75" stroke-miterlimit="10" stroke-linecap="round" stroke-linejoin="round"/>
<path d="M107.719 126.432L138.239 144.052" stroke="#231F20" stroke-width="0.75" stroke-miterlimit="10" stroke-linecap="round" stroke-linejoin="round"/>
<path d="M107.719 134.892L160.859 165.592" stroke="#231F20" stroke-width="0.75" stroke-miterlimit="10" stroke-linecap="round" stroke-linejoin="round"/>
<path d="M107.719 143.372L160.859 174.052" stroke="#231F20" stroke-width="0.75" stroke-miterlimit="10" stroke-linecap="round" stroke-linejoin="round"/>
<path d="M83.8594 121.112L86.9194 126.392L92.9994 122.892" stroke="#231F20" stroke-width="0.75" stroke-miterlimit="10" stroke-linecap="round" stroke-linejoin="round"/>
<path d="M94.5581 166.252L82.2981 159.172C81.0581 158.452 80.0781 156.552 80.0781 154.912V141.552C80.0781 139.912 81.0781 139.152 82.2981 139.872L94.5581 146.952C95.7981 147.672 96.7781 149.572 96.7781 151.212V164.572C96.7981 166.212 95.7981 166.972 94.5581 166.252Z" fill="#FFCF53" stroke="#231F20" stroke-width="0.75" stroke-miterlimit="10" stroke-linecap="round" stroke-linejoin="round"/>
<path d="M107.719 155.732L138.239 173.352" stroke="#231F20" stroke-width="0.75" stroke-miterlimit="10" stroke-linecap="round" stroke-linejoin="round"/>
<path d="M107.719 164.192L160.859 194.892" stroke="#231F20" stroke-width="0.75" stroke-miterlimit="10" stroke-linecap="round" stroke-linejoin="round"/>
<path d="M107.719 172.672L160.859 203.352" stroke="#231F20" stroke-width="0.75" stroke-miterlimit="10" stroke-linecap="round" stroke-linejoin="round"/>
<path d="M83.8594 150.412L86.9194 155.692L92.9994 152.192" fill="#FFCF53"/>
<path d="M83.8594 150.412L86.9194 155.692L92.9994 152.192" stroke="#231F20" stroke-width="0.75" stroke-miterlimit="10" stroke-linecap="round" stroke-linejoin="round"/>
</g>
<defs>
<clipPath id="clip0_1801_6547">
<rect width="250" height="250" fill="white"/>
</clipPath>
</defs>
</svg>
