<svg width="80" height="81" viewBox="0 0 80 81" fill="none" xmlns="http://www.w3.org/2000/svg">
<g clip-path="url(#clip0_249_1211)">
<path d="M48.8512 16.1272C48.8512 17.1205 48.0712 17.9005 47.0779 17.9005H32.7733C31.78 17.9005 31 17.1205 31 16.1272C31 15.1339 31.78 14.3539 32.7733 14.3539H47.0779C48.0712 14.3539 48.8512 15.1339 48.8512 16.1272Z" fill="#8BB4FF"/>
<path d="M48.8512 48.0465C48.8512 49.0398 48.0712 49.8198 47.0779 49.8198H32.7733C31.78 49.8198 31 49.0398 31 48.0465C31 47.0532 31.78 46.2732 32.7733 46.2732H47.0779C48.0712 46.2732 48.8512 47.0532 48.8512 48.0465Z" fill="#8BB4FF"/>
<path d="M48.848 48.0465C48.848 49.0398 48.068 49.8198 47.0747 49.8198H39.8633V46.2732H47.0747C48.068 46.2732 48.848 47.0532 48.848 48.0465Z" fill="#8BB4FF"/>
<path d="M47.0747 17.9005H39.8633V14.3539H47.0747C48.068 14.3539 48.848 15.1339 48.848 16.1272C48.848 17.1205 48.068 17.9005 47.0747 17.9005Z" fill="#8BB4FF"/>
<path d="M23.906 26.7669V33.8601C23.906 34.8534 23.126 35.6334 22.1327 35.6334C21.1393 35.6334 20.3594 34.8534 20.3594 33.8601V26.7669C20.3594 25.7736 21.1393 24.9937 22.1327 24.9937C23.126 24.9937 23.906 25.7736 23.906 26.7669Z" fill="#8BB4FF"/>
<path d="M59.488 26.7669V33.8601C59.488 34.8534 58.708 35.6334 57.7147 35.6334C56.7214 35.6334 55.9414 34.8534 55.9414 33.8601V26.7669C55.9414 25.7736 56.7214 24.9937 57.7147 24.9937C58.708 24.9937 59.488 25.7736 59.488 26.7669Z" fill="#8BB4FF"/>
<path d="M34.2971 7.40251L28.3391 7.26074L22.1325 14.3539L18.5859 21.2698L22.1325 28.5403C22.4516 28.5403 22.7352 28.4692 23.0192 28.2918L33.6945 21.9791C33.7656 21.9435 33.8363 21.8729 33.9074 21.8373C34.2971 21.4827 34.5456 20.9507 34.5456 20.4542V8.28916C34.5456 7.97006 34.4745 7.65096 34.2971 7.40251Z" fill="#5A69E6"/>
<path d="M15.9253 7.26074L9.9672 7.40251C9.78987 7.68652 9.71875 7.97006 9.71875 8.28916V20.4538C9.71875 20.9507 9.9672 21.4827 10.357 21.8373C10.4281 21.8729 21.2452 28.2918 21.2452 28.2918C21.5292 28.4692 21.8127 28.5403 22.1318 28.5403V14.3539L15.9253 7.26074Z" fill="#7984EB"/>
<path d="M34.298 7.40249L22.1334 14.3539L9.96875 7.40249C10.0043 7.36739 10.0394 7.29627 10.075 7.26072C10.2167 7.04783 10.3941 6.90606 10.607 6.76429L21.2467 0.297762C21.5307 0.120433 21.8494 0.0493164 22.1334 0.0493164C22.4174 0.0493164 22.736 0.120433 23.02 0.297762L33.6598 6.76429C33.8727 6.90606 34.05 7.08339 34.1918 7.26072C34.2273 7.29627 34.2624 7.36739 34.298 7.40249Z" fill="#B5BAF3"/>
<path d="M34.2974 7.40249L22.1328 14.3539V0.0493164C22.4168 0.0493164 22.7355 0.120433 23.0195 0.297762L33.6592 6.76429C33.8721 6.90606 34.0494 7.08339 34.1912 7.26072C34.2268 7.29627 34.2619 7.36739 34.2974 7.40249Z" fill="#979FEF"/>
<path d="M34.2971 39.3218L28.3391 39.1801L22.1325 46.2732L18.5859 53.3073L22.1325 60.5778C22.4516 60.5778 22.7352 60.5067 23.0192 60.3294L33.6945 54.0166C33.7656 53.9811 33.8363 53.9104 33.9074 53.8748C34.2971 53.5202 34.5456 52.9882 34.5456 52.4918V40.2085C34.5456 39.8894 34.4745 39.5703 34.2971 39.3218Z" fill="#5A69E6"/>
<path d="M15.9253 39.18L9.9672 39.3218C9.78987 39.6058 9.71875 39.8893 9.71875 40.2084V52.4912C9.71875 52.9881 9.9672 53.5201 10.357 53.8748C10.4281 53.9103 21.2452 60.3293 21.2452 60.3293C21.5292 60.5066 21.8127 60.5777 22.1318 60.5777V46.2732L15.9253 39.18Z" fill="#7984EB"/>
<path d="M34.298 39.3217L22.1334 46.2731L9.96875 39.3217C10.0038 39.2866 10.0394 39.2155 10.075 39.18C10.2167 38.9671 10.3941 38.8253 10.607 38.6835L21.2467 32.3352C21.5307 32.1579 21.8494 32.0868 22.1334 32.0868C22.4174 32.0868 22.736 32.1579 23.02 32.3352L33.6598 38.6835C33.8727 38.8253 34.05 39.0026 34.1918 39.18C34.2273 39.2155 34.2624 39.2866 34.298 39.3217Z" fill="#B5BAF3"/>
<path d="M34.2974 39.3217L22.1328 46.2731V32.0868C22.4168 32.0868 22.7355 32.1579 23.0195 32.3352L33.6592 38.6835C33.8721 38.8253 34.0494 39.0026 34.1912 39.18C34.2268 39.2155 34.2619 39.2866 34.2974 39.3217V39.3217Z" fill="#979FEF"/>
<path d="M69.8792 39.3218L63.9211 39.1801L57.7146 46.2732L54.168 53.3073L57.7146 60.5778C58.0337 60.5778 58.3172 60.5067 58.6012 60.3294L69.2765 54.0166C69.3476 53.9811 69.4183 53.9104 69.4894 53.8748C69.8792 53.5202 70.1276 52.9882 70.1276 52.4918V40.2085C70.1276 39.8894 70.0565 39.5703 69.8792 39.3218Z" fill="#5A69E6"/>
<path d="M51.5112 39.1801L45.5531 39.3218C45.3758 39.6058 45.3047 39.8894 45.3047 40.2085V52.4913C45.3047 52.9882 45.5531 53.5202 45.9429 53.8748C46.014 53.9099 56.8311 60.3294 56.8311 60.3294C57.1151 60.5067 57.3987 60.5778 57.7178 60.5778V46.2732L51.5112 39.1801Z" fill="#7984EB"/>
<path d="M69.88 39.3217L57.7154 46.2731L45.5508 39.3217C45.5859 39.2866 45.6214 39.2155 45.657 39.18C45.7988 38.9671 45.9761 38.8253 46.189 38.6835L56.8288 32.3352C57.1128 32.1579 57.4314 32.0868 57.7154 32.0868C57.9994 32.0868 58.318 32.1579 58.602 32.3352L69.2418 38.6835C69.4547 38.8253 69.632 39.0026 69.7738 39.18C69.8094 39.2155 69.8445 39.2866 69.88 39.3217Z" fill="#B5BAF3"/>
<path d="M69.8795 39.3217L57.7148 46.2731V32.0868C57.9988 32.0868 58.3175 32.1579 58.6015 32.3352L69.2413 38.6835C69.4541 38.8253 69.6315 39.0026 69.7732 39.18C69.8088 39.2155 69.8439 39.2866 69.8795 39.3217Z" fill="#979FEF"/>
<path d="M69.8792 7.40251L63.9211 7.26074L57.7146 14.3539L54.168 21.2698L57.7146 28.5403C58.0337 28.5403 58.3172 28.4692 58.6012 28.2918L69.2765 21.9791C69.3476 21.9435 69.4183 21.8729 69.4894 21.8373C69.8792 21.4827 70.1276 20.9507 70.1276 20.4542V8.28916C70.1276 7.97006 70.0565 7.65096 69.8792 7.40251Z" fill="#5A69E6"/>
<path d="M51.5112 7.26074L45.5531 7.40251C45.3758 7.68652 45.3047 7.97006 45.3047 8.28916V20.4538C45.3047 20.9507 45.5531 21.4827 45.9429 21.8373C46.014 21.8724 56.8311 28.2918 56.8311 28.2918C57.1151 28.4692 57.3987 28.5403 57.7178 28.5403V14.3539L51.5112 7.26074Z" fill="#7984EB"/>
<path d="M69.88 7.40249L57.7154 14.3539L45.5508 7.40249C45.5859 7.36739 45.6214 7.29627 45.657 7.26072C45.7988 7.04783 45.9761 6.90606 46.189 6.76429L56.8288 0.297762C57.1128 0.120433 57.4314 0.0493164 57.7154 0.0493164C57.9994 0.0493164 58.318 0.120433 58.602 0.297762L69.2418 6.76429C69.4547 6.90606 69.632 7.08339 69.7738 7.26072C69.8094 7.29627 69.8445 7.36739 69.88 7.40249Z" fill="#B5BAF3"/>
<path d="M69.8795 7.40249L57.7148 14.3539V0.0493164C57.9988 0.0493164 58.3175 0.120433 58.6015 0.297762L69.2413 6.76429C69.4541 6.90606 69.6315 7.08339 69.7732 7.26072C69.8088 7.29627 69.8439 7.36739 69.8795 7.40249Z" fill="#979FEF"/>
</g>
<defs>
<clipPath id="clip0_249_1211">
<rect width="80" height="80" fill="white" transform="translate(0 0.0493164)"/>
</clipPath>
</defs>
</svg>
