<svg width="80" height="81" viewBox="0 0 80 81" fill="none" xmlns="http://www.w3.org/2000/svg">
<g clip-path="url(#clip0_249_1121)">
<path d="M21.0583 34.1448C20.0115 34.1448 19.1641 33.2974 19.1641 32.2506V17.0971C19.1641 16.0503 20.0115 15.2029 21.0583 15.2029H28.635C29.6818 15.2029 30.5292 16.0503 30.5292 17.0971C30.5292 18.1438 29.6818 18.9913 28.635 18.9913H22.9524V32.2506C22.9524 33.2974 22.105 34.1448 21.0583 34.1448Z" fill="#8BB4FF"/>
<path d="M58.9397 34.1448C57.893 34.1448 57.0455 33.2974 57.0455 32.2506V18.9913H51.3629C50.3162 18.9913 49.4688 18.1438 49.4688 17.0971C49.4688 16.0503 50.3162 15.2029 51.3629 15.2029H58.9397C59.9865 15.2029 60.8339 16.0503 60.8339 17.0971V32.2506C60.8339 33.2974 59.9865 34.1448 58.9397 34.1448Z" fill="#8BB4FF"/>
<path d="M72.061 38.0847L65.5704 37.9332L58.9407 45.51L55.1523 52.8974L58.9407 60.6635C59.2816 60.6635 59.5845 60.5876 59.8878 60.3982L71.4172 53.655C71.4932 53.617 71.5687 53.5416 71.6446 53.5036C72.061 53.1248 72.3264 52.5565 72.3264 52.0262V39.0318C72.3264 38.6909 72.2504 38.35 72.061 38.0847Z" fill="#5A69E6"/>
<path d="M52.3133 37.9332L45.949 38.0847C45.7596 38.388 45.6836 38.6909 45.6836 39.0318V52.0257C45.6836 52.5565 45.949 53.1248 46.3653 53.5036C46.4413 53.5411 57.9958 60.3982 57.9958 60.3982C58.2992 60.5876 58.6021 60.6635 58.9429 60.6635V45.51L52.3133 37.9332Z" fill="#7984EB"/>
<path d="M72.0595 38.0847L58.9393 45.51L45.9453 38.0847C45.9828 38.0472 46.0208 37.9712 46.0588 37.9332C46.2102 37.7058 46.3996 37.5544 46.627 37.4029L57.9922 30.6218C58.2955 30.4324 58.6359 30.3564 58.9393 30.3564C59.2426 30.3564 59.583 30.4324 59.8864 30.6218L71.3778 37.4029C71.6052 37.5544 71.7946 37.7438 71.9461 37.9332C71.9841 37.9712 72.0215 38.0472 72.0595 38.0847Z" fill="#979FEF"/>
<path d="M34.0519 38.0847L27.6876 37.9332L21.0579 45.51L17.2695 52.8974L21.0579 60.6635C21.3988 60.6635 21.7016 60.5876 22.005 60.3982L33.4081 53.655C33.4841 53.617 33.5596 53.5416 33.6356 53.5036C34.0519 53.1248 34.3173 52.5565 34.3173 52.0262V39.0318C34.3173 38.6909 34.2413 38.35 34.0519 38.0847Z" fill="#5A69E6"/>
<path d="M14.4278 37.9332L7.93726 38.0846C7.74784 38.388 7.67188 38.6908 7.67188 39.0317V52.0257C7.67188 52.5564 7.93726 53.1247 8.35359 53.5035C8.42955 53.541 20.1104 60.3981 20.1104 60.3981C20.4138 60.5875 20.7166 60.6635 21.0575 60.6635V45.5099L14.4278 37.9332Z" fill="#7984EB"/>
<path d="M34.0517 38.0847L21.0577 45.51L7.9375 38.0847C7.97499 38.0472 8.01297 37.9712 8.05095 37.9332C8.20239 37.7058 8.39181 37.5544 8.61921 37.4029L20.1106 30.6218C20.414 30.4324 20.7544 30.3564 21.0577 30.3564C21.3611 30.3564 21.7015 30.4324 22.0048 30.6218L33.37 37.4029C33.5974 37.5544 33.7868 37.7438 33.9383 37.9332C33.9762 37.9712 34.0137 38.0472 34.0517 38.0847Z" fill="#B5BAF3"/>
<path d="M52.9933 7.77754L46.629 7.6261L39.9993 15.2029L36.2109 22.5902L39.9993 30.3564C40.3402 30.3564 40.6431 30.2804 40.9464 30.091L52.3496 23.3479C52.4255 23.3099 52.501 23.2344 52.577 23.1965C52.9933 22.8176 53.2587 22.2494 53.2587 21.7191V8.72463C53.2587 8.38378 53.1827 8.04292 52.9933 7.77754Z" fill="#5A69E6"/>
<path d="M33.368 7.6261L27.0037 7.77754C26.8142 8.0809 26.7383 8.38378 26.7383 8.72463V21.7186C26.7383 22.2494 27.0037 22.8176 27.42 23.1965C27.496 23.234 39.0505 30.091 39.0505 30.091C39.3539 30.2804 39.6568 30.3564 39.9976 30.3564V15.2029L33.368 7.6261Z" fill="#7984EB"/>
<path d="M52.9918 7.77752L39.9979 15.2029L27.0039 7.77752C27.0414 7.74004 27.0794 7.66407 27.1174 7.62609C27.2688 7.39869 27.4582 7.24725 27.6856 7.09581L39.0508 0.314701C39.3541 0.125281 39.6945 0.0493164 39.9979 0.0493164C40.3012 0.0493164 40.6416 0.125281 40.945 0.314701L52.3101 7.09581C52.5375 7.24725 52.7269 7.43667 52.8784 7.62609C52.9164 7.66407 52.9539 7.74004 52.9918 7.77752Z" fill="#B5BAF3"/>
<path d="M52.994 7.77752L40 15.2029V0.0493164C40.3034 0.0493164 40.6437 0.125281 40.9471 0.314701L52.3123 7.09581C52.5397 7.24725 52.7291 7.43667 52.8805 7.62609C52.9185 7.66407 52.956 7.74004 52.994 7.77752Z" fill="#979FEF"/>
</g>
<defs>
<clipPath id="clip0_249_1121">
<rect width="80" height="80" fill="white" transform="translate(0 0.0493164)"/>
</clipPath>
</defs>
</svg>
