<svg width="80" height="81" viewBox="0 0 80 81" fill="none" xmlns="http://www.w3.org/2000/svg">
<g clip-path="url(#clip0_249_1188)">
<path d="M51.2352 30.3014L40.0042 49.0907C29.644 49.0907 21.2148 40.6615 21.2148 30.3014C21.2148 19.9413 29.644 11.5121 40.0042 11.5121L51.2352 30.3014Z" fill="#FFD400"/>
<path d="M58.7932 30.3013C58.7932 40.6614 50.364 49.0906 40.0039 49.0906V11.512C50.364 11.512 58.7932 19.9412 58.7932 30.3013Z" fill="#FDBF00"/>
<path d="M44.1986 30.3013L40.0035 39.6369C39.6998 39.6369 39.3961 39.5589 39.1243 39.4029L32.5067 35.6214C31.9536 35.3059 31.6133 34.7186 31.6133 34.0828V26.5198C31.6133 25.884 31.9536 25.2967 32.5067 24.9812L39.1243 21.1997C39.3961 21.0437 39.6998 20.9657 40.0035 20.9657L44.1986 30.3013Z" fill="#FDBF00"/>
<path d="M48.3941 26.5198V34.0828C48.3941 34.7186 48.0538 35.3059 47.5007 35.6214L40.8831 39.4029C40.6113 39.5589 40.3076 39.6369 40.0039 39.6369V20.9657C40.3076 20.9657 40.6113 21.0437 40.8831 21.1997L47.5007 24.9812C48.0538 25.2967 48.3941 25.884 48.3941 26.5198Z" fill="#FF9F00"/>
<path d="M46.1698 51.1587L40.0071 56.6537C33.0574 56.6537 26.4126 53.6817 21.7756 48.4998C21.31 47.9787 21.193 47.233 21.479 46.5949C21.7637 45.9568 22.3971 45.5455 23.0967 45.5455H40.0071L46.1698 51.1587Z" fill="#979FEF"/>
<path d="M70.2559 51.0925C70.2583 51.6325 70.0137 52.1442 69.593 52.4822L60.021 60.1634C59.6996 60.421 59.3073 60.5533 58.9114 60.5533C58.6502 60.5533 58.3891 60.4954 58.1445 60.3784C57.53 60.0842 57.1388 59.4626 57.1388 58.7807V56.6536H40.0039V45.5455H57.1388V43.5366C57.1388 42.8571 57.5276 42.2379 58.1386 41.9413C58.7507 41.6446 59.4774 41.725 60.0104 42.1457L69.5823 49.7087C70.0054 50.0431 70.2535 50.5536 70.2559 51.0925Z" fill="#5A69E6"/>
<path d="M45.5954 9.50308L40.0059 15.0572H22.871V17.0661C22.871 17.7456 22.4822 18.3648 21.8713 18.6614C21.6255 18.7808 21.3619 18.8387 21.0984 18.8387C20.7073 18.8387 20.3185 18.7087 19.9994 18.457L10.4275 10.894C10.0044 10.5595 9.75629 10.049 9.75392 9.51017C9.75156 8.97013 9.99618 8.45844 10.4169 8.12047L19.9888 0.439302C20.5206 0.0127015 21.2497 -0.0712005 21.8654 0.224229C22.4798 0.518359 22.871 1.14006 22.871 1.82191V3.94901H40.0059L45.5954 9.50308Z" fill="#00EC89"/>
<path d="M58.5321 14.0078C58.2473 14.6459 57.6139 15.0572 56.9143 15.0572H40.0039V3.94901C46.9536 3.94901 53.5984 6.92103 58.2355 12.1029C58.7011 12.624 58.818 13.3695 58.5321 14.0078Z" fill="#00CBB1"/>
</g>
<defs>
<clipPath id="clip0_249_1188">
<rect width="80" height="80" fill="white" transform="translate(0 0.0493164)"/>
</clipPath>
</defs>
</svg>
