<svg width="80" height="80" viewBox="0 0 80 80" fill="none" xmlns="http://www.w3.org/2000/svg">
<path d="M69.8216 27.6833C69.788 25.1587 69.3154 22.6592 68.4249 20.2966C67.6528 18.3038 66.4734 16.494 64.9622 14.9827C63.451 13.4715 61.6411 12.2921 59.6483 11.52C57.3161 10.6445 54.8522 10.1711 52.3616 10.12C49.1549 9.97665 48.1383 9.93665 39.9983 9.93665C31.8583 9.93665 30.8149 9.93665 27.6316 10.12C25.1421 10.1715 22.6794 10.6449 20.3483 11.52C18.3551 12.2916 16.545 13.4708 15.0337 14.9821C13.5224 16.4934 12.3432 18.3035 11.5716 20.2966C10.6944 22.6271 10.222 25.0903 10.1749 27.58C10.0316 30.79 9.98828 31.8066 9.98828 39.9466C9.98828 48.0866 9.98828 49.1266 10.1749 52.3133C10.2249 54.8066 10.6949 57.2666 11.5716 59.6033C12.3445 61.5958 13.5246 63.4052 15.0364 64.9159C16.5482 66.4265 18.3585 67.6052 20.3516 68.3766C22.6764 69.2873 25.1395 69.7946 27.6349 69.8766C30.8449 70.02 31.8616 70.0633 40.0016 70.0633C48.1416 70.0633 49.1849 70.0633 52.3683 69.8766C54.8588 69.8276 57.3228 69.3553 59.6549 68.48C61.6473 67.7069 63.4566 66.5272 64.9678 65.0161C66.4789 63.505 67.6586 61.6956 68.4316 59.7033C69.3083 57.37 69.7783 54.91 69.8283 52.4133C69.9716 49.2066 70.0149 48.19 70.0149 40.0466C70.0083 31.9066 70.0083 30.8733 69.8216 27.6833ZM39.9783 55.34C31.465 55.34 24.5683 48.4433 24.5683 39.93C24.5683 31.4166 31.465 24.52 39.9783 24.52C44.0653 24.52 47.9849 26.1435 50.8748 29.0335C53.7647 31.9234 55.3883 35.843 55.3883 39.93C55.3883 44.017 53.7647 47.9366 50.8748 50.8265C47.9849 53.7164 44.0653 55.34 39.9783 55.34ZM56.0016 27.5433C55.5296 27.5437 55.0621 27.4511 54.626 27.2707C54.1898 27.0903 53.7935 26.8256 53.4598 26.4918C53.126 26.1581 52.8613 25.7618 52.6809 25.3256C52.5005 24.8894 52.4078 24.422 52.4083 23.95C52.4083 23.4783 52.5012 23.0113 52.6817 22.5755C52.8622 22.1397 53.1267 21.7438 53.4603 21.4103C53.7938 21.0768 54.1897 20.8122 54.6255 20.6317C55.0612 20.4512 55.5283 20.3583 56 20.3583C56.4716 20.3583 56.9387 20.4512 57.3744 20.6317C57.8102 20.8122 58.2061 21.0768 58.5396 21.4103C58.8732 21.7438 59.1377 22.1397 59.3182 22.5755C59.4987 23.0113 59.5916 23.4783 59.5916 23.95C59.5916 25.9366 57.985 27.5433 56.0016 27.5433Z" fill="white"/>
<path d="M39.9788 49.94C45.5071 49.94 49.9887 45.4584 49.9887 39.93C49.9887 34.4017 45.5071 29.92 39.9788 29.92C34.4504 29.92 29.9688 34.4017 29.9688 39.93C29.9688 45.4584 34.4504 49.94 39.9788 49.94Z" fill="white"/>
</svg>
