<svg width="80" height="80" viewBox="0 0 80 80" fill="none" xmlns="http://www.w3.org/2000/svg">
<path d="M73.3346 28.6934V55.8334C73.3348 58.6005 72.2761 61.2628 70.3757 63.2741C68.4753 65.2855 65.8773 66.4934 63.1146 66.65L62.5013 66.6667H17.5013C14.7342 66.6669 12.0719 65.6082 10.0605 63.7078C8.04919 61.8074 6.8413 59.2094 6.68464 56.4467L6.66797 55.8334V28.6934L38.8413 45.5467C39.1992 45.7342 39.5973 45.8321 40.0013 45.8321C40.4053 45.8321 40.8034 45.7342 41.1613 45.5467L73.3346 28.6934ZM17.5013 13.3334H62.5013C65.1866 13.3331 67.7763 14.33 69.7681 16.1309C71.7599 17.9318 73.0119 20.4083 73.2813 23.08L40.0013 40.5134L6.7213 23.08C6.97971 20.5144 8.1448 18.1251 10.0071 16.3416C11.8695 14.5581 14.3069 13.4973 16.8813 13.35L17.5013 13.3334H62.5013H17.5013Z" fill="white"/>
</svg>
