<svg width="80" height="80" viewBox="0 0 80 80" fill="none" xmlns="http://www.w3.org/2000/svg">
<path fill-rule="evenodd" clip-rule="evenodd" d="M37.6354 72.3533L39.9987 70L37.6354 72.3533ZM39.9987 70L42.3587 72.3533C42.049 72.6642 41.681 72.9109 41.2757 73.0793C40.8704 73.2476 40.4359 73.3343 39.997 73.3343C39.5582 73.3343 39.1237 73.2476 38.7184 73.0793C38.3131 72.9109 37.9451 72.6642 37.6354 72.3533L37.6154 72.33L37.5587 72.2733L37.352 72.0633C36.177 70.8529 35.0213 69.6238 33.8854 68.3766C31.0334 65.2515 28.3025 62.018 25.6987 58.6833C22.7254 54.85 19.6854 50.5166 17.3754 46.2366C15.1154 42.04 13.332 37.4933 13.332 33.3333C13.332 18.2033 25.3054 6.66663 39.9987 6.66663C54.692 6.66663 66.6654 18.2033 66.6654 33.3333C66.6654 37.4933 64.882 42.04 62.622 46.2333C60.312 50.52 57.2754 54.85 54.2987 58.6833C50.6566 63.3487 46.7666 67.8152 42.6454 72.0633L42.4387 72.2733L42.382 72.33L42.362 72.35L39.9987 70ZM39.9987 43.3333C42.6509 43.3333 45.1944 42.2797 47.0698 40.4044C48.9451 38.529 49.9987 35.9855 49.9987 33.3333C49.9987 30.6811 48.9451 28.1376 47.0698 26.2622C45.1944 24.3869 42.6509 23.3333 39.9987 23.3333C37.3465 23.3333 34.803 24.3869 32.9276 26.2622C31.0523 28.1376 29.9987 30.6811 29.9987 33.3333C29.9987 35.9855 31.0523 38.529 32.9276 40.4044C34.803 42.2797 37.3465 43.3333 39.9987 43.3333Z" fill="white"/>
</svg>
