<svg width="131" height="306" viewBox="0 0 131 306" fill="none" xmlns="http://www.w3.org/2000/svg">
<path d="M1 229.782C1 236.083 5.20068 243.434 10.7141 246.585L109.169 303.295C112.057 304.87 114.42 305.132 116.257 303.82C116.52 303.82 116.52 303.557 116.782 303.557C117.045 303.557 117.045 303.295 117.308 303.295C117.308 303.295 117.57 303.032 117.57 302.77C117.833 302.507 118.095 302.244 118.095 301.719C118.095 301.457 118.358 301.457 118.358 301.194C118.358 300.932 118.62 300.669 118.62 300.407C118.62 300.144 118.62 300.144 118.62 299.882C118.62 299.619 118.62 299.356 118.62 299.094C118.62 298.831 118.62 298.831 118.62 298.569C118.62 298.306 118.62 298.044 118.62 297.519V293.055V267.063V241.596L118.883 184.624V184.099V168.346L119.145 112.424V110.849V93.7835V86.9574V81.7065C119.145 75.4054 114.945 68.0541 109.431 64.9036L87.3774 52.3014L69.2618 41.7996L40.6443 25.2593L37.4938 23.4214L11.2392 8.19385C10.9767 7.9313 10.4516 7.66872 10.1891 7.66872C8.87636 7.14363 7.56357 6.88112 6.51339 6.88112C6.25084 6.88112 6.25089 6.88112 5.98834 6.88112C5.7258 6.88112 5.72577 6.88112 5.46322 6.88112C5.20068 6.88112 4.6756 7.1437 4.41306 7.40624C2.57524 8.45642 1.52504 10.5567 1.52504 13.7072V26.8345V44.4251L1 198.802V229.782Z" fill="white" stroke="#262626" stroke-width="0.75" stroke-miterlimit="10" stroke-linecap="round" stroke-linejoin="round"/>
<path d="M111.008 111.899C111.008 109.536 109.432 106.911 107.594 105.861L12.2906 50.9889C10.4528 49.9387 8.87751 50.7263 8.61497 53.0892L8.08984 199.327C8.08984 201.69 9.66516 204.315 11.503 205.365L106.544 260.237C108.382 261.288 110.22 260.5 110.22 258.137L111.008 111.899Z" fill="#E06AE9" stroke="#262626" stroke-width="0.75" stroke-miterlimit="10" stroke-linecap="round" stroke-linejoin="round"/>
<path d="M111.008 111.899C111.008 109.536 109.432 106.911 107.594 105.861L12.2906 50.9889C10.4528 49.9387 8.87751 50.7263 8.61497 53.0892L8.08984 199.327C8.08984 201.69 9.66516 204.315 11.503 205.365L106.544 260.237C108.382 261.288 110.22 260.5 110.22 258.137L111.008 111.899Z" stroke="#262626" stroke-width="0.75" stroke-miterlimit="10" stroke-linecap="round" stroke-linejoin="round"/>
<path d="M4.67578 7.93111C4.93833 7.66856 5.20086 7.66869 5.72595 7.40615C5.98849 7.40615 5.98852 7.40615 6.25107 7.40615C6.51361 7.40615 6.51357 7.40615 6.77611 7.40615C7.82629 7.40615 9.139 7.40612 10.4517 8.19375C10.7143 8.4563 11.2394 8.45633 11.502 8.71887L37.7565 23.9465L40.907 25.7843L69.5244 42.3246L87.6401 52.8264L109.694 65.4286C114.945 68.5791 119.408 75.9305 119.408 82.2315V87.4825V94.3086V111.374V112.949L120.196 112.424L130.172 106.648V75.9304C130.172 69.6293 125.709 62.278 120.458 59.1274L22.2663 2.41772C19.6408 0.842452 17.0154 0.579939 15.4402 1.63012L4.67578 7.93111Z" fill="white" stroke="#262626" stroke-width="0.75" stroke-miterlimit="10" stroke-linecap="round" stroke-linejoin="round"/>
<path d="M116.258 304.345L127.022 298.044C128.86 296.994 129.91 294.893 129.91 291.743V287.017V261.025L119.146 267.326V293.318V297.781C119.146 298.044 119.146 298.306 119.146 298.831C119.146 299.094 119.146 299.094 119.146 299.356C119.146 299.619 119.146 299.882 119.146 300.144C119.146 300.407 119.146 300.407 119.146 300.669C119.146 300.932 118.883 301.194 118.883 301.457C118.883 301.719 118.621 301.719 118.621 301.982C118.358 302.244 118.358 302.77 118.096 303.032C118.096 303.295 117.833 303.295 117.833 303.557C117.571 303.557 117.571 303.82 117.308 303.82C116.52 303.82 116.52 304.082 116.258 304.345C116.258 304.082 116.258 304.082 116.258 304.345Z" fill="white"/>
<path d="M116.258 304.345L127.022 298.044C128.86 296.994 129.91 294.893 129.91 291.743V287.017V261.025L119.146 267.326V293.318V297.781C119.146 298.044 119.146 298.306 119.146 298.831C119.146 299.094 119.146 299.094 119.146 299.356C119.146 299.619 119.146 299.882 119.146 300.144C119.146 300.407 119.146 300.407 119.146 300.669C119.146 300.932 118.883 301.194 118.883 301.457C118.883 301.719 118.621 301.719 118.621 301.982C118.358 302.244 118.358 302.77 118.096 303.032C118.096 303.295 117.833 303.295 117.833 303.557C117.571 303.557 117.571 303.82 117.308 303.82C116.52 303.82 116.52 304.082 116.258 304.345ZM116.258 304.345C116.258 304.082 116.258 304.082 116.258 304.345Z" stroke="#262626" stroke-width="0.75" stroke-miterlimit="10" stroke-linecap="round" stroke-linejoin="round"/>
<path d="M119.145 267.326L129.909 261.025L130.171 106.648L120.195 112.424L119.407 112.949V168.871V184.624V184.887L119.145 241.859V267.326Z" fill="white" stroke="#262626" stroke-width="0.75" stroke-miterlimit="10" stroke-linecap="round" stroke-linejoin="round"/>
<path d="M54.5547 158.632C55.3423 158.894 56.1299 159.157 56.9176 159.682C56.1299 159.157 55.3423 158.894 54.5547 158.632Z" fill="white" stroke="#262626" stroke-width="0.75" stroke-miterlimit="10" stroke-linecap="round" stroke-linejoin="round"/>
<path d="M35.3906 173.597C36.1783 163.62 41.6918 157.844 49.3056 157.844C49.5681 157.844 50.0932 157.844 50.3557 157.844H50.6183C50.8808 157.844 51.4059 157.844 51.6685 158.107C52.1936 158.107 52.4561 158.369 52.9812 158.369C52.7186 158.369 52.4561 158.107 51.931 158.107C51.6685 158.107 51.4059 158.107 50.8809 157.844C42.4794 156.794 35.9157 162.57 35.3906 173.597Z" fill="white" stroke="#262626" stroke-width="0.75" stroke-miterlimit="10" stroke-linecap="round" stroke-linejoin="round"/>
<path d="M48.7812 141.042C48.7812 148.393 54.0321 157.582 60.3332 161.258C66.8969 164.933 72.1478 162.045 72.1478 154.432C72.1478 147.08 66.8969 137.891 60.5958 134.215C54.0322 130.54 48.7812 133.69 48.7812 141.042Z" fill="white" stroke="#262626" stroke-width="0.75" stroke-miterlimit="10" stroke-linecap="round" stroke-linejoin="round"/>
<path d="M35.3906 173.597C36.1783 163.62 41.6918 157.844 49.3056 157.844C49.5681 157.844 50.0932 157.844 50.3557 157.844H50.6183C50.8808 157.844 50.8808 157.844 51.1433 157.844C42.4793 156.794 35.9157 162.57 35.3906 173.597ZM52.1936 158.107C51.931 158.107 51.6684 158.107 51.1433 157.844C51.4059 157.844 51.6685 157.844 51.6685 157.844C51.931 158.107 52.1936 158.107 52.1936 158.107Z" fill="white" stroke="#262626" stroke-width="0.75" stroke-miterlimit="10" stroke-linecap="round" stroke-linejoin="round"/>
<path d="M35.3914 175.697C35.3914 174.91 35.3914 174.122 35.3914 173.597C35.9165 162.57 42.4802 156.794 51.1441 157.844C51.4067 157.844 51.6693 157.844 52.1944 158.107C52.4569 158.107 52.7195 158.107 53.2446 158.369C53.7696 158.369 54.2947 158.632 54.5573 158.632C55.3449 158.894 56.1325 159.157 56.9202 159.682C57.9704 160.207 59.0206 160.732 60.0707 161.257C53.5071 157.582 48.5187 148.393 48.5187 141.041C48.5187 133.69 53.7696 130.54 60.3332 134.478C66.8969 138.153 71.8853 147.342 71.8853 154.694C71.8853 162.045 66.6344 165.195 60.0707 161.52C73.9856 169.396 85.0125 189.087 85.0125 204.84C93.414 201.427 98.9274 192.5 98.9274 178.848C98.9274 154.169 81.5994 124.239 60.3332 111.899C38.8045 99.5593 21.4766 109.536 21.4766 133.953C21.4766 147.342 26.99 162.57 35.3914 175.697Z" fill="#262626" stroke="#262626" stroke-width="0.75" stroke-miterlimit="10" stroke-linecap="round" stroke-linejoin="round"/>
<path d="M35.3906 175.435C42.2168 186.199 50.8808 195.125 60.3324 200.639C69.7841 206.152 78.448 207.203 85.2742 204.577C85.2742 188.824 74.2473 169.133 60.3324 161.257C59.2822 160.732 58.2321 159.944 57.1819 159.682C56.3943 159.419 55.6067 159.157 54.819 158.632C54.2939 158.369 53.7689 158.369 53.5063 158.369C52.9812 158.369 52.7187 158.107 52.1936 158.107C51.931 158.107 51.4059 158.107 51.1433 157.844H50.8809C50.6183 157.844 50.0932 157.844 49.8306 157.844C41.9543 157.844 36.4408 163.62 35.9157 173.597C35.3907 174.122 35.3906 174.91 35.3906 175.435Z" fill="white" stroke="#262626" stroke-width="0.75" stroke-miterlimit="10" stroke-linecap="round" stroke-linejoin="round"/>
<path d="M50.8828 248.948L69.261 259.449" stroke="#262626" stroke-width="0.75" stroke-miterlimit="10" stroke-linecap="round" stroke-linejoin="round"/>
<path d="M51.4102 52.5637L69.7883 63.3282" stroke="#262626" stroke-width="0.75" stroke-miterlimit="10" stroke-linecap="round" stroke-linejoin="round"/>
</svg>
