<svg width="197" height="258" viewBox="0 0 197 258" fill="none" xmlns="http://www.w3.org/2000/svg">
<path d="M26.0173 160.998C-3.61947 93.7489 6.72646 24.1294 49.1879 5.48514C91.6494 -13.1591 150.061 26.2848 179.698 93.5334C209.334 160.782 198.988 230.402 156.527 249.046C114.066 267.69 55.6541 228.246 26.0173 160.998Z" fill="#3B2E56" stroke="#262626" stroke-width="0.5" stroke-miterlimit="10"/>
<path d="M17.8229 164.231C-11.8138 96.982 -1.25237 27.2547 41.3168 8.61047C83.8861 -10.1415 142.513 29.3023 172.15 96.5509C201.787 163.8 191.333 233.527 148.656 252.279C106.087 270.815 47.4597 231.479 17.8229 164.231Z" fill="#7A18D5" stroke="#262626" stroke-width="0.5" stroke-miterlimit="10"/>
<path d="M119.338 119.722V127.804L94.1201 113.148L93.9046 172.744L86.8995 168.649L87.1151 109.16L61.7891 94.5033L61.8968 86.5283L119.338 119.722Z" fill="white" stroke="#262626" stroke-width="0.5" stroke-miterlimit="10"/>
<path d="M90.5661 187.401C62.4381 171.344 39.6986 130.175 39.6986 98.2754C39.8064 66.3755 64.378 54.3052 92.506 70.2552C120.634 86.2052 143.481 125.218 143.481 157.118C143.481 189.018 119.772 204.645 91.5361 188.587L90.5661 187.401ZM92.6138 61.2025C59.9594 42.666 33.4479 57.5383 33.3402 94.5035C33.2324 131.361 59.6361 176.517 92.2905 195.053C124.837 213.59 151.456 198.717 151.564 161.752C151.672 124.895 125.268 79.739 92.6138 61.2025Z" fill="#D0D2D3" stroke="#262626" stroke-width="0.5" stroke-miterlimit="10"/>
<path d="M90.3506 186.324C63.0848 170.589 40.9919 132.331 41.0996 100.97C41.2074 69.6086 63.4081 56.9995 90.6739 72.734C117.94 88.4684 140.033 126.727 139.925 158.088C139.925 189.341 117.616 202.058 90.3506 186.324ZM90.7817 63.7891C59.205 45.5759 33.448 60.2326 33.3402 96.4434C33.2324 132.654 58.774 176.948 90.3506 195.161C121.927 213.374 147.577 198.717 147.684 162.507C147.792 126.296 122.251 82.0022 90.7817 63.7891Z" fill="white" stroke="#262626" stroke-width="0.5" stroke-miterlimit="10"/>
</svg>
