<svg width="230" height="306" viewBox="0 0 230 306" fill="none" xmlns="http://www.w3.org/2000/svg">
<path d="M157.399 232.731L157.327 232.767L157.269 232.824L157.061 233.033L156.387 233.482L150.801 236.639L150.792 236.645L150.782 236.651C149.905 237.199 148.724 237.488 147.516 237.488C146.309 237.488 145.127 237.199 144.25 236.651L144.242 236.645L144.233 236.64L134.014 230.801L134.005 230.796L131.579 229.34L131.579 229.34L131.571 229.335L106.974 215.21L106.974 215.21L93.8318 207.666L91.9399 206.483L91.7367 206.28L91.6793 206.223L91.6067 206.186C90.7461 205.756 90.4219 205.171 90.4219 204.685V204.442C90.4219 203.956 90.7461 203.371 91.6067 202.941L91.6227 202.933L91.638 202.924L98.1976 199.037C99.0824 198.598 100.272 198.367 101.49 198.367C102.708 198.367 103.9 198.599 104.785 199.038L117.194 206.094L117.499 206.268L117.766 206.039C122.993 201.558 125.977 194.843 125.977 188.125V166.919L149.573 183.273V205.172C149.573 210.854 146.73 216.308 142.227 219.625L141.613 220.078L142.273 220.46L146.9 223.139L146.904 223.141L157.528 229.178C157.864 229.628 158.126 230.002 158.309 230.341C158.501 230.697 158.584 230.978 158.584 231.23C158.584 231.716 158.26 232.301 157.399 232.731Z" fill="white" stroke="#262626"/>
<mask id="path-2-inside-1_470_2135" fill="white">
<path d="M149.588 199.328C146.666 197.136 143.5 195.431 140.334 193.727C139.36 193.239 138.143 192.752 137.169 192.996C135.951 193.239 134.977 194.457 134.246 195.431C132.785 197.623 131.567 199.815 130.106 202.006C128.645 204.198 126.697 205.903 124.505 207.121C122.07 208.095 119.147 208.095 117.199 206.39C121.096 203.468 123.531 198.841 124.505 194.214C125.479 189.343 125.479 183.742 125.236 178.871C126.453 179.602 131.811 183.498 135.22 184.96C139.117 186.664 143.013 189.099 146.666 191.291C147.64 191.778 148.614 192.509 149.101 193.483C150.076 195.188 149.589 197.136 149.101 199.084"/>
</mask>
<path d="M149.588 199.328C146.666 197.136 143.5 195.431 140.334 193.727C139.36 193.239 138.143 192.752 137.169 192.996C135.951 193.239 134.977 194.457 134.246 195.431C132.785 197.623 131.567 199.815 130.106 202.006C128.645 204.198 126.697 205.903 124.505 207.121C122.07 208.095 119.147 208.095 117.199 206.39C121.096 203.468 123.531 198.841 124.505 194.214C125.479 189.343 125.479 183.742 125.236 178.871C126.453 179.602 131.811 183.498 135.22 184.96C139.117 186.664 143.013 189.099 146.666 191.291C147.64 191.778 148.614 192.509 149.101 193.483C150.076 195.188 149.589 197.136 149.101 199.084" fill="#ADADAD"/>
<path d="M140.334 193.727L140.808 192.846L140.795 192.839L140.782 192.832L140.334 193.727ZM137.169 192.996L137.365 193.977L137.388 193.972L137.411 193.966L137.169 192.996ZM134.246 195.431L133.446 194.831L133.43 194.853L133.414 194.877L134.246 195.431ZM124.505 207.121L124.876 208.049L124.935 208.025L124.991 207.995L124.505 207.121ZM117.199 206.39L116.599 205.59L115.612 206.33L116.541 207.143L117.199 206.39ZM124.505 194.214L125.484 194.42L125.486 194.41L124.505 194.214ZM125.236 178.871L125.75 178.014L124.143 177.05L124.237 178.921L125.236 178.871ZM135.22 184.96L135.621 184.043L135.614 184.04L135.22 184.96ZM146.666 191.291L146.152 192.149L146.185 192.168L146.219 192.186L146.666 191.291ZM149.101 193.483L148.207 193.93L148.219 193.955L148.233 193.979L149.101 193.483ZM150.188 198.528C147.196 196.284 143.964 194.545 140.808 192.846L139.86 194.607C143.037 196.317 146.136 197.988 148.988 200.128L150.188 198.528ZM140.782 192.832C140.272 192.577 139.658 192.301 139.019 192.124C138.391 191.949 137.65 191.845 136.926 192.026L137.411 193.966C137.661 193.904 138.016 193.921 138.484 194.051C138.941 194.178 139.423 194.389 139.887 194.621L140.782 192.832ZM136.972 192.015C136.105 192.189 135.393 192.692 134.841 193.21C134.284 193.732 133.813 194.342 133.446 194.831L135.046 196.031C135.41 195.547 135.791 195.061 136.209 194.669C136.631 194.274 137.015 194.046 137.365 193.977L136.972 192.015ZM133.414 194.877C132.671 195.991 131.991 197.104 131.323 198.197C130.652 199.296 129.992 200.375 129.274 201.452L130.938 202.561C131.682 201.446 132.361 200.334 133.029 199.24C133.701 198.142 134.36 197.063 135.078 195.986L133.414 194.877ZM129.274 201.452C127.909 203.499 126.085 205.099 124.019 206.246L124.991 207.995C127.309 206.707 129.381 204.897 130.938 202.561L129.274 201.452ZM124.134 206.192C121.894 207.088 119.417 207.002 117.858 205.637L116.541 207.143C118.878 209.187 122.245 209.102 124.876 208.049L124.134 206.192ZM117.799 207.19C121.935 204.088 124.473 199.222 125.484 194.42L123.527 194.008C122.589 198.459 120.256 202.847 116.599 205.59L117.799 207.19ZM125.486 194.41C126.485 189.415 126.479 183.714 126.234 178.821L124.237 178.921C124.479 183.77 124.474 189.271 123.524 194.017L125.486 194.41ZM124.721 179.729C125.318 180.087 126.875 181.188 128.861 182.48C130.778 183.727 133.034 185.11 134.826 185.879L135.614 184.04C133.997 183.347 131.87 182.052 129.952 180.803C128.101 179.599 126.371 178.386 125.75 178.014L124.721 179.729ZM134.82 185.876C138.642 187.548 142.47 189.94 146.152 192.149L147.181 190.434C143.556 188.259 139.592 185.78 135.621 184.043L134.82 185.876ZM146.219 192.186C147.107 192.63 147.859 193.235 148.207 193.93L149.996 193.036C149.369 191.783 148.174 190.927 147.113 190.397L146.219 192.186ZM148.233 193.979C148.973 195.273 148.643 196.794 148.131 198.842L150.072 199.327C150.534 197.478 151.179 195.102 149.97 192.987L148.233 193.979Z" fill="#262626" mask="url(#path-2-inside-1_470_2135)"/>
<path d="M154.945 183.255V205.416C154.945 212.235 152.022 218.566 146.908 222.95L142.281 220.271C146.908 216.862 149.831 211.261 149.831 205.416V183.255H154.945Z" fill="#262626" stroke="#262626" stroke-width="0.75" stroke-miterlimit="10" stroke-linecap="round" stroke-linejoin="round"/>
<path d="M159.084 231.23C159.084 231.96 158.597 232.691 157.623 233.178L157.379 233.422L156.649 233.909L151.047 237.075C149.099 238.292 145.933 238.292 143.985 237.075L133.757 231.23L131.322 229.769L106.725 215.644L93.5748 208.095L91.6266 206.877L91.3831 206.634C90.409 206.146 89.9219 205.416 89.9219 204.685V204.442C89.9219 203.711 90.409 202.981 91.3831 202.494L97.9584 198.597C99.9066 197.623 103.072 197.623 105.021 198.597L117.441 205.659C122.555 201.276 125.477 194.701 125.477 188.125V165.964L150.073 183.011V205.172C150.073 211.017 147.151 216.618 142.524 220.028L147.151 222.706L157.866 228.795C158.597 229.769 159.084 230.499 159.084 231.23Z" stroke="#262626" stroke-width="0.75" stroke-miterlimit="10" stroke-linecap="round" stroke-linejoin="round"/>
<path d="M217.048 206.633V225.872C217.048 227.577 216.561 228.551 215.587 229.281C215.344 229.281 215.344 229.525 215.1 229.525C214.126 230.012 212.908 229.768 211.447 229.038L64.5998 144.29C61.6775 142.585 59.2422 138.445 59.2422 135.036V115.797L70.688 122.373L217.048 206.633Z" fill="white" stroke="#262626" stroke-width="0.75" stroke-miterlimit="10" stroke-linecap="round" stroke-linejoin="round"/>
<path d="M217.047 102.403V206.633L70.9302 122.373L59.4844 115.798V11.324C59.4844 9.37582 60.2151 8.15818 61.4327 7.67112C62.4068 7.18407 63.6244 7.42759 64.842 8.15817L70.9302 11.8111L71.9044 12.2981L156.896 61.4908L166.393 67.0919L211.446 93.1494C214.855 94.8541 217.047 98.9941 217.047 102.403Z" fill="#ADADAD" stroke="#262626" stroke-width="0.75" stroke-miterlimit="10" stroke-linecap="round" stroke-linejoin="round"/>
<path d="M228.738 199.815V219.053C228.738 220.758 228.251 221.976 227.276 222.463L216.074 229.038C216.805 228.551 217.535 227.333 217.535 225.629V206.633L228.738 199.815Z" fill="#262626" stroke="#262626" stroke-width="0.75" stroke-miterlimit="10" stroke-linecap="round" stroke-linejoin="round"/>
<path d="M227.275 90.7142L215.585 97.2895C214.611 95.5848 213.15 93.8801 211.689 93.1495L166.636 67.092L157.139 61.4909L72.1475 12.2982L71.1734 11.8112L65.0852 8.15823C63.8676 7.42765 62.6499 7.18413 61.6758 7.67118L72.6345 1.33944C73.6087 0.852386 75.0698 0.852401 76.5309 1.58298L168.585 54.6721L178.082 60.2732L223.135 86.3307C224.839 87.3048 226.301 89.0095 227.275 90.7142Z" fill="white" stroke="#262626" stroke-width="0.75" stroke-miterlimit="10" stroke-linecap="round" stroke-linejoin="round"/>
<path d="M228.735 95.8284V200.058L217.289 206.634V102.404C217.289 100.699 216.802 98.9943 215.828 97.2896L227.517 90.7144C228.248 92.4191 228.735 94.1237 228.735 95.8284Z" fill="#262626" stroke="#262626" stroke-width="0.75" stroke-miterlimit="10" stroke-linecap="round" stroke-linejoin="round"/>
<path d="M159.085 231.23V237.075C159.085 237.805 158.598 238.536 157.624 239.023L151.049 242.919C149.101 243.893 145.935 243.893 143.986 242.919L91.1408 212.478C90.1667 211.991 89.6797 211.017 89.6797 210.286V204.685C89.6797 205.416 90.1667 206.146 91.1408 206.634L91.3844 206.877L93.3326 208.095L106.483 215.644L131.079 229.769L133.515 231.23L143.743 237.075C145.691 238.292 148.857 238.292 150.805 237.075L156.406 233.909L157.137 233.422L157.38 233.178C158.598 232.691 159.085 231.96 159.085 231.23Z" fill="#262626" stroke="#262626" stroke-width="0.75" stroke-miterlimit="10" stroke-linecap="round" stroke-linejoin="round"/>
<path d="M172.479 276.039C172.479 277.5 171.505 278.961 169.557 279.935L168.826 280.422L167.365 281.153L139.603 297.226C135.95 299.418 129.618 299.418 125.965 297.226L8.34099 229.282L4.44461 227.09L3.71405 226.603C2.00936 225.629 1.03516 224.167 1.03516 222.95V222.463C1.03516 221.002 2.0093 219.784 3.95752 218.81L33.9114 201.519C37.5644 199.328 43.8962 199.328 47.5491 201.519L169.8 272.142C171.505 273.117 172.479 274.578 172.479 276.039Z" fill="white" stroke="#262626" stroke-width="0.75" stroke-miterlimit="10" stroke-linecap="round" stroke-linejoin="round"/>
<path d="M125.238 254.852C125.238 256.07 124.507 257.044 123.29 257.774L122.803 258.018L121.829 258.749L101.372 270.681C98.6934 272.143 94.0664 272.143 91.3876 270.681L74.097 260.697C73.3664 260.21 73.3664 258.992 74.097 258.505L76.2888 257.287H76.5323C76.7758 257.044 77.0194 256.8 77.0194 256.557C77.0194 256.313 76.7758 256.07 76.5323 256.07L37.5678 233.422C37.0808 233.178 36.1067 233.178 35.3761 233.422L33.428 234.639C31.9668 235.613 30.0186 235.613 28.5574 234.639L17.1116 228.064L14.1892 226.359L13.7021 226.116C12.4845 225.385 11.7539 224.411 11.7539 223.437V223.193C11.7539 222.219 12.4845 221.245 13.7021 220.515L35.6196 207.851C38.2984 206.39 42.9255 206.39 45.6043 207.851L123.29 252.66C124.507 252.66 125.238 253.634 125.238 254.852Z" fill="#ADADAD" stroke="#262626" stroke-width="0.75" stroke-miterlimit="10" stroke-linecap="round" stroke-linejoin="round"/>
<path d="M161.277 275.795C161.277 277.013 160.546 277.987 159.329 278.718L158.842 278.961L157.868 279.692L137.411 291.625C134.732 293.086 130.105 293.086 127.427 291.625L111.354 282.371L108.431 280.666L107.944 280.422C106.727 279.692 105.996 278.718 105.996 277.744V277.257C105.996 276.282 106.727 275.308 107.944 274.578L129.862 261.914C132.541 260.453 137.168 260.453 139.846 261.914L159.085 273.117C160.546 273.604 161.277 274.821 161.277 275.795Z" fill="#ADADAD" stroke="#262626" stroke-width="0.75" stroke-miterlimit="10" stroke-linecap="round" stroke-linejoin="round"/>
<path d="M172.481 276.039V281.884C172.481 283.345 171.506 284.806 169.558 285.78L139.604 303.071C135.951 305.262 129.62 305.262 125.967 303.071L3.71567 232.448C1.76745 231.23 0.793246 229.769 1.03677 228.308V222.95C1.03677 224.168 2.01097 225.629 3.71567 226.603L4.44622 227.09L8.34261 229.282L125.967 297.226C129.62 299.418 135.951 299.418 139.604 297.226L167.366 281.153L168.828 280.423L169.558 279.936C171.506 278.961 172.481 277.5 172.481 276.039Z" fill="#262626" stroke="#262626" stroke-width="0.75" stroke-miterlimit="10" stroke-linecap="round" stroke-linejoin="round"/>
<path d="M68.495 113.849L207.062 193.97C208.524 194.944 210.472 193.727 210.472 192.022V118.964L67.2773 36.1641V111.901C67.5209 112.875 67.7644 113.606 68.495 113.849Z" fill="white" stroke="#262626" stroke-width="0.75" stroke-miterlimit="10" stroke-linecap="round" stroke-linejoin="round"/>
<path d="M67.521 36.4074L210.715 119.207V103.621C210.715 102.647 210.228 101.429 209.254 100.942L71.9044 21.5522C69.9562 20.3345 67.2773 21.7957 67.2773 24.231V36.4074H67.521Z" fill="#262626" stroke="#262626" stroke-width="0.75" stroke-miterlimit="10" stroke-linecap="round" stroke-linejoin="round"/>
<path d="M77.9905 33.7289C77.9905 35.4336 76.7727 36.1641 75.3116 35.19C73.8504 34.2159 72.6328 32.2677 72.6328 30.563C72.6328 28.8583 73.8504 28.1277 75.3116 29.1018C76.7727 29.8324 77.9905 32.0242 77.9905 33.7289Z" fill="#E84142" stroke="#262626" stroke-width="0.75" stroke-miterlimit="10" stroke-linecap="round" stroke-linejoin="round"/>
<path d="M84.7125 39.7523C85.7608 39.1471 85.7383 37.1458 84.6623 35.2822C83.5863 33.4186 81.8643 32.3985 80.8161 33.0037C79.7678 33.6089 79.7902 35.6103 80.8662 37.4739C81.9422 39.3375 83.6643 40.3576 84.7125 39.7523Z" fill="#FFAD28" stroke="#262626" stroke-width="0.75" stroke-miterlimit="10" stroke-linecap="round" stroke-linejoin="round"/>
<path d="M93.092 42.4955C93.092 44.2002 91.8743 44.9307 90.4131 43.9566C88.952 42.9825 87.7344 41.0343 87.7344 39.3296C87.7344 37.6249 88.952 36.8943 90.4131 37.8684C91.8743 38.599 93.092 40.7908 93.092 42.4955Z" fill="#ADADAD" stroke="#262626" stroke-width="0.75" stroke-miterlimit="10" stroke-linecap="round" stroke-linejoin="round"/>
<path d="M88.4609 113.119V106.787L98.9326 109.222V104.839H109.648L120.363 110.927L130.835 109.466L136.436 108.492L141.55 111.414V143.56" stroke="#262626" stroke-width="0.75" stroke-miterlimit="10" stroke-linecap="round" stroke-linejoin="round"/>
<path d="M98.9336 104.839V119.207" stroke="#262626" stroke-width="0.75" stroke-miterlimit="10" stroke-linecap="round" stroke-linejoin="round"/>
<path d="M109.648 104.839V125.295" stroke="#262626" stroke-width="0.75" stroke-miterlimit="10" stroke-linecap="round" stroke-linejoin="round"/>
<path d="M120.363 110.927V131.383" stroke="#262626" stroke-width="0.75" stroke-miterlimit="10" stroke-linecap="round" stroke-linejoin="round"/>
<path d="M130.836 109.466V137.228" stroke="#262626" stroke-width="0.75" stroke-miterlimit="10" stroke-linecap="round" stroke-linejoin="round"/>
<path d="M98.2031 76.5896L151.292 107.518" stroke="#262626" stroke-width="0.75" stroke-miterlimit="10" stroke-linecap="round" stroke-linejoin="round"/>
<path d="M98.2031 67.3354L126.452 83.6518" stroke="#262626" stroke-width="0.75" stroke-miterlimit="10" stroke-linecap="round" stroke-linejoin="round"/>
<path d="M79.9419 66.3616L90.6572 72.6933C91.6313 73.1804 92.1183 72.6933 92.1183 71.4757V65.8745C92.1183 64.6569 91.3878 63.4393 90.6572 62.9522L79.9419 56.6205C78.9678 56.1334 78.4808 56.6205 78.4808 57.8381V63.4393C78.2373 64.6569 78.9678 65.8745 79.9419 66.3616Z" fill="#FFAD28" stroke="#262626" stroke-width="0.75" stroke-miterlimit="10" stroke-linecap="round" stroke-linejoin="round"/>
<path d="M79.9419 85.3565L90.6572 91.6882C91.6313 92.1753 92.1183 91.6882 92.1183 90.4706V84.8694C92.1183 83.6518 91.3878 82.4342 90.6572 81.9471L79.9419 75.6154C78.9678 75.1283 78.4808 75.6154 78.4808 76.833V82.4341C78.2373 83.4083 78.9678 84.8694 79.9419 85.3565Z" fill="#E84142" stroke="#262626" stroke-width="0.75" stroke-miterlimit="10" stroke-linecap="round" stroke-linejoin="round"/>
<path d="M88.4626 106.787L78.2344 100.942V107.274" stroke="#262626" stroke-width="0.75" stroke-miterlimit="10" stroke-linecap="round" stroke-linejoin="round"/>
<path d="M141.551 111.414L151.292 117.015V149.404" stroke="#262626" stroke-width="0.75" stroke-miterlimit="10" stroke-linecap="round" stroke-linejoin="round"/>
<path d="M78.2344 107.274L151.293 149.404" stroke="#262626" stroke-width="0.75" stroke-miterlimit="10" stroke-linecap="round" stroke-linejoin="round"/>
<path d="M163.2 148.123C156.42 132.738 158.836 116.787 168.575 112.522C178.313 108.232 191.725 117.256 198.505 132.64C205.285 148.024 202.894 163.975 193.13 168.265C183.392 172.506 169.98 163.507 163.2 148.123Z" fill="#E84142" stroke="#262626" stroke-width="0.5" stroke-miterlimit="10"/>
<path d="M186.423 137.941V139.79L180.654 136.437L180.605 150.07L179.002 149.134L179.052 135.524L173.258 132.171L173.282 130.347L186.423 137.941Z" fill="white" stroke="#262626" stroke-width="0.5" stroke-miterlimit="10"/>
<path d="M179.792 153.177C173.555 149.577 168.501 140.825 168.525 133.651C168.55 126.476 173.629 123.592 179.866 127.191C186.104 130.791 191.158 139.543 191.133 146.717C191.133 153.867 186.03 156.776 179.792 153.177ZM179.891 125.145C172.667 120.978 166.775 124.331 166.75 132.615C166.725 140.899 172.568 151.032 179.792 155.198C187.016 159.365 192.884 156.012 192.908 147.728C192.933 139.444 187.09 129.311 179.891 125.145Z" fill="white" stroke="#262626" stroke-width="0.5" stroke-miterlimit="10"/>
</svg>
