<svg width="268" height="288" viewBox="0 0 268 288" fill="none" xmlns="http://www.w3.org/2000/svg">
<path d="M256.459 217.754V224.74C256.459 224.74 256.459 224.74 256.459 224.973C256.459 227.068 254.829 229.164 252.035 230.794L159.352 284.122C153.996 287.149 146.079 287.615 141.421 284.82L4.02733 205.411C1.93149 204.247 1 202.617 1 200.754V193.768C1 194.932 1.46577 196.097 2.63012 197.261C3.09587 197.727 3.56159 197.96 4.02733 198.425L7.28754 200.288L141.421 277.834C146.079 280.396 153.996 280.163 159.352 277.136L250.87 224.274L251.802 223.575C252.966 222.877 253.898 222.178 254.596 221.247C255.761 220.315 256.459 218.918 256.459 217.754Z" fill="#262626" stroke="#262626" stroke-width="0.75" stroke-miterlimit="10" stroke-linecap="round" stroke-linejoin="round"/>
<path d="M256.459 217.753C256.459 218.918 255.994 220.315 254.829 221.479C254.131 222.178 253.199 223.109 252.035 223.808L251.103 224.506L159.352 277.135C153.996 280.163 146.079 280.628 141.421 277.834L7.28754 200.288L4.02733 198.425C3.32872 198.192 2.863 197.726 2.63012 197.261C1.46577 196.329 1 195.165 1 193.768C1 191.672 2.63012 189.576 5.42457 187.946L98.1072 134.385C103.463 131.358 111.381 130.892 116.038 133.687L253.432 213.096C255.295 214.493 256.459 216.123 256.459 217.753Z" fill="white" stroke="#262626" stroke-width="0.75" stroke-miterlimit="10" stroke-linecap="round" stroke-linejoin="round"/>
<path d="M236.201 220.315L217.571 231.027C215.941 231.959 213.845 231.959 212.448 231.027L189.626 217.986C184.736 215.192 178.681 215.192 173.791 217.986L152.6 230.096C150.97 231.027 148.874 231.027 147.477 230.096L54.5613 176.535C52.6983 175.604 52.6983 173.042 54.5613 171.878L103.231 143.933C104.396 143.235 106.259 142.769 108.122 142.769C109.519 142.769 110.45 143.002 110.45 143.235L236.201 215.891C238.064 216.822 238.064 219.384 236.201 220.315Z" fill="#ADADAD" stroke="#262626" stroke-width="0.75" stroke-miterlimit="10" stroke-linecap="round" stroke-linejoin="round"/>
<path d="M87.6294 205.178C89.0266 205.178 89.9581 205.411 89.9581 205.644L128.149 227.767C130.012 228.698 130.012 231.26 128.149 232.424L107.889 244.3C106.725 244.999 104.862 245.465 102.999 245.465C101.834 245.465 100.437 244.999 99.5058 244.533L62.4793 223.109C60.6163 222.178 60.6163 219.616 62.4793 218.452L82.739 206.575C83.9034 205.644 85.7664 205.178 87.6294 205.178Z" fill="#ADADAD" stroke="#262626" stroke-width="0.75" stroke-miterlimit="10" stroke-linecap="round" stroke-linejoin="round"/>
<path d="M261.582 100.154V207.042C261.582 207.74 261.582 208.206 261.35 208.905C261.35 209.138 261.35 209.37 261.117 209.836C260.651 211.699 259.952 212.864 258.788 213.795L258.555 214.028C257.158 214.959 255.295 214.726 253.199 213.562L115.805 134.153C111.148 131.592 107.422 124.373 107.422 118.318V11.1974C107.422 7.70431 108.586 5.37559 110.449 4.44411C110.449 4.44411 110.449 4.44411 110.682 4.44411C111.846 3.7455 113.476 3.7455 115.107 4.44411C115.339 4.67698 115.805 4.67697 116.038 4.90984L116.504 5.14271L253.432 84.0859C259.254 87.3461 261.582 92.2364 261.582 100.154Z" fill="white" stroke="#262626" stroke-width="0.75" stroke-miterlimit="10" stroke-linecap="round" stroke-linejoin="round"/>
<path d="M264.377 87.1128L259.254 89.6744C257.856 87.3457 255.994 85.4827 253.199 84.0855L116.271 5.14224L115.805 4.90938C115.572 4.67651 115.107 4.67651 114.874 4.44364C113.244 3.74503 111.846 3.74503 110.449 4.44364C111.381 3.9779 114.641 1.88205 115.572 1.64918C116.97 0.717699 119.065 0.717709 121.161 2.11493L258.555 81.5239C260.884 82.2225 262.98 84.5512 264.377 87.1128Z" fill="white" stroke="#262626" stroke-width="0.75" stroke-miterlimit="10" stroke-linecap="round" stroke-linejoin="round"/>
<path d="M267.172 96.8927V203.78C267.172 207.273 266.007 209.602 264.144 210.534L259.254 213.328C260.418 212.629 261.117 211.232 261.583 209.369C261.583 209.136 261.583 208.904 261.815 208.438C261.815 207.972 262.048 207.273 262.048 206.575V100.153C262.048 95.9612 261.35 92.701 259.953 89.9066L265.076 87.345C266.007 90.1394 267.172 93.6325 267.172 96.8927Z" fill="#262626" stroke="#262626" stroke-width="0.75" stroke-miterlimit="10" stroke-linecap="round" stroke-linejoin="round"/>
<path d="M182.174 247.095L164.243 236.615C162.147 235.451 162.38 233.122 164.941 231.725L177.284 224.506C179.845 223.109 183.571 222.876 185.667 224.04L203.598 234.52C205.694 235.684 205.461 238.013 202.899 239.41L190.557 246.629C188.228 248.259 184.503 248.259 182.174 247.095Z" fill="#ADADAD" stroke="#262626" stroke-width="0.75" stroke-miterlimit="10" stroke-linecap="round" stroke-linejoin="round"/>
<path d="M252.037 207.041L117.67 129.262C114.876 127.632 112.547 123.208 112.547 119.482V16.3198C112.547 12.5939 114.876 10.7309 117.67 12.361L252.269 90.1398C255.064 91.7699 257.393 96.1945 257.393 99.9204V203.315C257.16 207.041 254.831 208.671 252.037 207.041Z" fill="#7A18D5" stroke="#262626" stroke-width="0.75" stroke-miterlimit="10" stroke-linecap="round" stroke-linejoin="round"/>
<path d="M206.855 93.3999L187.992 82.6878" stroke="white" stroke-width="0.75" stroke-miterlimit="10" stroke-linecap="round" stroke-linejoin="round"/>
<path d="M206.854 93.3997L200.566 89.9066" stroke="white" stroke-width="0.75" stroke-miterlimit="10" stroke-linecap="round" stroke-linejoin="round"/>
<path d="M131.639 50.0852L125.352 46.3593" stroke="white" stroke-width="0.75" stroke-miterlimit="10" stroke-linecap="round" stroke-linejoin="round"/>
<path d="M131.639 64.5237L125.352 60.7978" stroke="white" stroke-width="0.75" stroke-miterlimit="10" stroke-linecap="round" stroke-linejoin="round"/>
<path d="M131.639 78.9618L125.352 75.2358" stroke="white" stroke-width="0.75" stroke-miterlimit="10" stroke-linecap="round" stroke-linejoin="round"/>
<path d="M131.639 93.3995L125.352 89.9064" stroke="white" stroke-width="0.75" stroke-miterlimit="10" stroke-linecap="round" stroke-linejoin="round"/>
<path d="M131.639 107.837L125.352 104.344" stroke="white" stroke-width="0.75" stroke-miterlimit="10" stroke-linecap="round" stroke-linejoin="round"/>
<path d="M169.129 71.742L137.691 53.578" stroke="white" stroke-width="0.75" stroke-miterlimit="10" stroke-linecap="round" stroke-linejoin="round"/>
<path d="M143.979 71.742L137.691 68.0161" stroke="white" stroke-width="0.75" stroke-miterlimit="10" stroke-linecap="round" stroke-linejoin="round"/>
<path d="M143.979 86.1802L137.691 82.6872" stroke="white" stroke-width="0.75" stroke-miterlimit="10" stroke-linecap="round" stroke-linejoin="round"/>
<path d="M150.266 104.344L137.691 97.1249" stroke="white" stroke-width="0.75" stroke-miterlimit="10" stroke-linecap="round" stroke-linejoin="round"/>
<path d="M143.979 115.289L137.691 111.563" stroke="white" stroke-width="0.75" stroke-miterlimit="10" stroke-linecap="round" stroke-linejoin="round"/>
<path d="M156.557 78.9618L150.27 75.2358" stroke="white" stroke-width="0.75" stroke-miterlimit="10" stroke-linecap="round" stroke-linejoin="round"/>
<path d="M156.557 107.837L150.27 104.344" stroke="white" stroke-width="0.75" stroke-miterlimit="10" stroke-linecap="round" stroke-linejoin="round"/>
<path d="M156.556 122.508L143.98 115.289" stroke="white" stroke-width="0.75" stroke-miterlimit="10" stroke-linecap="round" stroke-linejoin="round"/>
<path d="M169.13 129.727L156.555 122.508" stroke="white" stroke-width="0.75" stroke-miterlimit="10" stroke-linecap="round" stroke-linejoin="round"/>
<path d="M181.706 78.9618L175.418 75.2358" stroke="white" stroke-width="0.75" stroke-miterlimit="10" stroke-linecap="round" stroke-linejoin="round"/>
<path d="M181.706 136.946L175.418 133.22" stroke="white" stroke-width="0.75" stroke-miterlimit="10" stroke-linecap="round" stroke-linejoin="round"/>
<path d="M213.142 155.11L187.992 140.439" stroke="white" stroke-width="0.75" stroke-miterlimit="10" stroke-linecap="round" stroke-linejoin="round"/>
<path d="M219.432 100.618L213.145 97.1249" stroke="white" stroke-width="0.75" stroke-miterlimit="10" stroke-linecap="round" stroke-linejoin="round"/>
<path d="M238.062 126.001L213.145 111.563" stroke="white" stroke-width="0.75" stroke-miterlimit="10" stroke-linecap="round" stroke-linejoin="round"/>
<path d="M219.432 144.165L213.145 140.439" stroke="white" stroke-width="0.75" stroke-miterlimit="10" stroke-linecap="round" stroke-linejoin="round"/>
<path d="M219.432 158.603L213.145 155.11" stroke="white" stroke-width="0.75" stroke-miterlimit="10" stroke-linecap="round" stroke-linejoin="round"/>
<path d="M232.005 107.837L219.43 100.618" stroke="white" stroke-width="0.75" stroke-miterlimit="10" stroke-linecap="round" stroke-linejoin="round"/>
<path d="M232.006 136.946L225.719 133.22" stroke="white" stroke-width="0.75" stroke-miterlimit="10" stroke-linecap="round" stroke-linejoin="round"/>
<path d="M232.006 151.384L225.719 147.891" stroke="white" stroke-width="0.75" stroke-miterlimit="10" stroke-linecap="round" stroke-linejoin="round"/>
<path d="M232.006 165.822L225.719 162.329" stroke="white" stroke-width="0.75" stroke-miterlimit="10" stroke-linecap="round" stroke-linejoin="round"/>
<path d="M244.35 115.289L238.062 111.563" stroke="white" stroke-width="0.75" stroke-miterlimit="10" stroke-linecap="round" stroke-linejoin="round"/>
<path d="M131.639 122.275L125.352 118.782" stroke="white" stroke-width="0.75" stroke-miterlimit="10" stroke-linecap="round" stroke-linejoin="round"/>
<path d="M169.129 144.165L137.691 126.001" stroke="white" stroke-width="0.75" stroke-miterlimit="10" stroke-linecap="round" stroke-linejoin="round"/>
<path d="M181.706 151.384L175.418 147.658" stroke="white" stroke-width="0.75" stroke-miterlimit="10" stroke-linecap="round" stroke-linejoin="round"/>
<path d="M206.855 165.822L187.992 154.877" stroke="white" stroke-width="0.75" stroke-miterlimit="10" stroke-linecap="round" stroke-linejoin="round"/>
<path d="M219.432 173.041L213.145 169.548" stroke="white" stroke-width="0.75" stroke-miterlimit="10" stroke-linecap="round" stroke-linejoin="round"/>
<path d="M232.005 180.26L219.43 173.041" stroke="white" stroke-width="0.75" stroke-miterlimit="10" stroke-linecap="round" stroke-linejoin="round"/>
<path d="M244.35 187.479L238.062 183.986" stroke="white" stroke-width="0.75" stroke-miterlimit="10" stroke-linecap="round" stroke-linejoin="round"/>
<path d="M244.35 129.727L238.062 126.001" stroke="white" stroke-width="0.75" stroke-miterlimit="10" stroke-linecap="round" stroke-linejoin="round"/>
<path d="M244.35 144.165L238.062 140.439" stroke="white" stroke-width="0.75" stroke-miterlimit="10" stroke-linecap="round" stroke-linejoin="round"/>
<path d="M244.346 158.603L232.004 151.384" stroke="white" stroke-width="0.75" stroke-miterlimit="10" stroke-linecap="round" stroke-linejoin="round"/>
<path d="M244.35 173.041L238.062 169.548" stroke="white" stroke-width="0.75" stroke-miterlimit="10" stroke-linecap="round" stroke-linejoin="round"/>
<path d="M131.639 35.1815L125.352 31.4556" stroke="white" stroke-width="0.75" stroke-miterlimit="10" stroke-linecap="round" stroke-linejoin="round"/>
<path d="M143.979 42.4005L137.691 38.9075" stroke="white" stroke-width="0.75" stroke-miterlimit="10" stroke-linecap="round" stroke-linejoin="round"/>
<path d="M156.556 49.6193L143.98 42.4003" stroke="white" stroke-width="0.75" stroke-miterlimit="10" stroke-linecap="round" stroke-linejoin="round"/>
<path d="M169.13 56.839L156.555 49.62" stroke="white" stroke-width="0.75" stroke-miterlimit="10" stroke-linecap="round" stroke-linejoin="round"/>
<path d="M181.706 64.0573L175.418 60.5642" stroke="white" stroke-width="0.75" stroke-miterlimit="10" stroke-linecap="round" stroke-linejoin="round"/>
<path d="M213.142 82.222L187.992 67.784" stroke="white" stroke-width="0.75" stroke-miterlimit="10" stroke-linecap="round" stroke-linejoin="round"/>
<path d="M232.006 93.1662L225.719 89.4402" stroke="white" stroke-width="0.75" stroke-miterlimit="10" stroke-linecap="round" stroke-linejoin="round"/>
<path d="M244.35 100.385L238.062 96.6595" stroke="white" stroke-width="0.75" stroke-miterlimit="10" stroke-linecap="round" stroke-linejoin="round"/>
<path d="M195.91 99.9195L209.882 124.138L195.91 132.289" stroke="white" stroke-width="0.75" stroke-miterlimit="10" stroke-linecap="round" stroke-linejoin="round"/>
<path d="M173.789 119.714L159.816 95.2621L173.789 87.1116" stroke="white" stroke-width="0.75" stroke-miterlimit="10" stroke-linecap="round" stroke-linejoin="round"/>
</svg>
