<svg width="172" height="306" viewBox="0 0 172 306" fill="none" xmlns="http://www.w3.org/2000/svg">
<path d="M102.768 223.45V286.995C102.768 288.212 102.524 289.673 102.281 290.89C100.576 298.925 93.7593 304.768 85.7249 304.768C76.4732 304.768 68.9258 295.76 68.9258 286.508V224.181C69.1692 226.372 70.8735 228.807 73.7951 230.511C76.2298 231.972 79.1514 232.702 82.5599 233.189C87.9161 233.919 93.7593 232.945 97.8982 230.511C101.063 228.563 102.768 226.128 102.768 223.45Z" fill="#FFAD28" stroke="#262626" stroke-width="0.75" stroke-miterlimit="10" stroke-linecap="round" stroke-linejoin="round"/>
<path d="M102.281 290.89C100.576 298.925 93.7593 304.768 85.7249 304.768C76.4732 304.768 68.9258 295.76 68.9258 286.508V224.181C69.1692 226.372 70.8735 228.807 73.7951 230.511C76.2298 231.972 79.1514 232.702 82.5599 233.189C82.3164 248.284 82.073 261.188 82.5599 279.934C82.5599 284.804 85.7249 290.404 89.8639 293.325C92.542 295.273 96.1939 295.516 99.1155 293.812C100.333 293.082 101.55 292.108 102.281 290.89Z" fill="#FFAD28"/>
<path d="M102.768 223.45V286.995C102.768 288.212 102.524 289.673 102.281 290.89C100.576 298.925 93.7593 304.768 85.7249 304.768C76.4732 304.768 68.9258 295.76 68.9258 286.508V224.181C69.1692 226.372 70.8735 228.807 73.7951 230.511C76.2298 231.972 79.1514 232.702 82.5599 233.189C87.9161 233.919 93.7593 232.945 97.8982 230.511C101.063 228.563 102.768 226.128 102.768 223.45Z" stroke="#262626" stroke-width="0.75" stroke-miterlimit="10" stroke-linecap="round" stroke-linejoin="round"/>
<path d="M102.77 223.45C102.77 225.885 101.066 228.563 97.9008 230.267C91.3272 234.163 80.6148 234.163 74.0412 230.267C71.1196 228.563 69.4153 226.372 69.1719 223.937V223.45H102.77Z" fill="white" stroke="#262626" stroke-width="0.75" stroke-miterlimit="10" stroke-linecap="round" stroke-linejoin="round"/>
<path d="M102.77 223.45C102.77 225.885 101.065 228.563 97.9003 230.267C91.3267 234.163 80.6142 234.163 74.0406 230.267C71.119 228.563 69.4148 226.372 69.1713 223.937C68.9279 221.259 70.6321 218.581 74.0406 216.39C75.5014 215.416 77.4491 214.686 79.3968 214.442C83.7792 213.468 88.6486 213.468 92.7875 214.442C94.7352 214.929 96.4395 215.659 98.1438 216.39C101.065 218.581 102.77 221.016 102.77 223.45Z" fill="#FFAD28" stroke="#262626" stroke-width="0.75" stroke-miterlimit="10" stroke-linecap="round" stroke-linejoin="round"/>
<path d="M96.4387 212.982L96.1953 213.469L96.4387 212.982Z" fill="#D0D2D3"/>
<path d="M92.7852 196.669V221.746C92.7852 222.72 92.0548 223.694 90.8375 224.425C89.1332 225.399 86.942 225.642 84.7508 225.398C83.5335 225.155 82.3162 224.912 81.3423 224.425C80.125 223.694 79.3945 222.72 79.3945 221.746V196.669C79.3945 193.018 82.3162 189.852 86.2116 189.852C89.8636 190.096 92.7852 193.018 92.7852 196.669Z" fill="white"/>
<path d="M92.7839 196.669V212.738C91.81 212.251 90.8362 211.521 89.8623 211.034C88.8885 210.547 87.4277 210.304 86.4538 210.79C85.7234 211.277 85.2365 212.008 84.993 212.982C84.7495 213.956 84.7495 214.686 84.7495 215.66C84.7495 218.581 84.993 221.503 84.993 224.425C84.993 224.668 84.993 225.155 84.993 225.398C83.7757 225.155 82.5584 224.912 81.5845 224.425C80.3672 223.694 79.6367 222.72 79.6367 221.746V196.669C79.6367 193.018 82.5584 189.852 86.4538 189.852C89.8623 190.096 92.7839 193.018 92.7839 196.669Z" fill="#D0D2D3"/>
<path d="M92.7852 196.669V221.746C92.7852 222.72 92.0548 223.694 90.8375 224.425C89.1332 225.399 86.942 225.642 84.7508 225.398C83.5335 225.155 82.3162 224.912 81.3423 224.425C80.125 223.694 79.3945 222.72 79.3945 221.746V196.669C79.3945 193.018 82.3162 189.852 86.2116 189.852C89.8636 190.096 92.7852 193.018 92.7852 196.669Z" stroke="#262626" stroke-width="0.75" stroke-miterlimit="10" stroke-linecap="round" stroke-linejoin="round"/>
<path d="M170.937 147.733C170.937 173.053 161.929 190.583 147.565 198.617L136.122 205.191C137.826 204.217 139.53 202.999 140.991 201.539C142.939 199.834 144.887 197.643 146.591 195.452C153.895 185.957 158.034 172.323 158.034 155.037C158.034 104.883 122.975 44.2596 79.6377 19.1826C65.0297 10.6613 51.1522 7.49629 39.4658 8.71362C36.5442 8.95708 33.6226 9.68751 31.188 10.4179C29.7272 11.6352 28.2664 13.3395 26.8056 14.8003L22.9102 14.3133L36.7877 6.27896H37.0311C51.1522 -1.99888 70.8729 -0.781522 92.7848 11.6352C135.878 36.9557 170.937 97.5788 170.937 147.733Z" fill="#262626" stroke="#262626" stroke-width="0.75" stroke-miterlimit="10" stroke-linecap="round" stroke-linejoin="round"/>
<path d="M79.6407 19.1828C65.0328 10.6615 51.1552 7.49644 39.4689 8.71377C36.5473 8.95723 33.6257 9.68766 31.1911 10.4181C29.7303 11.6354 28.2695 13.3396 26.8087 14.8004C18.7743 24.2956 14.1484 38.66 14.1484 56.92C14.1484 105.37 47.0163 163.802 88.1621 190.096C89.6228 191.07 91.0837 192.044 92.5445 192.774C94.0053 193.748 95.466 194.478 96.9268 195.209C111.291 202.513 124.682 204.947 135.881 202.756C137.586 202.513 139.29 202.026 140.994 201.539C142.942 199.835 144.89 197.643 146.594 195.452C153.898 185.957 158.037 172.323 158.037 155.037C158.037 105.126 122.978 44.2598 79.6407 19.1828ZM126.873 176.949C117.134 179.383 105.448 177.436 92.5445 169.888C60.1635 151.141 34.1127 105.857 34.1127 68.6065C34.1127 53.7551 38.2515 42.3121 45.312 35.2516C56.0245 24.5391 73.0672 23.5652 92.5445 34.7647C124.925 53.5115 150.976 98.7961 150.976 136.046C150.976 158.689 141.481 173.053 126.873 176.949Z" fill="#262626" stroke="#262626" stroke-width="0.75" stroke-miterlimit="10" stroke-linecap="round" stroke-linejoin="round"/>
<path d="M79.6395 19.1827C61.3795 8.71364 44.5804 6.03551 30.9463 10.6614C12.6863 16.748 1 35.7384 1 64.4674C1 112.917 33.8679 171.349 75.0136 197.643C76.4744 198.617 77.9352 199.591 79.396 200.321C80.8568 201.295 82.3176 202.026 83.7784 202.756C85.2392 203.486 86.4565 204.217 87.9173 204.704C90.8389 206.165 93.7605 207.138 96.6821 208.112C111.534 212.738 124.924 211.764 135.15 205.678C135.393 205.678 135.637 205.434 135.88 205.191C137.584 204.217 139.289 203 140.749 201.539C142.697 199.834 144.645 197.643 146.349 195.452C153.653 185.957 157.792 172.323 157.792 155.037C158.036 105.126 122.976 44.2597 79.6395 19.1827ZM82.3176 181.331C48.9628 160.393 20.4773 111.213 19.0165 71.7714C17.5557 32.3299 43.363 17.4785 76.9613 38.4165C110.316 59.3546 138.802 108.535 140.262 147.976C141.723 187.418 115.672 202.269 82.3176 181.331Z" fill="white" stroke="#262626" stroke-width="0.75" stroke-miterlimit="10" stroke-linecap="round" stroke-linejoin="round"/>
</svg>
