<svg width="31" height="73" viewBox="0 0 31 73" fill="none" xmlns="http://www.w3.org/2000/svg">
<path d="M30.1869 40.0898L20.5 29.5L24.4302 13.8225C24.5173 13.4864 24.3003 12.9437 23.9963 12.7376L5.39375 0.123569C5.18129 -0.020494 4.98705 -0.034869 4.84657 0.0610686L2.98453 1.83982C2.98879 1.83685 2.99425 1.83622 2.99877 1.83341C2.86919 1.91372 2.78139 2.08185 2.76396 2.3281L0.817227 29.4481C0.771329 30.0801 1.06348 30.8972 1.52791 31.4358L13.0833 44.8295C13.4918 45.3019 13.7351 46.0323 13.6602 46.5595L9.90526 73L11.7673 71.2212L30.8282 42.7989C31.224 42.2073 30.9052 40.8587 30.1869 40.0898Z" fill="#262626"/>
<path d="M28.5506 44.2996L10.7074 70.9057L21.8538 14.9303C21.8968 14.9595 21.9755 15.0502 22.0338 15.1958C22.0932 15.3444 22.0911 15.4487 22.0843 15.4756C22.0843 15.4757 22.0843 15.4758 22.0842 15.4759L18.0783 30.8035L18.0779 30.805C18.0193 31.0326 18.0542 31.2691 18.1131 31.4549C18.1741 31.6477 18.2801 31.848 18.4305 32.0093L18.4307 32.0095L27.9596 42.2099C28.2507 42.5217 28.4737 42.9691 28.5768 43.4049C28.6861 43.8667 28.6316 44.1782 28.5509 44.2992C28.5508 44.2993 28.5507 44.2994 28.5506 44.2996ZM3.26622 2.32627L21.8537 14.9302L13.0832 44.8296L13.4618 44.503L13.4617 44.5028C13.4616 44.5027 13.4615 44.5026 13.4613 44.5024L1.90655 31.1093C1.90652 31.1093 1.90649 31.1093 1.90647 31.1092C1.51715 30.6577 1.28089 29.9677 1.3159 29.4843L1.31592 29.484L3.26252 2.36382L3.26254 2.36347C3.2635 2.35003 3.26475 2.33765 3.26622 2.32627Z" fill="#5AAAE7" stroke="#262626"/>
</svg>
