<svg width="66" height="90" viewBox="0 0 66 90" fill="none" xmlns="http://www.w3.org/2000/svg">
<path d="M0.803802 49.825C0.841568 49.8016 0.879334 49.7783 0.918472 49.7591L2.52788 48.3844C2.9893 48.0871 3.60248 48.094 4.27745 48.484L61.1571 81.3235C62.5888 82.1502 63.7499 84.3681 63.7499 86.2777C63.7499 87.447 63.3132 88.2264 62.6464 88.4674L61.1874 89.774C60.7232 90.0864 60.1018 90.0851 59.4159 89.6889L2.53621 56.8494C1.10455 56.0226 -0.0565643 53.8048 -0.0565643 51.8952C-0.0565643 50.8755 0.276459 50.1539 0.803802 49.825Z" fill="#262626"/>
<path d="M2.53526 56.8495L59.4149 89.689C60.8466 90.5157 62.0077 89.6382 62.0077 87.7286C62.0077 85.8197 60.8466 83.6012 59.4149 82.7745L2.53526 49.9356C1.10292 49.1089 -0.0575104 49.9864 -0.0575104 51.8953C-0.0575104 53.8049 1.10292 56.0227 2.53526 56.8495Z" fill="#C2C2C2"/>
<path d="M6.20253 6.64959C6.33986 6.52668 8.00214 5.14656 8.00214 5.14656C8.44365 4.79363 9.06232 4.77166 9.74759 5.16716L18.3327 10.1241C19.6758 10.9 20.7655 12.9805 20.7655 14.772V58.0011L19.0243 59.4526L5.57356 51.6874V8.45752C5.57356 7.62119 5.8132 6.99978 6.20253 6.64959Z" fill="#262626"/>
<path d="M7.7561 7.05149L7.75607 7.05147C7.20309 6.73217 6.82193 6.79662 6.58729 6.97399C6.3213 7.17505 6.0733 7.64411 6.0733 8.4573V51.3985L18.5233 58.5864V16.2226C18.5233 15.4213 18.2775 14.5324 17.8679 13.7496C17.4561 12.9627 16.9057 12.3338 16.3412 12.0077C16.3412 12.0077 16.3411 12.0076 16.3411 12.0076L7.7561 7.05149Z" fill="#A4C639" stroke="#262626"/>
<path d="M25.0553 31.5142C25.0937 31.4902 25.1322 31.4668 25.1727 31.4476L26.6859 30.1389C27.1275 29.7894 27.7441 29.7681 28.428 30.1629L37.0131 35.1191C38.3562 35.8951 39.4452 37.9756 39.4452 39.7671V68.7868L37.7039 70.2383L24.2539 62.4723V33.4526C24.2539 32.4996 24.5643 31.8239 25.0553 31.5142Z" fill="#262626"/>
<path d="M26.4351 32.0467L26.4351 32.0467C25.8822 31.7275 25.5011 31.792 25.2665 31.9694C25.0005 32.1706 24.7527 32.6396 24.753 33.4524V33.4526V62.1836L37.203 69.3715V41.2178C37.203 40.4169 36.9572 39.528 36.5475 38.7452C36.1356 37.9581 35.5849 37.329 35.0202 37.0029L26.4351 32.0467Z" fill="#FFD800" stroke="#262626"/>
<path d="M44.0583 50.7582L44.0577 50.7568L45.3292 49.5586C45.7728 49.1796 46.4045 49.1446 47.107 49.5504L55.6921 54.5066C57.0359 55.2825 58.1249 57.3637 58.1249 59.1545V79.5719L56.3836 81.0234L42.9336 73.2575V52.8401C42.9329 51.6913 43.3827 50.9442 44.0583 50.7582Z" fill="#262626"/>
<path d="M53.6998 56.391C53.6998 56.391 53.6999 56.391 53.6999 56.391C54.2644 56.7172 54.815 57.3461 55.227 58.133C55.6368 58.9158 55.8827 59.8047 55.8827 60.6059V80.1566L43.432 72.9687V52.8406C43.432 52.0275 43.68 51.5584 43.946 51.3572C44.1808 51.1797 44.5619 51.1152 45.1148 51.4341L53.6998 56.391ZM53.6998 56.391L45.1149 51.4342L53.6998 56.391Z" fill="#E84C3D" stroke="#262626"/>
<path d="M15.3591 1.89377C15.37 1.37261 15.5905 0.878907 15.9709 0.522538C16.3513 0.166856 16.8566 -0.0205988 17.3799 0.00206062L24.0486 0.298005C25.1163 0.345383 25.943 1.2497 25.8956 2.31743C25.8483 3.38516 24.9467 4.21257 23.8762 4.16519L21.9406 4.07936L65.2452 50.4877C65.9744 51.2691 65.9319 52.4941 65.1505 53.2233C64.7776 53.5707 64.3038 53.7431 63.8307 53.7431C63.313 53.7431 62.796 53.5371 62.4149 53.1285L19.1267 6.73599L19.0855 8.62908C19.0635 9.68376 18.2011 10.5228 17.1519 10.5228C17.1375 10.5228 17.1237 10.5228 17.1093 10.5228C16.0409 10.4995 15.1936 9.61441 15.2162 8.54599L15.3591 1.89377Z" fill="#A4C639"/>
</svg>
