<svg width="51" height="72" viewBox="0 0 51 72" fill="none" xmlns="http://www.w3.org/2000/svg">
<path d="M1.04765 13.8353L1.04763 13.8352C0.579823 12.9573 0.375935 12.0829 0.37722 11.3643C0.378544 10.627 0.591572 10.1361 0.85162 9.91121C0.922791 9.84969 0.998074 9.80643 1.07935 9.77888L1.12376 9.76384L1.16459 9.7408L1.97238 9.28496L1.99357 9.27301L1.995 9.27201C2.00461 9.26796 2.02588 9.26012 2.05854 9.25415C2.12668 9.24168 2.26856 9.23274 2.48717 9.31645L2.49596 9.31981L2.49599 9.31973L14.8521 13.7865L15.2339 13.9246L15.4474 13.5792L22.842 1.61532L22.857 1.59116L22.8691 1.56545C23.0329 1.21749 23.2399 1.08029 23.4337 1.03609L23.4443 1.03366L23.4548 1.03078L23.6324 0.982056L23.7725 0.943607L23.8437 0.865164C23.8679 0.852747 23.9071 0.835636 23.9635 0.815009C24.0784 0.772971 24.2288 0.729368 24.3926 0.687607C24.6899 0.611854 24.9941 0.551425 25.1408 0.522288C25.155 0.519462 25.1678 0.51693 25.1789 0.514707L25.201 0.510284C25.5363 0.454423 26.0477 0.620735 26.605 1.14497C27.1563 1.66367 27.6748 2.46812 27.9815 3.47351L33.7493 22.3858C33.7493 22.3859 33.7493 22.3859 33.7493 22.3859C34.1234 23.6129 34.8523 24.7574 35.7344 25.4375L48.6318 35.3826C49.5021 36.0538 50.1435 37.2393 50.3907 38.3968C50.5133 38.9708 50.532 39.5076 50.4509 39.9418C50.3695 40.3781 50.1974 40.6666 49.9779 40.8252L1.04765 13.8353ZM1.04765 13.8353L10.3799 31.3524L9.93866 31.5875L10.38 31.3524C10.9845 32.4873 11.2774 33.805 11.1261 34.8959L11.126 34.8961L8.92268 50.7511C8.92268 50.7512 8.92267 50.7512 8.92267 50.7512C8.77514 51.8141 9.15586 53.0987 9.80498 54.1022C10.1264 54.5991 10.4974 55.001 10.8691 55.2619C11.2433 55.5245 11.5804 55.6197 11.8586 55.5853L23.3942 54.159C24.3573 54.0398 25.3491 54.6947 26.0888 55.6405L37.6244 70.3866L37.6245 70.3866C38.5206 71.5325 39.2965 71.6089 39.6622 71.4109L39.7183 71.3806L39.7802 71.3653L41.2138 71.0107C41.6681 70.7716 42.1082 70.1672 41.9526 68.8702L41.9526 68.87L39.7498 50.4717C39.7498 50.4717 39.7498 50.4716 39.7498 50.4715C39.608 49.29 39.8551 48.1366 40.6456 47.566C40.6457 47.5659 40.6458 47.5659 40.6458 47.5658L49.9778 40.8253L1.04765 13.8353ZM23.8266 0.874788C23.8267 0.874799 23.8277 0.874205 23.8294 0.872989C23.8275 0.874166 23.8266 0.874777 23.8266 0.874788Z" fill="#262626" stroke="#262626"/>
<path d="M14.6577 14.7813L14.658 14.7814C15.1415 14.9665 15.6379 14.9934 16.0878 14.8174C16.539 14.6408 16.8821 14.2841 17.1013 13.8182C17.1013 13.8182 17.1013 13.8182 17.1013 13.8181L22.8691 1.56549C23.0357 1.21175 23.2459 1.075 23.4439 1.0328C23.662 0.986306 23.9638 1.03434 24.3252 1.24298C25.0501 1.66153 25.8417 2.6353 26.2549 3.99034L26.2549 3.99035L32.0227 22.9026C32.3968 24.1305 33.1257 25.2742 34.0076 25.9548L34.0078 25.955L46.9051 35.8994C46.9051 35.8994 46.9052 35.8994 46.9052 35.8995C47.7755 36.571 48.4169 37.7567 48.6641 38.9142C48.7867 39.4881 48.8054 40.0249 48.7244 40.459C48.6429 40.8952 48.4708 41.1836 48.2514 41.3421L48.2514 41.3421L38.9193 48.0833C38.1285 48.6538 37.8814 49.8075 38.0233 50.9892L40.226 69.3875L40.226 69.3876C40.3854 70.7173 39.9528 71.3035 39.5831 71.4482C39.2034 71.5968 38.4605 71.4553 37.6244 70.3866L26.0888 55.6405C26.0888 55.6404 26.0888 55.6404 26.0888 55.6404C25.3484 54.6939 24.3573 54.0398 23.3936 54.1589L23.3936 54.1589L11.8581 55.5853C11.5798 55.6197 11.2427 55.5245 10.8685 55.2619C10.4969 55.001 10.1259 54.5991 9.80449 54.1022C9.15544 53.0987 8.77487 51.8141 8.92269 50.7513L8.9227 50.7512L11.1254 34.8963C11.1254 34.8962 11.1255 34.8961 11.1255 34.896C11.2774 33.8056 10.9845 32.4873 10.3794 31.3524L14.6577 14.7813ZM14.6577 14.7813L1.76033 9.8338L1.76028 9.83378C1.37862 9.68733 1.12449 9.73293 0.953243 9.83489C0.767376 9.94555 0.587906 10.1773 0.477844 10.5655C0.256359 11.3467 0.37735 12.5779 1.04707 13.8353C1.04707 13.8353 1.04708 13.8353 1.04708 13.8353L10.3793 31.3522L14.6577 14.7813Z" fill="#FFD800" stroke="#262626"/>
</svg>
