<svg width="24" height="24" viewBox="0 0 24 24" fill="none" xmlns="http://www.w3.org/2000/svg">
<g clip-path="url(#clip0_0_2129)">
<path d="M23.7618 7.20011C23.7618 7.20011 23.5278 5.54561 22.8063 4.81961C21.8928 3.86411 20.8698 3.85811 20.4018 3.80261C17.0463 3.55811 12.0063 3.55811 12.0063 3.55811H11.9973C11.9973 3.55811 6.95881 3.55811 3.60181 3.80261C3.13231 3.85961 2.11081 3.86411 1.19731 4.81961C0.475812 5.54561 0.246313 7.20011 0.246313 7.20011C0.246313 7.20011 0.0078125 9.14111 0.0078125 11.0866V12.9061C0.0078125 14.8471 0.246313 16.7926 0.246313 16.7926C0.246313 16.7926 0.480313 18.4471 1.19731 19.1746C2.11081 20.1301 3.31081 20.0986 3.84631 20.2006C5.76781 20.3836 12.0078 20.4391 12.0078 20.4391C12.0078 20.4391 17.0523 20.4301 20.4078 20.1901C20.8773 20.1346 21.8988 20.1286 22.8123 19.1731C23.5338 18.4471 23.7678 16.7911 23.7678 16.7911C23.7678 16.7911 24.0063 14.8501 24.0063 12.9046V11.0851C24.0018 9.1441 23.7633 7.19861 23.7633 7.19861L23.7618 7.20011ZM9.52081 15.1126V8.36711L16.0038 11.7511L9.52081 15.1126Z" fill="white"/>
</g>
<defs>
<clipPath id="clip0_0_2129">
<rect width="24" height="24" fill="white"/>
</clipPath>
</defs>
</svg>
