<svg width="54" height="50" viewBox="0 0 54 50" fill="none" xmlns="http://www.w3.org/2000/svg">
<path d="M50.4404 1L30.1406 16.0769L33.8945 7.18173L50.4404 1Z" fill="#E2761B" stroke="#E2761B" stroke-linecap="round" stroke-linejoin="round"/>
<path d="M3.57031 1L23.7068 16.2197L20.1365 7.18173L3.57031 1Z" fill="#E4761B" stroke="#E4761B" stroke-linecap="round" stroke-linejoin="round"/>
<path d="M43.133 35.9482L37.7266 44.2314L49.2944 47.414L52.6198 36.1319L43.133 35.9482Z" fill="#E4761B" stroke="#E4761B" stroke-linecap="round" stroke-linejoin="round"/>
<path d="M1.42969 36.1318L4.73477 47.414L16.3026 44.2313L10.8961 35.9482L1.42969 36.1318Z" fill="#E4761B" stroke="#E4761B" stroke-linecap="round" stroke-linejoin="round"/>
<path d="M15.6532 21.9526L12.4297 26.8286L23.9159 27.3387L23.5078 14.9956L15.6532 21.9526Z" fill="#E4761B" stroke="#E4761B" stroke-linecap="round" stroke-linejoin="round"/>
<path d="M38.3547 21.9526L30.398 14.8528L30.1328 27.3387L41.5986 26.8286L38.3547 21.9526Z" fill="#E4761B" stroke="#E4761B" stroke-linecap="round" stroke-linejoin="round"/>
<path d="M16.3047 44.2313L23.2005 40.865L17.2432 36.2134L16.3047 44.2313Z" fill="#E4761B" stroke="#E4761B" stroke-linecap="round" stroke-linejoin="round"/>
<path d="M30.8047 40.865L37.7209 44.2313L36.762 36.2134L30.8047 40.865Z" fill="#E4761B" stroke="#E4761B" stroke-linecap="round" stroke-linejoin="round"/>
<path d="M37.7287 44.2313L30.8125 40.865L31.3633 45.3738L31.3021 47.2711L37.7287 44.2313Z" fill="#D7C1B3" stroke="#D7C1B3" stroke-linecap="round" stroke-linejoin="round"/>
<path d="M16.3047 44.2313L22.7312 47.2711L22.6904 45.3738L23.2005 40.865L16.3047 44.2313Z" fill="#D7C1B3" stroke="#D7C1B3" stroke-linecap="round" stroke-linejoin="round"/>
<path d="M22.8314 33.2347L17.0781 31.5414L21.1381 29.6848L22.8314 33.2347Z" fill="#233447" stroke="#233447" stroke-linecap="round" stroke-linejoin="round"/>
<path d="M31.1797 33.2347L32.873 29.6848L36.9534 31.5414L31.1797 33.2347Z" fill="#233447" stroke="#233447" stroke-linecap="round" stroke-linejoin="round"/>
<path d="M16.3049 44.2313L17.2842 35.9482L10.8984 36.1318L16.3049 44.2313Z" fill="#CD6116" stroke="#CD6116" stroke-linecap="round" stroke-linejoin="round"/>
<path d="M36.75 35.9482L37.7293 44.2314L43.1358 36.1319L36.75 35.9482Z" fill="#CD6116" stroke="#CD6116" stroke-linecap="round" stroke-linejoin="round"/>
<path d="M41.6064 26.8286L30.1406 27.3387L31.2015 33.2348L32.8949 29.6849L36.9752 31.5414L41.6064 26.8286Z" fill="#CD6116" stroke="#CD6116" stroke-linecap="round" stroke-linejoin="round"/>
<path d="M17.0813 31.5414L21.1616 29.6849L22.8346 33.2348L23.9159 27.3387L12.4297 26.8286L17.0813 31.5414Z" fill="#CD6116" stroke="#CD6116" stroke-linecap="round" stroke-linejoin="round"/>
<path d="M12.4297 26.8286L17.2445 36.2134L17.0813 31.5414L12.4297 26.8286Z" fill="#E4751F" stroke="#E4751F" stroke-linecap="round" stroke-linejoin="round"/>
<path d="M36.9696 31.5414L36.7656 36.2134L41.6008 26.8286L36.9696 31.5414Z" fill="#E4751F" stroke="#E4751F" stroke-linecap="round" stroke-linejoin="round"/>
<path d="M23.9172 27.3386L22.8359 33.2347L24.1825 40.1917L24.4885 31.0313L23.9172 27.3386Z" fill="#E4751F" stroke="#E4751F" stroke-linecap="round" stroke-linejoin="round"/>
<path d="M30.1368 27.3386L29.5859 31.0109L29.8308 40.1917L31.1977 33.2347L30.1368 27.3386Z" fill="#E4751F" stroke="#E4751F" stroke-linecap="round" stroke-linejoin="round"/>
<path d="M31.195 33.2349L29.8281 40.1919L30.8074 40.8651L36.7647 36.2135L36.9687 31.5415L31.195 33.2349Z" fill="#F6851B" stroke="#F6851B" stroke-linecap="round" stroke-linejoin="round"/>
<path d="M17.0781 31.5415L17.2413 36.2135L23.1987 40.8651L24.1779 40.1919L22.8314 33.2349L17.0781 31.5415Z" fill="#F6851B" stroke="#F6851B" stroke-linecap="round" stroke-linejoin="round"/>
<path d="M31.3 47.2711L31.3612 45.3737L30.8511 44.9249H23.1597L22.6904 45.3737L22.7312 47.2711L16.3047 44.2312L18.5489 46.0674L23.0985 49.2296H30.9123L35.4823 46.0674L37.7265 44.2312L31.3 47.2711Z" fill="#C0AD9E" stroke="#C0AD9E" stroke-linecap="round" stroke-linejoin="round"/>
<path d="M30.8074 40.8649L29.8281 40.1917H24.1768L23.1975 40.8649L22.6875 45.3737L23.1567 44.9249H30.8482L31.3582 45.3737L30.8074 40.8649Z" fill="#161616" stroke="#161616" stroke-linecap="round" stroke-linejoin="round"/>
<path d="M51.288 17.0562L53.0222 8.73227L50.4312 1L30.8047 15.5669L38.3533 21.9526L49.0235 25.0741L51.3901 22.3198L50.37 21.5854L52.0021 20.096L50.7372 19.1168L52.3693 17.8723L51.288 17.0562Z" fill="#763D16" stroke="#763D16" stroke-linecap="round" stroke-linejoin="round"/>
<path d="M1 8.73227L2.73415 17.0562L1.63245 17.8723L3.2646 19.1168L2.02009 20.096L3.65223 21.5854L2.63214 22.3198L4.97834 25.0741L15.6485 21.9526L23.1971 15.5669L3.57062 1L1 8.73227Z" fill="#763D16" stroke="#763D16" stroke-linecap="round" stroke-linejoin="round"/>
<path d="M49.0271 25.0741L38.357 21.9526L41.6008 26.8287L36.7656 36.2135L43.131 36.1319H52.6178L49.0271 25.0741Z" fill="#F6851B" stroke="#F6851B" stroke-linecap="round" stroke-linejoin="round"/>
<path d="M15.6497 21.9526L4.97959 25.0741L1.42969 36.1319H10.8961L17.241 36.2135L12.4262 26.8287L15.6497 21.9526Z" fill="#F6851B" stroke="#F6851B" stroke-linecap="round" stroke-linejoin="round"/>
<path d="M30.1375 27.3386L30.8107 15.5668L33.9118 7.18164H20.1406L23.2009 15.5668L23.915 27.3386L24.1598 31.0517L24.1802 40.1917H29.8315L29.8723 31.0517L30.1375 27.3386Z" fill="#F6851B" stroke="#F6851B" stroke-linecap="round" stroke-linejoin="round"/>
</svg>
