<svg width="47" height="87" viewBox="0 0 47 87" fill="none" xmlns="http://www.w3.org/2000/svg">
<path d="M0.303284 59.0413L2.3131 41.8483C2.36871 41.3697 2.5596 41.0697 2.81915 40.933L2.81778 40.9303L3.61008 41.0425C3.62724 41.0315 3.6451 41.0219 3.66295 41.0123L3.70003 40.991L3.70209 40.9951C4.24522 40.7521 5.06439 41.1956 5.62195 42.262L7.97371 46.7547C8.06435 46.6929 8.15842 46.6393 8.25455 46.5933L14.9473 42.7509L14.9466 42.7522C16.6467 41.7703 19.2196 43.3496 20.8346 46.4347C22.5237 49.6626 22.5237 53.3149 20.8346 54.5921L14.5586 59.3368L17.3773 64.7222C18.0736 66.0522 17.871 67.4076 17.1171 67.5923L16.4978 67.4142C16.2946 67.5502 16.0309 67.579 15.7171 67.4588L1.95261 62.1916C0.989243 61.8235 0.162521 60.2443 0.303284 59.0413Z" fill="#262626"/>
<path d="M0.798054 59.0992L0.798059 59.0991L2.80786 41.9063C2.84231 41.612 2.93225 41.4714 2.99476 41.4122C3.04673 41.3629 3.11435 41.3349 3.22547 41.35C3.48636 41.3852 3.94892 41.6753 4.33537 42.4137L4.77837 42.1818L4.33538 42.4137L7.15406 47.7991L7.42776 48.322L7.89858 47.9661L14.1738 43.2221C14.1738 43.222 14.1738 43.222 14.1738 43.222C14.8004 42.7485 15.6753 42.7519 16.6816 43.3328C17.6868 43.9132 18.7348 45.0344 19.5473 46.5871L19.5473 46.5872C20.3587 48.1371 20.7577 49.7781 20.7577 51.1655C20.7577 52.5742 20.3515 53.6129 19.6888 54.1137L19.6888 54.1138L13.4135 58.8578L13.0757 59.1132L13.2721 59.4885L16.0907 64.8737C16.4701 65.5992 16.5227 66.2825 16.4052 66.687C16.3473 66.8866 16.2631 66.9739 16.2079 67.0064C16.1667 67.0306 16.0786 67.0629 15.8939 66.9923L0.798054 59.0992ZM0.798054 59.0992C0.742296 59.5757 0.878851 60.1699 1.15498 60.6976C1.43583 61.2343 1.80712 61.6018 2.12877 61.7251C2.12882 61.7251 2.12887 61.7251 2.12892 61.7251L15.8938 66.9923L0.798054 59.0992Z" fill="#FE6BB4" stroke="#262626"/>
<path d="M26.3286 33.4053L32.6038 28.6612L29.7851 23.2759C29.1541 22.0694 29.2619 20.8424 29.849 20.486L29.8524 20.484C29.8566 20.4812 29.8607 20.4792 29.8641 20.4771L30.6887 19.568C30.6969 19.5625 30.7065 19.557 30.7155 19.5522L30.7361 19.5406V19.5419C30.9283 19.4431 31.1673 19.4321 31.4454 19.5385L45.2105 24.8064C46.1732 25.1745 46.9999 26.7545 46.8592 27.9568L44.8494 45.1497C44.7903 45.6537 44.5816 45.9586 44.3007 46.0835L44.3028 46.0877L43.5668 46.9487L43.5647 46.9459C43.0271 47.3037 42.1352 46.8731 41.5405 45.736L39.1894 41.244C39.1428 41.2749 39.0961 41.3037 39.048 41.3312L32.2866 45.2053C32.2729 45.2142 32.2584 45.2211 32.2447 45.2293L32.1493 45.2835C30.4491 46.1872 27.9223 44.6086 26.3279 41.5626C24.6387 38.3347 24.6387 34.6824 26.3286 33.4053Z" fill="#262626"/>
<path d="M0.790545 1.01551L0.789858 1.01345L1.60138 1.11055L1.60344 1.11399C1.90969 0.921039 2.33197 0.963611 2.78653 1.31517L16.5517 11.9424C17.7355 12.8556 18.2155 15.0646 17.3695 15.7038L14.5515 17.8345L20.8268 29.8254C22.5159 33.0533 22.5159 35.7056 20.8268 36.9827C20.6736 37.0988 20.5116 37.1901 20.342 37.2601L19.8264 37.012C19.812 37.0209 19.7976 37.0285 19.7832 37.0367L19.7811 37.0381C18.0823 38.0516 15.4903 37.4716 13.867 34.37L7.59177 22.3798L4.77309 24.5105C3.92714 25.1497 2.47901 23.6727 2.30597 21.9946L0.29616 2.48149C0.219255 1.73992 0.429369 1.21944 0.790545 1.01551Z" fill="#262626"/>
<path d="M26.3286 50.0152C26.4041 49.9582 26.4824 49.9088 26.5614 49.8628L26.5607 49.8614L27.3152 49.9956C27.3784 49.9551 27.4422 49.918 27.5082 49.885L27.5095 49.8844C29.2083 49.0295 31.707 50.6081 33.2877 53.6279L39.5636 65.6188L42.3816 63.4882C43.2275 62.8482 44.6764 64.3252 44.8494 66.0034L46.8592 85.5171C46.9354 86.2587 46.7253 86.7792 46.3641 86.9831L46.3648 86.9852L45.4991 86.9183V86.9169C45.1976 87.0728 44.7966 87.0144 44.3681 86.6835L30.6037 76.0562C29.4199 75.1423 28.9392 72.9334 29.7852 72.2941L32.6038 70.1635L26.3286 58.1733C24.6388 54.9446 24.6388 51.2924 26.3286 50.0152Z" fill="#262626"/>
<path d="M30.2261 23.0439C30.2261 23.0439 30.2261 23.0439 30.2261 23.0439C29.8465 22.3185 29.7938 21.6352 29.9114 21.2308C29.9694 21.0313 30.0536 20.9439 30.1088 20.9114C30.1501 20.8872 30.2383 20.8549 30.4229 20.9254L30.2261 23.0439ZM30.2261 23.0439L33.0448 28.4293L33.2412 28.8045L32.9033 29.06L26.6281 33.804L26.628 33.804C25.9654 34.3049 25.5592 35.3436 25.5592 36.7523C25.5592 38.1396 25.9581 39.7807 26.7695 41.3306L26.7696 41.3307C27.5821 42.8834 28.63 44.0046 29.6353 44.5849C30.6416 45.1659 31.5165 45.1693 32.1431 44.6957L38.4183 39.9517L38.8891 39.5958L39.1628 40.1187L41.9815 45.504C42.3679 46.2421 42.8305 46.5322 43.0914 46.5675C43.2025 46.5825 43.2701 46.5545 43.3221 46.5053C43.3846 46.446 43.4746 46.3054 43.509 46.0109L45.5188 28.8187L45.5188 28.8186C45.5746 28.3421 45.438 27.7479 45.1619 27.2202C44.881 26.6835 44.5098 26.316 44.1881 26.1927C44.1881 26.1927 44.188 26.1926 44.188 26.1926L30.4231 20.9255L30.2261 23.0439Z" fill="#FE6BB4" stroke="#262626"/>
<path d="M1.64493 1.63035L1.64503 1.63043L15.4095 12.2576L15.4095 12.2576C15.8856 12.6252 16.2527 13.2894 16.3969 13.9522C16.468 14.2788 16.478 14.5756 16.4368 14.8074C16.3951 15.0415 16.3105 15.1658 16.2321 15.2251L16.2321 15.2251L13.4134 17.3558L13.0755 17.6112L13.2719 17.9865L19.5478 29.9774C19.5478 29.9774 19.5478 29.9774 19.5478 29.9774C20.3589 31.5274 20.7577 33.1682 20.7577 34.5554C20.7577 35.964 20.3517 37.0026 19.6893 37.5034L19.6893 37.5034C19.0627 37.9772 18.1879 37.9739 17.1816 37.3928C16.1763 36.8124 15.1284 35.6911 14.3158 34.1383L14.3158 34.1382L8.03986 22.148L7.76618 21.6252L7.29537 21.981L4.47669 24.1117L4.47659 24.1118C4.41318 24.1597 4.33431 24.182 4.20008 24.143C4.05078 24.0996 3.85633 23.9822 3.6499 23.7717C3.23748 23.3511 2.88371 22.6669 2.80914 21.9441C2.80914 21.9441 2.80913 21.9441 2.80913 21.9441M1.64493 1.63035L2.31177 21.9954L2.80913 21.9441M1.64493 1.63035C1.26314 1.33543 1.07474 1.42023 1.01399 1.46618C0.90659 1.5474 0.736654 1.8259 0.798637 2.43037L1.64493 1.63035ZM2.80913 21.9441L0.798658 2.43057L2.80913 21.9441Z" fill="#FE6BB4" stroke="#262626"/>
<path d="M45.5181 85.4877L45.5181 85.4876L43.5083 65.9739C43.5083 65.9739 43.5083 65.9739 43.5083 65.9739C43.4337 65.2507 43.0799 64.5666 42.6675 64.1461C42.461 63.9357 42.2665 63.8183 42.1172 63.7749C41.9828 63.7359 41.9037 63.7582 41.84 63.8064L39.0213 65.937L38.5505 66.2929L38.2768 65.7699L32.0016 53.7791C31.1887 52.2263 30.1406 51.1052 29.1353 50.5248C28.129 49.9438 27.2543 49.9405 26.6281 50.4139L26.628 50.414C25.9654 50.9148 25.5592 51.9535 25.5592 53.3622C25.5592 54.7496 25.9581 56.3906 26.7695 57.9406L26.7696 57.9406L33.0448 69.9315L33.2412 70.3068L32.9034 70.5622L30.0854 72.6928L30.0851 72.693C30.0065 72.7524 29.9219 72.8767 29.8802 73.1108C29.8389 73.3425 29.8489 73.6393 29.9199 73.9657C30.064 74.6284 30.4311 75.2924 30.907 75.6596L30.9072 75.6597L44.6723 86.2869L44.6725 86.287C45.0544 86.582 45.2428 86.4972 45.3034 86.4514C45.4105 86.3705 45.5804 86.0923 45.5181 85.4877Z" fill="#FE6BB4" stroke="#262626"/>
</svg>
