<svg width="34" height="85" viewBox="0 0 34 85" fill="none" xmlns="http://www.w3.org/2000/svg">
<path d="M8.86211 25.2221L1.55952 22.554L1.48076 22.6104L1.33027 22.5939C1.30736 22.6096 1.25125 22.6575 1.16785 22.791C1.02646 23.0174 0.888313 23.3737 0.791874 23.8155C0.597618 24.7054 0.604771 25.7868 0.942238 26.5831C0.942253 26.5831 0.942268 26.5832 0.942284 26.5832L14.7384 59.1117C15.1429 60.0649 15.7193 60.7705 16.2774 61.159C16.8488 61.5568 17.2907 61.5629 17.5612 61.3944L17.586 61.379L17.6124 61.3665L19.1491 60.6422C19.2139 60.5994 19.2766 60.5445 19.3363 60.4728C19.3365 60.4727 19.3366 60.4725 19.3367 60.4724L33.1323 43.8152L33.1323 43.8152C33.3378 43.5671 33.4695 43.1869 33.4953 42.6903C33.5209 42.1981 33.4397 41.6302 33.2615 41.0561C32.8998 39.891 32.1786 38.8192 31.3324 38.3322C31.3323 38.3322 31.3323 38.3322 31.3323 38.3322L24.717 34.5271L24.4663 34.3829V34.0937V14.5265C24.4663 11.9875 23.6892 9.22013 22.4204 6.80505C21.1494 4.38581 19.4119 2.37061 17.5361 1.29138C15.7807 0.282375 14.2891 0.303039 13.2144 0.988552L13.1846 1.00756L13.1524 1.02218L11.8231 1.62641L11.8121 1.6325C10.4889 2.36389 9.5337 4.18095 9.5337 7.00791V24.7525V25.4675L8.86211 25.2221Z" fill="#262626" stroke="#262626"/>
<path d="M2.37505 58.6752C2.32472 58.7016 2.27178 58.734 2.21133 58.7739L2.20515 58.7785L2.19501 58.7854C1.44497 59.2925 0.880981 60.4314 0.880981 62.2102C0.880981 63.9065 1.39899 65.7629 2.24875 67.3862C3.10073 69.0138 4.25921 70.3565 5.49518 71.0702C5.49519 71.0702 5.4952 71.0702 5.49521 71.0702L27.8613 83.9833C28.9725 84.6248 29.8875 84.616 30.5421 84.2386L30.555 84.2311L30.5563 84.2305C30.5896 84.211 30.6102 84.199 30.6301 84.186L30.661 84.1658L30.6945 84.1503L32.0486 83.5264C32.8676 83.0657 33.4999 81.9036 33.4999 80.0161C33.4999 78.3198 32.9819 76.4634 32.1322 74.8401C31.2802 73.2125 30.1217 71.8698 28.8857 71.1561C28.8857 71.1561 28.8857 71.1561 28.8857 71.1561L6.51964 58.243L6.51955 58.243C5.36082 57.5737 4.41363 57.6096 3.7502 58.0405L3.71929 58.0606L3.68577 58.0759L2.37505 58.6752Z" fill="#262626" stroke="#262626"/>
<path d="M31.613 44.2479L31.6131 44.2479C31.8159 44.0021 31.9462 43.625 31.9717 43.1318C31.9971 42.643 31.9167 42.0791 31.7404 41.509C31.3825 40.3517 30.669 39.2882 29.833 38.8056L29.833 38.8056L23.2858 35.0256L23.0358 34.8813V34.5926V15.1537C23.0358 12.6317 22.2668 9.88282 21.0113 7.48405C19.7536 5.08104 18.0347 3.08009 16.1797 2.00897C14.3363 0.944693 12.7866 1.03206 11.706 1.8489C10.5941 2.68942 9.82292 4.41439 9.82292 6.94827V26.3865V27.2525L9.07293 26.8195L2.52576 23.0395L2.52569 23.0395C2.11429 22.8019 1.81587 22.7842 1.61857 22.8401C1.42383 22.8953 1.23462 23.0484 1.0912 23.3465C0.794676 23.9629 0.766865 25.0833 1.32059 26.3938L14.9745 58.708L14.9746 58.7081C15.4211 59.7653 16.0773 60.5099 16.6793 60.8575C16.9787 61.0303 17.2389 61.0909 17.4419 61.0764C17.6313 61.0628 17.8052 60.9827 17.9591 60.7961L18.3448 61.1143L17.9591 60.7961L31.613 44.2479Z" fill="#A4C639" stroke="#262626"/>
<path d="M27.3624 71.8793L27.3623 71.8792L4.9962 58.9661L4.99617 58.9661C3.77204 58.2592 2.78301 58.3355 2.10828 58.8455C1.40224 59.3792 0.882004 60.5016 0.882004 62.2101C0.882004 63.9064 1.40002 65.7628 2.24977 67.3862C3.10175 69.0138 4.26023 70.3564 5.4962 71.0702C5.49621 71.0702 5.49622 71.0702 5.49623 71.0702L27.8623 83.9832C29.0868 84.6901 30.0758 84.6137 30.7504 84.1037C31.4564 83.5699 31.9765 82.4475 31.9765 80.7393C31.9765 79.0429 31.4586 77.1864 30.609 75.5629C29.7571 73.9352 28.5986 72.5926 27.3624 71.8793Z" fill="#A4C639" stroke="#262626"/>
</svg>
