<svg width="250" height="250" viewBox="0 0 250 250" fill="none" xmlns="http://www.w3.org/2000/svg">
<path opacity="0.1" d="M59.4594 210.53L127.813 250L161.445 229.155L93.071 189.684L59.4594 210.53Z" fill="black"/>
<path d="M133.757 246.382L161.242 229.34V219.472L133.757 236.514V246.382Z" fill="#FFCD39"/>
<path d="M77.858 214.106L133.754 246.382V236.514L77.858 204.239V214.106Z" fill="#FFA000"/>
<path d="M77.8609 204.239L133.757 236.514L161.242 219.472L105.346 187.197L77.8609 204.239Z" fill="#FFE082"/>
<path d="M152.939 108.133L162.539 102.582V32.2547L152.939 37.8053V108.133Z" fill="#FFCD39"/>
<path d="M97.0428 5.55053L152.939 37.8053L162.539 32.2547L106.643 0L97.0428 5.55053Z" fill="#FFE082"/>
<path d="M97.0377 75.8572L152.934 108.132V37.8052L97.0377 5.55048V75.8572Z" fill="#FFA000"/>
<path d="M102.897 71.869L147.055 97.3603V41.8139L102.897 16.302V71.869Z" fill="#546E7A"/>
<path d="M105.392 70.1833L144.574 92.7965V43.4996L105.392 20.8863V70.1833Z" fill="#B2EBF2"/>
<path d="M143.309 230.573L152.93 225.023V121.824L143.309 127.374V230.573Z" fill="#FFCD39"/>
<path d="M152.939 108.132L143.318 127.374L152.939 121.824L162.539 102.582L152.939 108.132Z" fill="#FFCD39"/>
<path d="M87.4166 198.298L143.312 230.573V127.374L87.4166 95.0991V198.298Z" fill="#FFA000"/>
<path d="M101.029 138.455L128.309 154.202V147.808L101.029 132.061V138.455Z" fill="#FF8F00"/>
<path d="M101.029 136.44L128.309 152.187V148.919L101.029 133.192V136.44Z" fill="#78909C"/>
<path d="M101.029 135.721L128.309 151.468V150.748L101.029 135.001V135.721Z" fill="#37474F"/>
<path d="M137.453 144.232L114.84 131.177V118.329L137.453 131.383V144.232Z" fill="#78909C"/>
<path d="M117.02 122.317L122.488 125.483V123.489L117.02 120.323V122.317Z" fill="#FF8A65"/>
<path d="M117.02 125.483L122.488 128.649V126.655L117.02 123.51V125.483Z" fill="#FFC107"/>
<path d="M117.02 128.669L122.488 131.815V129.841L117.02 126.675V128.669Z" fill="#455A64"/>
<path d="M117.02 131.835L122.488 135.001V133.007L117.02 129.862V131.835Z" fill="#CDDC39"/>
<path d="M132.891 131.486L135.625 133.048V131.075L132.891 129.492V131.486Z" fill="#455A64"/>
<path d="M128.52 128.957L131.254 130.52V128.546L128.52 126.963V128.957Z" fill="#455A64"/>
<path d="M124.125 126.429L126.859 127.991V126.018L124.125 124.435V126.429Z" fill="#455A64"/>
<path d="M132.891 134.652L135.625 136.235V134.241L132.891 132.658V134.652Z" fill="#455A64"/>
<path d="M128.52 132.123L131.254 133.706V131.712L128.52 130.129V132.123Z" fill="#455A64"/>
<path d="M124.125 129.595L126.859 131.178V129.184L124.125 127.621V129.595Z" fill="#455A64"/>
<path d="M132.891 137.818L135.625 139.401V137.427L132.891 135.844V137.818Z" fill="#455A64"/>
<path d="M128.52 135.289L131.254 136.872V134.898L128.52 133.316V135.289Z" fill="#455A64"/>
<path d="M124.125 132.76L126.859 134.343V132.37L124.125 130.787V132.76Z" fill="#455A64"/>
<path d="M132.891 141.004L135.625 142.566V140.593L132.891 139.01V141.004Z" fill="#455A64"/>
<path d="M128.52 138.476L131.254 140.038V138.064L128.52 136.481V138.476Z" fill="#455A64"/>
<path d="M124.125 135.947L126.859 137.53V135.536L124.125 133.953V135.947Z" fill="#455A64"/>
<path d="M93.2937 115.924L102.277 121.104V113.889L93.2937 108.708V115.924Z" fill="#FF8F00"/>
<path d="M93.2937 115.102L102.277 120.303V114.69L93.2937 109.51V115.102Z" fill="#78909C"/>
<path d="M94.524 114.3L101.041 118.062C101.329 118.226 101.555 118.082 101.555 117.774C101.555 117.445 101.329 117.054 101.041 116.89L94.524 113.128C94.2362 112.963 94.0101 113.107 94.0101 113.416C94.0101 113.745 94.2362 114.135 94.524 114.3Z" fill="#37474F"/>
<path d="M97.0338 75.8571L152.93 108.132L143.309 127.374L87.4129 95.099L97.0338 75.8571Z" fill="#FFC107"/>
</svg>
