<svg width="250" height="250" viewBox="0 0 250 250" fill="none" xmlns="http://www.w3.org/2000/svg">
<g clip-path="url(#clip0_1807_11560)">
<path d="M196.61 103.532L196.67 174.635L196.229 240.69C196.209 242.193 195.688 243.255 194.806 243.756L184.789 249.566C184.949 249.446 185.09 249.325 185.23 249.185C185.29 249.125 185.35 249.045 185.41 248.965C185.49 248.845 185.55 248.744 185.61 248.604C185.711 248.444 185.771 248.264 185.831 248.083C185.831 248.043 185.851 248.043 185.851 248.003C185.891 247.843 185.951 247.682 185.971 247.482C186.011 247.382 186.011 247.262 186.011 247.142C186.031 246.961 186.051 246.781 186.051 246.561L186.252 181.748L186.452 114.791L186.472 109.422L189.477 107.679L196.61 103.532Z" fill="white" stroke="#231F20" stroke-width="0.75" stroke-miterlimit="10" stroke-linecap="round" stroke-linejoin="round"/>
<path d="M181.505 106.597L53.6229 32.7687L53.2422 169.927C53.2422 172.973 55.3859 176.699 58.0305 178.222L145.923 228.97L181.225 249.345C183.869 250.868 186.033 249.646 186.033 246.601L186.233 181.788L186.434 114.831L186.454 109.462L181.505 106.597Z" fill="white" stroke="#231F20" stroke-width="0.75" stroke-miterlimit="10" stroke-linecap="round" stroke-linejoin="round"/>
<path d="M173.294 226.285C173.414 225.864 173.494 225.384 173.494 224.843L173.775 122.164C173.775 121.964 173.755 121.783 173.735 121.583C173.735 121.403 173.695 121.222 173.675 121.042C173.635 120.762 173.574 120.501 173.514 120.221C173.474 120.02 173.394 119.78 173.314 119.58C172.733 117.797 171.631 116.033 170.269 114.831C170.128 114.711 169.988 114.591 169.828 114.471C169.708 114.371 169.587 114.27 169.467 114.19C169.307 114.07 169.147 113.97 168.986 113.87L70.976 57.2913C68.3314 55.7686 66.1676 56.9908 66.1476 60.0361L65.8672 162.715C65.8672 165.76 68.0108 169.466 70.6554 171.009L168.666 227.587C170.87 228.83 172.713 228.249 173.294 226.285Z" fill="#7369F6" stroke="#231F20" stroke-width="0.75" stroke-miterlimit="10" stroke-linecap="round" stroke-linejoin="round"/>
<path d="M134.422 139.234C134.522 138.893 134.602 138.493 134.602 138.052L134.842 110.264C134.842 110.103 134.822 109.943 134.822 109.783C134.822 109.642 134.802 109.502 134.762 109.342C134.742 109.122 134.682 108.901 134.622 108.681C134.582 108.501 134.522 108.32 134.462 108.16C133.981 106.697 133.079 105.275 131.957 104.273C131.837 104.173 131.717 104.073 131.597 103.993C131.497 103.913 131.396 103.832 131.296 103.772C131.156 103.672 131.036 103.592 130.896 103.512L79.406 73.7801C77.2422 72.538 75.4792 73.5397 75.4592 76.024L75.2188 103.812C75.2188 106.317 76.9618 109.322 79.1256 110.584L130.615 140.316C132.438 141.318 133.941 140.837 134.422 139.234Z" fill="white" stroke="#231F20" stroke-width="0.75" stroke-miterlimit="10" stroke-linecap="round" stroke-linejoin="round"/>
<path d="M186.493 86.0214L186.473 89.7679L186.433 104.293L186.412 109.442L181.484 106.597L53.6016 32.7687L53.6817 9.38809C53.6817 7.76527 54.2827 6.6633 55.2644 6.2025C55.2844 6.2025 55.3045 6.18251 55.3045 6.18251C55.4447 6.1224 55.605 6.06228 55.7652 6.04225C55.9456 6.00218 56.1259 5.98215 56.3263 5.98215C56.9874 5.98215 57.7087 6.18247 58.4901 6.64327L181.684 77.767C184.369 79.2696 186.493 82.9761 186.493 86.0214Z" fill="#2B2829" stroke="#231F20" stroke-width="0.75" stroke-miterlimit="10" stroke-linecap="round" stroke-linejoin="round"/>
<path d="M196.673 80.1311L196.613 103.512L189.46 107.679L186.455 109.422L186.475 104.273L186.515 89.7478L186.535 86.0013C186.535 82.956 184.392 79.2295 181.747 77.7069L58.5528 6.58319C57.7714 6.14243 57.0501 5.92207 56.389 5.92207C56.1886 5.92207 56.0084 5.9421 55.8281 5.98217C55.6678 6.02224 55.5074 6.06233 55.3672 6.12243L65.3045 0.332332C66.166 -0.188574 67.3882 -0.108427 68.7305 0.652897L191.905 71.7766C194.529 73.3593 196.673 77.0859 196.673 80.1311Z" fill="#424242" stroke="#231F20" stroke-width="0.75" stroke-miterlimit="10" stroke-linecap="round" stroke-linejoin="round"/>
<path d="M75.7068 31.1058C75.6868 33.2696 74.1641 34.1511 72.2808 33.0692C70.3976 31.9873 68.875 29.3427 68.875 27.1589C68.875 24.9952 70.4176 24.1136 72.3009 25.1955C74.2042 26.2974 75.7068 28.922 75.7068 31.1058Z" fill="#231F20" stroke="white" stroke-width="0.75" stroke-miterlimit="10" stroke-linecap="round" stroke-linejoin="round"/>
<path d="M87.3709 38.7191C87.3509 40.8828 85.8282 41.7644 83.9449 40.6825C82.0616 39.6006 80.5391 36.956 80.5391 34.7722C80.5391 32.5884 82.0817 31.7269 83.9649 32.8088C85.8482 33.8907 87.3509 36.5353 87.3709 38.7191Z" fill="#231F20" stroke="white" stroke-width="0.75" stroke-miterlimit="10" stroke-linecap="round" stroke-linejoin="round"/>
<path d="M99.9334 45.6912C99.9134 47.855 98.3908 48.7365 96.5075 47.6546C94.6242 46.5727 93.1016 43.9282 93.1016 41.7444C93.1016 39.5806 94.6443 38.699 96.5276 39.7809C98.4108 40.8828 99.9134 43.5074 99.9334 45.6912Z" fill="#231F20" stroke="white" stroke-width="0.75" stroke-miterlimit="10" stroke-linecap="round" stroke-linejoin="round"/>
<path d="M161.703 160.27V223.56L78.8594 175.737V158.908L93.9255 161.072V153.398L110.875 152.116L128.446 162.254L144.634 157.966L152.828 155.162L161.703 160.27Z" fill="white" stroke="#231F20" stroke-width="0.75" stroke-miterlimit="10" stroke-linecap="round" stroke-linejoin="round"/>
<path d="M93.9219 184.432V161.072" stroke="#231F20" stroke-width="0.75" stroke-miterlimit="10" stroke-linecap="round" stroke-linejoin="round"/>
<path d="M110.852 152.096V194.23" stroke="#231F20" stroke-width="0.75" stroke-miterlimit="10" stroke-linecap="round" stroke-linejoin="round"/>
<path d="M128.403 162.234L128.203 204.247" stroke="#231F20" stroke-width="0.75" stroke-miterlimit="10" stroke-linecap="round" stroke-linejoin="round"/>
<path d="M144.758 158.046V213.803" stroke="#231F20" stroke-width="0.75" stroke-miterlimit="10" stroke-linecap="round" stroke-linejoin="round"/>
<path d="M83.7487 178.562L75.2539 173.654" stroke="#231F20" stroke-width="0.75" stroke-miterlimit="10" stroke-linecap="round" stroke-linejoin="round"/>
<path d="M164.405 225.123L156.691 220.676" stroke="#231F20" stroke-width="0.75" stroke-miterlimit="10" stroke-linecap="round" stroke-linejoin="round"/>
<path d="M108.316 110.063L128.011 121.443" stroke="#EA5328" stroke-width="0.75" stroke-miterlimit="10" stroke-linecap="round" stroke-linejoin="round"/>
<path d="M108.316 103.512L128.011 114.892" stroke="#EA5328" stroke-width="0.75" stroke-miterlimit="10" stroke-linecap="round" stroke-linejoin="round"/>
<path d="M108.316 116.615L117.572 121.964" stroke="#EA5328" stroke-width="0.75" stroke-miterlimit="10" stroke-linecap="round" stroke-linejoin="round"/>
<path d="M83.0912 99.2844C82.8709 98.6834 82.7106 98.0824 82.5703 97.4813C82.7306 98.1024 82.8909 98.6834 83.0912 99.2844Z" fill="white" stroke="#231F20" stroke-width="0.75" stroke-miterlimit="10" stroke-linecap="round" stroke-linejoin="round"/>
<path d="M83.0912 89.6877C82.8909 90.0684 82.7306 90.4491 82.5703 90.8898C82.7106 90.4491 82.8909 90.0484 83.0912 89.6877Z" fill="white" stroke="#231F20" stroke-width="0.75" stroke-miterlimit="10" stroke-linecap="round" stroke-linejoin="round"/>
<path d="M87.5972 107.078C85.6337 104.874 84.051 102.109 83.1094 99.3044C84.051 102.109 85.6538 104.854 87.5972 107.078Z" fill="white" stroke="#231F20" stroke-width="0.75" stroke-miterlimit="10" stroke-linecap="round" stroke-linejoin="round"/>
<path d="M83.6719 88.8462C84.4132 87.9246 85.4149 87.3436 86.577 87.1633C85.4149 87.3837 84.4332 87.9447 83.6719 88.8462Z" fill="white" stroke="#231F20" stroke-width="0.75" stroke-miterlimit="10" stroke-linecap="round" stroke-linejoin="round"/>
<path d="M87.5938 107.098C88.0145 107.579 88.4353 108.02 88.8961 108.44C88.4553 108.02 88.0145 107.579 87.5938 107.098Z" fill="white" stroke="#231F20" stroke-width="0.75" stroke-miterlimit="10" stroke-linecap="round" stroke-linejoin="round"/>
<path d="M87.5938 87.1032C88.0145 87.1032 88.4353 87.1633 88.8961 87.2635C88.4553 87.1633 88.0145 87.1032 87.5938 87.1032Z" fill="white" stroke="#231F20" stroke-width="0.75" stroke-miterlimit="10" stroke-linecap="round" stroke-linejoin="round"/>
<path d="M94.6055 111.726C95.0462 111.806 95.4871 111.866 95.9078 111.886C95.4871 111.886 95.0462 111.826 94.6055 111.726Z" fill="white" stroke="#231F20" stroke-width="0.75" stroke-miterlimit="10" stroke-linecap="round" stroke-linejoin="round"/>
<path d="M100.418 109.302C99.476 111.025 97.8731 111.946 95.9297 111.886C97.853 111.906 99.4559 110.985 100.418 109.302Z" fill="white" stroke="#231F20" stroke-width="0.75" stroke-miterlimit="10" stroke-linecap="round" stroke-linejoin="round"/>
<path d="M101.354 105.034L91.7578 99.4848V88.3854C97.047 91.4508 101.354 98.9037 101.354 105.034Z" fill="#FFCF53" stroke="#231F20" stroke-width="0.75" stroke-miterlimit="10" stroke-linecap="round" stroke-linejoin="round"/>
<path d="M101.234 106.677C101.194 107.018 101.114 107.318 101.054 107.619C101.013 107.779 100.973 107.919 100.913 108.08C100.833 108.38 100.733 108.661 100.593 108.901C100.533 109.021 100.452 109.162 100.412 109.302C99.4507 110.985 97.8679 111.906 95.9245 111.886H95.9046C95.4838 111.866 95.063 111.826 94.6022 111.726C94.442 111.686 94.3018 111.646 94.1415 111.606C93.841 111.526 93.5404 111.426 93.2198 111.305C92.739 111.125 92.2582 110.885 91.7573 110.584C91.2565 110.304 90.7755 109.983 90.2947 109.602C89.9741 109.362 89.6737 109.122 89.3732 108.841C89.2129 108.701 89.0525 108.561 88.9123 108.42C88.4715 108 88.0308 107.559 87.6101 107.078H87.59C85.6467 104.854 84.0639 102.089 83.1023 99.3044V99.2844C82.9019 98.6834 82.7416 98.0824 82.5813 97.4813C82.5413 97.281 82.5012 97.0806 82.4411 96.8602C82.3609 96.4595 82.3009 96.0788 82.2608 95.6982C82.1807 95.0971 82.1406 94.5161 82.1406 93.9351C82.1406 93.3541 82.1807 92.8132 82.2608 92.3123C82.3009 91.9717 82.381 91.6511 82.4411 91.3506C82.4811 91.1903 82.5212 91.0501 82.5813 90.8898C82.7216 90.4491 82.9019 90.0684 83.1023 89.6877C83.1824 89.5875 83.2425 89.4473 83.3226 89.3271C83.4428 89.1668 83.563 88.9865 83.6832 88.8462C84.4445 87.9647 85.4463 87.3837 86.5883 87.1633C86.7686 87.1232 86.989 87.1032 87.1893 87.1032C87.3296 87.1032 87.4699 87.1232 87.6101 87.1032C88.0308 87.1232 88.4515 87.1633 88.9123 87.2635C89.0726 87.3036 89.2329 87.3437 89.3732 87.3837C89.6737 87.4639 89.9942 87.564 90.2947 87.7043C90.7755 87.8846 91.2565 88.125 91.7573 88.4255C97.0465 91.4908 101.354 98.9438 101.354 105.074C101.354 105.615 101.314 106.156 101.234 106.677Z" fill="white" stroke="#231F20" stroke-width="0.75" stroke-miterlimit="10" stroke-linecap="round" stroke-linejoin="round"/>
<path d="M101.354 105.034C101.354 105.615 101.314 106.156 101.234 106.657C101.194 106.998 101.114 107.298 101.054 107.599C101.013 107.759 100.973 107.899 100.913 108.06C100.813 108.34 100.713 108.621 100.593 108.881C100.533 109.001 100.452 109.142 100.412 109.282C99.4507 110.965 97.8679 111.886 95.9245 111.866H95.9046C95.4838 111.846 95.063 111.806 94.6022 111.706C94.442 111.666 94.3018 111.626 94.1415 111.586C93.841 111.506 93.5404 111.406 93.2198 111.285C92.739 111.105 92.2582 110.865 91.7573 110.564C91.2565 110.284 90.7755 109.963 90.2947 109.582C89.9741 109.342 89.6737 109.101 89.3732 108.821C89.2129 108.681 89.0525 108.541 88.9123 108.4C88.4715 107.98 88.0308 107.539 87.6101 107.058H87.59C85.6467 104.834 84.0639 102.069 83.1023 99.2845V99.2644C82.9019 98.6634 82.7416 98.0623 82.5813 97.4613C82.5413 97.2609 82.5012 97.0606 82.4411 96.8402C82.3609 96.4395 82.3009 96.0588 82.2608 95.6782C82.1807 95.0771 82.1406 94.4962 82.1406 93.9151C82.1406 93.3341 82.1807 92.7931 82.2608 92.2923C82.3009 91.9517 82.381 91.6312 82.4411 91.3306C82.4811 91.1704 82.5212 91.0301 82.5813 90.8698C82.7216 90.429 82.9019 90.0484 83.1023 89.6677C83.1824 89.5675 83.2425 89.4273 83.3226 89.3071C83.4428 89.1468 83.563 88.9665 83.6832 88.8263C84.4445 87.9447 85.4463 87.3637 86.5883 87.1434C86.7686 87.1033 86.989 87.0833 87.1893 87.0833C87.3296 87.0833 87.4699 87.1033 87.6101 87.0833C88.0308 87.1033 88.4515 87.1433 88.9123 87.2435C89.0726 87.2836 89.2329 87.3236 89.3732 87.3637C89.6737 87.4438 89.9942 87.544 90.2947 87.6843C90.7755 87.8646 91.2565 88.105 91.7573 88.4056V99.5048L101.354 105.034Z" fill="#FFCF53" stroke="#231F20" stroke-width="0.75" stroke-miterlimit="10" stroke-linecap="round" stroke-linejoin="round"/>
</g>
<defs>
<clipPath id="clip0_1807_11560">
<rect width="250" height="250" fill="white"/>
</clipPath>
</defs>
</svg>
