<svg width="250" height="251" viewBox="0 0 250 251" fill="none" xmlns="http://www.w3.org/2000/svg">
<g clip-path="url(#clip0_1942_2374)">
<path d="M159.695 190.845L159.623 190.882L159.565 190.939L159.4 191.105L158.855 191.468L154.26 194.065L154.251 194.07L154.241 194.076C153.537 194.517 152.581 194.752 151.6 194.752C150.618 194.752 149.663 194.517 148.958 194.076L148.95 194.071L148.941 194.066L140.527 189.258L138.527 188.057L138.527 188.057L138.518 188.053L118.272 176.426L118.272 176.426L107.455 170.216L105.908 169.249L105.748 169.089L105.69 169.032L105.618 168.996C104.929 168.651 104.691 168.196 104.691 167.839V167.639C104.691 167.282 104.929 166.826 105.618 166.482L105.634 166.474L105.649 166.465L111.046 163.267C111.758 162.915 112.722 162.726 113.713 162.726C114.706 162.726 115.672 162.916 116.385 163.269L126.596 169.076L126.902 169.249L127.169 169.021C131.492 165.315 133.958 159.763 133.958 154.208V136.921L153.205 150.26V168.24C153.205 172.888 150.878 177.351 147.194 180.065L146.579 180.518L147.24 180.901L151.049 183.106L151.052 183.108L159.781 188.067C160.052 188.431 160.261 188.73 160.406 188.999C160.56 189.285 160.622 189.502 160.622 189.689C160.622 190.046 160.384 190.501 159.695 190.845Z" fill="white" stroke="#262626"/>
<mask id="path-2-inside-1_1942_2374" fill="white">
<path d="M153.305 163.429C150.9 161.625 148.294 160.222 145.688 158.818C144.886 158.418 143.884 158.017 143.082 158.217C142.08 158.418 141.278 159.42 140.677 160.222C139.474 162.026 138.472 163.83 137.269 165.634C136.066 167.438 134.462 168.841 132.658 169.844C130.654 170.645 128.248 170.645 126.645 169.242C129.852 166.837 131.856 163.028 132.658 159.219C133.46 155.21 133.46 150.6 133.26 146.591C134.262 147.192 138.672 150.399 141.478 151.602C144.686 153.005 147.893 155.01 150.9 156.814C151.702 157.215 152.504 157.816 152.905 158.618C153.706 160.021 153.306 161.625 152.905 163.229"/>
</mask>
<path d="M153.305 163.429C150.9 161.625 148.294 160.222 145.688 158.818C144.886 158.418 143.884 158.017 143.082 158.217C142.08 158.418 141.278 159.42 140.677 160.222C139.474 162.026 138.472 163.83 137.269 165.634C136.066 167.438 134.462 168.841 132.658 169.844C130.654 170.645 128.248 170.645 126.645 169.242C129.852 166.837 131.856 163.028 132.658 159.219C133.46 155.21 133.46 150.6 133.26 146.591C134.262 147.192 138.672 150.399 141.478 151.602C144.686 153.005 147.893 155.01 150.9 156.814C151.702 157.215 152.504 157.816 152.905 158.618C153.706 160.021 153.306 161.625 152.905 163.229" fill="#ADADAD"/>
<path d="M145.688 158.818L146.162 157.938L146.149 157.931L146.135 157.924L145.688 158.818ZM143.082 158.217L143.278 159.198L143.302 159.193L143.325 159.187L143.082 158.217ZM140.677 160.222L139.877 159.622L139.86 159.644L139.845 159.667L140.677 160.222ZM132.658 169.844L133.03 170.772L133.089 170.749L133.144 170.718L132.658 169.844ZM126.645 169.242L126.045 168.442L125.058 169.182L125.986 169.995L126.645 169.242ZM132.658 159.219L133.637 159.425L133.639 159.415L132.658 159.219ZM133.26 146.591L133.774 145.733L132.167 144.769L132.261 146.64L133.26 146.591ZM141.478 151.602L141.879 150.686L141.872 150.683L141.478 151.602ZM150.9 156.814L150.386 157.671L150.418 157.691L150.453 157.708L150.9 156.814ZM152.905 158.618L152.01 159.065L152.023 159.09L152.036 159.114L152.905 158.618ZM153.905 162.629C151.43 160.773 148.758 159.336 146.162 157.938L145.214 159.699C147.83 161.108 150.37 162.477 152.705 164.229L153.905 162.629ZM146.135 157.924C145.711 157.712 145.194 157.479 144.653 157.329C144.121 157.181 143.478 157.087 142.84 157.247L143.325 159.187C143.488 159.146 143.747 159.153 144.117 159.256C144.478 159.356 144.863 159.524 145.241 159.713L146.135 157.924ZM142.886 157.236C142.126 157.389 141.511 157.827 141.045 158.264C140.575 158.705 140.179 159.218 139.877 159.622L141.477 160.822C141.775 160.423 142.081 160.034 142.413 159.723C142.749 159.409 143.036 159.246 143.278 159.198L142.886 157.236ZM139.845 159.667C139.23 160.588 138.669 161.507 138.119 162.406C137.567 163.311 137.025 164.196 136.437 165.079L138.101 166.189C138.715 165.268 139.276 164.349 139.826 163.449C140.379 162.545 140.92 161.659 141.509 160.776L139.845 159.667ZM136.437 165.079C135.33 166.739 133.85 168.038 132.173 168.969L133.144 170.718C135.075 169.645 136.802 168.137 138.101 166.189L136.437 165.079ZM132.287 168.915C130.478 169.639 128.518 169.553 127.303 168.49L125.986 169.995C127.978 171.738 130.829 171.652 133.03 170.772L132.287 168.915ZM127.245 170.042C130.691 167.457 132.798 163.41 133.637 159.425L131.68 159.013C130.915 162.647 129.013 166.216 126.045 168.442L127.245 170.042ZM133.639 159.415C134.466 155.282 134.46 150.572 134.258 146.541L132.261 146.64C132.46 150.627 132.455 155.138 131.678 159.023L133.639 159.415ZM132.745 147.448C133.235 147.742 134.501 148.638 136.147 149.709C137.725 150.736 139.594 151.882 141.085 152.521L141.872 150.683C140.557 150.119 138.817 149.06 137.238 148.033C135.727 147.049 134.287 146.041 133.774 145.733L132.745 147.448ZM141.078 152.518C144.211 153.889 147.35 155.85 150.386 157.671L151.415 155.956C148.436 154.169 145.161 152.121 141.879 150.686L141.078 152.518ZM150.453 157.708C151.169 158.066 151.749 158.542 152.01 159.065L153.799 158.171C153.259 157.09 152.235 156.363 151.347 155.919L150.453 157.708ZM152.036 159.114C152.603 160.107 152.36 161.283 151.934 162.986L153.875 163.471C154.251 161.966 154.809 159.936 153.773 158.122L152.036 159.114Z" fill="#262626" mask="url(#path-2-inside-1_1942_2374)"/>
<path d="M157.721 150.199V168.44C157.721 174.053 155.315 179.265 151.106 182.873L147.297 180.668C151.106 177.862 153.511 173.251 153.511 168.44V150.199H157.721Z" fill="#262626" stroke="#262626" stroke-width="0.75" stroke-miterlimit="10" stroke-linecap="round" stroke-linejoin="round"/>
<path d="M161.122 189.689C161.122 190.29 160.721 190.892 159.919 191.293L159.718 191.493L159.117 191.894L154.506 194.5C152.903 195.502 150.297 195.502 148.693 194.5L140.274 189.689L138.269 188.486L118.023 176.86L107.198 170.645L105.595 169.643L105.394 169.443C104.592 169.042 104.191 168.44 104.191 167.839V167.639C104.191 167.037 104.592 166.436 105.394 166.035L110.807 162.828C112.41 162.026 115.016 162.026 116.62 162.828L126.843 168.641C131.053 165.033 133.458 159.62 133.458 154.208V135.966L153.705 149.998V168.24C153.705 173.051 151.299 177.661 147.49 180.468L151.299 182.673L160.119 187.684C160.721 188.486 161.122 189.088 161.122 189.689Z" stroke="#262626" stroke-width="0.75" stroke-miterlimit="10" stroke-linecap="round" stroke-linejoin="round"/>
<path d="M208.834 169.442V185.279C208.834 186.682 208.433 187.484 207.632 188.085C207.431 188.085 207.431 188.285 207.231 188.285C206.429 188.686 205.427 188.486 204.224 187.885L83.3476 118.125C80.9421 116.722 78.9375 113.314 78.9375 110.508V94.6716L88.3591 100.084L208.834 169.442Z" fill="white" stroke="#262626" stroke-width="0.75" stroke-miterlimit="10" stroke-linecap="round" stroke-linejoin="round"/>
<path d="M208.833 83.6467V169.443L88.5583 100.084L79.1367 94.6718V8.67535C79.1367 7.07169 79.7382 6.0694 80.7405 5.66848C81.5423 5.26757 82.5445 5.46802 83.5468 6.06939L88.5583 9.07626L89.3602 9.47717L159.32 49.9697L167.138 54.5802L204.223 76.0293C207.029 77.4325 208.833 80.8402 208.833 83.6467Z" fill="#ADADAD" stroke="#262626" stroke-width="0.75" stroke-miterlimit="10" stroke-linecap="round" stroke-linejoin="round"/>
<path d="M218.459 163.83V179.666C218.459 181.069 218.058 182.071 217.256 182.472L208.035 187.885C208.637 187.484 209.238 186.481 209.238 185.078V169.443L218.459 163.83Z" fill="#262626" stroke="#262626" stroke-width="0.75" stroke-miterlimit="10" stroke-linecap="round" stroke-linejoin="round"/>
<path d="M217.253 74.0246L207.631 79.437C206.829 78.0338 205.626 76.6306 204.424 76.0292L167.339 54.5802L159.521 49.9697L89.5611 9.47714L88.7593 9.07623L83.7479 6.06936C82.7456 5.46799 81.7432 5.26754 80.9414 5.66845L89.962 0.456533C90.7638 0.0556166 91.9665 0.0556288 93.1693 0.657003L168.943 44.3568L176.76 48.9674L213.845 70.4164C215.248 71.2182 216.451 72.6214 217.253 74.0246Z" fill="white" stroke="#262626" stroke-width="0.75" stroke-miterlimit="10" stroke-linecap="round" stroke-linejoin="round"/>
<path d="M218.452 78.2343V164.03L209.031 169.443V83.6467C209.031 82.2435 208.63 80.8403 207.828 79.437L217.45 74.0247C218.051 75.4279 218.452 76.8311 218.452 78.2343Z" fill="#262626" stroke="#262626" stroke-width="0.75" stroke-miterlimit="10" stroke-linecap="round" stroke-linejoin="round"/>
<path d="M161.123 189.689V194.5C161.123 195.101 160.722 195.703 159.92 196.104L154.508 199.311C152.904 200.113 150.298 200.113 148.694 199.311L105.195 174.254C104.393 173.853 103.992 173.051 103.992 172.45V167.839C103.992 168.44 104.393 169.042 105.195 169.443L105.395 169.643L106.999 170.645L117.824 176.86L138.07 188.486L140.075 189.689L148.494 194.5C150.098 195.502 152.703 195.502 154.307 194.5L158.918 191.894L159.519 191.493L159.719 191.293C160.722 190.892 161.123 190.29 161.123 189.689Z" fill="#262626" stroke="#262626" stroke-width="0.75" stroke-miterlimit="10" stroke-linecap="round" stroke-linejoin="round"/>
<path d="M172.154 226.573C172.154 227.776 171.352 228.979 169.748 229.781L169.147 230.181L167.944 230.783L145.092 244.013C142.085 245.817 136.873 245.817 133.866 244.013L37.045 188.085L33.8377 186.281L33.2364 185.88C31.8332 185.078 31.0312 183.876 31.0312 182.873V182.472C31.0312 181.27 31.8331 180.267 33.4368 179.466L58.0931 165.233C61.1 163.429 66.3119 163.429 69.3188 165.233L169.949 223.366C171.352 224.168 172.154 225.37 172.154 226.573Z" fill="white" stroke="#262626" stroke-width="0.75" stroke-miterlimit="10" stroke-linecap="round" stroke-linejoin="round"/>
<path d="M133.269 209.133C133.269 210.136 132.668 210.938 131.665 211.539L131.264 211.739L130.463 212.341L113.624 222.163C111.419 223.366 107.61 223.366 105.405 222.163L91.1727 213.944C90.5713 213.544 90.5713 212.541 91.1727 212.14L92.9769 211.138H93.1773C93.3777 210.938 93.5782 210.737 93.5782 210.537C93.5782 210.336 93.3777 210.136 93.1773 210.136L61.104 191.493C60.7031 191.293 59.9013 191.293 59.2999 191.493L57.6963 192.495C56.4935 193.297 54.8899 193.297 53.6871 192.495L44.2656 187.083L41.86 185.68L41.4591 185.479C40.4568 184.878 39.8555 184.076 39.8555 183.274V183.074C39.8555 182.272 40.4568 181.47 41.4591 180.869L59.5003 170.445C61.7054 169.242 65.5141 169.242 67.7192 170.445L131.665 207.329C132.668 207.329 133.269 208.131 133.269 209.133Z" fill="#ADADAD" stroke="#262626" stroke-width="0.75" stroke-miterlimit="10" stroke-linecap="round" stroke-linejoin="round"/>
<path d="M162.934 226.373C162.934 227.375 162.332 228.177 161.33 228.778L160.929 228.979L160.127 229.58L143.289 239.402C141.084 240.605 137.275 240.605 135.07 239.402L121.84 231.785L119.434 230.382L119.033 230.181C118.031 229.58 117.43 228.778 117.43 227.976V227.575C117.43 226.774 118.031 225.972 119.033 225.37L137.075 214.947C139.28 213.744 143.088 213.744 145.293 214.947L161.13 224.168C162.332 224.569 162.934 225.571 162.934 226.373Z" fill="#ADADAD" stroke="#262626" stroke-width="0.75" stroke-miterlimit="10" stroke-linecap="round" stroke-linejoin="round"/>
<path d="M172.153 226.573V231.384C172.153 232.587 171.351 233.79 169.747 234.591L145.091 248.824C142.084 250.628 136.872 250.628 133.865 248.824L33.2354 190.691C31.6317 189.689 30.8298 188.486 31.0303 187.283V182.873C31.0303 183.876 31.8322 185.078 33.2354 185.88L33.8367 186.281L37.044 188.085L133.865 244.013C136.872 245.817 142.084 245.817 145.091 244.013L167.943 230.783L169.146 230.181L169.747 229.78C171.351 228.979 172.153 227.776 172.153 226.573Z" fill="#262626" stroke="#262626" stroke-width="0.75" stroke-miterlimit="10" stroke-linecap="round" stroke-linejoin="round"/>
<path d="M86.5531 93.0683L200.614 159.019C201.816 159.821 203.42 158.818 203.42 157.415V97.2779L85.5508 29.1222V91.4646C85.7512 92.2664 85.9517 92.8678 86.5531 93.0683Z" fill="white" stroke="#262626" stroke-width="0.75" stroke-miterlimit="10" stroke-linecap="round" stroke-linejoin="round"/>
<path d="M85.7513 29.3223L203.621 97.478V84.6487C203.621 83.8468 203.22 82.8446 202.418 82.4437L89.3595 17.0943C87.7559 16.092 85.5508 17.2948 85.5508 19.2994V29.3223H85.7513Z" fill="#262626" stroke="#262626" stroke-width="0.75" stroke-miterlimit="10" stroke-linecap="round" stroke-linejoin="round"/>
<path d="M94.371 27.1178C94.371 28.521 93.3687 29.1223 92.1659 28.3205C90.9632 27.5187 89.9609 25.915 89.9609 24.5118C89.9609 23.1086 90.9632 22.5072 92.1659 23.3091C93.3687 23.9104 94.371 25.7146 94.371 27.1178Z" fill="#E84142" stroke="#262626" stroke-width="0.75" stroke-miterlimit="10" stroke-linecap="round" stroke-linejoin="round"/>
<path d="M99.9104 32.0758C100.773 31.5776 100.755 29.9303 99.869 28.3963C98.9833 26.8623 97.5659 26.0225 96.703 26.5207C95.8402 27.0189 95.8586 28.6664 96.7443 30.2004C97.63 31.7344 99.0475 32.574 99.9104 32.0758Z" fill="#FFAD28" stroke="#262626" stroke-width="0.75" stroke-miterlimit="10" stroke-linecap="round" stroke-linejoin="round"/>
<path d="M106.805 34.3339C106.805 35.7371 105.802 36.3385 104.6 35.5367C103.397 34.7348 102.395 33.1312 102.395 31.728C102.395 30.3248 103.397 29.7234 104.6 30.5252C105.802 31.1266 106.805 32.9307 106.805 34.3339Z" fill="#ADADAD" stroke="#262626" stroke-width="0.75" stroke-miterlimit="10" stroke-linecap="round" stroke-linejoin="round"/>
<path d="M102.988 92.4664V87.2545L111.608 89.2591V85.6508H120.428L129.248 90.6623L137.868 89.4595L142.479 88.6577L146.688 91.0632V117.524" stroke="#262626" stroke-width="0.75" stroke-miterlimit="10" stroke-linecap="round" stroke-linejoin="round"/>
<path d="M111.609 85.6508V97.4779" stroke="#262626" stroke-width="0.75" stroke-miterlimit="10" stroke-linecap="round" stroke-linejoin="round"/>
<path d="M120.434 85.6508V102.489" stroke="#262626" stroke-width="0.75" stroke-miterlimit="10" stroke-linecap="round" stroke-linejoin="round"/>
<path d="M129.25 90.6625V107.501" stroke="#262626" stroke-width="0.75" stroke-miterlimit="10" stroke-linecap="round" stroke-linejoin="round"/>
<path d="M137.875 89.4599V112.312" stroke="#262626" stroke-width="0.75" stroke-miterlimit="10" stroke-linecap="round" stroke-linejoin="round"/>
<path d="M111.008 62.3981L154.708 87.8563" stroke="#262626" stroke-width="0.75" stroke-miterlimit="10" stroke-linecap="round" stroke-linejoin="round"/>
<path d="M111.008 54.7806L134.261 68.2113" stroke="#262626" stroke-width="0.75" stroke-miterlimit="10" stroke-linecap="round" stroke-linejoin="round"/>
<path d="M95.9759 53.9793L104.796 59.1912C105.598 59.5921 105.999 59.1912 105.999 58.1889V53.5783C105.999 52.576 105.398 51.5738 104.796 51.1728L95.9759 45.9609C95.1741 45.56 94.7732 45.9609 94.7732 46.9632V51.5738C94.5728 52.576 95.1741 53.5783 95.9759 53.9793Z" fill="#FFAD28" stroke="#262626" stroke-width="0.75" stroke-miterlimit="10" stroke-linecap="round" stroke-linejoin="round"/>
<path d="M95.9759 69.6143L104.796 74.8262C105.598 75.2271 105.999 74.8262 105.999 73.8239V69.2134C105.999 68.2111 105.398 67.2088 104.796 66.8079L95.9759 61.596C95.1741 61.1951 94.7732 61.596 94.7732 62.5983V67.2088C94.5728 68.0106 95.1741 69.2134 95.9759 69.6143Z" fill="#E84142" stroke="#262626" stroke-width="0.75" stroke-miterlimit="10" stroke-linecap="round" stroke-linejoin="round"/>
<path d="M102.993 87.2548L94.5742 82.4438V87.6557" stroke="#262626" stroke-width="0.75" stroke-miterlimit="10" stroke-linecap="round" stroke-linejoin="round"/>
<path d="M146.688 91.0635L154.706 95.674V122.335" stroke="#262626" stroke-width="0.75" stroke-miterlimit="10" stroke-linecap="round" stroke-linejoin="round"/>
<path d="M94.5742 87.6557L154.712 122.335" stroke="#262626" stroke-width="0.75" stroke-miterlimit="10" stroke-linecap="round" stroke-linejoin="round"/>
<path d="M164.508 121.28C158.927 108.617 160.916 95.4865 168.932 91.9756C176.948 88.4444 187.988 95.872 193.569 108.535C199.15 121.199 197.181 134.329 189.145 137.86C181.129 141.351 170.089 133.944 164.508 121.28Z" fill="#E84142" stroke="#151515" stroke-width="0.5" stroke-miterlimit="10"/>
<path d="M183.626 112.899V114.421L178.877 111.661L178.837 122.883L177.518 122.112L177.558 110.91L172.789 108.15L172.809 106.648L183.626 112.899Z" fill="white" stroke="black" stroke-width="0.5" stroke-miterlimit="10"/>
<path d="M178.165 125.44C173.031 122.477 168.871 115.273 168.891 109.367C168.911 103.462 173.092 101.087 178.226 104.05C183.361 107.013 187.521 114.218 187.5 120.123C187.5 126.008 183.3 128.403 178.165 125.44ZM178.246 102.366C172.3 98.9363 167.45 101.696 167.43 108.515C167.409 115.334 172.219 123.675 178.165 127.104C184.111 130.534 188.941 127.774 188.962 120.955C188.982 114.136 184.172 105.796 178.246 102.366Z" fill="white" stroke="black" stroke-width="0.5" stroke-miterlimit="10"/>
</g>
<defs>
<clipPath id="clip0_1942_2374">
<rect width="250" height="250" fill="white" transform="translate(0 0.177124)"/>
</clipPath>
</defs>
</svg>
