<svg width="250" height="250" viewBox="0 0 250 250" fill="none" xmlns="http://www.w3.org/2000/svg">
<g clip-path="url(#clip0_1807_11523)">
<g filter="url(#filter0_d_1807_11523)">
<path d="M145.146 139.014L118.262 175.426C93.5754 161.02 73.5307 126.207 73.5307 97.6665C73.5307 69.1255 93.5754 57.4585 118.262 71.5583L145.146 139.014Z" fill="#FFD400" stroke="black"/>
<path d="M163.477 149.6C163.477 178.069 143.533 189.749 118.933 175.815L118.933 71.9505C143.533 86.4229 163.477 121.131 163.477 149.6Z" fill="#FDBF00" stroke="black"/>
<path d="M116.591 147.495L116.59 147.494L100.597 127.708L100.596 127.707C99.395 126.222 98.6557 124.322 98.6557 122.727L98.6557 101.622C98.6557 100.027 99.395 98.9805 100.596 98.8827L100.597 98.8826L116.59 97.5635L116.591 97.5635C117.098 97.5201 117.658 97.6512 118.224 97.9314L128.164 129.211L118.224 149.013C117.658 148.639 117.098 148.125 116.591 147.495Z" fill="#FDBF00" stroke="black"/>
<path d="M136.404 148.382L136.403 148.382L120.41 149.701L120.409 149.701C119.949 149.74 119.446 149.636 118.933 149.407L118.933 98.3585C119.446 98.7214 119.949 99.1981 120.409 99.7693L120.41 99.7702L136.403 119.557L136.404 119.557C137.605 121.042 138.344 122.942 138.344 124.537L138.344 145.643C138.344 147.238 137.605 148.284 136.404 148.382Z" fill="#FF9F00" stroke="black"/>
<path d="M74.1324 143.687L74.1327 143.687C74.7513 142.443 76.1272 142.206 77.647 143.083L118.348 166.582L132.763 190.065L118.351 196.583C101.738 186.937 85.865 169.547 74.777 148.838C73.7651 146.946 73.5113 144.929 74.1324 143.687Z" fill="#979FEF" stroke="black"/>
<path d="M118.933 196.923L159.911 220.582L160.344 220.832L160.344 221.332L160.344 227.268C160.344 228.979 161.194 231.028 162.529 232.537C163.061 233.138 163.629 233.611 164.195 233.938C165.056 234.435 165.908 234.595 166.606 234.352L189.739 226.272C189.739 226.272 189.739 226.272 189.739 226.272C190.653 225.952 191.185 224.975 191.179 223.617C191.174 222.263 190.635 220.67 189.716 219.301C189.716 219.301 189.716 219.301 189.716 219.301L166.583 184.84C165.425 183.115 163.846 182.003 162.517 181.979L118.933 196.923ZM118.933 196.923L118.933 166.924L159.911 190.583L160.344 190.833L160.344 190.333L160.344 184.727C160.344 183.023 161.189 181.957 162.516 181.979L118.933 196.923Z" fill="#5A69E6" stroke="black"/>
<path d="M70.1261 12.369C71.4113 11.9205 73.1734 12.7037 74.6614 14.3872M70.1261 12.369L46.9929 20.4486M70.1261 12.369L70.3971 12.9154M70.1261 12.369L70.3971 12.9155M74.6614 14.3872L77.0918 62.7903C77.0918 64.6865 76.1522 65.8721 74.6756 65.8474C74.0816 65.8375 73.4447 65.6314 72.8078 65.2637C71.8625 64.7179 70.9229 63.8126 70.1518 62.665M74.6614 14.3872C76.1465 16.0655 77.0918 18.3462 77.0918 20.249L77.0918 25.685L77.0918 26.185L77.5248 26.435M74.6614 14.3872L77.5248 26.435M46.9929 20.4486C45.9761 20.8047 45.385 21.8913 45.3907 23.4017C45.3964 24.9088 45.9961 26.6797 47.0186 28.2033M46.9929 20.4486L47.2641 20.9949L70.3971 12.9155M46.9929 20.4486L47.2639 20.995C46.3498 21.3153 45.8185 22.2923 45.8237 23.6495C45.8288 25.0043 46.3682 26.5967 47.2871 27.9661M47.0186 28.2033L70.1518 62.665M47.0186 28.2033L47.287 27.9659L47.2871 27.9661M47.0186 28.2033L47.2871 27.9661M70.1518 62.665L70.42 62.4273M70.1518 62.665L70.4203 62.4277M70.42 62.4273L131.705 73.5678L131.397 73.038M70.42 62.4273L47.2871 27.9661M70.42 62.4273L70.4203 62.4277M70.4203 62.4277C71.1136 63.4595 71.9583 64.2732 72.8078 64.7637C73.3809 65.0945 73.9529 65.2795 74.4865 65.2884H74.4865C75.8143 65.3106 76.6588 64.2446 76.6588 62.5403L76.6588 56.9341L76.6588 56.4341L77.0918 56.6841L118.325 80.4899M70.4203 62.4277L77.5248 26.435M118.325 80.4899L118.198 80.5621L118.503 81.093L118.503 80.593L118.325 80.4899ZM118.325 80.4899L131.397 73.038M131.397 73.038L131.705 72.8629L118.503 50.0939M131.397 73.038L118.325 50.4908M118.325 50.4908L118.503 50.5939L118.503 50.0939M118.325 50.4908L118.198 50.2724L118.503 50.0939M118.325 50.4908L77.0918 26.685L76.6588 26.435L76.6588 25.935L76.6588 19.999C76.6588 18.2884 75.8089 16.2383 74.4744 14.7303L74.474 14.7299C73.1362 13.2162 71.5523 12.5123 70.3971 12.9154M118.503 50.0939L77.5248 26.435M70.3971 12.9154C70.3971 12.9154 70.3971 12.9155 70.3971 12.9155M70.3971 12.9154L70.3971 12.9155" fill="#00EC89" stroke="black"/>
<path d="M162.883 103.583L162.883 103.584C162.264 104.827 160.889 105.065 159.369 104.187L118.933 80.8415L118.933 50.8443C135.448 60.5206 151.211 77.8355 162.239 98.4332C163.251 100.325 163.504 102.342 162.883 103.583Z" fill="#00CBB1" stroke="black"/>
</g>
</g>
<defs>
<filter id="filter0_d_1807_11523" x="45.3906" y="10.2445" width="150.223" height="224.778" filterUnits="userSpaceOnUse" color-interpolation-filters="sRGB">
<feFlood flood-opacity="0" result="BackgroundImageFix"/>
<feColorMatrix in="SourceAlpha" type="matrix" values="0 0 0 0 0 0 0 0 0 0 0 0 0 0 0 0 0 0 127 0" result="hardAlpha"/>
<feOffset dx="4" dy="-2"/>
<feComposite in2="hardAlpha" operator="out"/>
<feColorMatrix type="matrix" values="0 0 0 0 0 0 0 0 0 0 0 0 0 0 0 0 0 0 1 0"/>
<feBlend mode="normal" in2="BackgroundImageFix" result="effect1_dropShadow_1807_11523"/>
<feBlend mode="normal" in="SourceGraphic" in2="effect1_dropShadow_1807_11523" result="shape"/>
</filter>
<clipPath id="clip0_1807_11523">
<rect width="250" height="250" fill="white"/>
</clipPath>
</defs>
</svg>
