<svg width="250" height="250" viewBox="0 0 250 250" fill="none" xmlns="http://www.w3.org/2000/svg">
<path d="M182 192L129.5 59L68 144.5L182 192Z" stroke="black" stroke-width="5"/>
<path d="M98.5742 14.6823L107.058 9.74829C114.714 5.60903 125.026 6.07922 136.271 12.1656C159.319 24.6496 177.585 56.0352 177.048 82.2417C176.796 95.0701 172.081 104.269 164.644 108.879C164.478 108.991 164.306 109.091 164.14 109.19L155.723 114.091C157.139 113.265 158.456 112.281 159.65 111.157C160.919 109.963 162.05 108.63 163.021 107.183C166.438 102.176 168.478 95.3947 168.637 87.1095C169.174 60.903 150.908 29.4909 127.854 17.04C120.43 13.0266 113.423 11.4371 107.323 12.053C105.704 12.1889 104.105 12.502 102.555 12.9868C101.174 13.4168 99.8407 13.9848 98.5742 14.6823Z" fill="#231F20" stroke="#231F20" stroke-width="0.75" stroke-linecap="round" stroke-linejoin="round"/>
<path d="M98.0513 14.9868L98.5745 14.6821C99.8399 13.9942 101.171 13.4351 102.548 13.0132C104.099 12.5284 105.698 12.2152 107.317 12.0793C113.436 11.4634 120.443 13.0529 127.847 17.0664C150.901 29.5438 169.167 60.9293 168.631 87.1358C168.472 95.421 166.432 102.203 163.015 107.21C162.044 108.656 160.913 109.989 159.644 111.183C158.45 112.307 157.133 113.292 155.716 114.117C148.001 118.607 137.451 118.27 125.914 112.018C102.859 99.5404 84.5937 68.1548 85.1368 41.9483C85.3951 28.8417 90.3291 19.5102 98.0447 15.0199L98.0513 14.9868Z" fill="white" stroke="#231F20" stroke-width="0.75" stroke-linecap="round" stroke-linejoin="round"/>
<path d="M151.945 107.538C165.668 99.5509 165.578 73.8072 151.744 50.0378C137.91 26.2684 115.571 13.4742 101.848 21.4612C88.1247 29.4481 88.2148 55.1918 102.049 78.9612C115.883 102.731 138.222 115.525 151.945 107.538Z" fill="white" stroke="#231F20" stroke-width="0.75" stroke-linecap="round" stroke-linejoin="round"/>
<path d="M107 32.0004L146.023 54.5303L145.581 59.7609L107.575 37.7158L107 32.0004Z" fill="#7A18D5"/>
<path d="M114.249 65.3754L126.999 84.3715L127.495 88.0167L126.999 90.9289L110.537 66.3705L114.249 65.3754Z" fill="#7A18D5"/>
<path d="M114.026 62.4648L114.269 65.4628L112.821 66.6209L110.535 66.3686L109.452 55.8435L114.026 62.4648Z" fill="#7A18D5"/>
<path d="M139.418 80.0589L126.999 84.371L126.756 87.4711L126.999 90.9284L143.218 85.1109L142.24 79.589L139.418 80.0589Z" fill="#7A18D5"/>
<path d="M120.213 63.2822L136.145 72.4805L134.576 76.346L119.086 67.4029L120.213 63.2822Z" fill="#7A18D5"/>
<path d="M107.566 37.5366L112.241 39.8473L113.102 52.9238L109.103 52.809L107.566 37.5366Z" fill="#7A18D5"/>
<path d="M109.098 52.8077L113.053 52.7695L120.544 63.5241L119.084 67.4014L109.098 52.8077Z" fill="#7A18D5"/>
<path d="M109.098 52.8077L113.053 52.7695L120.544 63.5241L119.084 67.4014L109.098 52.8077Z" fill="#7A18D5"/>
<path d="M141.558 56.8339L145.624 59.2243L144.52 71.6247L140.763 65.8328L141.558 56.8339Z" fill="#7A18D5"/>
<rect width="18.524" height="4.79686" transform="matrix(0.866025 0.5 -2.20305e-08 1 119.023 50.2194)" fill="#7A18D5"/>
<path d="M135.066 59.4827L144.211 73.4887L140.698 74.318L132.353 61.7946L135.066 59.4827Z" fill="#7A18D5"/>
<path d="M144.211 73.4885L143.217 85.1107L139.416 80.0587L140.003 70.8038L144.211 73.4885Z" fill="#7A18D5"/>
<path d="M113.805 52.1829L119.02 50.2183L121.826 54.9769L117.097 56.7628L113.805 52.1829Z" fill="#7A18D5"/>
<path d="M133.297 70.8092L136.346 69.6866L138.954 74.0242L134.578 76.346L133.297 70.8092Z" fill="#7A18D5"/>
<path d="M40.5742 95.6828L49.0581 90.7488C56.714 86.6095 67.0258 87.0797 78.2713 93.1661C101.319 105.65 119.585 137.036 119.048 163.242C118.796 176.071 114.081 185.27 106.644 189.879C106.478 189.992 106.306 190.091 106.14 190.191L97.7226 195.091C99.1388 194.266 100.456 193.281 101.65 192.157C102.919 190.964 104.05 189.631 105.021 188.184C108.438 183.177 110.478 176.395 110.637 168.11C111.174 141.903 92.9078 110.491 69.8537 98.0405C62.4295 94.027 55.4226 92.4376 49.3229 93.0535C47.7041 93.1894 46.1051 93.5025 44.5545 93.9873C43.1742 94.4173 41.8407 94.9853 40.5742 95.6828Z" fill="#231F20" stroke="#231F20" stroke-width="0.75" stroke-linecap="round" stroke-linejoin="round"/>
<path d="M40.0513 95.9873L40.5745 95.6826C41.8399 94.9947 43.1712 94.4356 44.5482 94.0137C46.0988 93.5289 47.6978 93.2157 49.3167 93.0798C55.4362 92.4639 62.4431 94.0534 69.8474 98.0668C92.9015 110.544 111.167 141.93 110.631 168.136C110.472 176.421 108.432 183.203 105.015 188.21C104.044 189.657 102.913 190.99 101.644 192.184C100.45 193.308 99.1325 194.292 97.7163 195.118C90.0007 199.608 79.4505 199.27 67.9135 193.018C44.8595 180.541 26.5937 149.155 27.1368 122.949C27.3951 109.842 32.3291 100.511 40.0447 96.0204L40.0513 95.9873Z" fill="white" stroke="#231F20" stroke-width="0.75" stroke-linecap="round" stroke-linejoin="round"/>
<path d="M93.9455 188.538C107.668 180.551 107.578 154.808 93.7442 131.038C79.91 107.269 57.5706 94.4747 43.8476 102.462C30.1247 110.449 30.2148 136.192 44.0489 159.962C57.883 183.731 80.2225 196.525 93.9455 188.538Z" fill="white" stroke="#231F20" stroke-width="0.75" stroke-linecap="round" stroke-linejoin="round"/>
<path d="M79.231 150.215C81.5141 150.185 82.9672 148.603 82.6299 144.36C82.1886 138.564 78.3102 134.435 73.1736 130.906L73.1736 123.24L69.1779 120.898L69.1779 128.351C68.1398 127.742 67.0766 127.15 66.0121 126.555L66.0121 119.042L62.0164 116.699L62.0164 124.365C60.5475 123.557 58.8362 122.527 54 119.666L54 124.655C57.1539 126.439 58.8099 127.172 59.1893 129.765L59.1893 150.755C58.9482 152.495 57.6637 151.472 54.8049 149.737L54.0013 154.833C61.2866 159.104 62.0191 159.564 62.0191 159.564L62.0191 166.129L66.0148 168.471L66.0148 161.998C67.1043 162.667 68.1674 163.291 69.1805 163.884L69.1805 170.329L73.1762 172.671L73.1762 166.106C79.87 169.604 84.3452 170.251 84.942 163.208C85.4084 157.55 83.0225 153.504 79.2337 150.218L79.231 150.215ZM66.0899 132.078C68.3466 133.401 75.4039 136.716 75.4039 142.223C75.4039 147.485 68.3466 142.739 66.0899 141.416L66.0899 132.078ZM66.0899 156.382L66.0899 146.1C68.7879 147.681 77.0507 151.643 77.0507 157.666C77.0507 163.477 68.7879 157.962 66.0899 156.381L66.0899 156.382Z" fill="#EFA143"/>
<path d="M151.574 135.683L160.058 130.749C167.714 126.61 178.026 127.08 189.271 133.166C212.319 145.65 230.585 177.036 230.048 203.242C229.796 216.071 225.081 225.27 217.644 229.879C217.478 229.992 217.306 230.091 217.14 230.191L208.723 235.091C210.139 234.266 211.456 233.281 212.65 232.157C213.919 230.964 215.05 229.631 216.021 228.184C219.438 223.177 221.478 216.395 221.637 208.11C222.174 181.903 203.908 150.491 180.854 138.04C173.43 134.027 166.423 132.438 160.323 133.054C158.704 133.189 157.105 133.503 155.555 133.987C154.174 134.417 152.841 134.985 151.574 135.683Z" fill="#231F20" stroke="#231F20" stroke-width="0.75" stroke-linecap="round" stroke-linejoin="round"/>
<path d="M151.051 135.987L151.575 135.683C152.84 134.995 154.171 134.436 155.548 134.014C157.099 133.529 158.698 133.216 160.317 133.08C166.436 132.464 173.443 134.053 180.847 138.067C203.901 150.544 222.167 181.93 221.631 208.136C221.472 216.421 219.432 223.203 216.015 228.21C215.044 229.657 213.913 230.99 212.644 232.184C211.45 233.308 210.133 234.292 208.716 235.118C201.001 239.608 190.451 239.27 178.914 233.018C155.859 220.541 137.594 189.155 138.137 162.949C138.395 149.842 143.329 140.511 151.045 136.02L151.051 135.987Z" fill="white" stroke="#231F20" stroke-width="0.75" stroke-linecap="round" stroke-linejoin="round"/>
<path d="M204.945 228.538C218.668 220.551 218.578 194.808 204.744 171.038C190.91 147.269 168.571 134.475 154.848 142.462C141.125 150.449 141.215 176.192 155.049 199.962C168.883 223.731 191.222 236.525 204.945 228.538Z" fill="white" stroke="#231F20" stroke-width="0.75" stroke-linecap="round" stroke-linejoin="round"/>
<path d="M178.148 214.77L178.148 155.591L182.549 158.132L182.549 217.31L178.148 214.77ZM179.812 208.805C176.878 207.111 174.07 205.007 171.386 202.492C168.703 199.936 166.574 197.427 165 194.965L167.415 190.001C168.918 192.253 170.778 194.482 172.996 196.686C175.215 198.89 177.487 200.663 179.812 202.006C181.78 203.142 183.372 203.809 184.589 204.008C185.805 204.207 186.699 204.052 187.272 203.543C187.844 202.992 188.131 202.171 188.131 201.08C188.131 199.736 187.719 198.429 186.896 197.156C186.073 195.842 185 194.571 183.676 193.345C182.388 192.098 180.939 190.8 179.329 189.451C177.755 188.122 176.163 186.72 174.553 185.245C172.979 183.749 171.53 182.177 170.206 180.532C168.918 178.865 167.862 177.038 167.039 175.052C166.216 173.066 165.805 170.898 165.805 168.548C165.805 166.155 166.342 164.283 167.415 162.93C168.524 161.556 170.188 160.921 172.406 161.027C174.66 161.111 177.504 162.145 180.939 164.128C183.193 165.429 185.429 167.056 187.648 169.008C189.866 170.96 191.798 173.041 193.444 175.25L191.243 180.338C189.562 178.192 187.826 176.33 186.038 174.752C184.249 173.131 182.531 171.846 180.886 170.896C178.953 169.78 177.379 169.144 176.163 168.988C174.982 168.852 174.106 169.059 173.533 169.61C172.996 170.181 172.728 171.034 172.728 172.167C172.728 173.51 173.122 174.828 173.909 176.122C174.732 177.395 175.787 178.634 177.075 179.839C178.399 181.065 179.866 182.374 181.476 183.765C183.086 185.114 184.678 186.516 186.252 187.971C187.862 189.446 189.311 190.996 190.599 192.621C191.923 194.266 192.979 196.072 193.766 198.037C194.589 200.023 195 202.171 195 204.479C195 206.829 194.445 208.692 193.336 210.066C192.263 211.419 190.599 212.053 188.345 211.969C186.091 211.843 183.247 210.788 179.812 208.805Z" fill="#4BBC24"/>
</svg>
