<svg width="250" height="250" viewBox="0 0 250 250" fill="none" xmlns="http://www.w3.org/2000/svg">
<path d="M97.8984 15.3611C100.733 16.0697 103.709 16.9201 106.543 17.9121C103.709 16.9201 100.733 16.0697 97.8984 15.3611Z" fill="white" stroke="#262626" stroke-width="0.75" stroke-miterlimit="10" stroke-linecap="round" stroke-linejoin="round"/>
<path d="M200.925 85.0865L185.477 94.0148L152.882 64.8209C141.403 54.4755 129.499 45.8307 117.736 39.0282C110.367 34.7767 102.997 31.2338 95.6281 28.3994C94.211 27.8325 92.6521 27.2657 91.2349 26.8405C88.2588 25.8485 85.4245 24.9982 82.5902 24.2896L75.079 22.3055L65.584 19.8963L50.1367 15.9282L65.584 7L98.1791 15.3613C101.013 16.0699 103.99 16.9203 106.824 17.9123C108.241 18.3374 109.8 18.9043 111.217 19.4712C118.586 22.3055 125.956 25.8485 133.325 30.1C145.088 36.9025 156.992 45.5473 168.471 55.8927L200.925 85.0865Z" fill="white" stroke="#262626" stroke-width="0.75" stroke-miterlimit="10" stroke-linecap="round" stroke-linejoin="round"/>
<path d="M200.93 85.0866V183.722C200.93 195.343 197.529 204.838 191.152 209.94C188.742 211.782 186.191 213.483 183.499 215.042L169.469 223.12C171.595 221.844 173.437 220.569 175.421 219.01L175.563 218.868C179.531 215.609 182.365 210.79 183.924 204.838C184.916 201.154 185.341 197.044 185.341 192.651V94.0149L200.93 85.0866Z" fill="#D0D2D3" stroke="#262626" stroke-width="0.75" stroke-miterlimit="10" stroke-linecap="round" stroke-linejoin="round"/>
<path d="M136.723 117.823L145.084 132.278L111.214 151.694L90.0977 115.13L98.459 110.312L111.214 132.562L136.723 117.823Z" fill="white" stroke="#262626" stroke-width="0.75" stroke-miterlimit="10" stroke-linecap="round" stroke-linejoin="round"/>
<path d="M152.745 64.8207C141.266 54.4753 129.362 45.8304 117.599 39.028C110.23 34.7764 102.861 31.2335 95.4914 28.3992C94.0742 27.8323 92.5154 27.2654 91.0982 26.8403C88.1221 25.8482 85.2877 24.998 82.4533 24.2894L74.9423 22.3053L65.4472 19.8961L50 15.928V114.564C50 126.185 53.4012 139.506 59.9203 152.261C75.5092 182.447 98.6092 213.766 117.883 238C134.464 236.299 153.879 232.615 168.901 223.828L169.752 223.261C171.877 221.986 173.72 220.71 175.704 219.152L175.845 219.01C179.814 215.75 182.648 210.932 184.207 204.98C185.199 201.295 185.624 197.185 185.624 192.792V94.1563L152.745 64.8207ZM175.137 186.84C175.137 195.91 172.444 203.137 167.626 206.964C158.414 214.333 145.234 219.435 127.945 222.553C124.544 223.12 121.142 223.686 117.458 224.112C94.7828 195.059 78.3435 170.4 67.2895 148.859C62.4711 139.506 59.7785 129.302 59.7785 120.232V30.5249L65.1637 31.9421L85.0042 37.044C95.6331 39.7366 106.545 44.4133 117.458 50.6489C128.37 57.0262 139.282 64.9624 149.911 74.4575L175.137 96.9906V186.84Z" fill="white" stroke="#262626" stroke-width="0.75" stroke-miterlimit="10" stroke-linecap="round" stroke-linejoin="round"/>
<path d="M152.745 64.8201C141.266 54.4747 129.362 45.8299 117.599 39.0274C110.23 34.7759 102.861 31.233 95.4914 28.3986C94.0742 27.8318 92.5154 27.2649 91.0982 26.8397C88.1221 25.8477 85.2877 24.9974 82.4533 24.2888L74.9423 22.3047L65.4472 19.8956L50 15.9274V114.563C50 126.184 53.4012 139.505 59.9203 152.26C75.5092 182.446 98.6092 213.766 117.883 237.999C134.464 236.299 153.879 232.614 168.901 223.828L169.752 223.261C171.877 221.985 173.72 220.71 175.704 219.151L175.845 219.009C179.814 215.75 182.648 210.931 184.207 204.979C185.199 201.294 185.624 197.185 185.624 192.791V94.1557L152.745 64.8201ZM175.137 186.839C175.137 195.909 172.444 203.137 167.626 206.963C158.414 214.332 145.234 219.434 127.945 222.552C124.544 223.119 121.142 223.686 117.458 224.111C94.7828 195.059 78.3435 170.4 67.2895 148.859C62.4711 139.505 59.7785 129.302 59.7785 120.232V30.5244L65.1637 31.9416L85.0042 37.0434C95.6331 39.7361 106.545 44.4127 117.458 50.6483C128.37 57.0256 139.282 64.9618 149.911 74.4569L175.137 96.9901V186.839ZM111.222 132.561L98.3258 110.312L89.9644 115.13L111.08 151.835L144.809 132.278L136.448 117.823L111.222 132.561ZM136.731 117.823L111.222 132.561L98.3258 110.312L89.9644 115.13L111.08 151.835L144.809 132.278L136.731 117.823Z" fill="white" stroke="#262626" stroke-width="0.75" stroke-miterlimit="10" stroke-linecap="round" stroke-linejoin="round"/>
<path d="M150.054 74.5984C139.426 65.1033 128.513 57.1671 117.601 50.7898C106.689 44.4125 95.6348 39.8775 85.1476 37.1848L65.3071 32.083L59.9219 30.6658V120.373C59.9219 129.443 62.6145 139.647 67.4329 149C78.4869 170.541 94.9261 195.2 117.601 224.252C121.286 223.827 124.829 223.26 128.088 222.694C145.378 219.576 158.416 214.332 167.769 207.105C172.588 203.278 175.28 196.192 175.28 186.981V97.2732L150.054 74.5984ZM111.224 151.693L90.1078 114.988L98.4691 110.17L111.365 132.419L136.875 117.681L145.236 132.136L111.224 151.693Z" fill="#262626" stroke="#262626" stroke-width="0.75" stroke-miterlimit="10" stroke-linecap="round" stroke-linejoin="round"/>
<path d="M145.084 132.279L111.214 151.694L90.0977 115.131L98.459 110.313L111.214 132.562L136.723 117.824L145.084 132.279Z" fill="white" stroke="#262626" stroke-width="0.75" stroke-miterlimit="10" stroke-linecap="round" stroke-linejoin="round"/>
</svg>
