<svg width="250" height="250" viewBox="0 0 250 250" fill="none" xmlns="http://www.w3.org/2000/svg">
<g clip-path="url(#clip0_1938_1885)">
<path d="M8.59485 136.305L35.4697 151.93L41.7196 155.524L58.282 165.055L64.6882 168.805L83.2819 179.43L89.6881 183.18L118.907 200.055C120.626 200.992 122.813 201.617 124.844 201.617C126.719 201.617 128.594 201.305 130 200.523L163.438 181.305L169.844 177.555L217.5 150.055L223.906 146.305L236.406 139.117L241.406 136.305L235.938 133.18L217.969 122.868L211.562 119.118L169.688 94.8989L163.282 91.1489L146.719 81.6177L140.469 78.024L130.782 72.399C127.5 70.524 122.501 70.3678 119.688 71.9302L57.8134 107.711L51.407 111.461L26.7197 125.68L20.3136 129.274L8.59485 136.305Z" fill="#D0D2D3" stroke="#262626" stroke-width="0.75" stroke-miterlimit="10" stroke-linecap="round" stroke-linejoin="round"/>
<path d="M0.00114441 129.273C0.00114441 130.523 0.938568 131.773 2.6573 132.867L8.59485 136.305L35.4697 151.93L41.7196 155.523L58.282 165.055L64.6882 168.804L83.2819 179.429L89.6881 183.179L118.907 200.054C120.626 200.992 122.813 201.617 124.844 201.617C126.719 201.617 128.594 201.304 130 200.523L163.438 181.304L169.844 177.554L217.5 150.055L223.906 146.305L236.406 139.117L241.406 136.305L248.125 132.398C249.375 131.617 250 130.68 250 129.586V129.43C249.844 128.18 249.062 126.93 247.344 125.992L218.125 109.117L211.719 105.367L169.844 81.1486L163.438 77.3987L146.875 67.8675L140.626 64.2737L130.938 58.6488C127.657 56.7738 122.657 56.6175 119.844 58.18L57.9696 93.9611L51.5634 97.7111L26.8759 111.93L20.4698 115.523L1.87605 126.148C0.782318 126.773 0.157394 127.711 0.00114441 128.648C0.00114441 129.117 0.00114441 129.117 0.00114441 129.273Z" fill="#D0D2D3" stroke="#262626" stroke-width="0.75" stroke-miterlimit="10" stroke-linecap="round" stroke-linejoin="round"/>
<path d="M115.313 168.336L89.688 183.024L83.2818 179.274L107.813 165.055L89.5318 154.586L64.5319 168.649L58.1257 164.899L87.9693 148.18C88.9068 147.711 90.1568 147.711 91.0943 148.18L114.063 161.461L145.782 143.18L103.907 118.805L65.9382 140.524L41.4071 155.368L35.1572 151.774L58.1257 137.868L20.1571 115.68L26.5635 112.087L64.5319 134.118L89.5318 119.899L51.4069 97.8678L57.8133 94.1179L95.938 116.149L121.719 101.305L103.75 90.9929C102.813 90.3679 102.188 89.4304 102.188 88.1804C102.188 87.0866 102.813 85.9929 103.75 85.3679L140.313 64.118L146.563 67.7117L111.563 88.0241L127.969 97.3991L163.125 77.2429L169.532 80.9929L154.219 89.7429L196.25 113.805L211.406 105.055L217.812 108.805L197.813 120.368C197.813 120.368 197.813 120.368 197.656 120.368L188.438 125.68L223.594 145.993L217.188 149.743L182.031 129.43L161.719 141.149L153.594 145.836L134.375 156.93L169.532 177.242L163.125 180.992L127.969 160.68L116.25 167.399L115.313 168.336ZM129.063 104.587L110.625 115.212L152.344 139.586L158.75 135.836L162.813 133.493L180.625 123.18L190 117.868L147.969 93.8053L130.625 103.805L129.063 104.587Z" fill="white"/>
<path d="M0.00114441 129.273C0.00114441 130.523 0.938564 131.773 2.65731 132.867L8.59486 136.305L35.4697 151.93L41.7196 155.523L58.282 165.055L64.6882 168.804L83.2819 179.429L89.6881 183.179L118.907 200.054C120.626 200.992 122.813 201.617 124.844 201.617C126.719 201.617 128.594 201.304 130 200.523L163.438 181.304L169.844 177.554L217.5 150.055L223.906 146.305L236.406 139.117L241.406 136.305L248.125 132.398C249.375 131.617 250 130.68 250 129.586V129.43C249.844 128.18 249.062 126.93 247.344 125.992L218.125 109.117L211.719 105.367L169.844 81.1486L163.438 77.3987L146.875 67.8675L140.626 64.2737L130.938 58.6488C127.657 56.7738 122.657 56.6175 119.844 58.18L57.9696 93.9611L51.5634 97.7111L26.8759 111.93L20.4698 115.523L1.87606 126.148C0.782315 126.773 0.157394 127.711 0.00114441 128.648C0.00114441 129.117 0.00114441 129.117 0.00114441 129.273Z" stroke="#262626" stroke-width="0.75" stroke-miterlimit="10" stroke-linecap="round" stroke-linejoin="round"/>
<path d="M122.027 91.462C122.027 91.7745 121.871 91.9307 121.715 91.9307L120.777 92.5557L119.84 93.1807L97.0275 106.306C96.8712 106.462 96.5587 106.462 96.2462 106.462C95.9337 106.462 95.6212 106.462 95.465 106.306L77.9649 96.1495L77.1837 95.6807L76.2462 95.0557C76.09 94.8994 75.9338 94.7432 75.9338 94.587C75.9338 94.4307 76.09 94.2745 76.2462 94.1182L100.309 80.212C100.777 79.8995 101.559 79.8995 102.027 80.212L122.027 90.837C121.871 91.1495 122.027 91.3057 122.027 91.462Z" fill="white" stroke="#262626" stroke-width="0.75" stroke-miterlimit="10" stroke-linecap="round" stroke-linejoin="round"/>
<path d="M122.027 91.4618C122.027 91.7743 121.871 91.9305 121.715 91.9305L120.777 92.5556L119.84 93.1805L97.0275 106.305C96.8712 106.462 96.5587 106.462 96.2462 106.462C95.9337 106.462 95.6212 106.462 95.465 106.305L77.9649 96.1493L77.1837 95.6805L76.2462 95.0555C76.09 94.8993 75.9338 94.743 75.9338 94.5868C75.9338 94.4305 76.09 94.2743 76.2462 94.118L100.309 80.2118C100.777 79.8993 101.559 79.8993 102.027 80.2118L122.027 90.8368C121.871 91.1493 122.027 91.3055 122.027 91.4618Z" fill="white" stroke="#262626" stroke-width="0.75" stroke-miterlimit="10" stroke-linecap="round" stroke-linejoin="round"/>
<path d="M95.9336 106.462V115.993C95.6211 115.993 95.3086 115.993 95.1523 115.837L75.9338 104.743C75.6213 104.587 75.6212 104.431 75.6212 104.274V94.8994C75.6212 95.0556 75.7775 95.2118 75.9338 95.3681L76.8713 95.9931L77.6525 96.4618L95.1523 106.618C95.4648 106.306 95.6211 106.462 95.9336 106.462Z" fill="white" stroke="#262626" stroke-width="0.75" stroke-miterlimit="10" stroke-linecap="round" stroke-linejoin="round"/>
<path d="M121.716 101.462L96.8729 115.681C96.7167 115.837 96.4042 115.837 96.0917 115.837V106.306C96.4042 106.306 96.7167 106.306 96.8729 106.15L119.685 93.0246L120.623 92.3996L121.56 91.7746C121.716 91.6184 121.873 91.4621 121.873 91.3059V100.681C122.029 101.15 121.873 101.306 121.716 101.462Z" fill="#ADADAD" stroke="#262626" stroke-width="0.75" stroke-miterlimit="10" stroke-linecap="round" stroke-linejoin="round"/>
<path d="M126.727 146.149C126.727 146.462 126.57 146.618 126.414 146.618L125.476 147.243L124.539 147.868L115.32 153.181C115.164 153.337 114.852 153.337 114.539 153.337C114.227 153.337 113.914 153.337 113.758 153.181L93.2892 141.462L92.5079 140.993L91.5705 140.368C91.4142 140.212 91.2579 140.056 91.2579 139.899C91.2579 139.743 91.4142 139.587 91.5705 139.431L102.82 132.868C103.289 132.556 104.07 132.556 104.539 132.868L126.727 145.681C126.57 145.837 126.727 145.993 126.727 146.149Z" fill="white" stroke="#262626" stroke-width="0.75" stroke-miterlimit="10" stroke-linecap="round" stroke-linejoin="round"/>
<path d="M126.727 146.149C126.727 146.462 126.57 146.618 126.414 146.618L125.476 147.243L124.539 147.868L115.32 153.18C115.164 153.336 114.852 153.336 114.539 153.336C114.227 153.336 113.914 153.336 113.758 153.18L93.2892 141.462L92.5079 140.993L91.5705 140.368C91.4142 140.212 91.2579 140.055 91.2579 139.899C91.2579 139.743 91.4142 139.587 91.5705 139.43L102.82 132.868C103.289 132.555 104.07 132.555 104.539 132.868L126.727 145.68C126.57 145.837 126.727 145.993 126.727 146.149Z" fill="white" stroke="#262626" stroke-width="0.75" stroke-miterlimit="10" stroke-linecap="round" stroke-linejoin="round"/>
<path d="M114.379 153.336V161.305C114.066 161.305 113.754 161.305 113.598 161.148L91.4103 148.336C91.0978 148.18 91.0977 148.024 91.0977 147.867V140.055C91.0977 140.211 91.2541 140.367 91.4103 140.524L92.3478 141.149L93.129 141.617L113.598 153.336C113.754 153.336 114.066 153.336 114.379 153.336Z" fill="white" stroke="#262626" stroke-width="0.75" stroke-miterlimit="10" stroke-linecap="round" stroke-linejoin="round"/>
<path d="M126.412 154.586L115.162 161.148C115.006 161.305 114.693 161.305 114.381 161.305V153.336C114.693 153.336 115.006 153.336 115.162 153.18L124.381 147.867L125.318 147.242L126.256 146.617C126.412 146.461 126.568 146.305 126.568 146.149V153.961C126.724 154.273 126.568 154.43 126.412 154.586Z" fill="#D0D2D3" stroke="#262626" stroke-width="0.75" stroke-miterlimit="10" stroke-linecap="round" stroke-linejoin="round"/>
<path d="M174.852 131.46C174.852 131.928 175.008 132.085 175.477 132.397L177.039 133.335L178.758 134.272L201.258 147.241C201.57 147.397 202.195 147.553 202.664 147.553C203.133 147.553 203.602 147.397 204.07 147.241L214.227 141.46L215.477 140.678L217.039 139.741C217.352 139.585 217.664 139.272 217.664 138.96V138.803C217.664 138.491 217.508 138.335 217.039 138.022L191.258 123.178C190.477 122.71 189.227 122.71 188.446 123.178L175.477 130.678C175.164 130.991 174.852 131.147 174.852 131.46Z" fill="white" stroke="#262626" stroke-width="0.75" stroke-miterlimit="10" stroke-linecap="round" stroke-linejoin="round"/>
<path d="M174.852 131.46C174.852 131.929 175.008 132.085 175.477 132.398L177.039 133.335L178.758 134.272L201.258 147.241C201.57 147.397 202.195 147.554 202.664 147.554C203.133 147.554 203.602 147.397 204.07 147.241L214.227 141.46L215.477 140.679L217.039 139.741C217.352 139.585 217.664 139.272 217.664 138.96V138.804C217.664 138.491 217.508 138.335 217.039 138.022L191.258 123.179C190.477 122.71 189.227 122.71 188.446 123.179L175.477 130.679C175.164 130.991 174.852 131.147 174.852 131.46Z" fill="white" stroke="#262626" stroke-width="0.75" stroke-miterlimit="10" stroke-linecap="round" stroke-linejoin="round"/>
<path d="M202.664 147.553V158.178C203.133 158.178 203.602 158.022 204.07 157.865L217.039 150.365C217.508 150.053 217.664 149.74 217.664 149.428V138.959C217.664 139.272 217.508 139.584 217.039 139.74L215.477 140.678L214.227 141.459L204.07 147.24C203.758 147.397 203.133 147.553 202.664 147.553Z" fill="#ADADAD" stroke="#262626" stroke-width="0.75" stroke-miterlimit="10" stroke-linecap="round" stroke-linejoin="round"/>
<path d="M175.469 142.866L201.25 157.71C201.562 157.866 202.188 158.023 202.656 158.023V147.398C202.188 147.398 201.719 147.241 201.25 147.085L178.75 134.116L177.031 133.179L175.469 132.242C175.156 132.085 175 131.773 174.844 131.46V141.929C174.844 142.398 175 142.71 175.469 142.866Z" fill="white" stroke="#262626" stroke-width="0.75" stroke-miterlimit="10" stroke-linecap="round" stroke-linejoin="round"/>
<path d="M118.129 42.3986C118.129 42.7111 118.285 42.8673 118.442 42.8673L119.379 43.4923L120.317 44.1173L126.098 47.5548C126.254 47.711 126.567 47.711 126.879 47.711C127.192 47.711 127.504 47.711 127.66 47.5548L138.285 41.4611L139.067 40.9923L140.004 40.3673C140.16 40.2111 140.316 40.0548 140.316 39.8986C140.316 39.7423 140.16 39.5861 140.004 39.4299L132.192 34.8986C131.723 34.5861 130.942 34.5861 130.473 34.8986L118.129 42.0861C118.129 42.0861 118.129 42.2423 118.129 42.3986Z" fill="white" stroke="#262626" stroke-width="0.75" stroke-miterlimit="10" stroke-linecap="round" stroke-linejoin="round"/>
<path d="M118.125 42.3987C118.125 42.7112 118.281 42.8674 118.438 42.8674L119.375 43.4924L120.313 44.1174L126.094 47.5549C126.25 47.7112 126.563 47.7112 126.875 47.7112C127.188 47.7112 127.5 47.7112 127.656 47.5549L138.281 41.4612L139.063 40.9925L140 40.3674C140.156 40.2112 140.312 40.0549 140.312 39.8987C140.312 39.7425 140.156 39.5862 140 39.43L132.188 34.8987C131.719 34.5862 130.938 34.5862 130.469 34.8987L118.125 42.0862C118.125 42.0862 118.125 42.2424 118.125 42.3987Z" fill="white" stroke="#262626" stroke-width="0.75" stroke-miterlimit="10" stroke-linecap="round" stroke-linejoin="round"/>
<path d="M127.031 47.5544V71.9293C127.344 71.9293 127.656 71.9293 127.813 71.7731L140.156 64.7419C140.469 64.5856 140.469 64.4294 140.469 64.2731V39.8982C140.469 40.0545 140.313 40.2107 140.156 40.367L139.219 40.992L138.438 41.4607L127.813 47.5544C127.656 47.5544 127.344 47.5544 127.031 47.5544Z" fill="#ADADAD" stroke="#262626" stroke-width="0.75" stroke-miterlimit="10" stroke-linecap="round" stroke-linejoin="round"/>
<path d="M118.441 67.5548L126.254 71.7736C126.41 71.9298 126.723 71.9298 127.035 71.9298V47.5549C126.723 47.5549 126.41 47.5549 126.254 47.3987L120.473 43.9612L119.535 43.3362L118.598 42.7112C118.441 42.5549 118.285 42.3987 118.285 42.2424V66.7736C117.973 67.2423 118.129 67.3986 118.441 67.5548Z" fill="white" stroke="#262626" stroke-width="0.75" stroke-miterlimit="10" stroke-linecap="round" stroke-linejoin="round"/>
<path d="M124.84 201.618V215.211C126.715 215.211 128.59 214.899 129.997 214.118L163.434 194.899L169.84 191.149L217.496 163.649L223.903 159.899L247.965 145.993C249.371 145.212 249.996 144.118 249.84 143.024V129.587C249.84 130.68 249.215 131.618 247.965 132.399L241.246 136.305L236.246 139.118L223.746 146.305L217.34 150.055L169.684 177.555L163.278 181.305L129.841 200.524C128.747 201.305 126.872 201.618 124.84 201.618Z" fill="#262626" stroke="#262626" stroke-width="0.75" stroke-miterlimit="10" stroke-linecap="round" stroke-linejoin="round"/>
<path d="M0.000724792 129.274V142.868C0.000724792 144.118 0.938141 145.524 2.65688 146.618L35.4692 165.524L41.7192 169.117L58.2816 178.649L64.6878 182.399L83.2815 193.024L89.6877 196.774L118.906 213.649C120.625 214.586 122.813 215.211 124.844 215.211V201.617C122.813 201.617 120.625 200.992 118.906 200.055L89.6877 183.18L83.2815 179.43L64.6878 168.805L58.2816 165.055L41.7192 155.524L35.4692 151.93L8.59444 136.305L2.65688 132.868C0.938141 131.774 0.000724792 130.524 0.000724792 129.274Z" fill="white" stroke="#262626" stroke-width="0.75" stroke-miterlimit="10" stroke-linecap="round" stroke-linejoin="round"/>
<path d="M137.812 162.555L130.156 158.18C129.063 157.555 127.656 157.555 126.563 158.18L116.094 164.118C115 164.743 113.594 164.743 112.5 164.118L91.719 152.243C90.6252 151.618 89.2189 151.618 88.1252 152.243L61.8754 166.774" stroke="#4BBC24" stroke-width="0.75" stroke-miterlimit="10" stroke-linecap="round" stroke-linejoin="round"/>
<path d="M123.281 171.148C123.281 171.304 123.438 171.461 123.594 171.617L124.531 172.086L125.469 172.554L137.656 179.586C137.813 179.742 138.125 179.742 138.438 179.742C138.75 179.742 139.063 179.742 139.219 179.586L161.719 166.617L162.344 166.148L163.281 165.68C163.438 165.523 163.594 165.367 163.594 165.211C163.594 165.055 163.438 164.898 163.281 164.742L149.375 156.617C148.906 156.305 148.281 156.305 147.813 156.617L123.75 170.523C123.438 170.836 123.281 170.992 123.281 171.148Z" fill="white" stroke="#262626" stroke-width="0.75" stroke-miterlimit="10" stroke-linecap="round" stroke-linejoin="round"/>
<path d="M123.281 171.148C123.281 171.304 123.438 171.461 123.594 171.617L124.531 172.086L125.469 172.554L137.656 179.586C137.813 179.742 138.125 179.742 138.438 179.742C138.75 179.742 139.063 179.742 139.219 179.586L161.719 166.617L162.344 166.148L163.281 165.679C163.438 165.523 163.594 165.367 163.594 165.211C163.594 165.054 163.438 164.898 163.281 164.742L149.375 156.617C148.906 156.304 148.281 156.304 147.813 156.617L123.75 170.523C123.438 170.836 123.281 170.992 123.281 171.148Z" fill="white" stroke="#262626" stroke-width="0.75" stroke-miterlimit="10" stroke-linecap="round" stroke-linejoin="round"/>
<path d="M138.281 179.898V195.523C138.594 195.523 138.906 195.523 139.063 195.367L163.125 181.461C163.281 181.305 163.438 181.148 163.438 180.992V165.524C163.438 165.68 163.281 165.836 163.125 165.992L162.187 166.461L161.562 166.93L139.063 179.898C138.75 179.898 138.594 179.898 138.281 179.898Z" fill="#ADADAD" stroke="#262626" stroke-width="0.75" stroke-miterlimit="10" stroke-linecap="round" stroke-linejoin="round"/>
<path d="M123.594 187.242L137.5 195.367C137.656 195.523 137.969 195.523 138.281 195.523V179.898C137.969 179.898 137.656 179.898 137.5 179.742L125.312 172.711L124.375 172.242L123.438 171.773C123.281 171.617 123.125 171.461 123.125 171.304V186.773C123.281 186.929 123.281 187.086 123.594 187.242Z" fill="white" stroke="#262626" stroke-width="0.75" stroke-miterlimit="10" stroke-linecap="round" stroke-linejoin="round"/>
<path d="M135 130.369C135.469 130.212 135.781 130.056 136.406 129.9C137.188 129.744 137.813 129.744 138.75 129.9C139.844 130.056 140.938 130.525 142.188 131.15C147.813 134.431 152.344 142.244 152.344 148.65C152.344 152.087 149.531 157.556 146.875 161.931C145.938 163.337 145.156 164.744 144.375 165.837C143.281 167.556 142.344 168.806 142.344 168.806L145 167.244C145 167.244 155.156 153.494 155.156 146.931C155.156 140.369 150.625 132.556 145 129.431C142.5 127.869 140 127.712 138.281 128.494L137.656 128.806L135 130.369Z" fill="#262626" stroke="#262626" stroke-width="0.75" stroke-miterlimit="10" stroke-linecap="round" stroke-linejoin="round"/>
<path d="M142.031 147.243C143.906 148.337 145.469 147.712 145.937 146.15C146.094 145.837 146.094 145.368 146.094 145.056C146.094 142.556 144.375 139.431 142.031 138.181C141.562 138.025 141.25 137.868 140.937 137.712C139.219 137.4 138.125 138.337 138.125 140.525C137.969 142.868 139.844 145.993 142.031 147.243Z" stroke="#262626" stroke-width="0.75" stroke-miterlimit="10" stroke-linecap="round" stroke-linejoin="round"/>
<path d="M134.848 130.368C135.473 130.056 135.785 129.9 136.41 129.743C137.191 129.587 137.816 129.587 138.754 129.743C139.848 129.9 140.941 130.368 142.191 130.993C147.816 134.274 152.348 142.087 152.348 148.493C152.348 151.931 149.535 157.399 146.879 161.774C145.941 163.181 145.16 164.587 144.379 165.681C143.285 167.399 142.348 168.649 142.348 168.649C142.348 168.649 132.191 143.181 132.191 136.618C131.879 133.649 132.973 131.462 134.848 130.368ZM145.785 146.149C145.941 145.837 145.941 145.368 145.941 145.056C145.941 142.556 144.223 139.431 141.879 138.181C141.41 138.024 141.098 137.868 140.785 137.712C139.066 137.399 137.973 138.337 137.973 140.524C137.973 143.024 139.691 146.149 142.035 147.399C143.91 148.337 145.316 147.868 145.785 146.149Z" fill="#4BBC24" stroke="#262626" stroke-width="0.75" stroke-miterlimit="10" stroke-linecap="round" stroke-linejoin="round"/>
<path d="M140.785 138.806C140.785 141.306 142.504 144.431 144.848 145.681C145.16 145.837 145.629 145.993 145.941 146.149C146.098 145.837 146.098 145.368 146.098 145.056C146.098 142.556 144.379 139.431 142.035 138.181C141.566 138.024 141.254 137.868 140.941 137.712C140.785 137.868 140.785 138.337 140.785 138.806Z" fill="white" stroke="#262626" stroke-width="0.75" stroke-miterlimit="10" stroke-linecap="round" stroke-linejoin="round"/>
<path d="M137.977 140.368C137.977 142.868 139.695 145.993 142.039 147.243C143.914 148.337 145.477 147.712 145.945 146.149C145.633 145.993 145.164 145.993 144.852 145.681C142.664 144.431 140.789 141.306 140.789 138.806C140.789 138.337 140.789 138.024 140.945 137.556C139.227 137.243 137.977 138.337 137.977 140.368Z" fill="#262626" stroke="#262626" stroke-width="0.75" stroke-miterlimit="10" stroke-linecap="round" stroke-linejoin="round"/>
<path d="M182.656 106.461L181.406 107.086C180.313 107.711 178.906 107.711 177.813 107.086L149.844 91.149C148.75 90.524 147.344 90.524 146.25 91.149L66.0943 136.774C65.0006 137.399 63.5945 137.399 62.5007 136.774L50.157 129.743" stroke="#4BBC24" stroke-width="0.75" stroke-miterlimit="10" stroke-linecap="round" stroke-linejoin="round"/>
<path d="M10.1565 115.523C10.1565 115.836 10.3126 115.992 10.4689 115.992L11.4063 116.617L12.3438 117.242L34.5313 129.898C34.6876 130.055 35.0001 130.055 35.3126 130.055C35.6251 130.055 35.9376 130.055 36.0938 129.898L48.1249 123.023L48.9062 122.555L49.8436 121.93C49.9999 121.773 50.1562 121.617 50.1562 121.461C50.1562 121.305 49.9999 121.148 49.8436 120.992L25.625 107.086C25.1562 106.773 24.375 106.773 23.9063 107.086L10.1565 115.055C10.3127 115.211 10.1565 115.367 10.1565 115.523Z" fill="white" stroke="#262626" stroke-width="0.75" stroke-miterlimit="10" stroke-linecap="round" stroke-linejoin="round"/>
<path d="M10.1565 115.523C10.1565 115.836 10.3126 115.992 10.4689 115.992L11.4063 116.617L12.3438 117.242L34.5313 129.898C34.6876 130.055 35.0001 130.055 35.3126 130.055C35.6251 130.055 35.9376 130.055 36.0938 129.898L48.1249 123.023L48.9062 122.555L49.8436 121.93C49.9999 121.773 50.1562 121.617 50.1562 121.461C50.1562 121.305 49.9999 121.148 49.8436 120.992L25.625 107.086C25.1562 106.773 24.375 106.773 23.9063 107.086L10.1565 115.055C10.3127 115.211 10.1565 115.367 10.1565 115.523Z" fill="white" stroke="#262626" stroke-width="0.75" stroke-miterlimit="10" stroke-linecap="round" stroke-linejoin="round"/>
<path d="M35.4688 130.054V151.46C35.7813 151.46 36.0938 151.46 36.2501 151.304L50.0001 143.023C50.3126 142.867 50.3125 142.71 50.3125 142.554V121.617C50.3125 121.773 50.1563 121.929 50.0001 122.085L49.0624 122.71L48.2812 123.179L36.2501 130.054C36.0938 130.054 35.7813 130.054 35.4688 130.054Z" fill="#ADADAD" stroke="#262626" stroke-width="0.75" stroke-miterlimit="10" stroke-linecap="round" stroke-linejoin="round"/>
<path d="M10.4689 137.399L34.6875 151.305C34.8438 151.461 35.1563 151.461 35.4688 151.461V130.055C35.1563 130.055 34.8438 130.055 34.6875 129.899L12.5002 117.243L11.5625 116.618L10.6251 115.993C10.4688 115.836 10.3127 115.68 10.3127 115.524V136.774C10.1564 137.086 10.3126 137.242 10.4689 137.399Z" fill="white" stroke="#262626" stroke-width="0.75" stroke-miterlimit="10" stroke-linecap="round" stroke-linejoin="round"/>
<path d="M21.8752 80.3685C22.344 80.2123 22.6563 80.056 23.2813 79.8998C24.0626 79.7435 24.6876 79.7435 25.6251 79.8998C26.7188 80.056 27.8127 80.5248 29.0627 81.1498C34.6876 84.431 39.2189 92.2435 39.2189 98.6497C39.2189 102.087 36.4064 107.556 33.7502 111.931C32.8127 113.337 32.0314 114.743 31.2502 115.837C30.1565 117.556 29.2189 118.806 29.2189 118.806L31.875 117.243C31.875 117.243 42.0312 103.493 42.0312 96.931C42.0312 90.3685 37.5 82.556 31.875 79.431C29.3751 77.8685 26.8752 77.7123 25.1564 78.4936L24.5314 78.806L21.8752 80.3685Z" fill="#262626" stroke="#262626" stroke-width="0.75" stroke-miterlimit="10" stroke-linecap="round" stroke-linejoin="round"/>
<path d="M28.9102 97.4C30.7852 98.4938 32.3477 97.8688 32.8164 96.3063C32.9727 95.9938 32.9727 95.5251 32.9727 95.2126C32.9727 92.7126 31.254 89.5876 28.9102 88.3376C28.4415 88.1814 28.1289 88.0251 27.8164 87.8689C26.0976 87.5564 25.004 88.4939 25.004 90.6813C24.8477 93.0251 26.7227 96.1501 28.9102 97.4Z" stroke="#262626" stroke-width="0.75" stroke-miterlimit="10" stroke-linecap="round" stroke-linejoin="round"/>
<path d="M21.7187 80.5253C22.3437 80.2128 22.6562 80.0565 23.2812 79.9003C24.0625 79.744 24.6875 79.744 25.6249 79.9003C26.7187 80.0565 27.8126 80.5253 29.0625 81.1503C34.6875 84.4315 39.2188 92.244 39.2188 98.6502C39.2188 102.088 36.4063 107.556 33.75 111.931C32.8125 113.338 32.0313 114.744 31.2501 115.838C30.1563 117.556 29.2188 118.806 29.2188 118.806C29.2188 118.806 19.0626 93.3377 19.0626 86.7752C18.7501 83.8065 19.8437 81.619 21.7187 80.5253ZM32.6562 96.3065C32.8124 95.994 32.8126 95.5252 32.8126 95.2127C32.8126 92.7127 31.0937 89.5877 28.7499 88.3377C28.2812 88.1815 27.9688 88.0253 27.6563 87.869C25.9375 87.5565 24.8437 88.494 24.8437 90.6815C24.8437 93.1815 26.5626 96.3064 28.9063 97.5564C30.7813 98.4939 32.1874 97.869 32.6562 96.3065Z" fill="#4BBC24" stroke="#262626" stroke-width="0.75" stroke-miterlimit="10" stroke-linecap="round" stroke-linejoin="round"/>
<path d="M27.6562 88.9628C27.6562 91.4628 29.3749 94.5878 31.7187 95.8378C32.0312 95.994 32.5 96.1503 32.8125 96.3066C32.9688 95.9941 32.9687 95.5253 32.9687 95.2128C32.9687 92.7128 31.25 89.5878 28.9063 88.3378C28.4376 88.1816 28.1249 88.0254 27.8124 87.8691C27.6562 88.0254 27.6562 88.4941 27.6562 88.9628Z" fill="white" stroke="#262626" stroke-width="0.75" stroke-miterlimit="10" stroke-linecap="round" stroke-linejoin="round"/>
<path d="M24.8475 90.5254C24.8475 93.0254 26.5664 96.1504 28.9102 97.4004C30.7852 98.4941 32.3477 97.8692 32.8164 96.3067C32.5039 96.3067 32.035 96.1504 31.7225 95.8379C29.5351 94.5879 27.6601 91.4629 27.6601 88.9629C27.6601 88.4942 27.6601 88.1817 27.8163 87.713C26.0976 87.4005 24.8475 88.3379 24.8475 90.5254Z" fill="#262626" stroke="#262626" stroke-width="0.75" stroke-miterlimit="10" stroke-linecap="round" stroke-linejoin="round"/>
<path d="M170.941 87.0857C170.941 87.3982 171.098 87.5544 171.254 87.5544L172.192 88.1794L173.129 88.8044L195.316 101.461C195.473 101.617 195.785 101.617 196.098 101.617C196.41 101.617 196.723 101.617 196.879 101.461L208.91 94.5856L209.691 94.1169L210.629 93.4919C210.785 93.3356 210.941 93.1794 210.941 93.0231C210.941 92.8669 210.785 92.7107 210.629 92.5544L186.41 78.6482C185.941 78.3357 185.16 78.3357 184.691 78.6482L170.941 86.6169C171.098 86.7732 171.098 86.9294 170.941 87.0857Z" fill="white" stroke="#262626" stroke-width="0.75" stroke-miterlimit="10" stroke-linecap="round" stroke-linejoin="round"/>
<path d="M170.941 87.086C170.941 87.3985 171.098 87.5547 171.254 87.5547L172.192 88.1797L173.129 88.8047L195.316 101.461C195.473 101.617 195.785 101.617 196.098 101.617C196.41 101.617 196.723 101.617 196.879 101.461L208.91 94.586L209.691 94.1172L210.629 93.4922C210.785 93.3359 210.941 93.1797 210.941 93.0235C210.941 92.8672 210.785 92.711 210.629 92.5547L186.41 78.6485C185.941 78.336 185.16 78.336 184.691 78.6485L170.941 86.6172C171.098 86.7735 171.098 86.9298 170.941 87.086Z" fill="white" stroke="#262626" stroke-width="0.75" stroke-miterlimit="10" stroke-linecap="round" stroke-linejoin="round"/>
<path d="M196.254 101.617V113.961C196.566 113.961 196.879 113.961 197.035 113.804L210.785 105.836C211.098 105.68 211.098 105.523 211.098 105.367V93.0233C211.098 93.1796 210.941 93.3358 210.785 93.492L209.848 94.1171L209.066 94.5858L197.035 101.461C196.879 101.617 196.566 101.617 196.254 101.617Z" fill="#ADADAD" stroke="#262626" stroke-width="0.75" stroke-miterlimit="10" stroke-linecap="round" stroke-linejoin="round"/>
<path d="M171.41 99.8988L195.629 113.805C195.785 113.961 196.098 113.961 196.41 113.961V101.618C196.098 101.618 195.785 101.618 195.629 101.461L173.442 88.8051L172.504 88.1801L171.566 87.5551C171.41 87.3989 171.254 87.2427 171.254 87.0864V99.2738C170.942 99.5863 171.098 99.7426 171.41 99.8988Z" fill="white" stroke="#262626" stroke-width="0.75" stroke-miterlimit="10" stroke-linecap="round" stroke-linejoin="round"/>
<path d="M182.664 52.7121C183.133 52.5559 183.445 52.3996 184.07 52.2434C184.852 52.0871 185.477 52.0871 186.414 52.2434C187.508 52.3996 188.602 52.8684 189.852 53.4934C195.477 56.7746 200.008 64.5871 200.008 70.9933C200.008 74.4308 197.195 79.8995 194.539 84.2745C193.602 85.6807 192.82 87.087 192.039 88.1807C190.945 89.8995 190.008 91.1494 190.008 91.1494L192.664 89.5869C192.664 89.5869 202.82 75.837 202.82 69.2745C202.82 62.8683 198.289 54.8996 192.664 51.7746C190.164 50.2122 187.664 50.0559 185.946 50.8371L185.32 51.1497L182.664 52.7121Z" fill="#262626" stroke="#262626" stroke-width="0.75" stroke-miterlimit="10" stroke-linecap="round" stroke-linejoin="round"/>
<path d="M189.695 69.7436C191.57 70.8373 193.133 70.2123 193.601 68.6498C193.758 68.3373 193.758 67.8686 193.758 67.5561C193.758 65.0561 192.039 61.9311 189.695 60.6811C189.226 60.5248 188.914 60.3686 188.602 60.2124C186.883 59.8999 185.789 60.8373 185.789 63.0248C185.789 65.3686 187.508 68.4936 189.695 69.7436Z" stroke="#262626" stroke-width="0.75" stroke-miterlimit="10" stroke-linecap="round" stroke-linejoin="round"/>
<path d="M182.512 52.8686C183.137 52.5561 183.449 52.3998 184.074 52.2436C184.855 52.0873 185.48 52.0873 186.418 52.2436C187.512 52.3998 188.606 52.8686 189.856 53.4936C195.48 56.7748 200.012 64.5873 200.012 70.9935C200.012 74.431 197.199 79.8997 194.543 84.2747C193.605 85.6809 192.824 87.0872 192.043 88.1809C190.949 89.8997 190.012 91.1497 190.012 91.1497C190.012 91.1497 179.856 65.681 179.856 59.1185C179.699 56.1498 180.793 53.9623 182.512 52.8686ZM193.605 68.6498C193.762 68.3373 193.762 67.8685 193.762 67.556C193.762 65.0561 192.043 61.931 189.699 60.681C189.23 60.5248 188.918 60.3686 188.605 60.2123C186.887 59.8998 185.793 60.8373 185.793 63.0248C185.793 65.5248 187.512 68.6498 189.856 69.8998C191.574 70.8373 193.137 70.2123 193.605 68.6498Z" fill="#4BBC24" stroke="#262626" stroke-width="0.75" stroke-miterlimit="10" stroke-linecap="round" stroke-linejoin="round"/>
<path d="M188.449 61.3062C188.449 63.8062 190.168 66.9311 192.512 68.1811C192.824 68.3374 193.293 68.4936 193.605 68.6499C193.762 68.3374 193.762 67.8686 193.762 67.5561C193.762 65.0562 192.043 61.9311 189.699 60.6811C189.23 60.5249 188.918 60.3687 188.605 60.2124C188.449 60.3687 188.449 60.8374 188.449 61.3062Z" fill="white" stroke="#262626" stroke-width="0.75" stroke-miterlimit="10" stroke-linecap="round" stroke-linejoin="round"/>
<path d="M185.793 62.8688C185.793 65.3688 187.512 68.4937 189.855 69.7437C191.73 70.8375 193.293 70.2125 193.762 68.65C193.449 68.65 192.98 68.4937 192.668 68.1812C190.48 66.9312 188.605 63.8063 188.605 61.3063C188.605 60.8375 188.605 60.525 188.762 60.0563C186.887 59.7438 185.793 60.6813 185.793 62.8688Z" fill="#262626" stroke="#262626" stroke-width="0.75" stroke-miterlimit="10" stroke-linecap="round" stroke-linejoin="round"/>
</g>
<defs>
<clipPath id="clip0_1938_1885">
<rect width="250" height="250" fill="white"/>
</clipPath>
</defs>
</svg>
