<svg width="250" height="250" viewBox="0 0 250 250" fill="none" xmlns="http://www.w3.org/2000/svg">
<g clip-path="url(#clip0_1807_11390)">
<path d="M181.015 106.522L52.9256 32.5238L52.5234 169.863C52.5234 172.879 54.7353 176.7 57.3494 178.107L145.424 228.981L180.814 249.291C183.428 250.899 185.64 249.693 185.64 246.475L185.841 181.526L186.042 114.364V108.935L181.015 106.522Z" fill="white" stroke="#262626" stroke-width="0.75" stroke-miterlimit="10" stroke-linecap="round" stroke-linejoin="round"/>
<path d="M186.042 85.8107V89.6312V104.109V109.337L181.015 106.522L52.9258 32.5238V8.99716C52.9258 7.3885 53.529 6.18193 54.5344 5.77977C54.7355 5.77977 54.9366 5.57874 54.9366 5.57874C55.1377 5.57874 55.3388 5.57874 55.5399 5.57874C56.1431 5.57874 56.9474 5.77979 57.7518 6.18196L181.216 77.3652C183.83 79.1749 186.042 82.7944 186.042 85.8107Z" fill="#7A18D5" stroke="#262626" stroke-width="0.75" stroke-miterlimit="10" stroke-linecap="round" stroke-linejoin="round"/>
<path d="M196.299 103.305L196.098 175.695L195.897 240.644C195.897 242.253 195.294 243.259 194.49 243.661L184.234 249.492C184.435 249.291 184.637 249.291 184.637 249.09L184.838 248.889C184.838 248.688 185.039 248.688 185.039 248.487C185.039 248.286 185.24 248.084 185.24 247.883C185.24 247.682 185.24 247.481 185.441 247.28C185.441 247.28 185.441 247.079 185.441 246.878C185.441 246.677 185.441 246.476 185.441 246.275L185.642 181.325L185.843 114.164V108.734L188.859 106.925L196.299 103.305Z" fill="white" stroke="#262626" stroke-width="0.75" stroke-miterlimit="10" stroke-linecap="round" stroke-linejoin="round"/>
<path d="M196.294 79.9794V103.506L189.055 107.729L186.039 109.539V104.31V89.8325V86.0118C186.039 82.9956 183.827 79.1751 181.213 77.7675L57.7486 6.58429C56.9442 6.18213 56.341 5.98107 55.5367 5.98107C55.3356 5.98107 55.1345 5.98107 54.9334 5.98107C54.7323 5.98107 54.5312 5.98102 54.5312 6.18211L64.5854 0.350789C65.3897 -0.252459 66.5962 -0.0514745 68.0038 0.752855L191.468 71.9361C194.082 73.1426 196.294 76.7621 196.294 79.9794Z" fill="#3B2E56" stroke="#262626" stroke-width="0.75" stroke-miterlimit="10" stroke-linecap="round" stroke-linejoin="round"/>
<path d="M75.0399 30.9152C75.0399 33.1271 73.4313 33.9315 71.6215 32.9261C69.8118 31.9206 68.2031 29.1056 68.2031 27.0947C68.2031 24.8828 69.8118 24.0785 71.6215 25.0839C73.4313 26.0893 75.0399 28.7033 75.0399 30.9152Z" fill="#7A18D5" stroke="white" stroke-width="0.75" stroke-miterlimit="10" stroke-linecap="round" stroke-linejoin="round"/>
<path d="M86.7157 38.5564C86.7157 40.7683 85.1071 41.5726 83.2973 40.5672C81.4876 39.5618 79.8789 36.7466 79.8789 34.7358C79.8789 32.5239 81.4876 31.7196 83.2973 32.725C85.1071 33.7304 86.7157 36.3445 86.7157 38.5564Z" fill="#7A18D5" stroke="white" stroke-width="0.75" stroke-miterlimit="10" stroke-linecap="round" stroke-linejoin="round"/>
<path d="M99.1688 45.3937C99.1688 47.6056 97.5602 48.4099 95.7504 47.4045C93.9407 46.3991 92.332 43.584 92.332 41.5732C92.332 39.3613 93.9407 38.557 95.7504 39.5624C97.7613 40.5678 99.1688 43.3829 99.1688 45.3937Z" fill="#7A18D5" stroke="white" stroke-width="0.75" stroke-miterlimit="10" stroke-linecap="round" stroke-linejoin="round"/>
<path d="M163.55 125.152C163.55 122.991 162.062 120.332 160.242 119.335L78.0422 71.9648C76.2229 70.9675 74.7344 71.7986 74.7344 73.9593V159.221C74.7344 161.382 76.2229 164.041 78.0422 165.039L160.077 212.575C161.896 213.572 163.385 212.741 163.55 210.58V125.152Z" fill="white" stroke="#262626" stroke-width="0.75" stroke-miterlimit="10" stroke-linecap="round" stroke-linejoin="round"/>
<line x1="79.1591" y1="77.0997" x2="163.863" y2="208.679" stroke="#262626" stroke-width="0.75"/>
<line x1="162.051" y1="122.053" x2="78.9918" y2="159.06" stroke="#262626" stroke-width="0.75"/>
<path d="M67.5046 83.3316C62.8927 72.8666 64.5362 62.0159 71.1607 59.1146C77.7851 56.1965 86.9084 62.3346 91.5204 72.7996C96.1324 83.2645 94.5056 94.1152 87.8644 97.0333C81.2399 99.9179 72.1166 93.7966 67.5046 83.3316Z" fill="#FFAD28" stroke="#262626" stroke-width="0.5" stroke-miterlimit="10"/>
<path d="M83.2993 76.4053V77.6631L79.375 75.3823L79.3414 84.6565L78.2513 84.0192L78.2849 74.7617L74.3438 72.4809L74.3605 71.2399L83.2993 76.4053Z" fill="white" stroke="#262626" stroke-width="0.5" stroke-miterlimit="10"/>
<path d="M78.7937 86.7697C74.5507 84.3212 71.1127 78.3676 71.1294 73.4873C71.1462 68.607 74.601 66.6448 78.844 69.0933C83.087 71.5419 86.525 77.4955 86.5082 82.3758C86.5082 87.2393 83.0367 89.2183 78.7937 86.7697ZM78.8608 67.7014C73.9469 64.8671 69.9387 67.1479 69.9219 72.7829C69.9052 78.4179 73.8798 85.3107 78.7937 88.1449C83.7075 90.9792 87.699 88.6984 87.7157 83.0634C87.7325 77.4284 83.7578 70.5356 78.8608 67.7014Z" fill="white" stroke="#262626" stroke-width="0.5" stroke-miterlimit="10"/>
<path d="M67.5046 165.568C62.8927 155.103 64.5362 144.253 71.1607 141.351C77.7851 138.433 86.9084 144.571 91.5204 155.036C96.1324 165.501 94.5056 176.352 87.8644 179.27C81.2399 182.155 72.1166 176.033 67.5046 165.568Z" fill="#7A18D5" stroke="#262626" stroke-width="0.5" stroke-miterlimit="10"/>
<path d="M83.2993 158.642V159.9L79.375 157.619L79.3414 166.893L78.2513 166.256L78.2849 156.999L74.3438 154.718L74.3605 153.477L83.2993 158.642Z" fill="white" stroke="#262626" stroke-width="0.5" stroke-miterlimit="10"/>
<path d="M78.7937 169.007C74.5507 166.558 71.1127 160.604 71.1294 155.724C71.1462 150.844 74.601 148.882 78.844 151.33C83.087 153.779 86.525 159.732 86.5082 164.613C86.5082 169.476 83.0367 171.455 78.7937 169.007ZM78.8608 149.938C73.9469 147.104 69.9387 149.385 69.9219 155.02C69.9052 160.655 73.8798 167.547 78.7937 170.382C83.7075 173.216 87.699 170.935 87.7157 165.3C87.7325 159.665 83.7578 152.772 78.8608 149.938Z" fill="white" stroke="#262626" stroke-width="0.5" stroke-miterlimit="10"/>
<path d="M149.716 211.621C145.104 201.156 146.747 190.305 153.372 187.404C159.996 184.486 169.119 190.624 173.731 201.089C178.343 211.554 176.717 222.405 170.075 225.323C163.451 228.207 154.328 222.086 149.716 211.621Z" fill="#E84142" stroke="#262626" stroke-width="0.5" stroke-miterlimit="10"/>
<path d="M165.51 204.695V205.953L161.586 203.672L161.552 212.946L160.462 212.309L160.496 203.051L156.555 200.77L156.571 199.529L165.51 204.695Z" fill="white" stroke="#262626" stroke-width="0.5" stroke-miterlimit="10"/>
<path d="M161.005 215.059C156.762 212.611 153.324 206.657 153.34 201.777C153.357 196.896 156.812 194.934 161.055 197.383C165.298 199.831 168.736 205.785 168.719 210.665C168.719 215.529 165.248 217.508 161.005 215.059ZM161.072 195.991C156.158 193.157 152.15 195.437 152.133 201.072C152.116 206.707 156.091 213.6 161.005 216.434C165.918 219.269 169.91 216.988 169.927 211.353C169.943 205.718 165.969 198.825 161.072 195.991Z" fill="white" stroke="#262626" stroke-width="0.5" stroke-miterlimit="10"/>
<path d="M149.716 131.851C145.104 121.386 146.747 110.536 153.372 107.634C159.996 104.716 169.119 110.854 173.731 121.319C178.343 131.784 176.717 142.635 170.075 145.553C163.451 148.438 154.328 142.316 149.716 131.851Z" fill="#E06AE9" stroke="#262626" stroke-width="0.5" stroke-miterlimit="10"/>
<path d="M165.51 124.925V126.183L161.586 123.902L161.552 133.176L160.462 132.539L160.496 123.282L156.555 121.001L156.571 119.76L165.51 124.925Z" fill="white" stroke="#262626" stroke-width="0.5" stroke-miterlimit="10"/>
<path d="M161.005 135.289C156.762 132.841 153.324 126.887 153.34 122.007C153.357 117.127 156.812 115.165 161.055 117.613C165.298 120.062 168.736 126.015 168.719 130.895C168.719 135.759 165.248 137.738 161.005 135.289ZM161.072 116.221C156.158 113.387 152.15 115.668 152.133 121.303C152.116 126.938 156.091 133.83 161.005 136.665C165.918 139.499 169.91 137.218 169.927 131.583C169.943 125.948 165.969 119.055 161.072 116.221Z" fill="white" stroke="#262626" stroke-width="0.5" stroke-miterlimit="10"/>
</g>
<defs>
<clipPath id="clip0_1807_11390">
<rect width="250" height="250" fill="white"/>
</clipPath>
</defs>
</svg>
