<svg width="250" height="250" viewBox="0 0 250 250" fill="none" xmlns="http://www.w3.org/2000/svg">
<g clip-path="url(#clip0_1801_11058)">
<path fill-rule="evenodd" clip-rule="evenodd" d="M145 71.725L145 35.225L132 40.225L128.726 43.4957L128.726 62.225L128.726 84.2274L128.726 120.687L128.726 141.7L128.726 203.301L125.307 204.021L122.397 199.647L122.397 132.1L128.726 141.7L128.726 120.687L121.955 111.504L121.955 80.3184L128.726 84.2274L128.726 62.225L125 60.225L125 36.725L112 16.225L109.034 19.4031L109 51.225L61 23.225L58.0078 26.3014L60.1909 44.5649L109.034 113.653L109.034 179.564L85 136.225L84.5 125.225L70 103.725L66.5337 107.463L69.7042 142.062L125.307 225.696L179.795 205.623L183.5 202.225L184 188.725L144.174 136.069L144.104 161.881L163.104 188.874L144.104 196.081L144.104 161.881L144.174 136.069L144.174 93.0687L145 71.725ZM109.034 93.4381L109.034 72.8584L83.1309 57.903L109.034 93.4381Z" fill="black"/>
<path d="M193 99.225L145 71.725L144.174 93.0687L173.575 110.027L171.032 138.727L184.227 159.239L188 156.225L193 99.225Z" fill="black"/>
<g filter="url(#filter0_d_1801_11058)">
<path fill-rule="evenodd" clip-rule="evenodd" d="M141.808 38.3248L128.726 43.4957L128.726 67.1305L128.726 84.2273L128.726 120.687L128.726 141.7L128.726 203.301L125.307 204.021L122.397 199.647L122.397 132.1L128.726 141.7L128.726 120.687L121.955 111.504L121.955 80.3184L128.726 84.2273L128.726 67.1305L122.055 63.279L122.055 39.6442L109.034 19.403L109.034 55.7616L58.0078 26.3014L60.1909 44.5649L109.034 113.653L109.034 179.564L82.087 139.439L81.1721 128.554L66.5337 107.463L69.7042 142.062L125.307 225.696L179.795 205.623L180.728 191.871L141.808 138.482L141.808 159.594L163.399 190.253L141.808 198.486L141.808 159.594L141.808 138.482L141.808 91.7801L141.808 74.6833L141.808 38.3248ZM109.034 93.4381L109.034 72.8584L83.1309 57.903L109.034 93.4381Z" fill="#7A18D5"/>
<path d="M189.492 102.214L141.808 74.6833L141.808 91.7801L173.575 110.027L171.032 138.727L184.227 159.239L189.492 102.214Z" fill="#7A18D5"/>
</g>
</g>
<defs>
<filter id="filter0_d_1801_11058" x="58.0078" y="16.403" width="134.484" height="209.293" filterUnits="userSpaceOnUse" color-interpolation-filters="sRGB">
<feFlood flood-opacity="0" result="BackgroundImageFix"/>
<feColorMatrix in="SourceAlpha" type="matrix" values="0 0 0 0 0 0 0 0 0 0 0 0 0 0 0 0 0 0 127 0" result="hardAlpha"/>
<feOffset dx="3" dy="-3"/>
<feComposite in2="hardAlpha" operator="out"/>
<feColorMatrix type="matrix" values="0 0 0 0 0 0 0 0 0 0 0 0 0 0 0 0 0 0 1 0"/>
<feBlend mode="normal" in2="BackgroundImageFix" result="effect1_dropShadow_1801_11058"/>
<feBlend mode="normal" in="SourceGraphic" in2="effect1_dropShadow_1801_11058" result="shape"/>
</filter>
<clipPath id="clip0_1801_11058">
<rect width="250" height="250" fill="white"/>
</clipPath>
</defs>
</svg>
