<svg width="250" height="251" viewBox="0 0 250 251" fill="none" xmlns="http://www.w3.org/2000/svg">
<path d="M194.108 104.78V174.979L193.713 240.234C193.713 241.816 193.12 242.804 192.329 243.2L182.441 248.934C182.639 248.737 182.837 248.737 182.837 248.539L183.035 248.341C183.035 248.143 183.232 248.143 183.232 247.946C183.232 247.748 183.43 247.55 183.43 247.352C183.43 247.155 183.43 246.957 183.628 246.759C183.628 246.759 183.628 246.561 183.628 246.364C183.628 246.166 183.628 245.968 183.628 245.77L183.826 181.702L184.023 115.656V110.317L186.989 108.537L194.108 104.78Z" fill="white" stroke="#262626" stroke-width="0.75" stroke-miterlimit="10" stroke-linecap="round" stroke-linejoin="round"/>
<path d="M179.274 107.944L53.1142 34.9766L52.7188 170.43C52.7188 173.396 54.8939 177.154 57.4646 178.538L144.274 228.567L179.076 248.736C181.647 250.318 183.822 249.132 183.822 245.968L184.02 181.899L184.218 115.853V110.514L179.274 107.944Z" fill="white" stroke="#262626" stroke-width="0.75" stroke-miterlimit="10" stroke-linecap="round" stroke-linejoin="round"/>
<path d="M171.167 225.996C171.365 225.601 171.365 225.205 171.365 224.612L171.563 123.17C171.563 122.972 171.563 122.774 171.563 122.577C171.563 122.379 171.563 122.181 171.563 121.984C171.563 121.786 171.563 121.39 171.365 121.193C171.365 120.995 171.167 120.797 171.167 120.599C170.574 118.82 169.585 117.04 168.201 115.854C168.003 115.656 168.003 115.656 167.806 115.458C167.608 115.458 167.608 115.26 167.41 115.26C167.212 115.063 167.015 115.063 167.015 114.865L70.3186 59.1013C67.7479 57.5194 65.5728 58.7059 65.5728 61.8698L65.375 163.312C65.375 166.278 67.5502 170.035 70.1208 171.419L166.817 227.183C168.597 228.567 170.574 227.974 171.167 225.996Z" fill="white" stroke="#262626" stroke-width="0.75" stroke-miterlimit="10" stroke-linecap="round" stroke-linejoin="round"/>
<path d="M184.213 87.5763V91.3334V105.571V110.712L179.269 107.944L53.1094 34.9768V11.8408C53.1094 10.2589 53.7026 9.07243 54.6913 8.67694C54.8891 8.67694 55.0868 8.47925 55.0868 8.47925C55.2845 8.47925 55.4823 8.47925 55.68 8.47925C56.2733 8.47925 57.0642 8.67697 57.8552 9.07245L179.467 79.2711C182.038 80.853 184.213 84.6102 184.213 87.5763Z" fill="#262626" stroke="#262626" stroke-width="0.75" stroke-miterlimit="10" stroke-linecap="round" stroke-linejoin="round"/>
<path d="M194.106 81.8419V104.978L186.988 109.13L184.021 110.91V105.769V91.5313V87.7742C184.021 84.808 181.846 81.051 179.276 79.6668L57.6639 9.46814C56.8729 9.07266 56.2797 8.87488 55.4887 8.87488C55.291 8.87488 55.0933 8.87488 54.8955 8.87488C54.6978 8.87488 54.5 8.87489 54.5 9.07263L64.3871 3.33811C65.1781 2.74488 66.3646 2.94258 67.7488 3.73355L189.361 73.9322C192.129 75.1187 194.106 78.678 194.106 81.8419Z" fill="#ADADAD" stroke="#262626" stroke-width="0.75" stroke-miterlimit="10" stroke-linecap="round" stroke-linejoin="round"/>
<path d="M74.8756 33.3954C74.8756 35.5705 73.2936 36.3615 71.514 35.3728C69.7343 34.3841 68.1523 31.6157 68.1523 29.6383C68.1523 27.4631 69.7343 26.6721 71.514 27.6608C73.2936 28.6496 74.8756 31.2202 74.8756 33.3954Z" fill="#262626" stroke="white" stroke-width="0.75" stroke-miterlimit="10" stroke-linecap="round" stroke-linejoin="round"/>
<path d="M86.3326 40.9092C86.3326 43.0843 84.7507 43.8753 82.971 42.8866C81.1913 41.8979 79.6094 39.1295 79.6094 37.1521C79.6094 34.9769 81.1913 34.1859 82.971 35.1746C84.7507 36.1634 86.3326 38.734 86.3326 40.9092Z" fill="#262626" stroke="white" stroke-width="0.75" stroke-miterlimit="10" stroke-linecap="round" stroke-linejoin="round"/>
<path d="M98.5983 47.8307C98.5983 50.0058 97.0163 50.7968 95.2366 49.8081C93.457 48.8194 91.875 46.051 91.875 44.0736C91.875 41.8984 93.457 41.1074 95.2366 42.0962C97.2141 43.0849 98.5983 45.6555 98.5983 47.8307Z" fill="#262626" stroke="white" stroke-width="0.75" stroke-miterlimit="10" stroke-linecap="round" stroke-linejoin="round"/>
<path d="M94.0408 172.012L81.1875 164.498V138.396L94.0408 145.713V172.012Z" fill="#E84142" stroke="#262626" stroke-width="0.75" stroke-miterlimit="10" stroke-linecap="round" stroke-linejoin="round"/>
<path d="M114.406 183.679L101.75 176.363V118.227L114.406 125.741V183.679Z" fill="#FFAD28" stroke="#262626" stroke-width="0.75" stroke-miterlimit="10" stroke-linecap="round" stroke-linejoin="round"/>
<path d="M134.97 195.544L122.117 188.227V143.34L134.97 150.656V195.544Z" fill="#E06AE9" stroke="#262626" stroke-width="0.75" stroke-miterlimit="10" stroke-linecap="round" stroke-linejoin="round"/>
<path d="M155.338 207.408L142.484 199.894V123.961L155.338 131.277V207.408Z" fill="#7A18D5" stroke="#262626" stroke-width="0.75" stroke-miterlimit="10" stroke-linecap="round" stroke-linejoin="round"/>
<path d="M81.1875 79.0732L87.713 82.8303" stroke="#262626" stroke-width="0.75" stroke-miterlimit="10" stroke-linecap="round" stroke-linejoin="round"/>
<path d="M81.1875 83.8188L94.0408 91.1354" stroke="#262626" stroke-width="0.75" stroke-miterlimit="10" stroke-linecap="round" stroke-linejoin="round"/>
<path d="M81.1875 88.5648L94.0408 95.8813" stroke="#262626" stroke-width="0.75" stroke-miterlimit="10" stroke-linecap="round" stroke-linejoin="round"/>
</svg>
