<svg width="250" height="250" viewBox="0 0 250 250" fill="none" xmlns="http://www.w3.org/2000/svg">
<g clip-path="url(#clip0_1807_11659)">
<path d="M159.695 190.668L159.623 190.705L159.565 190.762L159.4 190.927L158.855 191.291L154.26 193.888L154.251 193.893L154.241 193.899C153.537 194.339 152.581 194.575 151.6 194.575C150.618 194.575 149.663 194.339 148.958 193.899L148.95 193.894L148.941 193.889L140.526 189.08L138.527 187.88L138.527 187.88L138.518 187.875L118.272 176.249L118.272 176.249L107.455 170.039L105.908 169.072L105.748 168.912L105.69 168.855L105.618 168.818C104.929 168.474 104.691 168.019 104.691 167.662V167.461C104.691 167.105 104.929 166.649 105.618 166.305L105.634 166.297L105.649 166.288L111.046 163.09C111.758 162.738 112.722 162.549 113.713 162.549C114.706 162.549 115.672 162.739 116.385 163.092L126.596 168.898L126.902 169.072L127.169 168.843C131.492 165.138 133.958 159.586 133.958 154.031V136.744L153.205 150.083V168.063C153.205 172.711 150.878 177.174 147.194 179.888L146.579 180.341L147.24 180.723L151.049 182.929L151.052 182.931L159.781 187.89C160.052 188.254 160.261 188.553 160.406 188.822C160.56 189.108 160.622 189.325 160.622 189.512C160.622 189.869 160.384 190.324 159.695 190.668Z" fill="white" stroke="#262626"/>
<mask id="path-2-inside-1_1807_11659" fill="white">
<path d="M153.305 163.252C150.9 161.448 148.294 160.045 145.688 158.641C144.886 158.24 143.884 157.84 143.082 158.04C142.08 158.24 141.278 159.243 140.677 160.045C139.474 161.849 138.472 163.653 137.269 165.457C136.066 167.261 134.462 168.664 132.658 169.667C130.654 170.468 128.248 170.468 126.645 169.065C129.852 166.66 131.856 162.851 132.658 159.042C133.46 155.033 133.46 150.423 133.26 146.413C134.262 147.015 138.672 150.222 141.478 151.425C144.686 152.828 147.893 154.833 150.9 156.637C151.702 157.038 152.504 157.639 152.905 158.441C153.706 159.844 153.306 161.448 152.905 163.051"/>
</mask>
<path d="M153.305 163.252C150.9 161.448 148.294 160.045 145.688 158.641C144.886 158.24 143.884 157.84 143.082 158.04C142.08 158.24 141.278 159.243 140.677 160.045C139.474 161.849 138.472 163.653 137.269 165.457C136.066 167.261 134.462 168.664 132.658 169.667C130.654 170.468 128.248 170.468 126.645 169.065C129.852 166.66 131.856 162.851 132.658 159.042C133.46 155.033 133.46 150.423 133.26 146.413C134.262 147.015 138.672 150.222 141.478 151.425C144.686 152.828 147.893 154.833 150.9 156.637C151.702 157.038 152.504 157.639 152.905 158.441C153.706 159.844 153.306 161.448 152.905 163.051" fill="#ADADAD"/>
<path d="M145.688 158.641L146.162 157.761L146.149 157.754L146.135 157.747L145.688 158.641ZM143.082 158.04L143.278 159.021L143.302 159.016L143.325 159.01L143.082 158.04ZM140.677 160.045L139.877 159.445L139.86 159.467L139.845 159.49L140.677 160.045ZM132.658 169.667L133.03 170.595L133.089 170.572L133.144 170.541L132.658 169.667ZM126.645 169.065L126.045 168.265L125.058 169.005L125.986 169.818L126.645 169.065ZM132.658 159.042L133.637 159.248L133.639 159.238L132.658 159.042ZM133.26 146.413L133.774 145.556L132.167 144.592L132.261 146.463L133.26 146.413ZM141.478 151.425L141.879 150.509L141.872 150.506L141.478 151.425ZM150.9 156.637L150.386 157.494L150.418 157.514L150.453 157.531L150.9 156.637ZM152.905 158.441L152.01 158.888L152.023 158.913L152.036 158.937L152.905 158.441ZM153.905 162.452C151.43 160.596 148.758 159.159 146.162 157.761L145.214 159.522C147.83 160.931 150.37 162.3 152.705 164.052L153.905 162.452ZM146.135 157.747C145.711 157.535 145.194 157.302 144.653 157.152C144.121 157.004 143.478 156.91 142.84 157.07L143.325 159.01C143.488 158.969 143.747 158.976 144.117 159.079C144.478 159.179 144.863 159.347 145.241 159.536L146.135 157.747ZM142.886 157.059C142.126 157.211 141.511 157.65 141.045 158.087C140.575 158.528 140.179 159.041 139.877 159.445L141.477 160.645C141.775 160.246 142.081 159.857 142.413 159.546C142.749 159.232 143.036 159.069 143.278 159.021L142.886 157.059ZM139.845 159.49C139.23 160.411 138.669 161.33 138.119 162.229C137.567 163.134 137.025 164.019 136.437 164.902L138.101 166.012C138.715 165.091 139.276 164.172 139.826 163.272C140.379 162.368 140.92 161.482 141.509 160.599L139.845 159.49ZM136.437 164.902C135.33 166.562 133.85 167.86 132.173 168.792L133.144 170.541C135.075 169.468 136.802 167.96 138.101 166.012L136.437 164.902ZM132.287 168.738C130.478 169.462 128.518 169.376 127.303 168.313L125.986 169.818C127.978 171.561 130.829 171.475 133.03 170.595L132.287 168.738ZM127.245 169.865C130.691 167.28 132.798 163.233 133.637 159.248L131.68 158.836C130.915 162.469 129.013 166.039 126.045 168.265L127.245 169.865ZM133.639 159.238C134.466 155.105 134.46 150.395 134.258 146.364L132.261 146.463C132.46 150.45 132.455 154.961 131.678 158.846L133.639 159.238ZM132.745 147.271C133.235 147.565 134.501 148.461 136.147 149.532C137.725 150.559 139.594 151.705 141.085 152.344L141.872 150.506C140.557 149.942 138.817 148.883 137.238 147.856C135.727 146.872 134.287 145.864 133.774 145.556L132.745 147.271ZM141.078 152.341C144.211 153.712 147.35 155.673 150.386 157.494L151.415 155.779C148.436 153.992 145.161 151.944 141.879 150.509L141.078 152.341ZM150.453 157.531C151.169 157.889 151.749 158.365 152.01 158.888L153.799 157.994C153.259 156.913 152.235 156.186 151.347 155.742L150.453 157.531ZM152.036 158.937C152.603 159.93 152.36 161.106 151.934 162.809L153.875 163.294C154.251 161.789 154.809 159.759 153.773 157.945L152.036 158.937Z" fill="#262626" mask="url(#path-2-inside-1_1807_11659)"/>
<path d="M157.721 150.021V168.263C157.721 173.876 155.315 179.088 151.106 182.696L147.297 180.491C151.106 177.685 153.511 173.074 153.511 168.263V150.021H157.721Z" fill="#262626" stroke="#262626" stroke-width="0.75" stroke-miterlimit="10" stroke-linecap="round" stroke-linejoin="round"/>
<path d="M161.122 189.512C161.122 190.113 160.721 190.715 159.919 191.115L159.718 191.316L159.117 191.717L154.506 194.323C152.903 195.325 150.297 195.325 148.693 194.323L140.274 189.512L138.269 188.309L118.023 176.682L107.198 170.468L105.595 169.466L105.394 169.266C104.592 168.865 104.191 168.263 104.191 167.662V167.461C104.191 166.86 104.592 166.259 105.394 165.858L110.807 162.65C112.41 161.849 115.016 161.849 116.62 162.65L126.843 168.464C131.053 164.855 133.458 159.443 133.458 154.031V135.789L153.705 149.821V168.063C153.705 172.874 151.299 177.484 147.49 180.291L151.299 182.496L160.119 187.507C160.721 188.309 161.122 188.91 161.122 189.512Z" stroke="#262626" stroke-width="0.75" stroke-miterlimit="10" stroke-linecap="round" stroke-linejoin="round"/>
<path d="M208.834 169.265V185.101C208.834 186.505 208.433 187.306 207.632 187.908C207.431 187.908 207.431 188.108 207.231 188.108C206.429 188.509 205.427 188.309 204.224 187.707L83.3476 117.948C80.9421 116.545 78.9375 113.137 78.9375 110.331V94.4944L88.3591 99.9067L208.834 169.265Z" fill="white" stroke="#262626" stroke-width="0.75" stroke-miterlimit="10" stroke-linecap="round" stroke-linejoin="round"/>
<path d="M208.833 83.4695V169.266L88.5583 99.907L79.1367 94.4947V8.49817C79.1367 6.8945 79.7382 5.89221 80.7405 5.4913C81.5423 5.09038 82.5445 5.29083 83.5468 5.89221L88.5583 8.89908L89.3602 9.29999L159.32 49.7925L167.138 54.403L204.223 75.8521C207.029 77.2553 208.833 80.6631 208.833 83.4695Z" fill="#ADADAD" stroke="#262626" stroke-width="0.75" stroke-miterlimit="10" stroke-linecap="round" stroke-linejoin="round"/>
<path d="M218.459 163.653V179.489C218.459 180.892 218.058 181.894 217.256 182.295L208.035 187.708C208.637 187.307 209.238 186.304 209.238 184.901V169.265L218.459 163.653Z" fill="#262626" stroke="#262626" stroke-width="0.75" stroke-miterlimit="10" stroke-linecap="round" stroke-linejoin="round"/>
<path d="M217.253 73.8475L207.631 79.2599C206.829 77.8567 205.626 76.4535 204.424 75.8521L167.339 54.4031L159.521 49.7925L89.5611 9.30002L88.7593 8.89911L83.7479 5.89224C82.7456 5.29087 81.7432 5.09041 80.9414 5.49133L89.962 0.279409C90.7638 -0.121507 91.9665 -0.121495 93.1693 0.479879L168.943 44.1797L176.76 48.7903L213.845 70.2393C215.248 71.0411 216.451 72.4443 217.253 73.8475Z" fill="white" stroke="#262626" stroke-width="0.75" stroke-miterlimit="10" stroke-linecap="round" stroke-linejoin="round"/>
<path d="M218.452 78.0571V163.853L209.031 169.266V83.4695C209.031 82.0663 208.63 80.6631 207.828 79.2599L217.45 73.8475C218.051 75.2507 218.452 76.6539 218.452 78.0571Z" fill="#262626" stroke="#262626" stroke-width="0.75" stroke-miterlimit="10" stroke-linecap="round" stroke-linejoin="round"/>
<path d="M161.123 189.512V194.323C161.123 194.924 160.722 195.526 159.92 195.926L154.508 199.134C152.904 199.936 150.298 199.936 148.694 199.134L105.195 174.077C104.393 173.676 103.992 172.874 103.992 172.272V167.662C103.992 168.263 104.393 168.865 105.195 169.266L105.395 169.466L106.999 170.468L117.824 176.682L138.07 188.309L140.075 189.512L148.494 194.323C150.098 195.325 152.703 195.325 154.307 194.323L158.918 191.717L159.519 191.316L159.719 191.115C160.722 190.715 161.123 190.113 161.123 189.512Z" fill="#262626" stroke="#262626" stroke-width="0.75" stroke-miterlimit="10" stroke-linecap="round" stroke-linejoin="round"/>
<path d="M172.154 226.396C172.154 227.599 171.352 228.802 169.748 229.603L169.147 230.004L167.944 230.606L145.092 243.836C142.085 245.64 136.873 245.64 133.866 243.836L37.045 187.908L33.8377 186.104L33.2364 185.703C31.8332 184.901 31.0312 183.698 31.0312 182.696V182.295C31.0312 181.093 31.8331 180.09 33.4368 179.288L58.0931 165.056C61.1 163.252 66.3119 163.252 69.3188 165.056L169.949 223.189C171.352 223.991 172.154 225.193 172.154 226.396Z" fill="white" stroke="#262626" stroke-width="0.75" stroke-miterlimit="10" stroke-linecap="round" stroke-linejoin="round"/>
<path d="M133.269 208.956C133.269 209.959 132.668 210.76 131.665 211.362L131.264 211.562L130.463 212.164L113.624 221.986C111.419 223.189 107.61 223.189 105.405 221.986L91.1727 213.767C90.5713 213.366 90.5713 212.364 91.1727 211.963L92.9769 210.961H93.1773C93.3777 210.76 93.5782 210.56 93.5782 210.36C93.5782 210.159 93.3777 209.959 93.1773 209.959L61.104 191.316C60.7031 191.116 59.9013 191.116 59.2999 191.316L57.6963 192.318C56.4935 193.12 54.8899 193.12 53.6871 192.318L44.2656 186.906L41.86 185.503L41.4591 185.302C40.4568 184.701 39.8555 183.899 39.8555 183.097V182.897C39.8555 182.095 40.4568 181.293 41.4591 180.692L59.5003 170.268C61.7054 169.065 65.5141 169.065 67.7192 170.268L131.665 207.152C132.668 207.152 133.269 207.954 133.269 208.956Z" fill="#ADADAD" stroke="#262626" stroke-width="0.75" stroke-miterlimit="10" stroke-linecap="round" stroke-linejoin="round"/>
<path d="M162.934 226.195C162.934 227.198 162.332 228 161.33 228.601L160.929 228.801L160.127 229.403L143.289 239.225C141.084 240.428 137.275 240.428 135.07 239.225L121.84 231.608L119.434 230.205L119.033 230.004C118.031 229.403 117.43 228.601 117.43 227.799V227.398C117.43 226.596 118.031 225.795 119.033 225.193L137.075 214.769C139.28 213.567 143.088 213.567 145.293 214.769L161.13 223.99C162.332 224.391 162.934 225.394 162.934 226.195Z" fill="#ADADAD" stroke="#262626" stroke-width="0.75" stroke-miterlimit="10" stroke-linecap="round" stroke-linejoin="round"/>
<path d="M172.153 226.396V231.207C172.153 232.41 171.351 233.613 169.747 234.414L145.091 248.647C142.084 250.451 136.872 250.451 133.865 248.647L33.2354 190.514C31.6317 189.512 30.8298 188.309 31.0303 187.106V182.696C31.0303 183.698 31.8322 184.901 33.2354 185.703L33.8367 186.104L37.044 187.908L133.865 243.836C136.872 245.64 142.084 245.64 145.091 243.836L167.943 230.606L169.146 230.004L169.747 229.603C171.351 228.802 172.153 227.599 172.153 226.396Z" fill="#262626" stroke="#262626" stroke-width="0.75" stroke-miterlimit="10" stroke-linecap="round" stroke-linejoin="round"/>
<path d="M86.5531 92.8912L200.614 158.842C201.816 159.644 203.42 158.641 203.42 157.238V97.1008L85.5508 28.9451V91.2875C85.7512 92.0894 85.9517 92.6907 86.5531 92.8912Z" fill="white" stroke="#262626" stroke-width="0.75" stroke-miterlimit="10" stroke-linecap="round" stroke-linejoin="round"/>
<path d="M85.7513 29.1451L203.621 97.3008V84.4715C203.621 83.6697 203.22 82.6674 202.418 82.2665L89.3595 16.9171C87.7559 15.9149 85.5508 17.1176 85.5508 19.1222V29.1451H85.7513Z" fill="#262626" stroke="#262626" stroke-width="0.75" stroke-miterlimit="10" stroke-linecap="round" stroke-linejoin="round"/>
<path d="M94.371 26.9407C94.371 28.3439 93.3687 28.9453 92.1659 28.1434C90.9632 27.3416 89.9609 25.7379 89.9609 24.3347C89.9609 22.9315 90.9632 22.3301 92.1659 23.132C93.3687 23.7333 94.371 25.5375 94.371 26.9407Z" fill="#E84142" stroke="#262626" stroke-width="0.75" stroke-miterlimit="10" stroke-linecap="round" stroke-linejoin="round"/>
<path d="M99.9104 31.8987C100.773 31.4005 100.755 29.7532 99.869 28.2192C98.9833 26.6852 97.5659 25.8454 96.703 26.3436C95.8402 26.8418 95.8586 28.4893 96.7443 30.0233C97.63 31.5573 99.0475 32.3969 99.9104 31.8987Z" fill="#FFAD28" stroke="#262626" stroke-width="0.75" stroke-miterlimit="10" stroke-linecap="round" stroke-linejoin="round"/>
<path d="M106.805 34.1567C106.805 35.5599 105.802 36.1613 104.6 35.3595C103.397 34.5576 102.395 32.954 102.395 31.5508C102.395 30.1476 103.397 29.5462 104.6 30.348C105.802 30.9494 106.805 32.7535 106.805 34.1567Z" fill="#ADADAD" stroke="#262626" stroke-width="0.75" stroke-miterlimit="10" stroke-linecap="round" stroke-linejoin="round"/>
<path d="M102.988 92.2893V87.0774L111.608 89.082V85.4738H120.428L129.248 90.4852L137.868 89.2825L142.479 88.4806L146.688 90.8861V117.347" stroke="#262626" stroke-width="0.75" stroke-miterlimit="10" stroke-linecap="round" stroke-linejoin="round"/>
<path d="M111.609 85.4738V97.3008" stroke="#262626" stroke-width="0.75" stroke-miterlimit="10" stroke-linecap="round" stroke-linejoin="round"/>
<path d="M120.434 85.4738V102.312" stroke="#262626" stroke-width="0.75" stroke-miterlimit="10" stroke-linecap="round" stroke-linejoin="round"/>
<path d="M129.25 90.4854V107.324" stroke="#262626" stroke-width="0.75" stroke-miterlimit="10" stroke-linecap="round" stroke-linejoin="round"/>
<path d="M137.875 89.2828V112.135" stroke="#262626" stroke-width="0.75" stroke-miterlimit="10" stroke-linecap="round" stroke-linejoin="round"/>
<path d="M111.008 62.2209L154.708 87.6791" stroke="#262626" stroke-width="0.75" stroke-miterlimit="10" stroke-linecap="round" stroke-linejoin="round"/>
<path d="M111.008 54.6035L134.261 68.0342" stroke="#262626" stroke-width="0.75" stroke-miterlimit="10" stroke-linecap="round" stroke-linejoin="round"/>
<path d="M95.9759 53.8021L104.796 59.014C105.598 59.4149 105.999 59.014 105.999 58.0117V53.4012C105.999 52.3989 105.398 51.3966 104.796 50.9957L95.9759 45.7838C95.1741 45.3828 94.7732 45.7838 94.7732 46.786V51.3966C94.5728 52.3989 95.1741 53.4012 95.9759 53.8021Z" fill="#FFAD28" stroke="#262626" stroke-width="0.75" stroke-miterlimit="10" stroke-linecap="round" stroke-linejoin="round"/>
<path d="M95.9759 69.4372L104.796 74.6491C105.598 75.05 105.999 74.6491 105.999 73.6468V69.0363C105.999 68.034 105.398 67.0317 104.796 66.6308L95.9759 61.4189C95.1741 61.018 94.7732 61.4189 94.7732 62.4212V67.0317C94.5728 67.8336 95.1741 69.0363 95.9759 69.4372Z" fill="#E84142" stroke="#262626" stroke-width="0.75" stroke-miterlimit="10" stroke-linecap="round" stroke-linejoin="round"/>
<path d="M102.993 87.0777L94.5742 82.2667V87.4786" stroke="#262626" stroke-width="0.75" stroke-miterlimit="10" stroke-linecap="round" stroke-linejoin="round"/>
<path d="M146.688 90.8864L154.706 95.4969V122.158" stroke="#262626" stroke-width="0.75" stroke-miterlimit="10" stroke-linecap="round" stroke-linejoin="round"/>
<path d="M94.5742 87.4785L154.712 122.158" stroke="#262626" stroke-width="0.75" stroke-miterlimit="10" stroke-linecap="round" stroke-linejoin="round"/>
<path d="M164.508 121.103C158.927 108.44 160.916 95.3094 168.932 91.7985C176.948 88.2673 187.988 95.6949 193.569 108.358C199.15 121.022 197.181 134.152 189.145 137.683C181.129 141.174 170.089 133.766 164.508 121.103Z" fill="#E84142" stroke="#151515" stroke-width="0.5" stroke-miterlimit="10"/>
<path d="M183.626 112.721V114.244L178.877 111.484L178.837 122.706L177.518 121.935L177.558 110.733L172.789 107.973L172.809 106.471L183.626 112.721Z" fill="white" stroke="black" stroke-width="0.5" stroke-miterlimit="10"/>
<path d="M178.165 125.263C173.031 122.3 168.871 115.096 168.891 109.19C168.911 103.285 173.092 100.91 178.226 103.873C183.361 106.836 187.521 114.041 187.5 119.946C187.5 125.831 183.3 128.226 178.165 125.263ZM178.246 102.189C172.3 98.7592 167.45 101.519 167.43 108.338C167.409 115.157 172.219 123.498 178.165 126.927C184.111 130.357 188.941 127.597 188.962 120.778C188.982 113.959 184.172 105.619 178.246 102.189Z" fill="white" stroke="black" stroke-width="0.5" stroke-miterlimit="10"/>
</g>
<defs>
<clipPath id="clip0_1807_11659">
<rect width="250" height="250" fill="white"/>
</clipPath>
</defs>
</svg>
