<svg width="250" height="250" viewBox="0 0 250 250" fill="none" xmlns="http://www.w3.org/2000/svg">
<path d="M61.6947 152.866C35.994 94.5493 44.9659 34.1761 81.7879 18.008C118.61 1.83996 169.264 36.0452 194.964 94.3624C220.665 152.679 211.693 213.053 174.871 229.221C138.049 245.389 87.3953 211.184 61.6947 152.866Z" fill="#3B2E56" stroke="#262626" stroke-width="0.5" stroke-miterlimit="10"/>
<path d="M54.5887 155.67C28.888 97.353 38.0468 36.8864 74.9623 20.7183C111.878 4.45683 162.718 38.6621 188.419 96.9792C214.12 155.296 205.054 215.763 168.045 232.025C131.13 248.099 80.2893 213.987 54.5887 155.67Z" fill="#E84142" stroke="#262626" stroke-width="0.5" stroke-miterlimit="10"/>
<path d="M142.625 117.072V124.082L120.756 111.371L120.569 163.053L114.494 159.502L114.681 107.914L92.7188 95.2034L92.8122 88.2876L142.625 117.072Z" fill="white" stroke="#262626" stroke-width="0.5" stroke-miterlimit="10"/>
<path d="M117.673 175.764C93.2805 161.838 73.5611 126.138 73.5611 98.4747C73.6546 70.8114 94.9628 60.3442 119.355 74.1759C143.747 88.0075 163.56 121.839 163.56 149.502C163.56 177.165 143 190.717 118.514 176.792L117.673 175.764ZM119.448 66.3255C91.131 50.2509 68.1406 63.1479 68.0472 95.2037C67.9537 127.166 90.8507 166.324 119.168 182.399C147.392 198.474 170.476 185.577 170.569 153.521C170.663 121.559 147.766 82.4001 119.448 66.3255Z" fill="#D0D2D3" stroke="#262626" stroke-width="0.5" stroke-miterlimit="10"/>
<path d="M117.486 174.829C93.8413 161.184 74.6826 128.007 74.7761 100.811C74.8695 73.6151 94.1217 62.6807 117.766 76.3254C141.411 89.9701 160.57 123.147 160.476 150.343C160.476 177.446 141.131 188.474 117.486 174.829ZM117.86 68.5685C90.4768 52.7743 68.1406 65.4844 68.0472 96.8859C67.9537 128.287 90.103 166.698 117.486 182.492C144.869 198.287 167.112 185.577 167.205 154.175C167.298 122.773 145.149 84.3627 117.86 68.5685Z" fill="white" stroke="#262626" stroke-width="0.5" stroke-miterlimit="10"/>
</svg>
