<svg width="250" height="251" viewBox="0 0 250 251" fill="none" xmlns="http://www.w3.org/2000/svg">
<path d="M180 192.177L127.5 59.1771L66 144.677L180 192.177Z" stroke="black" stroke-width="5"/>
<path d="M96.5742 14.8593L105.058 9.92536C112.714 5.78609 123.026 6.25629 134.271 12.3427C157.319 24.8267 175.585 56.2122 175.048 82.4188C174.796 95.2472 170.081 104.446 162.644 109.056C162.478 109.168 162.306 109.268 162.14 109.367L153.723 114.268C155.139 113.442 156.456 112.458 157.65 111.334C158.919 110.14 160.05 108.807 161.021 107.36C164.438 102.353 166.478 95.5717 166.637 87.2866C167.174 61.0801 148.908 29.668 125.854 17.2171C118.43 13.2036 111.423 11.6142 105.323 12.2301C103.704 12.3659 102.105 12.6791 100.555 13.1639C99.1742 13.5939 97.8407 14.1619 96.5742 14.8593Z" fill="#231F20" stroke="#231F20" stroke-width="0.75" stroke-linecap="round" stroke-linejoin="round"/>
<path d="M96.0513 15.1639L96.5745 14.8592C97.8399 14.1713 99.1712 13.6122 100.548 13.1903C102.099 12.7055 103.698 12.3923 105.317 12.2565C111.436 11.6405 118.443 13.23 125.847 17.2435C148.901 29.7209 167.167 61.1064 166.631 87.313C166.472 95.5981 164.432 102.38 161.015 107.387C160.044 108.833 158.913 110.166 157.644 111.36C156.45 112.484 155.133 113.469 153.716 114.294C146.001 118.785 135.451 118.447 123.914 112.195C100.859 99.7175 82.5937 68.332 83.1368 42.1254C83.3951 29.0189 88.3291 19.6873 96.0447 15.197L96.0513 15.1639Z" fill="white" stroke="#231F20" stroke-width="0.75" stroke-linecap="round" stroke-linejoin="round"/>
<path d="M149.945 107.715C163.668 99.728 163.578 73.9844 149.744 50.215C135.91 26.4456 113.571 13.6513 99.8476 21.6383C86.1247 29.6253 86.2148 55.3689 100.049 79.1383C113.883 102.908 136.222 115.702 149.945 107.715Z" fill="white" stroke="#231F20" stroke-width="0.75" stroke-linecap="round" stroke-linejoin="round"/>
<path d="M105 32.1775L144.023 54.7074L143.581 59.938L105.575 37.8929L105 32.1775Z" fill="#7A18D5"/>
<path d="M112.249 65.5524L124.999 84.5485L125.495 88.1937L124.999 91.1059L108.537 66.5475L112.249 65.5524Z" fill="#7A18D5"/>
<path d="M112.026 62.6419L112.269 65.6399L110.821 66.798L108.535 66.5457L107.452 56.0206L112.026 62.6419Z" fill="#7A18D5"/>
<path d="M137.418 80.2361L124.999 84.5481L124.756 87.6482L124.999 91.1055L141.218 85.288L140.24 79.7661L137.418 80.2361Z" fill="#7A18D5"/>
<path d="M118.213 63.4594L134.145 72.6576L132.576 76.5231L117.086 67.5801L118.213 63.4594Z" fill="#7A18D5"/>
<path d="M105.566 37.7137L110.241 40.0244L111.102 53.1009L107.103 52.9861L105.566 37.7137Z" fill="#7A18D5"/>
<path d="M107.098 52.9849L111.053 52.9466L118.544 63.7013L117.084 67.5785L107.098 52.9849Z" fill="#7A18D5"/>
<path d="M107.098 52.9849L111.053 52.9466L118.544 63.7013L117.084 67.5785L107.098 52.9849Z" fill="#7A18D5"/>
<path d="M139.558 57.0111L143.624 59.4014L142.52 71.8019L138.763 66.0099L139.558 57.0111Z" fill="#7A18D5"/>
<rect width="18.524" height="4.79686" transform="matrix(0.866025 0.5 -2.20305e-08 1 117.023 50.3964)" fill="#7A18D5"/>
<path d="M133.066 59.6599L142.211 73.6659L138.698 74.4952L130.353 61.9718L133.066 59.6599Z" fill="#7A18D5"/>
<path d="M142.211 73.6656L141.217 85.2878L137.416 80.2358L138.003 70.9809L142.211 73.6656Z" fill="#7A18D5"/>
<path d="M111.805 52.36L117.02 50.3954L119.826 55.154L115.097 56.94L111.805 52.36Z" fill="#7A18D5"/>
<path d="M131.297 70.9864L134.346 69.8637L136.954 74.2013L132.578 76.5232L131.297 70.9864Z" fill="#7A18D5"/>
<path d="M38.5742 95.8598L47.0581 90.9258C54.714 86.7866 65.0258 87.2568 76.2713 93.3432C99.3188 105.827 117.585 137.213 117.048 163.419C116.796 176.248 112.081 185.447 104.644 190.056C104.478 190.169 104.306 190.268 104.14 190.368L95.7226 195.268C97.1388 194.443 98.4564 193.458 99.6499 192.335C100.919 191.141 102.05 189.808 103.021 188.361C106.438 183.354 108.478 176.572 108.637 168.287C109.174 142.081 90.9078 110.668 67.8537 98.2175C60.4295 94.2041 53.4226 92.6147 47.3229 93.2306C45.7041 93.3664 44.1051 93.6796 42.5545 94.1644C41.1742 94.5944 39.8407 95.1624 38.5742 95.8598Z" fill="#231F20" stroke="#231F20" stroke-width="0.75" stroke-linecap="round" stroke-linejoin="round"/>
<path d="M38.0513 96.1644L38.5745 95.8597C39.8399 95.1718 41.1712 94.6127 42.5482 94.1908C44.0988 93.706 45.6978 93.3928 47.3167 93.257C53.4362 92.641 60.4431 94.2305 67.8474 98.244C90.9015 110.721 109.167 142.107 108.631 168.313C108.472 176.599 106.432 183.38 103.015 188.387C102.044 189.834 100.913 191.167 99.6436 192.361C98.4501 193.485 97.1325 194.469 95.7163 195.295C88.0007 199.785 77.4505 199.447 65.9135 193.195C42.8595 180.718 24.5937 149.332 25.1368 123.126C25.3951 110.019 30.3291 100.688 38.0447 96.1975L38.0513 96.1644Z" fill="white" stroke="#231F20" stroke-width="0.75" stroke-linecap="round" stroke-linejoin="round"/>
<path d="M91.9455 188.715C105.668 180.728 105.578 154.985 91.7442 131.215C77.91 107.446 55.5706 94.6518 41.8476 102.639C28.1247 110.626 28.2148 136.369 42.0489 160.139C55.883 183.908 78.2225 196.702 91.9455 188.715Z" fill="white" stroke="#231F20" stroke-width="0.75" stroke-linecap="round" stroke-linejoin="round"/>
<g clip-path="url(#clip0_1940_2136)">
<path d="M74.2922 154.347L79.1633 162.786L65.9806 170.411L52.7998 147.568L57.6709 144.75L65.9824 159.204L74.2922 154.347ZM82.6055 149.541L87.516 158.003L82.6485 160.82L77.7774 152.381L82.6055 149.541ZM65.9824 139.943L70.8517 148.332L65.9806 151.15L61.1113 142.758L65.9806 139.944L65.9824 139.943ZM49.3576 130.345L54.1874 138.761L49.3612 141.552L44.4883 133.161L49.3576 130.345ZM65.9842 120.729L79.1651 143.526L74.294 146.339L65.9824 131.935L57.6727 136.793L52.8016 128.353L65.9824 120.73L65.9842 120.729Z" fill="#F3BA2F"/>
</g>
<path d="M149.574 135.86L158.058 130.926C165.714 126.787 176.026 127.257 187.271 133.343C210.319 145.827 228.585 177.213 228.048 203.419C227.796 216.248 223.081 225.447 215.644 230.056C215.478 230.169 215.306 230.268 215.14 230.368L206.723 235.268C208.139 234.443 209.456 233.458 210.65 232.335C211.919 231.141 213.05 229.808 214.021 228.361C217.438 223.354 219.478 216.572 219.637 208.287C220.174 182.081 201.908 150.668 178.854 138.218C171.43 134.204 164.423 132.615 158.323 133.231C156.704 133.366 155.105 133.68 153.555 134.164C152.174 134.594 150.841 135.162 149.574 135.86Z" fill="#231F20" stroke="#231F20" stroke-width="0.75" stroke-linecap="round" stroke-linejoin="round"/>
<path d="M149.051 136.164L149.575 135.86C150.84 135.172 152.171 134.613 153.548 134.191C155.099 133.706 156.698 133.393 158.317 133.257C164.436 132.641 171.443 134.231 178.847 138.244C201.901 150.721 220.167 182.107 219.631 208.313C219.472 216.599 217.432 223.38 214.015 228.387C213.044 229.834 211.913 231.167 210.644 232.361C209.45 233.485 208.133 234.469 206.716 235.295C199.001 239.785 188.451 239.447 176.914 233.195C153.859 220.718 135.594 189.332 136.137 163.126C136.395 150.019 141.329 140.688 149.045 136.197L149.051 136.164Z" fill="white" stroke="#231F20" stroke-width="0.75" stroke-linecap="round" stroke-linejoin="round"/>
<path d="M202.945 228.715C216.668 220.728 216.578 194.985 202.744 171.215C188.91 147.446 166.571 134.652 152.848 142.639C139.125 150.626 139.215 176.369 153.049 200.139C166.883 223.908 189.222 236.702 202.945 228.715Z" fill="white" stroke="#231F20" stroke-width="0.75" stroke-linecap="round" stroke-linejoin="round"/>
<path d="M177.71 199.488L192.203 197.979L177.719 213.194L163.218 181.245L177.719 199.493L177.71 199.488ZM177.495 158.545L191.982 194.674L177.495 196.203L163.001 177.952L177.495 158.545Z" fill="#4CD4D6"/>
<defs>
<clipPath id="clip0_1940_2136">
<rect width="62.1052" height="62.1052" fill="white" transform="matrix(0.866025 0.5 -2.20305e-08 1 39.1094 99.1481)"/>
</clipPath>
</defs>
</svg>
