<svg width="250" height="251" viewBox="0 0 250 251" fill="none" xmlns="http://www.w3.org/2000/svg">
<path d="M180 193L127.5 60L66 145.5L180 193Z" stroke="black" stroke-width="5"/>
<path d="M96.5742 15.6823L105.058 10.7483C112.714 6.60903 123.026 7.07922 134.271 13.1656C157.319 25.6496 175.585 57.0352 175.048 83.2417C174.796 96.0701 170.081 105.269 162.644 109.879C162.478 109.991 162.306 110.091 162.14 110.19L153.723 115.091C155.139 114.265 156.456 113.281 157.65 112.157C158.919 110.963 160.05 109.63 161.021 108.183C164.438 103.176 166.478 96.3947 166.637 88.1095C167.174 61.903 148.908 30.4909 125.854 18.04C118.43 14.0266 111.423 12.4371 105.323 13.053C103.704 13.1889 102.105 13.502 100.555 13.9868C99.1742 14.4168 97.8407 14.9848 96.5742 15.6823Z" fill="#231F20" stroke="#231F20" stroke-width="0.75" stroke-linecap="round" stroke-linejoin="round"/>
<path d="M96.0513 15.9868L96.5745 15.6821C97.8399 14.9942 99.1712 14.4351 100.548 14.0132C102.099 13.5284 103.698 13.2152 105.317 13.0793C111.436 12.4634 118.443 14.0529 125.847 18.0664C148.901 30.5438 167.167 61.9293 166.631 88.1358C166.472 96.421 164.432 103.203 161.015 108.21C160.044 109.656 158.913 110.989 157.644 112.183C156.45 113.307 155.133 114.292 153.716 115.117C146.001 119.607 135.451 119.27 123.914 113.018C100.859 100.54 82.5937 69.1548 83.1368 42.9483C83.3951 29.8417 88.3291 20.5102 96.0447 16.0199L96.0513 15.9868Z" fill="white" stroke="#231F20" stroke-width="0.75" stroke-linecap="round" stroke-linejoin="round"/>
<path d="M149.945 108.538C163.668 100.551 163.578 74.8072 149.744 51.0378C135.91 27.2684 113.571 14.4742 99.8476 22.4612C86.1247 30.4481 86.2148 56.1918 100.049 79.9612C113.883 103.731 136.222 116.525 149.945 108.538Z" fill="white" stroke="#231F20" stroke-width="0.75" stroke-linecap="round" stroke-linejoin="round"/>
<path d="M105 33.0004L144.023 55.5303L143.581 60.7609L105.575 38.7158L105 33.0004Z" fill="#7A18D5"/>
<path d="M112.249 66.3754L124.999 85.3715L125.495 89.0167L124.999 91.9289L108.537 67.3705L112.249 66.3754Z" fill="#7A18D5"/>
<path d="M112.026 63.4648L112.269 66.4628L110.821 67.6209L108.535 67.3686L107.452 56.8435L112.026 63.4648Z" fill="#7A18D5"/>
<path d="M137.418 81.0589L124.999 85.371L124.756 88.4711L124.999 91.9284L141.218 86.1109L140.24 80.589L137.418 81.0589Z" fill="#7A18D5"/>
<path d="M118.213 64.2822L134.145 73.4805L132.576 77.346L117.086 68.4029L118.213 64.2822Z" fill="#7A18D5"/>
<path d="M105.566 38.5366L110.241 40.8473L111.102 53.9238L107.103 53.809L105.566 38.5366Z" fill="#7A18D5"/>
<path d="M107.098 53.8077L111.053 53.7695L118.544 64.5241L117.084 68.4014L107.098 53.8077Z" fill="#7A18D5"/>
<path d="M107.098 53.8077L111.053 53.7695L118.544 64.5241L117.084 68.4014L107.098 53.8077Z" fill="#7A18D5"/>
<path d="M139.558 57.8339L143.624 60.2243L142.52 72.6247L138.763 66.8328L139.558 57.8339Z" fill="#7A18D5"/>
<rect width="18.524" height="4.79686" transform="matrix(0.866025 0.5 -2.20305e-08 1 117.023 51.2194)" fill="#7A18D5"/>
<path d="M133.066 60.4827L142.211 74.4887L138.698 75.318L130.353 62.7946L133.066 60.4827Z" fill="#7A18D5"/>
<path d="M142.211 74.4885L141.217 86.1107L137.416 81.0587L138.003 71.8038L142.211 74.4885Z" fill="#7A18D5"/>
<path d="M111.805 53.1829L117.02 51.2183L119.826 55.9769L115.097 57.7628L111.805 53.1829Z" fill="#7A18D5"/>
<path d="M131.297 71.8092L134.346 70.6866L136.954 75.0242L132.578 77.346L131.297 71.8092Z" fill="#7A18D5"/>
<path d="M38.5742 96.6828L47.0581 91.7488C54.714 87.6095 65.0258 88.0797 76.2713 94.1661C99.3188 106.65 117.585 138.036 117.048 164.242C116.796 177.071 112.081 186.27 104.644 190.879C104.478 190.992 104.306 191.091 104.14 191.191L95.7226 196.091C97.1388 195.266 98.4564 194.281 99.6499 193.157C100.919 191.964 102.05 190.631 103.021 189.184C106.438 184.177 108.478 177.395 108.637 169.11C109.174 142.903 90.9078 111.491 67.8537 99.0405C60.4295 95.027 53.4226 93.4376 47.3229 94.0535C45.7041 94.1894 44.1051 94.5025 42.5545 94.9873C41.1742 95.4173 39.8407 95.9853 38.5742 96.6828Z" fill="#231F20" stroke="#231F20" stroke-width="0.75" stroke-linecap="round" stroke-linejoin="round"/>
<path d="M38.0513 96.9873L38.5745 96.6826C39.8399 95.9947 41.1712 95.4356 42.5482 95.0137C44.0988 94.5289 45.6978 94.2157 47.3167 94.0798C53.4362 93.4639 60.4431 95.0534 67.8474 99.0668C90.9015 111.544 109.167 142.93 108.631 169.136C108.472 177.421 106.432 184.203 103.015 189.21C102.044 190.657 100.913 191.99 99.6436 193.184C98.4501 194.308 97.1325 195.292 95.7163 196.118C88.0007 200.608 77.4505 200.27 65.9135 194.018C42.8595 181.541 24.5937 150.155 25.1368 123.949C25.3951 110.842 30.3291 101.511 38.0447 97.0204L38.0513 96.9873Z" fill="white" stroke="#231F20" stroke-width="0.75" stroke-linecap="round" stroke-linejoin="round"/>
<path d="M91.9455 189.538C105.668 181.551 105.578 155.808 91.7442 132.038C77.91 108.269 55.5706 95.4747 41.8476 103.462C28.1247 111.449 28.2148 137.192 42.0489 160.962C55.883 184.731 78.2225 197.525 91.9455 189.538Z" fill="white" stroke="#231F20" stroke-width="0.75" stroke-linecap="round" stroke-linejoin="round"/>
<path d="M77.231 151.215C79.5141 151.185 80.9672 149.603 80.6299 145.36C80.1886 139.564 76.3102 135.435 71.1736 131.906L71.1736 124.24L67.1779 121.898L67.1779 129.351C66.1398 128.742 65.0766 128.15 64.0121 127.555L64.0121 120.042L60.0164 117.699L60.0164 125.365C58.5475 124.557 56.8362 123.527 52 120.666L52 125.655C55.1539 127.439 56.8099 128.172 57.1893 130.765L57.1893 151.755C56.9482 153.495 55.6637 152.472 52.8049 150.737L52.0013 155.833C59.2866 160.104 60.0191 160.564 60.0191 160.564L60.0191 167.129L64.0148 169.471L64.0148 162.998C65.1043 163.667 66.1674 164.291 67.1805 164.884L67.1805 171.329L71.1762 173.671L71.1762 167.106C77.87 170.604 82.3452 171.251 82.942 164.208C83.4084 158.55 81.0225 154.504 77.2337 151.218L77.231 151.215ZM64.0899 133.078C66.3466 134.401 73.4039 137.716 73.4039 143.223C73.4039 148.485 66.3466 143.739 64.0899 142.416L64.0899 133.078ZM64.0899 157.382L64.0899 147.1C66.7879 148.681 75.0507 152.643 75.0507 158.666C75.0507 164.477 66.7879 158.962 64.0899 157.381L64.0899 157.382Z" fill="#EFA143"/>
<path d="M149.574 136.683L158.058 131.749C165.714 127.61 176.026 128.08 187.271 134.166C210.319 146.65 228.585 178.036 228.048 204.242C227.796 217.071 223.081 226.27 215.644 230.879C215.478 230.992 215.306 231.091 215.14 231.191L206.723 236.091C208.139 235.266 209.456 234.281 210.65 233.157C211.919 231.964 213.05 230.631 214.021 229.184C217.438 224.177 219.478 217.395 219.637 209.11C220.174 182.903 201.908 151.491 178.854 139.04C171.43 135.027 164.423 133.438 158.323 134.054C156.704 134.189 155.105 134.503 153.555 134.987C152.174 135.417 150.841 135.985 149.574 136.683Z" fill="#231F20" stroke="#231F20" stroke-width="0.75" stroke-linecap="round" stroke-linejoin="round"/>
<path d="M149.051 136.987L149.575 136.683C150.84 135.995 152.171 135.436 153.548 135.014C155.099 134.529 156.698 134.216 158.317 134.08C164.436 133.464 171.443 135.053 178.847 139.067C201.901 151.544 220.167 182.93 219.631 209.136C219.472 217.421 217.432 224.203 214.015 229.21C213.044 230.657 211.913 231.99 210.644 233.184C209.45 234.308 208.133 235.292 206.716 236.118C199.001 240.608 188.451 240.27 176.914 234.018C153.859 221.541 135.594 190.155 136.137 163.949C136.395 150.842 141.329 141.511 149.045 137.02L149.051 136.987Z" fill="white" stroke="#231F20" stroke-width="0.75" stroke-linecap="round" stroke-linejoin="round"/>
<path d="M202.945 229.538C216.668 221.551 216.578 195.808 202.744 172.038C188.91 148.269 166.571 135.475 152.848 143.462C139.125 151.449 139.215 177.192 153.049 200.962C166.883 224.731 189.222 237.525 202.945 229.538Z" fill="white" stroke="#231F20" stroke-width="0.75" stroke-linecap="round" stroke-linejoin="round"/>
<path d="M177.71 200.31L192.203 198.802L177.719 214.017L163.218 182.067L177.719 200.316L177.71 200.31ZM177.495 159.368L191.982 195.497L177.495 197.026L163.001 178.775L177.495 159.368Z" fill="#4CD4D6"/>
</svg>
