<svg width="250" height="250" viewBox="0 0 250 250" fill="none" xmlns="http://www.w3.org/2000/svg">
<path d="M169.388 191.323C183.706 183.063 190.876 172.159 190.7 161.333V143.16C190.559 146.19 189.888 149.172 188.717 151.971C187.426 155.016 185.677 157.847 183.53 160.363C179.526 165.009 174.73 168.91 169.366 171.884C140.884 188.306 94.681 188.251 66.2211 171.796C60.5382 168.643 55.513 164.43 51.4185 159.383C49.5921 157.063 48.1084 154.493 47.0129 151.751C45.7574 148.8 45.0735 145.638 44.9974 142.433V162.192C45.2177 172.743 52.3326 183.261 66.3313 191.323C94.692 207.767 140.862 207.844 169.388 191.323Z" fill="white" stroke="#231F20" stroke-width="0.75" stroke-linecap="round" stroke-linejoin="round"/>
<path d="M169.41 171.84C174.775 168.866 179.57 164.965 183.574 160.319C185.721 157.803 187.47 154.973 188.762 151.927C188.074 150.187 187.202 148.526 186.162 146.971C182.638 141.464 177.087 136.254 169.41 131.86C140.95 115.339 94.7583 115.339 66.2764 131.761C58.8641 136.034 53.3792 141.045 49.8327 146.31C48.6674 147.998 47.7027 149.817 46.9581 151.729C48.0536 154.471 49.5373 157.041 51.3636 159.361C55.4733 164.404 60.5135 168.611 66.2103 171.752C94.6922 188.207 140.95 188.262 169.41 171.84Z" fill="white" stroke="#231F20" stroke-width="0.75" stroke-linecap="round" stroke-linejoin="round"/>
<path d="M169.41 171.84C174.774 168.866 179.569 164.965 183.574 160.319C185.721 157.803 187.47 154.973 188.761 151.927C189.932 149.128 190.603 146.146 190.744 143.116V142.863C191.118 131.849 183.992 120.747 169.399 112.354C140.939 95.8333 94.824 95.8333 66.298 112.354C51.8589 120.681 44.7879 131.606 44.9421 142.51C45.0182 145.716 45.7022 148.877 46.9577 151.828C48.0532 154.57 49.5369 157.14 51.3632 159.46C55.4728 164.503 60.5131 168.71 66.2099 171.851C94.6918 188.207 140.95 188.262 169.41 171.84Z" fill="#FFAD28" stroke="#231F20" stroke-width="0.75" stroke-linecap="round" stroke-linejoin="round"/>
<path d="M174.313 144.239C175.899 136.144 170.469 127.795 157.98 121.584C135.831 110.57 99.9144 110.57 77.7435 121.517C65.2868 127.696 59.824 136.045 61.3879 144.129C62.6435 137.873 68.1284 131.804 77.7545 127.035C99.9255 116.022 135.842 116.088 157.991 127.101C167.639 131.848 173.069 137.994 174.313 144.239Z" fill="#231F20" stroke="#231F20" stroke-width="0.75" stroke-linecap="round" stroke-linejoin="round"/>
<path d="M174.309 144.239C173.064 137.994 167.634 131.893 157.986 127.102C135.837 116.088 99.9209 116.088 77.7499 127.036C68.1238 131.805 62.6389 137.873 61.3833 144.129C62.5618 150.407 67.9917 156.498 77.6949 161.311C99.8328 172.325 135.749 172.325 157.931 161.388C167.623 156.597 173.097 150.506 174.309 144.239Z" fill="#FFAD28" stroke="#231F20" stroke-width="0.75" stroke-linecap="round" stroke-linejoin="round"/>
<path d="M101.09 151.696L95.4177 154.967" stroke="#231F20" stroke-width="0.75" stroke-linecap="round" stroke-linejoin="round"/>
<path d="M140.93 128.732L135.235 132.014" stroke="#231F20" stroke-width="0.75" stroke-linecap="round" stroke-linejoin="round"/>
<path d="M118.163 141.849C123.34 144.845 131.38 145.076 136.072 142.356C140.764 139.635 140.411 135.01 135.235 132.014C130.058 129.018 122.018 128.798 117.326 131.518" stroke="#231F20" stroke-width="0.75" stroke-linecap="round" stroke-linejoin="round"/>
<path d="M118.163 141.849C112.986 138.864 104.946 138.633 100.254 141.353C95.5625 144.074 95.9149 148.7 101.091 151.696C106.268 154.691 114.308 154.912 119 152.191" stroke="#231F20" stroke-width="0.75" stroke-linecap="round" stroke-linejoin="round"/>
<path d="M169.39 191.323C183.709 183.063 190.89 172.159 190.691 161.333V143.149C190.568 146.179 189.905 149.163 188.731 151.96C187.448 155.003 185.698 157.828 183.543 160.33C179.537 164.974 174.742 168.874 169.379 171.851C165.734 173.936 161.925 175.723 157.991 177.193V196.698C161.932 195.222 165.744 193.425 169.39 191.323Z" fill="#2B2829" stroke="#231F20" stroke-width="0.75" stroke-linecap="round" stroke-linejoin="round"/>
<g style="mix-blend-mode:multiply">
<path d="M158.035 196.676V177.171C133.067 186.698 100.212 186.422 75.7395 176.345V195.905C100.201 205.972 133.067 206.247 158.035 196.676Z" fill="#CCCCCC"/>
</g>
<path d="M183.695 166.256C198.013 157.996 205.183 147.092 204.996 136.254H205.051V118.048C204.919 121.08 204.248 124.064 203.068 126.859C201.785 129.903 200.039 132.731 197.892 135.241C193.891 139.894 189.095 143.798 183.728 146.772C155.246 163.183 109.043 163.139 80.583 146.684C74.8803 143.538 69.8361 139.324 65.7253 134.272C63.8795 131.955 62.3772 129.384 61.2646 126.639C60.0091 123.689 59.3252 120.527 59.2491 117.321V137.08C59.4584 147.632 66.5843 158.15 80.583 166.212C109.01 182.678 155.169 182.7 183.695 166.256Z" fill="white" stroke="#231F20" stroke-width="0.75" stroke-linecap="round" stroke-linejoin="round"/>
<path d="M183.718 146.75C189.086 143.776 193.882 139.872 197.882 135.219C200.029 132.709 201.775 129.881 203.059 126.837C202.361 125.113 201.479 123.47 200.426 121.936C196.902 116.429 191.351 111.22 183.674 106.825C155.214 90.3043 109.011 90.3043 80.5402 106.726C73.1169 110.999 67.643 116.011 64.0965 121.275C62.9313 122.964 61.9666 124.782 61.2219 126.694C62.3345 129.439 63.8368 132.01 65.6825 134.327C69.7921 139.37 74.8324 143.576 80.5292 146.717C109.011 163.117 155.269 163.161 183.718 146.75Z" fill="white" stroke="#231F20" stroke-width="0.75" stroke-linecap="round" stroke-linejoin="round"/>
<path d="M183.719 146.75C189.086 143.776 193.882 139.872 197.882 135.219C200.03 132.708 201.776 129.881 203.059 126.837C204.238 124.041 204.91 121.058 205.041 118.026V117.696C205.405 106.682 198.279 95.5798 183.697 87.1873C155.237 70.6664 109.122 70.6664 80.5847 87.1873C66.1565 95.5137 59.0856 106.44 59.2398 117.343C59.3159 120.549 59.9998 123.711 61.2553 126.661C62.3679 129.406 63.8702 131.977 65.7159 134.294C69.8256 139.337 74.8658 143.543 80.5627 146.684C109.011 163.117 155.27 163.161 183.719 146.75Z" fill="#FFAD28" stroke="#231F20" stroke-width="0.75" stroke-linecap="round" stroke-linejoin="round"/>
<path d="M188.618 119.15C190.204 111.054 184.763 102.706 172.274 96.4941C150.136 85.4803 114.22 85.4803 92.0486 96.4281C79.5919 102.607 74.129 110.955 75.693 119.04C76.9486 112.784 82.4335 106.715 92.0596 101.946C114.231 90.9321 150.147 90.9982 172.296 102.012C181.933 106.803 187.374 112.905 188.618 119.15Z" fill="#231F20" stroke="#231F20" stroke-width="0.75" stroke-linecap="round" stroke-linejoin="round"/>
<path d="M188.621 119.149C187.377 112.905 181.936 106.803 172.299 102.012C150.15 90.998 114.233 90.998 92.0624 101.946C82.4363 106.715 76.9514 112.783 75.6958 119.039C76.8853 125.317 82.3042 131.408 92.0074 136.221C114.156 147.235 150.073 147.235 172.243 136.287C181.936 131.507 187.399 125.416 188.621 119.149Z" fill="#FFAD28" stroke="#231F20" stroke-width="0.75" stroke-linecap="round" stroke-linejoin="round"/>
<path d="M115.398 126.606L109.726 129.877" stroke="#231F20" stroke-width="0.75" stroke-linecap="round" stroke-linejoin="round"/>
<path d="M155.234 103.642L149.54 106.924" stroke="#231F20" stroke-width="0.75" stroke-linecap="round" stroke-linejoin="round"/>
<path d="M132.468 116.76C137.644 119.755 145.684 119.987 150.376 117.266C155.068 114.546 154.716 109.92 149.539 106.924C144.363 103.928 136.323 103.708 131.631 106.429" stroke="#231F20" stroke-width="0.75" stroke-linecap="round" stroke-linejoin="round"/>
<path d="M132.468 116.759C127.291 113.775 119.251 113.543 114.559 116.264C109.867 118.984 110.22 123.61 115.396 126.606C120.573 129.602 128.613 129.822 133.305 127.101" stroke="#231F20" stroke-width="0.75" stroke-linecap="round" stroke-linejoin="round"/>
<path d="M183.695 166.256C198.013 157.996 205.194 147.092 204.996 136.265H205.051V118.092C204.928 121.123 204.264 124.107 203.09 126.903C201.808 129.949 200.054 132.774 197.892 135.274C193.887 139.92 189.092 143.82 183.728 146.794C180.085 148.884 176.276 150.671 172.34 152.136V171.642C176.266 170.16 180.063 168.359 183.695 166.256Z" fill="#2B2829" stroke="#231F20" stroke-width="0.75" stroke-linecap="round" stroke-linejoin="round"/>
<g style="mix-blend-mode:multiply">
<path d="M172.34 171.587V152.081C147.382 161.608 114.528 161.333 90.0442 151.255V170.816C114.517 180.882 147.36 181.158 172.34 171.587Z" fill="#CCCCCC"/>
</g>
<path d="M172.197 137.785C186.515 129.525 193.685 118.621 193.509 107.794V89.6213C193.369 92.653 192.694 95.636 191.515 98.4324C190.232 101.48 188.486 104.311 186.339 106.825C182.334 111.471 177.539 115.371 172.175 118.346C143.693 134.767 97.4896 134.712 69.0297 118.257C63.3329 115.116 58.2926 110.91 54.183 105.867C52.3373 103.55 50.835 100.979 49.7224 98.2342C48.4669 95.2838 47.783 92.122 47.7069 88.9165V108.609C47.9271 119.161 55.0421 129.679 69.0407 137.741C97.5446 154.207 143.671 154.229 172.197 137.785Z" fill="white" stroke="#231F20" stroke-width="0.75" stroke-linecap="round" stroke-linejoin="round"/>
<path d="M172.218 118.279C177.582 115.305 182.378 111.405 186.382 106.759C188.53 104.245 190.276 101.414 191.559 98.3663C190.879 96.6249 190.011 94.963 188.97 93.4101C185.446 87.9031 179.895 82.6936 172.218 78.2991C143.758 61.7782 97.5662 61.7782 69.0843 78.1999C61.672 82.4733 56.1871 87.4846 52.6406 92.7493C51.4753 94.4379 50.5106 96.2563 49.7659 98.1681C50.8785 100.913 52.3809 103.484 54.2266 105.801C58.3362 110.844 63.3764 115.05 69.0733 118.191C97.5331 134.646 143.736 134.701 172.218 118.279Z" fill="white" stroke="#231F20" stroke-width="0.75" stroke-linecap="round" stroke-linejoin="round"/>
<path d="M172.219 118.28C177.583 115.305 182.378 111.405 186.382 106.759C188.53 104.245 190.276 101.414 191.559 98.3664C192.738 95.57 193.413 92.587 193.552 89.5553V89.2139C193.927 78.2 186.801 67.0981 172.207 58.7055C143.748 42.1847 97.6325 42.1847 69.1066 58.7055C54.6674 67.032 47.5965 77.9577 47.7507 88.8615C47.8268 92.0669 48.5108 95.2289 49.7663 98.1792C50.8788 100.924 52.3812 103.495 54.2269 105.812C58.3365 110.855 63.3767 115.061 69.0736 118.202C97.5334 134.646 143.737 134.701 172.219 118.28Z" fill="#FFAD28" stroke="#231F20" stroke-width="0.75" stroke-linecap="round" stroke-linejoin="round"/>
<path d="M177.122 90.6787C178.708 82.5835 173.278 74.235 160.788 68.0232C138.639 57.0093 102.723 57.0093 80.5521 67.9571C68.0955 74.1359 62.6326 82.4844 64.1965 90.5686C65.4521 84.3127 70.937 78.2441 80.5632 73.475C102.734 62.4612 138.65 62.5272 160.799 73.5411C170.447 78.3322 175.877 84.4889 177.122 90.6787Z" fill="#231F20" stroke="#231F20" stroke-width="0.75" stroke-linecap="round" stroke-linejoin="round"/>
<path d="M177.121 90.6787C175.877 84.4338 170.447 78.3322 160.799 73.5411C138.65 62.5273 102.733 62.5273 80.5625 73.475C70.9363 78.2441 65.4514 84.3127 64.1958 90.5686C65.3743 96.8465 70.8042 102.937 80.5074 107.75C102.645 118.764 138.562 118.764 160.743 107.827C170.436 103.036 175.91 96.9456 177.121 90.6787Z" fill="#FFAD28" stroke="#231F20" stroke-width="0.75" stroke-linecap="round" stroke-linejoin="round"/>
<path d="M172.199 137.785C186.517 129.525 193.698 118.621 193.5 107.794H193.555V89.6103C193.432 92.6407 192.768 95.6247 191.594 98.4214C190.312 101.465 188.561 104.289 186.407 106.792C182.398 111.438 177.599 115.338 172.232 118.312C168.565 120.388 164.734 122.16 160.777 123.61V143.127C164.723 141.658 168.542 139.871 172.199 137.785Z" fill="#2B2829" stroke="#231F20" stroke-width="0.75" stroke-linecap="round" stroke-linejoin="round"/>
<g style="mix-blend-mode:multiply">
<path d="M160.84 143.127V123.61C135.871 133.137 103.017 132.862 78.5331 122.784V142.345C103.006 152.412 135.871 152.687 160.84 143.127Z" fill="#CCCCCC"/>
</g>
<path d="M146.096 75.82L139.865 79.4177L138.348 78.5421L144.58 74.9444L146.096 75.82ZM101.07 102.166L94.8109 105.78L93.2944 104.904L99.5534 101.291L101.07 102.166ZM119.047 102.198C120.646 101.275 121.694 100.309 122.191 99.3007C122.705 98.3031 122.668 97.1144 122.08 95.7348C121.492 94.3551 120.362 92.6412 118.689 90.5929C117.163 88.7994 115.996 87.1597 115.187 85.6739C114.397 84.1987 114.222 82.8032 114.663 81.4872C115.141 80.1712 116.483 78.8764 118.689 77.6029C120.729 76.4249 122.963 75.6661 125.389 75.3265C127.852 74.9869 130.343 75.0665 132.861 75.5653C135.416 76.0641 137.843 76.9768 140.14 78.3034C141.923 79.3328 143.256 80.3994 144.138 81.5031C145.039 82.6174 145.471 83.7477 145.434 84.8939C145.416 86.0507 144.929 87.2021 143.973 88.3483C143.036 89.5051 141.611 90.6354 139.699 91.7391L138.21 90.8795C139.699 90.0198 140.848 89.1018 141.657 88.1255C142.502 87.1491 142.971 86.1462 143.063 85.1167C143.173 84.0979 142.87 83.0844 142.153 82.0762C141.455 81.0574 140.297 80.081 138.679 79.1471C136.436 77.8523 134.166 77.0192 131.869 76.6478C129.589 76.2869 127.439 76.2869 125.417 76.6478C123.413 76.998 121.685 77.5923 120.233 78.4307C118.726 79.301 117.669 80.2083 117.062 81.1529C116.455 82.0974 116.419 83.2648 116.952 84.6551C117.485 86.0454 118.698 87.8389 120.591 90.0357C122.08 91.7868 123.211 93.4053 123.983 94.8911C124.792 96.3769 124.975 97.7884 124.534 99.1256C124.111 100.452 122.797 101.752 120.591 103.026C118.514 104.225 116.235 104.989 113.753 105.318C111.29 105.636 108.781 105.536 106.226 105.016C103.708 104.496 101.309 103.578 99.0295 102.262C97.467 101.36 96.1252 100.351 95.0039 99.237C93.8826 98.1227 93.1657 96.9446 92.8532 95.703C92.5407 94.4613 92.7705 93.193 93.5425 91.8983C94.3329 90.5929 95.8402 89.2982 98.0644 88.014L99.5534 88.8737C97.5681 90.0198 96.2446 91.1766 95.5829 92.344C94.9212 93.5114 94.7465 94.6417 95.059 95.7348C95.3899 96.8385 96.0424 97.8733 97.0167 98.839C98.0277 99.8048 99.1857 100.664 100.491 101.418C102.586 102.628 104.774 103.424 107.053 103.806C109.369 104.188 111.575 104.23 113.671 103.933C115.785 103.625 117.577 103.047 119.047 102.198Z" fill="#231F20"/>
</svg>
