<svg width="251" height="250" viewBox="0 0 251 250" fill="none" xmlns="http://www.w3.org/2000/svg">
<g clip-path="url(#clip0_1944_3249)">
<path d="M62.2493 152.866C36.5487 94.5493 45.5205 34.1761 82.3426 18.008C119.165 1.83996 169.818 36.0452 195.519 94.3624C221.22 152.679 212.248 213.053 175.426 229.221C138.604 245.389 87.95 211.184 62.2493 152.866Z" fill="#3B2E56" stroke="#262626" stroke-width="0.5" stroke-miterlimit="10"/>
<path d="M55.1433 155.67C29.4427 97.353 38.6015 36.8864 75.517 20.7183C112.432 4.45683 163.273 38.6621 188.974 96.9792C214.674 155.296 205.609 215.763 168.6 232.025C131.685 248.099 80.844 213.987 55.1433 155.67Z" fill="#E84142" stroke="#262626" stroke-width="0.5" stroke-miterlimit="10"/>
<path d="M119.933 162.856C102.657 152.994 88.6907 127.708 88.6907 108.116C88.7569 88.5229 103.849 81.1094 121.125 90.9058C138.401 100.702 152.433 124.664 152.433 144.256C152.433 163.849 137.871 173.447 120.529 163.584L119.933 162.856ZM121.191 85.3457C101.135 73.9607 84.8515 83.0952 84.7854 105.799C84.7192 128.437 100.936 156.171 120.992 167.556C140.982 178.941 157.332 169.806 157.398 147.103C157.464 124.465 141.247 96.7307 121.191 85.3457Z" fill="#D0D2D3" stroke="#262626" stroke-width="0.5" stroke-miterlimit="10"/>
<path d="M119.801 162.194C103.054 152.53 89.485 129.032 89.5512 109.77C89.6174 90.5085 103.253 82.7641 119.999 92.4281C136.746 102.092 150.315 125.59 150.249 144.852C150.249 164.048 136.547 171.858 119.801 162.194ZM120.066 86.9341C100.671 75.7477 84.8516 84.7498 84.7854 106.99C84.7192 129.231 100.407 156.435 119.801 167.622C139.195 178.808 154.949 169.806 155.015 147.566C155.081 125.325 139.394 98.1205 120.066 86.9341Z" fill="white" stroke="#262626" stroke-width="0.5" stroke-miterlimit="10"/>
<mask id="path-5-outside-1_1944_3249" maskUnits="userSpaceOnUse" x="45.4179" y="-3.9386" width="150.329" height="260.377" fill="black">
<rect fill="white" x="45.4179" y="-3.9386" width="150.329" height="260.377"/>
<path d="M102.096 177L96.5878 189.748L101.61 195.308L100.583 197.685L87.7238 183.449L88.7508 181.072L93.7734 186.632L99.2819 173.884L102.096 177Z"/>
<path d="M86.8279 156.01C87.7839 157.631 88.5219 159.238 89.0418 160.831C89.5617 162.424 89.8659 163.929 89.9546 165.344C90.0327 166.768 89.8924 168.033 89.5338 169.139C89.1645 170.252 88.5688 171.141 87.7466 171.803C86.9244 172.465 86.0075 172.796 84.9959 172.794C83.9738 172.801 82.9124 172.505 81.8118 171.904C80.7007 171.312 79.6006 170.449 78.5115 169.314C77.4224 168.18 76.4057 166.812 75.4613 165.211C74.5052 163.59 73.7731 161.993 73.2648 160.42C72.7449 158.827 72.4459 157.318 72.3678 155.894C72.2792 154.479 72.4194 153.214 72.7887 152.1C73.1474 150.995 73.7378 150.111 74.56 149.448C75.3822 148.786 76.3043 148.451 77.3265 148.444C78.3487 148.437 79.41 148.734 80.5106 149.334C81.6112 149.935 82.706 150.802 83.7951 151.937C84.8725 153.052 85.8835 154.409 86.8279 156.01ZM85.0429 157.492C84.4249 156.445 83.7588 155.553 83.0444 154.816C82.33 154.079 81.6065 153.525 80.8738 153.153C80.1307 152.789 79.4223 152.617 78.7486 152.634C78.0528 152.641 77.4202 152.874 76.851 153.332C76.2818 153.791 75.8761 154.395 75.6338 155.144C75.3694 155.882 75.2556 156.717 75.2925 157.649C75.3189 158.59 75.4995 159.582 75.8344 160.624C76.1694 161.667 76.6458 162.711 77.2637 163.759C77.8817 164.807 78.5479 165.699 79.2623 166.435C79.965 167.152 80.6938 167.702 81.4486 168.085C82.1812 168.458 82.8954 168.64 83.5913 168.634C84.2649 168.616 84.8864 168.378 85.4556 167.919C86.0142 167.469 86.4258 166.875 86.6903 166.137C86.9431 165.379 87.0563 164.53 87.0299 163.589C86.993 162.657 86.8071 161.669 86.4722 160.627C86.1373 159.585 85.6608 158.54 85.0429 157.492Z"/>
<path d="M71.8022 131.814L68.5361 131.935L56.8544 119.834L55.4864 115.124L65.3539 125.185L67.7377 127.562L71.8022 131.814ZM76.4589 135.67L61.3146 135.19L60.0965 130.996L75.2407 131.476L76.4589 135.67ZM71.8862 119.926L67.496 128.354L64.6349 125.514L70.462 115.022L71.8862 119.926Z"/>
<path d="M60.0108 98.4784L59.8424 88.1771L62.3646 89.5517L62.5329 99.8529L60.0108 98.4784ZM67.0774 102.036L66.8864 90.3436L69.4557 91.7438L69.7096 107.285L53.2095 98.2924L52.9623 83.1662L55.5316 84.5664L55.7159 95.8445L67.0774 102.036Z"/>
<path d="M70.5254 83.8865L55.2188 67.4772L56.162 65.1044L71.818 68.0047L71.3508 69.18L59.5647 56.5449L60.7019 53.6843L76.0085 70.0936L75.0653 72.4663L59.4093 69.566L59.8765 68.3907L71.6626 81.0259L70.5254 83.8865Z"/>
<path d="M86.7338 58.1005L78.0349 39.6336L73.7666 41.4541L72.1448 38.0112L83.073 33.35L84.6948 36.793L80.4265 38.6135L89.1255 57.0804L86.7338 58.1005Z"/>
<path d="M105.897 56.5362C104.658 56.2721 103.459 55.7417 102.3 54.9451C101.14 54.1485 100.071 53.1576 99.0922 51.9724C98.1092 50.7659 97.2652 49.4263 96.5602 47.9535C95.8509 46.4595 95.327 44.883 94.9886 43.224C94.6503 41.5649 94.5516 40.0892 94.6926 38.7969C94.8293 37.4833 95.1787 36.3982 95.741 35.5415C96.2989 34.6636 97.0405 34.0487 97.9657 33.6967C98.891 33.3447 99.9655 33.2991 101.189 33.5601C102.428 33.8242 103.62 34.353 104.764 35.1464C105.923 35.9429 106.995 36.9445 107.978 38.151C108.957 39.3362 109.801 40.6759 110.51 42.1699C111.215 43.6426 111.737 45.2085 112.075 46.8675C112.413 48.5266 112.514 50.0129 112.377 51.3265C112.241 52.6401 111.891 53.7252 111.329 54.5818C110.767 55.4385 110.023 56.0428 109.098 56.3948C108.188 56.75 107.121 56.7972 105.897 56.5362ZM105.133 52.8943C105.933 53.065 106.634 53.0314 107.236 52.7935C107.838 52.5557 108.316 52.1389 108.672 51.5433C109.023 50.9265 109.239 50.1791 109.32 49.3012C109.412 48.4053 109.341 47.383 109.106 46.2345C108.872 45.0859 108.516 44.0131 108.038 43.016C107.571 42.0009 107.016 41.0892 106.375 40.281C105.729 39.4515 105.027 38.7729 104.269 38.2451C103.511 37.7172 102.732 37.3679 101.931 37.1972C101.13 37.0265 100.429 37.06 99.8273 37.2979C99.2407 37.539 98.7643 37.9664 98.3982 38.58C98.0428 39.1756 97.8192 39.9214 97.7274 40.8173C97.6463 41.6952 97.7229 42.7084 97.9572 43.857C98.1871 44.9843 98.5357 46.0555 99.0028 47.0706C99.4851 48.089 100.049 49.0129 100.695 49.8424C101.337 50.6506 102.037 51.3186 102.795 51.8464C103.553 52.3742 104.332 52.7235 105.133 52.8943Z"/>
<path d="M124.496 59.5188L124.866 55.2317L134.744 51.3936L138.149 53.965L129.914 57.3538L127.961 58.2217L124.496 59.5188ZM121.219 61.9372L123.643 43.0103L126.675 45.2999L124.251 64.2267L121.219 61.9372ZM132.6 70.5318L127.454 57.1866L129.789 56.1326L136.145 73.2089L132.6 70.5318Z"/>
<path d="M148.884 75.0199L155.94 84.2544L154.652 86.2189L147.596 76.9844L148.884 75.0199ZM145.477 80.7932L153.486 91.275L152.174 93.2762L141.53 79.3448L149.952 66.4928L160.313 80.0527L159.001 82.054L151.276 71.9437L145.477 80.7932Z"/>
<path d="M157.391 101.853L170.712 97.3313L172.201 100.714L168.054 118.075L167.316 116.399L177.573 112.918L179.369 116.996L166.048 121.518L164.559 118.135L168.706 100.774L169.443 102.45L159.186 105.931L157.391 101.853Z"/>
<path d="M171.233 146.101L185.06 152.098L184.462 144.993L187.04 146.111L188.57 164.303L185.992 163.185L185.394 156.08L171.568 150.083L171.233 146.101Z"/>
<path d="M169.433 171.898C169.797 170.568 170.336 169.534 171.05 168.796C171.763 168.058 172.595 167.614 173.545 167.465C174.511 167.329 175.545 167.494 176.65 167.958C177.769 168.436 178.917 169.226 180.093 170.328C181.269 171.43 182.285 172.667 183.14 174.039C184.011 175.426 184.695 176.872 185.192 178.378C185.705 179.897 186.011 181.408 186.112 182.908C186.212 184.409 186.083 185.817 185.723 187.131C185.359 188.461 184.822 189.487 184.113 190.209C183.4 190.947 182.56 191.384 181.595 191.519C180.645 191.668 179.61 191.504 178.49 191.026C177.386 190.562 176.246 189.779 175.07 188.677C173.894 187.575 172.87 186.331 172 184.944C171.129 183.557 170.445 182.111 169.948 180.606C169.451 179.1 169.152 177.597 169.051 176.096C168.946 174.612 169.073 173.212 169.433 171.898ZM172.018 174.289C171.782 175.149 171.701 176.071 171.772 177.056C171.844 178.04 172.055 179.033 172.406 180.035C172.772 181.05 173.247 182.015 173.83 182.929C174.424 183.873 175.128 184.726 175.943 185.489C176.757 186.252 177.538 186.79 178.285 187.103C179.044 187.447 179.745 187.584 180.389 187.515C181.048 187.46 181.614 187.194 182.085 186.719C182.556 186.243 182.909 185.575 183.145 184.715C183.38 183.855 183.462 182.933 183.391 181.949C183.315 180.981 183.096 179.981 182.734 178.949C182.383 177.947 181.911 176.974 181.317 176.03C180.733 175.117 180.034 174.279 179.22 173.516C178.421 172.767 177.642 172.221 176.884 171.877C176.121 171.55 175.41 171.413 174.751 171.469C174.107 171.538 173.549 171.81 173.078 172.286C172.607 172.762 172.253 173.43 172.018 174.289Z"/>
<path d="M164.634 192.78L167.487 197.208L168.616 213.305L166.363 215.258L165.294 201.664L164.997 198.381L164.634 192.78ZM163.483 186.383L175.961 206.939L173.955 208.678L161.477 188.121L163.483 186.383ZM155.953 192.909L165.775 198.693L166.141 202.633L153.607 194.942L155.953 192.909Z"/>
<path d="M150.475 209.459L143.157 209.898L142.017 206.448L149.335 206.009L150.475 209.459ZM147.067 199.798L138.761 200.297L137.599 196.783L148.639 196.12L156.101 218.69L145.354 219.336L144.193 215.821L152.205 215.34L147.067 199.798Z"/>
<path d="M131.003 195.492L132.081 216.596L129.564 215.365L118.405 194.064L119.652 194.674L120.483 210.924L117.448 209.439L116.369 188.336L118.887 189.567L130.045 210.868L128.798 210.258L127.968 194.008L131.003 195.492Z"/>
</mask>
<path d="M102.096 177L96.5878 189.748L101.61 195.308L100.583 197.685L87.7238 183.449L88.7508 181.072L93.7734 186.632L99.2819 173.884L102.096 177Z" fill="white"/>
<path d="M86.8279 156.01C87.7839 157.631 88.5219 159.238 89.0418 160.831C89.5617 162.424 89.8659 163.929 89.9546 165.344C90.0327 166.768 89.8924 168.033 89.5338 169.139C89.1645 170.252 88.5688 171.141 87.7466 171.803C86.9244 172.465 86.0075 172.796 84.9959 172.794C83.9738 172.801 82.9124 172.505 81.8118 171.904C80.7007 171.312 79.6006 170.449 78.5115 169.314C77.4224 168.18 76.4057 166.812 75.4613 165.211C74.5052 163.59 73.7731 161.993 73.2648 160.42C72.7449 158.827 72.4459 157.318 72.3678 155.894C72.2792 154.479 72.4194 153.214 72.7887 152.1C73.1474 150.995 73.7378 150.111 74.56 149.448C75.3822 148.786 76.3043 148.451 77.3265 148.444C78.3487 148.437 79.41 148.734 80.5106 149.334C81.6112 149.935 82.706 150.802 83.7951 151.937C84.8725 153.052 85.8835 154.409 86.8279 156.01ZM85.0429 157.492C84.4249 156.445 83.7588 155.553 83.0444 154.816C82.33 154.079 81.6065 153.525 80.8738 153.153C80.1307 152.789 79.4223 152.617 78.7486 152.634C78.0528 152.641 77.4202 152.874 76.851 153.332C76.2818 153.791 75.8761 154.395 75.6338 155.144C75.3694 155.882 75.2556 156.717 75.2925 157.649C75.3189 158.59 75.4995 159.582 75.8344 160.624C76.1694 161.667 76.6458 162.711 77.2637 163.759C77.8817 164.807 78.5479 165.699 79.2623 166.435C79.965 167.152 80.6938 167.702 81.4486 168.085C82.1812 168.458 82.8954 168.64 83.5913 168.634C84.2649 168.616 84.8864 168.378 85.4556 167.919C86.0142 167.469 86.4258 166.875 86.6903 166.137C86.9431 165.379 87.0563 164.53 87.0299 163.589C86.993 162.657 86.8071 161.669 86.4722 160.627C86.1373 159.585 85.6608 158.54 85.0429 157.492Z" fill="white"/>
<path d="M71.8022 131.814L68.5361 131.935L56.8544 119.834L55.4864 115.124L65.3539 125.185L67.7377 127.562L71.8022 131.814ZM76.4589 135.67L61.3146 135.19L60.0965 130.996L75.2407 131.476L76.4589 135.67ZM71.8862 119.926L67.496 128.354L64.6349 125.514L70.462 115.022L71.8862 119.926Z" fill="white"/>
<path d="M60.0108 98.4784L59.8424 88.1771L62.3646 89.5517L62.5329 99.8529L60.0108 98.4784ZM67.0774 102.036L66.8864 90.3436L69.4557 91.7438L69.7096 107.285L53.2095 98.2924L52.9623 83.1662L55.5316 84.5664L55.7159 95.8445L67.0774 102.036Z" fill="white"/>
<path d="M70.5254 83.8865L55.2188 67.4772L56.162 65.1044L71.818 68.0047L71.3508 69.18L59.5647 56.5449L60.7019 53.6843L76.0085 70.0936L75.0653 72.4663L59.4093 69.566L59.8765 68.3907L71.6626 81.0259L70.5254 83.8865Z" fill="white"/>
<path d="M86.7338 58.1005L78.0349 39.6336L73.7666 41.4541L72.1448 38.0112L83.073 33.35L84.6948 36.793L80.4265 38.6135L89.1255 57.0804L86.7338 58.1005Z" fill="white"/>
<path d="M105.897 56.5362C104.658 56.2721 103.459 55.7417 102.3 54.9451C101.14 54.1485 100.071 53.1576 99.0922 51.9724C98.1092 50.7659 97.2652 49.4263 96.5602 47.9535C95.8509 46.4595 95.327 44.883 94.9886 43.224C94.6503 41.5649 94.5516 40.0892 94.6926 38.7969C94.8293 37.4833 95.1787 36.3982 95.741 35.5415C96.2989 34.6636 97.0405 34.0487 97.9657 33.6967C98.891 33.3447 99.9655 33.2991 101.189 33.5601C102.428 33.8242 103.62 34.353 104.764 35.1464C105.923 35.9429 106.995 36.9445 107.978 38.151C108.957 39.3362 109.801 40.6759 110.51 42.1699C111.215 43.6426 111.737 45.2085 112.075 46.8675C112.413 48.5266 112.514 50.0129 112.377 51.3265C112.241 52.6401 111.891 53.7252 111.329 54.5818C110.767 55.4385 110.023 56.0428 109.098 56.3948C108.188 56.75 107.121 56.7972 105.897 56.5362ZM105.133 52.8943C105.933 53.065 106.634 53.0314 107.236 52.7935C107.838 52.5557 108.316 52.1389 108.672 51.5433C109.023 50.9265 109.239 50.1791 109.32 49.3012C109.412 48.4053 109.341 47.383 109.106 46.2345C108.872 45.0859 108.516 44.0131 108.038 43.016C107.571 42.0009 107.016 41.0892 106.375 40.281C105.729 39.4515 105.027 38.7729 104.269 38.2451C103.511 37.7172 102.732 37.3679 101.931 37.1972C101.13 37.0265 100.429 37.06 99.8273 37.2979C99.2407 37.539 98.7643 37.9664 98.3982 38.58C98.0428 39.1756 97.8192 39.9214 97.7274 40.8173C97.6463 41.6952 97.7229 42.7084 97.9572 43.857C98.1871 44.9843 98.5357 46.0555 99.0028 47.0706C99.4851 48.089 100.049 49.0129 100.695 49.8424C101.337 50.6506 102.037 51.3186 102.795 51.8464C103.553 52.3742 104.332 52.7235 105.133 52.8943Z" fill="white"/>
<path d="M124.496 59.5188L124.866 55.2317L134.744 51.3936L138.149 53.965L129.914 57.3538L127.961 58.2217L124.496 59.5188ZM121.219 61.9372L123.643 43.0103L126.675 45.2999L124.251 64.2267L121.219 61.9372ZM132.6 70.5318L127.454 57.1866L129.789 56.1326L136.145 73.2089L132.6 70.5318Z" fill="white"/>
<path d="M148.884 75.0199L155.94 84.2544L154.652 86.2189L147.596 76.9844L148.884 75.0199ZM145.477 80.7932L153.486 91.275L152.174 93.2762L141.53 79.3448L149.952 66.4928L160.313 80.0527L159.001 82.054L151.276 71.9437L145.477 80.7932Z" fill="white"/>
<path d="M157.391 101.853L170.712 97.3313L172.201 100.714L168.054 118.075L167.316 116.399L177.573 112.918L179.369 116.996L166.048 121.518L164.559 118.135L168.706 100.774L169.443 102.45L159.186 105.931L157.391 101.853Z" fill="white"/>
<path d="M171.233 146.101L185.06 152.098L184.462 144.993L187.04 146.111L188.57 164.303L185.992 163.185L185.394 156.08L171.568 150.083L171.233 146.101Z" fill="white"/>
<path d="M169.433 171.898C169.797 170.568 170.336 169.534 171.05 168.796C171.763 168.058 172.595 167.614 173.545 167.465C174.511 167.329 175.545 167.494 176.65 167.958C177.769 168.436 178.917 169.226 180.093 170.328C181.269 171.43 182.285 172.667 183.14 174.039C184.011 175.426 184.695 176.872 185.192 178.378C185.705 179.897 186.011 181.408 186.112 182.908C186.212 184.409 186.083 185.817 185.723 187.131C185.359 188.461 184.822 189.487 184.113 190.209C183.4 190.947 182.56 191.384 181.595 191.519C180.645 191.668 179.61 191.504 178.49 191.026C177.386 190.562 176.246 189.779 175.07 188.677C173.894 187.575 172.87 186.331 172 184.944C171.129 183.557 170.445 182.111 169.948 180.606C169.451 179.1 169.152 177.597 169.051 176.096C168.946 174.612 169.073 173.212 169.433 171.898ZM172.018 174.289C171.782 175.149 171.701 176.071 171.772 177.056C171.844 178.04 172.055 179.033 172.406 180.035C172.772 181.05 173.247 182.015 173.83 182.929C174.424 183.873 175.128 184.726 175.943 185.489C176.757 186.252 177.538 186.79 178.285 187.103C179.044 187.447 179.745 187.584 180.389 187.515C181.048 187.46 181.614 187.194 182.085 186.719C182.556 186.243 182.909 185.575 183.145 184.715C183.38 183.855 183.462 182.933 183.391 181.949C183.315 180.981 183.096 179.981 182.734 178.949C182.383 177.947 181.911 176.974 181.317 176.03C180.733 175.117 180.034 174.279 179.22 173.516C178.421 172.767 177.642 172.221 176.884 171.877C176.121 171.55 175.41 171.413 174.751 171.469C174.107 171.538 173.549 171.81 173.078 172.286C172.607 172.762 172.253 173.43 172.018 174.289Z" fill="white"/>
<path d="M164.634 192.78L167.487 197.208L168.616 213.305L166.363 215.258L165.294 201.664L164.997 198.381L164.634 192.78ZM163.483 186.383L175.961 206.939L173.955 208.678L161.477 188.121L163.483 186.383ZM155.953 192.909L165.775 198.693L166.141 202.633L153.607 194.942L155.953 192.909Z" fill="white"/>
<path d="M150.475 209.459L143.157 209.898L142.017 206.448L149.335 206.009L150.475 209.459ZM147.067 199.798L138.761 200.297L137.599 196.783L148.639 196.12L156.101 218.69L145.354 219.336L144.193 215.821L152.205 215.34L147.067 199.798Z" fill="white"/>
<path d="M131.003 195.492L132.081 216.596L129.564 215.365L118.405 194.064L119.652 194.674L120.483 210.924L117.448 209.439L116.369 188.336L118.887 189.567L130.045 210.868L128.798 210.258L127.968 194.008L131.003 195.492Z" fill="white"/>
<path d="M102.096 177L96.5878 189.748L101.61 195.308L100.583 197.685L87.7238 183.449L88.7508 181.072L93.7734 186.632L99.2819 173.884L102.096 177Z" stroke="black" stroke-width="2" mask="url(#path-5-outside-1_1944_3249)"/>
<path d="M86.8279 156.01C87.7839 157.631 88.5219 159.238 89.0418 160.831C89.5617 162.424 89.8659 163.929 89.9546 165.344C90.0327 166.768 89.8924 168.033 89.5338 169.139C89.1645 170.252 88.5688 171.141 87.7466 171.803C86.9244 172.465 86.0075 172.796 84.9959 172.794C83.9738 172.801 82.9124 172.505 81.8118 171.904C80.7007 171.312 79.6006 170.449 78.5115 169.314C77.4224 168.18 76.4057 166.812 75.4613 165.211C74.5052 163.59 73.7731 161.993 73.2648 160.42C72.7449 158.827 72.4459 157.318 72.3678 155.894C72.2792 154.479 72.4194 153.214 72.7887 152.1C73.1474 150.995 73.7378 150.111 74.56 149.448C75.3822 148.786 76.3043 148.451 77.3265 148.444C78.3487 148.437 79.41 148.734 80.5106 149.334C81.6112 149.935 82.706 150.802 83.7951 151.937C84.8725 153.052 85.8835 154.409 86.8279 156.01ZM85.0429 157.492C84.4249 156.445 83.7588 155.553 83.0444 154.816C82.33 154.079 81.6065 153.525 80.8738 153.153C80.1307 152.789 79.4223 152.617 78.7486 152.634C78.0528 152.641 77.4202 152.874 76.851 153.332C76.2818 153.791 75.8761 154.395 75.6338 155.144C75.3694 155.882 75.2556 156.717 75.2925 157.649C75.3189 158.59 75.4995 159.582 75.8344 160.624C76.1694 161.667 76.6458 162.711 77.2637 163.759C77.8817 164.807 78.5479 165.699 79.2623 166.435C79.965 167.152 80.6938 167.702 81.4486 168.085C82.1812 168.458 82.8954 168.64 83.5913 168.634C84.2649 168.616 84.8864 168.378 85.4556 167.919C86.0142 167.469 86.4258 166.875 86.6903 166.137C86.9431 165.379 87.0563 164.53 87.0299 163.589C86.993 162.657 86.8071 161.669 86.4722 160.627C86.1373 159.585 85.6608 158.54 85.0429 157.492Z" stroke="black" stroke-width="2" mask="url(#path-5-outside-1_1944_3249)"/>
<path d="M71.8022 131.814L68.5361 131.935L56.8544 119.834L55.4864 115.124L65.3539 125.185L67.7377 127.562L71.8022 131.814ZM76.4589 135.67L61.3146 135.19L60.0965 130.996L75.2407 131.476L76.4589 135.67ZM71.8862 119.926L67.496 128.354L64.6349 125.514L70.462 115.022L71.8862 119.926Z" stroke="black" stroke-width="2" mask="url(#path-5-outside-1_1944_3249)"/>
<path d="M60.0108 98.4784L59.8424 88.1771L62.3646 89.5517L62.5329 99.8529L60.0108 98.4784ZM67.0774 102.036L66.8864 90.3436L69.4557 91.7438L69.7096 107.285L53.2095 98.2924L52.9623 83.1662L55.5316 84.5664L55.7159 95.8445L67.0774 102.036Z" stroke="black" stroke-width="2" mask="url(#path-5-outside-1_1944_3249)"/>
<path d="M70.5254 83.8865L55.2188 67.4772L56.162 65.1044L71.818 68.0047L71.3508 69.18L59.5647 56.5449L60.7019 53.6843L76.0085 70.0936L75.0653 72.4663L59.4093 69.566L59.8765 68.3907L71.6626 81.0259L70.5254 83.8865Z" stroke="black" stroke-width="2" mask="url(#path-5-outside-1_1944_3249)"/>
<path d="M86.7338 58.1005L78.0349 39.6336L73.7666 41.4541L72.1448 38.0112L83.073 33.35L84.6948 36.793L80.4265 38.6135L89.1255 57.0804L86.7338 58.1005Z" stroke="black" stroke-width="2" mask="url(#path-5-outside-1_1944_3249)"/>
<path d="M105.897 56.5362C104.658 56.2721 103.459 55.7417 102.3 54.9451C101.14 54.1485 100.071 53.1576 99.0922 51.9724C98.1092 50.7659 97.2652 49.4263 96.5602 47.9535C95.8509 46.4595 95.327 44.883 94.9886 43.224C94.6503 41.5649 94.5516 40.0892 94.6926 38.7969C94.8293 37.4833 95.1787 36.3982 95.741 35.5415C96.2989 34.6636 97.0405 34.0487 97.9657 33.6967C98.891 33.3447 99.9655 33.2991 101.189 33.5601C102.428 33.8242 103.62 34.353 104.764 35.1464C105.923 35.9429 106.995 36.9445 107.978 38.151C108.957 39.3362 109.801 40.6759 110.51 42.1699C111.215 43.6426 111.737 45.2085 112.075 46.8675C112.413 48.5266 112.514 50.0129 112.377 51.3265C112.241 52.6401 111.891 53.7252 111.329 54.5818C110.767 55.4385 110.023 56.0428 109.098 56.3948C108.188 56.75 107.121 56.7972 105.897 56.5362ZM105.133 52.8943C105.933 53.065 106.634 53.0314 107.236 52.7935C107.838 52.5557 108.316 52.1389 108.672 51.5433C109.023 50.9265 109.239 50.1791 109.32 49.3012C109.412 48.4053 109.341 47.383 109.106 46.2345C108.872 45.0859 108.516 44.0131 108.038 43.016C107.571 42.0009 107.016 41.0892 106.375 40.281C105.729 39.4515 105.027 38.7729 104.269 38.2451C103.511 37.7172 102.732 37.3679 101.931 37.1972C101.13 37.0265 100.429 37.06 99.8273 37.2979C99.2407 37.539 98.7643 37.9664 98.3982 38.58C98.0428 39.1756 97.8192 39.9214 97.7274 40.8173C97.6463 41.6952 97.7229 42.7084 97.9572 43.857C98.1871 44.9843 98.5357 46.0555 99.0028 47.0706C99.4851 48.089 100.049 49.0129 100.695 49.8424C101.337 50.6506 102.037 51.3186 102.795 51.8464C103.553 52.3742 104.332 52.7235 105.133 52.8943Z" stroke="black" stroke-width="2" mask="url(#path-5-outside-1_1944_3249)"/>
<path d="M124.496 59.5188L124.866 55.2317L134.744 51.3936L138.149 53.965L129.914 57.3538L127.961 58.2217L124.496 59.5188ZM121.219 61.9372L123.643 43.0103L126.675 45.2999L124.251 64.2267L121.219 61.9372ZM132.6 70.5318L127.454 57.1866L129.789 56.1326L136.145 73.2089L132.6 70.5318Z" stroke="black" stroke-width="2" mask="url(#path-5-outside-1_1944_3249)"/>
<path d="M148.884 75.0199L155.94 84.2544L154.652 86.2189L147.596 76.9844L148.884 75.0199ZM145.477 80.7932L153.486 91.275L152.174 93.2762L141.53 79.3448L149.952 66.4928L160.313 80.0527L159.001 82.054L151.276 71.9437L145.477 80.7932Z" stroke="black" stroke-width="2" mask="url(#path-5-outside-1_1944_3249)"/>
<path d="M157.391 101.853L170.712 97.3313L172.201 100.714L168.054 118.075L167.316 116.399L177.573 112.918L179.369 116.996L166.048 121.518L164.559 118.135L168.706 100.774L169.443 102.45L159.186 105.931L157.391 101.853Z" stroke="black" stroke-width="2" mask="url(#path-5-outside-1_1944_3249)"/>
<path d="M171.233 146.101L185.06 152.098L184.462 144.993L187.04 146.111L188.57 164.303L185.992 163.185L185.394 156.08L171.568 150.083L171.233 146.101Z" stroke="black" stroke-width="2" mask="url(#path-5-outside-1_1944_3249)"/>
<path d="M169.433 171.898C169.797 170.568 170.336 169.534 171.05 168.796C171.763 168.058 172.595 167.614 173.545 167.465C174.511 167.329 175.545 167.494 176.65 167.958C177.769 168.436 178.917 169.226 180.093 170.328C181.269 171.43 182.285 172.667 183.14 174.039C184.011 175.426 184.695 176.872 185.192 178.378C185.705 179.897 186.011 181.408 186.112 182.908C186.212 184.409 186.083 185.817 185.723 187.131C185.359 188.461 184.822 189.487 184.113 190.209C183.4 190.947 182.56 191.384 181.595 191.519C180.645 191.668 179.61 191.504 178.49 191.026C177.386 190.562 176.246 189.779 175.07 188.677C173.894 187.575 172.87 186.331 172 184.944C171.129 183.557 170.445 182.111 169.948 180.606C169.451 179.1 169.152 177.597 169.051 176.096C168.946 174.612 169.073 173.212 169.433 171.898ZM172.018 174.289C171.782 175.149 171.701 176.071 171.772 177.056C171.844 178.04 172.055 179.033 172.406 180.035C172.772 181.05 173.247 182.015 173.83 182.929C174.424 183.873 175.128 184.726 175.943 185.489C176.757 186.252 177.538 186.79 178.285 187.103C179.044 187.447 179.745 187.584 180.389 187.515C181.048 187.46 181.614 187.194 182.085 186.719C182.556 186.243 182.909 185.575 183.145 184.715C183.38 183.855 183.462 182.933 183.391 181.949C183.315 180.981 183.096 179.981 182.734 178.949C182.383 177.947 181.911 176.974 181.317 176.03C180.733 175.117 180.034 174.279 179.22 173.516C178.421 172.767 177.642 172.221 176.884 171.877C176.121 171.55 175.41 171.413 174.751 171.469C174.107 171.538 173.549 171.81 173.078 172.286C172.607 172.762 172.253 173.43 172.018 174.289Z" stroke="black" stroke-width="2" mask="url(#path-5-outside-1_1944_3249)"/>
<path d="M164.634 192.78L167.487 197.208L168.616 213.305L166.363 215.258L165.294 201.664L164.997 198.381L164.634 192.78ZM163.483 186.383L175.961 206.939L173.955 208.678L161.477 188.121L163.483 186.383ZM155.953 192.909L165.775 198.693L166.141 202.633L153.607 194.942L155.953 192.909Z" stroke="black" stroke-width="2" mask="url(#path-5-outside-1_1944_3249)"/>
<path d="M150.475 209.459L143.157 209.898L142.017 206.448L149.335 206.009L150.475 209.459ZM147.067 199.798L138.761 200.297L137.599 196.783L148.639 196.12L156.101 218.69L145.354 219.336L144.193 215.821L152.205 215.34L147.067 199.798Z" stroke="black" stroke-width="2" mask="url(#path-5-outside-1_1944_3249)"/>
<path d="M131.003 195.492L132.081 216.596L129.564 215.365L118.405 194.064L119.652 194.674L120.483 210.924L117.448 209.439L116.369 188.336L118.887 189.567L130.045 210.868L128.798 210.258L127.968 194.008L131.003 195.492Z" stroke="black" stroke-width="2" mask="url(#path-5-outside-1_1944_3249)"/>
</g>
<defs>
<clipPath id="clip0_1944_3249">
<rect width="250" height="250" fill="white" transform="translate(0.554688)"/>
</clipPath>
</defs>
</svg>
