<svg width="250" height="250" viewBox="0 0 250 250" fill="none" xmlns="http://www.w3.org/2000/svg">
<g clip-path="url(#clip0_1807_12632)">
<g filter="url(#filter0_d_1807_12632)">
<path d="M145.146 139.014L118.262 175.426C93.5754 161.02 73.5307 126.207 73.5307 97.6664C73.5307 69.1254 93.5754 57.4584 118.262 71.5583L145.146 139.014Z" fill="#FFD400" stroke="black"/>
<path d="M163.477 149.6C163.477 178.069 143.533 189.749 118.933 175.815L118.933 71.9505C143.533 86.4229 163.477 121.131 163.477 149.6Z" fill="#FDBF00" stroke="black"/>
<path d="M116.591 147.495L116.59 147.494L100.597 127.708L100.596 127.707C99.395 126.222 98.6557 124.322 98.6557 122.727L98.6557 101.622C98.6557 100.027 99.395 98.9805 100.596 98.8826L100.597 98.8826L116.59 97.5635L116.591 97.5634C117.098 97.5201 117.658 97.6511 118.224 97.9314L128.164 129.211L118.224 149.013C117.658 148.639 117.098 148.125 116.591 147.495Z" fill="#FDBF00" stroke="black"/>
<path d="M136.404 148.382L136.403 148.382L120.41 149.701L120.409 149.701C119.949 149.74 119.446 149.636 118.933 149.407L118.933 98.3585C119.446 98.7214 119.949 99.198 120.409 99.7693L120.41 99.7701L136.403 119.557L136.404 119.557C137.605 121.042 138.344 122.942 138.344 124.537L138.344 145.643C138.344 147.238 137.605 148.284 136.404 148.382Z" fill="#FF9F00" stroke="black"/>
<path d="M74.1324 143.687L74.1327 143.687C74.7513 142.443 76.1272 142.206 77.647 143.083L118.348 166.582L132.763 190.065L118.351 196.583C101.738 186.937 85.865 169.547 74.777 148.838C73.7651 146.946 73.5113 144.929 74.1324 143.687Z" fill="#979FEF" stroke="black"/>
<path d="M118.933 196.923L159.911 220.582L160.344 220.832L160.344 221.332L160.344 227.268C160.344 228.979 161.194 231.028 162.529 232.537C163.061 233.138 163.629 233.611 164.195 233.938C165.056 234.435 165.908 234.595 166.606 234.352L189.739 226.272C189.739 226.272 189.739 226.272 189.739 226.272C190.653 225.952 191.185 224.975 191.179 223.618C191.174 222.263 190.635 220.67 189.716 219.301C189.716 219.301 189.716 219.301 189.716 219.301L166.583 184.84C165.425 183.115 163.846 182.003 162.517 181.979L118.933 196.923ZM118.933 196.923L118.933 166.924L159.911 190.583L160.344 190.833L160.344 190.333L160.344 184.727C160.344 183.023 161.189 181.957 162.516 181.979L118.933 196.923Z" fill="#5A69E6" stroke="black"/>
<path d="M132.012 73.3927L118.503 81.093L77.0918 57.1841L77.0918 62.7903C77.0918 64.6865 76.1522 65.8721 74.6756 65.8474C74.0816 65.8375 73.4447 65.6314 72.8078 65.2637C71.8625 64.7179 70.9229 63.8126 70.1518 62.665L47.0186 28.2033C45.9961 26.6797 45.3964 24.9088 45.3907 23.4017C45.385 21.8913 45.9761 20.8047 46.9929 20.4486L70.1261 12.369C71.4113 11.9205 73.1734 12.7037 74.6614 14.3872C76.1465 16.0655 77.0918 18.3462 77.0918 20.249L77.0918 26.185L118.503 50.0939L132.012 73.3927Z" fill="#00EC89"/>
<path d="M162.883 103.583L162.883 103.584C162.264 104.827 160.889 105.065 159.369 104.187L118.933 80.8415L118.933 50.8443C135.448 60.5206 151.211 77.8355 162.239 98.4332C163.251 100.325 163.504 102.341 162.883 103.583Z" fill="#00CBB1" stroke="black"/>
</g>
</g>
<defs>
<filter id="filter0_d_1807_12632" x="45.3906" y="10.2445" width="150.223" height="224.778" filterUnits="userSpaceOnUse" color-interpolation-filters="sRGB">
<feFlood flood-opacity="0" result="BackgroundImageFix"/>
<feColorMatrix in="SourceAlpha" type="matrix" values="0 0 0 0 0 0 0 0 0 0 0 0 0 0 0 0 0 0 127 0" result="hardAlpha"/>
<feOffset dx="4" dy="-2"/>
<feComposite in2="hardAlpha" operator="out"/>
<feColorMatrix type="matrix" values="0 0 0 0 0 0 0 0 0 0 0 0 0 0 0 0 0 0 1 0"/>
<feBlend mode="normal" in2="BackgroundImageFix" result="effect1_dropShadow_1807_12632"/>
<feBlend mode="normal" in="SourceGraphic" in2="effect1_dropShadow_1807_12632" result="shape"/>
</filter>
<clipPath id="clip0_1807_12632">
<rect width="250" height="250" fill="white"/>
</clipPath>
</defs>
</svg>
