<svg width="250" height="250" viewBox="0 0 250 250" fill="none" xmlns="http://www.w3.org/2000/svg">
<path d="M44.3802 19L197.235 107.179L197.684 234.035L44.9804 145.815L44.3802 19Z" fill="#8832D8" stroke="#231F20" stroke-width="1.15707" stroke-miterlimit="10" stroke-linecap="round" stroke-linejoin="round"/>
<path d="M198.26 235.06L206.202 231.885L205.984 103.811L198.062 106.946L198.241 213.975L198.26 235.06Z" fill="#231F20" stroke="#231F20" stroke-width="0.8678" stroke-miterlimit="10" stroke-linecap="round" stroke-linejoin="round"/>
<path d="M198.062 106.946L205.984 103.811L52.0972 14.9402L44.2148 18.0754L62.3727 28.5982L198.062 106.946Z" fill="white" stroke="#231F20" stroke-width="0.8678" stroke-miterlimit="10" stroke-linecap="round" stroke-linejoin="round"/>
<g clip-path="url(#clip0_1801_6653)">
<path d="M175.858 192.022C174.996 191.161 174.085 190.453 173.168 189.931C170.201 188.218 168.105 188.734 168.09 191.203C168.072 193.012 169.579 194.908 170.72 196.174C171.89 197.475 172.281 198.095 172.277 198.652C172.27 199.497 171.343 199.348 170.481 198.85C169.296 198.166 168.649 197.601 167.653 196.549L167.284 196.137L166.863 198.746C167.584 199.509 168.884 200.557 170.227 201.358C173.381 203.179 175.443 202.655 175.467 200.033C175.493 198.594 174.677 197.024 172.96 195.125C171.916 193.934 171.269 193.166 171.269 192.569C171.269 192.04 171.823 191.795 172.982 192.464C173.753 192.887 174.52 193.497 175.231 194.253L175.51 194.557L175.93 192.044L175.858 192.022ZM183.557 196.16L181.239 194.822C180.518 194.406 179.975 194.321 179.66 194.966L175.202 204.053L178.356 205.874L178.986 204.326L182.836 206.553C182.927 207.053 183.205 208.674 183.205 208.674L185.986 210.279L183.557 196.16ZM163.824 184.66L166.829 186.396L164.949 198.033L161.947 196.3L163.824 184.656L163.824 184.66ZM156.193 187.267L156.505 189.213L159.442 182.237L162.626 184.076L157.895 194.044L154.719 192.21L152.123 179.958C152.081 179.757 151.982 179.547 151.847 179.373C150.911 178.274 149.919 177.278 148.895 176.407L148.935 176.163L153.773 178.956C154.43 179.365 154.958 179.908 155.134 180.819L156.191 187.272L156.191 187.266L156.193 187.267ZM179.849 202.222L181.047 199.355C181.032 199.385 181.293 198.763 181.445 198.373L181.651 199.591L182.346 203.662L179.847 202.219L179.847 202.221L179.849 202.222Z" fill="white"/>
</g>
<rect width="19.4965" height="14.977" rx="3.26421" transform="matrix(0.866025 0.5 -2.20305e-08 1 53 89.9259)" fill="#F9F9F9"/>
<path d="M182.442 145.65C182.808 145.531 183.339 145.911 183.602 146.505C185.15 149.997 185.989 153.565 186 156.74C186.012 159.916 185.195 162.535 183.666 164.266C183.406 164.561 182.875 164.332 182.507 163.792C182.139 163.252 182.072 162.606 182.329 162.307C183.632 160.789 184.327 158.52 184.317 155.777C184.308 153.034 183.593 149.957 182.274 146.938C182.014 146.343 182.076 145.77 182.442 145.65Z" fill="white"/>
<path d="M179.587 145.81C179.958 145.724 180.472 146.122 180.707 146.705C181.819 149.462 182.412 152.233 182.415 154.719C182.417 157.204 181.829 159.295 180.722 160.774C180.488 161.086 179.974 160.892 179.603 160.379C179.23 159.863 179.142 159.22 179.373 158.9C180.286 157.632 180.771 155.864 180.769 153.77C180.766 151.677 180.278 149.348 179.36 147.025C179.128 146.439 179.215 145.897 179.587 145.81Z" fill="white"/>
<path d="M176.536 145.93C176.888 145.851 177.374 146.226 177.591 146.778C178.388 148.8 178.812 150.825 178.814 152.644C178.816 154.463 178.396 156.001 177.602 157.107C177.386 157.409 176.9 157.225 176.548 156.74C176.189 156.248 176.107 155.633 176.319 155.317C176.925 154.412 177.246 153.183 177.244 151.74C177.243 150.296 176.919 148.696 176.31 147.092C176.097 146.53 176.178 146.01 176.536 145.93Z" fill="white"/>
<path d="M173.588 145.839C173.944 145.739 174.45 146.097 174.688 146.667C175.277 148.079 175.595 149.491 175.603 150.756C175.61 152.019 175.307 153.077 174.732 153.825C174.5 154.127 173.994 153.909 173.634 153.401C173.244 152.851 173.179 152.179 173.402 151.816C173.726 151.286 173.896 150.591 173.891 149.78C173.886 148.968 173.707 148.073 173.373 147.168C173.144 146.548 173.202 145.946 173.588 145.839Z" fill="white"/>
<g clip-path="url(#clip1_1801_6653)">
<path d="M59.9107 47.6429C59.7923 47.8412 59.6826 48.0279 59.5614 48.2346C58.7616 47.1328 57.933 45.9877 57.1016 44.8442C57.1073 44.8342 57.1102 44.8225 57.116 44.8125C58.0341 45.7393 58.9551 46.6744 59.9107 47.6429Z" fill="white"/>
<path d="M56.6133 43.3908C56.8442 42.6507 57.0781 41.9123 57.3177 41.1472C57.5805 41.4522 57.8287 41.7422 58.1001 42.0589C57.6064 42.5273 57.1272 42.984 56.6479 43.4374C56.6364 43.4208 56.6248 43.4074 56.6133 43.3908Z" fill="white"/>
<path d="M55.9981 42.899C55.6516 41.9522 55.3052 41.0055 54.9414 40.012C55.1926 40.0603 55.4178 40.1037 55.6718 40.1537C55.796 41.0855 55.9173 41.9956 56.0385 42.9057C56.0241 42.9007 56.0125 42.9007 55.9981 42.899Z" fill="white"/>
<path d="M53.0898 40.4471C53.1736 40.3221 53.2515 40.2104 53.3352 40.0887C54.1003 41.0371 54.7903 42.0256 55.3995 43.0908C55.03 42.644 54.6633 42.1823 54.2851 41.7506C53.9011 41.3089 53.5027 40.8955 53.0898 40.4471Z" fill="white"/>
<path d="M59.3093 44.9211C58.5876 44.8078 57.8745 44.5494 57.1758 44.1994C57.7965 44.241 58.4432 44.2877 59.1159 44.3327C59.1708 44.4911 59.2343 44.6878 59.3093 44.9211Z" fill="white"/>
<path d="M69.494 63.0849C69.4854 63.0465 69.4767 63.0082 69.468 62.9766C69.367 62.5749 69.2573 62.1848 69.1331 61.7998C69.0869 61.6631 69.0436 61.5214 68.9946 61.3864C68.778 60.738 68.5211 60.1129 68.2353 59.5078C68.2006 59.4345 68.166 59.3645 68.1313 59.2911C68.1255 59.2811 68.1198 59.2678 68.114 59.2511C68.0649 59.1528 68.0274 59.0644 67.9956 58.9794C66.0555 55.209 63.1424 53.1637 62.3311 52.642C62.1926 52.5553 62.1146 52.5103 62.1146 52.5103L62.0857 52.4937C60.622 51.6152 59.2477 51.3152 57.9514 51.4702C57.8908 51.4785 57.8302 51.4802 57.7176 51.4885L57.7176 51.1385C57.7176 49.865 57.7118 48.5882 57.7233 47.3313C57.7262 47.083 57.6685 46.913 57.4693 46.6879C57.4231 46.6346 57.3798 46.583 57.3336 46.5296L56.4819 45.5445L56.606 52.6303L57.8215 54.7823L58.0727 54.5639C58.3816 54.3089 58.8782 54.4989 59.2881 55.0456C59.4643 55.2873 59.6288 55.5457 59.7934 55.8007C59.8309 55.8524 59.8627 55.8907 59.8916 55.9107C61.006 55.8141 62.3918 56.4475 63.6794 57.7843L63.7285 57.8393C63.7891 57.9043 63.844 57.9626 63.9046 58.0276C63.9739 58.1043 64.0374 58.1776 64.1009 58.2476C64.1702 58.3277 64.2337 58.4077 64.2944 58.486C64.3348 58.5394 64.3752 58.5927 64.4156 58.6427C64.5196 58.7794 64.6177 58.9194 64.713 59.0577C64.7361 59.0944 64.765 59.1311 64.791 59.1695C64.8718 59.2961 64.9526 59.4262 65.0306 59.5578C65.0508 59.5962 65.071 59.6245 65.0912 59.6562C65.2615 59.9479 65.4117 60.2346 65.5474 60.5263C65.5647 60.5596 65.5791 60.5913 65.5907 60.6213C65.6571 60.7563 65.7148 60.8997 65.7697 61.0313C65.7755 61.0413 65.7783 61.0497 65.7841 61.0597C66.1825 62.0431 66.4193 63.0633 66.4222 64.015C66.425 64.6901 66.3096 65.2635 66.0988 65.7319C66.067 65.8035 66.0295 65.8752 65.992 65.9402C65.0392 67.7538 62.5968 67.4671 60.4459 65.2352C58.7281 63.4566 57.6887 60.9163 57.7176 58.9061C57.7205 58.8077 57.7233 58.7127 57.732 58.6211C57.7551 58.301 57.8042 58.0026 57.885 57.7226C57.885 57.6526 57.859 57.5943 57.8042 57.5093C57.6569 57.3009 57.5212 57.0959 57.3827 56.8825C56.9987 56.2908 56.9121 55.6907 57.1748 55.3523C57.2066 55.3106 57.247 55.284 57.2874 55.2473L55.7717 52.5553L55.6273 44.5577L55.5465 44.461C55.2866 44.1577 55.0268 43.8576 54.7641 43.5559C54.6139 43.3859 54.4609 43.2142 54.2617 42.9892L54.2617 56.9408C54.2675 58.1176 54.4465 59.3478 54.8131 60.6563C56.3982 66.2653 61.1474 71.2909 65.1374 71.5809C68.8589 71.846 70.7586 68.2588 69.494 63.0849Z" fill="white"/>
<path d="M57.3511 55.1878L57.168 55.3471C57.2145 55.2867 57.2842 55.2566 57.3511 55.1878Z" fill="white"/>
</g>
<path fill-rule="evenodd" clip-rule="evenodd" d="M58.4127 98.375C58.4127 96.5801 59.6728 95.8525 61.2272 96.75L62.0933 97.25C63.6477 98.1475 64.9078 100.33 64.9078 102.125L64.9078 102.875L69.8875 105.75L69.8875 106.25L64.9078 103.375L64.9078 105.375L69.8875 108.25L69.8875 108.75L64.9078 105.875L64.9078 107.125C64.9078 108.92 63.6477 109.647 62.0933 108.75L61.2272 108.25C59.6728 107.353 58.4127 105.17 58.4127 103.375L58.4127 102.125L53 99L53 98.5L58.4127 101.625L58.4127 99.625L53 96.5L53 96L58.4127 99.125L58.4127 98.375ZM61.2272 97.25C59.9119 96.4906 58.8457 97.1062 58.8457 98.625L58.8457 103.625C58.8457 105.144 59.9119 106.991 61.2272 107.75L62.0933 108.25C63.4086 109.009 64.4748 108.394 64.4748 106.875L64.4748 101.875C64.4748 100.356 63.4086 98.5094 62.0933 97.75L61.2272 97.25Z" fill="#9E9E9E"/>
<defs>
<clipPath id="clip0_1801_6653">
<rect width="43.9137" height="14.015" fill="white" transform="matrix(0.866025 0.5 -2.20305e-08 1 148.426 175.201)"/>
</clipPath>
<clipPath id="clip1_1801_6653">
<rect width="21.3058" height="27.5722" fill="white" transform="matrix(0.866025 0.5 -2.20305e-08 1 52.5625 37.6693)"/>
</clipPath>
</defs>
</svg>
