<svg width="250" height="250" viewBox="0 0 250 250" fill="none" xmlns="http://www.w3.org/2000/svg">
<path d="M76.5508 181.966C76.585 181.949 76.6193 181.915 76.6536 181.898L76.7563 181.795C76.7049 181.864 76.6193 181.915 76.5508 181.966Z" fill="white" stroke="#231F20" stroke-width="0.75" stroke-miterlimit="10" stroke-linecap="round" stroke-linejoin="round"/>
<path d="M46.1992 162.284C46.1992 164.042 47.4283 166.159 48.9476 167.029L74.536 181.795C75.3213 182.256 76.0382 182.29 76.5503 181.966C76.5845 181.949 76.6186 181.915 76.6527 181.897L76.7552 181.795C76.8917 181.659 77.0112 181.488 77.0795 181.266C77.1307 181.163 77.1649 181.044 77.1819 180.942C77.199 180.873 77.2161 180.788 77.2331 180.72C77.2502 180.566 77.2673 180.412 77.2673 180.242L77.3356 150.846C77.3527 149.105 76.1065 146.989 74.5872 146.118L49.0158 131.352C48.7939 131.233 48.572 131.13 48.3842 131.062C48.0428 130.977 47.7185 130.96 47.4454 131.011C47.3771 131.028 47.2917 131.045 47.2235 131.079C47.2064 131.079 47.1893 131.096 47.1552 131.096C47.1552 131.096 47.1381 131.113 47.121 131.113C46.5919 131.386 46.2675 132.001 46.2504 132.906L46.1992 162.284Z" fill="#EA5328" stroke="#231F20" stroke-width="0.75" stroke-miterlimit="10" stroke-linecap="round" stroke-linejoin="round"/>
<path d="M47.1836 131.079C47.2177 131.079 47.2348 131.062 47.2518 131.062C47.3201 131.028 47.4055 131.011 47.4738 130.994C47.7469 130.942 48.0542 130.959 48.4127 131.045C48.6175 131.096 48.8394 131.216 49.0443 131.335L74.6156 146.101C76.1349 146.971 77.3811 149.105 77.364 150.829L77.2957 180.225C77.2957 180.395 77.2786 180.549 77.2616 180.703C77.2616 180.771 77.2445 180.856 77.2104 180.924C77.1933 181.044 77.1592 181.163 77.1079 181.249C77.0397 181.471 76.9031 181.658 76.7836 181.778L76.6812 181.88L84.6189 177.271C85.1139 176.998 85.4212 176.384 85.4212 175.513L85.4895 146.118C85.5066 144.36 84.2604 142.243 82.7411 141.372L57.1697 126.607C56.4016 126.163 55.7017 126.129 55.1896 126.419L47.1836 131.079Z" fill="white" stroke="#231F20" stroke-width="0.75" stroke-miterlimit="10" stroke-linecap="round" stroke-linejoin="round"/>
<g clip-path="url(#clip0_1938_1819)">
<path d="M61.0582 144.467C60.9132 144.284 60.7349 144.181 60.59 144.196L51.9763 145.102C51.8314 145.117 51.7422 145.248 51.7422 145.446L51.7422 157.204C51.7422 157.402 51.8314 157.636 51.9763 157.818L60.59 168.67C60.6624 168.762 60.7432 168.833 60.8241 168.88C60.905 168.926 60.9857 168.948 61.0582 168.941L69.672 168.035C69.8169 168.02 69.9061 167.889 69.9061 167.691L69.9061 155.933C69.9061 155.735 69.8169 155.501 69.672 155.319L61.0582 144.467ZM68.9695 166.831L60.824 167.687L52.6785 157.425L52.6785 146.306L60.824 145.45L68.9695 155.712L68.9695 166.831Z" fill="black"/>
<path d="M68.9695 166.831L60.824 167.687L52.6785 157.425L52.6785 146.306L60.824 145.45L68.9695 155.712L68.9695 166.831Z" fill="white"/>
<path d="M57.9176 151.604C57.659 151.455 57.4494 151.581 57.4494 151.887L57.4494 155.498L55.2819 150.332C55.1683 150.062 54.9539 149.846 54.7564 149.802C54.5579 149.757 54.4219 149.894 54.4219 150.139L54.4219 155.606C54.4219 155.912 54.6315 156.281 54.8901 156.43C55.1486 156.579 55.3582 156.453 55.3582 156.147L55.3582 152.536L57.5257 157.702C57.7795 158.305 58.3857 158.446 58.3857 157.895L58.3857 152.428C58.3857 152.122 58.1761 151.753 57.9176 151.604Z" fill="black"/>
<path d="M63.4682 155.915L64.6437 156.594L64.6437 161.508C64.6437 161.814 64.8533 162.182 65.1119 162.332C65.3704 162.481 65.58 162.354 65.58 162.049L65.58 157.135L66.7558 157.814C67.0143 157.963 67.2239 157.836 67.2239 157.53C67.2239 157.225 67.0143 156.856 66.7558 156.707L63.4682 154.809C63.2096 154.659 63 154.786 63 155.092C63 155.397 63.2096 155.766 63.4682 155.915Z" fill="black"/>
<path d="M59.3086 152.96L59.3086 158.427C59.3086 158.732 59.5182 159.101 59.7768 159.251C60.0353 159.4 60.245 159.273 60.245 158.967L60.245 156.787L62.0921 157.854C62.3506 158.003 62.5603 157.876 62.5603 157.571C62.5603 157.265 62.3506 156.896 62.0921 156.747L60.245 155.68L60.245 154.054L62.0921 155.12C62.3506 155.269 62.5603 155.143 62.5603 154.837C62.5603 154.531 62.3506 154.162 62.0921 154.013L59.7768 152.676C59.5182 152.527 59.3086 152.654 59.3086 152.96Z" fill="black"/>
</g>
<path d="M51.2598 68.9432L76.0631 83.2652C76.6947 83.6237 77.258 83.6579 77.6506 83.4018C78.0432 83.1628 78.2993 82.6677 78.2993 81.9679V54.3822C78.2993 52.9483 77.2921 51.2241 76.0631 50.5072L46.3094 33.3344L45.2852 32.7369L37.2792 28.1109C36.6646 27.7524 36.1184 27.7183 35.7087 27.9572C35.299 28.1792 35.043 28.6742 35.043 29.3911V57.4036C35.043 58.5985 35.8794 60.0324 36.9036 60.6299L41.2566 63.1392L51.2598 68.9432Z" fill="#9CE2C8" stroke="#231F20" stroke-width="0.75" stroke-miterlimit="10" stroke-linecap="round" stroke-linejoin="round"/>
<path d="M64.0977 59.981C64.0977 61.3979 65.0877 63.1049 66.3168 63.8219C67.5458 64.5218 68.5359 63.9584 68.5359 62.5416C68.5359 61.1248 67.5458 59.4177 66.3168 58.7008C65.0877 58.0009 64.0977 58.5813 64.0977 59.981Z" fill="white" stroke="#231F20" stroke-width="0.75" stroke-miterlimit="10" stroke-linecap="round" stroke-linejoin="round"/>
<path d="M54.4453 54.4162C54.4453 55.833 55.4354 57.54 56.6645 58.257C57.8936 58.9569 58.8836 58.3936 58.8836 56.9767C58.8836 55.5599 57.8936 53.8528 56.6645 53.1359C55.4354 52.436 54.4453 52.9993 54.4453 54.4162Z" fill="white" stroke="#231F20" stroke-width="0.75" stroke-miterlimit="10" stroke-linecap="round" stroke-linejoin="round"/>
<path d="M44.8047 48.8512C44.8047 50.2681 45.7948 51.9751 47.0239 52.692C48.2529 53.3919 49.243 52.8286 49.243 51.4118C49.243 49.9949 48.2529 48.2879 47.0239 47.5709C45.7948 46.8711 44.8047 47.4344 44.8047 48.8512Z" fill="white" stroke="#231F20" stroke-width="0.75" stroke-miterlimit="10" stroke-linecap="round" stroke-linejoin="round"/>
<path d="M35.6875 27.9743C36.0972 27.7524 36.6434 27.7865 37.275 28.1449L45.281 32.771L46.3053 33.3685L76.0589 50.5413C77.288 51.2582 78.2951 52.9823 78.2951 54.4162V82.002C78.2951 82.7019 78.0561 83.1969 77.6464 83.4359V83.453L82.7163 80.5339L87.8033 77.5978L87.9228 77.5295C88.3155 77.2906 88.5373 76.7955 88.5373 76.0956V48.527C88.5373 47.093 87.5302 45.369 86.3011 44.652L47.5173 22.2557C46.9198 21.9143 46.3735 21.8631 45.9809 22.085L45.7932 22.1874L35.6875 27.9743Z" fill="white" stroke="#231F20" stroke-width="0.75" stroke-miterlimit="10" stroke-linecap="round" stroke-linejoin="round"/>
<path d="M82.9727 178.262C82.9557 182.427 85.8917 187.48 89.4936 189.579L155.658 227.766C157.519 228.841 159.192 228.927 160.387 228.175C160.489 228.107 160.592 228.039 160.694 227.971C160.797 227.885 160.865 227.8 160.967 227.732C161.053 227.646 161.138 227.561 161.206 227.459C161.377 227.254 161.513 227.032 161.633 226.793C161.684 226.69 161.735 226.571 161.804 226.451C161.804 226.417 161.821 226.4 161.838 226.366C161.906 226.195 161.974 225.973 162.008 225.769C162.043 225.666 162.077 225.564 162.094 225.461C162.128 225.291 162.162 225.12 162.179 224.932C162.196 224.83 162.213 224.744 162.213 224.642C162.23 224.454 162.248 224.249 162.248 224.027L162.265 220.955L162.316 203.423L162.35 186.319L162.452 148.081V147.757L162.486 137.173L162.589 99.6015V98.5772L162.623 87.0889L162.64 82.514L162.657 78.9975C162.674 74.8324 159.738 69.7795 156.136 67.697L141.319 59.1447L129.063 52.0776L109.79 40.9477L107.656 39.7186L89.9715 29.4935C89.7155 29.3398 89.4424 29.2204 89.2034 29.1009C89.2034 29.1009 89.2034 29.1009 89.1863 29.1009C88.2645 28.6912 87.3939 28.5375 86.6258 28.6229C86.5063 28.6399 86.3868 28.657 86.2502 28.6912C86.1478 28.7082 86.0625 28.7253 85.96 28.7765C85.7211 28.8277 85.4991 28.9301 85.2943 29.0496C84.1335 29.7324 83.3995 31.1835 83.3824 33.249L83.3483 42.0402L83.3141 53.8529L83.0069 157.641L82.9727 178.262Z" fill="white" stroke="#231F20" stroke-width="0.75" stroke-miterlimit="10" stroke-linecap="round" stroke-linejoin="round"/>
<path d="M156.532 197.329C156.532 198.849 155.457 199.463 154.142 198.695L90.2478 161.806C88.9333 161.055 87.875 159.194 87.875 157.692L88.1652 59.4008C88.1652 57.8816 89.2406 57.267 90.5551 58.0352L154.449 94.9243C155.764 95.6754 156.822 97.536 156.822 99.0382L156.532 197.329Z" fill="#7369F6" stroke="#231F20" stroke-width="0.75" stroke-miterlimit="10" stroke-linecap="round" stroke-linejoin="round"/>
<path d="M156.532 197.329C156.532 198.849 155.457 199.463 154.142 198.695L90.2478 161.806C88.9333 161.055 87.875 159.194 87.875 157.692L88.1652 59.4008C88.1652 57.8816 89.2406 57.267 90.5551 58.0352L154.449 94.9243C155.764 95.6754 156.822 97.536 156.822 99.0382L156.532 197.329Z" stroke="#231F20" stroke-width="0.75" stroke-miterlimit="10" stroke-linecap="round" stroke-linejoin="round"/>
<path d="M174.03 66.7922L161.381 73.8081C160.203 71.2646 158.274 68.9431 156.123 67.697L141.306 59.1447L129.05 52.0776L109.777 40.9477L107.643 39.7186L89.9586 29.4935C89.7025 29.3398 89.4294 29.2033 89.1904 29.1009C89.1904 29.1009 89.1904 29.1009 89.1733 29.1009C88.2515 28.6912 87.3809 28.5375 86.6127 28.6229C86.4932 28.6399 86.3738 28.657 86.2372 28.6912C86.1348 28.7082 86.0494 28.7253 85.947 28.7765C85.708 28.8278 85.4861 28.9301 85.2812 29.0496L97.8109 21.7777C99.0059 21.0778 100.662 21.1802 102.471 22.2386L168.636 60.4421C170.872 61.7223 172.835 64.1463 174.03 66.7922Z" fill="white" stroke="#231F20" stroke-width="0.75" stroke-miterlimit="10" stroke-linecap="round" stroke-linejoin="round"/>
<path d="M175.155 71.7255L175.103 92.3466L163.103 99.3283L162.574 99.6356V98.6114L162.608 87.123L162.625 82.5482L162.642 79.0317C162.642 77.3588 162.181 75.5493 161.379 73.8423L174.028 66.8264C174.745 68.431 175.155 70.1551 175.155 71.7255Z" fill="#231F20" stroke="#231F20" stroke-width="0.75" stroke-miterlimit="10" stroke-linecap="round" stroke-linejoin="round"/>
<path d="M160.297 228.227L172.827 220.955C174.004 220.272 174.738 218.804 174.738 216.755L174.755 213.666L174.807 196.134L162.277 203.406L162.226 220.938L162.209 224.01C162.209 224.232 162.192 224.437 162.175 224.625C162.175 224.727 162.158 224.813 162.14 224.915C162.123 225.086 162.106 225.273 162.055 225.444C162.038 225.547 162.021 225.666 161.97 225.751C161.936 225.956 161.867 226.161 161.799 226.349C161.782 226.383 161.765 226.4 161.765 226.434C161.714 226.554 161.663 226.673 161.594 226.776C161.475 227.015 161.338 227.237 161.167 227.441C161.082 227.544 160.997 227.629 160.928 227.714C160.826 227.8 160.758 227.885 160.655 227.954C160.553 228.022 160.468 228.09 160.348 228.158C160.348 228.192 160.331 228.21 160.297 228.227Z" fill="#231F20" stroke="#231F20" stroke-width="0.75" stroke-miterlimit="10" stroke-linecap="round" stroke-linejoin="round"/>
<path d="M162.281 203.406L174.811 196.134L175.101 92.3294L163.101 99.3112L162.571 99.6185L162.469 137.173L162.435 147.757V148.064L162.332 186.302L162.281 203.406Z" fill="#231F20" stroke="#231F20" stroke-width="0.75" stroke-miterlimit="10" stroke-linecap="round" stroke-linejoin="round"/>
<path d="M118.922 130.345C119.468 130.516 120.031 130.721 120.595 130.96C120.031 130.721 119.468 130.533 118.922 130.345Z" fill="white" stroke="#231F20" stroke-width="0.75" stroke-miterlimit="10" stroke-linecap="round" stroke-linejoin="round"/>
<path d="M106.004 140.451C106.465 133.708 110.186 129.799 115.393 129.799C115.632 129.799 115.905 129.816 116.144 129.833C116.195 129.833 116.246 129.833 116.314 129.85C116.57 129.884 116.844 129.901 117.1 129.953C117.39 129.987 117.68 130.055 117.97 130.106C117.748 130.072 117.526 130.004 117.304 129.987C117.083 129.935 116.861 129.901 116.656 129.884C110.715 129.099 106.431 133.059 106.004 140.451Z" fill="white" stroke="#231F20" stroke-width="0.75" stroke-miterlimit="10" stroke-linecap="round" stroke-linejoin="round"/>
<path d="M114.973 118.498C114.956 123.5 118.455 129.56 122.808 132.069C127.144 134.562 130.66 132.564 130.677 127.563C130.712 122.595 127.195 116.518 122.859 114.026C118.523 111.517 114.99 113.531 114.973 118.498Z" fill="white" stroke="#231F20" stroke-width="0.75" stroke-miterlimit="10" stroke-linecap="round" stroke-linejoin="round"/>
<path d="M106.012 140.451C106.473 133.708 110.194 129.799 115.4 129.799C115.639 129.799 115.913 129.816 116.152 129.833C116.203 129.833 116.254 129.833 116.322 129.85C116.425 129.867 116.544 129.867 116.664 129.884C110.723 129.099 106.438 133.059 106.012 140.451ZM117.312 129.97C117.09 129.918 116.868 129.884 116.664 129.867C116.8 129.884 116.954 129.901 117.107 129.935C117.176 129.935 117.244 129.953 117.312 129.97Z" fill="white" stroke="#231F20" stroke-width="0.75" stroke-miterlimit="10" stroke-linecap="round" stroke-linejoin="round"/>
<path d="M105.955 141.834V141.663C105.955 141.253 105.972 140.843 105.989 140.434C106.433 133.042 110.718 129.082 116.641 129.85C116.846 129.867 117.068 129.884 117.29 129.953C117.512 129.987 117.734 130.038 117.956 130.072C118.263 130.157 118.587 130.243 118.912 130.328C119.458 130.499 120.021 130.704 120.584 130.943C121.301 131.25 122.035 131.608 122.786 132.035C118.451 129.526 114.951 123.466 114.951 118.464C114.968 113.497 118.502 111.465 122.838 113.992C127.174 116.484 130.673 122.561 130.656 127.529C130.639 132.53 127.122 134.527 122.786 132.035C132.073 137.395 139.55 150.539 139.532 161.191C145.2 158.972 148.836 152.827 148.853 143.643C148.887 127.119 137.262 106.976 122.889 98.6626C108.499 90.3494 96.8054 97.0409 96.7541 113.565C96.72 122.783 100.305 133.076 105.955 141.834Z" fill="#231F20" stroke="#231F20" stroke-width="0.75" stroke-miterlimit="10" stroke-linecap="round" stroke-linejoin="round"/>
<path d="M105.953 141.663V141.834C110.477 148.849 116.315 154.892 122.716 158.597C129.118 162.284 134.973 163.018 139.531 161.225C139.565 150.574 132.071 137.429 122.784 132.069C122.05 131.643 121.299 131.267 120.582 130.977C120.019 130.738 119.456 130.533 118.91 130.362C118.585 130.26 118.261 130.192 117.954 130.106C117.663 130.055 117.373 130.004 117.083 129.953C116.827 129.918 116.554 129.884 116.298 129.85C116.247 129.833 116.195 129.833 116.127 129.833C115.888 129.816 115.615 129.799 115.376 129.799C110.152 129.782 106.448 133.708 105.987 140.451C105.97 140.843 105.953 141.253 105.953 141.663Z" fill="white" stroke="#231F20" stroke-width="0.75" stroke-miterlimit="10" stroke-linecap="round" stroke-linejoin="round"/>
<path d="M116.496 191.065L128.736 198.132" stroke="#231F20" stroke-width="0.75" stroke-miterlimit="10" stroke-linecap="round" stroke-linejoin="round"/>
<path d="M116.875 59.1446L129.114 66.2117" stroke="#231F20" stroke-width="0.75" stroke-miterlimit="10" stroke-linecap="round" stroke-linejoin="round"/>
<path d="M168.164 177.289L168.284 152.11C168.301 150.949 168.727 150.164 169.393 149.84L169.427 149.822C170.042 149.532 170.861 149.618 171.749 150.13L202.783 168.156C204.695 169.249 206.231 171.929 206.214 174.114L206.094 198.046L206.077 199.685" stroke="#231F20" stroke-width="0.75" stroke-miterlimit="10" stroke-linecap="round" stroke-linejoin="round"/>
<path d="M205.236 206.189L205.082 206.275" stroke="#231F20" stroke-width="0.75" stroke-miterlimit="10" stroke-linecap="round" stroke-linejoin="round"/>
<path d="M169.43 149.823C170.044 149.532 170.864 149.618 171.751 150.13L202.785 168.156C204.697 169.249 206.233 171.929 206.216 174.114L206.097 198.046L206.08 199.685V199.702L206.046 204.106C206.029 205.079 205.738 205.779 205.243 206.172L213.642 201.392C213.744 201.358 213.83 201.307 213.915 201.238C214.444 200.846 214.786 200.146 214.803 199.122L214.837 194.718L214.82 194.701L214.956 169.129C214.973 166.944 213.437 164.264 211.542 163.172L180.491 145.145C179.57 144.616 178.733 144.548 178.118 144.889V144.872L169.43 149.823Z" fill="white" stroke="#231F20" stroke-width="0.75" stroke-miterlimit="10" stroke-linecap="round" stroke-linejoin="round"/>
<path d="M168.375 184.368C168.375 186.318 169.869 188.665 171.715 189.631L202.812 206.005C203.767 206.516 204.638 206.554 205.26 206.194C205.302 206.175 205.343 206.137 205.385 206.118L205.509 206.005C205.654 205.872 205.82 205.664 205.903 205.418C205.966 205.304 206.007 205.172 206.028 205.058C206.049 204.983 206.069 204.888 206.09 204.812C206.111 204.642 206.132 204.472 206.132 204.282L206.215 171.685C206.235 169.755 204.721 167.407 202.875 166.442L171.798 150.068C171.528 149.935 171.259 149.822 171.03 149.746C170.615 149.651 170.221 149.632 169.889 149.689C169.806 149.708 169.703 149.727 169.62 149.765C169.599 149.765 169.578 149.784 169.537 149.784C169.537 149.784 169.516 149.803 169.495 149.803C168.852 150.106 168.458 150.787 168.437 151.79L168.375 184.368Z" fill="#E06AE9" stroke="#231F20" stroke-width="0.75" stroke-miterlimit="10" stroke-linecap="round" stroke-linejoin="round"/>
<path d="M198.402 134.562C198.437 134.545 198.471 134.511 198.505 134.494L198.608 134.391C198.539 134.442 198.471 134.511 198.402 134.562Z" fill="white" stroke="#231F20" stroke-width="0.75" stroke-miterlimit="10" stroke-linecap="round" stroke-linejoin="round"/>
<path d="M168.055 114.862C168.055 116.621 169.284 118.737 170.803 119.608L196.392 134.374C197.177 134.835 197.894 134.869 198.406 134.545C198.44 134.528 198.474 134.493 198.508 134.476L198.611 134.374C198.73 134.254 198.867 134.067 198.935 133.845C198.986 133.742 199.02 133.623 199.037 133.52C199.054 133.452 199.072 133.367 199.089 133.298C199.106 133.145 199.123 132.991 199.123 132.82L199.191 103.425C199.208 101.684 197.962 99.5674 196.443 98.6968L170.871 83.931C170.649 83.8115 170.427 83.709 170.24 83.6407C169.898 83.5554 169.574 83.5383 169.301 83.5895C169.233 83.6066 169.147 83.6237 169.079 83.6578C169.062 83.6578 169.045 83.6749 169.011 83.6749C169.011 83.6749 168.994 83.692 168.977 83.692C168.447 83.9651 168.123 84.5796 168.106 85.4844L168.055 114.862Z" fill="#FFCF53" stroke="#231F20" stroke-width="0.75" stroke-miterlimit="10" stroke-linecap="round" stroke-linejoin="round"/>
<path d="M169.039 83.6579C169.073 83.6579 169.09 83.6408 169.107 83.6408C169.176 83.6067 169.261 83.5896 169.329 83.5725C169.602 83.5213 169.91 83.5384 170.268 83.6237C170.473 83.675 170.695 83.7945 170.9 83.914L196.471 98.6798C197.99 99.5504 199.237 101.684 199.219 103.408L199.151 132.804C199.151 132.974 199.134 133.128 199.117 133.281C199.117 133.35 199.1 133.435 199.066 133.503C199.049 133.623 199.015 133.742 198.963 133.828C198.895 134.05 198.759 134.237 198.639 134.357L198.537 134.459L206.474 129.85C206.969 129.577 207.277 128.963 207.277 128.092L207.345 98.6969C207.362 96.9387 206.116 94.8219 204.597 93.9513L179.025 79.1855C178.257 78.7417 177.557 78.7075 177.045 78.9977L169.039 83.6579Z" fill="white" stroke="#231F20" stroke-width="0.75" stroke-miterlimit="10" stroke-linecap="round" stroke-linejoin="round"/>
<g clip-path="url(#clip1_1938_1819)">
<path d="M184.257 103.785C186.824 105.267 188.912 108.883 188.912 111.847C188.912 114.811 186.824 116.016 184.257 114.534C181.691 113.053 179.603 109.436 179.603 106.472C179.603 103.509 181.691 102.303 184.257 103.785ZM184.257 104.598C182.079 103.34 180.306 104.363 180.306 106.879C180.306 109.394 182.079 112.464 184.257 113.722C186.436 114.98 188.208 113.956 188.208 111.441C188.208 108.925 186.436 105.855 184.257 104.598ZM175.606 109.32C174.898 107.33 174.523 105.331 174.523 103.54C174.523 100.538 175.536 98.2998 177.374 97.2384C179.213 96.1769 181.657 96.4191 184.257 97.9202L189.434 100.909L189.434 100.144C189.434 99.912 189.547 99.7727 189.73 99.7805C189.912 99.7886 190.121 99.9416 190.274 100.18L192.838 104.175C192.954 104.356 193.018 104.552 193.018 104.728C193.018 104.903 192.954 105.026 192.838 105.073L190.274 106.106C190.121 106.168 189.912 106.081 189.73 105.878C189.547 105.675 189.434 105.405 189.434 105.173L189.434 104.408L184.257 101.419C180.561 99.285 177.554 101.021 177.554 105.29C177.554 107.014 178.034 108.924 178.944 110.813C179.026 110.983 179.041 111.157 178.981 111.262C178.922 111.366 178.8 111.384 178.666 111.306L175.918 109.72C175.787 109.644 175.666 109.49 175.606 109.32ZM175.227 103.946C175.227 105.549 175.532 107.259 176.135 109.033L177.99 110.104C177.242 108.309 176.85 106.52 176.85 104.883C176.85 100.167 180.173 98.2484 184.257 100.607L189.786 103.798C189.98 103.911 190.137 104.183 190.137 104.408L190.137 105.096L192.209 104.261L190.137 101.034L190.137 101.721C190.137 101.946 189.98 102.037 189.786 101.925L184.257 98.7327C179.278 95.8579 175.227 98.1967 175.227 103.946ZM193.991 114.78C193.991 117.782 192.978 120.02 191.14 121.081C189.302 122.143 186.857 121.9 184.257 120.399L179.081 117.411L179.081 118.175C179.081 118.407 178.967 118.547 178.785 118.539C178.715 118.536 178.642 118.512 178.569 118.47C178.451 118.402 178.335 118.287 178.24 118.139L175.676 114.144C175.56 113.964 175.496 113.767 175.496 113.592C175.496 113.416 175.56 113.293 175.676 113.247L178.24 112.213C178.394 112.151 178.602 112.239 178.785 112.442C178.967 112.644 179.081 112.915 179.081 113.147L179.081 113.912L184.257 116.9C187.954 119.034 190.961 117.298 190.961 113.03C190.961 111.305 190.48 109.395 189.57 107.507C189.488 107.337 189.474 107.163 189.533 107.058C189.592 106.953 189.715 106.936 189.849 107.013L192.596 108.6C192.728 108.676 192.848 108.83 192.909 109C193.617 110.99 193.991 112.988 193.991 114.78ZM193.287 114.373C193.287 112.77 192.982 111.061 192.379 109.287L190.524 108.216C191.272 110.011 191.664 111.799 191.664 113.436C191.664 118.153 188.342 120.071 184.257 117.713L178.729 114.521C178.534 114.409 178.377 114.136 178.377 113.912L178.377 113.224L176.305 114.059L178.377 117.286L178.377 116.598C178.377 116.49 178.414 116.408 178.48 116.37C178.546 116.332 178.635 116.341 178.729 116.395L184.257 119.587C189.236 122.462 193.287 120.123 193.287 114.373Z" fill="black"/>
<path d="M184.257 104.598C182.079 103.34 180.306 104.363 180.306 106.879C180.306 109.394 182.079 112.464 184.257 113.722C186.436 114.98 188.208 113.956 188.208 111.441C188.208 108.925 186.436 105.855 184.257 104.598Z" fill="white"/>
<path d="M175.227 103.946C175.227 105.549 175.532 107.259 176.135 109.033L177.99 110.104C177.242 108.309 176.85 106.52 176.85 104.883C176.85 100.167 180.173 98.2484 184.257 100.607L189.786 103.798C189.98 103.911 190.137 104.183 190.137 104.408L190.137 105.096L192.209 104.261L190.137 101.034L190.137 101.721C190.137 101.946 189.98 102.037 189.786 101.925L184.257 98.7327C179.278 95.8579 175.227 98.1967 175.227 103.946Z" fill="white"/>
<path d="M193.287 114.373C193.287 112.77 192.982 111.061 192.379 109.287L190.524 108.216C191.272 110.011 191.664 111.799 191.664 113.436C191.664 118.153 188.342 120.071 184.257 117.713L178.729 114.521C178.534 114.409 178.377 114.136 178.377 113.912L178.377 113.224L176.305 114.059L178.377 117.286L178.377 116.598C178.377 116.49 178.414 116.408 178.48 116.37C178.546 116.332 178.635 116.341 178.729 116.395L184.257 119.587C189.236 122.462 193.287 120.123 193.287 114.373Z" fill="white"/>
</g>
<g clip-path="url(#clip2_1938_1819)">
<path d="M193.95 172.414C193.938 172.149 194.109 172.027 194.333 172.142L196.596 173.307C196.718 173.37 196.836 173.493 196.918 173.645C197 173.796 197.038 173.958 197.02 174.087L196.694 176.489C196.664 176.705 196.491 176.773 196.292 176.658C196.273 176.647 196.253 176.634 196.233 176.619C196.011 176.454 195.858 176.127 195.89 175.89L196.054 174.686C193.419 175.867 190.51 176.594 187.395 176.845C184.449 177.083 181.241 176.904 177.861 176.311C177.816 176.304 177.771 176.286 177.727 176.26C177.559 176.163 177.402 175.952 177.344 175.724C177.27 175.437 177.382 175.235 177.594 175.272C184.44 176.471 190.458 175.935 195.499 173.681L194.377 173.104C194.153 172.987 193.962 172.68 193.95 172.414ZM199.774 197.884C199.774 198.143 199.593 198.248 199.368 198.118L175.519 184.349C175.015 184.058 174.605 183.348 174.605 182.767L174.605 160.633C174.605 160.374 174.787 160.27 175.011 160.399C175.236 160.528 175.417 160.843 175.417 161.102L175.417 183.235C175.417 183.299 175.464 183.379 175.519 183.411L177.619 184.624L177.619 178.824C177.619 178.565 177.801 178.46 178.025 178.589L180.855 180.223C181.079 180.353 181.261 180.667 181.261 180.926L181.261 186.726L182.874 187.657L182.874 178.573C182.874 178.314 183.055 178.209 183.279 178.339L186.109 179.972C186.334 180.102 186.515 180.417 186.515 180.676L186.515 189.76L188.128 190.691L188.128 178.177C188.128 177.918 188.31 177.813 188.534 177.943L191.364 179.577C191.588 179.706 191.77 180.021 191.77 180.28L191.77 192.794L193.383 193.725L193.383 178.126C193.383 177.867 193.564 177.762 193.789 177.891L196.618 179.525C196.843 179.654 197.024 179.969 197.024 180.228L197.024 195.827L199.368 197.181C199.593 197.31 199.774 197.625 199.774 197.884ZM194.195 194.194L196.212 195.359L196.212 180.228L194.195 179.063L194.195 194.194ZM188.94 191.16L190.958 192.325L190.958 180.28L188.94 179.115L188.94 191.16ZM183.685 188.126L185.703 189.291L185.703 180.676L183.685 179.51L183.685 188.126ZM178.431 185.092L180.449 186.257L180.449 180.926L178.431 179.761L178.431 185.092Z" fill="black"/>
<path d="M178.431 185.092L180.449 186.257L180.449 180.926L178.431 179.761L178.431 185.092Z" fill="white"/>
<path d="M183.685 188.126L185.703 189.291L185.703 180.676L183.685 179.51L183.685 188.126Z" fill="white"/>
<path d="M188.94 191.16L190.958 192.325L190.958 180.28L188.94 179.115L188.94 191.16Z" fill="white"/>
<path d="M194.195 194.194L196.212 195.359L196.212 180.228L194.195 179.063L194.195 194.194Z" fill="white"/>
</g>
<defs>
<clipPath id="clip0_1938_1819">
<rect width="25" height="26" fill="white" transform="matrix(0.866025 0.5 -2.20305e-08 1 50 137.318)"/>
</clipPath>
<clipPath id="clip1_1938_1819">
<rect width="26" height="26" fill="white" transform="matrix(0.866025 0.5 -2.20305e-08 1 173 89.6597)"/>
</clipPath>
<clipPath id="clip2_1938_1819">
<rect width="30" height="30" fill="white" transform="matrix(0.866025 0.5 -2.20305e-08 1 174.199 154.056)"/>
</clipPath>
</defs>
</svg>
