<svg width="294" height="505" viewBox="0 0 294 505" fill="none" xmlns="http://www.w3.org/2000/svg">
<path d="M257.572 217.219L1.75957 69.504L1 343.866C1 349.943 5.27739 357.418 10.5943 360.456L186.413 461.958L257.012 502.695C262.289 505.733 266.647 503.294 266.647 497.178L267.047 367.532L267.446 233.609L267.486 222.856L257.572 217.219Z" fill="white" stroke="#231F20" stroke-width="0.75" stroke-miterlimit="10" stroke-linecap="round" stroke-linejoin="round"/>
<path d="M241.146 456.681C241.386 455.842 241.545 454.882 241.545 453.803L242.105 248.401C242.105 248.001 242.065 247.641 242.025 247.242C242.025 246.882 241.945 246.522 241.905 246.162C241.825 245.603 241.705 245.083 241.585 244.523C241.506 244.123 241.345 243.644 241.186 243.244C240.026 239.686 237.828 236.168 235.069 233.729C234.789 233.49 234.509 233.25 234.19 233.01C233.95 232.81 233.71 232.61 233.47 232.45C233.15 232.21 232.83 232.01 232.511 231.811L36.4636 118.636C31.1467 115.598 26.829 118.036 26.829 124.153L26.2695 329.554C26.2695 335.671 30.5469 343.067 35.8639 346.145L231.911 459.32C236.268 461.798 239.986 460.599 241.146 456.681Z" fill="white" stroke="#231F20" stroke-width="0.75" stroke-miterlimit="10" stroke-linecap="round" stroke-linejoin="round"/>
<path d="M232.551 231.771C237.868 234.849 242.145 242.245 242.145 248.361L241.545 453.763C241.545 459.879 237.228 462.318 231.911 459.24L35.8639 346.065C30.5469 342.987 26.2695 335.591 26.2695 329.474L26.869 124.073C26.869 117.956 31.1867 115.518 36.5036 118.596L232.551 231.771Z" fill="#7A18D5" stroke="#231F20" stroke-width="0.75" stroke-miterlimit="10" stroke-linecap="round" stroke-linejoin="round"/>
<path d="M267.566 176.083L267.526 183.558L267.446 212.582L267.406 222.856L257.531 217.179L1.71875 69.4639L1.87857 22.6909C1.87857 19.4528 3.11777 17.2141 5.03666 16.3346C5.07664 16.3346 5.1167 16.2946 5.1167 16.2946C5.39653 16.1746 5.71627 16.0547 6.03609 16.0147C6.39588 15.9347 6.75579 15.8948 7.15556 15.8948C8.4748 15.8948 9.91404 16.2946 11.4731 17.2141L257.931 159.492C263.288 162.57 267.566 170.006 267.566 176.083Z" fill="#2B2829" stroke="#231F20" stroke-width="0.75" stroke-miterlimit="10" stroke-linecap="round" stroke-linejoin="round"/>
<path d="M293.112 207.984L292.712 352.661L292.353 482.346C292.313 485.384 291.273 487.503 289.514 488.503L264.129 503.254C264.449 503.014 264.728 502.774 265.008 502.495C265.128 502.375 265.248 502.215 265.368 502.055C265.528 501.815 265.648 501.615 265.768 501.335C265.968 501.015 266.088 500.656 266.208 500.296C266.208 500.216 266.248 500.216 266.248 500.136C266.328 499.816 266.447 499.496 266.487 499.097C266.567 498.897 266.567 498.657 266.567 498.417C266.607 498.057 266.647 497.697 266.647 497.258L267.047 367.612L267.447 233.689L267.487 222.936L273.483 219.418L293.112 207.984Z" fill="white" stroke="#231F20" stroke-width="0.75" stroke-miterlimit="10" stroke-linecap="round" stroke-linejoin="round"/>
<path d="M293.237 161.171L293.117 207.944L273.449 219.378L267.452 222.896L267.492 212.622L267.572 183.598L267.612 176.123C267.612 170.006 263.334 162.57 258.017 159.532L11.5593 17.2541C10.0002 16.3347 8.56123 15.9349 7.24199 15.9349C6.84222 15.9349 6.48231 15.9749 6.12252 16.0549C5.8027 16.1348 5.48296 16.2148 5.20312 16.3347L30.4286 1.66313C32.1476 0.623725 34.6263 0.783648 37.2647 2.30277L283.683 144.581C288.96 147.659 293.237 155.095 293.237 161.171Z" fill="#424242" stroke="#231F20" stroke-width="0.75" stroke-miterlimit="10" stroke-linecap="round" stroke-linejoin="round"/>
<path d="M45.9381 66.2263C45.8981 70.5439 42.8597 72.3029 39.0619 70.1441C35.3041 67.9454 32.226 62.6684 32.266 58.3509C32.266 53.9934 35.3441 52.2745 39.1419 54.4332C42.8998 56.592 45.9381 61.8689 45.9381 66.2263Z" fill="#2B2829" stroke="white" stroke-width="0.75" stroke-miterlimit="10" stroke-linecap="round" stroke-linejoin="round"/>
<path d="M69.2118 81.4572C69.1718 85.7747 66.1334 87.5337 62.3356 85.375C58.5378 83.2162 55.4995 77.8992 55.5395 73.5817C55.5395 69.2242 58.6178 67.5053 62.4156 69.664C66.1735 71.8228 69.2118 77.0997 69.2118 81.4572Z" fill="#2B2829" stroke="white" stroke-width="0.75" stroke-miterlimit="10" stroke-linecap="round" stroke-linejoin="round"/>
<path d="M94.3951 95.4093C94.3551 99.7268 91.3167 101.486 87.5189 99.327C83.7611 97.1282 80.6831 91.8514 80.723 87.5338C80.723 83.1763 83.8012 81.4573 87.599 83.616C91.3968 85.7748 94.3951 91.0518 94.3951 95.4093Z" fill="#2B2829" stroke="white" stroke-width="0.75" stroke-miterlimit="10" stroke-linecap="round" stroke-linejoin="round"/>
<path d="M223.029 255.277L210.477 248.001" stroke="white" stroke-width="0.75" stroke-miterlimit="10" stroke-linecap="round" stroke-linejoin="round"/>
<path d="M79.7535 209.543L58.7656 270.069V273.667L98.6228 296.653" stroke="white" stroke-width="2" stroke-miterlimit="10" stroke-linecap="round" stroke-linejoin="round"/>
<path d="M82.0352 287.099V272.347" stroke="white" stroke-width="2" stroke-miterlimit="10" stroke-linecap="round" stroke-linejoin="round"/>
<path d="M82.0352 301.85V287.099" stroke="white" stroke-width="2" stroke-miterlimit="10" stroke-linecap="round" stroke-linejoin="round"/>
<path d="M181.655 268.39L160.707 328.915V332.513L200.564 355.499" stroke="white" stroke-width="2" stroke-miterlimit="10" stroke-linecap="round" stroke-linejoin="round"/>
<path d="M183.973 345.945V331.194" stroke="white" stroke-width="2" stroke-miterlimit="10" stroke-linecap="round" stroke-linejoin="round"/>
<path d="M183.973 360.696V345.945" stroke="white" stroke-width="2" stroke-miterlimit="10" stroke-linecap="round" stroke-linejoin="round"/>
<path d="M112.734 296.413C112.734 305.648 119.211 316.881 127.206 321.479C135.202 326.076 141.678 322.358 141.678 313.124V266.431C141.678 257.196 135.202 245.962 127.206 241.365C119.211 236.728 112.734 240.485 112.734 249.72V296.413Z" stroke="white" stroke-width="2" stroke-miterlimit="10" stroke-linecap="round" stroke-linejoin="round"/>
</svg>
