<svg width="593" height="593" viewBox="0 0 593 593" fill="none" xmlns="http://www.w3.org/2000/svg">
<g clip-path="url(#clip0_196_291)">
<path d="M206.194 210.757H386.311L384.271 232.685L208.846 232.277L206.194 210.757Z" fill="#7A18D5"/>
<path d="M239.65 327.435L298.499 373.943L300.79 387.369L298.499 400.155L222.516 339.98L239.65 327.435Z" fill="#7A18D5"/>
<path d="M238.621 316.318L239.743 327.741L233.061 335.712L222.506 339.98L217.508 300.407L238.621 316.318Z" fill="#7A18D5"/>
<path d="M355.816 328.047L298.497 373.943L297.375 386.896L298.497 400.155L373.358 339.47L368.841 319.656L355.816 328.047Z" fill="#7A18D5"/>
<path d="M267.182 305.302H340.718L333.477 324.375H261.98L267.182 305.302Z" fill="#7A18D5"/>
<path d="M208.796 231.584L230.37 230.034L234.348 280.316L215.887 289.087L208.796 231.584Z" fill="#7A18D5"/>
<path d="M215.876 289.087L234.132 279.806L268.708 305.508L261.968 324.376L215.876 289.087Z" fill="#7A18D5"/>
<path d="M215.876 289.087L234.132 279.806L268.708 305.508L261.968 324.376L215.876 289.087Z" fill="#7A18D5"/>
<path d="M365.702 230.27L384.469 230.442L379.37 282.559L362.031 268.077L365.702 230.27Z" fill="#7A18D5"/>
<rect x="261.685" y="255.836" width="74.0458" height="19.1744" fill="#7A18D5"/>
<path d="M335.746 255.836L377.956 290.717L361.74 302.14L323.222 271.34L335.746 255.836Z" fill="#7A18D5"/>
<path d="M377.951 290.718L373.362 339.469L355.819 328.046L358.528 289.698L377.951 290.718Z" fill="#7A18D5"/>
<path d="M237.61 275.725L261.681 255.837L274.633 268.382L252.807 286.434L237.61 275.725Z" fill="#7A18D5"/>
<path d="M327.563 305.202L341.638 293.677L353.673 304.998L333.479 324.376L327.563 305.202Z" fill="#7A18D5"/>
</g>
<path d="M590.744 333.007C586.851 364.383 577.965 394.934 564.422 423.503L446.585 367.645C454.171 351.641 459.149 334.526 461.329 316.95L590.744 333.007Z" fill="#7E44FE"/>
<path d="M536.314 122.14C580.662 183.136 600.101 258.739 590.675 333.561L461.291 317.261C466.571 275.347 455.682 232.996 430.839 198.827L536.314 122.14Z" fill="#151515"/>
<path d="M564.785 422.736C534.045 488.066 480.523 539.935 414.262 568.611C348 597.287 273.552 600.8 204.884 578.491L245.179 454.465C283.645 466.963 325.349 464.995 362.468 448.931C399.586 432.867 429.568 403.811 446.787 367.215L564.785 422.736Z" fill="#FA44FE"/>
<path d="M204.866 578.485C187.135 572.723 169.987 565.302 153.65 556.319L216.478 442.045C225.63 447.077 235.236 451.234 245.168 454.462L204.866 578.485Z" fill="#2F7617"/>
<path d="M153.665 556.327C98.7944 526.164 54.882 479.403 28.221 422.748L146.216 367.222C161.151 398.959 185.749 425.153 216.487 442.05L153.665 556.327Z" fill="#287AFF"/>
<path d="M28.2182 422.742C-3.89113 354.506 -8.79234 276.598 14.5121 204.875L138.536 245.174C125.482 285.351 128.227 328.994 146.214 367.218L28.2182 422.742Z" fill="#37C87B"/>
<path d="M14.5056 204.895C27.99 163.385 50.4721 125.364 80.3472 93.5463L175.416 182.81C158.68 200.633 146.086 221.932 138.533 245.185L14.5056 204.895Z" fill="#DB44FE"/>
<path d="M80.3717 93.5202C105.637 66.6186 135.702 44.6703 169.022 28.8031L225.09 146.542C206.424 155.43 189.582 167.725 175.429 182.795L80.3717 93.5202Z" fill="#B97AD7"/>
<path d="M169.114 28.7592C208.879 9.83979 252.359 0.0155145 296.396 1.83577e-05L296.442 130.407C271.773 130.416 247.417 135.919 225.141 146.517L169.114 28.7592Z" fill="#4BBC24"/>
<path d="M422.785 28.2384C467.971 49.5098 507.052 81.8503 536.401 122.259L430.887 198.894C414.447 176.258 392.554 158.141 367.242 146.225L422.785 28.2384Z" fill="#F55151"/>
<path d="M296.5 0C340.145 5.20464e-07 383.252 9.63556 422.744 28.2188L367.219 146.214C345.097 135.805 320.949 130.407 296.5 130.407V0Z" fill="#FFAD28"/>
<path d="M324.137 71.6152L332.807 52.1752L333.827 53.9152H321.917L323.777 52.0252V57.4852H320.147V50.6152H336.467V53.2252L328.307 71.6152H324.137ZM341.848 71.6152L356.188 50.6152H359.128L344.788 71.6152H341.848ZM343.588 61.9252C342.608 61.9252 341.738 61.6852 340.978 61.2052C340.218 60.7252 339.628 60.0552 339.208 59.1952C338.788 58.3352 338.578 57.3252 338.578 56.1652C338.578 55.0052 338.788 53.9952 339.208 53.1352C339.628 52.2752 340.218 51.6052 340.978 51.1252C341.738 50.6452 342.608 50.4052 343.588 50.4052C344.608 50.4052 345.488 50.6452 346.228 51.1252C346.988 51.6052 347.578 52.2752 347.998 53.1352C348.418 53.9952 348.628 55.0052 348.628 56.1652C348.628 57.3252 348.418 58.3352 347.998 59.1952C347.578 60.0552 346.988 60.7252 346.228 61.2052C345.488 61.6852 344.608 61.9252 343.588 61.9252ZM343.618 59.8252C344.418 59.8252 345.038 59.5152 345.478 58.8952C345.938 58.2552 346.168 57.3452 346.168 56.1652C346.168 54.9852 345.938 54.0852 345.478 53.4652C345.038 52.8252 344.418 52.5052 343.618 52.5052C342.818 52.5052 342.178 52.8252 341.698 53.4652C341.238 54.1052 341.008 55.0052 341.008 56.1652C341.008 57.3252 341.238 58.2252 341.698 58.8652C342.178 59.5052 342.818 59.8252 343.618 59.8252ZM357.358 71.8252C356.378 71.8252 355.508 71.5852 354.748 71.1052C353.988 70.6252 353.398 69.9552 352.978 69.0952C352.558 68.2352 352.348 67.2252 352.348 66.0652C352.348 64.9052 352.558 63.8952 352.978 63.0352C353.398 62.1752 353.988 61.5052 354.748 61.0252C355.508 60.5452 356.378 60.3052 357.358 60.3052C358.378 60.3052 359.258 60.5452 359.998 61.0252C360.758 61.5052 361.348 62.1752 361.768 63.0352C362.188 63.8952 362.398 64.9052 362.398 66.0652C362.398 67.2252 362.188 68.2352 361.768 69.0952C361.348 69.9552 360.758 70.6252 359.998 71.1052C359.258 71.5852 358.378 71.8252 357.358 71.8252ZM357.358 69.7252C358.158 69.7252 358.788 69.4052 359.248 68.7652C359.708 68.1252 359.938 67.2252 359.938 66.0652C359.938 64.9052 359.708 64.0052 359.248 63.3652C358.788 62.7252 358.158 62.4052 357.358 62.4052C356.578 62.4052 355.948 62.7252 355.468 63.3652C355.008 63.9852 354.778 64.8852 354.778 66.0652C354.778 67.2452 355.008 68.1552 355.468 68.7952C355.948 69.4152 356.578 69.7252 357.358 69.7252Z" fill="white"/>
<path d="M434.958 123.533C433.218 123.533 431.708 123.273 430.428 122.753C429.148 122.233 428.158 121.503 427.458 120.563C426.758 119.603 426.408 118.483 426.408 117.203C426.408 115.923 426.748 114.843 427.428 113.963C428.108 113.083 429.088 112.413 430.368 111.953C431.648 111.493 433.178 111.263 434.958 111.263C436.738 111.263 438.268 111.493 439.548 111.953C440.848 112.413 441.838 113.093 442.518 113.993C443.218 114.873 443.568 115.943 443.568 117.203C443.568 118.483 443.208 119.603 442.488 120.563C441.788 121.503 440.788 122.233 439.488 122.753C438.208 123.273 436.698 123.533 434.958 123.533ZM434.958 120.473C436.398 120.473 437.538 120.173 438.378 119.573C439.218 118.973 439.638 118.143 439.638 117.083C439.638 116.043 439.218 115.223 438.378 114.623C437.538 114.023 436.398 113.723 434.958 113.723C433.518 113.723 432.388 114.023 431.568 114.623C430.748 115.223 430.338 116.043 430.338 117.083C430.338 118.143 430.748 118.973 431.568 119.573C432.388 120.173 433.518 120.473 434.958 120.473ZM434.958 113.303C433.338 113.303 431.948 113.093 430.788 112.673C429.628 112.233 428.728 111.603 428.088 110.783C427.468 109.943 427.158 108.943 427.158 107.783C427.158 106.583 427.478 105.553 428.118 104.693C428.778 103.813 429.698 103.133 430.878 102.653C432.058 102.173 433.418 101.933 434.958 101.933C436.518 101.933 437.888 102.173 439.068 102.653C440.248 103.133 441.168 103.813 441.828 104.693C442.488 105.553 442.818 106.583 442.818 107.783C442.818 108.943 442.498 109.943 441.858 110.783C441.238 111.603 440.338 112.233 439.158 112.673C437.978 113.093 436.578 113.303 434.958 113.303ZM434.958 110.903C436.198 110.903 437.178 110.643 437.898 110.123C438.618 109.583 438.978 108.863 438.978 107.963C438.978 107.023 438.608 106.293 437.868 105.773C437.128 105.253 436.158 104.993 434.958 104.993C433.758 104.993 432.798 105.253 432.078 105.773C431.358 106.293 430.998 107.023 430.998 107.963C430.998 108.863 431.348 109.583 432.048 110.123C432.768 110.643 433.738 110.903 434.958 110.903ZM448.745 123.233L463.085 102.233H466.025L451.685 123.233H448.745ZM450.485 113.543C449.505 113.543 448.635 113.303 447.875 112.823C447.115 112.343 446.525 111.673 446.105 110.813C445.685 109.953 445.475 108.943 445.475 107.783C445.475 106.623 445.685 105.613 446.105 104.753C446.525 103.893 447.115 103.223 447.875 102.743C448.635 102.263 449.505 102.023 450.485 102.023C451.505 102.023 452.385 102.263 453.125 102.743C453.885 103.223 454.475 103.893 454.895 104.753C455.315 105.613 455.525 106.623 455.525 107.783C455.525 108.943 455.315 109.953 454.895 110.813C454.475 111.673 453.885 112.343 453.125 112.823C452.385 113.303 451.505 113.543 450.485 113.543ZM450.515 111.443C451.315 111.443 451.935 111.133 452.375 110.513C452.835 109.873 453.065 108.963 453.065 107.783C453.065 106.603 452.835 105.703 452.375 105.083C451.935 104.443 451.315 104.123 450.515 104.123C449.715 104.123 449.075 104.443 448.595 105.083C448.135 105.723 447.905 106.623 447.905 107.783C447.905 108.943 448.135 109.843 448.595 110.483C449.075 111.123 449.715 111.443 450.515 111.443ZM464.255 123.443C463.275 123.443 462.405 123.203 461.645 122.723C460.885 122.243 460.295 121.573 459.875 120.713C459.455 119.853 459.245 118.843 459.245 117.683C459.245 116.523 459.455 115.513 459.875 114.653C460.295 113.793 460.885 113.123 461.645 112.643C462.405 112.163 463.275 111.923 464.255 111.923C465.275 111.923 466.155 112.163 466.895 112.643C467.655 113.123 468.245 113.793 468.665 114.653C469.085 115.513 469.295 116.523 469.295 117.683C469.295 118.843 469.085 119.853 468.665 120.713C468.245 121.573 467.655 122.243 466.895 122.723C466.155 123.203 465.275 123.443 464.255 123.443ZM464.255 121.343C465.055 121.343 465.685 121.023 466.145 120.383C466.605 119.743 466.835 118.843 466.835 117.683C466.835 116.523 466.605 115.623 466.145 114.983C465.685 114.343 465.055 114.023 464.255 114.023C463.475 114.023 462.845 114.343 462.365 114.983C461.905 115.603 461.675 116.503 461.675 117.683C461.675 118.863 461.905 119.773 462.365 120.413C462.845 121.033 463.475 121.343 464.255 121.343Z" fill="white"/>
<path d="M490.844 245.674V226.174L492.554 227.944H486.404V224.674H494.744V245.674H490.844ZM498.64 245.674V243.064L506.98 235.144C507.68 234.484 508.2 233.904 508.54 233.404C508.88 232.904 509.1 232.444 509.2 232.024C509.32 231.584 509.38 231.174 509.38 230.794C509.38 229.834 509.05 229.094 508.39 228.574C507.73 228.034 506.76 227.764 505.48 227.764C504.46 227.764 503.53 227.944 502.69 228.304C501.87 228.664 501.16 229.214 500.56 229.954L497.83 227.854C498.65 226.754 499.75 225.904 501.13 225.304C502.53 224.684 504.09 224.374 505.81 224.374C507.33 224.374 508.65 224.624 509.77 225.124C510.91 225.604 511.78 226.294 512.38 227.194C513 228.094 513.31 229.164 513.31 230.404C513.31 231.084 513.22 231.764 513.04 232.444C512.86 233.104 512.52 233.804 512.02 234.544C511.52 235.284 510.79 236.114 509.83 237.034L502.66 243.844L501.85 242.374H514.12V245.674H498.64ZM519.604 245.674L533.944 224.674H536.884L522.544 245.674H519.604ZM521.344 235.984C520.364 235.984 519.494 235.744 518.734 235.264C517.974 234.784 517.384 234.114 516.964 233.254C516.544 232.394 516.334 231.384 516.334 230.224C516.334 229.064 516.544 228.054 516.964 227.194C517.384 226.334 517.974 225.664 518.734 225.184C519.494 224.704 520.364 224.464 521.344 224.464C522.364 224.464 523.244 224.704 523.984 225.184C524.744 225.664 525.334 226.334 525.754 227.194C526.174 228.054 526.384 229.064 526.384 230.224C526.384 231.384 526.174 232.394 525.754 233.254C525.334 234.114 524.744 234.784 523.984 235.264C523.244 235.744 522.364 235.984 521.344 235.984ZM521.374 233.884C522.174 233.884 522.794 233.574 523.234 232.954C523.694 232.314 523.924 231.404 523.924 230.224C523.924 229.044 523.694 228.144 523.234 227.524C522.794 226.884 522.174 226.564 521.374 226.564C520.574 226.564 519.934 226.884 519.454 227.524C518.994 228.164 518.764 229.064 518.764 230.224C518.764 231.384 518.994 232.284 519.454 232.924C519.934 233.564 520.574 233.884 521.374 233.884ZM535.114 245.884C534.134 245.884 533.264 245.644 532.504 245.164C531.744 244.684 531.154 244.014 530.734 243.154C530.314 242.294 530.104 241.284 530.104 240.124C530.104 238.964 530.314 237.954 530.734 237.094C531.154 236.234 531.744 235.564 532.504 235.084C533.264 234.604 534.134 234.364 535.114 234.364C536.134 234.364 537.014 234.604 537.754 235.084C538.514 235.564 539.104 236.234 539.524 237.094C539.944 237.954 540.154 238.964 540.154 240.124C540.154 241.284 539.944 242.294 539.524 243.154C539.104 244.014 538.514 244.684 537.754 245.164C537.014 245.644 536.134 245.884 535.114 245.884ZM535.114 243.784C535.914 243.784 536.544 243.464 537.004 242.824C537.464 242.184 537.694 241.284 537.694 240.124C537.694 238.964 537.464 238.064 537.004 237.424C536.544 236.784 535.914 236.464 535.114 236.464C534.334 236.464 533.704 236.784 533.224 237.424C532.764 238.044 532.534 238.944 532.534 240.124C532.534 241.304 532.764 242.214 533.224 242.854C533.704 243.474 534.334 243.784 535.114 243.784Z" fill="white"/>
<path d="M500.447 366.014C498.967 366.014 497.517 365.804 496.097 365.384C494.697 364.944 493.517 364.344 492.557 363.584L494.207 360.554C494.967 361.174 495.887 361.674 496.967 362.054C498.067 362.434 499.207 362.624 500.387 362.624C501.767 362.624 502.847 362.334 503.627 361.754C504.427 361.174 504.827 360.394 504.827 359.414C504.827 358.754 504.657 358.174 504.317 357.674C503.997 357.174 503.417 356.794 502.577 356.534C501.757 356.274 500.627 356.144 499.187 356.144H494.117L495.197 344.714H507.527V347.984H496.637L498.677 346.124L497.867 354.674L495.827 352.844H500.057C502.137 352.844 503.807 353.124 505.067 353.684C506.347 354.224 507.277 354.984 507.857 355.964C508.457 356.924 508.757 358.024 508.757 359.264C508.757 360.484 508.457 361.604 507.857 362.624C507.257 363.644 506.337 364.464 505.097 365.084C503.877 365.704 502.327 366.014 500.447 366.014ZM513.654 365.714L527.994 344.714H530.934L516.594 365.714H513.654ZM515.394 356.024C514.414 356.024 513.544 355.784 512.784 355.304C512.024 354.824 511.434 354.154 511.014 353.294C510.594 352.434 510.384 351.424 510.384 350.264C510.384 349.104 510.594 348.094 511.014 347.234C511.434 346.374 512.024 345.704 512.784 345.224C513.544 344.744 514.414 344.504 515.394 344.504C516.414 344.504 517.294 344.744 518.034 345.224C518.794 345.704 519.384 346.374 519.804 347.234C520.224 348.094 520.434 349.104 520.434 350.264C520.434 351.424 520.224 352.434 519.804 353.294C519.384 354.154 518.794 354.824 518.034 355.304C517.294 355.784 516.414 356.024 515.394 356.024ZM515.424 353.924C516.224 353.924 516.844 353.614 517.284 352.994C517.744 352.354 517.974 351.444 517.974 350.264C517.974 349.084 517.744 348.184 517.284 347.564C516.844 346.924 516.224 346.604 515.424 346.604C514.624 346.604 513.984 346.924 513.504 347.564C513.044 348.204 512.814 349.104 512.814 350.264C512.814 351.424 513.044 352.324 513.504 352.964C513.984 353.604 514.624 353.924 515.424 353.924ZM529.164 365.924C528.184 365.924 527.314 365.684 526.554 365.204C525.794 364.724 525.204 364.054 524.784 363.194C524.364 362.334 524.154 361.324 524.154 360.164C524.154 359.004 524.364 357.994 524.784 357.134C525.204 356.274 525.794 355.604 526.554 355.124C527.314 354.644 528.184 354.404 529.164 354.404C530.184 354.404 531.064 354.644 531.804 355.124C532.564 355.604 533.154 356.274 533.574 357.134C533.994 357.994 534.204 359.004 534.204 360.164C534.204 361.324 533.994 362.334 533.574 363.194C533.154 364.054 532.564 364.724 531.804 365.204C531.064 365.684 530.184 365.924 529.164 365.924ZM529.164 363.824C529.964 363.824 530.594 363.504 531.054 362.864C531.514 362.224 531.744 361.324 531.744 360.164C531.744 359.004 531.514 358.104 531.054 357.464C530.594 356.824 529.964 356.504 529.164 356.504C528.384 356.504 527.754 356.824 527.274 357.464C526.814 358.084 526.584 358.984 526.584 360.164C526.584 361.344 526.814 362.254 527.274 362.894C527.754 363.514 528.384 363.824 529.164 363.824Z" fill="white"/>
<path d="M367.061 508.563V505.953L375.401 498.033C376.101 497.373 376.621 496.793 376.961 496.293C377.301 495.793 377.521 495.333 377.621 494.913C377.741 494.473 377.801 494.063 377.801 493.683C377.801 492.723 377.471 491.983 376.811 491.463C376.151 490.923 375.181 490.653 373.901 490.653C372.881 490.653 371.951 490.833 371.111 491.193C370.291 491.553 369.581 492.103 368.981 492.843L366.251 490.743C367.071 489.643 368.171 488.793 369.551 488.193C370.951 487.573 372.511 487.263 374.231 487.263C375.751 487.263 377.071 487.513 378.191 488.013C379.331 488.493 380.201 489.183 380.801 490.083C381.421 490.983 381.731 492.053 381.731 493.293C381.731 493.973 381.641 494.653 381.461 495.333C381.281 495.993 380.941 496.693 380.441 497.433C379.941 498.173 379.211 499.003 378.251 499.923L371.081 506.733L370.271 505.263H382.541V508.563H367.061ZM391.392 508.863C389.912 508.863 388.462 508.653 387.042 508.233C385.642 507.793 384.462 507.193 383.502 506.433L385.182 503.403C385.942 504.023 386.862 504.523 387.942 504.903C389.022 505.283 390.152 505.473 391.332 505.473C392.732 505.473 393.822 505.193 394.602 504.633C395.382 504.053 395.772 503.273 395.772 502.293C395.772 501.333 395.412 500.573 394.692 500.013C393.972 499.453 392.812 499.173 391.212 499.173H389.292V496.503L395.292 489.363L395.802 490.833H384.522V487.563H398.832V490.173L392.832 497.313L390.792 496.113H391.962C394.542 496.113 396.472 496.693 397.752 497.853C399.052 498.993 399.702 500.463 399.702 502.263C399.702 503.443 399.402 504.533 398.802 505.533C398.202 506.533 397.282 507.343 396.042 507.963C394.822 508.563 393.272 508.863 391.392 508.863ZM404.9 508.563L419.24 487.563H422.18L407.84 508.563H404.9ZM406.64 498.873C405.66 498.873 404.79 498.633 404.03 498.153C403.27 497.673 402.68 497.003 402.26 496.143C401.84 495.283 401.63 494.273 401.63 493.113C401.63 491.953 401.84 490.943 402.26 490.083C402.68 489.223 403.27 488.553 404.03 488.073C404.79 487.593 405.66 487.353 406.64 487.353C407.66 487.353 408.54 487.593 409.28 488.073C410.04 488.553 410.63 489.223 411.05 490.083C411.47 490.943 411.68 491.953 411.68 493.113C411.68 494.273 411.47 495.283 411.05 496.143C410.63 497.003 410.04 497.673 409.28 498.153C408.54 498.633 407.66 498.873 406.64 498.873ZM406.67 496.773C407.47 496.773 408.09 496.463 408.53 495.843C408.99 495.203 409.22 494.293 409.22 493.113C409.22 491.933 408.99 491.033 408.53 490.413C408.09 489.773 407.47 489.453 406.67 489.453C405.87 489.453 405.23 489.773 404.75 490.413C404.29 491.053 404.06 491.953 404.06 493.113C404.06 494.273 404.29 495.173 404.75 495.813C405.23 496.453 405.87 496.773 406.67 496.773ZM420.41 508.773C419.43 508.773 418.56 508.533 417.8 508.053C417.04 507.573 416.45 506.903 416.03 506.043C415.61 505.183 415.4 504.173 415.4 503.013C415.4 501.853 415.61 500.843 416.03 499.983C416.45 499.123 417.04 498.453 417.8 497.973C418.56 497.493 419.43 497.253 420.41 497.253C421.43 497.253 422.31 497.493 423.05 497.973C423.81 498.453 424.4 499.123 424.82 499.983C425.24 500.843 425.45 501.853 425.45 503.013C425.45 504.173 425.24 505.183 424.82 506.043C424.4 506.903 423.81 507.573 423.05 508.053C422.31 508.533 421.43 508.773 420.41 508.773ZM420.41 506.673C421.21 506.673 421.84 506.353 422.3 505.713C422.76 505.073 422.99 504.173 422.99 503.013C422.99 501.853 422.76 500.953 422.3 500.313C421.84 499.673 421.21 499.353 420.41 499.353C419.63 499.353 419 499.673 418.52 500.313C418.06 500.933 417.83 501.833 417.83 503.013C417.83 504.193 418.06 505.103 418.52 505.743C419 506.363 419.63 506.673 420.41 506.673Z" fill="white"/>
<path d="M189.181 511.264C187.701 511.264 186.251 511.054 184.831 510.634C183.431 510.194 182.251 509.594 181.291 508.834L182.971 505.804C183.731 506.424 184.651 506.924 185.731 507.304C186.811 507.684 187.941 507.874 189.121 507.874C190.521 507.874 191.611 507.594 192.391 507.034C193.171 506.454 193.561 505.674 193.561 504.694C193.561 503.734 193.201 502.974 192.481 502.414C191.761 501.854 190.601 501.574 189.001 501.574H187.081V498.904L193.081 491.764L193.591 493.234H182.311V489.964H196.621V492.574L190.621 499.714L188.581 498.514H189.751C192.331 498.514 194.261 499.094 195.541 500.254C196.841 501.394 197.491 502.864 197.491 504.664C197.491 505.844 197.191 506.934 196.591 507.934C195.991 508.934 195.071 509.744 193.831 510.364C192.611 510.964 191.061 511.264 189.181 511.264ZM202.689 510.964L217.029 489.964H219.969L205.629 510.964H202.689ZM204.429 501.274C203.449 501.274 202.579 501.034 201.819 500.554C201.059 500.074 200.469 499.404 200.049 498.544C199.629 497.684 199.419 496.674 199.419 495.514C199.419 494.354 199.629 493.344 200.049 492.484C200.469 491.624 201.059 490.954 201.819 490.474C202.579 489.994 203.449 489.754 204.429 489.754C205.449 489.754 206.329 489.994 207.069 490.474C207.829 490.954 208.419 491.624 208.839 492.484C209.259 493.344 209.469 494.354 209.469 495.514C209.469 496.674 209.259 497.684 208.839 498.544C208.419 499.404 207.829 500.074 207.069 500.554C206.329 501.034 205.449 501.274 204.429 501.274ZM204.459 499.174C205.259 499.174 205.879 498.864 206.319 498.244C206.779 497.604 207.009 496.694 207.009 495.514C207.009 494.334 206.779 493.434 206.319 492.814C205.879 492.174 205.259 491.854 204.459 491.854C203.659 491.854 203.019 492.174 202.539 492.814C202.079 493.454 201.849 494.354 201.849 495.514C201.849 496.674 202.079 497.574 202.539 498.214C203.019 498.854 203.659 499.174 204.459 499.174ZM218.199 511.174C217.219 511.174 216.349 510.934 215.589 510.454C214.829 509.974 214.239 509.304 213.819 508.444C213.399 507.584 213.189 506.574 213.189 505.414C213.189 504.254 213.399 503.244 213.819 502.384C214.239 501.524 214.829 500.854 215.589 500.374C216.349 499.894 217.219 499.654 218.199 499.654C219.219 499.654 220.099 499.894 220.839 500.374C221.599 500.854 222.189 501.524 222.609 502.384C223.029 503.244 223.239 504.254 223.239 505.414C223.239 506.574 223.029 507.584 222.609 508.444C222.189 509.304 221.599 509.974 220.839 510.454C220.099 510.934 219.219 511.174 218.199 511.174ZM218.199 509.074C218.999 509.074 219.629 508.754 220.089 508.114C220.549 507.474 220.779 506.574 220.779 505.414C220.779 504.254 220.549 503.354 220.089 502.714C219.629 502.074 218.999 501.754 218.199 501.754C217.419 501.754 216.789 502.074 216.309 502.714C215.849 503.334 215.619 504.234 215.619 505.414C215.619 506.594 215.849 507.504 216.309 508.144C216.789 508.764 217.419 509.074 218.199 509.074Z" fill="white"/>
<path d="M99.3997 459.346V439.846L101.11 441.616H94.9597V438.346H103.3V459.346H99.3997ZM116.226 459.646C114.566 459.646 113.066 459.226 111.726 458.386C110.406 457.546 109.366 456.326 108.606 454.726C107.846 453.106 107.466 451.146 107.466 448.846C107.466 446.546 107.846 444.596 108.606 442.996C109.366 441.376 110.406 440.146 111.726 439.306C113.066 438.466 114.566 438.046 116.226 438.046C117.906 438.046 119.406 438.466 120.726 439.306C122.046 440.146 123.086 441.376 123.846 442.996C124.626 444.596 125.016 446.546 125.016 448.846C125.016 451.146 124.626 453.106 123.846 454.726C123.086 456.326 122.046 457.546 120.726 458.386C119.406 459.226 117.906 459.646 116.226 459.646ZM116.226 456.256C117.206 456.256 118.056 455.996 118.776 455.476C119.496 454.936 120.056 454.116 120.456 453.016C120.876 451.916 121.086 450.526 121.086 448.846C121.086 447.146 120.876 445.756 120.456 444.676C120.056 443.576 119.496 442.766 118.776 442.246C118.056 441.706 117.206 441.436 116.226 441.436C115.286 441.436 114.446 441.706 113.706 442.246C112.986 442.766 112.416 443.576 111.996 444.676C111.596 445.756 111.396 447.146 111.396 448.846C111.396 450.526 111.596 451.916 111.996 453.016C112.416 454.116 112.986 454.936 113.706 455.476C114.446 455.996 115.286 456.256 116.226 456.256ZM130.591 459.346L144.931 438.346H147.871L133.531 459.346H130.591ZM132.331 449.656C131.351 449.656 130.481 449.416 129.721 448.936C128.961 448.456 128.371 447.786 127.951 446.926C127.531 446.066 127.321 445.056 127.321 443.896C127.321 442.736 127.531 441.726 127.951 440.866C128.371 440.006 128.961 439.336 129.721 438.856C130.481 438.376 131.351 438.136 132.331 438.136C133.351 438.136 134.231 438.376 134.971 438.856C135.731 439.336 136.321 440.006 136.741 440.866C137.161 441.726 137.371 442.736 137.371 443.896C137.371 445.056 137.161 446.066 136.741 446.926C136.321 447.786 135.731 448.456 134.971 448.936C134.231 449.416 133.351 449.656 132.331 449.656ZM132.361 447.556C133.161 447.556 133.781 447.246 134.221 446.626C134.681 445.986 134.911 445.076 134.911 443.896C134.911 442.716 134.681 441.816 134.221 441.196C133.781 440.556 133.161 440.236 132.361 440.236C131.561 440.236 130.921 440.556 130.441 441.196C129.981 441.836 129.751 442.736 129.751 443.896C129.751 445.056 129.981 445.956 130.441 446.596C130.921 447.236 131.561 447.556 132.361 447.556ZM146.101 459.556C145.121 459.556 144.251 459.316 143.491 458.836C142.731 458.356 142.141 457.686 141.721 456.826C141.301 455.966 141.091 454.956 141.091 453.796C141.091 452.636 141.301 451.626 141.721 450.766C142.141 449.906 142.731 449.236 143.491 448.756C144.251 448.276 145.121 448.036 146.101 448.036C147.121 448.036 148.001 448.276 148.741 448.756C149.501 449.236 150.091 449.906 150.511 450.766C150.931 451.626 151.141 452.636 151.141 453.796C151.141 454.956 150.931 455.966 150.511 456.826C150.091 457.686 149.501 458.356 148.741 458.836C148.001 459.316 147.121 459.556 146.101 459.556ZM146.101 457.456C146.901 457.456 147.531 457.136 147.991 456.496C148.451 455.856 148.681 454.956 148.681 453.796C148.681 452.636 148.451 451.736 147.991 451.096C147.531 450.456 146.901 450.136 146.101 450.136C145.321 450.136 144.691 450.456 144.211 451.096C143.751 451.716 143.521 452.616 143.521 453.796C143.521 454.976 143.751 455.886 144.211 456.526C144.691 457.146 145.321 457.456 146.101 457.456Z" fill="white"/>
<path d="M38.18 320.099V300.599L39.89 302.369H33.74V299.099H42.08V320.099H38.18ZM45.9758 320.099V317.489L54.3158 309.569C55.0158 308.909 55.5358 308.329 55.8758 307.829C56.2158 307.329 56.4358 306.869 56.5358 306.449C56.6558 306.009 56.7158 305.599 56.7158 305.219C56.7158 304.259 56.3858 303.519 55.7258 302.999C55.0658 302.459 54.0958 302.189 52.8158 302.189C51.7958 302.189 50.8658 302.369 50.0258 302.729C49.2058 303.089 48.4958 303.639 47.8958 304.379L45.1658 302.279C45.9858 301.179 47.0858 300.329 48.4658 299.729C49.8658 299.109 51.4258 298.799 53.1458 298.799C54.6658 298.799 55.9858 299.049 57.1058 299.549C58.2458 300.029 59.1158 300.719 59.7158 301.619C60.3358 302.519 60.6458 303.589 60.6458 304.829C60.6458 305.509 60.5558 306.189 60.3758 306.869C60.1958 307.529 59.8558 308.229 59.3558 308.969C58.8558 309.709 58.1258 310.539 57.1658 311.459L49.9958 318.269L49.1858 316.799H61.4558V320.099H45.9758ZM66.9397 320.099L81.2797 299.099H84.2197L69.8797 320.099H66.9397ZM68.6797 310.409C67.6997 310.409 66.8297 310.169 66.0697 309.689C65.3097 309.209 64.7197 308.539 64.2997 307.679C63.8797 306.819 63.6697 305.809 63.6697 304.649C63.6697 303.489 63.8797 302.479 64.2997 301.619C64.7197 300.759 65.3097 300.089 66.0697 299.609C66.8297 299.129 67.6997 298.889 68.6797 298.889C69.6997 298.889 70.5797 299.129 71.3197 299.609C72.0797 300.089 72.6697 300.759 73.0897 301.619C73.5097 302.479 73.7197 303.489 73.7197 304.649C73.7197 305.809 73.5097 306.819 73.0897 307.679C72.6697 308.539 72.0797 309.209 71.3197 309.689C70.5797 310.169 69.6997 310.409 68.6797 310.409ZM68.7097 308.309C69.5097 308.309 70.1297 307.999 70.5697 307.379C71.0297 306.739 71.2597 305.829 71.2597 304.649C71.2597 303.469 71.0297 302.569 70.5697 301.949C70.1297 301.309 69.5097 300.989 68.7097 300.989C67.9097 300.989 67.2697 301.309 66.7897 301.949C66.3297 302.589 66.0997 303.489 66.0997 304.649C66.0997 305.809 66.3297 306.709 66.7897 307.349C67.2697 307.989 67.9097 308.309 68.7097 308.309ZM82.4497 320.309C81.4697 320.309 80.5997 320.069 79.8397 319.589C79.0797 319.109 78.4897 318.439 78.0697 317.579C77.6497 316.719 77.4397 315.709 77.4397 314.549C77.4397 313.389 77.6497 312.379 78.0697 311.519C78.4897 310.659 79.0797 309.989 79.8397 309.509C80.5997 309.029 81.4697 308.789 82.4497 308.789C83.4697 308.789 84.3497 309.029 85.0897 309.509C85.8497 309.989 86.4397 310.659 86.8597 311.519C87.2797 312.379 87.4897 313.389 87.4897 314.549C87.4897 315.709 87.2797 316.719 86.8597 317.579C86.4397 318.439 85.8497 319.109 85.0897 319.589C84.3497 320.069 83.4697 320.309 82.4497 320.309ZM82.4497 318.209C83.2497 318.209 83.8797 317.889 84.3397 317.249C84.7997 316.609 85.0297 315.709 85.0297 314.549C85.0297 313.389 84.7997 312.489 84.3397 311.849C83.8797 311.209 83.2497 310.889 82.4497 310.889C81.6697 310.889 81.0397 311.209 80.5597 311.849C80.0997 312.469 79.8697 313.369 79.8697 314.549C79.8697 315.729 80.0997 316.639 80.5597 317.279C81.0397 317.899 81.6697 318.209 82.4497 318.209Z" fill="white"/>
<path d="M73.1415 189.255L81.8115 169.815L82.8315 171.555H70.9215L72.7815 169.665V175.125H69.1515V168.255H85.4715V170.865L77.3115 189.255H73.1415ZM90.8528 189.255L105.193 168.255H108.133L93.7928 189.255H90.8528ZM92.5928 179.565C91.6128 179.565 90.7428 179.325 89.9828 178.845C89.2228 178.365 88.6328 177.695 88.2128 176.835C87.7928 175.975 87.5828 174.965 87.5828 173.805C87.5828 172.645 87.7928 171.635 88.2128 170.775C88.6328 169.915 89.2228 169.245 89.9828 168.765C90.7428 168.285 91.6128 168.045 92.5928 168.045C93.6128 168.045 94.4928 168.285 95.2328 168.765C95.9928 169.245 96.5828 169.915 97.0028 170.775C97.4228 171.635 97.6328 172.645 97.6328 173.805C97.6328 174.965 97.4228 175.975 97.0028 176.835C96.5828 177.695 95.9928 178.365 95.2328 178.845C94.4928 179.325 93.6128 179.565 92.5928 179.565ZM92.6228 177.465C93.4228 177.465 94.0428 177.155 94.4828 176.535C94.9428 175.895 95.1728 174.985 95.1728 173.805C95.1728 172.625 94.9428 171.725 94.4828 171.105C94.0428 170.465 93.4228 170.145 92.6228 170.145C91.8228 170.145 91.1828 170.465 90.7028 171.105C90.2428 171.745 90.0128 172.645 90.0128 173.805C90.0128 174.965 90.2428 175.865 90.7028 176.505C91.1828 177.145 91.8228 177.465 92.6228 177.465ZM106.363 189.465C105.383 189.465 104.513 189.225 103.753 188.745C102.993 188.265 102.403 187.595 101.983 186.735C101.563 185.875 101.353 184.865 101.353 183.705C101.353 182.545 101.563 181.535 101.983 180.675C102.403 179.815 102.993 179.145 103.753 178.665C104.513 178.185 105.383 177.945 106.363 177.945C107.383 177.945 108.263 178.185 109.003 178.665C109.763 179.145 110.353 179.815 110.773 180.675C111.193 181.535 111.403 182.545 111.403 183.705C111.403 184.865 111.193 185.875 110.773 186.735C110.353 187.595 109.763 188.265 109.003 188.745C108.263 189.225 107.383 189.465 106.363 189.465ZM106.363 187.365C107.163 187.365 107.793 187.045 108.253 186.405C108.713 185.765 108.943 184.865 108.943 183.705C108.943 182.545 108.713 181.645 108.253 181.005C107.793 180.365 107.163 180.045 106.363 180.045C105.583 180.045 104.953 180.365 104.473 181.005C104.013 181.625 103.783 182.525 103.783 183.705C103.783 184.885 104.013 185.795 104.473 186.435C104.953 187.055 105.583 187.365 106.363 187.365Z" fill="white"/>
<path d="M141.141 117.531C139.241 117.531 137.611 117.131 136.251 116.331C134.891 115.511 133.851 114.331 133.131 112.791C132.411 111.251 132.051 109.351 132.051 107.091C132.051 104.691 132.481 102.661 133.341 101.001C134.221 99.341 135.431 98.081 136.971 97.221C138.531 96.361 140.321 95.931 142.341 95.931C143.401 95.931 144.411 96.041 145.371 96.261C146.351 96.481 147.181 96.821 147.861 97.281L146.421 100.221C145.841 99.841 145.211 99.581 144.531 99.441C143.871 99.281 143.171 99.201 142.431 99.201C140.451 99.201 138.881 99.811 137.721 101.031C136.561 102.251 135.981 104.051 135.981 106.431C135.981 106.811 135.991 107.261 136.011 107.781C136.031 108.281 136.101 108.791 136.221 109.311L135.021 107.991C135.381 107.171 135.871 106.491 136.491 105.951C137.131 105.391 137.881 104.971 138.741 104.691C139.621 104.411 140.571 104.271 141.591 104.271C142.971 104.271 144.201 104.541 145.281 105.081C146.361 105.601 147.221 106.351 147.861 107.331C148.501 108.291 148.821 109.421 148.821 110.721C148.821 112.101 148.481 113.301 147.801 114.321C147.121 115.341 146.201 116.131 145.041 116.691C143.881 117.251 142.581 117.531 141.141 117.531ZM140.931 114.471C141.731 114.471 142.441 114.331 143.061 114.051C143.681 113.751 144.161 113.331 144.501 112.791C144.861 112.251 145.041 111.621 145.041 110.901C145.041 109.801 144.661 108.931 143.901 108.291C143.141 107.651 142.121 107.331 140.841 107.331C140.001 107.331 139.261 107.491 138.621 107.811C138.001 108.111 137.501 108.531 137.121 109.071C136.761 109.611 136.581 110.231 136.581 110.931C136.581 111.571 136.751 112.161 137.091 112.701C137.431 113.241 137.921 113.671 138.561 113.991C139.221 114.311 140.011 114.471 140.931 114.471ZM153.214 117.231L167.554 96.231H170.494L156.154 117.231H153.214ZM154.954 107.541C153.974 107.541 153.104 107.301 152.344 106.821C151.584 106.341 150.994 105.671 150.574 104.811C150.154 103.951 149.944 102.941 149.944 101.781C149.944 100.621 150.154 99.611 150.574 98.751C150.994 97.891 151.584 97.221 152.344 96.741C153.104 96.261 153.974 96.021 154.954 96.021C155.974 96.021 156.854 96.261 157.594 96.741C158.354 97.221 158.944 97.891 159.364 98.751C159.784 99.611 159.994 100.621 159.994 101.781C159.994 102.941 159.784 103.951 159.364 104.811C158.944 105.671 158.354 106.341 157.594 106.821C156.854 107.301 155.974 107.541 154.954 107.541ZM154.984 105.441C155.784 105.441 156.404 105.131 156.844 104.511C157.304 103.871 157.534 102.961 157.534 101.781C157.534 100.601 157.304 99.701 156.844 99.081C156.404 98.441 155.784 98.121 154.984 98.121C154.184 98.121 153.544 98.441 153.064 99.081C152.604 99.721 152.374 100.621 152.374 101.781C152.374 102.941 152.604 103.841 153.064 104.481C153.544 105.121 154.184 105.441 154.984 105.441ZM168.724 117.441C167.744 117.441 166.874 117.201 166.114 116.721C165.354 116.241 164.764 115.571 164.344 114.711C163.924 113.851 163.714 112.841 163.714 111.681C163.714 110.521 163.924 109.511 164.344 108.651C164.764 107.791 165.354 107.121 166.114 106.641C166.874 106.161 167.744 105.921 168.724 105.921C169.744 105.921 170.624 106.161 171.364 106.641C172.124 107.121 172.714 107.791 173.134 108.651C173.554 109.511 173.764 110.521 173.764 111.681C173.764 112.841 173.554 113.851 173.134 114.711C172.714 115.571 172.124 116.241 171.364 116.721C170.624 117.201 169.744 117.441 168.724 117.441ZM168.724 115.341C169.524 115.341 170.154 115.021 170.614 114.381C171.074 113.741 171.304 112.841 171.304 111.681C171.304 110.521 171.074 109.621 170.614 108.981C170.154 108.341 169.524 108.021 168.724 108.021C167.944 108.021 167.314 108.341 166.834 108.981C166.374 109.601 166.144 110.501 166.144 111.681C166.144 112.861 166.374 113.771 166.834 114.411C167.314 115.031 167.944 115.341 168.724 115.341Z" fill="white"/>
<path d="M221.992 71.6152L230.662 52.1752L231.682 53.9152H219.772L221.632 52.0252V57.4852H218.002V50.6152H234.322V53.2252L226.162 71.6152H221.992ZM239.703 71.6152L254.043 50.6152H256.983L242.643 71.6152H239.703ZM241.443 61.9252C240.463 61.9252 239.593 61.6852 238.833 61.2052C238.073 60.7252 237.483 60.0552 237.063 59.1952C236.643 58.3352 236.433 57.3252 236.433 56.1652C236.433 55.0052 236.643 53.9952 237.063 53.1352C237.483 52.2752 238.073 51.6052 238.833 51.1252C239.593 50.6452 240.463 50.4052 241.443 50.4052C242.463 50.4052 243.343 50.6452 244.083 51.1252C244.843 51.6052 245.433 52.2752 245.853 53.1352C246.273 53.9952 246.483 55.0052 246.483 56.1652C246.483 57.3252 246.273 58.3352 245.853 59.1952C245.433 60.0552 244.843 60.7252 244.083 61.2052C243.343 61.6852 242.463 61.9252 241.443 61.9252ZM241.473 59.8252C242.273 59.8252 242.893 59.5152 243.333 58.8952C243.793 58.2552 244.023 57.3452 244.023 56.1652C244.023 54.9852 243.793 54.0852 243.333 53.4652C242.893 52.8252 242.273 52.5052 241.473 52.5052C240.673 52.5052 240.033 52.8252 239.553 53.4652C239.093 54.1052 238.863 55.0052 238.863 56.1652C238.863 57.3252 239.093 58.2252 239.553 58.8652C240.033 59.5052 240.673 59.8252 241.473 59.8252ZM255.213 71.8252C254.233 71.8252 253.363 71.5852 252.603 71.1052C251.843 70.6252 251.253 69.9552 250.833 69.0952C250.413 68.2352 250.203 67.2252 250.203 66.0652C250.203 64.9052 250.413 63.8952 250.833 63.0352C251.253 62.1752 251.843 61.5052 252.603 61.0252C253.363 60.5452 254.233 60.3052 255.213 60.3052C256.233 60.3052 257.113 60.5452 257.853 61.0252C258.613 61.5052 259.203 62.1752 259.623 63.0352C260.043 63.8952 260.253 64.9052 260.253 66.0652C260.253 67.2252 260.043 68.2352 259.623 69.0952C259.203 69.9552 258.613 70.6252 257.853 71.1052C257.113 71.5852 256.233 71.8252 255.213 71.8252ZM255.213 69.7252C256.013 69.7252 256.643 69.4052 257.103 68.7652C257.563 68.1252 257.793 67.2252 257.793 66.0652C257.793 64.9052 257.563 64.0052 257.103 63.3652C256.643 62.7252 256.013 62.4052 255.213 62.4052C254.433 62.4052 253.803 62.7252 253.323 63.3652C252.863 63.9852 252.633 64.8852 252.633 66.0652C252.633 67.2452 252.863 68.1552 253.323 68.7952C253.803 69.4152 254.433 69.7252 255.213 69.7252Z" fill="white"/>
<defs>
<clipPath id="clip0_196_291">
<rect width="189.644" height="189.644" fill="white" transform="translate(201.668 210.071)"/>
</clipPath>
</defs>
</svg>
