<svg width="180" height="181" viewBox="0 0 180 181" fill="none" xmlns="http://www.w3.org/2000/svg">
<g clip-path="url(#clip0_184_150)">
<path d="M4.29492 0.788086H175.252L173.316 21.6011L6.81184 21.2139L4.29492 0.788086Z" fill="#7A18D5"/>
<path d="M36.0504 111.532L91.9067 155.675L94.0804 168.418L91.9067 180.554L19.7871 123.439L36.0504 111.532Z" fill="#7A18D5"/>
<path d="M35.0729 100.981L36.1378 111.823L29.7954 119.388L19.7778 123.439L15.0336 85.8792L35.0729 100.981Z" fill="#7A18D5"/>
<path d="M146.307 112.114L91.903 155.676L90.8379 167.97L91.9029 180.555L162.957 122.956L158.67 104.149L146.307 112.114Z" fill="#7A18D5"/>
<path d="M62.1812 90.5254H131.977L125.104 108.628H57.2441L62.1812 90.5254Z" fill="#7A18D5"/>
<path d="M6.76367 20.5564L27.2409 19.0845L31.0163 66.8092L13.4946 75.1344L6.76367 20.5564Z" fill="#7A18D5"/>
<path d="M13.4844 75.1348L30.8124 66.3255L63.6292 90.7203L57.2324 108.629L13.4844 75.1348Z" fill="#7A18D5"/>
<path d="M13.4844 75.1348L30.8124 66.3255L63.6292 90.7203L57.2324 108.629L13.4844 75.1348Z" fill="#7A18D5"/>
<path d="M155.691 19.3089L173.503 19.4718L168.663 68.939L152.207 55.1927L155.691 19.3089Z" fill="#7A18D5"/>
<rect x="56.9629" y="43.575" width="70.2802" height="18.1993" fill="#7A18D5"/>
<path d="M127.26 43.575L167.323 76.6821L151.931 87.5243L115.373 58.2899L127.26 43.575Z" fill="#7A18D5"/>
<path d="M167.316 76.6824L162.96 122.955L146.31 112.113L148.881 75.7143L167.316 76.6824Z" fill="#7A18D5"/>
<path d="M34.1133 62.4521L56.9594 43.5755L69.2536 55.4824L48.5372 72.6166L34.1133 62.4521Z" fill="#7A18D5"/>
<path d="M119.492 90.4299L132.851 79.491L144.274 90.2363L125.107 108.629L119.492 90.4299Z" fill="#7A18D5"/>
</g>
<defs>
<clipPath id="clip0_184_150">
<rect width="180" height="180" fill="white" transform="translate(0 0.136963)"/>
</clipPath>
</defs>
</svg>
