<svg width="194" height="306" viewBox="0 0 194 306" fill="none" xmlns="http://www.w3.org/2000/svg">
<path d="M185.576 116.914V300.272C185.576 302.466 184.845 304.173 183.626 304.661C182.651 305.148 181.432 305.148 180.212 304.417L106.577 261.991C103.407 260.284 100.969 255.408 100.969 251.506V68.1487C100.969 65.9542 101.7 64.4913 102.675 63.7598H102.919C103.895 63.2722 105.114 63.2721 106.333 64.0036L108.04 64.9789L108.527 65.2227L179.968 106.429C183.138 108.136 185.576 112.769 185.576 116.914Z" fill="white" stroke="#262626" stroke-width="0.75" stroke-miterlimit="10" stroke-linecap="round" stroke-linejoin="round"/>
<path d="M127.304 262.234L114.381 254.919C112.674 253.944 111.211 251.018 111.211 248.824V235.169C111.211 232.731 112.674 231.756 114.381 232.731L127.304 240.046C129.01 241.021 130.473 243.947 130.473 246.142V259.796C130.717 262.234 129.254 263.21 127.304 262.234Z" fill="#FFAD28" stroke="#262626" stroke-width="0.75" stroke-miterlimit="10" stroke-linecap="round" stroke-linejoin="round"/>
<path d="M140.473 249.555L157.784 259.795" stroke="#262626" stroke-width="0.75" stroke-miterlimit="10" stroke-linecap="round" stroke-linejoin="round"/>
<path d="M140.473 258.576L175.34 278.814" stroke="#262626" stroke-width="0.75" stroke-miterlimit="10" stroke-linecap="round" stroke-linejoin="round"/>
<path d="M140.473 267.354L175.34 287.592" stroke="#262626" stroke-width="0.75" stroke-miterlimit="10" stroke-linecap="round" stroke-linejoin="round"/>
<path d="M116.086 244.191L119.5 250.531L126.327 246.63" stroke="#262626" stroke-width="0.75" stroke-miterlimit="10" stroke-linecap="round" stroke-linejoin="round"/>
<path d="M127.304 191.768L114.381 184.454C112.674 183.478 111.211 180.552 111.211 178.358V164.704C111.211 162.265 112.674 161.29 114.381 162.265L127.304 169.58C129.01 170.555 130.473 173.481 130.473 175.676V189.33C130.717 191.768 129.254 192.987 127.304 191.768Z" fill="#FFAD28" stroke="#262626" stroke-width="0.75" stroke-miterlimit="10" stroke-linecap="round" stroke-linejoin="round"/>
<path d="M140.473 179.333L157.784 189.33" stroke="#262626" stroke-width="0.75" stroke-miterlimit="10" stroke-linecap="round" stroke-linejoin="round"/>
<path d="M140.473 188.11L175.34 208.348" stroke="#262626" stroke-width="0.75" stroke-miterlimit="10" stroke-linecap="round" stroke-linejoin="round"/>
<path d="M140.473 197.133L175.34 217.37" stroke="#262626" stroke-width="0.75" stroke-miterlimit="10" stroke-linecap="round" stroke-linejoin="round"/>
<path d="M116.086 173.969L119.5 180.064L126.327 176.163" stroke="#262626" stroke-width="0.75" stroke-miterlimit="10" stroke-linecap="round" stroke-linejoin="round"/>
<path d="M127.304 227.123L114.381 219.808C112.674 218.833 111.211 215.907 111.211 213.712V200.058C111.211 197.62 112.674 196.645 114.381 197.62L127.304 204.935C129.01 205.91 130.473 208.836 130.473 211.03V224.685C130.717 226.879 129.254 228.098 127.304 227.123Z" fill="#E84142" stroke="#262626" stroke-width="0.75" stroke-miterlimit="10" stroke-linecap="round" stroke-linejoin="round"/>
<path d="M140.473 214.443L157.784 224.684" stroke="#262626" stroke-width="0.75" stroke-miterlimit="10" stroke-linecap="round" stroke-linejoin="round"/>
<path d="M140.473 223.465L175.34 243.702" stroke="#262626" stroke-width="0.75" stroke-miterlimit="10" stroke-linecap="round" stroke-linejoin="round"/>
<path d="M140.473 232.243L175.34 252.481" stroke="#262626" stroke-width="0.75" stroke-miterlimit="10" stroke-linecap="round" stroke-linejoin="round"/>
<path d="M117.547 214.2L124.374 210.299" stroke="#262626" stroke-width="0.75" stroke-miterlimit="10" stroke-linecap="round" stroke-linejoin="round"/>
<path d="M124.374 217.857L117.547 206.397" stroke="#262626" stroke-width="0.75" stroke-miterlimit="10" stroke-linecap="round" stroke-linejoin="round"/>
<path d="M140.469 133.982C140.956 134.226 141.2 134.226 141.688 134.47C141.2 134.226 140.713 134.226 140.469 133.982Z" fill="white" stroke="#262626" stroke-width="0.75" stroke-miterlimit="10" stroke-linecap="round" stroke-linejoin="round"/>
<path d="M130.473 141.785C130.716 136.664 133.642 133.738 137.544 133.738C137.788 133.738 138.031 133.738 138.031 133.738C138.031 133.738 138.031 133.738 138.275 133.738C138.519 133.738 138.763 133.738 138.763 133.738C139.007 133.738 139.25 133.738 139.494 133.738C139.25 133.738 139.25 133.738 139.007 133.738C138.763 133.738 138.763 133.738 138.519 133.738C134.13 133.007 130.96 135.933 130.473 141.785Z" fill="white" stroke="#262626" stroke-width="0.75" stroke-miterlimit="10" stroke-linecap="round" stroke-linejoin="round"/>
<path d="M137.305 124.96C137.305 128.861 139.987 133.494 143.4 135.201C146.814 137.152 149.496 135.689 149.496 131.788C149.496 127.886 146.814 123.254 143.644 121.547C139.987 119.596 137.305 121.059 137.305 124.96Z" fill="white" stroke="#262626" stroke-width="0.75" stroke-miterlimit="10" stroke-linecap="round" stroke-linejoin="round"/>
<path d="M130.477 141.785C130.72 136.664 133.646 133.738 137.548 133.738C137.791 133.738 138.035 133.738 138.035 133.738C138.035 133.738 138.035 133.738 138.279 133.738H138.523C134.134 133.007 130.964 135.933 130.477 141.785ZM139.254 133.738C139.01 133.738 139.011 133.738 138.767 133.738C138.767 133.738 138.767 133.738 139.254 133.738C139.01 133.738 139.01 133.738 139.254 133.738Z" fill="white"/>
<path d="M139.254 133.738C139.01 133.738 139.011 133.738 138.767 133.738C138.767 133.738 138.767 133.738 139.254 133.738ZM139.254 133.738C139.01 133.738 139.01 133.738 139.254 133.738ZM130.477 141.785C130.72 136.664 133.646 133.738 137.548 133.738C137.791 133.738 138.035 133.738 138.035 133.738C138.035 133.738 138.035 133.738 138.279 133.738H138.523C134.134 133.007 130.964 135.933 130.477 141.785Z" stroke="#262626" stroke-width="0.75" stroke-miterlimit="10" stroke-linecap="round" stroke-linejoin="round"/>
<path d="M130.477 142.76C130.477 142.272 130.477 142.028 130.477 141.784C130.72 136.176 134.134 133.007 138.523 133.738C138.767 133.738 138.767 133.738 139.01 133.738C139.254 133.738 139.254 133.738 139.498 133.738C139.742 133.738 139.986 133.982 140.23 133.982C140.717 134.226 140.961 134.226 141.449 134.469C141.936 134.713 142.668 134.957 143.156 135.201C139.742 133.25 137.06 128.618 137.06 124.96C137.06 121.059 139.742 119.596 143.156 121.547C146.569 123.497 149.251 128.13 149.007 131.787C149.007 135.689 146.325 137.152 142.912 135.201C149.983 139.346 155.591 149.343 155.591 157.389C159.98 155.682 162.662 151.05 162.662 143.979C162.662 131.3 153.884 115.939 142.912 109.599C131.939 103.26 122.918 108.38 122.918 121.059C123.406 128.13 126.088 136.176 130.477 142.76Z" fill="#7A18D5" stroke="#262626" stroke-width="0.75" stroke-miterlimit="10" stroke-linecap="round" stroke-linejoin="round"/>
<path d="M130.477 142.516C133.89 147.88 138.279 152.513 143.156 155.439C148.032 158.365 152.421 158.852 156.078 157.389C156.078 149.343 150.47 139.102 143.399 135.201C142.912 134.957 142.18 134.714 141.693 134.47C141.205 134.226 140.717 134.226 140.473 133.982C140.23 133.982 139.986 133.738 139.742 133.738C139.498 133.738 139.254 133.738 139.01 133.738C138.767 133.738 138.523 133.738 138.523 133.738C138.523 133.738 138.523 133.738 138.279 133.738C138.035 133.738 137.791 133.738 137.791 133.738C133.89 133.738 130.964 136.664 130.72 141.785C130.477 142.028 130.477 142.272 130.477 142.516Z" fill="white" stroke="#262626" stroke-width="0.75" stroke-miterlimit="10" stroke-linecap="round" stroke-linejoin="round"/>
<path d="M193.376 112.525V295.883C193.376 298.077 192.645 299.784 191.426 300.272L183.867 304.66C185.086 303.929 185.818 302.466 185.818 300.272V116.914C185.818 114.963 185.33 113.013 184.355 111.306L191.913 106.917C192.889 108.624 193.376 110.574 193.376 112.525Z" fill="#262626" stroke="#262626" stroke-width="0.75" stroke-miterlimit="10" stroke-linecap="round" stroke-linejoin="round"/>
<path d="M191.917 106.673L184.358 111.062C183.383 108.868 181.92 107.161 180.213 106.186L108.772 64.9788L108.285 64.7351L106.578 63.7597C105.359 63.0282 103.896 63.0283 103.164 63.5159L110.723 59.1269C111.698 58.6393 112.917 58.6394 114.136 59.3709L187.772 101.797C189.479 102.772 190.942 104.723 191.917 106.673Z" fill="white" stroke="#262626" stroke-width="0.75" stroke-miterlimit="10" stroke-linecap="round" stroke-linejoin="round"/>
<path d="M85.6077 58.8827V242.24C85.6077 244.435 84.8763 246.142 83.6571 246.629C82.6818 247.117 81.4628 247.117 80.2437 246.385L6.60798 203.96C3.43824 202.253 1 197.376 1 193.475V10.1174C1 7.92297 1.73136 6.46004 2.70667 5.72856H2.95058C3.92589 5.24091 5.14493 5.24085 6.36407 5.97233L8.07088 6.94769L8.55857 7.19146L79.9997 48.3982C83.1695 50.105 85.6077 54.9815 85.6077 58.8827Z" fill="white" stroke="#262626" stroke-width="0.75" stroke-miterlimit="10" stroke-linecap="round" stroke-linejoin="round"/>
<path d="M27.3348 204.204L14.4121 196.889C12.7053 195.914 11.2422 192.988 11.2422 190.793V177.139C11.2422 174.701 12.7053 173.726 14.4121 174.701L27.3348 182.016C29.0416 182.991 30.5046 185.917 30.5046 188.111V201.766C30.5046 204.204 29.2854 205.423 27.3348 204.204Z" fill="#FFAD28" stroke="#262626" stroke-width="0.75" stroke-miterlimit="10" stroke-linecap="round" stroke-linejoin="round"/>
<path d="M40.2539 191.769L57.8095 201.765" stroke="#262626" stroke-width="0.75" stroke-miterlimit="10" stroke-linecap="round" stroke-linejoin="round"/>
<path d="M40.2539 200.546L75.365 220.784" stroke="#262626" stroke-width="0.75" stroke-miterlimit="10" stroke-linecap="round" stroke-linejoin="round"/>
<path d="M40.2539 209.567L75.365 229.805" stroke="#262626" stroke-width="0.75" stroke-miterlimit="10" stroke-linecap="round" stroke-linejoin="round"/>
<path d="M16.1172 186.404L19.5308 192.5L26.3579 188.599" stroke="#262626" stroke-width="0.75" stroke-miterlimit="10" stroke-linecap="round" stroke-linejoin="round"/>
<path d="M27.3348 133.981L14.4121 126.666C12.7053 125.691 11.2422 122.765 11.2422 120.571V106.916C11.2422 104.478 12.7053 103.503 14.4121 104.478L27.3348 111.793C29.0416 112.768 30.5046 115.694 30.5046 117.889V131.543C30.5046 133.981 29.2854 134.957 27.3348 133.981Z" fill="#FFAD28" stroke="#262626" stroke-width="0.75" stroke-miterlimit="10" stroke-linecap="round" stroke-linejoin="round"/>
<path d="M40.2539 121.303L57.8095 131.543" stroke="#262626" stroke-width="0.75" stroke-miterlimit="10" stroke-linecap="round" stroke-linejoin="round"/>
<path d="M40.2539 130.324L75.365 150.562" stroke="#262626" stroke-width="0.75" stroke-miterlimit="10" stroke-linecap="round" stroke-linejoin="round"/>
<path d="M40.2539 139.102L75.365 159.339" stroke="#262626" stroke-width="0.75" stroke-miterlimit="10" stroke-linecap="round" stroke-linejoin="round"/>
<path d="M16.1172 115.938L19.5308 122.278L26.3579 118.377" stroke="#262626" stroke-width="0.75" stroke-miterlimit="10" stroke-linecap="round" stroke-linejoin="round"/>
<path d="M27.3348 169.092L14.4121 161.778C12.7053 160.802 11.2422 157.876 11.2422 155.682V141.784C11.2422 139.345 12.7053 138.37 14.4121 139.345L27.3348 146.66C29.0416 147.636 30.5046 150.561 30.5046 152.756V166.41C30.5046 169.092 29.2854 170.068 27.3348 169.092Z" fill="#FFAD28" stroke="#262626" stroke-width="0.75" stroke-miterlimit="10" stroke-linecap="round" stroke-linejoin="round"/>
<path d="M40.2578 156.413L57.8134 166.654" stroke="#262626" stroke-width="0.75" stroke-miterlimit="10" stroke-linecap="round" stroke-linejoin="round"/>
<path d="M40.2578 165.435L75.3689 185.672" stroke="#262626" stroke-width="0.75" stroke-miterlimit="10" stroke-linecap="round" stroke-linejoin="round"/>
<path d="M40.2578 174.456L75.3689 194.694" stroke="#262626" stroke-width="0.75" stroke-miterlimit="10" stroke-linecap="round" stroke-linejoin="round"/>
<path d="M40.2578 76.1943C40.7455 76.4382 40.9893 76.4382 41.4769 76.682C41.2331 76.4382 40.7455 76.1943 40.2578 76.1943Z" fill="white" stroke="#262626" stroke-width="0.75" stroke-miterlimit="10" stroke-linecap="round" stroke-linejoin="round"/>
<path d="M30.5039 83.7531C30.7477 78.6327 33.6737 75.7068 37.5749 75.7068C37.8188 75.7068 38.0625 75.7068 38.0625 75.7068C38.0625 75.7068 38.0626 75.7068 38.3064 75.7068C38.5502 75.7068 38.7941 75.7068 38.7941 75.7068C39.0379 75.7068 39.2817 75.7068 39.5255 75.7068C39.2817 75.7068 39.2817 75.7068 39.0378 75.7068C38.794 75.7068 38.794 75.7068 38.5502 75.7068C34.1613 75.2192 30.7477 78.1451 30.5039 83.7531Z" fill="white" stroke="#262626" stroke-width="0.75" stroke-miterlimit="10" stroke-linecap="round" stroke-linejoin="round"/>
<path d="M37.332 66.9297C37.332 70.831 40.0141 75.4637 43.4277 77.1705C46.8413 79.1211 49.5234 77.6581 49.5234 73.7569C49.5234 69.8556 46.8414 65.223 43.6716 63.5163C40.0142 61.8095 37.332 63.2723 37.332 66.9297Z" fill="white" stroke="#262626" stroke-width="0.75" stroke-miterlimit="10" stroke-linecap="round" stroke-linejoin="round"/>
<path d="M30.5039 83.7531C30.7477 78.6327 33.6737 75.7068 37.5749 75.7068C37.8188 75.7068 38.0625 75.7068 38.0625 75.7068C38.0625 75.7068 38.0626 75.7068 38.3064 75.7068H38.5502C34.1613 75.2192 30.7477 78.1451 30.5039 83.7531ZM39.0378 75.7068C38.794 75.7068 38.794 75.7068 38.5502 75.7068C38.794 75.7068 38.794 75.7068 39.0378 75.7068Z" fill="white" stroke="#262626" stroke-width="0.75" stroke-miterlimit="10" stroke-linecap="round" stroke-linejoin="round"/>
<path d="M30.5039 84.7282C30.5039 84.2406 30.5039 83.9968 30.5039 83.753C30.7477 78.145 34.1613 74.9753 38.5501 75.7067C38.794 75.7067 38.794 75.7067 39.0378 75.7067C39.2816 75.7067 39.2817 75.7067 39.5255 75.7067C39.7693 75.7067 40.0131 75.9505 40.2569 75.9505C40.7446 76.1943 40.9884 76.1944 41.4761 76.4382C41.9637 76.682 42.6952 76.9258 43.1829 77.1696C39.7693 75.219 37.0872 70.5863 37.0872 66.9289C37.0872 63.0277 39.7693 61.5648 43.1829 63.5154C46.5965 65.466 49.2785 70.0986 49.0346 73.756C49.0346 77.6572 46.3526 79.1203 42.939 77.1696C50.01 81.3147 55.618 91.3115 55.618 99.3578C60.0069 97.651 62.689 93.0183 62.689 85.9473C62.689 73.2684 53.9112 57.9073 42.939 51.5678C31.9668 45.2284 22.9453 50.3487 22.9453 63.0277C23.433 70.3425 26.115 78.1449 30.5039 84.7282Z" fill="#E84142" stroke="#262626" stroke-width="0.75" stroke-miterlimit="10" stroke-linecap="round" stroke-linejoin="round"/>
<path d="M30.5039 84.7289C33.9175 90.0931 38.3064 94.7259 43.1829 97.6518C48.0595 100.578 52.4483 101.065 56.1057 99.6024C56.1057 91.5561 50.4977 81.3153 43.4267 77.4141C42.939 77.1702 42.2075 76.9264 41.7199 76.6826C41.2322 76.4388 40.7446 76.4388 40.5007 76.1949C40.2569 76.1949 40.0131 75.9512 39.7693 75.9512C39.5255 75.9512 39.2817 75.9512 39.0378 75.9512C38.794 75.9512 38.5502 75.9512 38.5502 75.9512C38.5502 75.9512 38.5502 75.9512 38.3064 75.9512C38.0626 75.9512 37.8187 75.9512 37.8187 75.9512C33.9175 75.9512 30.9915 78.8771 30.7477 83.9974C30.5038 83.9974 30.5039 84.485 30.5039 84.7289Z" fill="white" stroke="#262626" stroke-width="0.75" stroke-miterlimit="10" stroke-linecap="round" stroke-linejoin="round"/>
<path d="M93.4115 54.4937V237.851C93.4115 240.046 92.68 241.753 91.4609 242.24L83.9023 246.629C85.1215 245.898 85.8529 244.435 85.8529 242.24V58.8826C85.8529 56.932 85.3652 54.9814 84.3899 53.2746L91.9486 48.8857C92.6801 50.5925 93.4115 52.5431 93.4115 54.4937Z" fill="#262626" stroke="#262626" stroke-width="0.75" stroke-miterlimit="10" stroke-linecap="round" stroke-linejoin="round"/>
<path d="M91.9499 48.8861L84.3911 53.2749C83.4158 51.0805 81.953 49.3737 80.2462 48.3984L8.56111 7.19164L8.07343 6.94787L6.36661 5.97251C5.14748 5.24103 3.68461 5.24109 2.95312 5.72874L10.5117 1.33989C11.487 0.852236 12.7062 0.852177 13.9253 1.58366L87.561 44.0096C89.5116 44.9849 90.9746 46.6917 91.9499 48.8861Z" fill="white" stroke="#262626" stroke-width="0.75" stroke-miterlimit="10" stroke-linecap="round" stroke-linejoin="round"/>
<path d="M16.1172 151.293L19.5308 157.389L26.3579 153.487" stroke="#262626" stroke-width="0.75" stroke-miterlimit="10" stroke-linecap="round" stroke-linejoin="round"/>
</svg>
