<svg width="149" height="313" viewBox="0 0 149 313" fill="none" xmlns="http://www.w3.org/2000/svg">
<path d="M148.466 80.578L11.4427 1L10.9453 216.855C10.9453 218.347 12.1887 220.337 13.4321 221.331L130.81 289.47L147.969 298.92L148.466 80.578Z" fill="white" stroke="#262626" stroke-width="0.75" stroke-miterlimit="10" stroke-linecap="round" stroke-linejoin="round"/>
<path d="M142.747 90.5252L5.72388 10.9473L5.22656 226.802C5.22656 228.294 6.46997 230.284 7.71337 231.279L125.091 299.417L142.25 308.867L142.747 90.5252Z" fill="white" stroke="#262626" stroke-width="0.75" stroke-miterlimit="10" stroke-linecap="round" stroke-linejoin="round"/>
<path d="M124.843 85.0542L1.49739 13.4341L1 232.273L121.113 301.904L138.272 312.1L138.521 109.922L124.843 85.0542Z" fill="white" stroke="#262626" stroke-width="0.75" stroke-miterlimit="10" stroke-linecap="round" stroke-linejoin="round"/>
<path d="M124.844 85.0542V101.964L138.521 109.922" fill="#262626"/>
<path d="M124.844 85.0542V101.964L138.521 109.922" stroke="#262626" stroke-width="0.75" stroke-miterlimit="10" stroke-linecap="round" stroke-linejoin="round"/>
<path d="M42.2816 223.321L30.345 216.358C29.3502 215.612 28.3555 214.12 28.3555 212.627V199.447C28.3555 197.955 29.3502 197.209 30.345 197.955L42.2816 204.918C43.2763 205.664 44.271 207.157 44.271 208.649V221.829C44.271 223.072 43.525 223.818 42.2816 223.321Z" fill="#D0D2D3" stroke="#262626" stroke-width="0.75" stroke-miterlimit="10" stroke-linecap="round" stroke-linejoin="round"/>
<path d="M31.8398 207.654L35.0727 213.125L40.7924 209.892" stroke="#262626" stroke-width="0.75" stroke-miterlimit="10" stroke-linecap="round" stroke-linejoin="round"/>
<path d="M52.7266 212.379L80.8275 228.792" stroke="#262626" stroke-width="0.75" stroke-miterlimit="10" stroke-linecap="round" stroke-linejoin="round"/>
<path d="M52.7266 220.088L111.415 253.909" stroke="#262626" stroke-width="0.75" stroke-miterlimit="10" stroke-linecap="round" stroke-linejoin="round"/>
<path d="M52.7266 227.548L111.415 261.369" stroke="#262626" stroke-width="0.75" stroke-miterlimit="10" stroke-linecap="round" stroke-linejoin="round"/>
<path d="M42.2816 189.998L30.345 183.034C29.3502 182.288 28.3555 180.796 28.3555 179.304V166.124C28.3555 164.632 29.3502 163.886 30.345 164.632L42.2816 171.595C43.2763 172.341 44.271 173.833 44.271 175.325V188.505C44.271 189.998 43.525 190.495 42.2816 189.998Z" fill="#E84142" stroke="#262626" stroke-width="0.75" stroke-miterlimit="10" stroke-linecap="round" stroke-linejoin="round"/>
<path d="M31.8398 174.331L35.0727 179.802L40.7924 176.569" stroke="#262626" stroke-width="0.75" stroke-miterlimit="10" stroke-linecap="round" stroke-linejoin="round"/>
<path d="M52.7266 179.304L80.8275 195.468" stroke="#262626" stroke-width="0.75" stroke-miterlimit="10" stroke-linecap="round" stroke-linejoin="round"/>
<path d="M52.7266 186.765L111.415 220.585" stroke="#262626" stroke-width="0.75" stroke-miterlimit="10" stroke-linecap="round" stroke-linejoin="round"/>
<path d="M52.7266 194.225L111.415 228.046" stroke="#262626" stroke-width="0.75" stroke-miterlimit="10" stroke-linecap="round" stroke-linejoin="round"/>
<path d="M42.2816 156.674L30.345 149.711C29.3502 148.965 28.3555 147.473 28.3555 145.981V132.801C28.3555 131.309 29.3502 130.563 30.345 131.309L42.2816 138.272C43.2763 139.018 44.271 140.51 44.271 142.002V155.182C44.271 156.674 43.525 157.172 42.2816 156.674Z" fill="#E06AE9" stroke="#262626" stroke-width="0.75" stroke-miterlimit="10" stroke-linecap="round" stroke-linejoin="round"/>
<path d="M31.8398 141.007L35.0727 146.478L40.7924 143.245" stroke="#262626" stroke-width="0.75" stroke-miterlimit="10" stroke-linecap="round" stroke-linejoin="round"/>
<path d="M52.7266 145.981L80.8275 162.145" stroke="#262626" stroke-width="0.75" stroke-miterlimit="10" stroke-linecap="round" stroke-linejoin="round"/>
<path d="M52.7266 153.441L111.415 187.262" stroke="#262626" stroke-width="0.75" stroke-miterlimit="10" stroke-linecap="round" stroke-linejoin="round"/>
<path d="M52.7266 160.902L111.415 194.722" stroke="#262626" stroke-width="0.75" stroke-miterlimit="10" stroke-linecap="round" stroke-linejoin="round"/>
<path d="M42.2816 123.351L30.345 116.388C29.3502 115.642 28.3555 114.15 28.3555 112.658V99.4776C28.3555 97.9855 29.3502 97.2395 30.345 97.9856L42.2816 104.949C43.2763 105.695 44.271 107.187 44.271 108.679V121.859C44.271 123.351 43.525 124.097 42.2816 123.351Z" fill="#FFAD28" stroke="#262626" stroke-width="0.75" stroke-miterlimit="10" stroke-linecap="round" stroke-linejoin="round"/>
<path d="M31.8398 107.684L35.0727 113.155L40.7924 109.922" stroke="#262626" stroke-width="0.75" stroke-miterlimit="10" stroke-linecap="round" stroke-linejoin="round"/>
<path d="M52.7266 112.658L80.8275 128.822" stroke="#262626" stroke-width="0.75" stroke-miterlimit="10" stroke-linecap="round" stroke-linejoin="round"/>
<path d="M52.7266 120.118L111.415 153.939" stroke="#262626" stroke-width="0.75" stroke-miterlimit="10" stroke-linecap="round" stroke-linejoin="round"/>
<path d="M52.7266 127.579L111.415 161.399" stroke="#262626" stroke-width="0.75" stroke-miterlimit="10" stroke-linecap="round" stroke-linejoin="round"/>
<path d="M42.2816 90.0278L30.345 83.0648C29.3502 82.3187 28.3555 80.8266 28.3555 79.3345V66.1544C28.3555 64.6623 29.3502 63.9163 30.345 64.6623L42.2816 71.6254C43.2763 72.3715 44.271 73.8635 44.271 75.3556V88.5357C44.271 90.0278 43.525 90.7738 42.2816 90.0278Z" fill="#C1A9E0" stroke="#262626" stroke-width="0.75" stroke-miterlimit="10" stroke-linecap="round" stroke-linejoin="round"/>
<path d="M31.8398 74.3608L35.0727 80.0805L40.7924 76.599" stroke="#262626" stroke-width="0.75" stroke-miterlimit="10" stroke-linecap="round" stroke-linejoin="round"/>
<path d="M52.7266 79.3345L80.8275 95.4987" stroke="#262626" stroke-width="0.75" stroke-miterlimit="10" stroke-linecap="round" stroke-linejoin="round"/>
<path d="M52.7266 86.7949L111.415 120.615" stroke="#262626" stroke-width="0.75" stroke-miterlimit="10" stroke-linecap="round" stroke-linejoin="round"/>
<path d="M52.7266 94.2554L111.415 128.076" stroke="#262626" stroke-width="0.75" stroke-miterlimit="10" stroke-linecap="round" stroke-linejoin="round"/>
</svg>
