<svg width="235" height="313" viewBox="0 0 235 313" fill="none" xmlns="http://www.w3.org/2000/svg">
<path d="M161.01 238.082L160.938 238.118L160.88 238.176L160.666 238.39L159.975 238.851L154.261 242.08L154.251 242.086L154.242 242.092C153.342 242.654 152.132 242.95 150.895 242.95C149.657 242.95 148.447 242.654 147.547 242.092L147.539 242.086L147.53 242.082L137.075 236.108L137.066 236.102L134.584 234.613L134.584 234.613L134.576 234.608L109.412 220.158L109.412 220.158L95.9668 212.439L94.03 211.228L93.8212 211.02L93.7638 210.962L93.6912 210.926C92.8081 210.484 92.4727 209.883 92.4727 209.38V209.131C92.4727 208.628 92.8081 208.026 93.6912 207.585L93.7072 207.577L93.7225 207.568L100.434 203.591C101.341 203.141 102.56 202.904 103.807 202.904C105.055 202.904 106.276 203.142 107.184 203.593L119.879 210.811L120.184 210.985L120.451 210.756C125.796 206.175 128.847 199.308 128.847 192.438V170.721L153.01 187.468V209.878C153.01 215.695 150.099 221.277 145.491 224.673L144.876 225.126L145.537 225.509L150.27 228.249L150.274 228.251L161.145 234.428C161.489 234.889 161.759 235.273 161.946 235.621C162.143 235.986 162.229 236.276 162.229 236.536C162.229 237.039 161.893 237.641 161.01 238.082Z" fill="white" stroke="#262626"/>
<mask id="path-2-inside-1_465_882" fill="white">
<path d="M153.015 203.899C150.025 201.656 146.786 199.912 143.547 198.168C142.551 197.67 141.305 197.172 140.308 197.421C139.063 197.67 138.066 198.916 137.319 199.912C135.824 202.155 134.578 204.397 133.083 206.639C131.588 208.881 129.595 210.625 127.353 211.871C124.862 212.868 121.872 212.868 119.879 211.124C123.865 208.134 126.357 203.4 127.353 198.667C128.35 193.684 128.35 187.954 128.101 182.971C129.346 183.718 134.827 187.704 138.315 189.199C142.302 190.943 146.288 193.435 150.025 195.677C151.022 196.175 152.018 196.923 152.516 197.919C153.513 199.663 153.015 201.656 152.516 203.649"/>
</mask>
<path d="M153.015 203.899C150.025 201.656 146.786 199.912 143.547 198.168C142.551 197.67 141.305 197.172 140.308 197.421C139.063 197.67 138.066 198.916 137.319 199.912C135.824 202.155 134.578 204.397 133.083 206.639C131.588 208.881 129.595 210.625 127.353 211.871C124.862 212.868 121.872 212.868 119.879 211.124C123.865 208.134 126.357 203.4 127.353 198.667C128.35 193.684 128.35 187.954 128.101 182.971C129.346 183.718 134.827 187.704 138.315 189.199C142.302 190.943 146.288 193.435 150.025 195.677C151.022 196.175 152.018 196.923 152.516 197.919C153.513 199.663 153.015 201.656 152.516 203.649" fill="#ADADAD"/>
<path d="M143.547 198.168L144.021 197.288L144.008 197.281L143.994 197.274L143.547 198.168ZM140.308 197.421L140.505 198.401L140.528 198.397L140.551 198.391L140.308 197.421ZM137.319 199.912L136.519 199.312L136.502 199.334L136.487 199.358L137.319 199.912ZM127.353 211.871L127.725 212.799L127.783 212.776L127.839 212.745L127.353 211.871ZM119.879 211.124L119.279 210.324L118.292 211.064L119.22 211.876L119.879 211.124ZM127.353 198.667L128.332 198.873L128.334 198.863L127.353 198.667ZM128.101 182.971L128.615 182.113L127.008 181.149L127.102 183.021L128.101 182.971ZM138.315 189.199L138.716 188.283L138.709 188.28L138.315 189.199ZM150.025 195.677L149.511 196.534L149.543 196.554L149.578 196.571L150.025 195.677ZM152.516 197.919L151.622 198.366L151.634 198.391L151.648 198.415L152.516 197.919ZM153.615 203.099C150.555 200.804 147.25 199.026 144.021 197.288L143.073 199.049C146.322 200.798 149.495 202.509 152.415 204.699L153.615 203.099ZM143.994 197.274C143.473 197.013 142.847 196.732 142.196 196.551C141.554 196.373 140.801 196.267 140.066 196.451L140.551 198.391C140.812 198.326 141.18 198.344 141.66 198.478C142.13 198.608 142.625 198.825 143.1 199.063L143.994 197.274ZM140.112 196.44C139.23 196.617 138.506 197.128 137.943 197.657C137.375 198.189 136.894 198.812 136.519 199.312L138.119 200.512C138.491 200.016 138.882 199.518 139.311 199.116C139.744 198.71 140.141 198.474 140.505 198.401L140.112 196.44ZM136.487 199.358C135.727 200.498 135.031 201.636 134.348 202.754C133.661 203.878 132.986 204.982 132.251 206.084L133.915 207.194C134.676 206.054 135.371 204.916 136.054 203.797C136.741 202.673 137.416 201.569 138.151 200.467L136.487 199.358ZM132.251 206.084C130.853 208.183 128.983 209.821 126.867 210.997L127.839 212.745C130.208 211.429 132.324 209.58 133.915 207.194L132.251 206.084ZM126.982 210.943C124.686 211.861 122.142 211.775 120.537 210.371L119.22 211.876C121.602 213.96 125.037 213.874 127.725 212.799L126.982 210.943ZM120.479 211.924C124.704 208.754 127.298 203.782 128.332 198.873L126.375 198.461C125.415 203.019 123.026 207.513 119.279 210.324L120.479 211.924ZM128.334 198.863C129.355 193.756 129.35 187.926 129.099 182.921L127.102 183.021C127.35 187.981 127.344 193.612 126.373 198.47L128.334 198.863ZM127.586 183.828C128.197 184.195 129.792 185.322 131.822 186.643C133.783 187.919 136.09 189.333 137.921 190.118L138.709 188.28C137.053 187.57 134.875 186.244 132.913 184.967C131.018 183.734 129.25 182.494 128.615 182.113L127.586 183.828ZM137.915 190.115C141.827 191.827 145.745 194.275 149.511 196.534L150.54 194.819C146.831 192.594 142.776 190.059 138.716 188.283L137.915 190.115ZM149.578 196.571C150.488 197.027 151.263 197.649 151.622 198.366L153.411 197.472C152.773 196.197 151.555 195.324 150.472 194.782L149.578 196.571ZM151.648 198.415C152.41 199.749 152.069 201.315 151.546 203.407L153.487 203.892C153.96 201.998 154.616 199.578 153.385 197.423L151.648 198.415Z" fill="#262626" mask="url(#path-2-inside-1_465_882)"/>
<path d="M158.494 187.456V210.127C158.494 217.103 155.505 223.581 150.273 228.066L145.539 225.325C150.273 221.837 153.263 216.107 153.263 210.127V187.456H158.494Z" fill="#262626" stroke="#262626" stroke-width="0.75" stroke-miterlimit="10" stroke-linecap="round" stroke-linejoin="round"/>
<path d="M162.729 236.536C162.729 237.284 162.23 238.031 161.234 238.529L160.985 238.779L160.237 239.277L154.507 242.516C152.514 243.761 149.275 243.761 147.282 242.516L136.818 236.536L134.327 235.041L109.163 220.591L95.7098 212.868L93.7167 211.622L93.4676 211.373C92.471 210.875 91.9727 210.127 91.9727 209.38V209.131C91.9727 208.383 92.471 207.636 93.4676 207.138L100.194 203.151C102.188 202.155 105.426 202.155 107.419 203.151L120.126 210.377C125.358 205.892 128.347 199.165 128.347 192.438V169.767L153.51 187.206V209.878C153.51 215.858 150.521 221.588 145.787 225.076L150.521 227.816L161.483 234.045C162.23 235.041 162.729 235.789 162.729 236.536Z" stroke="#262626" stroke-width="0.75" stroke-miterlimit="10" stroke-linecap="round" stroke-linejoin="round"/>
<path d="M222.025 211.373V231.055C222.025 232.799 221.527 233.796 220.53 234.543C220.281 234.543 220.281 234.792 220.032 234.792C219.036 235.29 217.79 235.041 216.295 234.294L66.0632 147.593C63.0735 145.849 60.582 141.613 60.582 138.126V118.443L72.2917 125.17L222.025 211.373Z" fill="white" stroke="#262626" stroke-width="0.75" stroke-miterlimit="10" stroke-linecap="round" stroke-linejoin="round"/>
<path d="M222.026 104.741V211.373L72.5417 125.17L60.832 118.444V11.5623C60.832 9.56914 61.5796 8.32344 62.8253 7.82516C63.8218 7.32687 65.0675 7.57601 66.3132 8.32343L72.5417 12.0605L73.5383 12.5588L160.488 62.8853L170.205 68.6155L216.296 95.2736C219.784 97.0175 222.026 101.253 222.026 104.741Z" fill="#ADADAD" stroke="#262626" stroke-width="0.75" stroke-miterlimit="10" stroke-linecap="round" stroke-linejoin="round"/>
<path d="M233.986 204.397V224.079C233.986 225.823 233.488 227.069 232.492 227.567L221.031 234.294C221.779 233.796 222.526 232.55 222.526 230.806V211.373L233.986 204.397Z" fill="#262626" stroke="#262626" stroke-width="0.75" stroke-miterlimit="10" stroke-linecap="round" stroke-linejoin="round"/>
<path d="M232.49 92.7819L220.531 99.5087C219.535 97.7648 218.04 96.0208 216.545 95.2734L170.454 68.6153L160.737 62.8851L73.7872 12.5586L72.7908 12.0603L66.5623 8.32322C65.3165 7.57579 64.0708 7.32666 63.0742 7.82494L74.2856 1.34727C75.2821 0.848984 76.7769 0.848999 78.2717 1.59642L172.447 55.9091L182.163 61.6393L228.255 88.2974C229.999 89.294 231.493 91.038 232.49 92.7819Z" fill="white" stroke="#262626" stroke-width="0.75" stroke-miterlimit="10" stroke-linecap="round" stroke-linejoin="round"/>
<path d="M233.986 98.0137V204.646L222.276 211.373V104.74C222.276 102.996 221.778 101.253 220.781 99.5085L232.74 92.7817C233.487 94.5257 233.986 96.2697 233.986 98.0137Z" fill="#262626" stroke="#262626" stroke-width="0.75" stroke-miterlimit="10" stroke-linecap="round" stroke-linejoin="round"/>
<path d="M162.732 236.536V242.516C162.732 243.263 162.233 244.01 161.237 244.509L154.51 248.495C152.517 249.492 149.278 249.492 147.285 248.495L93.2213 217.352C92.2248 216.854 91.7266 215.858 91.7266 215.11V209.38C91.7266 210.127 92.2248 210.875 93.2213 211.373L93.4706 211.622L95.4637 212.868L108.917 220.591L134.08 235.041L136.572 236.536L147.036 242.516C149.029 243.761 152.268 243.761 154.261 242.516L159.991 239.277L160.739 238.779L160.988 238.529C162.233 238.031 162.732 237.284 162.732 236.536Z" fill="#262626" stroke="#262626" stroke-width="0.75" stroke-miterlimit="10" stroke-linecap="round" stroke-linejoin="round"/>
<path d="M176.43 282.378C176.43 283.873 175.434 285.367 173.441 286.364L172.693 286.862L171.198 287.61L142.796 304.053C139.059 306.295 132.582 306.295 128.845 304.053L8.50938 234.543L4.52319 232.3L3.7758 231.802C2.03181 230.806 1.03516 229.311 1.03516 228.065V227.567C1.03516 226.072 2.03175 224.826 4.02488 223.83L34.6692 206.141C38.4063 203.898 44.884 203.898 48.6211 206.141L173.69 278.392C175.434 279.388 176.43 280.883 176.43 282.378Z" fill="white" stroke="#262626" stroke-width="0.75" stroke-miterlimit="10" stroke-linecap="round" stroke-linejoin="round"/>
<path d="M128.1 260.702C128.1 261.948 127.352 262.945 126.106 263.692L125.608 263.941L124.612 264.689L103.684 276.897C100.943 278.391 96.2096 278.391 93.4691 276.897L75.78 266.682C75.0326 266.183 75.0326 264.938 75.78 264.439L78.0223 263.194H78.2714C78.5205 262.945 78.7697 262.695 78.7697 262.446C78.7697 262.197 78.5205 261.948 78.2714 261.948L38.4089 238.778C37.9106 238.529 36.9141 238.529 36.1667 238.778L34.1736 240.024C32.6787 241.02 30.6856 241.02 29.1908 240.024L17.4811 233.297L14.4914 231.553L13.9931 231.304C12.7474 230.556 12 229.56 12 228.563V228.314C12 227.318 12.7474 226.321 13.9931 225.574L36.4158 212.618C39.1563 211.123 43.8901 211.123 46.6306 212.618L126.106 258.46C127.352 258.46 128.1 259.457 128.1 260.702Z" fill="#ADADAD" stroke="#262626" stroke-width="0.75" stroke-miterlimit="10" stroke-linecap="round" stroke-linejoin="round"/>
<path d="M164.973 282.129C164.973 283.374 164.225 284.371 162.98 285.119L162.482 285.368L161.485 286.115L140.557 298.323C137.816 299.818 133.083 299.818 130.342 298.323L113.899 288.856L110.909 287.112L110.411 286.862C109.165 286.115 108.418 285.118 108.418 284.122V283.624C108.418 282.627 109.165 281.631 110.411 280.883L132.834 267.928C135.574 266.433 140.308 266.433 143.048 267.928L162.731 279.388C164.225 279.887 164.973 281.132 164.973 282.129Z" fill="#ADADAD" stroke="#262626" stroke-width="0.75" stroke-miterlimit="10" stroke-linecap="round" stroke-linejoin="round"/>
<path d="M176.433 282.378V288.357C176.433 289.852 175.436 291.347 173.443 292.343L142.799 310.032C139.062 312.275 132.584 312.275 128.847 310.032L3.77826 237.781C1.78514 236.536 0.788481 235.041 1.03762 233.546V228.065C1.03762 229.311 2.03428 230.805 3.77826 231.802L4.52565 232.3L8.51185 234.543L128.847 304.053C132.584 306.295 139.062 306.295 142.799 304.053L171.201 287.61L172.696 286.862L173.443 286.364C175.436 285.367 176.433 283.872 176.433 282.378Z" fill="#262626" stroke="#262626" stroke-width="0.75" stroke-miterlimit="10" stroke-linecap="round" stroke-linejoin="round"/>
<path d="M70.0504 116.451L211.812 198.418C213.306 199.414 215.299 198.169 215.299 196.425V121.682L68.8047 36.9746V114.457C69.0538 115.454 69.303 116.201 70.0504 116.451Z" fill="white" stroke="#262626" stroke-width="0.75" stroke-miterlimit="10" stroke-linecap="round" stroke-linejoin="round"/>
<path d="M69.0539 37.2235L215.549 121.931V105.986C215.549 104.99 215.05 103.744 214.054 103.246L73.5384 22.0259C71.5453 20.7802 68.8047 22.275 68.8047 24.7664V37.2235H69.0539Z" fill="#262626" stroke="#262626" stroke-width="0.75" stroke-miterlimit="10" stroke-linecap="round" stroke-linejoin="round"/>
<path d="M79.7663 34.4828C79.7663 36.2268 78.5205 36.9742 77.0256 35.9776C75.5308 34.9811 74.2852 32.9879 74.2852 31.2439C74.2852 29.5 75.5308 28.7525 77.0256 29.7491C78.5205 30.4965 79.7663 32.7388 79.7663 34.4828Z" fill="#E84142" stroke="#262626" stroke-width="0.75" stroke-miterlimit="10" stroke-linecap="round" stroke-linejoin="round"/>
<path d="M86.6429 40.6453C87.7154 40.0261 87.6923 37.9787 86.5915 36.0721C85.4908 34.1656 83.7291 33.122 82.6567 33.7411C81.5843 34.3603 81.6072 36.4079 82.708 38.3144C83.8087 40.2209 85.5705 41.2645 86.6429 40.6453Z" fill="#FFAD28" stroke="#262626" stroke-width="0.75" stroke-miterlimit="10" stroke-linecap="round" stroke-linejoin="round"/>
<path d="M95.2155 43.452C95.2155 45.196 93.9697 45.9434 92.4749 44.9468C90.98 43.9503 89.7344 41.9572 89.7344 40.2132C89.7344 38.4692 90.98 37.7218 92.4749 38.7183C93.9697 39.4658 95.2155 41.708 95.2155 43.452Z" fill="#ADADAD" stroke="#262626" stroke-width="0.75" stroke-miterlimit="10" stroke-linecap="round" stroke-linejoin="round"/>
<path d="M90.4805 115.703V109.225L101.193 111.716V107.232H112.156L123.118 113.46L133.831 111.966L139.561 110.969L144.793 113.959V146.845" stroke="#262626" stroke-width="0.75" stroke-miterlimit="10" stroke-linecap="round" stroke-linejoin="round"/>
<path d="M101.191 107.232V121.931" stroke="#262626" stroke-width="0.75" stroke-miterlimit="10" stroke-linecap="round" stroke-linejoin="round"/>
<path d="M112.156 107.232V128.16" stroke="#262626" stroke-width="0.75" stroke-miterlimit="10" stroke-linecap="round" stroke-linejoin="round"/>
<path d="M123.117 113.46V134.388" stroke="#262626" stroke-width="0.75" stroke-miterlimit="10" stroke-linecap="round" stroke-linejoin="round"/>
<path d="M133.832 111.966V140.368" stroke="#262626" stroke-width="0.75" stroke-miterlimit="10" stroke-linecap="round" stroke-linejoin="round"/>
<path d="M100.445 78.3315L154.758 109.972" stroke="#262626" stroke-width="0.75" stroke-miterlimit="10" stroke-linecap="round" stroke-linejoin="round"/>
<path d="M100.445 68.8643L129.346 85.5567" stroke="#262626" stroke-width="0.75" stroke-miterlimit="10" stroke-linecap="round" stroke-linejoin="round"/>
<path d="M81.7618 67.868L92.7241 74.3457C93.7206 74.8439 94.2189 74.3457 94.2189 73.1V67.3697C94.2189 66.124 93.4715 64.8783 92.7241 64.38L81.7618 57.9024C80.7653 57.4041 80.267 57.9024 80.267 59.1481V64.8783C80.0179 66.124 80.7653 67.3697 81.7618 67.868Z" fill="#FFAD28" stroke="#262626" stroke-width="0.75" stroke-miterlimit="10" stroke-linecap="round" stroke-linejoin="round"/>
<path d="M81.7618 87.3011L92.7241 93.7788C93.7206 94.2771 94.2189 93.7788 94.2189 92.5331V86.8028C94.2189 85.5571 93.4715 84.3114 92.7241 83.8131L81.7618 77.3355C80.7653 76.8372 80.267 77.3355 80.267 78.5812V84.3114C80.0179 85.308 80.7653 86.8028 81.7618 87.3011Z" fill="#7A18D5" stroke="#262626" stroke-width="0.75" stroke-miterlimit="10" stroke-linecap="round" stroke-linejoin="round"/>
<path d="M90.4796 109.225L80.0156 103.246V109.724" stroke="#262626" stroke-width="0.75" stroke-miterlimit="10" stroke-linecap="round" stroke-linejoin="round"/>
<path d="M144.793 113.959L154.759 119.689V152.825" stroke="#262626" stroke-width="0.75" stroke-miterlimit="10" stroke-linecap="round" stroke-linejoin="round"/>
<path d="M80.0156 109.724L154.758 152.825" stroke="#262626" stroke-width="0.75" stroke-miterlimit="10" stroke-linecap="round" stroke-linejoin="round"/>
<path d="M166.937 151.514C160.001 135.775 162.473 119.456 172.436 115.092C182.399 110.704 196.12 119.935 203.056 135.674C209.992 151.413 207.545 167.732 197.557 172.121C187.594 176.459 173.873 167.253 166.937 151.514Z" fill="#7A18D5" stroke="#262626" stroke-width="0.5" stroke-miterlimit="10"/>
<path d="M190.695 141.097V142.988L184.793 139.558L184.743 153.506L183.103 152.548L183.154 138.625L177.227 135.195L177.252 133.328L190.695 141.097Z" fill="white" stroke="#262626" stroke-width="0.5" stroke-miterlimit="10"/>
<path d="M183.913 156.685C177.532 153.002 172.361 144.048 172.386 136.708C172.412 129.369 177.607 126.418 183.989 130.1C190.37 133.782 195.541 142.736 195.515 150.076C195.515 157.391 190.294 160.367 183.913 156.685ZM184.014 128.007C176.624 123.744 170.596 127.174 170.57 135.649C170.545 144.124 176.523 154.49 183.913 158.753C191.303 163.015 197.306 159.585 197.331 151.11C197.357 142.636 191.379 132.269 184.014 128.007Z" fill="white" stroke="#262626" stroke-width="0.5" stroke-miterlimit="10"/>
</svg>
