<svg width="345" height="249" viewBox="0 0 345 249" fill="none" xmlns="http://www.w3.org/2000/svg">
<path d="M331.954 140.344L295.11 161.765L286.541 166.692L263.835 179.758L255.053 184.899L229.562 199.466L220.779 204.607L180.722 227.741C178.365 229.027 175.367 229.883 172.582 229.883C170.011 229.883 167.441 229.455 165.513 228.384L119.672 202.036L110.889 196.895L45.5554 159.194L36.7729 154.053L19.6361 144.2L12.7812 140.344L20.2786 136.06L44.9127 121.922L53.6955 116.781L111.104 83.5783L119.886 78.4372L142.592 65.3705L151.161 60.4436L164.442 52.732C168.94 50.1615 175.795 49.9473 179.651 52.0894L264.478 101.143L273.26 106.284L307.105 125.778L315.888 130.704L331.954 140.344Z" fill="#D0D2D3" stroke="#262626" stroke-width="0.75" stroke-miterlimit="10" stroke-linecap="round" stroke-linejoin="round"/>
<path d="M343.735 130.704C343.735 132.418 342.45 134.132 340.094 135.631L331.954 140.344L295.11 161.765L286.542 166.691L263.835 179.758L255.053 184.899L229.562 199.465L220.779 204.607L180.722 227.741C178.366 229.026 175.367 229.883 172.582 229.883C170.012 229.883 167.441 229.455 165.513 228.384L119.672 202.036L110.89 196.895L45.5557 159.194L36.7732 154.053L19.6364 144.199L12.7815 140.344L3.57067 134.988C1.857 133.917 1 132.632 1 131.133V130.918C1.21421 129.205 2.28541 127.491 4.64172 126.206L44.6988 103.071L53.4814 97.9301L110.89 64.7276L119.672 59.5866L142.378 46.5198L150.947 41.593L164.228 33.8815C168.726 31.3109 175.581 31.0968 179.437 33.2389L264.264 82.2928L273.046 87.4339L306.891 106.927L315.674 111.854L341.165 126.42C342.664 127.277 343.521 128.562 343.735 129.847C343.735 130.49 343.735 130.49 343.735 130.704Z" fill="#D0D2D3" stroke="#262626" stroke-width="0.75" stroke-miterlimit="10" stroke-linecap="round" stroke-linejoin="round"/>
<path d="M185.65 184.257L220.781 204.392L229.563 199.251L195.932 179.758L220.995 165.406L255.269 184.685L264.051 179.544L223.137 156.624C221.852 155.981 220.138 155.981 218.853 156.624L187.364 174.831L143.88 149.769L201.288 116.352L253.341 146.127L286.971 166.477L295.54 161.551L264.051 142.486L316.104 112.068L307.321 107.141L255.269 137.345L220.995 117.852L273.262 87.6482L264.479 82.5072L212.213 112.711L176.868 92.3608L201.502 78.223C202.787 77.3662 203.644 76.0809 203.644 74.3672C203.644 72.8677 202.787 71.3683 201.502 70.5114L151.377 41.3789L142.809 46.3057L190.792 74.153L168.3 87.0055L120.102 59.3725L111.32 64.5135L132.312 76.5093L74.6898 109.498L53.9116 97.5019L45.129 102.643L72.5477 118.494C72.5477 118.494 72.5477 118.494 72.7619 118.494L85.4003 125.777L37.2031 153.625L45.9857 158.766L94.1828 130.919L122.03 146.984L133.169 153.411L159.517 168.619L111.32 196.467L120.102 201.608L168.3 173.76L184.365 182.971L185.65 184.257ZM166.8 96.8592L192.077 111.425L134.883 144.842L126.1 139.701L120.531 136.488L96.1108 122.35L83.2582 115.067L140.881 82.0787L164.658 95.7881L166.8 96.8592Z" fill="white"/>
<path d="M343.735 130.704C343.735 132.418 342.45 134.132 340.094 135.631L331.954 140.344L295.11 161.765L286.542 166.691L263.835 179.758L255.053 184.899L229.562 199.465L220.779 204.607L180.722 227.741C178.366 229.026 175.367 229.883 172.582 229.883C170.012 229.883 167.441 229.455 165.513 228.384L119.672 202.036L110.89 196.895L45.5557 159.194L36.7732 154.053L19.6364 144.199L12.7815 140.344L3.57067 134.988C1.857 133.917 1 132.632 1 131.133V130.918C1.21421 129.205 2.28541 127.491 4.64172 126.206L44.6988 103.071L53.4814 97.9301L110.89 64.7276L119.672 59.5866L142.378 46.5198L150.947 41.593L164.228 33.8815C168.726 31.3109 175.581 31.0968 179.437 33.2389L264.264 82.2928L273.046 87.4339L306.891 106.927L315.674 111.854L341.165 126.42C342.664 127.277 343.521 128.562 343.735 129.847C343.735 130.49 343.735 130.49 343.735 130.704Z" stroke="#262626" stroke-width="0.75" stroke-miterlimit="10" stroke-linecap="round" stroke-linejoin="round"/>
<path d="M176.438 78.8655C176.438 79.2939 176.652 79.5081 176.866 79.5081L178.151 80.365L179.436 81.2218L210.711 99.2154C210.925 99.4297 211.354 99.4297 211.782 99.4297C212.211 99.4297 212.639 99.4297 212.853 99.2154L236.845 85.2918L237.916 84.6492L239.201 83.7923C239.415 83.5781 239.629 83.3639 239.629 83.1497C239.629 82.9355 239.415 82.7213 239.201 82.5071L206.213 63.4424C205.57 63.014 204.499 63.014 203.856 63.4424L176.438 78.0087C176.652 78.4371 176.438 78.6513 176.438 78.8655Z" fill="white" stroke="#262626" stroke-width="0.75" stroke-miterlimit="10" stroke-linecap="round" stroke-linejoin="round"/>
<path d="M176.438 78.8655C176.438 79.2939 176.652 79.5081 176.866 79.5081L178.151 80.365L179.436 81.2218L210.711 99.2154C210.925 99.4297 211.354 99.4297 211.782 99.4297C212.211 99.4297 212.639 99.4297 212.853 99.2154L236.845 85.2918L237.916 84.6492L239.201 83.7923C239.415 83.5781 239.629 83.3639 239.629 83.1497C239.629 82.9355 239.415 82.7213 239.201 82.5071L206.213 63.4424C205.57 63.014 204.499 63.014 203.856 63.4424L176.438 78.0087C176.652 78.4371 176.438 78.6513 176.438 78.8655Z" fill="white" stroke="#262626" stroke-width="0.75" stroke-miterlimit="10" stroke-linecap="round" stroke-linejoin="round"/>
<path d="M212.211 99.4296V112.496C212.639 112.496 213.068 112.496 213.282 112.282L239.63 97.0733C240.058 96.8591 240.058 96.6449 240.058 96.4307V83.5781C240.058 83.7923 239.844 84.0065 239.63 84.2207L238.344 85.0776L237.273 85.7202L213.282 99.6438C212.854 99.2154 212.639 99.4296 212.211 99.4296Z" fill="white" stroke="#262626" stroke-width="0.75" stroke-miterlimit="10" stroke-linecap="round" stroke-linejoin="round"/>
<path d="M176.866 92.575L210.925 112.068C211.139 112.282 211.567 112.282 211.996 112.282V99.2155C211.567 99.2155 211.139 99.2155 210.925 99.0013L179.65 81.0077L178.365 80.1509L177.08 79.294C176.866 79.0798 176.651 78.8656 176.651 78.6514V91.5039C176.437 92.1466 176.651 92.3608 176.866 92.575Z" fill="#ADADAD" stroke="#262626" stroke-width="0.75" stroke-miterlimit="10" stroke-linecap="round" stroke-linejoin="round"/>
<path d="M170.012 153.839C170.012 154.267 170.226 154.481 170.44 154.481L171.726 155.338L173.011 156.195L185.649 163.478C185.863 163.692 186.292 163.692 186.72 163.692C187.149 163.692 187.577 163.692 187.791 163.478L215.853 147.412L216.924 146.77L218.209 145.913C218.423 145.699 218.637 145.485 218.637 145.27C218.637 145.056 218.423 144.842 218.209 144.628L202.786 135.631C202.143 135.202 201.072 135.202 200.43 135.631L170.012 153.196C170.226 153.41 170.012 153.624 170.012 153.839Z" fill="white" stroke="#262626" stroke-width="0.75" stroke-miterlimit="10" stroke-linecap="round" stroke-linejoin="round"/>
<path d="M170.012 153.839C170.012 154.267 170.226 154.481 170.44 154.481L171.726 155.338L173.011 156.195L185.649 163.478C185.863 163.692 186.292 163.692 186.72 163.692C187.149 163.692 187.577 163.692 187.791 163.478L215.853 147.412L216.924 146.77L218.209 145.913C218.423 145.699 218.637 145.485 218.637 145.27C218.637 145.056 218.423 144.842 218.209 144.628L202.786 135.631C202.143 135.202 201.072 135.202 200.43 135.631L170.012 153.196C170.226 153.41 170.012 153.624 170.012 153.839Z" fill="white" stroke="#262626" stroke-width="0.75" stroke-miterlimit="10" stroke-linecap="round" stroke-linejoin="round"/>
<path d="M186.934 163.692V174.617C187.362 174.617 187.79 174.617 188.005 174.403L218.422 156.837C218.851 156.623 218.851 156.409 218.851 156.195V145.484C218.851 145.699 218.637 145.913 218.422 146.127L217.137 146.984L216.066 147.626L188.005 163.692C187.79 163.692 187.362 163.692 186.934 163.692Z" fill="white" stroke="#262626" stroke-width="0.75" stroke-miterlimit="10" stroke-linecap="round" stroke-linejoin="round"/>
<path d="M170.44 165.405L185.863 174.402C186.077 174.616 186.505 174.616 186.934 174.616V163.692C186.505 163.692 186.077 163.692 185.863 163.477L173.224 156.194L171.939 155.337L170.654 154.48C170.44 154.266 170.225 154.052 170.225 153.838V164.548C170.011 164.977 170.226 165.191 170.44 165.405Z" fill="#D0D2D3" stroke="#262626" stroke-width="0.75" stroke-miterlimit="10" stroke-linecap="round" stroke-linejoin="round"/>
<path d="M104.033 133.702C104.033 134.345 103.819 134.559 103.176 134.988L101.034 136.273L98.6781 137.558L67.8319 155.337C67.4034 155.552 66.5465 155.766 65.9039 155.766C65.2613 155.766 64.6186 155.552 63.976 155.337L50.0524 147.412L48.3388 146.341L46.1967 145.055C45.7683 144.841 45.3398 144.413 45.3398 143.984V143.77C45.3398 143.342 45.5541 143.127 46.1967 142.699L81.5413 122.349C82.6124 121.707 84.3259 121.707 85.3969 122.349L103.176 132.631C103.605 133.06 104.033 133.274 104.033 133.702Z" fill="white" stroke="#262626" stroke-width="0.75" stroke-miterlimit="10" stroke-linecap="round" stroke-linejoin="round"/>
<path d="M104.033 133.702C104.033 134.345 103.819 134.559 103.176 134.988L101.034 136.273L98.6781 137.558L67.8319 155.337C67.4034 155.552 66.5465 155.766 65.9039 155.766C65.2613 155.766 64.6186 155.552 63.976 155.337L50.0524 147.412L48.3388 146.341L46.1967 145.055C45.7683 144.841 45.3398 144.413 45.3398 143.984V143.77C45.3398 143.342 45.5541 143.127 46.1967 142.699L81.5413 122.349C82.6124 121.707 84.3259 121.707 85.3969 122.349L103.176 132.631C103.605 133.06 104.033 133.274 104.033 133.702Z" fill="white" stroke="#262626" stroke-width="0.75" stroke-miterlimit="10" stroke-linecap="round" stroke-linejoin="round"/>
<path d="M65.9039 155.765V170.331C65.2613 170.331 64.6186 170.117 63.976 169.903L46.1967 159.621C45.5541 159.192 45.3398 158.764 45.3398 158.335V143.983C45.3398 144.412 45.5541 144.84 46.1967 145.054L48.3388 146.34L50.0524 147.411L63.976 155.337C64.4044 155.551 65.2613 155.765 65.9039 155.765Z" fill="#ADADAD" stroke="#262626" stroke-width="0.75" stroke-miterlimit="10" stroke-linecap="round" stroke-linejoin="round"/>
<path d="M103.179 149.339L67.8342 169.689C67.4058 169.904 66.5489 170.118 65.9062 170.118V155.551C66.5489 155.551 67.1916 155.337 67.8342 155.123L98.6804 137.344L101.037 136.058L103.179 134.773C103.607 134.559 103.821 134.131 104.036 133.702V148.054C104.036 148.697 103.821 149.125 103.179 149.339Z" fill="white" stroke="#262626" stroke-width="0.75" stroke-miterlimit="10" stroke-linecap="round" stroke-linejoin="round"/>
<path d="M181.793 11.6034C181.793 12.0318 181.579 12.246 181.364 12.246L180.079 13.1028L178.794 13.9597L170.868 18.6723C170.654 18.8865 170.225 18.8865 169.797 18.8865C169.369 18.8865 168.94 18.8865 168.726 18.6723L154.16 10.3181L153.089 9.67554L151.803 8.81865C151.589 8.60444 151.375 8.39026 151.375 8.17605C151.375 7.96184 151.589 7.74766 151.803 7.53345L162.514 1.32131C163.156 0.892895 164.227 0.892895 164.87 1.32131L181.793 11.175C181.793 11.175 181.793 11.3892 181.793 11.6034Z" fill="white" stroke="#262626" stroke-width="0.75" stroke-miterlimit="10" stroke-linecap="round" stroke-linejoin="round"/>
<path d="M181.793 11.6034C181.793 12.0318 181.579 12.246 181.364 12.246L180.079 13.1028L178.794 13.9597L170.868 18.6723C170.654 18.8865 170.225 18.8865 169.797 18.8865C169.369 18.8865 168.94 18.8865 168.726 18.6723L154.16 10.3181L153.089 9.67554L151.803 8.81865C151.589 8.60444 151.375 8.39026 151.375 8.17605C151.375 7.96184 151.589 7.74766 151.803 7.53345L162.514 1.32131C163.156 0.892895 164.227 0.892895 164.87 1.32131L181.793 11.175C181.793 11.175 181.793 11.3892 181.793 11.6034Z" fill="white" stroke="#262626" stroke-width="0.75" stroke-miterlimit="10" stroke-linecap="round" stroke-linejoin="round"/>
<path d="M169.582 18.672V52.0888C169.154 52.0888 168.725 52.0887 168.511 51.8745L151.588 42.2351C151.16 42.0209 151.16 41.8067 151.16 41.5925V8.17578C151.16 8.38999 151.374 8.60417 151.588 8.81838L152.874 9.67527L153.945 10.3179L168.511 18.672C168.725 18.672 169.154 18.672 169.582 18.672Z" fill="#ADADAD" stroke="#262626" stroke-width="0.75" stroke-miterlimit="10" stroke-linecap="round" stroke-linejoin="round"/>
<path d="M181.364 46.0907L170.653 51.8743C170.439 52.0885 170.01 52.0885 169.582 52.0885V18.6718C170.01 18.6718 170.439 18.6718 170.653 18.4576L178.579 13.745L179.864 12.8882L181.149 12.0313C181.364 11.8171 181.578 11.6029 181.578 11.3887V45.0196C182.006 45.6622 181.792 45.8765 181.364 46.0907Z" fill="white" stroke="#262626" stroke-width="0.75" stroke-miterlimit="10" stroke-linecap="round" stroke-linejoin="round"/>
<path d="M172.583 229.883V248.52C170.013 248.52 167.442 248.091 165.514 247.02L119.674 220.672L110.891 215.531L45.557 177.831L36.7745 172.689L3.78614 153.625C1.85825 152.554 1.00152 151.054 1.21573 149.555V131.133C1.21573 132.632 2.07246 133.918 3.78614 134.989L12.9973 140.344L19.8519 144.2L36.9886 154.053L45.7712 159.194L111.105 196.895L119.888 202.036L165.729 228.384C167.228 229.455 169.799 229.883 172.583 229.883Z" fill="#262626" stroke="#262626" stroke-width="0.75" stroke-miterlimit="10" stroke-linecap="round" stroke-linejoin="round"/>
<path d="M343.735 130.704V149.34C343.735 151.054 342.45 152.982 340.094 154.481L295.11 180.401L286.541 185.328L263.835 198.394L255.053 203.535L229.562 218.102L220.779 223.243L180.722 246.377C178.366 247.663 175.367 248.519 172.582 248.519V229.883C175.367 229.883 178.366 229.026 180.722 227.741L220.779 204.606L229.562 199.465L255.053 184.899L263.835 179.758L286.541 166.691L295.11 161.764L331.954 140.344L340.094 135.631C342.45 134.131 343.735 132.418 343.735 130.704Z" fill="white" stroke="#262626" stroke-width="0.75" stroke-miterlimit="10" stroke-linecap="round" stroke-linejoin="round"/>
<path d="M154.801 176.331L165.297 170.333C166.797 169.477 168.724 169.477 170.224 170.333L184.576 178.473C186.075 179.33 188.003 179.33 189.503 178.473L217.993 162.193C219.492 161.337 221.42 161.337 222.92 162.193L258.907 182.115" stroke="#E84142" stroke-width="0.75" stroke-miterlimit="10" stroke-linecap="round" stroke-linejoin="round"/>
<path d="M174.723 188.112C174.723 188.326 174.509 188.54 174.295 188.755L173.009 189.397L171.724 190.04L155.016 199.679C154.802 199.893 154.373 199.893 153.945 199.893C153.516 199.893 153.088 199.893 152.874 199.679L122.027 181.9L121.171 181.257L119.885 180.615C119.671 180.4 119.457 180.186 119.457 179.972C119.457 179.758 119.671 179.544 119.885 179.329L138.95 168.19C139.593 167.762 140.45 167.762 141.092 168.19L174.08 187.255C174.509 187.684 174.723 187.898 174.723 188.112Z" fill="white" stroke="#262626" stroke-width="0.75" stroke-miterlimit="10" stroke-linecap="round" stroke-linejoin="round"/>
<path d="M174.723 188.112C174.723 188.326 174.509 188.54 174.295 188.755L173.009 189.397L171.724 190.04L155.016 199.679C154.802 199.893 154.373 199.893 153.945 199.893C153.516 199.893 153.088 199.893 152.874 199.679L122.027 181.9L121.171 181.257L119.885 180.615C119.671 180.4 119.457 180.186 119.457 179.972C119.457 179.758 119.671 179.544 119.885 179.329L138.95 168.19C139.593 167.762 140.45 167.762 141.092 168.19L174.08 187.255C174.509 187.684 174.723 187.898 174.723 188.112Z" fill="white" stroke="#262626" stroke-width="0.75" stroke-miterlimit="10" stroke-linecap="round" stroke-linejoin="round"/>
<path d="M154.16 200.108V221.529C153.731 221.529 153.303 221.529 153.089 221.314L120.1 202.25C119.886 202.036 119.672 201.821 119.672 201.607V180.4C119.672 180.615 119.886 180.829 120.1 181.043L121.386 181.686L122.243 182.328L153.089 200.108C153.517 200.108 153.731 200.108 154.16 200.108Z" fill="#ADADAD" stroke="#262626" stroke-width="0.75" stroke-miterlimit="10" stroke-linecap="round" stroke-linejoin="round"/>
<path d="M174.296 210.176L155.231 221.314C155.017 221.529 154.589 221.529 154.16 221.529V200.108C154.589 200.108 155.017 200.108 155.231 199.893L171.94 190.254L173.225 189.611L174.51 188.969C174.724 188.755 174.939 188.54 174.939 188.326V209.533C174.724 209.747 174.724 209.961 174.296 210.176Z" fill="white" stroke="#262626" stroke-width="0.75" stroke-miterlimit="10" stroke-linecap="round" stroke-linejoin="round"/>
<path d="M158.657 132.203C158.014 131.989 157.585 131.775 156.729 131.561C155.658 131.347 154.801 131.347 153.515 131.561C152.016 131.775 150.516 132.418 148.803 133.274C141.091 137.773 134.879 148.483 134.879 157.266C134.879 161.979 138.735 169.476 142.376 175.474C143.662 177.402 144.733 179.33 145.804 180.829C147.303 183.185 148.589 184.899 148.589 184.899L144.947 182.757C144.947 182.757 131.023 163.906 131.023 154.91C131.023 145.913 137.236 135.202 144.947 130.918C148.374 128.776 151.802 128.562 154.158 129.633L155.015 130.061L158.657 132.203Z" fill="#262626" stroke="#262626" stroke-width="0.75" stroke-miterlimit="10" stroke-linecap="round" stroke-linejoin="round"/>
<path d="M149.019 155.338C146.448 156.837 144.306 155.98 143.664 153.838C143.449 153.41 143.449 152.767 143.449 152.339C143.449 148.911 145.806 144.627 149.019 142.913C149.662 142.699 150.09 142.485 150.518 142.271C152.875 141.842 154.374 143.128 154.374 146.127C154.588 149.34 152.018 153.624 149.019 155.338Z" stroke="#262626" stroke-width="0.75" stroke-miterlimit="10" stroke-linecap="round" stroke-linejoin="round"/>
<path d="M158.871 132.203C158.014 131.775 157.585 131.56 156.728 131.346C155.657 131.132 154.801 131.132 153.515 131.346C152.016 131.56 150.516 132.203 148.803 133.06C141.091 137.558 134.879 148.269 134.879 157.051C134.879 161.764 138.735 169.261 142.376 175.259C143.662 177.187 144.733 179.115 145.804 180.614C147.303 182.971 148.588 184.684 148.588 184.684C148.588 184.684 162.512 149.768 162.512 140.771C162.94 136.701 161.441 133.702 158.871 132.203ZM143.876 153.838C143.662 153.41 143.662 152.767 143.662 152.339C143.662 148.911 146.018 144.627 149.231 142.914C149.874 142.699 150.302 142.485 150.73 142.271C153.087 141.842 154.586 143.128 154.586 146.127C154.586 149.554 152.23 153.838 149.017 155.552C146.446 156.837 144.518 156.195 143.876 153.838Z" fill="#E84142" stroke="#262626" stroke-width="0.75" stroke-miterlimit="10" stroke-linecap="round" stroke-linejoin="round"/>
<path d="M150.728 143.771C150.728 147.198 148.372 151.483 145.159 153.196C144.731 153.41 144.088 153.625 143.66 153.839C143.446 153.41 143.445 152.768 143.445 152.339C143.445 148.912 145.802 144.628 149.015 142.914C149.658 142.7 150.086 142.486 150.514 142.271C150.729 142.486 150.728 143.128 150.728 143.771Z" fill="white" stroke="#262626" stroke-width="0.75" stroke-miterlimit="10" stroke-linecap="round" stroke-linejoin="round"/>
<path d="M154.585 145.912C154.585 149.34 152.229 153.624 149.015 155.338C146.445 156.837 144.303 155.98 143.66 153.838C144.089 153.624 144.731 153.624 145.16 153.196C148.158 151.482 150.729 147.198 150.729 143.77C150.729 143.128 150.729 142.699 150.515 142.057C152.871 141.628 154.585 143.128 154.585 145.912Z" fill="#262626" stroke="#262626" stroke-width="0.75" stroke-miterlimit="10" stroke-linecap="round" stroke-linejoin="round"/>
<path d="M93.3242 99.4292L95.0377 100.286C96.5372 101.143 98.4652 101.143 99.9647 100.286L138.308 78.4366C139.808 77.5797 141.735 77.5797 143.235 78.4366L253.125 140.986C254.624 141.843 256.552 141.843 258.051 140.986L274.974 131.346" stroke="#E84142" stroke-width="0.75" stroke-miterlimit="10" stroke-linecap="round" stroke-linejoin="round"/>
<path d="M329.814 111.853C329.814 112.282 329.6 112.496 329.386 112.496L328.101 113.353L326.815 114.21L296.398 131.561C296.183 131.775 295.755 131.775 295.326 131.775C294.898 131.775 294.47 131.775 294.255 131.561L277.761 122.136L276.69 121.493L275.405 120.636C275.191 120.422 274.977 120.208 274.977 119.993C274.977 119.779 275.191 119.565 275.405 119.351L308.608 100.286C309.25 99.8577 310.321 99.8577 310.964 100.286L329.814 111.211C329.6 111.425 329.814 111.639 329.814 111.853Z" fill="white" stroke="#262626" stroke-width="0.75" stroke-miterlimit="10" stroke-linecap="round" stroke-linejoin="round"/>
<path d="M329.814 111.853C329.814 112.282 329.6 112.496 329.386 112.496L328.101 113.353L326.815 114.21L296.398 131.561C296.183 131.775 295.755 131.775 295.326 131.775C294.898 131.775 294.47 131.775 294.255 131.561L277.761 122.136L276.69 121.493L275.405 120.636C275.191 120.422 274.977 120.208 274.977 119.993C274.977 119.779 275.191 119.565 275.405 119.351L308.608 100.286C309.25 99.8577 310.321 99.8577 310.964 100.286L329.814 111.211C329.6 111.425 329.814 111.639 329.814 111.853Z" fill="white" stroke="#262626" stroke-width="0.75" stroke-miterlimit="10" stroke-linecap="round" stroke-linejoin="round"/>
<path d="M295.112 131.774V161.121C294.683 161.121 294.255 161.121 294.041 160.907L275.19 149.554C274.762 149.34 274.762 149.125 274.762 148.911V120.207C274.762 120.421 274.976 120.635 275.19 120.85L276.476 121.707L277.547 122.349L294.041 131.774C294.255 131.774 294.683 131.774 295.112 131.774Z" fill="#ADADAD" stroke="#262626" stroke-width="0.75" stroke-miterlimit="10" stroke-linecap="round" stroke-linejoin="round"/>
<path d="M329.387 141.843L296.184 160.908C295.97 161.122 295.542 161.122 295.113 161.122V131.775C295.542 131.775 295.97 131.775 296.184 131.561L326.602 114.21L327.887 113.353L329.173 112.496C329.387 112.282 329.601 112.068 329.601 111.854V140.986C329.815 141.414 329.601 141.629 329.387 141.843Z" fill="white" stroke="#262626" stroke-width="0.75" stroke-miterlimit="10" stroke-linecap="round" stroke-linejoin="round"/>
<path d="M313.746 63.6565C313.103 63.4423 312.675 63.2281 311.818 63.0139C310.747 62.7997 309.891 62.7997 308.605 63.0139C307.106 63.2281 305.606 63.8707 303.893 64.7275C296.181 69.2259 289.969 79.9364 289.969 88.719C289.969 93.4317 293.825 100.929 297.466 106.927C298.751 108.855 299.822 110.783 300.894 112.282C302.393 114.638 303.678 116.352 303.678 116.352L300.037 114.21C300.037 114.21 286.113 95.3595 286.113 86.3627C286.113 77.3659 292.325 66.6554 300.037 62.3712C303.464 60.2291 306.891 60.015 309.248 61.086L310.105 61.5144L313.746 63.6565Z" fill="#262626" stroke="#262626" stroke-width="0.75" stroke-miterlimit="10" stroke-linecap="round" stroke-linejoin="round"/>
<path d="M304.105 87.0055C301.534 88.5049 299.392 87.6481 298.749 85.506C298.535 85.0776 298.535 84.435 298.535 84.0065C298.535 80.5792 300.891 76.295 304.105 74.5813C304.747 74.3671 305.176 74.1529 305.604 73.9387C307.96 73.5103 309.46 74.7955 309.46 77.7945C309.674 81.0076 307.103 85.2918 304.105 87.0055Z" stroke="#262626" stroke-width="0.75" stroke-miterlimit="10" stroke-linecap="round" stroke-linejoin="round"/>
<path d="M313.96 63.871C313.104 63.4426 312.675 63.2284 311.818 63.0142C310.747 62.8 309.89 62.8 308.605 63.0142C307.106 63.2284 305.606 63.871 303.892 64.7278C296.181 69.2262 289.969 79.9367 289.969 88.7193C289.969 93.4319 293.825 100.929 297.466 106.927C298.751 108.855 299.822 110.783 300.893 112.282C302.393 114.639 303.678 116.352 303.678 116.352C303.678 116.352 317.602 81.4362 317.602 72.4394C318.03 68.3694 316.531 65.3705 313.96 63.871ZM298.966 85.5062C298.752 85.0778 298.751 84.4351 298.751 84.0067C298.751 80.5793 301.108 76.2952 304.321 74.5815C304.964 74.3673 305.392 74.1531 305.82 73.9389C308.177 73.5105 309.676 74.7957 309.676 77.7946C309.676 81.222 307.32 85.5062 304.107 87.2198C301.536 88.5051 299.608 87.6483 298.966 85.5062Z" fill="#E84142" stroke="#262626" stroke-width="0.75" stroke-miterlimit="10" stroke-linecap="round" stroke-linejoin="round"/>
<path d="M305.818 75.4379C305.818 78.8653 303.462 83.1494 300.249 84.8631C299.821 85.0773 299.178 85.2916 298.749 85.5058C298.535 85.0774 298.535 84.4347 298.535 84.0063C298.535 80.5789 300.891 76.2948 304.105 74.5811C304.747 74.3669 305.176 74.1527 305.604 73.9385C305.818 74.1527 305.818 74.7953 305.818 75.4379Z" fill="white" stroke="#262626" stroke-width="0.75" stroke-miterlimit="10" stroke-linecap="round" stroke-linejoin="round"/>
<path d="M309.675 77.5806C309.675 81.008 307.318 85.2921 304.105 87.0058C301.535 88.5053 299.393 87.6485 298.75 85.5064C299.178 85.5064 299.821 85.2921 300.25 84.8637C303.249 83.15 305.819 78.8659 305.819 75.4385C305.819 74.7959 305.819 74.3675 305.605 73.7249C307.961 73.2964 309.675 74.5817 309.675 77.5806Z" fill="#262626" stroke="#262626" stroke-width="0.75" stroke-miterlimit="10" stroke-linecap="round" stroke-linejoin="round"/>
<path d="M109.393 72.8672C109.393 73.2956 109.178 73.5098 108.964 73.5098L107.679 74.3666L106.394 75.2235L75.9757 92.5745C75.7614 92.7887 75.333 92.7887 74.9046 92.7887C74.4762 92.7887 74.0478 92.7887 73.8336 92.5745L57.3395 83.1492L56.2685 82.5066L54.9833 81.6497C54.7691 81.4355 54.5547 81.2214 54.5547 81.0071C54.5547 80.7929 54.7691 80.5788 54.9833 80.3645L88.1858 61.2998C88.8284 60.8714 89.8994 60.8714 90.542 61.2998L109.393 72.2245C109.178 72.4387 109.178 72.653 109.393 72.8672Z" fill="white" stroke="#262626" stroke-width="0.75" stroke-miterlimit="10" stroke-linecap="round" stroke-linejoin="round"/>
<path d="M109.393 72.8672C109.393 73.2956 109.178 73.5098 108.964 73.5098L107.679 74.3666L106.394 75.2235L75.9757 92.5745C75.7614 92.7887 75.333 92.7887 74.9046 92.7887C74.4762 92.7887 74.0478 92.7887 73.8336 92.5745L57.3395 83.1492L56.2685 82.5066L54.9833 81.6497C54.7691 81.4355 54.5547 81.2214 54.5547 81.0071C54.5547 80.7929 54.7691 80.5788 54.9833 80.3645L88.1858 61.2998C88.8284 60.8714 89.8994 60.8714 90.542 61.2998L109.393 72.2245C109.178 72.4387 109.178 72.653 109.393 72.8672Z" fill="white" stroke="#262626" stroke-width="0.75" stroke-miterlimit="10" stroke-linecap="round" stroke-linejoin="round"/>
<path d="M74.6898 92.7884V109.711C74.2613 109.711 73.8329 109.711 73.6187 109.497L54.7684 98.5721C54.34 98.3578 54.3398 98.1436 54.3398 97.9294V81.0068C54.3398 81.221 54.5542 81.4352 54.7684 81.6494L56.0536 82.5063L57.1247 83.1489L73.6187 92.5741C73.8329 92.7884 74.2613 92.7884 74.6898 92.7884Z" fill="#ADADAD" stroke="#262626" stroke-width="0.75" stroke-miterlimit="10" stroke-linecap="round" stroke-linejoin="round"/>
<path d="M108.75 90.4323L75.5476 109.497C75.3334 109.711 74.905 109.711 74.4766 109.711V92.7887C74.905 92.7887 75.3334 92.7886 75.5476 92.5744L105.965 75.2234L107.251 74.3666L108.536 73.5098C108.75 73.2956 108.964 73.0814 108.964 72.8672V89.5755C109.393 90.0039 109.179 90.2181 108.75 90.4323Z" fill="white" stroke="#262626" stroke-width="0.75" stroke-miterlimit="10" stroke-linecap="round" stroke-linejoin="round"/>
<path d="M93.3245 25.7415C92.6819 25.5273 92.2534 25.313 91.3966 25.0988C90.3255 24.8846 89.4687 24.8846 88.1834 25.0988C86.684 25.313 85.1843 25.9557 83.4706 26.8125C75.7591 31.3109 69.547 42.0214 69.547 50.804C69.547 55.5166 73.4028 63.0139 77.0444 69.0118C78.3296 70.9397 79.4009 72.8676 80.4719 74.367C81.9714 76.7234 83.2565 78.437 83.2565 78.437L79.615 76.2949C79.615 76.2949 65.6914 57.4445 65.6914 48.4477C65.6914 39.6651 71.9035 28.7404 79.615 24.4562C83.0424 22.3141 86.4696 22.0999 88.8259 23.1709L89.6828 23.5994L93.3245 25.7415Z" fill="#262626" stroke="#262626" stroke-width="0.75" stroke-miterlimit="10" stroke-linecap="round" stroke-linejoin="round"/>
<path d="M83.6868 49.0905C81.1163 50.59 78.9742 49.7331 78.3316 47.591C78.1174 47.1626 78.1172 46.52 78.1172 46.0916C78.1172 42.6642 80.4737 38.38 83.6868 36.6663C84.3295 36.4521 84.7578 36.2379 85.1862 36.0237C87.5425 35.5953 89.0421 36.8805 89.0421 39.8794C89.0421 43.0926 86.6858 47.3768 83.6868 49.0905Z" stroke="#262626" stroke-width="0.75" stroke-miterlimit="10" stroke-linecap="round" stroke-linejoin="round"/>
<path d="M93.5385 25.956C92.6817 25.5275 92.2533 25.3133 91.3964 25.0991C90.3254 24.8849 89.4685 24.8849 88.1833 25.0991C86.6838 25.3133 85.1842 25.956 83.4705 26.8129C75.759 31.3113 69.5469 42.0217 69.5469 50.8043C69.5469 55.5169 73.4026 63.0142 77.0442 69.0121C78.3295 70.94 79.4007 72.8679 80.4718 74.3674C81.9712 76.7237 83.2563 78.4373 83.2563 78.4373C83.2563 78.4373 97.18 43.5212 97.18 34.5243C97.3942 30.4544 95.8948 27.4554 93.5385 25.956ZM78.3297 47.5911C78.1155 47.1627 78.1153 46.5201 78.1153 46.0917C78.1153 42.6644 80.4718 38.3801 83.6849 36.6664C84.3275 36.4522 84.7559 36.238 85.1843 36.0238C87.5406 35.5954 89.0402 36.8807 89.0402 39.8796C89.0402 43.3069 86.6836 47.5912 83.4705 49.3049C81.1142 50.5901 78.9723 49.7332 78.3297 47.5911Z" fill="#E84142" stroke="#262626" stroke-width="0.75" stroke-miterlimit="10" stroke-linecap="round" stroke-linejoin="round"/>
<path d="M85.3965 37.5239C85.3965 40.9513 83.0402 45.2354 79.8271 46.9491C79.3986 47.1633 78.7561 47.3775 78.3277 47.5917C78.1135 47.1633 78.1133 46.5207 78.1133 46.0923C78.1133 42.6649 80.4698 38.3807 83.6829 36.667C84.3256 36.4528 84.7539 36.2386 85.1823 36.0244C85.3965 36.2386 85.3965 36.8813 85.3965 37.5239Z" fill="white" stroke="#262626" stroke-width="0.75" stroke-miterlimit="10" stroke-linecap="round" stroke-linejoin="round"/>
<path d="M89.0382 39.6656C89.0382 43.093 86.6817 47.3772 83.4685 49.0908C80.898 50.5903 78.7559 49.7334 78.1133 47.5913C78.5417 47.5913 79.1845 47.3772 79.6129 46.9487C82.6118 45.2351 85.1823 40.9509 85.1823 37.5235C85.1823 36.8809 85.1824 36.4524 84.9681 35.8098C87.5387 35.3814 89.0382 36.6667 89.0382 39.6656Z" fill="#262626" stroke="#262626" stroke-width="0.75" stroke-miterlimit="10" stroke-linecap="round" stroke-linejoin="round"/>
</svg>
