<svg width="272" height="313" viewBox="0 0 272 313" fill="none" xmlns="http://www.w3.org/2000/svg">
<path d="M63.4609 241.808L63.7169 241.552C63.461 241.808 63.4609 241.808 63.4609 241.808Z" fill="white" stroke="#262626" stroke-width="0.75" stroke-miterlimit="10" stroke-linecap="round" stroke-linejoin="round"/>
<path d="M17.8945 212.37C17.8945 214.93 19.6864 218.257 21.9903 219.537L60.3884 241.808C61.6683 242.576 62.6923 242.576 63.4602 242.064C63.4602 242.064 63.4602 242.064 63.7162 242.064L63.9722 241.808C64.2282 241.552 64.4842 241.296 64.4842 241.04C64.4842 240.784 64.7402 240.784 64.7402 240.528V240.272C64.7402 240.016 64.7402 239.76 64.7402 239.504V195.474C64.7402 192.915 62.9482 189.587 60.6444 188.307L22.2463 166.036C21.9903 165.78 21.4783 165.78 21.2223 165.524C20.7104 165.268 20.1984 165.268 19.9424 165.524H19.6864C18.9184 166.036 18.4065 166.804 18.4065 168.084L17.8945 212.37Z" fill="#E84142" stroke="#262626" stroke-width="0.75" stroke-miterlimit="10" stroke-linecap="round" stroke-linejoin="round"/>
<path d="M19.4297 165.524C19.6857 165.524 19.6857 165.524 19.9417 165.268C20.4537 165.268 20.7097 165.268 21.2216 165.268C21.4776 165.268 21.7336 165.524 22.2456 165.78L60.6437 188.051C62.9475 189.331 64.7395 192.659 64.7395 195.218V239.248C64.7395 239.504 64.7395 239.76 64.7395 240.016V240.272C64.7395 240.528 64.7394 240.528 64.4835 240.784C64.4835 241.04 64.2275 241.296 63.9715 241.552L63.7155 241.808L75.491 234.896C76.2589 234.384 76.7709 233.617 76.7709 232.337V188.307C76.7709 185.747 74.979 182.419 72.6751 181.139L34.277 158.868C33.253 158.1 31.9731 158.1 31.2051 158.612L19.4297 165.524Z" fill="white" stroke="#262626" stroke-width="0.75" stroke-miterlimit="10" stroke-linecap="round" stroke-linejoin="round"/>
<path d="M35.5569 188.051C35.0449 187.795 34.789 187.539 34.277 187.539C30.1812 186.003 28.3892 191.123 31.2051 196.242L40.6767 215.441C40.9326 215.697 40.9326 215.953 41.1886 215.953C41.4446 215.953 41.7006 216.209 41.7006 215.953L51.1722 207.762C53.732 205.458 52.1961 198.546 48.1003 195.474C47.5883 195.218 47.3323 194.962 46.8203 194.706C44.5165 193.426 42.4685 193.682 41.4446 194.962H41.1886C40.9326 194.962 40.9327 194.706 40.9327 194.45C39.6527 191.891 37.8608 189.331 35.5569 188.051Z" fill="white" stroke="#262626" stroke-width="0.75" stroke-miterlimit="10" stroke-linecap="round" stroke-linejoin="round"/>
<path d="M25.3188 72.3444L62.4369 93.8473C63.4609 94.3593 64.2288 94.3593 64.7408 94.1033C65.2528 93.8473 65.7647 93.0793 65.7647 92.0553V50.5855C65.7647 48.5376 64.2289 45.7216 62.4369 44.6977L17.8952 18.843L16.3592 18.075L4.3278 11.1634C3.30385 10.6514 2.53591 10.6514 2.02393 10.9074C1.51196 11.1634 1 11.9313 1 12.9553V55.1932C1 56.9851 2.27995 59.033 3.81588 60.0569L10.2156 63.8967L25.3188 72.3444Z" fill="#ADADAD" stroke="#262626" stroke-width="0.75" stroke-miterlimit="10" stroke-linecap="round" stroke-linejoin="round"/>
<path d="M44.7734 59.0332C44.7734 61.0811 46.3093 63.641 48.1012 64.665C49.8932 65.6889 51.429 64.9209 51.429 62.873C51.429 60.8251 49.8932 58.2652 48.1012 57.2413C46.3093 55.9613 44.7734 56.9853 44.7734 59.0332Z" fill="white" stroke="#262626" stroke-width="0.75" stroke-miterlimit="10" stroke-linecap="round" stroke-linejoin="round"/>
<path d="M30.1836 50.5853C30.1836 52.6332 31.7195 55.193 33.5114 56.217C35.3033 57.2409 36.8393 56.473 36.8393 54.4251C36.8393 52.3772 35.3033 49.8173 33.5114 48.7934C31.7195 47.7694 30.1836 48.5374 30.1836 50.5853Z" fill="white" stroke="#262626" stroke-width="0.75" stroke-miterlimit="10" stroke-linecap="round" stroke-linejoin="round"/>
<path d="M15.8477 42.3939C15.8477 44.4418 17.3836 47.0017 19.1755 48.0256C20.9674 49.0496 22.5033 48.2816 22.5033 46.2337C22.5033 44.1858 20.9674 41.6259 19.1755 40.6019C17.3836 39.322 15.8477 40.09 15.8477 42.3939Z" fill="white" stroke="#262626" stroke-width="0.75" stroke-miterlimit="10" stroke-linecap="round" stroke-linejoin="round"/>
<path d="M2.02344 10.9074C2.53541 10.6514 3.55935 10.6513 4.32731 11.1633L16.3587 18.075L17.8947 18.8429L62.4364 44.6977C64.2284 45.7216 65.7643 48.2815 65.7643 50.5854V92.0553C65.7643 93.0793 65.5083 93.8473 64.7403 94.1033L72.4199 89.7514L80.0996 85.3996H80.3556C80.8675 85.1436 81.3795 84.3757 81.3795 83.3518V42.1378C81.3795 40.0899 79.8436 37.2741 78.0517 36.2501L19.9425 2.45976C18.9186 1.94779 18.1507 1.94781 17.6387 2.2038L17.3827 2.45976L2.02344 10.9074Z" fill="white" stroke="#262626" stroke-width="0.75" stroke-miterlimit="10" stroke-linecap="round" stroke-linejoin="round"/>
<path d="M72.9339 236.432C72.9339 242.576 77.2856 250.256 82.6614 253.327L181.984 310.669C184.8 312.205 187.36 312.461 189.152 311.181C189.408 311.181 189.408 310.925 189.664 310.925C189.92 310.925 189.92 310.669 190.176 310.669C190.176 310.669 190.432 310.413 190.432 310.157C190.688 309.901 190.944 309.645 190.944 309.133C190.944 308.877 191.2 308.877 191.2 308.621C191.2 308.365 191.456 308.109 191.456 307.853C191.456 307.597 191.456 307.597 191.456 307.341C191.456 307.085 191.456 306.829 191.456 306.573C191.456 306.317 191.456 306.317 191.456 306.061C191.456 305.805 191.456 305.549 191.456 305.037V300.429V274.062V248.464L191.712 191.123V190.611V174.739L191.968 118.422V116.886V99.7351V92.8235V87.4477C191.968 81.304 187.616 73.6244 182.24 70.5526L159.97 57.7532L141.538 47.2577L112.612 30.6185L109.54 28.8267L82.9174 13.4674C82.4054 13.2114 82.1494 12.9554 81.6374 12.9554C80.3575 12.4435 79.0776 12.1875 77.7976 12.1875C77.5416 12.1875 77.5416 12.1875 77.2856 12.1875C77.0296 12.1875 77.0297 12.1875 76.7737 12.1875C76.5177 12.1875 76.0057 12.4434 75.7497 12.6994C73.9578 13.7234 72.9339 15.7713 72.9339 19.0991V32.1545V49.8176L72.4219 205.458L72.9339 236.432Z" fill="white" stroke="#262626" stroke-width="0.75" stroke-miterlimit="10" stroke-linecap="round" stroke-linejoin="round"/>
<path d="M183.266 264.847C183.266 267.151 181.73 267.919 179.682 266.895L83.9432 211.601C81.8953 210.577 80.3594 207.762 80.3594 205.458L80.8713 58.009C80.8713 55.7052 82.4073 54.9372 84.4552 55.9611L180.194 111.254C182.242 112.278 183.778 115.094 183.778 117.398L183.266 264.847Z" fill="#7A18D5" stroke="#262626" stroke-width="0.75" stroke-miterlimit="10" stroke-linecap="round" stroke-linejoin="round"/>
<path d="M183.266 264.847C183.266 267.151 181.73 267.919 179.682 266.895L83.9432 211.601C81.8953 210.577 80.3594 207.762 80.3594 205.458L80.8713 58.009C80.8713 55.7052 82.4073 54.9372 84.4552 55.9611L180.194 111.254C182.242 112.278 183.778 115.094 183.778 117.398L183.266 264.847Z" stroke="#262626" stroke-width="0.75" stroke-miterlimit="10" stroke-linecap="round" stroke-linejoin="round"/>
<path d="M209.631 69.2725L190.688 79.768C188.896 75.9282 186.08 72.6003 182.752 70.5524L160.482 57.7531L142.05 47.2576L113.124 30.6184L110.052 28.8265L83.4293 13.4673C82.9174 13.2113 82.6614 12.9553 82.1494 12.9553C80.8695 12.4433 79.5895 12.1874 78.3096 12.1874C78.0536 12.1874 78.0536 12.1874 77.7977 12.1874C77.5417 12.1874 77.5416 12.1874 77.2857 12.1874C77.0297 12.1874 76.5177 12.4433 76.2617 12.6993L94.9488 1.69186C96.7407 0.667916 99.3006 0.667885 101.86 2.4598L201.183 59.8009C204.767 61.5928 207.839 65.1767 209.631 69.2725Z" fill="white" stroke="#262626" stroke-width="0.75" stroke-miterlimit="10" stroke-linecap="round" stroke-linejoin="round"/>
<path d="M211.166 76.6959V107.67L193.247 118.166L192.479 118.678V117.142V99.9908V93.0791V87.7034C192.479 85.1436 191.711 82.5837 190.688 80.0238L209.631 69.5283C210.654 71.5762 211.166 74.1361 211.166 76.6959Z" fill="#262626" stroke="#262626" stroke-width="0.75" stroke-miterlimit="10" stroke-linecap="round" stroke-linejoin="round"/>
<path d="M188.898 311.18L207.585 300.173C209.377 299.149 210.401 296.845 210.401 293.773V289.165V262.799L191.714 273.806V300.173V304.781C191.714 305.037 191.714 305.293 191.714 305.805C191.714 306.061 191.714 306.061 191.714 306.317C191.714 306.573 191.714 306.829 191.714 307.085C191.714 307.341 191.714 307.341 191.714 307.597C191.714 307.853 191.458 308.109 191.458 308.365C191.458 308.621 191.202 308.621 191.202 308.877C190.946 309.133 190.69 309.644 190.69 309.9C190.69 310.156 190.434 310.156 190.434 310.412C190.178 310.412 190.178 310.668 189.922 310.668C189.41 310.924 189.154 311.18 188.898 311.18C189.154 311.18 189.154 311.18 188.898 311.18Z" fill="#262626"/>
<path d="M188.898 311.18L207.585 300.173C209.377 299.149 210.401 296.845 210.401 293.773V289.165V262.799L191.714 273.806V300.173V304.781C191.714 305.037 191.714 305.293 191.714 305.805C191.714 306.061 191.714 306.061 191.714 306.317C191.714 306.573 191.714 306.829 191.714 307.085C191.714 307.341 191.714 307.341 191.714 307.597C191.714 307.853 191.458 308.109 191.458 308.365C191.458 308.621 191.202 308.621 191.202 308.877C190.946 309.133 190.69 309.644 190.69 309.9C190.69 310.156 190.434 310.156 190.434 310.412C190.178 310.412 190.178 310.668 189.922 310.668C189.41 310.924 189.154 311.18 188.898 311.18ZM188.898 311.18C189.154 311.18 189.154 311.18 188.898 311.18Z" stroke="#262626" stroke-width="0.75" stroke-miterlimit="10" stroke-linecap="round" stroke-linejoin="round"/>
<path d="M191.973 274.062L210.66 263.055L211.172 107.415L193.253 117.91L192.485 118.422L192.229 174.739V190.61V191.122L191.973 248.464V274.062Z" fill="#262626" stroke="#262626" stroke-width="0.75" stroke-miterlimit="10" stroke-linecap="round" stroke-linejoin="round"/>
<path d="M126.945 164.5C127.713 164.755 128.737 165.011 129.505 165.523C128.481 165.011 127.713 164.755 126.945 164.5Z" fill="white" stroke="#262626" stroke-width="0.75" stroke-miterlimit="10" stroke-linecap="round" stroke-linejoin="round"/>
<path d="M107.488 179.603C108.256 169.363 113.632 163.732 121.568 163.732C121.824 163.732 122.336 163.732 122.592 163.732H122.848C123.359 163.732 123.615 163.732 124.127 163.988C124.639 163.988 124.895 164.244 125.407 164.244C125.151 164.244 124.639 163.988 124.383 163.988C124.127 163.988 123.615 163.988 123.359 163.732C114.656 162.708 108.256 168.595 107.488 179.603Z" fill="white" stroke="#262626" stroke-width="0.75" stroke-miterlimit="10" stroke-linecap="round" stroke-linejoin="round"/>
<path d="M121.059 146.836C121.059 154.26 126.178 163.476 132.834 167.059C139.234 170.899 144.609 167.827 144.609 160.404C144.609 152.98 139.49 143.765 132.834 140.181C126.178 136.341 121.059 139.157 121.059 146.836Z" fill="white" stroke="#262626" stroke-width="0.75" stroke-miterlimit="10" stroke-linecap="round" stroke-linejoin="round"/>
<path d="M107.488 179.603C108.256 169.363 113.632 163.732 121.568 163.732C121.824 163.732 122.336 163.732 122.592 163.732H122.848C123.104 163.732 123.103 163.732 123.359 163.732C114.656 162.708 108.256 168.595 107.488 179.603ZM124.383 163.988C124.127 163.988 123.615 163.988 123.359 163.732C123.615 163.732 123.871 163.732 124.127 163.732C124.383 163.988 124.383 163.988 124.383 163.988Z" fill="white" stroke="#262626" stroke-width="0.75" stroke-miterlimit="10" stroke-linecap="round" stroke-linejoin="round"/>
<path d="M107.49 181.651C107.49 180.883 107.49 180.115 107.49 179.603C108.258 168.596 114.658 162.708 123.361 163.732C123.617 163.732 123.873 163.732 124.385 163.988C124.641 163.988 125.153 163.988 125.409 164.244C125.921 164.244 126.433 164.5 126.945 164.756C127.713 165.012 128.737 165.268 129.505 165.78C130.529 166.292 131.809 166.804 132.833 167.316C126.433 163.476 121.057 154.516 121.057 147.093C121.057 139.669 126.433 136.597 132.833 140.437C139.233 144.277 144.608 153.236 144.608 160.66C144.608 168.084 139.233 171.155 132.833 167.316C146.656 175.251 157.92 194.962 157.92 211.089C166.367 207.762 171.743 198.546 171.999 184.723C171.999 159.892 154.592 129.686 133.089 117.142C111.586 104.599 93.9228 114.838 93.9228 139.413C93.6668 153.236 99.0426 168.596 107.49 181.651Z" fill="#262626" stroke="#262626" stroke-width="0.75" stroke-miterlimit="10" stroke-linecap="round" stroke-linejoin="round"/>
<path d="M107.49 181.395C114.146 192.146 123.106 201.106 132.577 206.738C142.049 212.369 151.008 213.393 157.664 210.577C157.664 194.706 146.4 174.995 132.577 166.804C131.553 166.292 130.273 165.524 129.249 165.268C128.481 165.012 127.457 164.5 126.689 164.244C126.177 163.988 125.665 163.988 125.153 163.732C124.642 163.732 124.386 163.476 123.874 163.476C123.362 163.476 123.106 163.476 122.594 163.22H122.338C122.082 163.22 121.57 163.22 121.314 163.22C113.378 163.22 108.002 169.107 107.234 179.091C107.49 180.371 107.49 180.883 107.49 181.395Z" fill="white" stroke="#262626" stroke-width="0.75" stroke-miterlimit="10" stroke-linecap="round" stroke-linejoin="round"/>
<path d="M123.363 255.631L141.538 266.127" stroke="#262626" stroke-width="0.75" stroke-miterlimit="10" stroke-linecap="round" stroke-linejoin="round"/>
<path d="M123.875 57.7529L142.306 68.2484" stroke="#262626" stroke-width="0.75" stroke-miterlimit="10" stroke-linecap="round" stroke-linejoin="round"/>
<path d="M200.668 242.064C200.668 245.392 202.972 249.232 205.788 251.023L252.377 278.158C253.913 278.926 255.193 279.182 256.217 278.414L256.473 278.158C257.241 277.646 257.753 276.622 257.753 275.086V268.431L255.705 264.847L249.562 254.095C248.282 251.791 246.49 250 244.698 248.976C242.906 247.952 241.114 247.696 239.834 248.464C238.554 249.232 236.762 248.976 234.97 247.952C233.178 246.928 231.386 245.136 230.107 242.832L224.219 232.592C222.939 230.288 221.147 228.497 219.355 227.473C217.563 226.449 215.771 226.193 214.491 226.961L213.979 227.217L200.924 234.64L200.668 242.064Z" fill="#ADADAD" stroke="#262626" stroke-width="0.75" stroke-miterlimit="10" stroke-linecap="round" stroke-linejoin="round"/>
<path d="M200.668 234.896L213.723 227.473L214.235 227.217C215.515 226.449 217.307 226.705 219.099 227.729C220.891 228.753 222.683 230.545 223.963 232.848L229.851 243.088C231.13 245.392 232.922 247.184 234.714 248.208C236.506 249.232 238.298 249.488 239.578 248.72C240.858 247.952 242.65 248.208 244.442 249.232C246.234 250.256 248.026 252.047 249.306 254.351L255.449 265.103L257.497 268.687V266.127L257.753 230.289C257.753 226.961 255.449 223.121 252.633 221.329L206.044 194.194C204.764 193.426 203.484 193.426 202.46 193.682C201.436 194.194 200.924 195.474 200.668 197.01V234.896Z" fill="white" stroke="#262626" stroke-width="0.75" stroke-miterlimit="10" stroke-linecap="round" stroke-linejoin="round"/>
<path d="M240.348 237.2C238.044 235.92 235.996 232.336 235.996 229.777C235.996 226.961 238.044 225.937 240.348 227.217C242.652 228.497 244.7 232.08 244.7 234.64C244.7 237.456 242.652 238.736 240.348 237.2Z" fill="#FFAD28" stroke="#262626" stroke-width="0.75" stroke-miterlimit="10" stroke-linecap="round" stroke-linejoin="round"/>
<path d="M256.475 278.158L256.219 278.414" stroke="#262626" stroke-width="0.75" stroke-miterlimit="10" stroke-linecap="round" stroke-linejoin="round"/>
<path d="M202.715 193.682C203.739 193.17 204.763 193.426 206.299 194.194L252.888 221.329C255.704 222.865 258.008 226.96 258.008 230.288L257.752 266.127V268.686V275.342C257.752 276.878 257.24 277.902 256.472 278.414L269.016 271.246C269.272 271.246 269.272 271.246 269.528 270.99C270.295 270.478 270.807 269.454 270.807 267.918V261.263L271.063 222.865C271.063 219.537 268.76 215.697 265.944 213.905L219.354 186.77C218.074 186.003 216.794 185.747 215.77 186.259L202.715 193.682Z" fill="white" stroke="#262626" stroke-width="0.75" stroke-miterlimit="10" stroke-linecap="round" stroke-linejoin="round"/>
<path d="M245.98 170.9C246.236 170.9 246.236 170.644 245.98 170.9L246.236 170.644C246.236 170.644 246.236 170.644 245.98 170.9Z" fill="white" stroke="#262626" stroke-width="0.75" stroke-miterlimit="10" stroke-linecap="round" stroke-linejoin="round"/>
<path d="M200.668 141.205C200.668 143.765 202.46 147.092 204.764 148.372L243.162 170.643C244.442 171.411 245.466 171.411 246.234 170.899C246.234 170.899 246.234 170.899 246.49 170.899L246.746 170.643C247.002 170.387 247.258 170.131 247.258 169.875C247.258 169.619 247.514 169.619 247.514 169.363V169.107C247.514 168.851 247.514 168.595 247.514 168.339V124.31C247.514 121.75 245.722 118.422 243.418 117.142L205.02 94.871C204.764 94.615 204.252 94.615 203.996 94.359C203.484 94.103 202.972 94.103 202.716 94.359H202.46C201.692 94.871 201.18 95.6389 201.18 96.9189L200.668 141.205Z" fill="#FFAD28" stroke="#262626" stroke-width="0.75" stroke-miterlimit="10" stroke-linecap="round" stroke-linejoin="round"/>
<path d="M201.949 94.6151C202.205 94.6151 202.205 94.3591 201.949 94.6151C202.205 94.6151 202.205 94.6151 202.461 94.3591C202.973 94.3591 203.229 94.3591 203.741 94.3591C203.997 94.3591 204.253 94.6151 204.765 94.8711L243.163 117.142C245.467 118.422 247.259 121.75 247.259 124.31V168.34C247.259 168.596 247.259 168.851 247.259 169.107V169.363C247.259 169.619 247.259 169.619 247.003 169.875C247.003 170.131 246.747 170.387 246.491 170.643L246.235 170.899L258.01 163.988C258.778 163.476 259.29 162.708 259.29 161.428V117.398C259.29 114.838 257.498 111.51 255.195 110.23L216.796 87.9594C215.772 87.1915 214.493 87.1915 213.725 87.7035L201.949 94.6151Z" fill="white" stroke="#262626" stroke-width="0.75" stroke-miterlimit="10" stroke-linecap="round" stroke-linejoin="round"/>
</svg>
