<svg width="177" height="306" viewBox="0 0 177 306" fill="none" xmlns="http://www.w3.org/2000/svg">
<path d="M157.246 130.531L1.48902 40.549L1 207.553C1 211.221 3.68968 215.867 6.86839 217.579L113.966 279.441L157.001 304.137C160.18 306.093 162.87 304.626 162.87 300.714L163.114 221.735L163.359 140.067V133.465L157.246 130.531Z" fill="white" stroke="#262626" stroke-width="0.75" stroke-miterlimit="10" stroke-linecap="round" stroke-linejoin="round"/>
<path d="M163.358 105.346V109.991V127.597V133.954L157.245 130.531L1.48828 40.549V11.9406C1.48828 9.98443 2.22184 8.51724 3.44442 8.02821C3.68893 8.02821 3.93344 7.78375 3.93344 7.78375C4.17796 7.78375 4.42248 7.78375 4.667 7.78375C5.40055 7.78375 6.37861 8.02824 7.35667 8.51727L157.49 95.076C160.668 97.2767 163.358 101.678 163.358 105.346Z" fill="#7A18D5" stroke="#262626" stroke-width="0.75" stroke-miterlimit="10" stroke-linecap="round" stroke-linejoin="round"/>
<path d="M175.827 126.619L175.583 214.645L175.338 293.624C175.338 295.58 174.605 296.802 173.627 297.291L161.156 304.382C161.401 304.138 161.645 304.138 161.645 303.893L161.89 303.649C161.89 303.404 162.134 303.404 162.134 303.16C162.134 302.915 162.379 302.671 162.379 302.426C162.379 302.182 162.379 301.937 162.623 301.693C162.623 301.693 162.623 301.448 162.623 301.203C162.623 300.959 162.623 300.714 162.623 300.47L162.868 221.491L163.112 139.823V133.221L166.78 131.02L175.827 126.619Z" fill="white" stroke="#262626" stroke-width="0.75" stroke-miterlimit="10" stroke-linecap="round" stroke-linejoin="round"/>
<path d="M175.829 98.2549V126.863L167.027 131.998L163.359 134.199V127.841V110.236V105.59C163.359 101.923 160.669 97.2769 157.49 95.5653L7.35757 9.0065C6.3795 8.51747 5.64596 8.27298 4.66789 8.27298C4.42338 8.27298 4.17885 8.27298 3.93434 8.27298C3.68982 8.27298 3.44531 8.27292 3.44531 8.51744L15.6711 1.42656C16.6492 0.69301 18.1163 0.937407 19.8279 1.91547L169.961 88.4742C173.139 89.9413 175.829 94.3426 175.829 98.2549Z" fill="#3B2E56" stroke="#262626" stroke-width="0.75" stroke-miterlimit="10" stroke-linecap="round" stroke-linejoin="round"/>
<path d="M28.3838 38.5929C28.3838 41.2826 26.4277 42.2607 24.2271 41.0381C22.0264 39.8155 20.0703 36.3924 20.0703 33.9472C20.0703 31.2575 22.0264 30.2795 24.2271 31.502C26.4277 32.7246 28.3838 35.9032 28.3838 38.5929Z" fill="#262626" stroke="white" stroke-width="0.75" stroke-miterlimit="10" stroke-linecap="round" stroke-linejoin="round"/>
<path d="M42.5675 47.8846C42.5675 50.5743 40.6113 51.5524 38.4107 50.3298C36.21 49.1072 34.2539 45.6839 34.2539 43.2388C34.2539 40.5491 36.21 39.571 38.4107 40.7936C40.6113 42.0162 42.5675 45.195 42.5675 47.8846Z" fill="#262626" stroke="white" stroke-width="0.75" stroke-miterlimit="10" stroke-linecap="round" stroke-linejoin="round"/>
<path d="M57.7276 56.1986C57.7276 58.8882 55.7715 59.8663 53.5708 58.6437C51.3702 57.4211 49.4141 53.998 49.4141 51.5528C49.4141 48.8632 51.3702 47.8851 53.5708 49.1077C56.016 50.3303 57.7276 53.7534 57.7276 56.1986Z" fill="#262626" stroke="white" stroke-width="0.75" stroke-miterlimit="10" stroke-linecap="round" stroke-linejoin="round"/>
<path d="M136 153.185C136 150.558 134.19 147.324 131.978 146.111L32.0223 88.5091C29.8101 87.2965 28 88.307 28 90.9345V194.613C28 197.24 29.8101 200.474 32.0223 201.687L131.777 259.491C133.989 260.704 135.799 259.693 136 257.066V153.185Z" fill="white" stroke="#262626" stroke-width="0.75" stroke-miterlimit="10" stroke-linecap="round" stroke-linejoin="round"/>
<line x1="33.3153" y1="94.797" x2="136.315" y2="254.797" stroke="#262626" stroke-width="0.75"/>
<line x1="134.153" y1="149.343" x2="33.1526" y2="194.343" stroke="#262626" stroke-width="0.75"/>
<path d="M19.2107 102.331C13.6026 89.6057 15.6011 76.4113 23.6565 72.8832C31.7118 69.3348 42.8057 76.7987 48.4139 89.5241C54.022 102.25 52.0439 115.444 43.9681 118.992C35.9128 122.5 24.8189 115.056 19.2107 102.331Z" fill="#FFAD28" stroke="#262626" stroke-width="0.5" stroke-miterlimit="10"/>
<path d="M38.4212 93.9087V95.4382L33.6492 92.6648L33.6084 103.942L32.2829 103.167L32.3237 91.9102L27.5312 89.1367L27.5516 87.6276L38.4212 93.9087Z" fill="white" stroke="#262626" stroke-width="0.5" stroke-miterlimit="10"/>
<path d="M32.9365 106.512C27.777 103.534 23.5964 96.2949 23.6168 90.3605C23.6372 84.426 27.8382 82.04 32.9977 85.0174C38.1572 87.9948 42.3378 95.2344 42.3174 101.169C42.3174 107.083 38.096 109.489 32.9365 106.512ZM33.0181 83.3248C27.0429 79.8783 22.1689 82.6518 22.1485 89.5039C22.1281 96.3561 26.9613 104.738 32.9365 108.184C38.9118 111.631 43.7654 108.857 43.7857 102.005C43.8061 95.1529 38.9729 86.7712 33.0181 83.3248Z" fill="white" stroke="#262626" stroke-width="0.5" stroke-miterlimit="10"/>
<path d="M19.2107 202.331C13.6026 189.606 15.6011 176.411 23.6565 172.883C31.7118 169.335 42.8057 176.799 48.4139 189.524C54.022 202.25 52.0439 215.444 43.9681 218.992C35.9128 222.5 24.8189 215.056 19.2107 202.331Z" fill="#7A18D5" stroke="#262626" stroke-width="0.5" stroke-miterlimit="10"/>
<path d="M38.4212 193.909V195.438L33.6492 192.665L33.6084 203.942L32.2829 203.167L32.3237 191.91L27.5312 189.137L27.5516 187.628L38.4212 193.909Z" fill="white" stroke="#262626" stroke-width="0.5" stroke-miterlimit="10"/>
<path d="M32.9365 206.512C27.777 203.534 23.5964 196.295 23.6168 190.36C23.6372 184.426 27.8382 182.04 32.9977 185.017C38.1572 187.995 42.3378 195.234 42.3174 201.169C42.3174 207.083 38.096 209.489 32.9365 206.512ZM33.0181 183.325C27.0429 179.878 22.1689 182.652 22.1485 189.504C22.1281 196.356 26.9613 204.738 32.9365 208.184C38.9118 211.631 43.7654 208.857 43.7857 202.005C43.8061 195.153 38.9729 186.771 33.0181 183.325Z" fill="white" stroke="#262626" stroke-width="0.5" stroke-miterlimit="10"/>
<path d="M119.183 258.331C113.575 245.606 115.574 232.411 123.629 228.883C131.684 225.335 142.778 232.799 148.387 245.524C153.995 258.25 152.017 271.444 143.941 274.992C135.885 278.5 124.792 271.056 119.183 258.331Z" fill="#E84142" stroke="#262626" stroke-width="0.5" stroke-miterlimit="10"/>
<path d="M138.394 249.909V251.438L133.622 248.665L133.581 259.942L132.256 259.167L132.296 247.91L127.504 245.137L127.524 243.628L138.394 249.909Z" fill="white" stroke="#262626" stroke-width="0.5" stroke-miterlimit="10"/>
<path d="M132.909 262.512C127.75 259.534 123.569 252.295 123.589 246.36C123.61 240.426 127.811 238.04 132.97 241.017C138.13 243.995 142.31 251.234 142.29 257.169C142.29 263.083 138.069 265.489 132.909 262.512ZM132.991 239.325C127.016 235.878 122.142 238.652 122.121 245.504C122.101 252.356 126.934 260.738 132.909 264.184C138.884 267.631 143.738 264.857 143.758 258.005C143.779 251.153 138.946 242.771 132.991 239.325Z" fill="white" stroke="#262626" stroke-width="0.5" stroke-miterlimit="10"/>
<path d="M119.183 161.331C113.575 148.606 115.574 135.411 123.629 131.883C131.684 128.335 142.778 135.799 148.387 148.524C153.995 161.25 152.017 174.444 143.941 177.992C135.885 181.5 124.792 174.056 119.183 161.331Z" fill="#E06AE9" stroke="#262626" stroke-width="0.5" stroke-miterlimit="10"/>
<path d="M138.394 152.909V154.438L133.622 151.665L133.581 162.942L132.256 162.167L132.296 150.91L127.504 148.137L127.524 146.628L138.394 152.909Z" fill="white" stroke="#262626" stroke-width="0.5" stroke-miterlimit="10"/>
<path d="M132.909 165.512C127.75 162.534 123.569 155.295 123.589 149.36C123.61 143.426 127.811 141.04 132.97 144.017C138.13 146.995 142.31 154.234 142.29 160.169C142.29 166.083 138.069 168.489 132.909 165.512ZM132.991 142.325C127.016 138.878 122.142 141.652 122.121 148.504C122.101 155.356 126.934 163.738 132.909 167.184C138.884 170.631 143.738 167.857 143.758 161.005C143.779 154.153 138.946 145.771 132.991 142.325Z" fill="white" stroke="#262626" stroke-width="0.5" stroke-miterlimit="10"/>
</svg>
