<svg width="273" height="313" viewBox="0 0 273 313" fill="none" xmlns="http://www.w3.org/2000/svg">
<path d="M130.542 309.005L10.7344 239.866L10.2352 239.616C4.74401 236.372 1 230.381 1 223.393L29.2047 239.616L122.305 293.53C122.305 300.019 125.799 305.76 130.542 309.005Z" fill="white" stroke="#262626" stroke-width="0.75" stroke-miterlimit="10" stroke-linecap="round" stroke-linejoin="round"/>
<path d="M205.672 192.192L206.421 192.692" stroke="#262626" stroke-width="0.75" stroke-miterlimit="10" stroke-linecap="round" stroke-linejoin="round"/>
<path d="M205.673 192.442L159.996 165.985V133.038C159.996 132.539 159.996 131.79 159.996 131.291C160.495 126.798 162.492 122.804 165.487 119.809C168.982 116.315 173.474 114.318 178.716 114.318C181.961 114.318 184.956 115.067 187.452 116.564H187.702C187.702 116.564 187.951 116.564 187.951 116.814C193.692 120.059 197.436 126.049 197.436 133.038V176.718C197.436 183.207 200.681 188.948 205.673 192.442Z" fill="#262626" stroke="#262626" stroke-width="0.75" stroke-miterlimit="10"/>
<path d="M187.449 116.315C184.953 114.817 181.958 114.068 178.713 114.068C173.472 114.068 168.729 116.065 165.484 119.56C162.489 122.555 160.492 126.548 159.993 131.041C159.993 131.54 159.993 132.289 159.993 132.788V293.28C159.993 303.514 151.507 312 141.273 312C137.529 312 134.285 311.002 131.539 309.255L130.79 308.755C125.798 305.261 122.553 299.77 122.553 293.28L29.4531 239.367C35.1939 236.122 38.9379 230.132 38.9379 223.143V62.9006C38.9379 52.4174 47.4242 44.1807 57.6578 44.1807C61.1522 44.1807 64.3969 45.179 67.1425 46.9262L113.818 73.883L187.449 116.315Z" fill="white" stroke="#262626" stroke-width="0.75" stroke-miterlimit="10" stroke-linecap="round" stroke-linejoin="round"/>
<path d="M132.04 1C121.557 1 113.32 9.48636 113.32 19.7199L113.57 73.6332L187.451 116.315H187.701C187.701 116.315 187.95 116.315 187.95 116.564C193.691 119.809 197.435 125.799 197.435 132.788V176.468C197.435 182.957 200.68 188.698 205.672 191.943L206.421 192.442C209.166 194.189 212.661 195.188 216.155 195.188C226.389 195.188 234.875 186.701 234.875 176.468L234.625 100.34V89.6076C234.625 82.6188 238.369 76.6284 244.11 73.3837C246.856 71.8861 250.1 70.8877 253.345 70.8877C256.59 70.8877 259.585 71.6364 262.081 73.134L141.525 3.49599C138.779 1.9984 135.535 1 132.04 1Z" fill="white" stroke="#262626" stroke-width="0.75" stroke-miterlimit="10" stroke-linecap="round" stroke-linejoin="round"/>
<path d="M135.035 13.48L182.709 41.1854" stroke="#262626" stroke-width="0.75" stroke-miterlimit="10" stroke-linecap="round" stroke-linejoin="round"/>
<path d="M125.801 16.9741L226.389 75.1308" stroke="#262626" stroke-width="0.75" stroke-miterlimit="10" stroke-linecap="round" stroke-linejoin="round"/>
<path d="M125.301 25.71L223.643 82.3689" stroke="#262626" stroke-width="0.75" stroke-miterlimit="10" stroke-linecap="round" stroke-linejoin="round"/>
<path d="M125.301 34.4463L222.894 90.8557" stroke="#262626" stroke-width="0.75" stroke-miterlimit="10" stroke-linecap="round" stroke-linejoin="round"/>
<path d="M125.301 43.1821L173.973 71.3869" stroke="#262626" stroke-width="0.75" stroke-miterlimit="10" stroke-linecap="round" stroke-linejoin="round"/>
<path d="M125.551 52.168L222.894 108.328" stroke="#262626" stroke-width="0.75" stroke-miterlimit="10" stroke-linecap="round" stroke-linejoin="round"/>
<path d="M125.551 60.9038L222.894 117.313" stroke="#262626" stroke-width="0.75" stroke-miterlimit="10" stroke-linecap="round" stroke-linejoin="round"/>
<path d="M125.301 69.6396L222.894 126.049" stroke="#262626" stroke-width="0.75" stroke-miterlimit="10" stroke-linecap="round" stroke-linejoin="round"/>
<path d="M125.301 69.6396L222.894 126.049" stroke="#262626" stroke-width="0.75" stroke-miterlimit="10" stroke-linecap="round" stroke-linejoin="round"/>
<path d="M196.934 128.545L222.892 143.521" stroke="#262626" stroke-width="0.75" stroke-miterlimit="10" stroke-linecap="round" stroke-linejoin="round"/>
<path d="M197.684 138.03L222.893 152.507" stroke="#262626" stroke-width="0.75" stroke-miterlimit="10" stroke-linecap="round" stroke-linejoin="round"/>
<path d="M197.434 146.516L222.893 161.243" stroke="#262626" stroke-width="0.75" stroke-miterlimit="10" stroke-linecap="round" stroke-linejoin="round"/>
<path d="M272.315 89.8571V122.305L234.875 100.59V89.8571C234.875 82.8683 238.619 76.878 244.36 73.6332C247.105 72.1356 250.35 71.1372 253.595 71.1372C256.84 71.1372 259.835 71.8861 262.331 73.3837H262.58C262.58 73.3837 262.83 73.3836 262.83 73.6332C268.321 76.6284 272.315 82.8683 272.315 89.8571Z" fill="#262626" stroke="#262626" stroke-width="0.75" stroke-miterlimit="10"/>
<path d="M73.1342 220.897L61.403 214.157C60.4047 213.409 59.4062 211.911 59.4062 210.414V197.434C59.4062 195.937 60.4047 195.188 61.403 195.937L73.1342 202.676C74.1326 203.425 75.131 204.922 75.131 206.42V219.399C75.131 220.897 74.1326 221.645 73.1342 220.897Z" fill="#E84142" stroke="#262626" stroke-width="0.75" stroke-miterlimit="10" stroke-linecap="round" stroke-linejoin="round"/>
<path d="M62.6484 205.671L65.8932 211.163L71.634 207.668" stroke="#262626" stroke-width="0.75" stroke-miterlimit="10" stroke-linecap="round" stroke-linejoin="round"/>
<path d="M83.3672 210.414L111.073 226.388" stroke="#262626" stroke-width="0.75" stroke-miterlimit="10" stroke-linecap="round" stroke-linejoin="round"/>
<path d="M83.3672 217.901L141.025 251.098" stroke="#262626" stroke-width="0.75" stroke-miterlimit="10" stroke-linecap="round" stroke-linejoin="round"/>
<path d="M83.3672 225.14L141.025 258.586" stroke="#262626" stroke-width="0.75" stroke-miterlimit="10" stroke-linecap="round" stroke-linejoin="round"/>
<path d="M73.1342 188.199L61.403 181.46C60.4047 180.711 59.4062 179.214 59.4062 177.716V164.737C59.4062 163.24 60.4047 162.491 61.403 163.24L73.1342 169.979C74.1326 170.728 75.131 172.225 75.131 173.723V186.702C75.131 188.199 74.1326 188.948 73.1342 188.199Z" fill="#E06AE9" stroke="#262626" stroke-width="0.75" stroke-miterlimit="10" stroke-linecap="round" stroke-linejoin="round"/>
<path d="M62.6484 172.724L65.8932 178.215L71.634 174.971" stroke="#262626" stroke-width="0.75" stroke-miterlimit="10" stroke-linecap="round" stroke-linejoin="round"/>
<path d="M83.3672 177.716L111.073 193.691" stroke="#262626" stroke-width="0.75" stroke-miterlimit="10" stroke-linecap="round" stroke-linejoin="round"/>
<path d="M83.3672 184.955L141.025 218.401" stroke="#262626" stroke-width="0.75" stroke-miterlimit="10" stroke-linecap="round" stroke-linejoin="round"/>
<path d="M83.3672 192.443L141.025 225.639" stroke="#262626" stroke-width="0.75" stroke-miterlimit="10" stroke-linecap="round" stroke-linejoin="round"/>
<path d="M73.1342 155.502L61.403 148.763C60.4047 148.014 59.4062 146.516 59.4062 145.019V132.039C59.4062 130.542 60.4047 129.793 61.403 130.542L73.1342 137.281C74.1326 138.03 75.131 139.527 75.131 141.025V154.004C75.131 155.252 74.1326 156.001 73.1342 155.502Z" fill="#FFAD28" stroke="#262626" stroke-width="0.75" stroke-miterlimit="10" stroke-linecap="round" stroke-linejoin="round"/>
<path d="M62.6484 140.027L65.8932 145.518L71.634 142.273" stroke="#262626" stroke-width="0.75" stroke-miterlimit="10" stroke-linecap="round" stroke-linejoin="round"/>
<path d="M83.3672 144.769L111.073 160.993" stroke="#262626" stroke-width="0.75" stroke-miterlimit="10" stroke-linecap="round" stroke-linejoin="round"/>
<path d="M83.3672 152.257L141.025 185.453" stroke="#262626" stroke-width="0.75" stroke-miterlimit="10" stroke-linecap="round" stroke-linejoin="round"/>
<path d="M83.3672 159.496L141.025 192.942" stroke="#262626" stroke-width="0.75" stroke-miterlimit="10" stroke-linecap="round" stroke-linejoin="round"/>
<path d="M73.1342 122.555L61.403 115.816C60.4047 115.067 59.4062 113.569 59.4062 112.072V99.0926C59.4062 97.595 60.4047 96.8462 61.403 97.595L73.1342 104.334C74.1326 105.083 75.131 106.58 75.131 108.078V121.057C75.131 122.555 74.1326 123.304 73.1342 122.555Z" fill="#D0D2D3" stroke="#262626" stroke-width="0.75" stroke-miterlimit="10" stroke-linecap="round" stroke-linejoin="round"/>
<path d="M62.6484 107.329L65.8932 112.82L71.634 109.326" stroke="#262626" stroke-width="0.75" stroke-miterlimit="10" stroke-linecap="round" stroke-linejoin="round"/>
<path d="M83.3672 112.072L111.073 128.046" stroke="#262626" stroke-width="0.75" stroke-miterlimit="10" stroke-linecap="round" stroke-linejoin="round"/>
<path d="M83.3672 119.56L141.025 152.756" stroke="#262626" stroke-width="0.75" stroke-miterlimit="10" stroke-linecap="round" stroke-linejoin="round"/>
<path d="M83.3672 126.798L141.025 160.244" stroke="#262626" stroke-width="0.75" stroke-miterlimit="10" stroke-linecap="round" stroke-linejoin="round"/>
</svg>
