<svg width="197" height="258" viewBox="0 0 197 258" fill="none" xmlns="http://www.w3.org/2000/svg">
<path d="M25.3533 161.134C-4.28353 93.8856 6.0624 24.2661 48.5239 5.62186C90.9853 -13.0224 149.397 26.4215 179.034 93.6701C208.67 160.919 198.324 230.538 155.863 249.182C113.401 267.827 54.9901 228.383 25.3533 161.134Z" fill="#B92425" stroke="#262626" stroke-width="0.5" stroke-miterlimit="10"/>
<path d="M17.1589 164.368C-12.4779 97.1192 -1.91643 27.3919 40.6528 8.74768C83.222 -10.0043 141.849 29.4396 171.486 96.6881C201.123 163.937 190.669 233.664 147.992 252.416C105.423 270.953 46.7957 231.616 17.1589 164.368Z" fill="#E84142" stroke="#262626" stroke-width="0.5" stroke-miterlimit="10"/>
<path d="M118.674 119.858V127.941L93.4561 113.284L93.2405 172.881L86.2355 168.786L86.451 109.297L61.125 94.64L61.2328 86.665L118.674 119.858Z" fill="white" stroke="#262626" stroke-width="0.5" stroke-miterlimit="10"/>
<path d="M89.9021 187.538C61.7741 171.48 39.0346 130.312 39.0346 98.4122C39.1423 66.5122 63.7139 54.4419 91.8419 70.3919C119.97 86.3419 142.817 125.355 142.817 157.255C142.817 189.155 119.108 204.781 90.872 188.724L89.9021 187.538ZM91.9497 61.3392C59.2953 42.8028 32.7839 57.675 32.6761 94.6402C32.5683 131.498 58.972 176.653 91.6264 195.19C124.173 213.726 150.792 198.854 150.9 161.889C151.008 125.031 124.604 79.8757 91.9497 61.3392Z" fill="#D0D2D3" stroke="#262626" stroke-width="0.5" stroke-miterlimit="10"/>
<path d="M89.6866 186.461C62.4207 170.727 40.3278 132.468 40.4356 101.107C40.5433 69.7459 62.744 57.1367 90.0099 72.8712C117.276 88.6056 139.369 126.864 139.261 158.225C139.261 189.479 116.952 202.195 89.6866 186.461ZM90.1176 63.9263C58.541 45.7131 32.7839 60.3698 32.6761 96.5806C32.5684 132.791 58.1099 177.085 89.6866 195.298C121.263 213.511 146.913 198.855 147.02 162.644C147.128 126.433 121.587 82.1394 90.1176 63.9263Z" fill="white" stroke="#262626" stroke-width="0.5" stroke-miterlimit="10"/>
</svg>
