<svg width="100" height="100" viewBox="0 0 100 100" fill="none" xmlns="http://www.w3.org/2000/svg">
<path d="M74.6651 49.2271C78.1649 44.7998 80.0647 39.3191 80.0557 33.6756C80.0557 19.793 68.8078 9 54.9311 9H24.4219V12.1398H54.2547C66.5186 12.1398 76.461 21.6361 76.461 33.9001C76.4684 38.6678 74.9351 43.3104 72.0894 47.1358L74.6651 49.2271Z" fill="white"/>
<path d="M71.2571 46.6276C74.5959 43.2333 76.4645 38.6612 76.4587 33.9C76.4587 29.0811 74.5446 24.4596 71.1374 21.0519C67.7303 17.6441 63.109 15.7293 58.2902 15.7285H32.4922V18.8713H58.9607C60.9055 18.8701 62.8316 19.2522 64.6287 19.9957C66.4259 20.7391 68.0589 21.8294 69.4345 23.2042C70.8102 24.579 71.9014 26.2114 72.646 28.0081C73.3905 29.8048 73.7737 31.7306 73.7737 33.6755C73.7762 35.8349 73.3052 37.9686 72.3937 39.9263C71.4822 41.884 70.1525 43.6179 68.4983 45.006L71.2571 46.6276Z" fill="white"/>
<path d="M66.2895 44.2583C70.534 42.4034 73.7831 38.3627 73.7831 33.6751C73.7831 27.233 67.663 22.0107 61.2209 22.0107H38.7812V23.8037H60.9905C66.3072 23.8037 71.5324 28.125 71.5324 33.4506C71.5324 37.766 68.1119 41.4257 63.9796 42.6515L66.2895 44.2583Z" fill="white"/>
<path d="M15.4453 88.8604H20.381V92.0002H15.4453V88.8604Z" fill="white"/>
<path d="M20.3828 82.5776H40.1227V84.8195H20.3828V82.5776Z" fill="white"/>
<path d="M20.3828 68.6719H41.4696V70.4677H20.3828V68.6719Z" fill="white"/>
<path d="M45.5078 68.6719H58.968V70.4677H45.5078V68.6719Z" fill="white"/>
<path d="M24.4219 62.3893H31.5995V64.1852H24.4219V62.3893Z" fill="white"/>
<path d="M35.6406 62.3892H58.9693V64.185H35.6406V62.3892Z" fill="white"/>
<path d="M43.2655 34.1246H58.5186V35.9205H43.2655V34.1246Z" fill="white"/>
<path d="M25.3203 22.0107H33.8448V23.8066H25.3203V22.0107Z" fill="white"/>
<path d="M27.5625 28.7402H58.9667V30.5361H27.5625V28.7402Z" fill="white"/>
<path d="M19.4844 34.1245H38.7753V35.9204H19.4844V34.1245Z" fill="white"/>
<path d="M24.8672 88.4113V91.5511H58.9623C72.8449 91.5511 84.0868 80.7522 84.0868 66.8755C84.0868 60.2121 81.4398 53.8216 76.728 49.1098C72.0162 44.398 65.6257 41.751 58.9623 41.751H36.9805V44.4448H58.2918C64.1815 44.4456 69.8297 46.7858 73.9941 50.9508C78.1585 55.1157 80.498 60.7643 80.498 66.654C80.498 78.9209 70.5557 88.4142 58.2918 88.4142L24.8672 88.4113Z" fill="white"/>
<path d="M30.25 48.4795V51.6223H63.0011C64.9455 51.6219 66.8709 52.0045 68.6673 52.7483C70.4638 53.4921 72.0962 54.5825 73.4712 55.9573C74.8462 57.332 75.9369 58.9641 76.6811 60.7605C77.4252 62.5568 77.8082 64.4821 77.8082 66.4264C77.8082 70.3535 76.2482 74.1198 73.4713 76.8967C70.6945 79.6735 66.9282 81.2336 63.0011 81.2336H43.7102V84.8224H62.3188C64.705 84.8224 67.0678 84.3523 69.2723 83.4391C71.4768 82.5259 73.4798 81.1873 75.1669 79.4999C76.854 77.8125 78.1923 75.8093 79.1051 73.6046C80.018 71.4 80.4877 69.0371 80.4873 66.6509C80.4873 61.8321 78.5732 57.2105 75.166 53.8028C71.7589 50.3951 67.1377 48.4803 62.3188 48.4795H30.25Z" fill="white"/>
<path d="M39.6756 55.2111V57.004H65.0246C70.3414 57.004 75.5665 61.3253 75.5665 66.6509C75.5665 71.9677 70.3532 76.2979 65.0246 76.2979H15V78.5397H65.2491C71.6912 78.5397 77.8114 73.3175 77.8114 66.8754C77.8114 60.4333 71.6912 55.2111 65.2491 55.2111H39.6756Z" fill="white"/>
</svg>
