<svg width="100" height="100" viewBox="0 0 100 100" fill="none" xmlns="http://www.w3.org/2000/svg">
<path d="M88.1176 19C86.9976 31.3506 74.8899 29.8004 74.8899 29.8004V19H62.7518V29.8004H36.5486V19H24.6628V29.7664C12.7232 30.5007 11.9396 19.2278 11.9396 19.2278H0V19.7241C0.000477296 25.4381 2.20621 30.9264 6.14811 35.022C10.09 39.1175 15.4571 41.4971 21.1079 41.6547L24.5518 41.7499V57.1329C24.5518 63.3767 27.0057 69.3647 31.3735 73.7796C35.7413 78.1946 41.6654 80.6749 47.8425 80.6749H51.6261C57.7975 80.6561 63.7107 78.1698 68.0745 73.7588C72.4383 69.3479 74.8981 63.3709 74.9168 57.1329V41.6649H78.5054C81.3284 41.6649 84.1237 41.1028 86.7318 40.0107C89.3399 38.9187 91.7096 37.318 93.7056 35.3001C95.7016 33.2823 97.2848 30.8867 98.3648 28.2503C99.4448 25.614 100 22.7883 100 19.9349V19L88.1176 19ZM62.809 55.8139C62.809 59.3188 61.4318 62.6802 58.9802 65.1589C56.5286 67.6376 53.2035 69.0305 49.736 69.0314C46.2679 69.0314 42.9419 67.6389 40.4896 65.1601C38.0373 62.6813 36.6596 59.3194 36.6596 55.8139V41.4099H62.809V55.8139Z" fill="white"/>
</svg>
