<svg width="100" height="100" viewBox="0 0 100 100" fill="none" xmlns="http://www.w3.org/2000/svg">
<path d="M75.6651 48.2271C79.1649 43.7998 81.0647 38.3191 81.0557 32.6756C81.0557 18.793 69.8078 8 55.9311 8H25.4219V11.1398H55.2547C67.5186 11.1398 77.461 20.6361 77.461 32.9001C77.4684 37.6678 75.9351 42.3104 73.0894 46.1358L75.6651 48.2271Z" fill="#4BBC24"/>
<path d="M72.2571 45.6276C75.5959 42.2333 77.4645 37.6612 77.4587 32.9C77.4587 28.0811 75.5446 23.4596 72.1374 20.0519C68.7303 16.6441 64.109 14.7293 59.2902 14.7285H33.4922V17.8713H59.9607C61.9055 17.8701 63.8316 18.2522 65.6287 18.9957C67.4259 19.7391 69.0589 20.8294 70.4345 22.2042C71.8102 23.579 72.9014 25.2114 73.646 27.0081C74.3905 28.8048 74.7737 30.7306 74.7737 32.6755C74.7762 34.8349 74.3052 36.9686 73.3937 38.9263C72.4822 40.884 71.1525 42.6179 69.4983 44.006L72.2571 45.6276Z" fill="#4BBC24"/>
<path d="M67.2895 43.2583C71.534 41.4034 74.7831 37.3627 74.7831 32.6751C74.7831 26.233 68.663 21.0107 62.2209 21.0107H39.7812V22.8037H61.9905C67.3072 22.8037 72.5324 27.125 72.5324 32.4506C72.5324 36.766 69.1119 40.4257 64.9796 41.6515L67.2895 43.2583Z" fill="#4BBC24"/>
<path d="M16.4453 87.8604H21.381V91.0002H16.4453V87.8604Z" fill="#4BBC24"/>
<path d="M21.3828 81.5776H41.1227V83.8195H21.3828V81.5776Z" fill="#4BBC24"/>
<path d="M21.3828 67.6719H42.4696V69.4677H21.3828V67.6719Z" fill="#4BBC24"/>
<path d="M46.5078 67.6719H59.968V69.4677H46.5078V67.6719Z" fill="#4BBC24"/>
<path d="M25.4219 61.3893H32.5995V63.1852H25.4219V61.3893Z" fill="#4BBC24"/>
<path d="M36.6406 61.3892H59.9693V63.185H36.6406V61.3892Z" fill="#4BBC24"/>
<path d="M44.2654 33.1246H59.5185V34.9205H44.2654V33.1246Z" fill="#4BBC24"/>
<path d="M26.3203 21.0107H34.8448V22.8066H26.3203V21.0107Z" fill="#4BBC24"/>
<path d="M28.5625 27.7402H59.9667V29.5361H28.5625V27.7402Z" fill="#4BBC24"/>
<path d="M20.4844 33.1245H39.7753V34.9204H20.4844V33.1245Z" fill="#4BBC24"/>
<path d="M25.8672 87.4113V90.5511H59.9623C73.8449 90.5511 85.0868 79.7522 85.0868 65.8755C85.0868 59.2121 82.4398 52.8216 77.728 48.1098C73.0162 43.398 66.6257 40.751 59.9623 40.751H37.9805V43.4448H59.2918C65.1815 43.4456 70.8297 45.7858 74.9941 49.9508C79.1585 54.1157 81.498 59.7643 81.498 65.654C81.498 77.9209 71.5557 87.4142 59.2918 87.4142L25.8672 87.4113Z" fill="#4BBC24"/>
<path d="M31.25 47.4795V50.6223H64.0011C65.9455 50.6219 67.8709 51.0045 69.6673 51.7483C71.4638 52.4921 73.0962 53.5825 74.4712 54.9573C75.8462 56.332 76.9369 57.9641 77.6811 59.7605C78.4252 61.5568 78.8082 63.4821 78.8082 65.4264C78.8082 69.3535 77.2482 73.1198 74.4713 75.8967C71.6945 78.6735 67.9282 80.2336 64.0011 80.2336H44.7102V83.8224H63.3188C65.705 83.8224 68.0678 83.3523 70.2723 82.4391C72.4768 81.5259 74.4798 80.1873 76.1669 78.4999C77.854 76.8125 79.1923 74.8093 80.1051 72.6046C81.018 70.4 81.4877 68.0371 81.4873 65.6509C81.4873 60.8321 79.5732 56.2105 76.166 52.8028C72.7589 49.3951 68.1377 47.4803 63.3188 47.4795H31.25Z" fill="#4BBC24"/>
<path d="M40.6756 54.2111V56.004H66.0246C71.3414 56.004 76.5665 60.3253 76.5665 65.6509C76.5665 70.9677 71.3532 75.2979 66.0246 75.2979H16V77.5397H66.2491C72.6912 77.5397 78.8114 72.3175 78.8114 65.8754C78.8114 59.4333 72.6912 54.2111 66.2491 54.2111H40.6756Z" fill="#4BBC24"/>
</svg>
