<svg width="100" height="100" viewBox="0 0 100 100" fill="none" xmlns="http://www.w3.org/2000/svg">
<path d="M33.6812 9.00701C32.4279 8.81367 32.3746 8.79367 32.9679 8.70701C34.1012 8.53367 36.7679 8.76701 38.6079 9.20034C42.9012 10.2137 46.8079 12.8137 50.9812 17.4337L52.0879 18.6603L53.6746 18.407C60.3546 17.3403 67.1412 18.187 72.8279 20.7937C74.3946 21.5137 76.8612 22.9403 77.1612 23.307C77.2679 23.427 77.4479 24.1737 77.5612 24.9803C77.9879 27.767 77.7812 29.8937 76.9212 31.487C76.4546 32.3537 76.4279 32.627 76.7412 33.3737C76.8911 33.6812 77.1242 33.9405 77.4141 34.122C77.7041 34.3035 78.0392 34.3999 78.3812 34.4003C79.7946 34.4003 81.3146 32.1337 82.0146 28.9737L82.2946 27.7137L82.8479 28.3403C85.8946 31.767 88.2812 36.4337 88.6879 39.7537L88.7946 40.6203L88.2879 39.8337C87.5514 38.6288 86.5619 37.5984 85.3879 36.8137C83.3479 35.4737 81.1879 35.0137 75.4812 34.7137C70.3212 34.447 67.4012 34.007 64.5079 33.067C59.5812 31.467 57.1012 29.347 51.2479 21.7203C48.6479 18.327 47.0479 16.4537 45.4479 14.947C41.8146 11.5137 38.2479 9.71367 33.6812 9.01367V9.00701Z" fill="white"/>
<path d="M78.3299 16.5741C78.4565 14.3074 78.7632 12.8074 79.3899 11.4408C79.5272 11.0954 79.6992 10.7648 79.9032 10.4541C79.9365 10.4541 79.8299 10.8541 79.6632 11.3408C79.2099 12.6741 79.1299 14.4874 79.4499 16.6008C79.8499 19.2808 80.0699 19.6674 82.9165 22.5608C84.2565 23.9208 85.8099 25.6274 86.3765 26.3674L87.4032 27.7008L86.3765 26.7474C85.1232 25.5808 82.2432 23.3008 81.6032 22.9741C81.1765 22.7608 81.1099 22.7608 80.8499 23.0208C80.6032 23.2608 80.5565 23.6208 80.5165 25.3274C80.4699 27.9874 80.1032 29.6941 79.2232 31.3941C78.7499 32.3274 78.6765 32.1274 79.1032 31.0808C79.4232 30.3074 79.4565 29.9608 79.4565 27.3874C79.4565 22.2208 78.8299 20.9741 75.2099 18.8541C74.118 18.2234 72.9967 17.645 71.8499 17.1208C71.2848 16.8936 70.7367 16.6263 70.2099 16.3208C70.3099 16.2208 73.8432 17.2474 75.2632 17.7874C77.3832 18.6008 77.7299 18.7008 77.9899 18.6074C78.1565 18.5408 78.2432 18.0408 78.3232 16.5741H78.3299ZM36.1099 25.4208C33.5699 21.9408 31.9899 16.6008 32.3366 12.6074L32.4366 11.3741L33.0166 11.4741C34.1099 11.6741 35.9832 12.3674 36.8632 12.9008C39.2699 14.3541 40.3166 16.2674 41.3766 21.1874C41.6899 22.6274 42.0966 24.2541 42.2832 24.8141C42.5832 25.7008 43.7299 27.7741 44.6566 29.1208C45.3232 30.0941 44.8832 30.5541 43.4032 30.4208C41.1432 30.2208 38.0832 28.1208 36.1099 25.4208ZM75.2365 51.3341C63.3432 46.5808 59.1566 42.4474 59.1566 35.4808C59.1566 34.4541 59.1899 33.6141 59.2366 33.6141C59.2766 33.6141 59.7366 33.9474 60.2566 34.3674C62.6699 36.2874 65.3699 37.1074 72.8499 38.1941C77.2499 38.8341 79.7165 39.3474 82.0032 40.1008C89.2699 42.4941 93.7565 47.3475 94.8299 53.9675C95.1365 55.8875 94.9632 59.4875 94.4499 61.3875C94.0499 62.8875 92.8365 65.5875 92.5165 65.6941C92.4232 65.7275 92.3365 65.3875 92.3165 64.9208C92.1965 62.4408 90.9299 60.0208 88.8099 58.2075C86.3965 56.1475 83.1565 54.5075 75.2365 51.3408V51.3341ZM66.8899 53.3141C66.7502 52.4698 66.5587 51.6349 66.3166 50.8141L66.0099 49.9141L66.5765 50.5475C67.3565 51.4141 67.9765 52.5275 68.4965 54.0141C68.8965 55.1475 68.9365 55.4808 68.9365 57.3208C68.9365 59.1275 68.8832 59.5075 68.5099 60.5208C67.9976 62.0235 67.1389 63.3846 66.0032 64.4941C63.8299 66.6941 61.0366 67.9075 57.0032 68.4141C56.3032 68.5008 54.2632 68.6475 52.4699 68.7408C47.9432 68.9741 44.9632 69.4608 42.2899 70.3941C42.0475 70.5006 41.7877 70.5616 41.5232 70.5741C41.4166 70.4675 43.2432 69.3875 44.7432 68.6675C46.8632 67.6475 48.9766 67.0941 53.7099 66.3141C56.0432 65.9275 58.4632 65.4541 59.0766 65.2675C64.8632 63.5075 67.8432 58.9541 66.8899 53.3141Z" fill="white"/>
<path d="M72.3449 62.9405C70.7649 59.5672 70.3982 56.3072 71.2649 53.2672C71.3582 52.9338 71.5049 52.6738 71.5982 52.6738C71.6849 52.6738 72.0649 52.8738 72.4249 53.1205C73.1582 53.6072 74.6115 54.4272 78.5049 56.5338C83.3582 59.1672 86.1315 61.2005 88.0115 63.5338C89.6582 65.5672 90.6782 67.8938 91.1715 70.7205C91.4515 72.3205 91.2849 76.1871 90.8715 77.8005C89.5649 82.8938 86.5382 86.8938 82.2049 89.2271C81.5715 89.5671 81.0049 89.8471 80.9382 89.8471C80.8782 89.8471 81.1115 89.2671 81.4515 88.5538C82.9115 85.5271 83.0782 82.5871 81.9782 79.3138C81.2982 77.3071 79.9249 74.8605 77.1515 70.7205C73.9249 65.9205 73.1382 64.6338 72.3449 62.9405ZM27.6649 81.1605C32.0849 77.4538 37.5716 74.8272 42.5782 74.0138C45.157 73.6831 47.7728 73.7845 50.3182 74.3138C53.5182 75.1272 56.3849 76.9538 57.8715 79.1205C59.3249 81.2471 59.9515 83.0938 60.6049 87.2138C60.8582 88.8338 61.1382 90.4671 61.2182 90.8338C61.7049 92.9671 62.6582 94.6738 63.8315 95.5271C65.6982 96.8871 68.9249 96.9738 72.0915 95.7471C72.4204 95.5955 72.7679 95.4879 73.1249 95.4271C73.2382 95.5405 71.6449 96.6005 70.5249 97.1605C69.1961 97.8671 67.7097 98.2249 66.2049 98.2005C63.3049 98.2005 60.8982 96.7338 58.8849 93.7471C58.1465 92.4826 57.4875 91.1734 56.9115 89.8271C54.7915 85.0205 53.7449 83.5605 51.2849 81.9538C49.1382 80.5538 46.3716 80.3071 44.2916 81.3205C41.5582 82.6538 40.7982 86.1205 42.7582 88.3205C43.6738 89.2658 44.8717 89.8881 46.1716 90.0938C46.6878 90.1646 47.2133 90.1235 47.7122 89.9733C48.2112 89.8231 48.6721 89.5673 49.0635 89.2233C49.4549 88.8793 49.7677 88.4552 49.9808 87.9796C50.1938 87.504 50.3021 86.9882 50.2982 86.4671C50.2982 85.0205 49.7382 84.2005 48.3316 83.5605C46.4049 82.7005 44.3449 83.7071 44.3516 85.5005C44.3516 86.2671 44.6916 86.7471 45.4649 87.1005C45.9582 87.3205 45.9716 87.3338 45.5649 87.2538C43.8049 86.8871 43.3916 84.7738 44.8049 83.3738C46.5116 81.6938 50.0315 82.4338 51.2382 84.7338C51.7449 85.7005 51.8049 87.6205 51.3649 88.7805C50.3649 91.3805 47.4849 92.7471 44.5516 92.0005C42.5516 91.4938 41.7449 90.9471 39.3382 88.4871C35.1582 84.2071 33.5382 83.3738 27.5116 82.4405L26.3516 82.2605L27.6649 81.1605Z" fill="white"/>
<path fill-rule="evenodd" clip-rule="evenodd" d="M8.05421 4.56C22.0142 21.4 31.6342 28.3467 32.7009 29.8133C33.5809 31.0267 33.2475 32.12 31.7409 32.9733C30.6694 33.5117 29.5031 33.8355 28.3075 33.9267C27.3275 33.9267 26.9875 33.5533 26.9875 33.5533C26.4209 33.02 26.1009 33.1133 23.1875 27.9733C20.7106 24.1184 18.2039 20.2827 15.6675 16.4667C15.4542 16.2667 15.4609 16.2667 22.7809 29.2867C23.9609 32 23.0142 32.9933 23.0142 33.38C23.0142 34.1667 22.7942 34.58 21.8209 35.6667C20.1942 37.4667 19.4675 39.4933 18.9409 43.6867C18.3542 48.3867 16.7009 51.7067 12.1142 57.3933C9.43421 60.72 8.99421 61.3267 8.31421 62.6733C7.46088 64.36 7.22754 65.3067 7.13421 67.4333C7.03421 69.6933 7.22754 71.1467 7.92088 73.3C8.52088 75.1933 9.16088 76.4333 10.7809 78.9267C12.1809 81.08 12.9809 82.68 12.9809 83.3067C12.9809 83.8 13.0742 83.8 15.2475 83.3133C20.4209 82.1533 24.6275 80.1133 26.9942 77.6C28.4609 76.0467 28.8009 75.1933 28.8142 73.0667C28.8209 71.68 28.7742 71.3867 28.3942 70.5867C27.7809 69.2867 26.6609 68.2 24.1942 66.52C20.9542 64.32 19.5675 62.5533 19.1942 60.12C18.8742 58.12 19.2409 56.7133 21.0275 52.9867C22.8809 49.12 23.3409 47.4733 23.6542 43.5867C23.8542 41.0733 24.1275 40.08 24.8542 39.28C25.6142 38.4533 26.2942 38.1733 28.1742 37.92C31.2342 37.5 33.1742 36.72 34.7742 35.2533C35.4155 34.724 35.933 34.0604 36.2901 33.3094C36.6471 32.5584 36.8351 31.7382 36.8409 30.9067L36.9075 29.5067L36.1275 28.6133C33.3209 25.36 6.17421 2 6.00088 2C5.96754 2 6.88754 3.15333 8.05421 4.56ZM14.5609 69.9933C14.8667 69.4532 14.9577 68.8175 14.8156 68.2133C14.6735 67.609 14.3087 67.0806 13.7942 66.7333C12.7942 66.0667 11.2275 66.3867 11.2275 67.2467C11.2275 67.5133 11.3742 67.7067 11.7075 67.8733C12.2675 68.16 12.3075 68.48 11.8675 69.14C11.4209 69.8 11.4609 70.38 11.9675 70.78C12.7875 71.4133 13.9475 71.0667 14.5609 69.9933ZM38.8342 38.66C37.4009 39.0933 36.0075 40.6067 35.5675 42.1933C35.3075 43.16 35.4609 44.86 35.8542 45.38C36.4942 46.2267 37.1075 46.4467 38.7809 46.44C42.0475 46.42 44.8875 45.0267 45.2209 43.28C45.4875 41.8533 44.2409 39.88 42.5209 39.0067C41.3525 38.5323 40.0705 38.4118 38.8342 38.66ZM42.6609 41.6267C43.1609 40.9133 42.9409 40.1467 42.0809 39.6267C40.4542 38.6333 37.9809 39.4533 37.9809 40.9867C37.9809 41.7533 39.2675 42.5867 40.4475 42.5867C41.2342 42.5867 42.3142 42.12 42.6609 41.6267Z" fill="white"/>
</svg>
