<svg width="100" height="102" viewBox="0 0 100 102" fill="none" xmlns="http://www.w3.org/2000/svg">
<g clip-path="url(#clip0_0_769)">
<path opacity="0.3" d="M96.677 70.1875C96.677 85.5 75.6804 98 49.8385 98C23.9966 98 3 85.5 3 70.1875V63H97V70.1875H96.677Z" fill="white"/>
<path fill-rule="evenodd" clip-rule="evenodd" d="M17.9811 15.8046C16.4038 7.58621 22.7129 0 30.9148 0C38.1703 0 44.164 6.00575 44.164 13.2759V29.7126C46.0568 29.7126 47.9495 29.3966 49.8423 29.3966C51.735 29.3966 53.3123 29.3965 55.205 29.7126V13.2759C55.205 6.00575 61.1987 0 68.4543 0C76.6562 0 82.9653 7.58621 81.7035 15.8046L78.2334 35.0862C90.5363 40.4598 100 49.9425 100 61.6379V68.908C100 78.7069 93.6908 86.9253 84.5426 92.2989C75.3943 97.9885 63.4069 101.149 49.8423 101.149C36.2776 101.149 24.2902 97.9885 15.142 92.2989C6.30915 86.9253 0 78.7069 0 68.908V61.6379C0 49.9425 9.14826 40.4598 21.4511 35.0862L17.9811 15.8046ZM73.5016 37.6149L77.6025 14.8563C78.5489 9.16667 74.448 3.7931 68.4543 3.7931C63.4069 3.7931 59.306 7.9023 59.306 12.9598V33.8218C58.0442 33.5057 56.4669 33.5057 55.205 33.5057C53.3123 33.5057 51.735 33.1897 49.8423 33.1897C47.9495 33.1897 46.0568 33.1897 44.164 33.5057C42.9022 33.5057 41.3249 33.8218 40.0631 33.8218V13.2759C40.0631 8.21839 35.9621 4.1092 30.9148 4.1092C25.2366 4.1092 20.8202 9.48276 22.082 15.1724L26.183 37.931C12.9338 42.9885 4.10095 51.8391 4.10095 61.954V69.2241C4.10095 84.7126 24.6057 97.3563 49.8423 97.3563C75.0789 97.3563 95.5836 84.7126 95.5836 69.2241V61.954C95.8991 51.523 87.0662 42.6724 73.5016 37.6149Z" fill="white"/>
<path fill-rule="evenodd" clip-rule="evenodd" d="M22.0797 15.1726C20.8178 9.48294 25.2343 4.10938 30.9125 4.10938C35.9598 4.10938 40.0608 8.21857 40.0608 13.276V34.1381C43.2153 33.822 46.3699 33.5059 49.8399 33.5059C52.9945 33.5059 56.1491 33.822 59.3036 34.1381V13.276C59.3036 8.21857 63.4046 4.10938 68.4519 4.10938C74.1302 4.10938 78.5466 9.48294 77.6002 15.1726L73.4992 37.9312C86.7484 42.9887 95.8967 51.8393 95.8967 61.9542C95.8967 77.4427 75.392 90.0864 50.1554 90.0864C24.9188 90.0864 4.41406 77.4427 4.41406 61.9542C4.41406 51.8393 13.2469 42.9887 26.4961 37.9312L22.0797 15.1726Z" fill="#E31673"/>
<path d="M37.2274 59.7415C37.2274 63.8507 35.0192 67.3277 32.1801 67.3277C29.341 67.3277 27.1328 63.8507 27.1328 59.7415C27.1328 55.6323 29.341 52.1553 32.1801 52.1553C35.0192 52.1553 37.2274 55.6323 37.2274 59.7415Z" fill="white"/>
<path d="M72.2431 59.7415C72.2431 63.8507 70.0349 67.3277 67.1958 67.3277C64.3566 67.3277 62.1484 63.8507 62.1484 59.7415C62.1484 55.6323 64.3566 52.1553 67.1958 52.1553C70.0349 52.1553 72.2431 55.6323 72.2431 59.7415Z" fill="white"/>
</g>
<defs>
<clipPath id="clip0_0_769">
<rect width="100" height="101.149" fill="white"/>
</clipPath>
</defs>
</svg>
