<svg width="100" height="100" viewBox="0 0 100 100" fill="none" xmlns="http://www.w3.org/2000/svg">
<g clip-path="url(#clip0_0_1990)">
<path d="M97.9962 50.0582C97.9962 76.4265 76.6204 97.8023 50.252 97.8023C23.8836 97.8023 2.50781 76.4265 2.50781 50.0582C2.50781 23.6898 23.8836 2.31396 50.252 2.31396C76.6204 2.31396 97.9962 23.6898 97.9962 50.0582Z" stroke="white" stroke-width="4"/>
<path d="M50.2537 88.7592C42.5993 88.7742 35.1124 86.5191 28.7397 82.2791C22.367 78.0391 17.3947 72.0045 14.4517 64.9386C11.5086 57.8726 10.7269 50.0926 12.2055 42.5824C13.684 35.0722 17.3564 28.1691 22.7582 22.746C28.16 17.323 35.0487 13.6235 42.553 12.1155C50.0573 10.6075 57.8403 11.3586 64.9178 14.2739C71.9952 17.1892 78.0493 22.1377 82.3143 28.4937C86.5793 34.8497 88.8638 42.3277 88.8789 49.9821V50.1492C88.8428 60.3808 84.7613 70.1827 77.525 77.4161C70.2888 84.6496 60.4852 88.7272 50.2537 88.7592ZM50.2537 18.3119C43.9737 18.3119 37.8347 20.1742 32.6131 23.6633C27.3916 27.1524 23.3219 32.1116 20.9189 37.9136C18.5159 43.7157 17.8874 50.1001 19.113 56.2593C20.3385 62.4186 23.363 68.0761 27.804 72.5164C32.245 76.9567 37.903 79.9803 44.0624 81.2048C50.2219 82.4294 56.6061 81.7999 62.4078 79.3959C68.2095 76.992 73.168 72.9216 76.6563 67.6994C80.1445 62.4773 82.0058 56.3381 82.0048 50.0581C82.0048 45.8887 81.1835 41.7601 79.5878 37.9082C77.9921 34.0562 75.6533 30.5563 72.7048 27.6084C69.7564 24.6604 66.2561 22.3221 62.4039 20.727C58.5517 19.1319 54.423 18.3113 50.2537 18.3119Z" fill="white"/>
<path d="M47.0547 32.1865H54.0047V67.0378H47.0547V32.1865Z" fill="white"/>
</g>
<defs>
<clipPath id="clip0_0_1990">
<rect width="100" height="99.8075" fill="white"/>
</clipPath>
</defs>
</svg>
