<svg width="100" height="100" viewBox="0 0 100 100" fill="none" xmlns="http://www.w3.org/2000/svg">
<mask id="path-1-inside-1_0_779" fill="white">
<path d="M60.2213 29.0331L52.0925 24.2913C51.332 23.9084 50.4924 23.709 49.641 23.709C48.7896 23.709 47.95 23.9084 47.1895 24.2913L39.0607 29.0331C37.3188 30.0653 37.2866 31.7427 39.0607 32.7426L47.1895 37.5489C47.9452 37.9473 48.7867 38.1554 49.641 38.1554C50.4953 38.1554 51.3368 37.9473 52.0925 37.5489L60.2213 32.7426C60.6047 32.6069 60.9366 32.3556 61.1713 32.0235C61.406 31.6913 61.532 31.2946 61.532 30.8879C61.532 30.4811 61.406 30.0844 61.1713 29.7523C60.9366 29.4201 60.6047 29.1689 60.2213 29.0331Z"/>
<path d="M91.9325 23.1622L52.6436 0.582335C51.8831 0.199439 51.0435 0 50.192 0C49.3406 0 48.501 0.199439 47.7405 0.582335L8.45153 23.1622C7.74166 23.6342 7.15086 24.2644 6.7255 25.0031C6.30015 25.7419 6.05182 26.5692 6 27.4201V72.5799C6.05182 73.4308 6.30015 74.2581 6.7255 74.9969C7.15086 75.7356 7.74166 76.3658 8.45153 76.8378L47.7405 99.4177C48.501 99.8006 49.3406 100 50.192 100C51.0435 100 51.8831 99.8006 52.6436 99.4177L91.9325 76.8378C92.6424 76.3658 93.2332 75.7356 93.6586 74.9969C94.0839 74.2581 94.3323 73.4308 94.3841 72.5799V27.4201C94.3323 26.5692 94.0839 25.7419 93.6586 25.0031C93.2332 24.2644 92.6424 23.6342 91.9325 23.1622ZM74.4493 33.6457L52.0952 46.8066C51.3394 47.2049 50.498 47.4131 49.6437 47.4131C48.7894 47.4131 47.9479 47.2049 47.1921 46.8066L32.9991 38.4843C31.2572 37.4198 29.7734 38.2585 29.7734 40.2907V65.4833C29.8345 65.8821 29.7756 66.2901 29.604 66.6553C29.4325 67.0204 29.1562 67.3263 28.8102 67.5338C28.4643 67.7414 28.0643 67.8413 27.6614 67.8208C27.2585 67.8003 26.8708 67.6604 26.5477 67.4188L24.1284 66.1607C23.3988 65.72 22.7881 65.1074 22.3496 64.3765C21.911 63.6456 21.6579 62.8185 21.6124 61.9673V34.6134C21.6642 33.7625 21.9125 32.9352 22.3379 32.1964C22.7632 31.4577 23.354 30.8275 24.0639 30.3555L47.1599 16.9366C47.9204 16.5537 48.76 16.3543 49.6114 16.3543C50.4629 16.3543 51.3025 16.5537 52.0629 16.9366L74.417 29.8394C74.8386 29.9462 75.2129 30.1897 75.4814 30.5318C75.75 30.8738 75.8976 31.2952 75.9013 31.7301C75.905 32.165 75.7645 32.5888 75.5018 32.9354C75.2391 33.282 74.869 33.5318 74.4493 33.6457Z"/>
<path fill-rule="evenodd" clip-rule="evenodd" d="M74.4493 33.6457L52.0952 46.8066C51.3394 47.2049 50.498 47.4131 49.6437 47.4131C48.7894 47.4131 47.9479 47.2049 47.1921 46.8066L32.9991 38.4843C31.2572 37.4198 29.7734 38.2585 29.7734 40.2907V65.4833C29.8345 65.8821 29.7756 66.2901 29.604 66.6553C29.4325 67.0204 29.1562 67.3263 28.8102 67.5338C28.4643 67.7414 28.0643 67.8413 27.6614 67.8208C27.2585 67.8003 26.8708 67.6604 26.5477 67.4188L24.1284 66.1607C23.3988 65.72 22.7881 65.1074 22.3496 64.3765C21.911 63.6456 21.6579 62.8185 21.6124 61.9673V34.6134C21.6642 33.7625 21.9125 32.9352 22.3379 32.1964C22.7632 31.4577 23.354 30.8275 24.0639 30.3555L47.1599 16.9366C47.9204 16.5537 48.76 16.3543 49.6114 16.3543C50.4629 16.3543 51.3025 16.5537 52.0629 16.9366L74.417 29.8394C74.8386 29.9462 75.2129 30.1897 75.4814 30.5318C75.75 30.8738 75.8976 31.2952 75.9013 31.7301C75.905 32.165 75.7645 32.5888 75.5018 32.9354C75.2391 33.282 74.869 33.5318 74.4493 33.6457ZM52.0925 24.2913L60.2213 29.0331C60.6047 29.1689 60.9366 29.4201 61.1713 29.7523C61.406 30.0844 61.532 30.4811 61.532 30.8879C61.532 31.2946 61.406 31.6913 61.1713 32.0235C60.9366 32.3556 60.6047 32.6069 60.2213 32.7426L52.0925 37.5489C51.3368 37.9473 50.4953 38.1554 49.641 38.1554C48.7867 38.1554 47.9452 37.9473 47.1895 37.5489L39.0607 32.7426C37.2866 31.7427 37.3188 30.0653 39.0607 29.0331L47.1895 24.2913C47.95 23.9084 48.7896 23.709 49.641 23.709C50.4924 23.709 51.332 23.9084 52.0925 24.2913Z"/>
</mask>
<path d="M60.2213 29.0331L59.2135 30.7607L59.3761 30.8555L59.5536 30.9183L60.2213 29.0331ZM52.0925 24.2913L53.1003 22.5638L53.047 22.5327L52.9919 22.505L52.0925 24.2913ZM47.1895 24.2913L46.2901 22.505L46.235 22.5327L46.1817 22.5638L47.1895 24.2913ZM39.0607 29.0331L38.053 27.3055L38.0411 27.3125L39.0607 29.0331ZM39.0607 32.7426L40.0786 31.0211L40.0608 31.0105L40.0427 31.0003L39.0607 32.7426ZM47.1895 37.5489L46.1716 39.2705L46.2137 39.2954L46.257 39.3182L47.1895 37.5489ZM49.641 38.1554V40.1554V38.1554ZM52.0925 37.5489L53.025 39.3182L53.0683 39.2954L53.1104 39.2705L52.0925 37.5489ZM60.2213 32.7426L59.5536 30.8574L59.3705 30.9222L59.2034 31.0211L60.2213 32.7426ZM61.532 30.8879H63.532H61.532ZM74.4493 33.6457L73.9252 31.7156L73.666 31.786L73.4346 31.9222L74.4493 33.6457ZM52.0952 46.8066L53.0277 48.5759L53.0693 48.5539L53.1099 48.53L52.0952 46.8066ZM47.1921 46.8066L46.1805 48.5318L46.2196 48.5547L46.2596 48.5759L47.1921 46.8066ZM32.9991 38.4843L31.9562 40.1908L31.9717 40.2003L31.9874 40.2095L32.9991 38.4843ZM29.7734 65.4833H27.7734V65.6357L27.7965 65.7864L29.7734 65.4833ZM26.5477 67.4188L27.7454 65.817L27.6149 65.7195L27.4704 65.6443L26.5477 67.4188ZM24.1284 66.1607L23.0942 67.8726L23.149 67.9057L23.2057 67.9352L24.1284 66.1607ZM21.6124 61.9673H19.6124V62.0208L19.6152 62.0743L21.6124 61.9673ZM21.6124 34.6134L19.6161 34.4919L19.6124 34.5526V34.6134H21.6124ZM24.0639 30.3555L23.0592 28.6262L23.0069 28.6566L22.9565 28.6901L24.0639 30.3555ZM47.1599 16.9366L46.2605 15.1503L46.207 15.1772L46.1551 15.2073L47.1599 16.9366ZM52.0629 16.9366L53.0627 15.2045L53.0133 15.1759L52.9623 15.1503L52.0629 16.9366ZM74.417 29.8394L73.4172 31.5716L73.6572 31.7101L73.9258 31.7781L74.417 29.8394ZM61.229 27.3055L53.1003 22.5638L51.0848 26.0189L59.2135 30.7607L61.229 27.3055ZM52.9919 22.505C51.9524 21.9816 50.8048 21.709 49.641 21.709V25.709C50.1801 25.709 50.7116 25.8353 51.1931 26.0777L52.9919 22.505ZM49.641 21.709C48.4772 21.709 47.3296 21.9816 46.2901 22.505L48.0889 26.0777C48.5704 25.8353 49.1019 25.709 49.641 25.709V21.709ZM46.1817 22.5638L38.053 27.3055L40.0685 30.7607L48.1972 26.0189L46.1817 22.5638ZM38.0411 27.3125C36.8061 28.0444 35.7519 29.2724 35.7423 30.888C35.7324 32.528 36.8005 33.7645 38.0787 34.4849L40.0427 31.0003C39.8038 30.8657 39.7209 30.7611 39.7071 30.7413C39.7013 30.733 39.7113 30.7452 39.7225 30.7792C39.7339 30.8141 39.7425 30.8601 39.7422 30.9119C39.7419 30.9635 39.7329 31.0053 39.7237 31.0327C39.7148 31.059 39.709 31.063 39.7206 31.0462C39.746 31.0096 39.841 30.8955 40.0803 30.7537L38.0411 27.3125ZM38.0428 34.4642L46.1716 39.2705L48.2074 35.8274L40.0786 31.0211L38.0428 34.4642ZM46.257 39.3182C47.3002 39.8681 48.4617 40.1554 49.641 40.1554V36.1554C49.1117 36.1554 48.5903 36.0264 48.122 35.7796L46.257 39.3182ZM49.641 40.1554C50.8203 40.1554 51.9818 39.8681 53.025 39.3182L51.16 35.7796C50.6917 36.0264 50.1703 36.1554 49.641 36.1554V40.1554ZM53.1104 39.2705L61.2392 34.4642L59.2034 31.0211L51.0746 35.8274L53.1104 39.2705ZM60.889 34.6279C61.6621 34.3541 62.3313 33.8475 62.8046 33.1777L59.538 30.8692C59.5418 30.8637 59.5473 30.8596 59.5536 30.8574L60.889 34.6279ZM62.8046 33.1777C63.2779 32.508 63.532 31.708 63.532 30.8879H59.532C59.532 30.8812 59.5341 30.8747 59.538 30.8692L62.8046 33.1777ZM63.532 30.8879C63.532 30.0677 63.2779 29.2678 62.8046 28.598L59.538 30.9065C59.5341 30.9011 59.532 30.8946 59.532 30.8879H63.532ZM62.8046 28.598C62.3313 27.9283 61.6621 27.4216 60.889 27.1478L59.5536 30.9183C59.5473 30.9161 59.5418 30.912 59.538 30.9065L62.8046 28.598ZM73.4346 31.9222L51.0805 45.0831L53.1099 48.53L75.464 35.3692L73.4346 31.9222ZM51.1627 45.0373C50.6944 45.2841 50.173 45.4131 49.6437 45.4131V49.4131C50.8229 49.4131 51.9845 49.1257 53.0277 48.5759L51.1627 45.0373ZM49.6437 45.4131C49.1143 45.4131 48.5929 45.2841 48.1247 45.0373L46.2596 48.5759C47.3029 49.1257 48.4644 49.4131 49.6437 49.4131V45.4131ZM48.2038 45.0813L34.0107 36.759L31.9874 40.2095L46.1805 48.5318L48.2038 45.0813ZM34.042 36.7777C32.7893 36.0122 31.1825 35.6799 29.7536 36.4824C28.3261 37.2842 27.7734 38.8274 27.7734 40.2907H31.7734C31.7734 40.0193 31.8235 39.8919 31.8367 39.8643C31.8425 39.8521 31.8386 39.8643 31.8164 39.8888C31.7934 39.9141 31.7586 39.9441 31.7124 39.97C31.6662 39.9959 31.6224 40.0102 31.5886 40.0166C31.5558 40.0229 31.5432 40.0199 31.5565 40.0213C31.5868 40.0244 31.7225 40.048 31.9562 40.1908L34.042 36.7777ZM27.7734 40.2907V65.4833H31.7734V40.2907H27.7734ZM27.7965 65.7864C27.7974 65.7927 27.7965 65.7991 27.7938 65.8049L31.4143 67.5056C31.7546 66.781 31.8716 65.9716 31.7503 65.1803L27.7965 65.7864ZM27.7938 65.8049C27.7911 65.8107 27.7867 65.8156 27.7812 65.8189L29.8392 69.2488C30.5256 68.837 31.0739 68.2301 31.4143 67.5056L27.7938 65.8049ZM27.7812 65.8189C27.7757 65.8221 27.7694 65.8237 27.763 65.8234L27.5598 69.8182C28.3593 69.8589 29.1528 69.6607 29.8392 69.2488L27.7812 65.8189ZM27.763 65.8234C27.7566 65.8231 27.7505 65.8209 27.7454 65.817L25.35 69.0205C25.9911 69.4999 26.7604 69.7776 27.5598 69.8182L27.763 65.8234ZM27.4704 65.6443L25.0511 64.3863L23.2057 67.9352L25.625 69.1932L27.4704 65.6443ZM25.1626 64.4489C24.7122 64.1768 24.3353 63.7987 24.0646 63.3475L20.6346 65.4055C21.241 66.4162 22.0854 67.2631 23.0942 67.8726L25.1626 64.4489ZM24.0646 63.3475C23.7939 62.8964 23.6376 62.3858 23.6095 61.8604L19.6152 62.0743C19.6782 63.2512 20.0282 64.3949 20.6346 65.4055L24.0646 63.3475ZM23.6124 61.9673V34.6134H19.6124V61.9673H23.6124ZM23.6087 34.735C23.6417 34.1926 23.8 33.6653 24.0711 33.1944L20.6046 31.1985C20.025 32.2052 19.6867 33.3324 19.6161 34.4919L23.6087 34.735ZM24.0711 33.1944C24.3422 32.7235 24.7188 32.3218 25.1713 32.0209L22.9565 28.6901C21.9892 29.3333 21.1842 30.1919 20.6046 31.1985L24.0711 33.1944ZM25.0686 32.0848L48.1646 18.6659L46.1551 15.2073L23.0592 28.6262L25.0686 32.0848ZM48.0593 18.723C48.5408 18.4805 49.0723 18.3543 49.6114 18.3543V14.3543C48.4476 14.3543 47.3 14.6269 46.2605 15.1503L48.0593 18.723ZM49.6114 18.3543C50.1505 18.3543 50.682 18.4805 51.1635 18.723L52.9623 15.1503C51.9229 14.6269 50.7752 14.3543 49.6114 14.3543V18.3543ZM51.0631 18.6688L73.4172 31.5716L75.4168 28.1072L53.0627 15.2045L51.0631 18.6688ZM73.9258 31.7781C73.9188 31.7764 73.9127 31.7724 73.9083 31.7668L77.0546 29.2968C76.5131 28.607 75.7583 28.1161 74.9083 27.9007L73.9258 31.7781ZM73.9083 31.7668C73.9039 31.7611 73.9014 31.7542 73.9014 31.7471L77.9012 31.7132C77.8938 30.8363 77.5961 29.9866 77.0546 29.2968L73.9083 31.7668ZM73.9014 31.7471C73.9013 31.7399 73.9036 31.733 73.9079 31.7273L77.0956 34.1436C77.6254 33.4447 77.9087 32.5901 77.9012 31.7132L73.9014 31.7471ZM73.9079 31.7273C73.9122 31.7216 73.9183 31.7175 73.9252 31.7156L74.9733 35.5758C75.8196 35.3461 76.5659 34.8424 77.0956 34.1436L73.9079 31.7273ZM91.9325 23.1622L94.1474 19.8314L94.0388 19.7591L93.9257 19.6942L91.9325 23.1622ZM52.6436 0.582335L54.6367 -2.88572L54.541 -2.94073L54.4424 -2.99038L52.6436 0.582335ZM47.7405 0.582335L45.9417 -2.99038L45.8431 -2.94073L45.7474 -2.88572L47.7405 0.582335ZM8.45153 23.1622L6.45839 19.6942L6.34531 19.7591L6.2367 19.8314L8.45153 23.1622ZM6 27.4201L2.0074 27.177L2 27.2985V27.4201H6ZM6 72.5799H2V72.7015L2.0074 72.823L6 72.5799ZM8.45153 76.8378L6.2367 80.1686L6.34531 80.2409L6.45839 80.3058L8.45153 76.8378ZM47.7405 99.4177L45.7474 102.886L45.8431 102.941L45.9417 102.99L47.7405 99.4177ZM52.6436 99.4177L54.4424 102.99L54.541 102.941L54.6367 102.886L52.6436 99.4177ZM91.9325 76.8378L93.9257 80.3058L94.0388 80.2409L94.1474 80.1686L91.9325 76.8378ZM94.3841 72.5799L98.3767 72.823L98.3841 72.7015V72.5799H94.3841ZM94.3841 27.4201H98.3841V27.2985L98.3767 27.177L94.3841 27.4201ZM93.9257 19.6942L54.6367 -2.88572L50.6504 4.05039L89.9394 26.6303L93.9257 19.6942ZM54.4424 -2.99038C53.1239 -3.65422 51.6682 -4 50.192 -4V4C50.4187 4 50.6423 4.0531 50.8447 4.15505L54.4424 -2.99038ZM50.192 -4C48.7159 -4 47.2602 -3.65422 45.9417 -2.99038L49.5393 4.15505C49.7418 4.0531 49.9653 4 50.192 4V-4ZM45.7474 -2.88572L6.45839 19.6942L10.4447 26.6303L49.7336 4.05039L45.7474 -2.88572ZM6.2367 19.8314C5.01206 20.6457 3.99283 21.7328 3.25901 23.0073L10.192 26.999C10.3089 26.796 10.4713 26.6228 10.6664 26.4931L6.2367 19.8314ZM3.25901 23.0073C2.5252 24.2818 2.09679 25.7091 2.0074 27.177L9.9926 27.6633C10.0068 27.4294 10.0751 27.202 10.192 26.999L3.25901 23.0073ZM2 27.4201V72.5799H10V27.4201H2ZM2.0074 72.823C2.09679 74.2909 2.5252 75.7182 3.25901 76.9927L10.192 73.001C10.0751 72.798 10.0068 72.5706 9.9926 72.3367L2.0074 72.823ZM3.25901 76.9927C3.99283 78.2672 5.01207 79.3543 6.2367 80.1686L10.6664 73.5069C10.4713 73.3772 10.3089 73.204 10.192 73.001L3.25901 76.9927ZM6.45839 80.3058L45.7474 102.886L49.7336 95.9496L10.4447 73.3697L6.45839 80.3058ZM45.9417 102.99C47.2602 103.654 48.7158 104 50.192 104V96C49.9653 96 49.7418 95.9469 49.5393 95.845L45.9417 102.99ZM50.192 104C51.6682 104 53.1239 103.654 54.4424 102.99L50.8447 95.845C50.6423 95.9469 50.4187 96 50.192 96V104ZM54.6367 102.886L93.9257 80.3058L89.9394 73.3697L50.6504 95.9496L54.6367 102.886ZM94.1474 80.1686C95.372 79.3543 96.3912 78.2673 97.1251 76.9927L90.1921 73.001C90.0752 73.204 89.9128 73.3772 89.7177 73.5069L94.1474 80.1686ZM97.1251 76.9927C97.8589 75.7182 98.2873 74.2909 98.3767 72.823L90.3915 72.3367C90.3772 72.5706 90.309 72.798 90.1921 73.001L97.1251 76.9927ZM98.3841 72.5799V27.4201H90.3841V72.5799H98.3841ZM98.3767 27.177C98.2873 25.7091 97.8589 24.2818 97.1251 23.0073L90.1921 26.999C90.309 27.202 90.3772 27.4294 90.3915 27.6633L98.3767 27.177ZM97.1251 23.0073C96.3912 21.7328 95.372 20.6457 94.1474 19.8314L89.7177 26.4931C89.9128 26.6228 90.0752 26.796 90.1921 26.999L97.1251 23.0073Z" fill="white" mask="url(#path-1-inside-1_0_779)"/>
</svg>
