<svg width="100" height="100" viewBox="0 0 100 100" fill="none" xmlns="http://www.w3.org/2000/svg">
<path d="M0 28.46H10.5319L19.1547 53.0722L28.4325 28.46H34.8741L43.9849 52.7951L52.6178 28.46H63.2184L47.6003 71.6784H40.782L31.6092 47.0935L22.2184 71.6784H15.4788L0 28.46Z" fill="white"/>
<path d="M80.829 44.127L79.9957 45.688C79.8929 45.8791 79.824 46.0262 79.7936 46.1258C79.7621 46.2242 79.7465 46.3273 79.7465 46.4303C79.7465 46.6955 79.8492 46.9329 80.0525 47.1368C80.258 47.3417 80.5168 47.446 80.8228 47.446C81.1168 47.446 81.3706 47.3464 81.5775 47.1495C81.7856 46.9526 81.8909 46.7083 81.8909 46.4246C81.8909 46.1316 81.7892 45.8826 81.586 45.6846C81.4299 45.5329 81.2474 45.4379 81.0394 45.402L81.5401 44.4686L80.829 44.127ZM81.0805 46.4164C81.0805 46.4987 81.0538 46.5647 81.0019 46.6168C80.8943 46.7187 80.7467 46.7268 80.6366 46.6156C80.5835 46.5623 80.5568 46.4975 80.5568 46.4164C80.5568 46.3354 80.5821 46.2705 80.6329 46.2184C80.6814 46.1686 80.7382 46.1443 80.8109 46.1443C80.8895 46.1443 80.9522 46.1686 81.0019 46.2196C81.055 46.2717 81.0805 46.3342 81.0805 46.4164ZM84.7824 32.0729L83.4364 33.9894L83.4159 34.0195V34.6843H84.7364V35.2783H85.5467V34.6843H85.8152V33.9373H85.5467V32.0729H84.7824ZM84.404 33.9373L84.7364 33.4695V33.9373H84.404ZM67.1663 59.2522L68.2692 57.0901H67.0757V56.3363H69.3069L69.295 56.7961L67.875 59.5823L67.1663 59.2522ZM81.0357 66.7611C81.1035 66.6949 81.1361 66.6117 81.1361 66.5051C81.1361 66.4009 81.1058 66.3186 81.0442 66.2561C80.9534 66.1623 80.841 66.1322 80.7044 66.197C80.6559 66.2214 80.6065 66.2584 80.558 66.3083L80.5083 66.3579L79.8518 66.2168L80.2642 64.3998H81.9053V65.1467H80.8943L80.8325 65.4085C80.8447 65.4085 80.8554 65.4085 80.8665 65.4085C81.1748 65.4085 81.4348 65.5103 81.6391 65.7131C81.8435 65.9122 81.9465 66.1715 81.9465 66.483C81.9465 66.797 81.8338 67.0644 81.6102 67.2798C81.3853 67.4963 81.1095 67.6053 80.789 67.6053C80.5049 67.6053 80.2557 67.5264 80.0476 67.3701C79.8396 67.2115 79.703 66.9949 79.6401 66.7251L79.6063 66.5816H80.4407L80.4757 66.6464C80.512 66.7182 80.5591 66.7703 80.6173 66.8062C80.743 66.8851 80.9256 66.8722 81.0357 66.7611ZM80.6522 51.1818C80.8603 50.9849 80.9656 50.7406 80.9656 50.4569C80.9656 50.1639 80.864 49.9149 80.6607 49.7169C80.5049 49.5652 80.3221 49.4702 80.1141 49.4343L80.6148 48.5009L79.9037 48.1593L79.0704 49.7204C78.9676 49.9114 78.8987 50.0585 78.8686 50.1581C78.8371 50.2566 78.8212 50.3596 78.8212 50.4627C78.8212 50.7279 78.9242 50.9653 79.1272 51.1692C79.3329 51.374 79.5918 51.4784 79.8977 51.4784C80.1915 51.4784 80.4456 51.3786 80.6522 51.1818ZM79.6315 50.4488C79.6315 50.3677 79.6571 50.3029 79.7079 50.2507C79.7561 50.2009 79.8129 50.1766 79.8856 50.1766C79.9642 50.1766 80.0272 50.2009 80.0766 50.2519C80.1299 50.304 80.1552 50.3666 80.1552 50.4488C80.1552 50.531 80.1286 50.597 80.0766 50.6491C79.9715 50.751 79.8226 50.7591 79.7113 50.648C79.6582 50.5947 79.6315 50.5298 79.6315 50.4488ZM97.3274 59.4687V58.8747H97.5959V58.1278H97.3274V56.2632H96.5633L95.2171 58.18L95.1966 58.2101V58.8747H96.5173V59.4687H97.3274ZM96.1846 58.1278L96.5173 57.66V58.1278H96.1846ZM78.184 51.3579C78.3509 51.2756 78.4863 51.1529 78.5842 50.9931C78.6823 50.8321 78.7318 50.6561 78.7318 50.4696C78.7318 50.2971 78.6895 50.1338 78.6049 49.9844C78.5419 49.8744 78.461 49.7783 78.3605 49.6983C78.4295 49.6161 78.4803 49.5397 78.5129 49.4667C78.5601 49.3648 78.583 49.2513 78.583 49.1309C78.583 48.963 78.5384 48.8043 78.4513 48.6596C78.3605 48.5114 78.2384 48.3967 78.086 48.318C77.7801 48.1593 77.3313 48.1628 77.0279 48.3168C76.8706 48.3955 76.746 48.5079 76.6589 48.6503C76.5706 48.7928 76.5272 48.9514 76.5272 49.1228C76.5272 49.2502 76.5536 49.3718 76.6058 49.4841C76.6407 49.5606 76.6867 49.6323 76.746 49.703C76.6433 49.7922 76.5621 49.8906 76.503 49.9983C76.4244 50.1407 76.3856 50.3006 76.3856 50.4696C76.3856 50.6653 76.4341 50.8448 76.532 51.0034C76.6311 51.1632 76.7642 51.2837 76.9299 51.3637C77.0906 51.44 77.3046 51.4782 77.566 51.4782C77.8127 51.4782 78.0207 51.4377 78.184 51.3579ZM77.7026 49.3197C77.624 49.3973 77.4837 49.3996 77.4028 49.3197C77.3603 49.278 77.3398 49.2294 77.3398 49.168C77.3398 49.1054 77.358 49.0603 77.3977 49.022C77.4341 48.985 77.4801 48.9676 77.5405 48.9676C77.6106 48.9676 77.6628 48.985 77.7037 49.0232C77.7426 49.058 77.7607 49.1031 77.7607 49.1645C77.7607 49.2317 77.7414 49.2814 77.7026 49.3197ZM77.2964 50.2206C77.3676 50.1592 77.4559 50.1292 77.5635 50.1292C77.6676 50.1292 77.7511 50.1593 77.8187 50.2183C77.884 50.2785 77.9155 50.3468 77.9155 50.4326C77.9155 50.5183 77.8865 50.5843 77.8249 50.6375C77.7003 50.7487 77.4207 50.751 77.2913 50.6317C77.226 50.5727 77.1959 50.5055 77.1959 50.421C77.1959 50.3434 77.2286 50.2797 77.2964 50.2206ZM85.2384 67.5322V65.1536H84.5175L85.0026 64.3998H86.0559V67.5322H85.2384ZM75.1761 65.3471C75.0021 65.5126 74.9161 65.7143 74.9161 65.9621C74.9161 66.1345 74.9548 66.2874 75.0311 66.4182C75.1086 66.5503 75.215 66.651 75.3564 66.7262C75.6164 66.8664 75.972 66.8722 76.2368 66.7598C76.3603 66.7067 76.5017 66.6046 76.6564 66.4577L76.746 66.3731L77.3083 66.9336L77.2212 67.0159C76.983 67.2393 76.7628 67.3887 76.5488 67.4745C76.3359 67.5611 76.0918 67.6053 75.8207 67.6053C75.3189 67.6053 74.9005 67.4501 74.5787 67.1432C74.2571 66.8375 74.0938 66.4391 74.0938 65.9609C74.0938 65.6517 74.1676 65.3726 74.315 65.1317C74.4603 64.8908 74.6732 64.694 74.9465 64.5469C75.4458 64.277 76.0603 64.2526 76.5996 64.489C76.8476 64.5966 77.0628 64.7517 77.2407 64.9499L77.3168 65.0356L76.7387 65.5625L76.6541 65.4756C76.4026 65.2209 76.1292 65.097 75.8196 65.097C75.5633 65.097 75.3527 65.1791 75.1761 65.3471ZM78.4658 67.6053C78.7596 67.6053 79.0136 67.5057 79.2205 67.3087C79.4283 67.112 79.5336 66.8676 79.5336 66.5839C79.5336 66.2908 79.432 66.0418 79.2288 65.8439C79.0729 65.6922 78.8902 65.5972 78.6823 65.5614L79.183 64.6278L78.4718 64.2862L77.6384 65.8474C77.5357 66.0384 77.4667 66.1855 77.4366 66.2851C77.4051 66.3834 77.3895 66.4867 77.3895 66.5897C77.3895 66.8549 77.4922 67.0922 77.6955 67.2961C77.901 67.5009 78.1598 67.6053 78.4658 67.6053ZM78.1996 66.5759C78.1996 66.4947 78.2251 66.4299 78.2759 66.3777C78.3242 66.3278 78.381 66.3037 78.4536 66.3037C78.5322 66.3037 78.5952 66.3278 78.6446 66.3788C78.698 66.431 78.7233 66.4936 78.7233 66.5759C78.7233 66.6579 78.6968 66.7239 78.6446 66.7761C78.5396 66.8779 78.3909 66.8862 78.2796 66.7749C78.2263 66.7216 78.1996 66.6568 78.1996 66.5759ZM86.9568 67.3156L88.0598 65.1536H86.8662V64.3998H89.0975L89.0856 64.8595L87.6656 67.6457L86.9568 67.3156ZM83.1196 49.9554C83.2246 49.7597 83.2913 49.6173 83.3214 49.52C83.3529 49.4227 83.3686 49.3208 83.3686 49.2166C83.3686 48.9503 83.2658 48.7117 83.0626 48.509C82.8571 48.3041 82.5982 48.1998 82.2911 48.1998C81.9984 48.1998 81.7444 48.2994 81.5375 48.4963C81.3297 48.6932 81.2244 48.9375 81.2244 49.2236C81.2244 49.5154 81.326 49.7632 81.5293 49.9612C81.6851 50.1141 81.8702 50.2091 82.0782 50.2449L81.5752 51.1795L82.2863 51.5189L83.1196 49.9554ZM82.5584 49.2305C82.5584 49.3104 82.5329 49.3741 82.4821 49.4274C82.3794 49.5316 82.2113 49.5223 82.1134 49.4251C82.06 49.3729 82.0348 49.3093 82.0348 49.2294C82.0348 49.1483 82.0612 49.0823 82.1145 49.0302C82.169 48.978 82.2281 48.9526 82.3019 48.9526C82.3697 48.9526 82.4253 48.978 82.4784 49.0302C82.5329 49.0846 82.5584 49.1483 82.5584 49.2305ZM78.6787 46.6017C78.7463 46.5357 78.7789 46.4523 78.7789 46.3458C78.7789 46.2416 78.7488 46.1594 78.6872 46.0968C78.5964 46.0042 78.4851 45.9729 78.3472 46.0377C78.2989 46.0621 78.2492 46.0991 78.201 46.1489L78.1513 46.1987L77.4945 46.0574L77.9069 44.2405H79.5481V44.9874H78.5371L78.4754 45.2491C78.4874 45.2491 78.4984 45.2491 78.5092 45.2491C78.8178 45.2491 79.0778 45.351 79.2821 45.5537C79.4865 45.7529 79.5892 46.0123 79.5892 46.3238C79.5892 46.6376 79.4768 46.9051 79.2532 47.1205C79.0281 47.3371 78.7525 47.446 78.432 47.446C78.1476 47.446 77.8984 47.3672 77.6906 47.2109C77.4826 47.0522 77.3458 46.8357 77.283 46.5658L77.249 46.4222H78.0835L78.1187 46.4871C78.155 46.5589 78.2021 46.611 78.2601 46.6469C78.3872 46.7268 78.5686 46.7141 78.6787 46.6017ZM96.4083 53.8998C96.4083 54.3005 96.4543 54.6028 96.5486 54.8239C96.6442 55.052 96.7821 55.2246 96.9575 55.3393C97.1341 55.4526 97.3492 55.5106 97.6007 55.5106C97.8548 55.5106 98.0688 55.4526 98.2371 55.3393C98.4051 55.2257 98.5405 55.0497 98.6373 54.8147C98.7329 54.583 98.7787 54.2749 98.7787 53.872C98.7787 53.4782 98.7329 53.1644 98.6396 52.9386C98.5442 52.7023 98.404 52.5239 98.2249 52.4083C98.0446 52.2913 97.8295 52.2322 97.584 52.2322C97.2042 52.2322 96.9019 52.3816 96.6853 52.6768C96.4991 52.9398 96.4083 53.3405 96.4083 53.8998ZM97.2308 53.9113C97.2308 53.6416 97.2502 53.4366 97.2865 53.3023C97.3191 53.1818 97.3637 53.0984 97.4194 53.0545C97.4702 53.0138 97.5295 52.9931 97.5973 52.9931C97.6589 52.9931 97.7509 53.0103 97.8391 53.1517C97.8922 53.2372 97.9564 53.4331 97.9564 53.8789C97.9564 54.231 97.9115 54.4811 97.8233 54.6211C97.746 54.7462 97.6612 54.7625 97.5973 54.7625C97.5332 54.7625 97.4387 54.7462 97.3492 54.6085C97.2948 54.5262 97.2308 54.3386 97.2308 53.9113ZM68.1134 36.0635L67.2801 37.6245C67.1773 37.8156 67.1083 37.9627 67.078 38.0623C67.0467 38.1607 67.0309 38.2638 67.0309 38.3668C67.0309 38.632 67.1336 38.8694 67.3368 39.0733C67.5426 39.2782 67.8012 39.3825 68.1072 39.3825C68.4012 39.3825 68.6552 39.2829 68.8619 39.086C69.0699 38.8891 69.1752 38.6448 69.1752 38.3611C69.1752 38.0681 69.0736 37.8191 68.8704 37.6211C68.7143 37.4694 68.5318 37.3744 68.3237 37.3385L68.8244 36.4051L68.1134 36.0635ZM68.3649 38.353C68.3649 38.4352 68.3382 38.5012 68.2863 38.5533C68.1798 38.654 68.0322 38.6633 67.921 38.5521C67.8679 38.4989 67.8412 38.434 67.8412 38.353C67.8412 38.2719 67.8667 38.207 67.9173 38.1549C67.9658 38.1051 68.0226 38.0808 68.0952 38.0808C68.1738 38.0808 68.2366 38.1051 68.2863 38.1561C68.3394 38.2082 68.3649 38.2707 68.3649 38.353ZM68.3722 46.6133C68.4361 46.5531 68.4676 46.4813 68.4676 46.3944C68.4676 46.2995 68.4253 46.2231 68.3359 46.1547C68.238 46.0806 68.0904 46.0424 67.8945 46.0401L67.7722 46.0389V45.3395L67.886 45.3314C68.0384 45.3198 68.1157 45.2978 68.1532 45.2804C68.1991 45.2596 68.2355 45.2306 68.261 45.1947C68.2851 45.16 68.2971 45.1252 68.2971 45.0893C68.2971 45.043 68.2814 45.0094 68.2488 44.9793C68.2283 44.9608 68.1895 44.9342 68.1072 44.9342C68.0504 44.9342 68.0033 44.9504 67.9573 44.9828C67.9125 45.0152 67.8812 45.0569 67.863 45.109L67.8364 45.1912H67.0515L67.0697 45.0581C67.1023 44.8184 67.1955 44.6226 67.3453 44.4756C67.5534 44.2706 67.8159 44.1675 68.1267 44.1675C68.4049 44.1675 68.643 44.2544 68.8355 44.4258C69.0288 44.5983 69.1256 44.8091 69.1256 45.05C69.1256 45.2017 69.0821 45.3418 68.995 45.468C68.9515 45.5306 68.8982 45.5873 68.8341 45.6383C68.9405 45.6962 69.0288 45.7714 69.1014 45.8629C69.2212 46.0146 69.2817 46.1941 69.2817 46.3968C69.2817 46.6886 69.1679 46.9399 68.943 47.1426C68.7205 47.3441 68.435 47.446 68.0941 47.446C67.7674 47.446 67.4978 47.3499 67.2897 47.1588C67.0817 46.9677 66.9667 46.7071 66.9488 46.3864L66.9414 46.2613H67.7481L67.7637 46.3609C67.783 46.4825 67.8256 46.5705 67.8883 46.6249C68.0093 46.7326 68.2428 46.7314 68.3722 46.6133ZM75.389 33.3988C75.4532 33.283 75.4869 33.18 75.4869 33.0931C75.4869 33.0143 75.4605 32.9506 75.4072 32.9009C75.2996 32.7989 75.0989 32.7908 74.9791 32.9182C74.9161 32.9854 74.8835 33.0803 74.8787 33.2008L74.875 33.3154H74.0647L74.0709 33.1915C74.0865 32.8511 74.2014 32.5754 74.4143 32.3751C74.6283 32.1748 74.9028 32.0729 75.2318 32.0729C75.4361 32.0729 75.62 32.1145 75.7773 32.1979C75.9368 32.2813 76.0663 32.4052 76.163 32.565C76.2573 32.7214 76.3058 32.8846 76.3058 33.0502C76.3058 33.2378 76.2502 33.4417 76.14 33.6571C76.0325 33.8655 75.8426 34.1052 75.5584 34.3901L75.4168 34.5325H76.3299V35.2783H73.9886V34.8475L74.9584 33.8991C75.1773 33.6883 75.3214 33.5193 75.389 33.3988ZM76.1134 44.127L75.2803 45.688C75.1775 45.8791 75.1086 46.0262 75.0782 46.1258C75.0467 46.2242 75.0311 46.3273 75.0311 46.4303C75.0311 46.6955 75.1338 46.9329 75.3371 47.1368C75.5426 47.3417 75.8014 47.446 76.1074 47.446C76.4012 47.446 76.6552 47.3464 76.8621 47.1495C77.0702 46.9526 77.1752 46.7083 77.1752 46.4246C77.1752 46.1316 77.0738 45.8826 76.8706 45.6846C76.7145 45.5329 76.532 45.4379 76.324 45.402L76.8246 44.4686L76.1134 44.127ZM76.3651 46.4164C76.3651 46.4987 76.3384 46.5647 76.2865 46.6168C76.1823 46.7187 76.0325 46.7268 75.9212 46.6156C75.8679 46.5623 75.8414 46.4975 75.8414 46.4164C75.8414 46.3354 75.8667 46.2705 75.9175 46.2184C75.966 46.1686 76.0228 46.1443 76.0952 46.1443C76.1739 46.1443 76.2368 46.1686 76.2865 46.2196C76.3396 46.2717 76.3651 46.3342 76.3651 46.4164ZM75.1883 60.2552L74.355 61.8161C74.2522 62.0074 74.1833 62.1543 74.1532 62.254C74.1217 62.3524 74.1058 62.4554 74.1058 62.5584C74.1058 62.8237 74.2088 63.0611 74.4118 63.2648C74.6175 63.4699 74.8764 63.574 75.1824 63.574C75.4761 63.574 75.7302 63.4745 75.9368 63.2777C76.1449 63.0807 76.2502 62.8363 76.2502 62.5526C76.2502 62.2598 76.1486 62.0108 75.9453 61.8126C75.7892 61.6609 75.6067 61.566 75.3987 61.5301L75.8994 60.5968L75.1883 60.2552ZM75.4398 62.5446C75.4398 62.6269 75.4131 62.6929 75.3612 62.7448C75.2573 62.8469 75.106 62.8549 74.9959 62.7437C74.9428 62.6906 74.9161 62.6257 74.9161 62.5446C74.9161 62.4634 74.9417 62.3986 74.9925 62.3467C75.0407 62.2968 75.0975 62.2724 75.1702 62.2724C75.2488 62.2724 75.3115 62.2968 75.3612 62.3478C75.4145 62.3998 75.4398 62.4623 75.4398 62.5446ZM67.0805 54.8239C67.1761 55.052 67.3138 55.2246 67.4892 55.3393C67.6658 55.4526 67.8812 55.5106 68.1327 55.5106C68.3867 55.5106 68.6007 55.4526 68.7688 55.3393C68.9368 55.2257 69.0725 55.0497 69.1692 54.8147C69.2115 54.7126 69.2428 54.597 69.2672 54.4648V54.8437H70.5876V55.4377H71.398V54.8437H71.6665V54.0965H71.398V52.2322H70.6336L69.3047 54.1244C69.3095 54.0446 69.3106 53.9611 69.3106 53.872C69.3106 53.4782 69.2646 53.1644 69.1715 52.9386C69.0759 52.7023 68.9357 52.5239 68.7566 52.4083C68.5766 52.2913 68.3612 52.2322 68.1157 52.2322C67.7359 52.2322 67.4336 52.3816 67.2171 52.6768C67.0309 52.9398 66.9403 53.3405 66.9403 53.8998C66.9403 54.3005 66.9863 54.6028 67.0805 54.8239ZM70.2552 54.0965L70.5876 53.6287V54.0965H70.2552ZM67.7626 53.9113C67.7626 53.6416 67.7819 53.4366 67.8182 53.3023C67.8509 53.1818 67.8957 53.0984 67.9513 53.0545C68.0021 53.0138 68.0612 52.9931 68.129 52.9931C68.1906 52.9931 68.2826 53.0103 68.3709 53.1517C68.4242 53.2372 68.4883 53.4331 68.4883 53.8789C68.4883 54.231 68.4435 54.4811 68.3552 54.6211C68.2778 54.7462 68.1932 54.7625 68.129 54.7625C68.0649 54.7625 67.9706 54.7462 67.8812 54.6085C67.8267 54.5262 67.7626 54.3386 67.7626 53.9113ZM75.1883 48.1593L74.355 49.7204C74.2522 49.9114 74.1833 50.0585 74.1532 50.1581C74.1217 50.2565 74.1058 50.3596 74.1058 50.4627C74.1058 50.7279 74.2088 50.9653 74.4118 51.169C74.6175 51.374 74.8764 51.4782 75.1824 51.4782C75.4761 51.4782 75.7302 51.3786 75.9368 51.1818C76.1449 50.9849 76.2502 50.7406 76.2502 50.4569C76.2502 50.1639 76.1486 49.9149 75.9453 49.7169C75.7892 49.5652 75.6067 49.4702 75.3987 49.4343L75.8994 48.5009L75.1883 48.1593ZM75.4398 50.4488C75.4398 50.531 75.4131 50.597 75.3612 50.6491C75.2573 50.751 75.106 50.7591 74.9959 50.648C74.9428 50.5947 74.9161 50.5298 74.9161 50.4488C74.9161 50.3677 74.9417 50.3029 74.9925 50.2507C75.0407 50.2009 75.0975 50.1766 75.1702 50.1766C75.2488 50.1766 75.3115 50.2009 75.3612 50.2519C75.4145 50.304 75.4398 50.3666 75.4398 50.4488ZM72.8541 43.4553L73.6874 41.892C73.7927 41.6963 73.8591 41.5538 73.8895 41.4565C73.9207 41.3592 73.9366 41.2573 73.9366 41.1531C73.9366 40.8868 73.8338 40.6482 73.6306 40.4456C73.4249 40.2406 73.1663 40.1364 72.8589 40.1364C72.5663 40.1364 72.3125 40.236 72.1056 40.4328C71.8975 40.6297 71.7922 40.874 71.7922 41.1601C71.7922 41.4519 71.8938 41.6997 72.0971 41.8977C72.2532 42.0506 72.4382 42.1456 72.6463 42.1815L72.143 43.116L72.8541 43.4553ZM72.6026 41.1659C72.6026 41.0848 72.6293 41.0188 72.6824 40.9667C72.7368 40.9146 72.7961 40.8891 72.8699 40.8891C72.9375 40.8891 72.9932 40.9146 73.0465 40.9667C73.101 41.0211 73.1263 41.0848 73.1263 41.167C73.1263 41.2469 73.101 41.3106 73.0502 41.3639C72.9472 41.4669 72.7791 41.4588 72.6812 41.3616C72.6281 41.3094 72.6026 41.2458 72.6026 41.1659ZM87.229 42.5821C87.2931 42.5219 87.3246 42.4501 87.3246 42.3633C87.3246 42.2683 87.2824 42.1919 87.1927 42.1236C87.0948 42.0494 86.9472 42.0112 86.7513 42.0089L86.6292 42.0077V41.3083L86.7428 41.3002C86.8952 41.2886 86.9727 41.2666 87.0102 41.2492C87.0561 41.2284 87.0925 41.1994 87.1178 41.1635C87.1419 41.1288 87.1541 41.0941 87.1541 41.0582C87.1541 41.0118 87.1384 40.9783 87.1058 40.9481C87.0851 40.9296 87.0465 40.903 86.9642 40.903C86.9074 40.903 86.8603 40.9192 86.8143 40.9516C86.7695 40.984 86.738 41.0257 86.7198 41.0778L86.6934 41.1601H85.9083L85.9265 41.0269C85.9591 40.7872 86.0522 40.5915 86.2023 40.4444C86.4104 40.2394 86.6727 40.1364 86.9835 40.1364C87.2617 40.1364 87.5 40.2232 87.6922 40.3946C87.8858 40.5671 87.9826 40.7779 87.9826 41.0188C87.9826 41.1705 87.9389 41.3106 87.8518 41.4369C87.8083 41.4994 87.7552 41.5561 87.6911 41.6071C87.7975 41.665 87.8858 41.7403 87.9582 41.8317C88.078 41.9846 88.1384 42.163 88.1384 42.3656C88.1384 42.6574 88.0249 42.9087 87.7998 43.1114C87.5773 43.3129 87.292 43.4148 86.9509 43.4148C86.6244 43.4148 86.3548 43.3187 86.1467 43.1276C85.9387 42.9365 85.8237 42.676 85.8056 42.3552L85.7984 42.2301H86.6049L86.6207 42.3297C86.64 42.4513 86.6824 42.5393 86.7442 42.5937C86.8674 42.7014 87.0996 42.7014 87.229 42.5821ZM69.3106 38.3738C69.3106 38.5695 69.3589 38.749 69.4571 38.9077C69.5561 39.0675 69.6892 39.1879 69.8548 39.2678C70.0157 39.3442 70.2297 39.3825 70.4911 39.3825C70.7377 39.3825 70.9458 39.3419 71.109 39.262C71.2759 39.1798 71.4113 39.057 71.5092 38.8972C71.6072 38.7363 71.6568 38.5603 71.6568 38.3738C71.6568 38.2012 71.6145 38.038 71.5299 37.8886C71.467 37.7786 71.386 37.6824 71.2856 37.6025C71.3545 37.5203 71.4053 37.4439 71.438 37.3709C71.4851 37.269 71.5081 37.1555 71.5081 37.0351C71.5081 36.8672 71.4633 36.7085 71.3764 36.5638C71.2856 36.4155 71.1635 36.3009 71.0111 36.2221C70.704 36.0635 70.2552 36.067 69.9529 36.221C69.7957 36.2997 69.6711 36.4121 69.584 36.5545C69.4957 36.6969 69.4522 36.8556 69.4522 37.027C69.4522 37.1544 69.4787 37.276 69.5309 37.3883C69.5658 37.4647 69.6118 37.5365 69.6711 37.6072C69.5683 37.6963 69.4872 37.7948 69.4279 37.9025C69.3492 38.0449 69.3106 38.2047 69.3106 38.3738ZM70.6276 37.2239C70.5479 37.3014 70.4088 37.3038 70.3276 37.2239C70.2853 37.1822 70.2649 37.1335 70.2649 37.0722C70.2649 37.0096 70.283 36.9645 70.3228 36.9263C70.3591 36.8892 70.4051 36.8718 70.4656 36.8718C70.5357 36.8718 70.5876 36.8892 70.6288 36.9274C70.6676 36.9621 70.6858 37.0073 70.6858 37.0687C70.6858 37.1358 70.6663 37.1856 70.6276 37.2239ZM70.4886 38.0333C70.5927 38.0333 70.6761 38.0634 70.7437 38.1225C70.809 38.1827 70.8405 38.251 70.8405 38.3367C70.8405 38.4224 70.8115 38.4884 70.7497 38.5417C70.6253 38.6517 70.3458 38.6552 70.2164 38.5359C70.1511 38.4769 70.121 38.4097 70.121 38.3252C70.121 38.2476 70.1536 38.1839 70.2212 38.1248C70.2927 38.0634 70.381 38.0333 70.4886 38.0333ZM70.4715 40.0958L69.6384 41.6569C69.5357 41.8479 69.4667 41.995 69.4364 42.0946C69.4049 42.193 69.3892 42.2961 69.3892 42.3992C69.3892 42.6644 69.492 42.9018 69.6952 43.1056C69.9007 43.3106 70.1596 43.4148 70.4656 43.4148C70.7594 43.4148 71.0134 43.3152 71.2203 43.1183C71.4283 42.9214 71.5334 42.6771 71.5334 42.3934C71.5334 42.1004 71.432 41.8514 71.2288 41.6534C71.0727 41.5017 70.8902 41.4067 70.6821 41.3708L71.1828 40.4374L70.4715 40.0958ZM70.7233 42.3853C70.7233 42.4675 70.6966 42.5335 70.6447 42.5856C70.5394 42.6864 70.3906 42.6957 70.2794 42.5845C70.226 42.5312 70.1996 42.4663 70.1996 42.3853C70.1996 42.3042 70.2249 42.2394 70.2757 42.1873C70.3242 42.1374 70.381 42.1131 70.4536 42.1131C70.532 42.1131 70.595 42.1375 70.6447 42.1884C70.6978 42.2405 70.7233 42.3031 70.7233 42.3853ZM73.0306 53.5582C73.0948 53.4423 73.1288 53.3393 73.1288 53.2524C73.1288 53.1736 73.1021 53.1099 73.0488 53.0602C72.9412 52.9582 72.7405 52.9501 72.6207 53.0775C72.5578 53.1446 72.5251 53.2398 72.5203 53.36L72.5168 53.4747H71.7065L71.7125 53.3508C71.7283 53.0103 71.843 52.7347 72.0559 52.5345C72.2699 52.334 72.5446 52.2322 72.8736 52.2322C73.078 52.2322 73.2617 52.2738 73.4189 52.3572C73.5787 52.4407 73.7081 52.5646 73.8046 52.7244C73.8991 52.8807 73.9474 53.0439 73.9474 53.2097C73.9474 53.3972 73.8918 53.6009 73.7819 53.8163C73.6741 54.0248 73.4842 54.2646 73.2 54.5494L73.0587 54.692H73.9715V55.4377H71.6302V55.0069L72.6003 54.0584C72.8191 53.8476 72.963 53.6786 73.0306 53.5582ZM72.8299 36.0635L71.9966 37.6245C71.8938 37.8156 71.8249 37.9627 71.7948 38.0623C71.7633 38.1607 71.7476 38.2638 71.7476 38.3668C71.7476 38.632 71.8504 38.8694 72.0536 39.0733C72.2591 39.2782 72.518 39.3825 72.824 39.3825C73.1177 39.3825 73.3718 39.2829 73.5787 39.086C73.7867 38.8891 73.8918 38.6448 73.8918 38.3611C73.8918 38.0681 73.7902 37.8191 73.587 37.6211C73.4311 37.4694 73.2483 37.3744 73.0405 37.3385L73.5412 36.4051L72.8299 36.0635ZM73.0814 38.353C73.0814 38.4352 73.055 38.5012 73.0028 38.5533C72.8978 38.654 72.749 38.6633 72.6378 38.5521C72.5844 38.4989 72.5578 38.434 72.5578 38.353C72.5578 38.2719 72.5833 38.207 72.6341 38.1549C72.6824 38.1051 72.7394 38.0808 72.8118 38.0808C72.8904 38.0808 72.9534 38.1051 73.0028 38.1561C73.0561 38.2082 73.0814 38.2707 73.0814 38.353ZM69.5246 51.1887L70.6276 49.0267H69.4341V48.2728H71.6653L71.6532 48.7326L70.2334 51.5189L69.5246 51.1887ZM71.7355 45.8015C71.7355 45.4923 71.8093 45.2132 71.9568 44.9724C72.1019 44.7315 72.3148 44.5346 72.5881 44.3875C73.0863 44.1177 73.703 44.0934 74.2414 44.3297C74.4892 44.4373 74.7047 44.5925 74.8824 44.7906L74.9584 44.8763L74.3805 45.4032L74.2957 45.3163C74.0442 45.0615 73.7709 44.9376 73.4612 44.9376C73.2049 44.9376 72.9945 45.0198 72.818 45.1878C72.6437 45.3534 72.5578 45.5549 72.5578 45.8027C72.5578 45.9752 72.5966 46.1281 72.6727 46.259C72.7502 46.391 72.8566 46.4917 72.998 46.567C73.258 46.7071 73.6136 46.7118 73.8784 46.6006C74.0019 46.5473 74.1433 46.4454 74.2982 46.2983L74.3876 46.2138L74.9499 46.7743L74.863 46.8565C74.6246 47.08 74.4047 47.2294 74.1904 47.3151C73.9778 47.402 73.7334 47.446 73.4624 47.446C72.9605 47.446 72.5421 47.2908 72.2205 46.9839C71.8987 46.6782 71.7355 46.2798 71.7355 45.8015ZM75.3044 55.4377H76.1148V54.8437H76.3833V54.0965H76.1148V52.2322H75.3504L74.0042 54.1487L73.9837 54.1789V54.8437H75.3044V55.4377ZM74.9718 54.0965L75.3044 53.6287V54.0965H74.9718ZM69.6952 47.1368C69.9007 47.3417 70.1596 47.446 70.4656 47.446C70.7596 47.446 71.0134 47.3464 71.2203 47.1495C71.4283 46.9526 71.5334 46.7083 71.5334 46.4246C71.5334 46.1316 71.432 45.8826 71.2288 45.6846C71.0727 45.5329 70.8902 45.4379 70.6821 45.402L71.1828 44.4686L70.4715 44.127L69.6384 45.688C69.5357 45.8791 69.4667 46.0262 69.4364 46.1258C69.4049 46.2242 69.3892 46.3273 69.3892 46.4303C69.3892 46.6955 69.492 46.9329 69.6952 47.1368ZM70.1996 46.4164C70.1996 46.3354 70.2249 46.2705 70.2757 46.2184C70.3242 46.1686 70.381 46.1443 70.4536 46.1443C70.532 46.1443 70.595 46.1686 70.6447 46.2196C70.6978 46.2717 70.7233 46.3342 70.7233 46.4164C70.7233 46.4987 70.6966 46.5647 70.6447 46.6168C70.5394 46.7187 70.3906 46.7268 70.2794 46.6156C70.226 46.5624 70.1996 46.4975 70.1996 46.4164ZM74.5715 59.4271C74.7322 59.5034 74.9465 59.5418 75.2076 59.5418C75.4543 59.5418 75.6623 59.5011 75.8256 59.4214C75.9925 59.3391 76.1281 59.2163 76.226 59.0565C76.324 58.8956 76.3736 58.7195 76.3736 58.5331C76.3736 58.3605 76.3311 58.1972 76.2465 58.0478C76.1837 57.9379 76.1026 57.8418 76.0021 57.7618C76.0711 57.6795 76.1219 57.6032 76.1545 57.5301C76.2017 57.4283 76.2247 57.3149 76.2247 57.1945C76.2247 57.0264 76.1801 56.8678 76.0929 56.723C76.0021 56.5749 75.8801 56.4602 75.7276 56.3814C75.4217 56.2228 74.9718 56.2262 74.6695 56.3802C74.5122 56.4591 74.3876 56.5713 74.3005 56.7138C74.2122 56.8563 74.1688 57.0149 74.1688 57.1862C74.1688 57.3136 74.1955 57.4352 74.2474 57.5476C74.2824 57.6241 74.3283 57.6959 74.3876 57.7664C74.2849 57.8556 74.2037 57.954 74.1446 58.0618C74.066 58.2041 74.0272 58.3641 74.0272 58.5331C74.0272 58.7287 74.0757 58.9083 74.1736 59.0669C74.2727 59.2267 74.4058 59.3471 74.5715 59.4271ZM75.3442 57.3832C75.2644 57.4607 75.1253 57.463 75.0444 57.3832C75.0021 57.3414 74.9814 57.2929 74.9814 57.2315C74.9814 57.169 74.9996 57.1237 75.0396 57.0855C75.0759 57.0485 75.1217 57.031 75.1824 57.031C75.2525 57.031 75.3044 57.0485 75.3456 57.0867C75.3842 57.1214 75.4023 57.1667 75.4023 57.228C75.4023 57.2952 75.383 57.3451 75.3442 57.3832ZM75.2051 58.1926C75.3093 58.1926 75.3927 58.2228 75.4605 58.2818C75.5258 58.3421 75.5571 58.4103 75.5571 58.4961C75.5571 58.5818 75.5281 58.6478 75.4665 58.7009C75.343 58.811 75.0626 58.8145 74.9331 58.6952C74.8679 58.6361 74.8375 58.569 74.8375 58.4844C74.8375 58.4069 74.8702 58.3432 74.938 58.2841C75.0092 58.2228 75.0975 58.1926 75.2051 58.1926ZM72.206 63.4028C72.3826 63.5161 72.5977 63.574 72.8492 63.574C73.1033 63.574 73.3173 63.5161 73.4856 63.4028C73.6536 63.2892 73.789 63.1131 73.8858 62.8782C73.9814 62.6464 74.0272 62.3384 74.0272 61.9354C74.0272 61.5416 73.9812 61.2278 73.8881 61.0021C73.7927 60.7657 73.6525 60.5876 73.4734 60.4717C73.2932 60.3547 73.078 60.2956 72.8325 60.2956C72.4527 60.2956 72.1504 60.4451 71.9338 60.7405C71.7476 61.0032 71.6568 61.4039 71.6568 61.9632C71.6568 62.3639 71.7028 62.6662 71.7971 62.8874C71.8927 63.1154 72.0306 63.288 72.206 63.4028ZM72.4791 61.9749C72.4791 61.7051 72.4987 61.5 72.5348 61.3657C72.5676 61.2453 72.6122 61.1618 72.6679 61.1179C72.7187 61.0772 72.778 61.0566 72.8458 61.0566C72.9074 61.0566 72.9994 61.0738 73.0876 61.2152C73.1407 61.3009 73.2049 61.4966 73.2049 61.9423C73.2049 62.2945 73.16 62.5446 73.0718 62.6846C72.9945 62.8099 72.9097 62.826 72.8458 62.826C72.7817 62.826 72.6872 62.8099 72.5977 62.672C72.5433 62.5897 72.4791 62.4021 72.4791 61.9749ZM67.0805 42.7281C67.1761 42.9562 67.3138 43.1288 67.4892 43.2434C67.6658 43.3569 67.8812 43.4148 68.1327 43.4148C68.3867 43.4148 68.6007 43.3569 68.7688 43.2434C68.9368 43.1299 69.0725 42.9539 69.1692 42.7188C69.2646 42.4872 69.3106 42.1791 69.3106 41.7761C69.3106 41.3824 69.2646 41.0686 69.1715 40.8428C69.0759 40.6065 68.9357 40.4282 68.7566 40.3124C68.5766 40.1954 68.3612 40.1363 68.1157 40.1363C67.7359 40.1363 67.4336 40.2857 67.2171 40.581C67.0309 40.8439 66.9403 41.2446 66.9403 41.8039C66.9403 42.2046 66.9863 42.5069 67.0805 42.7281ZM67.7626 41.8155C67.7626 41.5457 67.7819 41.3407 67.8182 41.2064C67.8509 41.0859 67.8957 41.0026 67.9513 40.9586C68.0021 40.918 68.0612 40.8972 68.129 40.8972C68.1906 40.8972 68.2826 40.9146 68.3709 41.0558C68.4242 41.1415 68.4883 41.3372 68.4883 41.7831C68.4883 42.1351 68.4435 42.3853 68.3552 42.5254C68.2778 42.6505 68.1932 42.6667 68.129 42.6667C68.0649 42.6667 67.9706 42.6505 67.8812 42.5126C67.8267 42.4304 67.7626 42.2428 67.7626 41.8155ZM67.0805 50.7916C67.1761 51.0198 67.3138 51.1922 67.4892 51.3069C67.6658 51.4205 67.8812 51.4782 68.1327 51.4782C68.3867 51.4782 68.6007 51.4205 68.7688 51.3069C68.9368 51.1933 69.0725 51.0175 69.1692 50.7823C69.2646 50.5507 69.3106 50.2426 69.3106 49.8396C69.3106 49.4459 69.2646 49.1321 69.1715 48.9063C69.0759 48.67 68.9357 48.4917 68.7566 48.3759C68.5766 48.2589 68.3612 48.1998 68.1157 48.1998C67.7359 48.1998 67.4336 48.3492 67.2171 48.6445C67.0309 48.9074 66.9403 49.3081 66.9403 49.8674C66.9403 50.2681 66.9863 50.5704 67.0805 50.7916ZM67.7626 49.879C67.7626 49.6092 67.7819 49.4042 67.8182 49.2699C67.8509 49.1494 67.8957 49.0661 67.9513 49.022C68.0021 48.9815 68.0612 48.9607 68.129 48.9607C68.1906 48.9607 68.2826 48.978 68.3709 49.1193C68.4242 49.205 68.4883 49.4007 68.4883 49.8466C68.4883 50.1986 68.4435 50.4488 68.3552 50.5889C68.2778 50.714 68.1932 50.7302 68.129 50.7302C68.0649 50.7302 67.9706 50.714 67.8812 50.5761C67.8267 50.4939 67.7626 50.3063 67.7626 49.879ZM75.2125 39.423L76.0458 37.8596C76.1509 37.6639 76.2175 37.5215 76.2476 37.4242C76.2791 37.3269 76.2948 37.225 76.2948 37.1208C76.2948 36.8544 76.192 36.6159 75.989 36.4132C75.7833 36.2083 75.5244 36.104 75.2173 36.104C74.9246 36.104 74.6706 36.2036 74.464 36.4005C74.2559 36.5974 74.1506 36.8417 74.1506 37.1277C74.1506 37.4196 74.2522 37.6674 74.4554 37.8654C74.6113 38.0183 74.7964 38.1132 75.0044 38.1491L74.5014 39.0837L75.2125 39.423ZM74.961 37.1335C74.961 37.0525 74.9876 36.9865 75.0407 36.9343C75.0952 36.8822 75.1545 36.8568 75.2281 36.8568C75.2959 36.8568 75.3515 36.8822 75.4049 36.9343C75.4591 36.9888 75.4847 37.0525 75.4847 37.1347C75.4847 37.2146 75.4591 37.2783 75.4083 37.3316C75.3056 37.4358 75.1375 37.4277 75.0396 37.3292C74.9863 37.2771 74.961 37.2134 74.961 37.1335ZM71.883 51.1887L72.986 49.0267H71.7922V48.2728H74.0237L74.0115 48.7326L72.5918 51.5189L71.883 51.1887ZM74.1506 40.2093H76.3819L76.3699 40.669L74.9502 43.4553L74.2414 43.1253L75.3444 40.9632H74.1506V40.2093ZM71.6134 63.5011H69.272V63.0703L70.2419 62.1218C70.4607 61.911 70.6046 61.7421 70.6725 61.6216C70.7366 61.5057 70.7704 61.4028 70.7704 61.3159C70.7704 61.2372 70.7437 61.1733 70.6906 61.1237C70.5828 61.023 70.3821 61.0136 70.2623 61.1409C70.1996 61.2083 70.167 61.3032 70.1621 61.4237L70.1584 61.5382H69.3481L69.3541 61.4143C69.3699 61.0738 69.4849 60.7982 69.6975 60.5979C69.9118 60.3975 70.1863 60.2956 70.5152 60.2956C70.7196 60.2956 70.9035 60.3372 71.0605 60.4207C71.2203 60.5041 71.3497 60.628 71.4465 60.7878C71.5407 60.9441 71.589 61.1074 71.589 61.2731C71.589 61.4607 71.5334 61.6644 71.4235 61.8798C71.3159 62.0883 71.126 62.328 70.8417 62.6129L70.7003 62.7554H71.6134V63.5011ZM71.6532 56.7961L70.2334 59.5823L69.5246 59.2522L70.6276 57.0901H69.4341V56.3363H71.6653L71.6532 56.7961ZM72.8299 56.2228L71.9966 57.7839C71.8938 57.9749 71.8249 58.1221 71.7948 58.2216C71.7633 58.32 71.7476 58.423 71.7476 58.5262C71.7476 58.7913 71.8504 59.0287 72.0536 59.2326C72.2591 59.4375 72.518 59.5418 72.824 59.5418C73.1177 59.5418 73.3718 59.4421 73.5787 59.2453C73.7867 59.0485 73.8918 58.8041 73.8918 58.5205C73.8918 58.2274 73.7902 57.9784 73.587 57.7805C73.4311 57.6287 73.2483 57.5338 73.0405 57.4977L73.5412 56.5644L72.8299 56.2228ZM73.0814 58.5122C73.0814 58.5945 73.055 58.6605 73.0028 58.7126C72.8978 58.8133 72.749 58.8225 72.6378 58.7115C72.5844 58.6582 72.5578 58.5933 72.5578 58.5122C72.5578 58.4313 72.5833 58.3664 72.6341 58.3143C72.6824 58.2644 72.7394 58.2402 72.8118 58.2402C72.8904 58.2402 72.9534 58.2644 73.0028 58.3154C73.0561 58.3676 73.0814 58.4301 73.0814 58.5122ZM69.255 35.2783H66.9136V34.8475L67.8835 33.8991C68.1024 33.6883 68.2463 33.5193 68.3141 33.3988C68.3782 33.283 68.412 33.18 68.412 33.0931C68.412 33.0143 68.3853 32.9506 68.3322 32.9009C68.2233 32.7989 68.0237 32.7908 67.9042 32.9182C67.8412 32.9854 67.8086 33.0803 67.8037 33.2008L67.8 33.3154H66.9897L66.9959 33.1915C67.0115 32.8511 67.1265 32.5754 67.3394 32.3751C67.5534 32.1748 67.8279 32.0729 68.1568 32.0729C68.3612 32.0729 68.5451 32.1145 68.7023 32.1979C68.8619 32.2813 68.9913 32.4052 69.0881 32.565C69.1824 32.7214 69.2309 32.8846 69.2309 33.0502C69.2309 33.2378 69.1752 33.4417 69.0651 33.6571C68.9575 33.8655 68.7676 34.1052 68.4835 34.3901L68.3419 34.5325H69.255V35.2783ZM70.6276 28.8674H69.4341V28.1135H71.6653L71.6532 28.5732L70.2334 31.3595L69.5246 31.0294L70.6276 28.8674ZM68.2692 28.8674H67.0757V28.1135H69.3069L69.295 28.5732L67.875 31.3595L67.1663 31.0294L68.2692 28.8674ZM69.6481 67.3182C69.44 67.1269 69.3251 66.8664 69.3069 66.5457L69.2998 66.4207H70.1065L70.1221 66.5202C70.1414 66.6418 70.1837 66.7299 70.2467 66.7841C70.3688 66.892 70.601 66.8908 70.7304 66.7726C70.7945 66.7124 70.826 66.6407 70.826 66.5538C70.826 66.4589 70.7837 66.3823 70.6941 66.314C70.5961 66.24 70.4486 66.2016 70.2527 66.1993L70.1306 66.1982V65.4988L70.2442 65.4906C70.3966 65.4791 70.4741 65.457 70.5116 65.4398C70.5575 65.4189 70.5938 65.3899 70.6191 65.354C70.6433 65.3193 70.6555 65.2846 70.6555 65.2487C70.6555 65.2023 70.6398 65.1687 70.6072 65.1386C70.5865 65.12 70.5479 65.0936 70.4656 65.0936C70.4088 65.0936 70.3617 65.1097 70.3157 65.1421C70.2709 65.1745 70.2394 65.2163 70.2212 65.2683L70.1948 65.3506H69.4097L69.4279 65.2175C69.4605 64.9777 69.5536 64.7818 69.7037 64.6349C69.9118 64.4299 70.1741 64.3269 70.4849 64.3269C70.763 64.3269 71.0014 64.4138 71.1936 64.5851C71.386 64.7577 71.484 64.9685 71.484 65.2092C71.484 65.3609 71.4403 65.5011 71.3534 65.6274C71.3097 65.6899 71.2566 65.7467 71.1925 65.7975C71.2989 65.8554 71.3872 65.9308 71.4598 66.0223C71.5794 66.174 71.6398 66.3533 71.6398 66.5561C71.6398 66.8478 71.5263 67.0993 71.3012 67.3018C71.0787 67.5034 70.7934 67.6053 70.4522 67.6053C70.1258 67.6053 69.8561 67.5092 69.6481 67.3182ZM68.1072 67.6053C68.4012 67.6053 68.6552 67.5057 68.8619 67.3087C69.0699 67.112 69.1752 66.8676 69.1752 66.5839C69.1752 66.2908 69.0736 66.0418 68.8704 65.8439C68.7143 65.6922 68.5318 65.5972 68.3237 65.5614L68.8244 64.6278L68.1134 64.2862L67.2801 65.8474C67.1773 66.0384 67.1083 66.1855 67.078 66.2851C67.0467 66.3834 67.0309 66.4867 67.0309 66.5897C67.0309 66.8549 67.1336 67.0922 67.3368 67.2961C67.5426 67.5009 67.8012 67.6053 68.1072 67.6053ZM67.8412 66.5759C67.8412 66.4947 67.8667 66.4299 67.9173 66.3777C67.9658 66.3278 68.0226 66.3037 68.0952 66.3037C68.1738 66.3037 68.2366 66.3278 68.2863 66.3788C68.3394 66.431 68.3649 66.4936 68.3649 66.5759C68.3649 66.6579 68.3382 66.7239 68.2863 66.7761C68.1798 66.8779 68.0322 66.8862 67.921 66.7749C67.8679 66.7216 67.8412 66.6568 67.8412 66.5759ZM67.0757 68.4322H69.3069L69.295 68.892L67.875 71.6782L67.1663 71.348L68.2692 69.186H67.0757V68.4322ZM72.824 31.319C73.1177 31.319 73.3718 31.2194 73.5787 31.0225C73.7867 30.8256 73.8918 30.5813 73.8918 30.2976C73.8918 30.0046 73.7902 29.7556 73.587 29.5576C73.4311 29.4059 73.2483 29.3109 73.0405 29.275L73.5412 28.3416L72.8299 28L71.9966 29.5611C71.8938 29.7521 71.8249 29.8992 71.7948 29.9988C71.7633 30.0972 71.7476 30.2003 71.7476 30.3034C71.7476 30.5686 71.8504 30.806 72.0536 31.0098C72.2591 31.2147 72.518 31.319 72.824 31.319ZM72.5578 30.2895C72.5578 30.2084 72.5833 30.1435 72.6341 30.0914C72.6824 30.0416 72.7394 30.0173 72.8118 30.0173C72.8904 30.0173 72.9534 30.0416 73.0028 30.0926C73.0561 30.1447 73.0814 30.2072 73.0814 30.2895C73.0814 30.3717 73.055 30.4377 73.0028 30.4898C72.8978 30.5917 72.749 30.5998 72.6378 30.4886C72.5844 30.4354 72.5578 30.3705 72.5578 30.2895ZM67.332 63.3391C67.124 63.1805 66.9874 62.9639 66.9244 62.694L66.8906 62.5503H67.7251L67.7603 62.6152C67.7964 62.6871 67.8437 62.7391 67.9017 62.7749C68.0274 62.8549 68.2102 62.8423 68.3201 62.7299C68.3879 62.6639 68.4205 62.5805 68.4205 62.474C68.4205 62.3697 68.3902 62.2876 68.3286 62.2251C68.238 62.1301 68.1253 62.1023 67.9888 62.166C67.9403 62.1901 67.8909 62.2274 67.8424 62.277L67.7929 62.3269L67.1361 62.1855L67.5486 60.3685H69.1897V61.1156H68.1787L68.1171 61.3772C68.129 61.3772 68.1398 61.3772 68.1509 61.3772C68.4591 61.3772 68.7191 61.4791 68.9237 61.6818C69.1281 61.8809 69.2309 62.1405 69.2309 62.452C69.2309 62.7657 69.1182 63.0333 68.8945 63.2487C68.6697 63.4653 68.3938 63.574 68.0734 63.574C67.7893 63.574 67.54 63.4954 67.332 63.3391ZM71.5299 32.7793C71.4343 32.543 71.2941 32.3647 71.115 32.2489C70.9348 32.1319 70.7196 32.0729 70.4741 32.0729C70.0943 32.0729 69.792 32.2223 69.5755 32.5175C69.3892 32.7804 69.2984 33.1811 69.2984 33.7404C69.2984 34.1411 69.3444 34.4434 69.4389 34.6646C69.5343 34.8927 69.6722 35.0653 69.8476 35.1799C70.0242 35.2934 70.2394 35.3513 70.4911 35.3513C70.7449 35.3513 70.9591 35.2934 71.1272 35.1799C71.2952 35.0664 71.4306 34.8904 71.5274 34.6553C71.5697 34.5534 71.6012 34.4376 71.6253 34.3056V34.6843H72.946V35.2783H73.7564V34.6843H74.0249V33.9373H73.7564V32.0729H72.992L71.6628 33.9651C71.6676 33.8852 71.669 33.8018 71.669 33.7127C71.669 33.3189 71.623 33.0051 71.5299 32.7793ZM70.8465 33.7196C70.8465 34.0716 70.8019 34.3218 70.7136 34.4619C70.6361 34.587 70.5515 34.6032 70.4874 34.6032C70.4233 34.6032 70.329 34.587 70.2394 34.4492C70.1851 34.3669 70.121 34.1793 70.121 33.752C70.121 33.4822 70.1403 33.2772 70.1766 33.1429C70.2092 33.0224 70.2541 32.9391 70.3097 32.8951C70.3605 32.8545 70.4196 32.8337 70.4874 32.8337C70.549 32.8337 70.641 32.8511 70.7292 32.9923C70.7826 33.078 70.8465 33.2737 70.8465 33.7196ZM72.6134 33.9373L72.946 33.4695V33.9373H72.6134ZM81.0732 34.4712L81.0394 34.3276H81.8738L81.9088 34.3924C81.9451 34.4642 81.9925 34.5163 82.0504 34.5522C82.1761 34.6321 82.3589 34.6194 82.4688 34.5071C82.5366 34.4411 82.5692 34.3577 82.5692 34.2511C82.5692 34.1469 82.5389 34.0647 82.4773 34.0022C82.3865 33.9083 82.2752 33.8782 82.1375 33.9431C82.089 33.9674 82.0396 34.0045 81.9911 34.0543L81.9417 34.1041L81.2849 33.9628L81.6973 32.1458H83.3384V32.8928H82.3274L82.2656 33.1545C82.2777 33.1545 82.2886 33.1545 82.2996 33.1545C82.6079 33.1545 82.8679 33.2564 83.0722 33.4591C83.2766 33.6582 83.3796 33.9176 83.3796 34.2291C83.3796 34.543 83.267 34.8105 83.0433 35.0259C82.8184 35.2424 82.5426 35.3513 82.2221 35.3513C81.938 35.3513 81.6888 35.2726 81.4807 35.1162C81.2727 34.9576 81.1361 34.741 81.0732 34.4712ZM82.418 28.8674H81.2244V28.1135H83.4557L83.4437 28.5732L82.0237 31.3595L81.315 31.0294L82.418 28.8674ZM79.7198 30.0856L79.2168 31.0202L79.9279 31.3595L80.7612 29.7961C80.8665 29.6004 80.9329 29.458 80.9633 29.3607C80.9945 29.2634 81.0104 29.1615 81.0104 29.0573C81.0104 28.791 80.9076 28.5524 80.7044 28.3497C80.4987 28.1448 80.2401 28.0405 79.9327 28.0405C79.6401 28.0405 79.386 28.1401 79.1794 28.337C78.9713 28.5339 78.866 28.7782 78.866 29.0642C78.866 29.3561 78.9676 29.6039 79.1709 29.8019C79.3269 29.9548 79.5118 30.0497 79.7198 30.0856ZM79.6764 29.07C79.6764 28.989 79.703 28.923 79.7561 28.8709C79.8106 28.8187 79.8699 28.7933 79.9437 28.7933C80.0113 28.7933 80.0669 28.8187 80.1203 28.8709C80.1745 28.9253 80.2 28.989 80.2 29.0712C80.2 29.1511 80.1745 29.2148 80.1237 29.2681C80.021 29.3711 79.8529 29.3642 79.755 29.2657C79.7017 29.2136 79.6764 29.1499 79.6764 29.07ZM83.4159 29.9872V30.6519H84.7364V31.246H85.5467V30.6519H85.8152V29.905H85.5467V28.0405H84.7824L83.4364 29.9571L83.4159 29.9872ZM84.404 29.905L84.7364 29.4371V29.905H84.404ZM77.5405 31.319C77.8345 31.319 78.0883 31.2194 78.2952 31.0225C78.5033 30.8256 78.6086 30.5813 78.6086 30.2976C78.6086 30.0046 78.507 29.7556 78.3037 29.5576C78.1476 29.4059 77.9651 29.3109 77.7571 29.275L78.2578 28.3416L77.5465 28L76.7134 29.5611C76.6106 29.7521 76.5417 29.8992 76.5113 29.9988C76.4798 30.0972 76.4642 30.2003 76.4642 30.3034C76.4642 30.5686 76.5669 30.806 76.7702 31.0098C76.9757 31.2147 77.2345 31.319 77.5405 31.319ZM77.2745 30.2895C77.2745 30.2084 77.2998 30.1435 77.3506 30.0914C77.3991 30.0416 77.4559 30.0173 77.5286 30.0173C77.6072 30.0173 77.6699 30.0416 77.7196 30.0926C77.7727 30.1447 77.7982 30.2072 77.7982 30.2895C77.7982 30.3717 77.7715 30.4377 77.7196 30.4898C77.6155 30.5917 77.4656 30.5998 77.3543 30.4886C77.3012 30.4354 77.2745 30.3705 77.2745 30.2895ZM74.5715 31.2043C74.7322 31.2807 74.9465 31.319 75.2076 31.319C75.4543 31.319 75.6623 31.2784 75.8256 31.1985C75.9925 31.1163 76.1281 30.9935 76.226 30.8337C76.324 30.6728 76.3736 30.4968 76.3736 30.3103C76.3736 30.1378 76.3311 29.9745 76.2465 29.8251C76.1837 29.7151 76.1026 29.6189 76.0021 29.539C76.0711 29.4568 76.1219 29.3804 76.1545 29.3074C76.2017 29.2055 76.2247 29.092 76.2247 28.9716C76.2247 28.8037 76.1801 28.645 76.0929 28.5003C76.0021 28.352 75.8801 28.2374 75.7276 28.1586C75.4217 28 74.9718 28.0035 74.6695 28.1575C74.5122 28.2362 74.3876 28.3486 74.3005 28.491C74.2122 28.6334 74.1688 28.7921 74.1688 28.9635C74.1688 29.0909 74.1955 29.2125 74.2474 29.3248C74.2824 29.4012 74.3283 29.473 74.3876 29.5437C74.2849 29.6328 74.2037 29.7313 74.1446 29.839C74.066 29.9814 74.0272 30.1412 74.0272 30.3103C74.0272 30.506 74.0757 30.6855 74.1736 30.8442C74.2727 31.004 74.4058 31.1244 74.5715 31.2043ZM75.3442 29.1604C75.2644 29.2391 75.1253 29.2403 75.0444 29.1604C75.0021 29.1187 74.9814 29.07 74.9814 29.0087C74.9814 28.9461 74.9996 28.901 75.0396 28.8627C75.0759 28.8257 75.1217 28.8083 75.1824 28.8083C75.2525 28.8083 75.3044 28.8257 75.3456 28.8639C75.3842 28.8986 75.4023 28.9438 75.4023 29.0052C75.4023 29.0724 75.383 29.1221 75.3442 29.1604ZM75.2051 29.9698C75.3093 29.9698 75.3927 29.9999 75.4605 30.059C75.5258 30.1192 75.5571 30.1875 75.5571 30.2732C75.5571 30.3589 75.5281 30.4249 75.4665 30.4782C75.343 30.5882 75.0626 30.5917 74.9331 30.4724C74.8679 30.4134 74.8375 30.3462 74.8375 30.2617C74.8375 30.1841 74.8702 30.1204 74.938 30.0613C75.0092 29.9999 75.0975 29.9698 75.2051 29.9698ZM78.4729 32.0729H77.7088L76.3626 33.9894L76.3421 34.0195V34.6843H77.6628V35.2783H78.4729V34.6843H78.7414V33.9373H78.4729V32.0729ZM77.3302 33.9373L77.6628 33.4695V33.9373H77.3302ZM79.7198 34.118L79.2168 35.0525L79.9279 35.3918L80.7612 33.8285C80.8665 33.6328 80.9329 33.4903 80.9633 33.393C80.9945 33.2957 81.0104 33.1938 81.0104 33.0896C81.0104 32.8233 80.9076 32.5847 80.7044 32.3821C80.4987 32.1771 80.2401 32.0729 79.9327 32.0729C79.6401 32.0729 79.386 32.1725 79.1794 32.3693C78.9713 32.5662 78.866 32.8105 78.866 33.0966C78.866 33.3884 78.9676 33.6362 79.1709 33.8343C79.3269 33.9871 79.5118 34.0821 79.7198 34.118ZM79.6764 33.1023C79.6764 33.0213 79.703 32.9553 79.7561 32.9032C79.8106 32.8511 79.8699 32.8256 79.9437 32.8256C80.0113 32.8256 80.0669 32.8511 80.1203 32.9032C80.1745 32.9576 80.2 33.0213 80.2 33.1035C80.2 33.1834 80.1745 33.2471 80.1237 33.3004C80.021 33.4046 79.8529 33.3965 79.755 33.2981C79.7017 33.246 79.6764 33.1823 79.6764 33.1023ZM95.6224 64.5028C95.4421 64.386 95.2267 64.3269 94.9812 64.3269C94.6014 64.3269 94.2991 64.4763 94.0826 64.7715C93.8964 65.0345 93.8058 65.4352 93.8058 65.9945C93.8058 66.3952 93.8518 66.6972 93.946 66.9186C94.0417 67.1467 94.1794 67.3193 94.3548 67.4338C94.5313 67.5474 94.7467 67.6053 94.9982 67.6053C95.2522 67.6053 95.4663 67.5474 95.6343 67.4338C95.8026 67.3205 95.938 67.1444 96.0348 66.9092C96.1302 66.6777 96.1761 66.3697 96.1761 65.9667C96.1761 65.5729 96.1302 65.2591 96.0371 65.0333C95.9414 64.797 95.8012 64.6186 95.6224 64.5028ZM95.3538 65.9736C95.3538 66.3255 95.309 66.5756 95.2207 66.7159C95.1433 66.8409 95.0587 66.8572 94.9945 66.8572C94.9304 66.8572 94.8361 66.8409 94.7467 66.7032C94.6922 66.6209 94.6281 66.4333 94.6281 66.006C94.6281 65.7361 94.6474 65.5313 94.6837 65.3968C94.7164 65.2763 94.7612 65.1931 94.8168 65.149C94.8676 65.1085 94.9269 65.0876 94.9945 65.0876C95.0564 65.0876 95.1481 65.1051 95.2364 65.2462C95.2897 65.332 95.3538 65.5278 95.3538 65.9736ZM91.924 70.8188H92.8371V71.5646H90.4957V71.1338L91.4656 70.1853C91.6844 69.9747 91.8283 69.8055 91.8961 69.6851C91.9603 69.5694 91.9941 69.4662 91.9941 69.3793C91.9941 69.3007 91.9674 69.237 91.9143 69.1871C91.8067 69.0853 91.6058 69.0772 91.486 69.2046C91.4233 69.2717 91.3906 69.3667 91.3858 69.4871L91.3821 69.6018H90.5718L90.578 69.4779C90.5936 69.1375 90.7086 68.8618 90.9214 68.6614C91.1354 68.4611 91.4099 68.3591 91.7389 68.3591C91.9433 68.3591 92.1272 68.4009 92.2844 68.4841C92.444 68.5676 92.5734 68.6915 92.6702 68.8513C92.7644 69.0076 92.8129 69.171 92.8129 69.3366C92.8129 69.5241 92.7573 69.728 92.6472 69.9434C92.5396 70.1517 92.3497 70.3915 92.0653 70.6763L91.924 70.8188ZM92.849 66.7864H93.7621V67.5322H91.4207V67.1016L92.3909 66.1531C92.6097 65.9423 92.7536 65.7733 92.8212 65.6529C92.8853 65.537 92.9194 65.434 92.9194 65.3471C92.9194 65.2683 92.8927 65.2046 92.8394 65.1547C92.7306 65.054 92.5311 65.0448 92.4113 65.1722C92.3483 65.2393 92.3157 65.3343 92.3109 65.4547L92.3074 65.5694H91.4971L91.503 65.4455C91.5187 65.1051 91.6336 64.8294 91.8465 64.629C92.0605 64.4287 92.3352 64.3269 92.6642 64.3269C92.8685 64.3269 93.0522 64.3685 93.2095 64.452C93.3692 64.5352 93.4984 64.6591 93.5952 64.8191C93.6897 64.9754 93.738 65.1386 93.738 65.3041C93.738 65.4917 93.6823 65.6956 93.5722 65.911C93.4646 66.1195 93.2748 66.3591 92.9906 66.6441L92.849 66.7864ZM87.189 69.5936L87.6897 68.6602L86.9787 68.3186L86.1453 69.8798C86.0426 70.0708 85.9736 70.2177 85.9435 70.3175C85.912 70.4159 85.8964 70.5189 85.8964 70.6221C85.8964 70.8871 85.9991 71.1246 86.2023 71.3283C86.4079 71.5333 86.6667 71.6375 86.9727 71.6375C87.2665 71.6375 87.5205 71.5379 87.7274 71.3411C87.9352 71.1441 88.0405 70.9 88.0405 70.6161C88.0405 70.3232 87.9389 70.0743 87.7357 69.8761C87.5798 69.7246 87.3971 69.6294 87.189 69.5936ZM87.2302 70.608C87.2302 70.6903 87.2037 70.7563 87.1515 70.8085C87.0453 70.9103 86.8977 70.9184 86.7865 70.8074C86.7331 70.754 86.7065 70.6892 86.7065 70.608C86.7065 70.5271 86.732 70.4621 86.7828 70.4101C86.8311 70.3602 86.8881 70.3359 86.9605 70.3359C87.0391 70.3359 87.1021 70.3602 87.1515 70.4113C87.2049 70.4632 87.2302 70.5257 87.2302 70.608ZM69.4341 68.4322H71.6653L71.6532 68.892L70.2334 71.6782L69.5246 71.348L70.6276 69.186H69.4341V68.4322ZM86.6656 33.3154H85.8552L85.8612 33.1915C85.8768 32.8511 85.9918 32.5754 86.2046 32.3751C86.4187 32.1748 86.6934 32.0729 87.0223 32.0729C87.2267 32.0729 87.4104 32.1145 87.5676 32.1979C87.7274 32.2813 87.8568 32.4052 87.9534 32.565C88.0479 32.7214 88.0961 32.8846 88.0961 33.0502C88.0961 33.2378 88.0405 33.4417 87.9304 33.6571C87.8228 33.8655 87.6329 34.1052 87.3488 34.3901L87.2072 34.5325H88.1203V35.2783H85.7789V34.8475L86.749 33.8991C86.9679 33.6883 87.1118 33.5192 87.1794 33.3988C87.2435 33.283 87.2775 33.1799 87.2775 33.0931C87.2775 33.0143 87.2509 32.9506 87.1975 32.9008C87.0888 32.7989 86.8892 32.7908 86.7695 32.9182C86.7067 32.9854 86.6738 33.0803 86.669 33.2008L86.6656 33.3154ZM99.5166 57.7805C99.3605 57.6287 99.178 57.5338 98.9699 57.4977L99.4706 56.5644L98.7594 56.2228L97.926 57.7839C97.8233 57.9749 97.7543 58.1221 97.7242 58.2216C97.6927 58.32 97.6771 58.423 97.6771 58.5262C97.6771 58.7913 97.7798 59.0287 97.983 59.2326C98.1886 59.4375 98.4474 59.5418 98.7534 59.5418C99.0472 59.5418 99.3012 59.4421 99.5081 59.2453C99.7161 59.0485 99.8212 58.8041 99.8212 58.5205C99.8212 58.2274 99.7196 57.9784 99.5166 57.7805ZM99.0111 58.5122C99.0111 58.5945 98.9844 58.6605 98.9325 58.7126C98.8283 58.8133 98.6773 58.8225 98.5672 58.7115C98.5138 58.6582 98.4874 58.5933 98.4874 58.5122C98.4874 58.4313 98.5127 58.3664 98.5635 58.3143C98.6118 58.2644 98.6688 58.2402 98.7412 58.2402C98.8198 58.2402 98.8828 58.2644 98.9325 58.3154C98.9856 58.3676 99.0111 58.4301 99.0111 58.5122ZM95.4518 62.7554H96.3649V63.5011H94.0235V63.0703L94.9934 62.1218C95.2122 61.911 95.3561 61.7421 95.424 61.6216C95.4881 61.5057 95.5219 61.4028 95.5219 61.3159C95.5219 61.2372 95.4952 61.1733 95.4421 61.1237C95.3345 61.023 95.1336 61.0136 95.0138 61.1409C94.9511 61.2083 94.9184 61.3032 94.9136 61.4237L94.9099 61.5382H94.0996L94.1056 61.4143C94.1214 61.0738 94.2364 60.7982 94.4492 60.5979C94.6633 60.3975 94.9378 60.2956 95.2667 60.2956C95.4711 60.2956 95.655 60.3372 95.8122 60.4207C95.9718 60.5041 96.1012 60.628 96.198 60.7878C96.2922 60.9441 96.3407 61.1074 96.3407 61.2731C96.3407 61.4607 96.2851 61.6644 96.175 61.8798C96.0674 62.0883 95.8775 62.328 95.5932 62.6129L95.4518 62.7554ZM98.2249 60.4717C98.0446 60.3547 97.8295 60.2956 97.584 60.2956C97.2042 60.2956 96.9019 60.4451 96.6853 60.7405C96.4991 61.0032 96.4083 61.4039 96.4083 61.9632C96.4083 62.3639 96.4543 62.6662 96.5486 62.8874C96.6442 63.1154 96.7821 63.288 96.9573 63.4028C97.1341 63.5161 97.3492 63.574 97.6007 63.574C97.8548 63.574 98.0688 63.5161 98.2371 63.4028C98.4051 63.2892 98.5405 63.1131 98.6373 62.8782C98.7329 62.6464 98.7787 62.3384 98.7787 61.9354C98.7787 61.5416 98.7327 61.2278 98.6396 61.0021C98.5442 60.7657 98.404 60.5876 98.2249 60.4717ZM97.9564 61.9423C97.9564 62.2945 97.9115 62.5446 97.8233 62.6846C97.746 62.8099 97.6612 62.826 97.5973 62.826C97.5332 62.826 97.4387 62.8099 97.3492 62.672C97.2948 62.5897 97.2308 62.4021 97.2308 61.9749C97.2308 61.7051 97.2502 61.5 97.2865 61.3657C97.3191 61.2453 97.3637 61.1618 97.4194 61.1179C97.4702 61.0772 97.5295 61.0566 97.5973 61.0566C97.6589 61.0566 97.7509 61.0738 97.8391 61.2152C97.8922 61.3009 97.9564 61.4966 97.9564 61.9423ZM90.1474 69.7453C90.3518 69.9446 90.4545 70.2039 90.4545 70.5154C90.4545 70.8292 90.3421 71.0968 90.1182 71.3122C89.8934 71.5287 89.6175 71.6375 89.2971 71.6375C89.0129 71.6375 88.7637 71.5588 88.5557 71.4025C88.3476 71.2439 88.2111 71.0274 88.1481 70.7575L88.1143 70.6138H88.9488L88.984 70.6786C89.0201 70.7506 89.0674 70.8025 89.1253 70.8386C89.2511 70.9184 89.4338 70.9057 89.5437 70.7933C89.6115 70.7274 89.6442 70.6439 89.6442 70.5375C89.6442 70.4331 89.6141 70.351 89.5522 70.2885C89.4617 70.1936 89.3504 70.1646 89.2125 70.2294C89.164 70.2538 89.1145 70.2908 89.066 70.3405L89.0166 70.3903L88.3598 70.249L88.7722 68.4322H90.4134V69.1791H89.4024L89.3407 69.4407C89.3527 69.4407 89.3637 69.4407 89.3745 69.4407C89.6828 69.4407 89.9428 69.5428 90.1474 69.7453ZM73.0405 65.5614L73.5412 64.6278L72.8299 64.2862L71.9966 65.8474C71.8938 66.0384 71.8249 66.1855 71.7948 66.2851C71.7633 66.3834 71.7476 66.4867 71.7476 66.5897C71.7476 66.8549 71.8504 67.0922 72.0536 67.2961C72.2591 67.5009 72.518 67.6053 72.824 67.6053C73.1177 67.6053 73.3718 67.5057 73.5787 67.3087C73.7867 67.112 73.8918 66.8676 73.8918 66.5839C73.8918 66.2908 73.7902 66.0418 73.587 65.8439C73.4311 65.6922 73.2483 65.5972 73.0405 65.5614ZM73.0814 66.5759C73.0814 66.6579 73.055 66.7239 73.0028 66.7761C72.8978 66.8779 72.749 66.8862 72.6378 66.7749C72.5844 66.7216 72.5578 66.6568 72.5578 66.5759C72.5578 66.4947 72.5833 66.4299 72.6341 66.3777C72.6824 66.3278 72.7394 66.3037 72.8118 66.3037C72.8904 66.3037 72.9534 66.3278 73.0028 66.3788C73.0561 66.431 73.0814 66.4936 73.0814 66.5759ZM76.0021 69.8577C76.0711 69.7754 76.1219 69.6991 76.1545 69.626C76.2017 69.5241 76.2247 69.4106 76.2247 69.2901C76.2247 69.1223 76.1801 68.9637 76.0929 68.8189C76.0021 68.6706 75.8801 68.5561 75.7276 68.4772C75.4217 68.3198 74.9718 68.3209 74.6695 68.4761C74.5122 68.5549 74.3876 68.6671 74.3005 68.8097C74.2122 68.952 74.1688 69.1108 74.1688 69.2821C74.1688 69.4094 74.1955 69.531 74.2474 69.6434C74.2824 69.7198 74.3283 69.7917 74.3876 69.8623C74.2849 69.9515 74.2037 70.0499 74.1446 70.1577C74.066 70.3 74.0272 70.4598 74.0272 70.629C74.0272 70.8246 74.0757 71.0041 74.1736 71.1628C74.2727 71.3225 74.4058 71.443 74.5715 71.523C74.7322 71.5993 74.9465 71.6375 75.2076 71.6375C75.4543 71.6375 75.6623 71.597 75.8256 71.5172C75.9925 71.4349 76.1279 71.3122 76.226 71.1524C76.324 70.9915 76.3734 70.8154 76.3734 70.629C76.3734 70.4563 76.3311 70.2931 76.2465 70.1437C76.1837 70.0338 76.1026 69.9375 76.0021 69.8577ZM75.3442 69.4791C75.2644 69.5577 75.1253 69.5589 75.0444 69.4791C75.0021 69.4372 74.9814 69.3887 74.9814 69.3274C74.9814 69.2648 74.9996 69.2195 75.0396 69.1814C75.0759 69.1444 75.1217 69.1269 75.1824 69.1269C75.2525 69.1269 75.3044 69.1444 75.3456 69.1825C75.3842 69.2172 75.4023 69.2625 75.4023 69.3239C75.4023 69.391 75.383 69.4407 75.3442 69.4791ZM74.938 70.38C75.0092 70.3186 75.0975 70.2885 75.2051 70.2885C75.3093 70.2885 75.3927 70.3186 75.4605 70.3777C75.5258 70.4379 75.5571 70.5062 75.5571 70.592C75.5571 70.6775 75.5281 70.7434 75.4665 70.7968C75.343 70.9057 75.0626 70.9115 74.9331 70.791C74.8679 70.732 74.8375 70.6648 74.8375 70.5802C74.8375 70.5028 74.8702 70.4391 74.938 70.38ZM73.0405 69.5936L73.5412 68.6602L72.8299 68.3186L71.9966 69.8798C71.8938 70.0708 71.8249 70.2177 71.7948 70.3175C71.7633 70.4159 71.7476 70.5189 71.7476 70.6221C71.7476 70.8871 71.8504 71.1246 72.0536 71.3283C72.2591 71.5333 72.518 71.6375 72.824 71.6375C73.1177 71.6375 73.3718 71.5379 73.5787 71.3411C73.7867 71.1441 73.8918 70.9 73.8918 70.6161C73.8918 70.3232 73.7902 70.0743 73.587 69.8761C73.4311 69.7246 73.2483 69.6294 73.0405 69.5936ZM73.0814 70.608C73.0814 70.6903 73.055 70.7563 73.0028 70.8085C72.8978 70.9103 72.749 70.9184 72.6378 70.8074C72.5844 70.754 72.5578 70.6892 72.5578 70.608C72.5578 70.5271 72.5833 70.4621 72.6341 70.4101C72.6824 70.3602 72.7394 70.3359 72.8118 70.3359C72.8904 70.3359 72.9534 70.3602 73.0028 70.4113C73.0561 70.4632 73.0814 70.5257 73.0814 70.608ZM77.7571 69.5936L78.2578 68.6602L77.5467 68.3186L76.7134 69.8798C76.6106 70.0708 76.5417 70.2177 76.5113 70.3175C76.4798 70.4159 76.4642 70.5189 76.4642 70.6221C76.4642 70.8871 76.5669 71.1246 76.7702 71.3283C76.9757 71.5333 77.2345 71.6375 77.5405 71.6375C77.8345 71.6375 78.0883 71.5379 78.2952 71.3411C78.5033 71.1441 78.6086 70.9 78.6086 70.6161C78.6086 70.3232 78.507 70.0743 78.3037 69.8761C78.1476 69.7246 77.9651 69.6294 77.7571 69.5936ZM77.7982 70.608C77.7982 70.6903 77.7715 70.7563 77.7196 70.8085C77.6155 70.9103 77.4656 70.9184 77.3543 70.8074C77.3012 70.754 77.2745 70.6892 77.2745 70.608C77.2745 70.5271 77.2998 70.4621 77.3506 70.4101C77.3991 70.3602 77.4559 70.3359 77.5286 70.3359C77.6072 70.3359 77.6699 70.3602 77.7196 70.4113C77.7727 70.4632 77.7982 70.5257 77.7982 70.608ZM83.4437 68.892L82.0237 71.6782L81.315 71.348L82.418 69.186H81.2244V68.4322H83.4557L83.4437 68.892ZM85.5467 68.3591H84.7824L83.4364 70.2756L83.4159 70.3057V70.9706H84.7364V71.5646H85.5467V70.9706H85.8152V70.2237H85.5467V68.3591ZM84.404 70.2237L84.7364 69.7559V70.2237H84.404ZM79.9327 68.3591C79.6401 68.3591 79.386 68.4586 79.1794 68.6556C78.9713 68.8524 78.866 69.0968 78.866 69.3828C78.866 69.6747 78.9676 69.9225 79.1709 70.1205C79.3269 70.2733 79.512 70.3683 79.7198 70.4041L79.2168 71.3389L79.9279 71.6782L80.7612 70.1147C80.8665 69.9191 80.9329 69.7766 80.9633 69.6793C80.9945 69.5821 81.0104 69.4802 81.0104 69.3759C81.0104 69.1097 80.9076 68.871 80.7044 68.6683C80.4987 68.4634 80.2398 68.3591 79.9327 68.3591ZM80.2 69.3899C80.2 69.4697 80.1745 69.5333 80.1237 69.5867C80.021 69.6897 79.8529 69.6816 79.755 69.5844C79.7017 69.5322 79.6764 69.4685 79.6764 69.3887C79.6764 69.3076 79.703 69.2416 79.7561 69.1894C79.8106 69.1375 79.8699 69.112 79.9437 69.112C80.0113 69.112 80.0669 69.1375 80.1203 69.1894C80.1745 69.2439 80.2 69.3076 80.2 69.3899ZM94.4237 50.5171L94.2823 50.6595H95.1955V51.4053H92.8538V50.9745L93.824 50.0261C94.0428 49.8153 94.1867 49.6462 94.2543 49.5258C94.3184 49.41 94.3525 49.3069 94.3525 49.2201C94.3525 49.1413 94.3258 49.0776 94.2725 49.0278C94.1649 48.9271 93.9642 48.9178 93.8444 49.0452C93.7817 49.1124 93.7488 49.2073 93.7442 49.3278L93.7405 49.4424H92.9302L92.9361 49.3185C92.952 48.978 93.0667 48.7024 93.2796 48.5021C93.4936 48.3017 93.7683 48.1998 94.0973 48.1998C94.3017 48.1998 94.4853 48.2415 94.6426 48.3249C94.8023 48.4083 94.9318 48.5322 95.0286 48.692C95.1228 48.8483 95.1711 49.0116 95.1711 49.1772C95.1711 49.3648 95.1154 49.5686 95.0056 49.784C94.8977 49.9925 94.7079 50.2322 94.4237 50.5171ZM91.7244 44.6122C91.5382 44.8751 91.4474 45.2758 91.4474 45.8351C91.4474 46.2358 91.4934 46.538 91.5876 46.7592C91.6833 46.9874 91.8212 47.1599 91.9964 47.2746C92.1732 47.388 92.3883 47.446 92.6398 47.446C92.8938 47.446 93.1079 47.388 93.2761 47.2746C93.4442 47.1611 93.5796 46.9851 93.6764 46.75C93.7718 46.5184 93.8177 46.2103 93.8177 45.8073C93.8177 45.4136 93.7718 45.0997 93.6787 44.8739C93.5833 44.6377 93.4428 44.4593 93.264 44.3435C93.0837 44.2266 92.8686 44.1675 92.623 44.1675C92.2433 44.1675 91.9407 44.3169 91.7244 44.6122ZM92.8782 45.087C92.9313 45.1727 92.9955 45.3684 92.9955 45.8143C92.9955 46.1663 92.9506 46.4165 92.8623 46.5566C92.7851 46.6816 92.7003 46.6978 92.6364 46.6978C92.5722 46.6978 92.4778 46.6816 92.3883 46.5438C92.3338 46.4616 92.2697 46.274 92.2697 45.8467C92.2697 45.5769 92.2892 45.3719 92.3253 45.2375C92.3582 45.1171 92.4028 45.0337 92.4584 44.9897C92.5092 44.9492 92.5686 44.9283 92.6364 44.9283C92.698 44.9283 92.7899 44.9457 92.8782 45.087ZM86.9727 31.319C87.2665 31.319 87.5205 31.2194 87.7274 31.0225C87.9352 30.8256 88.0405 30.5813 88.0405 30.2976C88.0405 30.0046 87.9389 29.7556 87.7357 29.5576C87.5798 29.4059 87.3971 29.3109 87.189 29.275L87.6897 28.3416L86.9787 28L86.1453 29.5611C86.0426 29.7521 85.9736 29.8992 85.9435 29.9988C85.912 30.0972 85.8964 30.2003 85.8964 30.3034C85.8964 30.5686 85.9991 30.806 86.2023 31.0098C86.4079 31.2147 86.6667 31.319 86.9727 31.319ZM86.7065 30.2895C86.7065 30.2084 86.732 30.1435 86.7828 30.0914C86.8311 30.0416 86.8881 30.0173 86.9605 30.0173C87.0391 30.0173 87.1021 30.0416 87.1515 30.0926C87.2049 30.1447 87.2302 30.2072 87.2302 30.2895C87.2302 30.3717 87.2037 30.4377 87.1515 30.4898C87.0451 30.5917 86.8977 30.5998 86.7865 30.4886C86.7331 30.4354 86.7065 30.3705 86.7065 30.2895ZM89.3371 48.1593L88.5037 49.7204C88.401 49.9114 88.332 50.0585 88.3017 50.1581C88.2704 50.2565 88.2545 50.3596 88.2545 50.4627C88.2545 50.7279 88.3573 50.9653 88.5605 51.169C88.7663 51.374 89.0249 51.4782 89.3308 51.4782C89.6249 51.4782 89.8789 51.3786 90.0856 51.1818C90.2936 50.9849 90.3989 50.7406 90.3989 50.4569C90.3989 50.1639 90.2973 49.9149 90.0941 49.7169C89.938 49.5652 89.7554 49.4702 89.5474 49.4343L90.0481 48.5009L89.3371 48.1593ZM89.5886 50.4488C89.5886 50.531 89.5619 50.597 89.5099 50.6491C89.4046 50.751 89.2559 50.7591 89.1446 50.648C89.0915 50.5947 89.0649 50.5298 89.0649 50.4488C89.0649 50.3677 89.0904 50.3029 89.1412 50.2507C89.1895 50.2009 89.2463 50.1766 89.3189 50.1766C89.3975 50.1766 89.4603 50.2009 89.5099 50.2519C89.5633 50.304 89.5886 50.3666 89.5886 50.4488ZM94.0451 40.0958L93.212 41.6569C93.109 41.8479 93.0403 41.995 93.0099 42.0946C92.9784 42.193 92.9628 42.2961 92.9628 42.3992C92.9628 42.6644 93.0656 42.9018 93.2688 43.1056C93.4743 43.3106 93.7332 43.4148 94.0391 43.4148C94.3329 43.4148 94.5869 43.3152 94.7938 43.1183C95.0019 42.9214 95.1069 42.6771 95.1069 42.3934C95.1069 42.1004 95.0053 41.8514 94.8023 41.6534C94.6463 41.5017 94.4637 41.4067 94.2557 41.3708L94.7564 40.4374L94.0451 40.0958ZM94.2968 42.3853C94.2968 42.4675 94.2702 42.5335 94.2182 42.5856C94.1141 42.6864 93.9642 42.6957 93.8529 42.5845C93.7996 42.5312 93.7732 42.4663 93.7732 42.3853C93.7732 42.3042 93.7984 42.2394 93.8492 42.1873C93.8978 42.1374 93.9545 42.1131 94.0269 42.1131C94.1056 42.1131 94.1686 42.1375 94.2182 42.1884C94.2713 42.2405 94.2968 42.3031 94.2968 42.3853ZM90.6322 46.4848L90.4909 46.6272H91.404V47.373H89.0626V46.9422L90.0325 45.9937C90.2513 45.783 90.3952 45.6139 90.463 45.4935C90.527 45.3777 90.561 45.2746 90.561 45.1877C90.561 45.109 90.5343 45.0453 90.4812 44.9955C90.3734 44.8936 90.1727 44.8855 90.0529 45.0129C89.9902 45.08 89.9575 45.175 89.9527 45.2954L89.949 45.4101H89.1387L89.1446 45.2862C89.1605 44.9457 89.2754 44.6701 89.4883 44.4698C89.7023 44.2694 89.9768 44.1675 90.3058 44.1675C90.5102 44.1675 90.6941 44.2092 90.8513 44.2926C91.0109 44.376 91.1403 44.4999 91.2371 44.6597C91.3313 44.816 91.3798 44.9793 91.3798 45.1449C91.3798 45.3325 91.3242 45.5363 91.2141 45.7517C91.1063 45.9602 90.9164 46.1999 90.6322 46.4848ZM87.1106 53.2559C87.1106 53.5478 87.212 53.7956 87.4152 53.9936C87.5713 54.1464 87.7564 54.2414 87.9644 54.2772L87.4612 55.2117L88.1725 55.551L89.0056 53.9878C89.1109 53.792 89.1773 53.6497 89.2076 53.5524C89.2391 53.4552 89.2548 53.3531 89.2548 53.249C89.2548 52.9825 89.152 52.7441 88.9488 52.5414C88.7433 52.3363 88.4844 52.2322 88.1773 52.2322C87.8846 52.2322 87.6306 52.3317 87.4237 52.5287C87.2157 52.7255 87.1106 52.9699 87.1106 53.2559ZM87.9207 53.2616C87.9207 53.1807 87.9474 53.1147 88.0007 53.0625C88.055 53.0103 88.1143 52.9848 88.1881 52.9848C88.2559 52.9848 88.3115 53.0103 88.3646 53.0625C88.4191 53.117 88.4444 53.1807 88.4444 53.2628C88.4444 53.3428 88.4191 53.4064 88.3683 53.4598C88.2642 53.5628 88.0973 53.5559 87.9994 53.4575C87.9463 53.4053 87.9207 53.3416 87.9207 53.2616ZM90.4665 55.5106C90.1823 55.5106 89.9331 55.432 89.7253 55.2754C89.5173 55.1168 89.3805 54.9002 89.3177 54.6306L89.2837 54.4869H90.1182L90.1534 54.5517C90.1897 54.6234 90.2368 54.6756 90.2948 54.7115C90.4219 54.7903 90.6021 54.7786 90.7134 54.6664C90.781 54.6005 90.8136 54.517 90.8136 54.4103C90.8136 54.3062 90.7835 54.2239 90.7219 54.1614C90.6311 54.0676 90.5198 54.0386 90.3819 54.1023C90.3336 54.1267 90.284 54.1637 90.2357 54.2136L90.186 54.2634L89.5292 54.1221L89.9417 52.3051H91.5828V53.052H90.5718L90.5102 53.3138C90.5223 53.3138 90.5332 53.3138 90.544 53.3138C90.8525 53.3138 91.1125 53.4156 91.3168 53.6184C91.5212 53.8175 91.624 54.077 91.624 54.3885C91.624 54.7023 91.5115 54.9699 91.2879 55.1853C91.0628 55.4018 90.7872 55.5106 90.4665 55.5106ZM92.3302 40.3124C92.1502 40.1954 91.9348 40.1363 91.6892 40.1363C91.3095 40.1363 91.0072 40.2857 90.7906 40.581C90.6044 40.8439 90.5138 41.2446 90.5138 41.8039C90.5138 42.2046 90.5598 42.5069 90.6541 42.7281C90.7497 42.9562 90.8874 43.1288 91.0628 43.2434C91.2394 43.3569 91.4548 43.4148 91.7063 43.4148C91.9603 43.4148 92.1743 43.3569 92.3424 43.2434C92.5104 43.1299 92.646 42.9539 92.7426 42.7188C92.8382 42.4872 92.8842 42.1791 92.8842 41.7762C92.8842 41.3824 92.8382 41.0686 92.7451 40.8428C92.6495 40.6065 92.5092 40.4282 92.3302 40.3124ZM92.0619 41.7831C92.0619 42.1351 92.0171 42.3853 91.9288 42.5254C91.8513 42.6505 91.7667 42.6667 91.7026 42.6667C91.6384 42.6667 91.5442 42.6505 91.4548 42.5127C91.4003 42.4304 91.3361 42.2428 91.3361 41.8155C91.3361 41.5457 91.3555 41.3407 91.3918 41.2064C91.4244 41.0859 91.4692 41.0026 91.5249 40.9586C91.5757 40.918 91.635 40.8972 91.7026 40.8972C91.7642 40.8972 91.8561 40.9146 91.9444 41.0558C91.9977 41.1415 92.0619 41.3372 92.0619 41.7831ZM90.0748 59.2453C90.2828 59.0485 90.3879 58.8041 90.3879 58.5205C90.3879 58.2274 90.2865 57.9784 90.0833 57.7805C89.9272 57.6287 89.7446 57.5338 89.5366 57.4977L90.0373 56.5644L89.326 56.2228L88.4929 57.7839C88.3902 57.9749 88.3212 58.1221 88.2909 58.2216C88.2594 58.32 88.2437 58.423 88.2437 58.5262C88.2437 58.7913 88.3465 59.0287 88.5497 59.2326C88.7552 59.4375 89.0141 59.5418 89.32 59.5418C89.6141 59.5418 89.8679 59.4421 90.0748 59.2453ZM89.0541 58.5122C89.0541 58.4313 89.0794 58.3664 89.1302 58.3143C89.1787 58.2644 89.2354 58.2402 89.3081 58.2402C89.3865 58.2402 89.4495 58.2644 89.4991 58.3154C89.5522 58.3676 89.5778 58.4301 89.5778 58.5122C89.5778 58.5945 89.5511 58.6605 89.4991 58.7126C89.3938 58.8133 89.244 58.8225 89.1338 58.7115C89.0807 58.6582 89.0541 58.5933 89.0541 58.5122ZM95.5932 54.5494L95.4518 54.692H96.3649V55.4377H94.0235V55.0069L94.9934 54.0584C95.2122 53.8476 95.3561 53.6786 95.424 53.5582C95.4881 53.4423 95.5219 53.3393 95.5219 53.2524C95.5219 53.1736 95.4952 53.1099 95.4421 53.0602C95.3345 52.9582 95.1336 52.9501 95.0138 53.0775C94.9511 53.1446 94.9184 53.2398 94.9136 53.36L94.9099 53.4747H94.0996L94.1056 53.3508C94.1214 53.0103 94.2364 52.7347 94.4492 52.5345C94.6633 52.334 94.9378 52.2322 95.2667 52.2322C95.4711 52.2322 95.655 52.2738 95.8122 52.3572C95.9718 52.4407 96.1012 52.5646 96.198 52.7244C96.2922 52.8807 96.3407 53.0439 96.3407 53.2097C96.3407 53.3972 96.2851 53.6009 96.175 53.8163C96.0674 54.0248 95.8775 54.2646 95.5932 54.5494ZM89.4906 36.104L88.1446 38.0206L88.124 38.0507V38.7154H89.4446V39.3095H90.255V38.7154H90.5235V37.9685H90.255V36.104H89.4906ZM89.112 37.9685L89.4446 37.5006V37.9685H89.112ZM94.252 38.5382C94.3198 38.4722 94.3525 38.3889 94.3525 38.2823C94.3525 38.1781 94.3221 38.0959 94.2605 38.0333C94.1697 37.9395 94.0584 37.9094 93.9207 37.9743C93.8722 37.9986 93.8226 38.0356 93.7743 38.0854L93.7246 38.1352L93.0681 37.994L93.4805 36.177H95.1217V36.9239H94.1106L94.0488 37.1857C94.061 37.1857 94.0718 37.1857 94.0826 37.1857C94.3911 37.1857 94.6511 37.2875 94.8555 37.4902C95.0598 37.6894 95.1626 37.9488 95.1626 38.2603C95.1626 38.5741 95.0502 38.8417 94.8265 39.057C94.6014 39.2736 94.3258 39.3825 94.0053 39.3825C93.721 39.3825 93.472 39.3037 93.264 39.1474C93.0559 38.9887 92.9194 38.7722 92.8564 38.5023L92.8226 38.3587H93.6571L93.692 38.4236C93.7283 38.4954 93.7755 38.5475 93.8336 38.5834C93.9605 38.6622 94.1407 38.6506 94.252 38.5382ZM93.7913 55.4377V54.8437H94.0598V54.0965H93.7913V52.2322H93.0269L91.6807 54.1487L91.6603 54.1789V54.8437H92.981V55.4377H93.7913ZM92.6483 54.0965L92.981 53.6287V54.0965H92.6483ZM91.7086 59.5823L92.5419 58.0189C92.6472 57.8232 92.7136 57.6807 92.744 57.5834C92.7752 57.4862 92.7911 57.3844 92.7911 57.28C92.7911 57.0138 92.6883 56.7752 92.4851 56.5726C92.2794 56.3676 92.0207 56.2632 91.7134 56.2632C91.4207 56.2632 91.1667 56.363 90.9601 56.5598C90.752 56.7566 90.6467 57.0009 90.6467 57.2871C90.6467 57.5789 90.7483 57.8267 90.9515 58.0248C91.1076 58.1775 91.2927 58.2726 91.5005 58.3085L90.9975 59.243L91.7086 59.5823ZM91.4571 57.2929C91.4571 57.2117 91.4837 57.1457 91.5368 57.0936C91.5913 57.0416 91.6506 57.0161 91.7244 57.0161C91.792 57.0161 91.8476 57.0416 91.901 57.0936C91.9554 57.148 91.9807 57.2117 91.9807 57.294C91.9807 57.3738 91.9555 57.4377 91.9047 57.4908C91.8005 57.594 91.6325 57.5869 91.5357 57.4885C91.4826 57.4363 91.4571 57.3726 91.4571 57.2929ZM88.1046 45.4935C88.1688 45.3777 88.2026 45.2746 88.2026 45.1877C88.2026 45.109 88.1759 45.0453 88.1228 44.9955C88.0152 44.8936 87.8143 44.8855 87.6948 45.0129C87.6318 45.08 87.5991 45.175 87.5943 45.2954L87.5906 45.4101H86.7803L86.7865 45.2862C86.8021 44.9457 86.9171 44.6701 87.1299 44.4698C87.344 44.2694 87.6184 44.1675 87.9474 44.1675C88.1518 44.1675 88.3357 44.2092 88.4929 44.2926C88.6525 44.376 88.7819 44.4999 88.8787 44.6597C88.9729 44.816 89.0214 44.9793 89.0214 45.1449C89.0214 45.3325 88.9658 45.5363 88.8557 45.7517C88.7481 45.9602 88.5582 46.1999 88.2741 46.4848L88.1325 46.6272H89.0456V47.373H86.7042V46.9422L87.6741 45.9937C87.8929 45.783 88.0368 45.6139 88.1046 45.4935ZM89.5292 41.4623C89.5934 41.3465 89.6272 41.2434 89.6272 41.1566C89.6272 41.0778 89.6007 41.0141 89.5474 40.9643C89.4398 40.8624 89.2391 40.8543 89.1194 40.9817C89.0564 41.0489 89.0237 41.1438 89.0189 41.2643L89.0152 41.3789H88.2051L88.2111 41.255C88.2267 40.9146 88.3417 40.6389 88.5545 40.4386C88.7686 40.2382 89.0433 40.1363 89.372 40.1363C89.5766 40.1363 89.7603 40.178 89.9175 40.2614C90.0773 40.3448 90.2065 40.4687 90.3033 40.6285C90.3978 40.7848 90.446 40.9481 90.446 41.1137C90.446 41.3013 90.3904 41.5051 90.2803 41.7205C90.1727 41.929 89.9828 42.1687 89.6987 42.4536L89.5571 42.596H90.4702V43.3418H88.1288V42.911L89.0989 41.9626C89.3178 41.7518 89.4617 41.5827 89.5292 41.4623ZM88.1725 63.6147L89.0056 62.0513C89.1109 61.8556 89.1773 61.7131 89.2076 61.6159C89.2391 61.5186 89.2548 61.4165 89.2548 61.3124C89.2548 61.046 89.152 60.8076 88.9488 60.6048C88.7433 60.3998 88.4844 60.2956 88.1773 60.2956C87.8846 60.2956 87.6306 60.3952 87.4237 60.5922C87.2157 60.789 87.1106 61.0333 87.1106 61.3193C87.1106 61.6113 87.212 61.8591 87.4152 62.057C87.5713 62.2099 87.7564 62.3048 87.9644 62.3407L87.4612 63.2754L88.1725 63.6147ZM87.9207 61.3251C87.9207 61.2441 87.9474 61.1782 88.0007 61.126C88.055 61.0738 88.1143 61.0483 88.1881 61.0483C88.2559 61.0483 88.3115 61.0738 88.3646 61.126C88.4191 61.1805 88.4444 61.2441 88.4444 61.3262C88.4444 61.4062 88.4191 61.4699 88.3683 61.5232C88.2642 61.6274 88.0973 61.6193 87.9994 61.5209C87.9463 61.4687 87.9207 61.4051 87.9207 61.3251ZM91.1306 48.2728H92.7718V49.0197H91.7607L91.6989 49.2815C91.7111 49.2815 91.7219 49.2815 91.7329 49.2815C92.0412 49.2815 92.3012 49.3834 92.5056 49.586C92.7099 49.7852 92.8129 50.0446 92.8129 50.3561C92.8129 50.67 92.7003 50.9375 92.4766 51.1529C92.2515 51.3694 91.9759 51.4782 91.6554 51.4782C91.3713 51.4782 91.1221 51.3995 90.9141 51.2432C90.706 51.0846 90.5695 50.868 90.5065 50.5982L90.4727 50.4546H91.3072L91.3421 50.5194C91.3784 50.5912 91.4256 50.6433 91.4837 50.6792C91.6095 50.7591 91.7908 50.7464 91.9021 50.6341C91.9699 50.568 92.0026 50.4847 92.0026 50.3781C92.0026 50.2739 91.9722 50.1917 91.9106 50.1292C91.8198 50.0353 91.7074 50.0052 91.5709 50.0701C91.5223 50.0944 91.4727 50.1315 91.4244 50.1813L91.3748 50.2311L90.7182 50.0898L91.1306 48.2728ZM94.2097 32.8997H93.0159V32.1458H95.2474L95.2352 32.6055L93.8154 35.3918L93.1067 35.0618L94.2097 32.8997ZM91.7003 62.5145L91.6929 62.3894H92.4996L92.5152 62.489C92.5348 62.6106 92.5771 62.6986 92.6398 62.7531C92.7621 62.8607 92.9929 62.8607 93.1237 62.7414C93.1876 62.6811 93.2191 62.6094 93.2191 62.5225C93.2191 62.4276 93.1768 62.3513 93.0874 62.2828C92.9895 62.2087 92.8419 62.1706 92.646 62.1683L92.5237 62.1671V61.4676L92.6375 61.4595C92.7899 61.4478 92.8672 61.426 92.9046 61.4085C92.9506 61.3878 92.9869 61.3588 93.0125 61.3228C93.0366 61.288 93.0485 61.2533 93.0485 61.2175C93.0485 61.171 93.0329 61.1375 93.0003 61.1074C92.9798 61.089 92.941 61.0623 92.8589 61.0623C92.8019 61.0623 92.7548 61.0786 92.7088 61.111C92.6642 61.1434 92.6327 61.1851 92.6145 61.2372L92.5879 61.3193H91.803L91.8212 61.1862C91.8538 60.9464 91.9469 60.7508 92.0968 60.6037C92.3049 60.3986 92.5674 60.2956 92.8782 60.2956C93.1564 60.2956 93.3945 60.3825 93.5869 60.554C93.7791 60.7264 93.8771 60.9372 93.8771 61.1782C93.8771 61.3299 93.8336 61.4699 93.7465 61.5961C93.703 61.6586 93.6497 61.7154 93.5856 61.7664C93.692 61.8244 93.7803 61.8995 93.8529 61.991C93.9727 62.1439 94.0331 62.3223 94.0331 62.5248C94.0331 62.8168 93.9194 63.068 93.6945 63.2708C93.472 63.4722 93.1865 63.574 92.8456 63.574C92.5189 63.574 92.2492 63.4779 92.0412 63.2869C91.8332 63.0959 91.7182 62.8352 91.7003 62.5145ZM95.2244 56.7961L93.8044 59.5823L93.0959 59.2522L94.1989 57.0901H93.0051V56.3363H95.2364L95.2244 56.7961ZM91.8513 32.8997H90.6578V32.1458H92.889L92.8768 32.6055L91.4571 35.3918L90.7483 35.0618L91.8513 32.8997ZM96.0902 37.3466H95.28L95.286 37.2227C95.3017 36.8822 95.4166 36.6066 95.6295 36.4063C95.8435 36.2059 96.1182 36.104 96.4472 36.104C96.6515 36.104 96.8352 36.1457 96.9925 36.2291C97.1522 36.3125 97.2814 36.4364 97.3782 36.5962C97.4727 36.7525 97.521 36.9158 97.521 37.0814C97.521 37.269 97.4653 37.4728 97.3552 37.6882C97.2476 37.8967 97.0578 38.1364 96.7736 38.4213L96.632 38.5637H97.5451V39.3095H95.2037V38.8787L96.1738 37.9303C96.3927 37.7195 96.5366 37.5504 96.6044 37.43C96.6683 37.3142 96.7024 37.2111 96.7024 37.1243C96.7024 37.0455 96.6757 36.9818 96.6223 36.932C96.5136 36.8313 96.3141 36.822 96.1943 36.9494C96.1313 37.0166 96.0987 37.1115 96.0938 37.232L96.0902 37.3466ZM89.5437 30.4748C89.6115 30.4087 89.6442 30.3254 89.6442 30.2188C89.6442 30.1146 89.6141 30.0324 89.5522 29.9698C89.4617 29.876 89.3504 29.8459 89.2125 29.9108C89.164 29.9351 89.1145 29.9722 89.066 30.022L89.0166 30.0718L88.3598 29.9305L88.7722 28.1135H90.4134V28.8604H89.4024L89.3407 29.1222C89.3527 29.1222 89.3637 29.1222 89.3745 29.1222C89.6828 29.1222 89.943 29.2241 90.1474 29.4267C90.3518 29.6259 90.4545 29.8853 90.4545 30.1968C90.4545 30.5106 90.3421 30.7782 90.1182 30.9936C89.8934 31.2101 89.6175 31.319 89.2971 31.319C89.0129 31.319 88.7637 31.2402 88.5557 31.0839C88.3476 30.9252 88.2111 30.7087 88.1481 30.4389L88.1143 30.2953H88.9488L88.984 30.3601C89.0201 30.4319 89.0674 30.484 89.1253 30.5199C89.2511 30.5998 89.4338 30.5871 89.5437 30.4748ZM89.9805 32.2489C89.8003 32.1319 89.5849 32.0729 89.3394 32.0729C88.9596 32.0729 88.6573 32.2223 88.4407 32.5175C88.2545 32.7804 88.164 33.1811 88.164 33.7404C88.164 34.1411 88.2099 34.4434 88.3042 34.6646C88.3998 34.8927 88.5375 35.0653 88.7129 35.1799C88.8895 35.2934 89.1049 35.3513 89.3564 35.3513C89.6104 35.3513 89.8244 35.2934 89.9925 35.1799C90.1607 35.0664 90.2961 34.8904 90.3929 34.6553C90.4883 34.4237 90.5343 34.1157 90.5343 33.7127C90.5343 33.3189 90.4883 33.0051 90.3952 32.7793C90.2996 32.543 90.1594 32.3647 89.9805 32.2489ZM89.712 33.7196C89.712 34.0716 89.6672 34.3218 89.5789 34.4619C89.5014 34.587 89.4168 34.6032 89.3527 34.6032C89.2886 34.6032 89.1943 34.587 89.1049 34.4492C89.0504 34.3669 88.9863 34.1793 88.9863 33.752C88.9863 33.4822 89.0056 33.2772 89.0419 33.1429C89.0745 33.0224 89.1194 32.9391 89.175 32.8951C89.2258 32.8545 89.2851 32.8337 89.3527 32.8337C89.4143 32.8337 89.5063 32.8511 89.5945 32.9923C89.6479 33.078 89.712 33.2737 89.712 33.7196ZM91.6807 39.3825C91.9748 39.3825 92.2288 39.2829 92.4354 39.086C92.6435 38.8891 92.7488 38.6448 92.7488 38.3611C92.7488 38.0681 92.6472 37.8191 92.4439 37.6211C92.2879 37.4694 92.1053 37.3744 91.8973 37.3385L92.398 36.4051L91.6869 36.0635L90.8536 37.6246C90.7509 37.8156 90.6819 37.9627 90.6515 38.0623C90.6203 38.1607 90.6044 38.2638 90.6044 38.3668C90.6044 38.632 90.7072 38.8694 90.9104 39.0733C91.1161 39.2782 91.3748 39.3825 91.6807 39.3825ZM91.4148 38.353C91.4148 38.2719 91.44 38.207 91.4908 38.1549C91.5394 38.1051 91.5961 38.0808 91.6688 38.0808C91.7474 38.0808 91.8102 38.1051 91.8598 38.1561C91.9129 38.2082 91.9384 38.2707 91.9384 38.353C91.9384 38.4352 91.9118 38.5012 91.8598 38.5533C91.7545 38.654 91.6058 38.6633 91.4945 38.5521C91.4414 38.4989 91.4148 38.434 91.4148 38.353ZM83.1812 67.6053C83.475 67.6053 83.729 67.5057 83.9359 67.3087C84.144 67.112 84.249 66.8676 84.249 66.5839C84.249 66.2908 84.1474 66.0418 83.9444 65.8439C83.7883 65.6922 83.6056 65.5972 83.3978 65.5614L83.8984 64.6278L83.1872 64.2862L82.3541 65.8474C82.2511 66.0384 82.1821 66.1855 82.152 66.2851C82.1205 66.3834 82.1049 66.4867 82.1049 66.5897C82.1049 66.8549 82.2076 67.0922 82.4109 67.2961C82.6164 67.5009 82.8752 67.6053 83.1812 67.6053ZM82.9152 66.5759C82.9152 66.4947 82.9405 66.4299 82.9913 66.3777C83.0396 66.3278 83.0966 66.3037 83.169 66.3037C83.2476 66.3037 83.3106 66.3278 83.3603 66.3788C83.4134 66.431 83.4387 66.4936 83.4387 66.5759C83.4387 66.6579 83.4122 66.7239 83.3603 66.7761C83.2561 66.8779 83.1051 66.8862 82.995 66.7749C82.9417 66.7216 82.9152 66.6568 82.9152 66.5759ZM82.6442 44.2405H83.6975V47.373H82.8801V44.9943H82.1591L82.6442 44.2405ZM85.9325 36.177H88.164L88.1518 36.6367L86.732 39.423L86.0233 39.0929L87.1263 36.9309H85.9325V36.177ZM91.6881 60.8283L90.2683 63.6147L89.5596 63.2846L90.6626 61.1225H89.4688V60.3685H91.7003L91.6881 60.8283ZM84.5079 44.2405H86.7391L86.7272 44.7002L85.3074 47.4865L84.5987 47.1564L85.7017 44.9944H84.5079V44.2405ZM91.404 67.5322H89.0626V67.1016L90.0325 66.1531C90.2513 65.9423 90.3952 65.7733 90.463 65.6529C90.527 65.537 90.561 65.434 90.561 65.3471C90.561 65.2683 90.5343 65.2046 90.4812 65.1547C90.3734 65.054 90.1727 65.0448 90.0529 65.1722C89.9902 65.2393 89.9575 65.3343 89.9527 65.4547L89.949 65.5694H89.1387L89.1446 65.4455C89.1605 65.1051 89.2755 64.8294 89.4881 64.629C89.7023 64.4287 89.9768 64.3269 90.3058 64.3269C90.5102 64.3269 90.6941 64.3685 90.8511 64.452C91.0109 64.5352 91.1403 64.6591 91.2371 64.8191C91.3313 64.9754 91.3796 65.1386 91.3796 65.3041C91.3796 65.4917 91.324 65.6956 91.2141 65.911C91.1065 66.1195 90.9166 66.3591 90.6322 66.6441L90.4909 66.7864H91.404V67.5322ZM84.3821 51.5189L83.6734 51.1887L84.7764 49.0267H83.5828V48.2728H85.8141L85.8019 48.7326L84.3821 51.5189ZM87.0948 51.4053H87.9051V50.8112H88.1736V50.0643H87.9051V48.1998H87.1407L85.7948 50.1164L85.7741 50.1465V50.8112H87.0948V51.4053ZM86.7621 50.0643L87.0948 49.5964V50.0643H86.7621Z" fill="white"/>
</svg>
