<svg width="100" height="100" viewBox="0 0 100 100" fill="none" xmlns="http://www.w3.org/2000/svg">
<path d="M98 50C98 76.5097 76.5097 98 50 98C23.4903 98 2 76.5097 2 50C2 23.4903 23.4903 2 50 2C76.5097 2 98 23.4903 98 50Z" stroke="white" stroke-width="4"/>
<path d="M63.2271 56.5663C67.0761 56.5663 70.1964 53.4093 70.1964 49.5151C70.1964 45.6208 67.0761 42.4639 63.2271 42.4639C59.3781 42.4639 56.2578 45.6208 56.2578 49.5151C56.2578 53.4093 59.3781 56.5663 63.2271 56.5663Z" fill="white"/>
<path d="M82.2792 59.9315L82.0744 59.6107L82.0198 59.5219C81.2553 58.3206 81.0233 58.068 80.6546 57.5151C75.5557 49.6653 78.4703 44.6209 80.7639 42.0475C81.0437 41.7336 81.3031 41.365 81.542 41.0783C81.8916 40.6739 82.1918 40.2294 82.4362 39.754L82.4772 39.6858C82.9404 38.7605 83.1745 37.7375 83.1598 36.7028C83.0074 35.0049 82.2253 33.4254 80.9671 32.2751C79.709 31.1247 78.0659 30.4868 76.3611 30.4868C74.6564 30.4868 73.0133 31.1247 71.7552 32.2751C70.497 33.4254 69.7148 35.0049 69.5625 36.7028C69.5623 37.8344 69.8488 38.9475 70.3953 39.9383C70.4772 40.1022 70.8663 40.6209 70.9072 40.7097C70.9902 40.8397 71.0862 40.9609 71.1939 41.0714C71.4308 41.365 71.6861 41.6431 71.9584 41.9042C72.6354 42.6574 73.2261 43.484 73.7195 44.3684C74.6978 46.3732 75.1039 48.6091 74.8931 50.8299C74.6823 53.0508 73.8629 55.1704 72.525 56.9554L70.8321 59.3854C70.7782 59.4555 70.7281 59.5284 70.682 59.6039L70.641 59.6585C69.9544 60.7461 69.6009 62.0107 69.6239 63.2967C69.7763 64.9946 70.5584 66.5741 71.8166 67.7245C73.0747 68.8748 74.7178 69.5127 76.4226 69.5127C78.1273 69.5127 79.7704 68.8748 81.0285 67.7245C82.2867 66.5741 83.0689 64.9946 83.2212 63.2967C83.2198 62.1128 82.9016 60.9509 82.2997 59.9315H82.2792Z" fill="white"/>
<path d="M55.8848 59.9316L55.6869 59.6107L55.6255 59.522C54.861 58.3206 54.6289 58.0681 54.2603 57.5152C49.1613 49.6654 52.076 44.621 54.3695 42.0476C54.6493 41.7336 54.9087 41.365 55.1476 41.0783C55.4972 40.674 55.7974 40.2294 56.0418 39.7541L56.0828 39.6858C56.5389 38.758 56.7726 37.7367 56.7654 36.7029C56.7851 35.6531 56.5623 34.6129 56.1144 33.6632C55.6665 32.7135 55.0055 31.88 54.1829 31.2274C53.3603 30.5748 52.3983 30.1208 51.3716 29.9007C50.3449 29.6806 49.2813 29.7003 48.2635 29.9583C47.2457 30.2163 46.3011 30.7056 45.5032 31.3882C44.7054 32.0708 44.0757 32.9282 43.6633 33.8939C43.2509 34.8595 43.0668 35.9072 43.1253 36.9556C43.1839 38.004 43.4835 39.0247 44.0009 39.9384C44.0828 40.1022 44.4719 40.621 44.5128 40.7097C44.5958 40.8398 44.6919 40.961 44.7995 41.0715C45.0364 41.365 45.2917 41.6432 45.564 41.9043C46.2478 42.6567 46.8454 43.4833 47.3456 44.3684C48.3279 46.3704 48.7393 48.6045 48.5346 50.825C48.3299 53.0456 47.517 55.1668 46.1852 56.9555C45.7738 57.5386 45.3174 58.0887 44.82 58.6005L44.704 58.7165C43.9451 59.4016 43.1116 59.9992 42.2193 60.4981C35.1067 63.8906 29.3524 59.2012 29.3524 59.2012L28.7722 58.7234C28.3415 58.3884 27.9739 57.9793 27.6869 57.5152C22.5879 49.6654 25.5026 44.621 27.7961 42.0476C28.076 41.7336 28.3354 41.365 28.5743 41.0783C28.9239 40.674 29.224 40.2294 29.4685 39.7541L29.5094 39.6858C29.9807 38.7621 30.2264 37.7399 30.2261 36.7029C30.0738 35.0049 29.2916 33.4255 28.0335 32.2751C26.7753 31.1248 25.1323 30.4869 23.4275 30.4869C21.7227 30.4869 20.0797 31.1248 18.8215 32.2751C17.5634 33.4255 16.7812 35.0049 16.6289 36.7029C16.6286 37.8344 16.9151 38.9476 17.4616 39.9384C17.5435 40.1022 17.9326 40.621 17.9736 40.7097C18.0565 40.8398 18.1526 40.961 18.2603 41.0715C18.4971 41.365 18.7525 41.6432 19.0248 41.9043C19.697 42.6582 20.2831 43.4847 20.7722 44.3684C21.7505 46.3733 22.1566 48.6092 21.9458 50.83C21.7351 53.0508 20.9156 55.1704 19.5777 56.9555L18.7108 58.1841C18.044 58.8215 17.5133 59.5875 17.1508 60.4357C16.7883 61.2839 16.6014 62.1968 16.6016 63.1193V63.2763C16.6257 64.6148 17.043 65.9167 17.8014 67.02C18.5598 68.1232 19.6259 68.9791 20.867 69.481C22.1081 69.983 23.4694 70.1089 24.7816 69.8431C26.0937 69.5773 27.2987 68.9316 28.2466 67.9862C28.5811 67.7541 28.7995 67.5903 29.1067 67.3923C36.9565 62.2933 42.0009 65.208 44.5811 67.5015C44.7859 67.6858 45.0043 67.8633 45.2227 68.0271C46.1768 68.9626 47.3844 69.5974 48.6959 69.853C50.0074 70.1086 51.365 69.9736 52.6005 69.4649C53.836 68.9562 54.8951 68.096 55.6463 66.9911C56.3976 65.8861 56.8081 64.585 56.8268 63.249C56.8254 62.0651 56.5072 60.9032 55.9053 59.8838L55.8848 59.9316Z" fill="white"/>
</svg>
