<svg width="38" height="40" viewBox="0 0 38 40" fill="none" xmlns="http://www.w3.org/2000/svg">
<path d="M0 0H37.7691L37.3413 4.59816L0.556057 4.51261L0 0Z" fill="#7A18D5"/>
<path d="M7.01487 24.4665L19.3551 34.2189V39.7153L3.42188 27.0971L7.01487 24.4665Z" fill="#7A18D5"/>
<path d="M6.80224 22.1354L7.03749 24.5307L3.42312 27.0971L2.375 18.799L6.80224 22.1354Z" fill="#7A18D5"/>
<path d="M31.3758 24.5948L19.3564 34.2188L19.1211 36.935L19.3564 39.7152L35.0543 26.9901L31.3758 24.5948Z" fill="#7A18D5"/>
<path d="M12.7899 19.8257H28.2098L26.6914 23.825H11.6992L12.7899 19.8257Z" fill="#7A18D5"/>
<path d="M0.546875 4.36716L5.07085 4.04199L5.90493 14.5857L2.03392 16.4249L0.546875 4.36716Z" fill="#7A18D5"/>
<path d="M2.03125 16.4252L5.85949 14.479L13.1096 19.8685L11.6964 23.825L2.03125 16.4252Z" fill="#7A18D5"/>
<path d="M2.03125 16.4252L5.85949 14.479L13.1096 19.8685L11.6964 23.825L2.03125 16.4252Z" fill="#7A18D5"/>
<path d="M33.4495 4.09161L37.3847 4.12761L36.3154 15.0563L32.6797 12.0193L33.4495 4.09161Z" fill="#7A18D5"/>
<path d="M27.1596 9.45312H11.6328V13.4738H27.1596V9.45312Z" fill="#7A18D5"/>
<path d="M27.1652 9.45312L36.0164 16.7674L32.6159 19.1627L24.5391 12.704L27.1652 9.45312Z" fill="#7A18D5"/>
<path d="M36.0159 16.7673L35.0535 26.9902L31.375 24.5948L31.9431 16.5534L36.0159 16.7673Z" fill="#7A18D5"/>
<path d="M6.58594 13.6235L11.6333 9.45312L14.3494 12.0837L9.77257 15.8691L6.58594 13.6235Z" fill="#7A18D5"/>
<path d="M25.4492 19.8042L28.4006 17.3875L30.9242 19.7614L26.6897 23.8249L25.4492 19.8042Z" fill="#7A18D5"/>
</svg>
