<svg width="86" height="90" viewBox="0 0 86 90" fill="none" xmlns="http://www.w3.org/2000/svg">
<path d="M0 0H85.4594L84.4916 10.4042L1.25818 10.2106L0 0Z" fill="#7A18D5"/>
<path d="M15.8704 55.3594L43.7923 77.4259L44.879 83.796L43.7923 89.8625L7.74059 61.3115L15.8704 55.3594Z" fill="#7A18D5"/>
<path d="M15.3899 50.0852L15.9222 55.5051L12.7517 59.2868L7.74405 61.3121L5.37248 42.5361L15.3899 50.0852Z" fill="#7A18D5"/>
<path d="M70.9908 55.6502L43.7948 77.4264L43.2624 83.5721L43.7948 89.863L79.3141 61.07L77.1709 51.6688L70.9908 55.6502Z" fill="#7A18D5"/>
<path d="M28.9367 44.8589H63.827L60.3912 53.9081H26.4688L28.9367 44.8589Z" fill="#7A18D5"/>
<path d="M1.23047 9.88184L11.4668 9.14605L13.3541 33.0031L4.59519 37.1647L1.23047 9.88184Z" fill="#7A18D5"/>
<path d="M4.59766 37.165L13.2597 32.7613L29.6645 44.956L26.4668 53.9084L4.59766 37.165Z" fill="#7A18D5"/>
<path d="M4.59766 37.165L13.2597 32.7613L29.6645 44.956L26.4668 53.9084L4.59766 37.165Z" fill="#7A18D5"/>
<path d="M75.6845 9.25851L84.5886 9.33996L82.1692 34.068L73.9426 27.1964L75.6845 9.25851Z" fill="#7A18D5"/>
<rect x="26.3281" y="21.3886" width="35.1322" height="9.0976" fill="#7A18D5"/>
<path d="M61.4648 21.3886L81.4921 37.9385L73.7979 43.3584L55.5226 28.7444L61.4648 21.3886Z" fill="#7A18D5"/>
<path d="M81.4883 37.9385L79.3107 61.0696L70.9873 55.6498L72.2727 37.4545L81.4883 37.9385Z" fill="#7A18D5"/>
<path d="M14.9062 30.8252L26.3268 21.389L32.4725 27.3411L22.1166 35.9063L14.9062 30.8252Z" fill="#7A18D5"/>
<path d="M57.5859 44.811L64.264 39.3428L69.9742 44.7142L60.3926 53.9086L57.5859 44.811Z" fill="#7A18D5"/>
</svg>
