<svg width="260" height="413" viewBox="0 0 260 413" fill="none" xmlns="http://www.w3.org/2000/svg">
<path d="M143.394 398.088C143.394 405.556 137.344 411.635 129.847 411.635C122.379 411.635 116.301 405.585 116.301 398.088C116.301 390.62 122.35 384.542 129.847 384.542C137.344 384.542 143.394 390.591 143.394 398.088Z" fill="#231F20" stroke="#231F20" stroke-width="2.17095" stroke-miterlimit="10" stroke-linecap="round" stroke-linejoin="round"/>
<path d="M181.727 310.787V346.188C181.727 374.845 158.512 398.059 129.856 398.059C101.199 398.059 77.9844 374.845 77.9844 346.188V310.787H181.727Z" fill="white"/>
<path d="M102 335.652C100.205 347.665 101.971 360.198 107.008 371.285C112.044 382.342 120.323 391.923 130.57 398.465C119.426 396.786 107.876 394.847 98.6713 388.363C88.2797 381.039 82.259 368.766 79.8854 356.291C77.5118 343.815 78.3513 330.963 79.2197 318.313C83.88 326.332 91.4348 332.642 100.177 335.797" fill="#CCCCCC"/>
<path d="M181.727 310.787V346.188C181.727 374.845 158.512 398.059 129.856 398.059C101.199 398.059 77.9844 374.845 77.9844 346.188V310.787H181.727V310.787Z" stroke="#231F20" stroke-width="2.17095" stroke-miterlimit="10" stroke-linecap="round" stroke-linejoin="round"/>
<path d="M181.721 336.839C181.721 338.981 181.344 341.152 180.505 343.265C178.479 348.678 173.818 353.83 166.495 358.027C146.262 369.75 113.408 369.75 93.1459 358.027C85.8515 353.801 81.1912 348.649 79.1649 343.265C78.3255 341.181 77.9492 339.01 77.9492 336.839" stroke="#231F20" stroke-width="2.17095" stroke-miterlimit="10" stroke-linecap="round" stroke-linejoin="round"/>
<path d="M258.295 130.424C258.295 166.462 243.417 199.026 219.478 222.357C194.903 246.324 181.733 276.486 181.733 310.787C181.733 303.116 176.667 295.474 166.507 289.627C146.274 277.933 113.42 277.933 93.158 289.627C83.0269 295.474 77.9614 303.145 77.9614 310.787C77.9614 275.762 63.3147 245.658 38.6527 220.794C12.8619 194.771 -1.90059 157.778 2.06501 117.399C8.11472 55.8885 58.3939 6.94082 120.02 2.36735C195.424 -3.21922 258.295 56.2648 258.295 130.424Z" fill="#FFCF53"/>
<path d="M53.5273 169.762C53.5273 167.041 62.298 164.812 62.5874 162.178C62.8769 159.486 54.8299 155.376 55.4088 152.771C56.0167 150.137 65.0478 149.905 65.9451 147.387C66.8425 144.84 59.8955 139.021 61.0533 136.619C62.2401 134.187 71.0975 136.011 72.5159 133.724C73.9632 131.438 68.4924 124.23 70.1713 122.146C71.8501 120.033 80.0998 123.796 81.9812 121.885C83.8917 119.975 80.1576 111.754 82.2417 110.075C84.3548 108.397 91.5334 113.867 93.8201 112.42C96.1069 111.002 94.2833 102.144 96.7147 100.957C99.1172 99.7997 104.935 106.718 107.483 105.849C110.001 104.952 110.204 95.9209 112.867 95.313C115.472 94.7341 119.553 102.781 122.274 102.492C124.937 102.202 127.137 93.4315 129.858 93.4315C132.579 93.4315 134.808 102.202 137.442 102.492C140.134 102.781 144.244 94.7341 146.849 95.313C149.483 95.9209 149.715 104.952 152.233 105.849C154.78 106.747 160.598 99.7997 163.001 100.957C165.432 102.144 163.609 111.002 165.896 112.42C168.182 113.867 175.39 108.397 177.474 110.075C179.587 111.754 175.824 120.004 177.735 121.885C179.645 123.796 187.866 120.062 189.544 122.146C191.223 124.259 185.753 131.438 187.2 133.724C188.618 136.011 197.476 134.187 198.662 136.619C199.82 139.021 192.902 144.84 193.771 147.387C194.668 149.905 203.699 150.108 204.307 152.771C204.886 155.376 196.839 159.457 197.128 162.178C197.418 164.841 206.188 167.041 206.188 169.762" stroke="#FFCF53" stroke-width="2.17095" stroke-miterlimit="10"/>
<path d="M181.721 310.787C181.721 312.929 181.344 315.1 180.505 317.213C178.479 322.626 173.818 327.778 166.495 331.975C146.262 343.698 113.408 343.698 93.1459 331.975C85.8515 327.749 81.1912 322.597 79.1649 317.213C78.3255 315.129 77.9492 312.958 77.9492 310.787C77.9492 303.116 82.9858 295.474 93.1459 289.627C113.408 277.933 146.262 277.933 166.495 289.627C176.655 295.474 181.721 303.145 181.721 310.787Z" fill="#FFCF53"/>
<path d="M181.723 310.787C181.723 303.116 176.658 295.475 166.498 289.628C164.848 288.672 163.111 287.804 161.316 286.993" stroke="#231F20" stroke-width="2.17095" stroke-miterlimit="10" stroke-linecap="round" stroke-linejoin="round"/>
<path d="M98.9061 286.762C96.9088 287.63 94.9695 288.585 93.1459 289.627C83.0148 295.474 77.9492 303.145 77.9492 310.787" stroke="#231F20" stroke-width="2.17095" stroke-miterlimit="10" stroke-linecap="round" stroke-linejoin="round"/>
<path d="M160.858 276.225C160.858 280.828 157.818 285.401 151.769 288.875C139.669 295.88 120.044 295.88 107.916 288.875C101.866 285.372 98.8555 280.799 98.8555 276.225C98.8555 271.652 101.866 267.049 107.916 263.576C120.044 256.6 139.669 256.6 151.769 263.576C157.847 267.078 160.858 271.652 160.858 276.225Z" fill="white" stroke="#231F20" stroke-width="2.17095" stroke-miterlimit="10" stroke-linecap="round" stroke-linejoin="round"/>
<path d="M160.858 276.225V305.634C160.858 310.208 157.819 314.81 151.769 318.284C139.669 325.289 120.044 325.289 107.916 318.284C101.866 314.781 98.8267 310.208 98.8557 305.634V276.225C98.8557 280.828 101.866 285.401 107.916 288.874C120.044 295.879 139.669 295.879 151.769 288.874C157.848 285.401 160.858 280.828 160.858 276.225Z" fill="#FFCF53" stroke="#231F20" stroke-width="2.17095" stroke-miterlimit="10" stroke-linecap="round" stroke-linejoin="round"/>
<path d="M65.5 157L73.3769 152.624C73.9467 152.307 74.0662 151.539 73.6195 151.064L67.5059 144.569C67.0228 144.055 67.2082 143.217 67.8627 142.955L75.4504 139.92C76.0081 139.697 76.2447 139.036 75.9552 138.509L71.7018 130.776C71.3636 130.161 71.7475 129.398 72.4429 129.303L80.8704 128.154C81.4689 128.072 81.859 127.483 81.7 126.9L79.4004 118.468C79.2112 117.774 79.7945 117.114 80.5066 117.215L88.3586 118.337C88.961 118.423 89.5 117.956 89.5 117.347V107.951C89.5 107.251 90.2015 106.767 90.856 107.017L98.8162 110.049C99.4201 110.279 100.08 109.885 100.164 109.244L101.292 100.595C101.388 99.8601 102.222 99.4811 102.838 99.8922L109.518 104.345C110.032 104.688 110.731 104.487 110.984 103.924L114.457 96.2074C114.729 95.602 115.505 95.4252 116.013 95.8528L123.749 102.368C124.166 102.719 124.787 102.672 125.146 102.262L130.848 95.7449C131.209 95.3323 131.835 95.2874 132.252 95.6442L137.797 100.397C138.194 100.737 138.785 100.715 139.155 100.345L143.476 96.0245C143.97 95.5296 144.807 95.683 145.095 96.3212L148.516 103.924C148.769 104.487 149.468 104.688 149.982 104.345L156.69 99.8734C157.3 99.467 158.125 99.8325 158.234 100.557L159.353 108.018C159.434 108.561 159.939 108.937 160.483 108.86L168.859 107.663C169.461 107.577 170 108.044 170 108.653V117.5C170 118.052 170.448 118.5 171 118.5H179.636C180.311 118.5 180.793 119.157 180.589 119.801L178.355 126.876C178.169 127.464 178.556 128.079 179.167 128.167L187.127 129.304C187.802 129.4 188.185 130.13 187.88 130.741L183.947 138.606C183.7 139.1 183.9 139.7 184.394 139.947L192.259 143.88C192.87 144.185 193.002 144.998 192.519 145.481L186.914 151.086C186.451 151.549 186.55 152.324 187.114 152.655L194.5 157" stroke="#F3B148" stroke-width="2" stroke-linecap="round"/>
<path d="M114.687 271.97L110.75 116.125C115.613 114.736 119.26 108.628 119.26 101.305C119.26 92.9683 124.007 86.1949 129.883 86.1949C135.759 86.1949 140.506 92.9683 140.506 101.305C140.506 108.628 144.154 114.736 148.988 116.125L144.964 272.115C144.964 274.373 143.488 276.602 140.535 278.309C134.63 281.725 125.049 281.725 119.173 278.309C116.192 276.602 114.687 274.199 114.687 271.97Z" fill="white" stroke="#231F20" stroke-width="2.60514" stroke-miterlimit="10" stroke-linecap="round" stroke-linejoin="round"/>
<path opacity="0.16" d="M258.26 130.424C258.26 139.455 257.333 148.313 255.539 156.823C250.213 182.267 237.39 204.902 219.443 222.357C194.868 246.324 181.698 276.486 181.698 310.787C181.698 312.929 181.321 315.1 180.482 317.213C178.456 322.626 173.795 327.778 166.472 331.975C146.239 343.698 113.385 343.698 93.1228 331.975C85.8284 327.749 81.1681 322.597 79.1419 317.213C78.3025 315.129 77.9262 312.958 77.9262 310.787C77.9262 275.762 63.2795 245.658 38.6176 220.794C12.8267 194.771 -1.93575 157.778 2.02985 117.399C6.74804 69.6667 38.0676 29.4897 80.705 11.7458C93.0071 6.6224 106.177 3.38046 119.985 2.36735C195.389 -3.21922 258.26 56.2648 258.26 130.424Z" fill="#FFCF53"/>
<path d="M255.574 156.823C250.248 182.267 237.425 204.902 219.478 222.357C194.903 246.324 181.733 276.486 181.733 310.787C181.733 312.929 181.356 315.1 180.517 317.213C178.491 322.626 173.83 327.778 166.507 331.975C146.274 343.698 113.42 343.698 93.158 331.975C85.8636 327.749 81.2033 322.597 79.1771 317.213C78.3377 315.129 77.9614 312.958 77.9614 310.787C77.9614 275.762 63.3147 245.658 38.6527 220.794C12.8619 194.771 -1.90059 157.778 2.06501 117.399C6.7832 69.6669 38.1027 29.4899 80.7402 11.746C52.3441 50.0415 41.8946 101.507 54.2835 147.647C60.2175 169.791 71.2169 190.893 87.6872 206.842C104.157 222.791 126.33 233.327 149.255 233.848C176.58 234.456 202.834 220.881 222.402 201.805C235.833 188.751 246.427 173.236 255.574 156.823Z" fill="#FAB045" fill-opacity="0.9" style="mix-blend-mode:darken"/>
<path d="M77.9809 310.787C77.9809 275.762 63.3342 245.658 38.6723 220.794C12.8814 194.771 -1.88106 157.778 2.08454 117.399C8.13425 55.8886 58.4134 6.94091 120.039 2.36745C195.415 -3.24807 258.285 56.2359 258.285 130.424C258.285 166.462 243.407 199.026 219.469 222.357C194.894 246.324 181.723 276.486 181.723 310.787" stroke="#231F20" stroke-width="2.17095" stroke-miterlimit="10" stroke-linecap="round" stroke-linejoin="round"/>
<path d="M181.721 310.787C181.721 312.929 181.344 315.1 180.505 317.213C178.479 322.626 173.818 327.778 166.495 331.975C146.262 343.699 113.408 343.699 93.1459 331.975C85.8515 327.749 81.1912 322.597 79.1649 317.213C78.3255 315.129 77.9492 312.958 77.9492 310.787" stroke="#231F20" stroke-width="2.17095" stroke-miterlimit="10" stroke-linecap="round" stroke-linejoin="round"/>
</svg>
