<svg width="570" height="630" viewBox="0 0 570 630" fill="none" xmlns="http://www.w3.org/2000/svg">
<path d="M408.218 532.281L298.107 466.748C290.784 462.377 279.611 461.769 273.185 465.387L160.585 528.403C157.459 530.139 156.011 532.571 156.214 535.118V535.147C156.417 537.81 158.443 540.589 162.177 542.818L272.287 608.351C279.611 612.722 290.784 613.301 297.21 609.712L398.434 553.036L409.781 546.667C412.56 545.104 414.007 543.02 414.181 540.82C414.412 537.926 412.386 534.771 408.218 532.281Z" fill="white" stroke="#231F20" stroke-width="2.17095" stroke-miterlimit="10" stroke-linecap="round" stroke-linejoin="round"/>
<path d="M284.502 485.244L194.625 535.552L285.892 589.884L375.769 539.576L284.502 485.244Z" fill="white" stroke="#231F20" stroke-width="2.17095" stroke-miterlimit="10" stroke-linecap="round" stroke-linejoin="round"/>
<path d="M375.884 531.123L361.121 539.373L375.652 548.028L390.414 539.778L375.884 531.123Z" fill="#FFCF53" stroke="#231F20" stroke-width="2.17095" stroke-miterlimit="10" stroke-linecap="round" stroke-linejoin="round"/>
<path d="M284.614 476.792L269.852 485.07L284.382 493.696L299.145 485.446L284.614 476.792Z" fill="#FFCF53" stroke="#231F20" stroke-width="2.17095" stroke-miterlimit="10" stroke-linecap="round" stroke-linejoin="round"/>
<path d="M286.005 581.432L271.242 589.681L285.773 598.336L300.536 590.087L286.005 581.432Z" fill="#FFCF53" stroke="#231F20" stroke-width="2.17095" stroke-miterlimit="10" stroke-linecap="round" stroke-linejoin="round"/>
<path d="M194.743 527.1L179.98 535.379L194.511 544.034L209.274 535.755L194.743 527.1Z" fill="#FFCF53" stroke="#231F20" stroke-width="2.17095" stroke-miterlimit="10" stroke-linecap="round" stroke-linejoin="round"/>
<path d="M414.181 540.849C414.007 543.049 412.56 545.133 409.781 546.697L398.434 553.065L297.21 609.741C290.784 613.33 279.611 612.751 272.288 608.38L162.177 542.847C158.443 540.618 156.417 537.839 156.214 535.176L156.041 550.054L156.012 551.588C156.33 554.165 158.327 556.857 161.975 558.999L272.056 624.503C279.379 628.874 290.553 629.482 297.008 625.864L409.607 562.848C412.473 561.227 413.92 559.056 414.007 556.77V556.538L414.181 540.849Z" fill="#2B2829" stroke="#231F20" stroke-width="2.17095" stroke-miterlimit="10" stroke-linecap="round" stroke-linejoin="round"/>
<path d="M284.77 505.101L285.638 570.027" stroke="#231F20" stroke-width="2.17095" stroke-miterlimit="10" stroke-linecap="round" stroke-linejoin="round"/>
<path d="M229.012 536.334L341.409 538.823" stroke="#231F20" stroke-width="2.17095" stroke-miterlimit="10" stroke-linecap="round" stroke-linejoin="round"/>
<path opacity="0.25" d="M156.219 520.211V373.947" stroke="#231F20" stroke-width="2.17095" stroke-linecap="round" stroke-linejoin="round" stroke-dasharray="5.77 5.77"/>
<path opacity="0.25" d="M414.223 526.84V380.865" stroke="#231F20" stroke-width="2.17095" stroke-linecap="round" stroke-linejoin="round" stroke-dasharray="5.77 5.77"/>
<path opacity="0.25" d="M407.793 361.558L298.088 296.256C290.793 291.914 279.678 291.306 273.252 294.896L161.057 357.708C157.931 359.445 156.484 361.877 156.687 364.395V364.424C156.889 367.058 158.915 369.866 162.621 372.066L272.326 437.368C279.62 441.71 290.764 442.317 297.161 438.728L398.038 382.255L409.356 375.915C412.135 374.352 413.582 372.297 413.727 370.068C413.958 367.203 411.961 364.047 407.793 361.558Z" stroke="#231F20" stroke-width="2.17095" stroke-linecap="round" stroke-linejoin="round" stroke-dasharray="5.77 5.77"/>
<path d="M298.394 398.088C298.394 405.556 292.344 411.635 284.847 411.635C277.379 411.635 271.301 405.585 271.301 398.088C271.301 390.62 277.35 384.542 284.847 384.542C292.344 384.542 298.394 390.591 298.394 398.088Z" fill="#231F20" stroke="#231F20" stroke-width="2.17095" stroke-miterlimit="10" stroke-linecap="round" stroke-linejoin="round"/>
<path d="M336.727 310.787V346.188C336.727 374.845 313.512 398.059 284.856 398.059C256.199 398.059 232.984 374.845 232.984 346.188V310.787H336.727V310.787Z" fill="white"/>
<path d="M257 335.652C255.205 347.665 256.971 360.198 262.008 371.285C267.044 382.342 275.323 391.923 285.57 398.465C274.426 396.786 262.876 394.847 253.671 388.363C243.28 381.039 237.259 368.766 234.885 356.291C232.512 343.815 233.351 330.963 234.22 318.313C238.88 326.332 246.435 332.642 255.177 335.797" fill="#CCCCCC"/>
<path d="M336.727 310.787V346.188C336.727 374.845 313.512 398.059 284.856 398.059C256.199 398.059 232.984 374.845 232.984 346.188V310.787H336.727V310.787Z" stroke="#231F20" stroke-width="2.17095" stroke-miterlimit="10" stroke-linecap="round" stroke-linejoin="round"/>
<path d="M336.721 336.839C336.721 338.981 336.344 341.152 335.505 343.265C333.479 348.678 328.818 353.83 321.495 358.027C301.262 369.75 268.408 369.75 248.146 358.027C240.851 353.801 236.191 348.649 234.165 343.265C233.326 341.181 232.949 339.01 232.949 336.839" stroke="#231F20" stroke-width="2.17095" stroke-miterlimit="10" stroke-linecap="round" stroke-linejoin="round"/>
<path d="M413.295 130.424C413.295 166.462 398.417 199.026 374.478 222.357C349.903 246.324 336.733 276.486 336.733 310.787C336.733 303.116 331.667 295.474 321.507 289.627C301.274 277.933 268.42 277.933 248.158 289.627C238.027 295.474 232.961 303.145 232.961 310.787C232.961 275.762 218.315 245.658 193.653 220.794C167.862 194.771 153.099 157.778 157.065 117.399C163.115 55.8885 213.394 6.94082 275.02 2.36735C350.424 -3.21922 413.295 56.2648 413.295 130.424Z" fill="#FFCF53"/>
<path d="M208.527 169.762C208.527 167.041 217.298 164.812 217.587 162.178C217.877 159.486 209.83 155.376 210.409 152.771C211.017 150.137 220.048 149.905 220.945 147.387C221.842 144.84 214.895 139.021 216.053 136.619C217.24 134.187 226.098 136.011 227.516 133.724C228.963 131.438 223.492 124.23 225.171 122.146C226.85 120.033 235.1 123.796 236.981 121.885C238.892 119.975 235.158 111.754 237.242 110.075C239.355 108.397 246.533 113.867 248.82 112.42C251.107 111.002 249.283 102.144 251.715 100.957C254.117 99.7997 259.935 106.718 262.483 105.849C265.001 104.952 265.204 95.9209 267.867 95.313C270.472 94.7341 274.553 102.781 277.274 102.492C279.937 102.202 282.137 93.4315 284.858 93.4315C287.579 93.4315 289.808 102.202 292.442 102.492C295.134 102.781 299.244 94.7341 301.849 95.313C304.483 95.9209 304.715 104.952 307.233 105.849C309.78 106.747 315.598 99.7997 318.001 100.957C320.432 102.144 318.609 111.002 320.896 112.42C323.182 113.867 330.39 108.397 332.474 110.075C334.587 111.754 330.824 120.004 332.735 121.885C334.645 123.796 342.866 120.062 344.544 122.146C346.223 124.259 340.753 131.438 342.2 133.724C343.618 136.011 352.476 134.187 353.662 136.619C354.82 139.021 347.902 144.84 348.771 147.387C349.668 149.905 358.699 150.108 359.307 152.771C359.886 155.376 351.839 159.457 352.128 162.178C352.418 164.841 361.188 167.041 361.188 169.762" stroke="#FFCF53" stroke-width="2.17095" stroke-miterlimit="10"/>
<path d="M336.721 310.787C336.721 312.929 336.344 315.1 335.505 317.213C333.479 322.626 328.818 327.778 321.495 331.975C301.262 343.698 268.408 343.698 248.146 331.975C240.851 327.749 236.191 322.597 234.165 317.213C233.326 315.129 232.949 312.958 232.949 310.787C232.949 303.116 237.986 295.474 248.146 289.627C268.408 277.933 301.262 277.933 321.495 289.627C331.655 295.474 336.721 303.145 336.721 310.787Z" fill="#FFCF53"/>
<path d="M336.723 310.787C336.723 303.116 331.658 295.475 321.498 289.628C319.848 288.672 318.111 287.804 316.316 286.993" stroke="#231F20" stroke-width="2.17095" stroke-miterlimit="10" stroke-linecap="round" stroke-linejoin="round"/>
<path d="M253.906 286.762C251.909 287.63 249.969 288.585 248.146 289.627C238.015 295.474 232.949 303.145 232.949 310.787" stroke="#231F20" stroke-width="2.17095" stroke-miterlimit="10" stroke-linecap="round" stroke-linejoin="round"/>
<path d="M315.858 276.225C315.858 280.828 312.818 285.401 306.769 288.875C294.669 295.88 275.044 295.88 262.916 288.875C256.866 285.372 253.855 280.799 253.855 276.225C253.855 271.652 256.866 267.049 262.916 263.576C275.044 256.6 294.669 256.6 306.769 263.576C312.847 267.078 315.858 271.652 315.858 276.225Z" fill="white" stroke="#231F20" stroke-width="2.17095" stroke-miterlimit="10" stroke-linecap="round" stroke-linejoin="round"/>
<path d="M315.858 276.225V305.634C315.858 310.208 312.819 314.81 306.769 318.284C294.669 325.289 275.044 325.289 262.916 318.284C256.866 314.781 253.827 310.208 253.856 305.634V276.225C253.856 280.828 256.866 285.401 262.916 288.874C275.044 295.879 294.669 295.879 306.769 288.874C312.848 285.401 315.858 280.828 315.858 276.225Z" fill="#FFCF53" stroke="#231F20" stroke-width="2.17095" stroke-miterlimit="10" stroke-linecap="round" stroke-linejoin="round"/>
<path d="M220.5 157L228.377 152.624C228.947 152.307 229.066 151.539 228.619 151.064L222.506 144.569C222.023 144.055 222.208 143.217 222.863 142.955L230.45 139.92C231.008 139.697 231.245 139.036 230.955 138.509L226.702 130.776C226.364 130.161 226.747 129.398 227.443 129.303L235.87 128.154C236.469 128.072 236.859 127.483 236.7 126.9L234.4 118.468C234.211 117.774 234.795 117.114 235.507 117.215L243.359 118.337C243.961 118.423 244.5 117.956 244.5 117.347V107.951C244.5 107.251 245.201 106.767 245.856 107.017L253.816 110.049C254.42 110.279 255.08 109.885 255.164 109.244L256.292 100.595C256.388 99.8601 257.222 99.4811 257.838 99.8922L264.518 104.345C265.032 104.688 265.731 104.487 265.984 103.924L269.457 96.2074C269.729 95.602 270.505 95.4252 271.013 95.8528L278.749 102.368C279.166 102.719 279.787 102.672 280.146 102.262L285.848 95.7449C286.209 95.3323 286.835 95.2874 287.252 95.6442L292.797 100.397C293.194 100.737 293.785 100.715 294.155 100.345L298.476 96.0245C298.97 95.5296 299.807 95.683 300.095 96.3212L303.516 103.924C303.769 104.487 304.468 104.688 304.982 104.345L311.69 99.8734C312.3 99.467 313.125 99.8325 313.234 100.557L314.353 108.018C314.434 108.561 314.939 108.937 315.483 108.86L323.859 107.663C324.461 107.577 325 108.044 325 108.653V117.5C325 118.052 325.448 118.5 326 118.5H334.636C335.311 118.5 335.793 119.157 335.589 119.801L333.355 126.876C333.169 127.464 333.556 128.079 334.167 128.167L342.127 129.304C342.802 129.4 343.185 130.13 342.88 130.741L338.947 138.606C338.7 139.1 338.9 139.7 339.394 139.947L347.259 143.88C347.87 144.185 348.002 144.998 347.519 145.481L341.914 151.086C341.451 151.549 341.55 152.324 342.114 152.655L349.5 157" stroke="#F3B148" stroke-width="2" stroke-linecap="round"/>
<path d="M269.687 271.97L265.75 116.125C270.613 114.736 274.26 108.628 274.26 101.305C274.26 92.9683 279.007 86.1949 284.883 86.1949C290.759 86.1949 295.506 92.9683 295.506 101.305C295.506 108.628 299.154 114.736 303.988 116.125L299.964 272.115C299.964 274.373 298.488 276.602 295.535 278.309C289.63 281.725 280.049 281.725 274.173 278.309C271.192 276.602 269.687 274.199 269.687 271.97Z" fill="white" stroke="#231F20" stroke-width="2.60514" stroke-miterlimit="10" stroke-linecap="round" stroke-linejoin="round"/>
<path opacity="0.16" d="M413.26 130.424C413.26 139.455 412.333 148.313 410.539 156.823C405.213 182.267 392.39 204.902 374.443 222.357C349.868 246.324 336.698 276.486 336.698 310.787C336.698 312.929 336.321 315.1 335.482 317.213C333.456 322.626 328.795 327.778 321.472 331.975C301.239 343.698 268.385 343.698 248.123 331.975C240.828 327.749 236.168 322.597 234.142 317.213C233.302 315.129 232.926 312.958 232.926 310.787C232.926 275.762 218.28 245.658 193.618 220.794C167.827 194.771 153.064 157.778 157.03 117.399C161.748 69.6668 193.068 29.4897 235.705 11.7458C248.007 6.6224 261.177 3.38046 274.985 2.36735C350.389 -3.21922 413.26 56.2648 413.26 130.424Z" fill="#FFCF53"/>
<path d="M410.574 156.823C405.248 182.267 392.425 204.902 374.478 222.357C349.903 246.324 336.733 276.486 336.733 310.787C336.733 312.929 336.356 315.1 335.517 317.213C333.491 322.626 328.83 327.778 321.507 331.975C301.274 343.698 268.42 343.698 248.158 331.975C240.864 327.749 236.203 322.597 234.177 317.213C233.338 315.129 232.961 312.958 232.961 310.787C232.961 275.762 218.315 245.658 193.653 220.794C167.862 194.771 153.099 157.778 157.065 117.399C161.783 69.6669 193.103 29.4899 235.74 11.746C207.344 50.0415 196.895 101.507 209.284 147.647C215.217 169.791 226.217 190.893 242.687 206.842C259.157 222.791 281.33 233.327 304.255 233.848C331.58 234.456 357.834 220.881 377.402 201.805C390.833 188.751 401.427 173.236 410.574 156.823Z" fill="#FAB045" fill-opacity="0.9" style="mix-blend-mode:darken"/>
<path d="M232.981 310.787C232.981 275.762 218.334 245.658 193.672 220.794C167.881 194.771 153.119 157.778 157.085 117.399C163.134 55.8886 213.413 6.94091 275.039 2.36745C350.415 -3.24807 413.285 56.2359 413.285 130.424C413.285 166.462 398.407 199.026 374.469 222.357C349.894 246.324 336.723 276.486 336.723 310.787" stroke="#231F20" stroke-width="2.17095" stroke-miterlimit="10" stroke-linecap="round" stroke-linejoin="round"/>
<path d="M336.721 310.787C336.721 312.929 336.344 315.1 335.505 317.213C333.479 322.626 328.818 327.778 321.495 331.975C301.262 343.699 268.408 343.699 248.146 331.975C240.851 327.749 236.191 322.597 234.165 317.213C233.326 315.129 232.949 312.958 232.949 310.787" stroke="#231F20" stroke-width="2.17095" stroke-miterlimit="10" stroke-linecap="round" stroke-linejoin="round"/>
<path opacity="0.25" d="M516.829 163.944V480.903C516.829 491.757 511.04 501.802 501.661 507.244L426.199 550.402" stroke="#231F20" stroke-width="2.17095" stroke-linecap="round" stroke-linejoin="round" stroke-dasharray="5.77 5.77"/>
<path opacity="0.25" d="M52.0664 159.197V476.155C52.0664 487.01 57.8556 497.054 67.2341 502.496L145.417 547.391" stroke="#231F20" stroke-width="2.17095" stroke-linecap="round" stroke-linejoin="round" stroke-dasharray="5.77 5.77"/>
<path d="M475.703 272.549V339.675C475.703 346.911 480.132 355.335 485.545 358.461L546.708 393.775C549.052 395.135 551.223 395.28 552.902 394.441L553.134 394.325C555.218 393.109 556.578 390.359 556.578 386.336V319.239C556.578 312.003 552.149 303.579 546.737 300.453L496.139 271.218L488.584 266.818L485.603 265.11C483.345 263.807 481.29 263.634 479.64 264.386C479.64 264.415 479.611 264.415 479.582 264.415C479.263 264.618 479.032 264.734 478.887 264.821C478.8 264.878 478.742 264.907 478.742 264.907C476.832 266.21 475.703 268.873 475.703 272.549Z" fill="#7369F6" stroke="#231F20" stroke-width="2.17095" stroke-miterlimit="10" stroke-linecap="round" stroke-linejoin="round"/>
<path d="M540.374 315.476L491.918 343.438" stroke="#231F20" stroke-width="2.17095" stroke-miterlimit="10" stroke-linecap="round" stroke-linejoin="round"/>
<path d="M491.918 287.514L540.374 371.4" stroke="#231F20" stroke-width="2.17095" stroke-miterlimit="10" stroke-linecap="round" stroke-linejoin="round"/>
<path d="M479.578 264.358C481.228 263.634 483.312 263.779 485.541 265.081L488.522 266.789L496.077 271.189L546.675 300.424C552.117 303.55 556.517 311.974 556.517 319.21V386.307C556.517 390.302 555.185 393.08 553.072 394.296L565.258 387.233L565.345 387.175L566.213 386.712C568.124 385.439 569.34 382.747 569.34 378.955V311.829C569.34 304.593 564.94 296.169 559.527 293.043L498.335 257.729C496.019 256.397 493.906 256.224 492.228 257.034C492.228 257.034 491.967 257.179 491.504 257.468C489.246 258.771 482.154 262.881 479.578 264.358Z" fill="white" stroke="#231F20" stroke-width="2.17095" stroke-miterlimit="10" stroke-linecap="round" stroke-linejoin="round"/>
<path d="M93.7048 125.764V192.166L80.8528 184.756L73.4137 180.472C69.6507 178.301 63.601 181.803 59.838 188.287L51.5305 202.615C49.649 205.857 47.2175 208.347 44.7571 209.765C42.2967 211.154 39.8653 211.502 37.9838 210.431C34.2787 208.26 28.2 211.762 24.4371 218.246L12.8008 238.363V172.425C12.8008 168.141 15.8401 162.901 19.5741 160.73L78.566 126.661L80.8238 125.358L86.9025 121.856C88.4656 120.959 89.9129 120.756 91.0417 121.132C91.5049 121.248 91.968 121.509 92.3154 121.856L92.3443 121.885C93.2417 122.724 93.7048 124.027 93.7048 125.764Z" fill="white" stroke="#231F20" stroke-width="2.17095" stroke-miterlimit="10" stroke-linecap="round" stroke-linejoin="round"/>
<path d="M93.711 192.166V203.513C93.711 207.826 90.7006 213.036 86.9376 215.207L19.6093 254.081C17.7567 255.152 16.0779 255.268 14.8621 254.602C13.5885 253.908 12.8359 252.373 12.8359 250.203V238.364L24.4722 218.246C28.2352 211.762 34.2849 208.26 38.0189 210.431C39.9004 211.502 42.3319 211.154 44.7923 209.765C47.2527 208.347 49.6842 205.857 51.5656 202.615L59.8731 188.287C63.6361 181.803 69.6858 178.301 73.4488 180.472L80.8879 184.756L93.711 192.166Z" fill="#9CE2C8" stroke="#231F20" stroke-width="2.17095" stroke-miterlimit="10" stroke-linecap="round" stroke-linejoin="round"/>
<path d="M47.5141 174.798C47.5141 180.79 43.288 188.084 38.1066 191.095C32.8964 194.105 28.6992 191.673 28.6992 185.653C28.6992 179.632 32.9253 172.366 38.1066 169.356C43.3169 166.346 47.5141 168.777 47.5141 174.798Z" fill="#FFCF53" stroke="#231F20" stroke-width="2.17095" stroke-miterlimit="10" stroke-linecap="round" stroke-linejoin="round"/>
<path d="M91.064 121.133C89.9641 120.756 88.4878 120.988 86.9248 121.856L80.8461 125.359L78.5883 126.661L19.5964 160.76C15.8913 162.931 12.8231 168.17 12.8231 172.454V250.203C12.8231 252.374 13.5757 253.879 14.8493 254.603L2.28672 247.366L2.02621 247.221C0.752587 246.527 0 244.993 0 242.822V165.044C0 160.76 3.01038 155.521 6.74441 153.35L74.0727 114.475C75.9542 113.404 77.6331 113.288 78.8488 114.012L91.064 121.133Z" fill="white" stroke="#231F20" stroke-width="2.17095" stroke-miterlimit="10" stroke-linecap="round" stroke-linejoin="round"/>
<path d="M93.8672 271.739V338.836C93.8672 346.072 89.4385 354.495 84.0256 357.65L22.8628 392.965C20.4602 394.354 18.2314 394.47 16.4946 393.543L16.4078 393.486C14.3526 392.27 12.9922 389.52 12.9922 385.525V318.4C12.9922 311.163 17.4209 302.769 22.8338 299.614L74.5892 269.741L81.0152 266.036L83.9967 264.329C86.2255 263.026 88.2807 262.823 89.9306 263.576L90.799 264.039L90.8858 264.097C92.7094 265.4 93.8672 268.034 93.8672 271.739Z" fill="#EA5328" stroke="#231F20" stroke-width="2.17095" stroke-miterlimit="10" stroke-linecap="round" stroke-linejoin="round"/>
<path d="M27.1133 326.562L53.4252 311.395" stroke="#231F20" stroke-width="2.17095" stroke-miterlimit="10" stroke-linecap="round" stroke-linejoin="round"/>
<path d="M27.1133 343.814L79.7371 313.45" stroke="#231F20" stroke-width="2.17095" stroke-miterlimit="10" stroke-linecap="round" stroke-linejoin="round"/>
<path d="M27.1133 361.066L79.7371 330.673" stroke="#231F20" stroke-width="2.17095" stroke-miterlimit="10" stroke-linecap="round" stroke-linejoin="round"/>
<path d="M89.9584 263.518C88.3085 262.794 86.2533 262.968 84.0245 264.271L81.043 265.979L74.617 269.684L22.8327 299.614C17.3908 302.769 12.991 311.163 12.991 318.4V385.525C12.991 389.491 14.3226 392.27 16.4067 393.486L4.48092 386.481L2.68628 385.439C1.12319 384.049 0.167969 381.502 0.167969 378.115V310.99C0.167969 303.782 4.56776 295.359 9.98065 292.204L71.2014 256.89C73.6908 255.471 75.9486 255.355 77.6564 256.426L78.0037 256.658L89.9584 263.518Z" fill="white" stroke="#231F20" stroke-width="2.17095" stroke-miterlimit="10" stroke-linecap="round" stroke-linejoin="round"/>
<path d="M489.211 123.824V189.213C489.211 196.45 493.582 204.873 499.024 207.97L552.661 238.943L557.176 241.548V176.188C557.176 168.951 552.747 160.528 547.334 157.373L496.766 128.195L489.211 123.824Z" fill="#FFCF53" stroke="#231F20" stroke-width="2.17095" stroke-miterlimit="10" stroke-linecap="round" stroke-linejoin="round"/>
<path d="M476.387 129.527V196.595C476.387 203.831 480.815 212.226 486.228 215.352L547.333 250.637C549.678 251.997 551.849 252.171 553.557 251.274L553.875 251.071C555.901 249.855 557.175 247.106 557.175 243.198V176.159C557.175 168.922 552.746 160.499 547.333 157.344L496.765 128.167L489.21 123.796L486.228 122.088C483.942 120.785 481.858 120.583 480.15 121.364L479.687 121.654C477.631 122.869 476.387 125.619 476.387 129.527Z" fill="#FFCF53" stroke="#231F20" stroke-width="2.17095" stroke-miterlimit="10" stroke-linecap="round" stroke-linejoin="round"/>
<path d="M516.762 163.944V216.741" stroke="#231F20" stroke-width="2.17095" stroke-miterlimit="10" stroke-linecap="round" stroke-linejoin="round"/>
<path d="M490.395 148.718L543.134 179.14" stroke="#231F20" stroke-width="2.17095" stroke-miterlimit="10" stroke-linecap="round" stroke-linejoin="round"/>
<path d="M480.152 121.364C481.831 120.612 483.944 120.785 486.231 122.088L489.212 123.796L496.767 128.167L547.336 157.344C552.778 160.499 557.178 168.894 557.178 176.159V243.198C557.178 247.106 555.904 249.856 553.878 251.071L566.238 243.922L566.759 243.632C568.756 242.387 570.001 239.667 570.001 235.788V168.749C570.001 161.512 565.63 153.089 560.188 149.992L499.054 114.678C496.97 113.462 495.031 113.259 493.439 113.809L493.352 113.838L491.933 114.707L480.152 121.364Z" fill="white" stroke="#231F20" stroke-width="2.17095" stroke-miterlimit="10" stroke-linecap="round" stroke-linejoin="round"/>
</svg>
