<svg width="251" height="42" viewBox="0 0 251 42" fill="none" xmlns="http://www.w3.org/2000/svg">
<g clip-path="url(#clip0_0_2029)">
<path d="M58.6086 20.7056C58.6086 25.6804 62.2939 28.9997 66.7617 28.9997C69.1861 29.0049 71.5641 28.3298 73.6296 27.0498V31.8816C72.7012 32.462 69.9119 33.5167 66.7982 33.5167C59.533 33.5044 53.78 27.9491 53.78 20.7056C53.78 13.4621 59.533 7.91908 66.7982 7.91908C69.9119 7.91908 72.7012 8.96555 73.6296 9.55418V14.3573C71.5624 13.0822 69.185 12.4101 66.7617 12.4156C62.2939 12.4156 58.6086 15.7308 58.6086 20.7056ZM95.0076 20.9999V33.1447H90.548V22.4347C90.548 20.3091 89.6155 18.723 87.2194 18.723C84.8963 18.723 83.5382 20.1987 83.5382 22.868V33.1447H79.0785V6.82356H83.5382V18.1099C83.8585 17.2923 85.1112 14.7538 88.8655 14.7538C92.721 14.7538 95.0076 17.0634 95.0076 20.9999ZM119.256 29.3594V33.1447H113.499C113.405 33.1504 113.312 33.1364 113.224 33.1036C113.136 33.0708 113.055 33.0199 112.988 32.9542C112.92 32.8885 112.867 32.8093 112.832 32.7218C112.796 32.6343 112.779 32.5402 112.781 32.4457V29.2163C112.173 31.342 110.531 33.5044 107.105 33.5044C102.455 33.5044 99.0943 30.0094 99.0943 24.1312C99.0943 18.1794 102.776 14.7538 107.353 14.7538C111.573 14.7538 112.433 18.2529 112.433 18.2529V15.1176H116.892V29.3594H119.256ZM112.567 24.1679C112.567 20.7792 110.945 18.6495 108.277 18.6495C105.703 18.6495 103.736 20.5625 103.736 24.1312C103.736 27.6998 105.358 29.6128 108.062 29.6128C110.815 29.6128 112.567 27.8101 112.567 24.1679ZM129.493 15.8371V33.1447H125.033V18.9029H121.79V15.1176H128.796C128.889 15.1147 128.983 15.1314 129.07 15.1667C129.157 15.202 129.236 15.2552 129.301 15.3228C129.367 15.3905 129.418 15.4711 129.451 15.5596C129.484 15.6482 129.498 15.7426 129.493 15.8371ZM129.351 11.3651H124.523V6.82356H129.351V11.3651ZM134.703 15.1176H139.102V18.3265C139.248 17.8564 140.318 14.7538 144.502 14.7538C148.366 14.7538 150.656 17.0634 150.656 20.9917V33.1447H146.197V22.4347C146.197 20.3091 145.268 18.723 142.872 18.723C140.545 18.723 139.187 20.1987 139.187 22.868V33.1447H134.727L134.703 15.1176ZM174.901 29.3594V33.1447H169.144C169.05 33.1504 168.956 33.1364 168.868 33.1036C168.78 33.0708 168.7 33.0199 168.632 32.9542C168.565 32.8885 168.512 32.8093 168.476 32.7218C168.441 32.6343 168.423 32.5402 168.426 32.4457V29.2163C167.818 31.342 166.176 33.5044 162.75 33.5044C158.1 33.5044 154.739 30.0094 154.739 24.1312C154.739 18.1794 158.42 14.7538 163.001 14.7538C167.222 14.7538 168.077 18.2529 168.077 18.2529V15.1176H172.537V29.3594H174.901ZM168.211 24.1679C168.211 20.7792 166.589 18.6495 163.922 18.6495C161.347 18.6495 159.381 20.5625 159.381 24.1312C159.381 27.6998 161.023 29.6128 163.727 29.6128C166.46 29.6128 168.211 27.8101 168.211 24.1679ZM184.023 7.91908V33.1447H179.539V10.6088H176.749V6.82356H182.936C183.079 6.82191 183.221 6.84913 183.354 6.9036C183.486 6.95807 183.607 7.03871 183.708 7.14077C183.809 7.24282 183.889 7.36425 183.943 7.4979C183.997 7.63156 184.024 7.77476 184.023 7.91908ZM192.054 41.4388H187.594V37.6535H190.89C192.07 37.6535 192.609 37.2938 193.035 36.2105L194.361 32.8217L187.477 15.1176H192.447L196.631 27.8428L200.961 15.1176H205.932L197.134 37.9396C196.206 40.3555 194.665 41.4388 192.054 41.4388ZM208.409 31.9919V27.6303C209.017 28.0391 211.482 29.6742 214.239 29.6742C216.347 29.6742 217.275 29.061 217.275 27.8715C217.275 24.3028 208.158 26.9354 208.158 20.1578C208.158 17.092 210.732 14.7456 215.455 14.7456C218.062 14.7456 219.915 15.4324 220.641 15.8657V20.1824C219.745 19.6019 217.957 18.4492 215.524 18.4492C213.416 18.4492 212.629 19.0991 212.629 20.1088C212.629 23.0275 221.711 21.0081 221.711 27.6466C221.711 31.252 218.743 33.5208 214.413 33.5208C211.567 33.5044 209.232 32.5315 208.409 31.9919ZM232.406 15.8371V33.1447H227.946V18.9029H224.703V15.1176H231.713C231.806 15.1146 231.899 15.1313 231.986 15.1667C232.073 15.202 232.152 15.2553 232.217 15.323C232.282 15.3907 232.333 15.4714 232.365 15.5599C232.398 15.6484 232.412 15.7428 232.406 15.8371ZM232.264 11.3651H227.435V6.82356H232.264V11.3651ZM237.186 31.9919V27.6303C237.79 28.0391 240.259 29.6742 243.012 29.6742C245.124 29.6742 246.053 29.061 246.053 27.8715C246.053 24.3028 236.935 26.9354 236.935 20.1578C236.935 17.092 239.509 14.7456 244.232 14.7456C246.843 14.7456 248.692 15.4324 249.418 15.8657V20.1824C247.922 19.1062 246.142 18.5028 244.305 18.4492C242.193 18.4492 241.406 19.0991 241.406 20.1088C241.406 23.0275 250.492 21.0081 250.492 27.6466C250.492 31.252 247.524 33.5208 243.194 33.5208C240.352 33.5044 238.005 32.5315 237.186 31.9919Z" fill="black"/>
<path d="M20.6144 0.561523C21.0685 0.561523 21.5834 0.618752 21.5834 0.618752C20.0599 2.46105 19.1419 4.73514 18.9563 7.12647C16.0858 7.61064 13.4431 9.00474 11.412 11.1063C9.38081 13.208 8.06694 15.9076 7.66113 18.8134C5.03804 19.0995 2.07033 20.3095 0.363494 22.0386C-0.0419302 10.1759 8.97471 0.561523 20.6144 0.561523ZM23.5335 36.1987C22.9966 36.2787 22.4545 36.3183 21.9118 36.3172C20.975 36.3059 20.0403 36.2281 19.1144 36.0842C18.391 37.8403 17.4364 39.4902 16.2764 40.9895C12.6378 40.1804 9.29069 38.3759 6.60286 35.774C3.91504 33.1721 1.99046 29.8736 1.04055 26.2409C2.86902 24.0539 7.09354 22.7867 9.71663 22.7867C15.3115 22.7867 18.2792 25.7789 19.309 30.4431C15.9399 29.5233 13.9412 27.6225 12.6276 24.802C11.8599 24.521 11.0481 24.3825 10.2315 24.3932C9.49465 24.3902 8.76216 24.5075 8.0625 24.7407C9.54636 30.4431 15.0277 34.7025 21.705 34.7025C27.8715 34.7025 30.4946 31.5386 30.4946 31.5386V26.6987C30.4946 26.6987 27.4702 29.8667 23.7038 30.5003C23.2801 27.5436 21.9157 24.8056 19.8159 22.698C17.7161 20.5904 14.9943 19.2272 12.06 18.8134C13.0289 13.9776 16.6818 11.2715 21.6483 11.2715C26.6147 11.2715 30.6122 14.8973 30.6122 14.8973V10.1187C30.6122 10.1187 28.0418 7.69876 23.4767 7.1837C23.5903 5.05807 24.9606 2.40511 26.4444 1.42404C32.6636 3.38208 38.6599 8.67982 40.3708 16.3934C40.3708 16.3934 37.6301 19.1568 32.4934 19.1568C28.2689 19.1568 25.6012 17.027 24.1011 13.2867C23.3142 13.0041 22.4835 12.8657 21.6483 12.878C20.8688 12.8694 20.0946 13.008 19.3657 13.2867C21.0199 19.2753 26.2579 23.3018 32.0961 23.3018C37.8044 23.3018 40.8857 20.657 40.8857 20.657C40.8857 32.63 31.8082 41.2103 21.0199 41.4392C22.2767 40.2128 23.2456 37.5231 23.5335 36.1987Z" fill="black"/>
</g>
<defs>
<clipPath id="clip0_0_2029">
<rect width="250.147" height="40.8777" fill="white" transform="translate(0.342529 0.561279)"/>
</clipPath>
</defs>
</svg>
