<svg width="272" height="34" viewBox="0 0 272 34" fill="none" xmlns="http://www.w3.org/2000/svg">
<g clip-path="url(#clip0_0_2046)">
<path d="M62.2739 24.386C59.1135 24.386 56.6372 23.4525 54.8175 21.5993C52.9979 19.7461 52.1086 17.2614 52.1086 14.1864C52.1086 10.9055 53.1211 8.22867 55.1459 6.21072C57.1707 4.19276 59.7976 3.13574 63.04 3.13574C65.0649 3.13574 66.734 3.38284 68.1021 3.90449V8.35222C66.7203 7.54229 65.147 7.14419 63.3958 7.14419C61.453 7.14419 59.907 7.74821 58.7304 8.96996C57.5538 10.1917 56.9518 11.839 56.9518 13.9119C56.9518 15.9024 57.5128 17.4811 58.6073 18.6479C59.7428 19.8285 61.2478 20.4325 63.1084 20.4325C64.9281 20.4325 66.5562 19.9932 68.0474 19.1009V23.3153C68.0611 23.3015 64.7092 24.386 62.2739 24.386Z" fill="#0A1623"/>
<path d="M62.274 24.5917C59.0863 24.5917 56.5279 23.6308 54.6672 21.7364C52.8339 19.8557 51.8899 17.3161 51.8899 14.1862C51.8899 10.8504 52.9297 8.11865 54.9956 6.07325C57.0751 3.98665 59.784 2.94336 63.0402 2.94336C65.1198 2.94336 66.8026 3.20418 68.1844 3.72583L68.3212 3.78074V8.72267L68.0202 8.54421C66.6794 7.76174 65.1334 7.36364 63.4233 7.36364C61.5352 7.36364 60.0577 7.94019 58.9084 9.12077C57.7592 10.3013 57.1846 11.9212 57.1846 13.9254C57.1846 15.8335 57.7318 17.3848 58.7853 18.5241C59.8798 19.6635 61.3437 20.2401 63.136 20.2401C64.9145 20.2401 66.5016 19.8145 67.9792 18.936L68.2801 18.7575V23.4661L68.1433 23.5073C67.9928 23.5347 64.7093 24.5917 62.274 24.5917ZM63.0402 3.34146C59.8935 3.34146 57.2803 4.3573 55.2829 6.36152C53.2991 8.33829 52.3003 10.974 52.3003 14.2C52.3003 17.22 53.1896 19.6635 54.9545 21.4619C56.7605 23.3013 59.141 24.1936 62.2604 24.1936C64.3536 24.1936 67.1993 23.3563 67.856 23.1503V19.4439C66.4058 20.2401 64.8461 20.6382 63.1086 20.6382C61.2069 20.6382 59.6472 20.0205 58.4706 18.7987C57.3351 17.5769 56.7468 15.9296 56.7468 13.9254C56.7468 11.8114 57.3624 10.1092 58.5801 8.84621C59.784 7.59701 61.4121 6.96554 63.3822 6.96554C65.0377 6.96554 66.5563 7.32245 67.8834 8.03629V4.04156C66.5973 3.57483 65.0103 3.34146 63.0402 3.34146Z" fill="#0A1623"/>
<path d="M80.8614 13.4176C80.3278 13.1293 79.6848 12.9783 78.9597 12.9783C77.9883 12.9783 77.2221 13.349 76.6475 14.0765C76.0866 14.8041 75.7993 15.7788 75.7993 17.028V24.029H71.2571V9.3268H75.7993V12.0449H75.8403C76.5654 10.0544 77.8652 9.05225 79.7258 9.05225C80.2184 9.05225 80.5741 9.09343 80.8614 9.21698V13.4176Z" fill="#0A1623"/>
<path d="M76.0085 24.2211H71.0696V9.12074H76.0085V11.1662C76.8157 9.62866 78.0607 8.84619 79.7436 8.84619C80.3045 8.84619 80.6602 8.9011 80.9612 9.02465L81.0843 9.07956V13.7607L80.7833 13.5959C80.2771 13.3214 79.6478 13.1704 78.9774 13.1704C78.0607 13.1704 77.363 13.4998 76.8294 14.1862C76.2822 14.8863 76.0222 15.8061 76.0222 17.0141V24.2211H76.0085ZM71.4663 23.823H75.5981V17.0278C75.5981 15.7237 75.8854 14.7216 76.4874 13.9528C77.0894 13.1704 77.9239 12.786 78.9637 12.786C79.5794 12.786 80.154 12.8958 80.6602 13.1155V9.35411C80.4413 9.28547 80.1403 9.25802 79.7299 9.25802C77.9513 9.25802 76.7337 10.1915 76.0359 12.1271L75.9812 12.2644H75.5981V9.53257H71.4663V23.823Z" fill="#0A1623"/>
<path d="M98.1297 9.32675L92.1783 25.1546C90.7555 28.9572 88.5664 30.8653 85.6934 30.8653C84.5989 30.8653 83.7096 30.7418 82.9845 30.4947V26.898C83.5864 27.2687 84.2431 27.4197 84.9272 27.4197C86.1038 27.4197 86.911 26.8569 87.3625 25.7586L88.1286 23.9329L82.1636 9.28557H87.2257L89.9756 18.1948C90.1398 18.7576 90.304 19.4028 90.3861 20.1441H90.4271C90.5092 19.5812 90.6734 18.936 90.9196 18.1948L93.6696 9.24438H98.1297V9.32675Z" fill="#0A1623"/>
<path d="M85.6975 31.0711C84.5893 31.0711 83.6726 30.9476 82.9202 30.7005L82.7834 30.6593V26.5548L83.0843 26.7332C83.6453 27.0627 84.2473 27.2274 84.9313 27.2274C86.0258 27.2274 86.7509 26.7195 87.1751 25.6899L87.9139 23.9465L81.8667 9.07957H87.3803L90.185 18.126C90.267 18.4143 90.3628 18.7438 90.4312 19.1144C90.5133 18.7987 90.6091 18.4692 90.7322 18.1123L93.5369 9.02466H98.3527L98.339 9.38157L92.3877 25.2095C90.9238 29.1081 88.68 31.0711 85.6975 31.0711ZM83.1801 30.3573C83.8642 30.5632 84.6987 30.673 85.6975 30.673C88.4885 30.673 90.6091 28.7924 91.9909 25.0996L97.8739 9.46394H93.8242L91.1153 18.2633C90.869 18.9771 90.7185 19.6223 90.6364 20.1714L90.6091 20.3499H90.2123L90.1986 20.1714C90.1166 19.4164 89.9387 18.7575 89.8019 18.2633L87.093 9.50512H82.4687L88.338 23.9603L87.5308 25.8547C87.0519 27.0352 86.1626 27.6392 84.9176 27.6392C84.2883 27.6392 83.7137 27.5157 83.1801 27.2549V30.3573Z" fill="#0A1623"/>
<path d="M104.536 22.3267H104.495V30.7829H99.9524V9.3267H104.495V11.5094H104.536C105.671 9.80716 107.204 8.95605 109.242 8.95605C111.144 8.95605 112.608 9.60125 113.661 10.9054C114.715 12.2095 115.207 13.9803 115.207 16.2042C115.207 18.634 114.605 20.6108 113.387 22.0796C112.17 23.5759 110.555 24.3035 108.572 24.3035C106.848 24.3447 105.466 23.6583 104.536 22.3267ZM104.413 16.2866V17.4671C104.413 18.483 104.7 19.2929 105.22 19.9381C105.753 20.5833 106.478 20.9128 107.327 20.9128C108.339 20.9128 109.146 20.5147 109.721 19.7047C110.282 18.8948 110.569 17.7554 110.569 16.3003C110.569 13.7058 109.557 12.4154 107.573 12.4154C106.643 12.4154 105.876 12.786 105.302 13.4724C104.741 14.1863 104.413 15.1197 104.413 16.2866Z" fill="#0A1623"/>
<path d="M104.704 30.9886H99.7649V9.12059H104.704V10.9326C105.853 9.47751 107.344 8.76367 109.246 8.76367C111.189 8.76367 112.735 9.43632 113.816 10.7816C114.883 12.0995 115.403 13.8703 115.403 16.2177C115.403 18.7162 114.773 20.7341 113.528 22.2167C112.297 23.7405 110.614 24.5229 108.548 24.5229C106.975 24.5641 105.662 23.9875 104.704 22.8756V30.9886ZM100.162 30.5768H104.293V22.1206H104.649L104.704 22.203C105.593 23.4796 106.934 24.1248 108.548 24.0974C110.491 24.0974 112.064 23.3698 113.214 21.9421C114.39 20.5282 114.992 18.5926 114.992 16.204C114.992 13.9527 114.5 12.2642 113.501 11.0287C112.475 9.76578 111.079 9.16177 109.246 9.16177C107.303 9.16177 105.826 9.9717 104.718 11.619L104.663 11.7151H104.307V9.53242H100.175V30.5768H100.162ZM107.344 21.1048C106.414 21.1048 105.634 20.7478 105.073 20.0615C104.499 19.3614 104.211 18.4828 104.211 17.467V16.2864C104.211 15.1195 104.526 14.1312 105.142 13.335C105.757 12.5937 106.592 12.2093 107.577 12.2093C109.698 12.2093 110.778 13.582 110.778 16.3001C110.778 17.7964 110.477 18.977 109.889 19.8144C109.287 20.6655 108.425 21.1048 107.344 21.1048ZM107.577 12.6074C106.715 12.6074 106.004 12.9369 105.47 13.582C104.909 14.2959 104.622 15.2156 104.622 16.2864V17.467C104.622 18.4142 104.868 19.1692 105.388 19.8144C105.867 20.4047 106.537 20.7067 107.344 20.7067C108.302 20.7067 109.041 20.3223 109.574 19.581C110.108 18.8123 110.395 17.7003 110.395 16.3001C110.382 13.8154 109.465 12.6074 107.577 12.6074Z" fill="#0A1623"/>
<path d="M124.026 24.3449C120.824 24.3449 119.237 22.6839 119.237 19.3618V12.6902H116.843V9.36814H119.237V6.2108L123.738 4.92041V9.36814H127.022V12.6902H123.738V18.648C123.738 20.1855 124.34 20.9542 125.558 20.9542C126.051 20.9542 126.529 20.8307 127.022 20.5561V23.837C127.022 23.8233 125.408 24.3449 124.026 24.3449Z" fill="#0A1623"/>
<path d="M124.03 24.5505C120.719 24.5505 119.05 22.8071 119.05 19.3752V12.8958H116.656V9.16188H119.05V6.05945L123.948 4.64551V9.16188H127.231V12.882H123.948V18.6339C123.948 20.0753 124.468 20.7342 125.562 20.7342C126.041 20.7342 126.479 20.6107 126.917 20.3636L127.218 20.1851V23.9602L127.081 24.0014C127.026 24.0426 125.425 24.5505 124.03 24.5505ZM117.052 12.484H119.447V19.3615C119.447 22.5737 120.938 24.1387 124.03 24.1387C125.124 24.1387 126.41 23.7955 126.821 23.6719V20.8715C126.424 21.05 126 21.146 125.562 21.146C124.632 21.146 123.537 20.7068 123.537 18.6339V12.484H126.821V9.57371H123.537V5.18088L119.447 6.36145V9.57371H117.052V12.484Z" fill="#0A1623"/>
<path d="M136.499 24.3448C134.064 24.3448 132.121 23.6584 130.739 22.2856C129.316 20.9129 128.632 19.0459 128.632 16.6985C128.632 14.2687 129.357 12.3606 130.821 10.9878C132.285 9.61509 134.228 8.92871 136.69 8.92871C139.126 8.92871 141.027 9.61509 142.45 10.9878C143.832 12.3606 144.516 14.1864 144.516 16.4102C144.516 18.84 143.791 20.7756 142.368 22.2033C140.945 23.6309 138.975 24.3448 136.499 24.3448ZM136.581 12.443C135.527 12.443 134.679 12.8136 134.064 13.5412C133.462 14.2687 133.174 15.3258 133.174 16.6573C133.174 19.4852 134.31 20.8717 136.581 20.8717C138.77 20.8717 139.823 19.4166 139.823 16.5338C139.864 13.8157 138.77 12.443 136.581 12.443Z" fill="#0A1623"/>
<path d="M136.503 24.5505C133.999 24.5505 132.015 23.8367 130.606 22.4228C129.17 21.0226 128.445 19.1007 128.445 16.6984C128.445 14.2274 129.197 12.2506 130.702 10.8367C132.193 9.43649 134.218 8.72266 136.722 8.72266C139.184 8.72266 141.168 9.43649 142.618 10.8504C144.028 12.2644 144.753 14.1313 144.753 16.4238C144.753 18.8948 144.014 20.899 142.55 22.3541C141.059 23.8093 139.034 24.5505 136.503 24.5505ZM136.708 9.12076C134.287 9.12076 132.398 9.77968 130.976 11.125C129.566 12.4703 128.841 14.3372 128.841 16.6984C128.841 19.0183 129.512 20.8029 130.894 22.1345C132.221 23.4661 134.109 24.1387 136.503 24.1387C138.924 24.1387 140.854 23.4386 142.235 22.0521C143.617 20.6656 144.329 18.7712 144.329 16.4101C144.329 14.2411 143.658 12.4566 142.317 11.125C140.936 9.77968 139.089 9.12076 136.708 9.12076ZM136.585 21.0637C134.191 21.0637 132.973 19.5812 132.973 16.6572C132.973 15.2433 133.288 14.1588 133.917 13.4038C134.56 12.635 135.463 12.2369 136.585 12.2369C137.611 12.2369 138.432 12.5389 139.007 13.1155C139.718 13.8293 140.06 14.9824 140.033 16.5336C140.033 19.54 138.87 21.0637 136.585 21.0637ZM136.585 12.6487C135.586 12.6487 134.793 12.9919 134.232 13.6646C133.671 14.3372 133.384 15.3393 133.384 16.6572C133.384 19.3478 134.437 20.6656 136.585 20.6656C138.624 20.6656 139.622 19.3203 139.622 16.5336C139.65 15.0922 139.335 14.0352 138.706 13.4038C138.213 12.9096 137.502 12.6487 136.585 12.6487Z" fill="#0A1623"/>
<path d="M164.557 23.3559C163.052 24.0834 161.11 24.4541 158.688 24.4541C155.528 24.4541 153.051 23.5206 151.232 21.6674C149.412 19.8004 148.523 17.3294 148.523 14.2545C148.523 10.9736 149.535 8.29671 151.56 6.23757C153.585 4.17844 156.225 3.1626 159.468 3.1626C161.493 3.1626 163.162 3.40969 164.53 3.93134V8.37907C163.148 7.56915 161.575 7.17105 159.824 7.17105C157.881 7.17105 156.335 7.77506 155.158 8.99681C153.982 10.2048 153.38 11.8659 153.38 13.9387C153.38 15.9292 153.941 17.5079 155.035 18.6748C156.171 19.8553 157.676 20.4593 159.577 20.4593C161.397 20.4593 163.025 20.0201 164.557 19.1278V23.3559Z" fill="#00D665"/>
<path d="M174.727 24.4541C172.292 24.4541 170.349 23.7678 168.927 22.395C167.504 21.0223 166.82 19.1553 166.82 16.8079C166.82 14.3781 167.545 12.47 169.009 11.0972C170.472 9.72446 172.415 9.03809 174.919 9.03809C177.354 9.03809 179.256 9.72446 180.679 11.0972C182.061 12.47 182.745 14.2957 182.745 16.5196C182.745 18.9494 182.02 20.885 180.597 22.3126C179.146 23.754 177.204 24.4541 174.727 24.4541ZM174.851 12.5523C173.797 12.5523 172.949 12.923 172.333 13.6505C171.731 14.3781 171.444 15.4351 171.444 16.7667C171.444 19.5946 172.579 20.9811 174.851 20.9811C177.04 20.9811 178.093 19.5259 178.093 16.6432C178.134 13.9251 177.04 12.5523 174.851 12.5523Z" fill="#00D665"/>
<path d="M209.012 24.0837H204.469V15.7373C204.469 13.5958 203.703 12.5388 202.116 12.5388C201.391 12.5388 200.775 12.8683 200.297 13.5135C199.804 14.1587 199.612 14.9686 199.612 15.9021V24.1249H195.07V15.6687C195.07 13.6096 194.304 12.5526 192.758 12.5526C191.992 12.5526 191.376 12.882 190.897 13.486C190.446 14.09 190.213 14.9412 190.213 15.9982V24.1386H185.671V9.43639H190.213V11.7426H190.254C190.747 10.9739 191.39 10.3287 192.238 9.8345C193.086 9.35403 194.017 9.10693 195.029 9.10693C197.095 9.10693 198.518 10.0404 199.284 11.8662C200.42 10.0404 202.034 9.10693 204.223 9.10693C207.424 9.10693 209.012 11.0974 209.012 15.0235V24.0837Z" fill="#00D665"/>
<path d="M217.2 22.3815H217.159V30.8377H212.616V9.43639H217.159V11.6603H217.2C218.335 9.95804 219.868 9.10693 221.906 9.10693C223.808 9.10693 225.272 9.75213 226.325 11.0562C227.379 12.3466 227.871 14.1312 227.871 16.3963C227.871 18.8261 227.269 20.8028 226.052 22.3129C224.834 23.8092 223.22 24.5367 221.236 24.5367C219.457 24.4544 218.13 23.7542 217.2 22.3815ZM217.077 16.3963V17.5768C217.077 18.5927 217.364 19.4026 217.884 20.0478C218.417 20.693 219.142 21.0225 219.991 21.0225C221.003 21.0225 221.81 20.6244 222.385 19.8144C222.946 19.0045 223.233 17.8651 223.233 16.41C223.233 13.8155 222.221 12.5251 220.237 12.5251C219.307 12.5251 218.54 12.8957 217.966 13.5821C217.35 14.2822 217.077 15.2157 217.077 16.3963Z" fill="#00D665"/>
<path d="M242.776 24.0838H238.48V21.9834H238.398C237.427 23.6445 235.963 24.4544 234.02 24.4544C232.597 24.4544 231.462 24.0563 230.654 23.2464C229.847 22.4365 229.437 21.3383 229.437 20.0067C229.437 17.1788 231.133 15.5178 234.499 15.0648L238.466 14.5431C238.466 12.9233 237.618 12.1545 235.867 12.1545C234.129 12.1545 232.46 12.6762 230.887 13.7332V10.315C231.53 9.98555 232.392 9.711 233.486 9.46391C234.581 9.21681 235.593 9.09326 236.483 9.09326C240.655 9.09326 242.762 11.1936 242.762 15.3668L242.776 24.0838ZM238.521 18.1397V17.1651L235.853 17.4945C234.389 17.7004 233.623 18.3456 233.623 19.485C233.623 20.0067 233.787 20.4185 234.157 20.7342C234.526 21.0637 235.005 21.2147 235.621 21.2147C236.469 21.2147 237.167 20.9264 237.687 20.3224C238.234 19.787 238.521 19.0183 238.521 18.1397Z" fill="#00D665"/>
<path d="M255.94 13.5133C255.406 13.225 254.763 13.074 254.038 13.074C253.066 13.074 252.3 13.4446 251.726 14.1722C251.165 14.8997 250.877 15.8744 250.877 17.1236V24.1247H246.335V9.43617H250.877V12.1542H250.918C251.644 10.1637 252.943 9.16162 254.804 9.16162C255.296 9.16162 255.652 9.2028 255.94 9.32635V13.5133Z" fill="#00D665"/>
<path d="M271.138 18.057H261.534C261.698 20.1985 263.039 21.2555 265.542 21.2555C267.157 21.2555 268.58 20.8849 269.797 20.1161V23.397C268.415 24.1246 266.678 24.4952 264.489 24.4952C262.095 24.4952 260.275 23.85 258.975 22.5047C257.676 21.2143 256.991 19.3474 256.991 17C256.991 14.5702 257.676 12.6346 259.098 11.2069C260.521 9.79299 262.259 9.06543 264.325 9.06543C266.473 9.06543 268.128 9.71063 269.305 10.9736C270.481 12.2228 271.042 13.9662 271.042 16.1489V18.057H271.138ZM266.924 15.2566C266.924 13.1562 266.076 12.0992 264.366 12.0992C263.641 12.0992 263.025 12.3875 262.464 12.9915C261.93 13.5955 261.616 14.3231 261.493 15.2566H266.924Z" fill="#00D665"/>
<path d="M15.5068 24.6046V20.7334L19.5428 16.6975V24.6046" fill="#0A1623"/>
<path d="M21.3821 24.6048V19.2511L23.3385 20.665L25.7601 18.6196V24.6048" fill="#0A1623"/>
<path d="M27.3586 24.6046H31.9966V13.1421L27.3586 17.2329" fill="#0A1623"/>
<path d="M15.287 18.6192L14.343 17.5209L19.5693 12.5104L23.318 16.0658L29.9398 10.0531L28.8316 8.7353L33.4969 7.66455L32.5803 12.1672L31.2532 11.22L23.318 18.8662L19.5693 15.654L19.1862 15.3108C19.1862 15.3108 15.7248 18.8662 15.4922 18.7427" fill="#00D665"/>
<path d="M28.9034 31.6744L28.0414 28.4896C34.7726 26.6638 40.5599 22.724 43.1456 18.2214C44.4727 15.8877 44.8832 13.554 44.3085 11.44C43.4877 8.43362 40.7788 6.08621 36.6607 4.80955C32.2826 3.45052 26.9469 3.50543 21.6249 4.94682L20.7493 1.76202C26.6733 0.155899 32.6657 0.128444 37.6321 1.66593C42.8583 3.28578 46.3608 6.44313 47.4826 10.5751C48.2898 13.5403 47.7836 16.7525 46.005 19.8687C42.9678 25.1813 36.5649 29.6015 28.9034 31.6744Z" fill="#00D665"/>
<path d="M18.3672 33.4726C15.5763 33.4726 12.8947 33.1019 10.4731 32.3469C5.24683 30.727 1.74441 27.556 0.622536 23.4377C-0.184664 20.4726 0.321546 17.2603 2.10012 14.1441C5.15106 8.81785 11.5539 4.39757 19.2155 2.32471L20.0774 5.5095C13.3462 7.33527 7.55898 11.2751 4.9732 15.7777C3.64611 18.1114 3.23567 20.4451 3.81029 22.5454C4.63117 25.5518 7.34008 27.8992 11.4582 29.1758C15.8362 30.5349 21.1719 30.48 26.494 29.0386L27.3559 32.2234C24.3323 33.0607 21.2814 33.4726 18.3672 33.4726Z" fill="#0A1623"/>
</g>
<defs>
<clipPath id="clip0_0_2046">
<rect width="270.891" height="32.9462" fill="white" transform="translate(0.241455 0.526855)"/>
</clipPath>
</defs>
</svg>
