<svg width="444" height="55" viewBox="0 0 444 55" fill="none" xmlns="http://www.w3.org/2000/svg">
<g clip-path="url(#clip0_0_1164)">
<path d="M101.672 39.6049C96.4917 39.6049 92.4329 38.0749 89.4505 35.0374C86.4681 31.9999 85.0105 27.9274 85.0105 22.8874C85.0105 17.5099 86.6699 13.1224 89.9887 9.8149C93.3075 6.5074 97.6129 4.7749 102.927 4.7749C106.246 4.7749 108.982 5.1799 111.224 6.0349V13.3249C108.96 11.9974 106.381 11.3449 103.51 11.3449C100.326 11.3449 97.7923 12.3349 95.8638 14.3374C93.9353 16.3399 92.9487 19.0399 92.9487 22.4374C92.9487 25.6999 93.8681 28.2874 95.662 30.1999C97.5232 32.1349 99.9899 33.1249 103.04 33.1249C106.022 33.1249 108.691 32.4049 111.135 30.9424V37.8499C111.157 37.8274 105.663 39.6049 101.672 39.6049Z" fill="#0A1623"/>
<path d="M101.672 39.9425C96.4468 39.9425 92.2534 38.3675 89.2037 35.2625C86.1989 32.18 84.6516 28.0175 84.6516 22.8875C84.6516 17.42 86.3559 12.9425 89.7419 9.58996C93.1504 6.16996 97.5904 4.45996 102.927 4.45996C106.336 4.45996 109.094 4.88746 111.359 5.74246L111.583 5.83246V13.9325L111.09 13.64C108.892 12.3575 106.358 11.705 103.555 11.705C100.461 11.705 98.0389 12.65 96.1553 14.585C94.2716 16.52 93.3298 19.175 93.3298 22.46C93.3298 25.5875 94.2268 28.13 95.9534 29.9975C97.7474 31.865 100.147 32.81 103.084 32.81C105.999 32.81 108.601 32.1125 111.023 30.6725L111.516 30.38V38.0975L111.292 38.165C111.045 38.21 105.663 39.9425 101.672 39.9425ZM102.927 5.11246C97.7698 5.11246 93.4868 6.77746 90.2128 10.0625C86.9613 13.3025 85.3243 17.6225 85.3243 22.91C85.3243 27.86 86.7819 31.865 89.6746 34.8125C92.6346 37.8275 96.5365 39.29 101.649 39.29C105.08 39.29 109.744 37.9175 110.821 37.58V31.505C108.444 32.81 105.887 33.4625 103.039 33.4625C99.9225 33.4625 97.3662 32.45 95.4377 30.4475C93.5765 28.445 92.6122 25.745 92.6122 22.46C92.6122 18.995 93.6213 16.205 95.6171 14.135C97.5904 12.0875 100.259 11.0525 103.488 11.0525C106.201 11.0525 108.69 11.6375 110.866 12.8075V6.25996C108.758 5.49496 106.156 5.11246 102.927 5.11246Z" fill="#0A1623"/>
<path d="M132.146 21.6274C131.272 21.1549 130.218 20.9074 129.029 20.9074C127.437 20.9074 126.181 21.5149 125.239 22.7074C124.32 23.8999 123.849 25.4974 123.849 27.5449V39.0199H116.404V14.9224H123.849V19.3774H123.916C125.105 16.1149 127.235 14.4724 130.285 14.4724C131.092 14.4724 131.675 14.5399 132.146 14.7424V21.6274Z" fill="#0A1623"/>
<path d="M124.185 39.335H116.09V14.585H124.185V17.9375C125.509 15.4175 127.549 14.135 130.307 14.135C131.227 14.135 131.81 14.225 132.303 14.4275L132.505 14.5175V22.19L132.012 21.92C131.182 21.47 130.15 21.2225 129.052 21.2225C127.549 21.2225 126.405 21.7625 125.531 22.8875C124.634 24.035 124.208 25.5425 124.208 27.5225V39.335H124.185ZM116.741 38.6825H123.513V27.545C123.513 25.4075 123.984 23.765 124.97 22.505C125.957 21.2225 127.325 20.5925 129.029 20.5925C130.038 20.5925 130.98 20.7725 131.81 21.1325V14.9675C131.451 14.855 130.958 14.81 130.285 14.81C127.37 14.81 125.374 16.34 124.23 19.5125L124.141 19.7375H123.513V15.26H116.741V38.6825Z" fill="#0A1623"/>
<path d="M160.446 14.9226L150.691 40.8651C148.359 47.0976 144.771 50.2251 140.062 50.2251C138.268 50.2251 136.811 50.0226 135.622 49.6176V43.7226C136.609 44.3301 137.685 44.5776 138.806 44.5776C140.735 44.5776 142.058 43.6551 142.798 41.8551L144.054 38.8626L134.277 14.8551H142.574L147.081 29.4576C147.35 30.3801 147.619 31.4376 147.754 32.6526H147.821C147.955 31.7301 148.224 30.6726 148.628 29.4576L153.135 14.7876H160.446V14.9226Z" fill="#0A1623"/>
<path d="M140.062 50.5625C138.246 50.5625 136.743 50.36 135.51 49.955L135.286 49.8875V43.16L135.779 43.4525C136.698 43.9925 137.685 44.2625 138.806 44.2625C140.6 44.2625 141.789 43.43 142.484 41.7425L143.695 38.885L133.783 14.5175H142.82L147.417 29.345C147.552 29.8175 147.709 30.3575 147.821 30.965C147.955 30.4475 148.112 29.9075 148.314 29.3225L152.911 14.4275H160.804L160.782 15.0125L151.027 40.955C148.628 47.345 144.95 50.5625 140.062 50.5625ZM135.936 49.3925C137.057 49.73 138.425 49.91 140.062 49.91C144.637 49.91 148.112 46.8275 150.377 40.775L160.02 15.1475H153.382L148.942 29.57C148.538 30.74 148.292 31.7975 148.157 32.6975L148.112 32.99H147.462L147.44 32.6975C147.305 31.46 147.014 30.38 146.789 29.57L142.349 15.215H134.77L144.39 38.9075L143.067 42.0125C142.282 43.9475 140.824 44.9375 138.784 44.9375C137.752 44.9375 136.81 44.735 135.936 44.3075V49.3925Z" fill="#0A1623"/>
<path d="M170.94 36.2299H170.873V50.0899H163.428V14.9224H170.873V18.4999H170.94C172.801 15.7099 175.313 14.3149 178.654 14.3149C181.771 14.3149 184.17 15.3724 185.897 17.5099C187.624 19.6474 188.431 22.5499 188.431 26.1949C188.431 30.1774 187.444 33.4174 185.449 35.8249C183.453 38.2774 180.807 39.4699 177.555 39.4699C174.73 39.5374 172.465 38.4124 170.94 36.2299ZM170.738 26.3299V28.2649C170.738 29.9299 171.209 31.2574 172.061 32.3149C172.936 33.3724 174.124 33.9124 175.515 33.9124C177.174 33.9124 178.497 33.2599 179.439 31.9324C180.358 30.6049 180.829 28.7374 180.829 26.3524C180.829 22.0999 179.17 19.9849 175.918 19.9849C174.393 19.9849 173.138 20.5924 172.196 21.7174C171.276 22.8874 170.738 24.4174 170.738 26.3299Z" fill="#0A1623"/>
<path d="M171.209 50.4275H163.114V14.585H171.209V17.555C173.093 15.17 175.537 14 178.654 14C181.838 14 184.372 15.1025 186.144 17.3075C187.893 19.4675 188.745 22.37 188.745 26.2175C188.745 30.3125 187.713 33.62 185.673 36.05C183.655 38.5475 180.896 39.83 177.51 39.83C174.932 39.8975 172.779 38.9525 171.209 37.13V50.4275ZM163.764 49.7525H170.536V35.8925H171.119L171.209 36.0275C172.667 38.12 174.864 39.1775 177.51 39.1325C180.695 39.1325 183.273 37.94 185.157 35.6C187.086 33.2825 188.072 30.11 188.072 26.195C188.072 22.505 187.265 19.7375 185.628 17.7125C183.946 15.6425 181.659 14.6525 178.654 14.6525C175.47 14.6525 173.048 15.98 171.232 18.68L171.142 18.8375H170.559V15.26H163.787V49.7525H163.764ZM175.537 34.2275C174.012 34.2275 172.734 33.6425 171.815 32.5175C170.873 31.37 170.402 29.93 170.402 28.265V26.33C170.402 24.4175 170.918 22.7975 171.927 21.4925C172.936 20.2775 174.304 19.6475 175.918 19.6475C179.394 19.6475 181.166 21.8975 181.166 26.3525C181.166 28.805 180.672 30.74 179.708 32.1125C178.721 33.5075 177.309 34.2275 175.537 34.2275ZM175.918 20.3C174.506 20.3 173.339 20.84 172.465 21.8975C171.546 23.0675 171.075 24.575 171.075 26.33V28.265C171.075 29.8175 171.478 31.055 172.33 32.1125C173.115 33.08 174.214 33.575 175.537 33.575C177.107 33.575 178.318 32.945 179.192 31.73C180.067 30.47 180.538 28.6475 180.538 26.3525C180.515 22.28 179.013 20.3 175.918 20.3Z" fill="#0A1623"/>
<path d="M202.895 39.5375C197.647 39.5375 195.046 36.815 195.046 31.37V20.435H191.122V14.99H195.046V9.81495L202.424 7.69995V14.99H207.805V20.435H202.424V30.2C202.424 32.72 203.41 33.98 205.406 33.98C206.213 33.98 206.998 33.7775 207.805 33.3275V38.705C207.805 38.6825 205.159 39.5375 202.895 39.5375Z" fill="#0A1623"/>
<path d="M202.895 39.875C197.468 39.875 194.732 37.0175 194.732 31.3925V20.7725H190.808V14.6525H194.732V9.5675L202.76 7.25V14.6525H208.142V20.75H202.76V30.1775C202.76 32.54 203.612 33.62 205.406 33.62C206.191 33.62 206.908 33.4175 207.626 33.0125L208.119 32.72V38.9075L207.895 38.975C207.805 39.0425 205.182 39.875 202.895 39.875ZM191.458 20.0975H195.382V31.37C195.382 36.635 197.827 39.2 202.895 39.2C204.688 39.2 206.796 38.6375 207.469 38.435V33.845C206.819 34.1375 206.124 34.295 205.406 34.295C203.881 34.295 202.087 33.575 202.087 30.1775V20.0975H207.469V15.3275H202.087V8.1275L195.382 10.0625V15.3275H191.458V20.0975Z" fill="#0A1623"/>
<path d="M223.346 39.5373C219.354 39.5373 216.17 38.4123 213.905 36.1623C211.573 33.9123 210.452 30.8523 210.452 27.0048C210.452 23.0223 211.64 19.8948 214.04 17.6448C216.439 15.3948 219.623 14.2698 223.66 14.2698C227.651 14.2698 230.768 15.3948 233.1 17.6448C235.365 19.8948 236.486 22.8873 236.486 26.5323C236.486 30.5148 235.298 33.6873 232.966 36.0273C230.633 38.3673 227.404 39.5373 223.346 39.5373ZM223.48 20.0298C221.753 20.0298 220.363 20.6373 219.354 21.8298C218.367 23.0223 217.897 24.7548 217.897 26.9373C217.897 31.5723 219.758 33.8448 223.48 33.8448C227.068 33.8448 228.795 31.4598 228.795 26.7348C228.862 22.2798 227.068 20.0298 223.48 20.0298Z" fill="#0A1623"/>
<path d="M223.346 39.8749C219.242 39.8749 215.99 38.7049 213.681 36.3874C211.326 34.0924 210.138 30.9424 210.138 27.0049C210.138 22.9549 211.371 19.7149 213.838 17.3974C216.282 15.1024 219.601 13.9324 223.704 13.9324C227.741 13.9324 230.992 15.1024 233.369 17.4199C235.679 19.7374 236.867 22.7974 236.867 26.5549C236.867 30.6049 235.656 33.8899 233.257 36.2749C230.813 38.6599 227.494 39.8749 223.346 39.8749ZM223.682 14.5849C219.713 14.5849 216.618 15.6649 214.286 17.8699C211.976 20.0749 210.788 23.1349 210.788 27.0049C210.788 30.8074 211.887 33.7324 214.152 35.9149C216.327 38.0974 219.421 39.1999 223.346 39.1999C227.315 39.1999 230.476 38.0524 232.741 35.7799C235.006 33.5074 236.172 30.4024 236.172 26.5324C236.172 22.9774 235.073 20.0524 232.876 17.8699C230.611 15.6649 227.584 14.5849 223.682 14.5849ZM223.48 34.1599C219.556 34.1599 217.56 31.7299 217.56 26.9374C217.56 24.6199 218.076 22.8424 219.107 21.6049C220.161 20.3449 221.641 19.6924 223.48 19.6924C225.162 19.6924 226.507 20.1874 227.449 21.1324C228.615 22.3024 229.176 24.1924 229.131 26.7349C229.131 31.6624 227.225 34.1599 223.48 34.1599ZM223.48 20.3674C221.843 20.3674 220.543 20.9299 219.623 22.0324C218.704 23.1349 218.233 24.7774 218.233 26.9374C218.233 31.3474 219.96 33.5074 223.48 33.5074C226.821 33.5074 228.458 31.3024 228.458 26.7349C228.503 24.3724 227.987 22.6399 226.956 21.6049C226.149 20.7949 224.983 20.3674 223.48 20.3674Z" fill="#0A1623"/>
<path d="M269.315 37.9176C266.848 39.1101 263.664 39.7176 259.695 39.7176C254.515 39.7176 250.456 38.1876 247.474 35.1501C244.492 32.0901 243.034 28.0401 243.034 23.0001C243.034 17.6226 244.693 13.2351 248.012 9.86007C251.331 6.48507 255.659 4.82007 260.973 4.82007C264.292 4.82007 267.028 5.22507 269.27 6.08007V13.3701C267.005 12.0426 264.427 11.3901 261.556 11.3901C258.372 11.3901 255.838 12.3801 253.91 14.3826C251.981 16.3626 250.995 19.0851 250.995 22.4826C250.995 25.7451 251.914 28.3326 253.708 30.2451C255.569 32.1801 258.036 33.1701 261.153 33.1701C264.135 33.1701 266.804 32.4501 269.315 30.9876V37.9176Z" fill="#00D665"/>
<path d="M285.976 39.7175C281.985 39.7175 278.801 38.5925 276.468 36.3425C274.136 34.0925 273.015 31.0325 273.015 27.185C273.015 23.2025 274.204 20.075 276.603 17.825C279.002 15.575 282.187 14.45 286.29 14.45C290.282 14.45 293.399 15.575 295.731 17.825C297.996 20.075 299.117 23.0675 299.117 26.7125C299.117 30.695 297.928 33.8675 295.596 36.2075C293.219 38.57 290.035 39.7175 285.976 39.7175ZM286.178 20.21C284.452 20.21 283.061 20.8175 282.052 22.01C281.065 23.2025 280.595 24.935 280.595 27.1175C280.595 31.7525 282.456 34.025 286.178 34.025C289.766 34.025 291.493 31.64 291.493 26.915C291.56 22.46 289.766 20.21 286.178 20.21Z" fill="#00D665"/>
<path d="M342.172 39.11H334.727V25.43C334.727 21.92 333.471 20.1875 330.87 20.1875C329.681 20.1875 328.672 20.7275 327.887 21.785C327.08 22.8425 326.766 24.17 326.766 25.7V39.1775H319.321V25.3175C319.321 21.9425 318.065 20.21 315.532 20.21C314.276 20.21 313.267 20.75 312.482 21.74C311.742 22.73 311.361 24.125 311.361 25.8575V39.2H303.916V15.1025H311.361V18.8825H311.428C312.235 17.6225 313.289 16.565 314.679 15.755C316.07 14.9675 317.595 14.5625 319.254 14.5625C322.64 14.5625 324.972 16.0925 326.228 19.085C328.089 16.0925 330.735 14.5625 334.323 14.5625C339.57 14.5625 342.172 17.825 342.172 24.26V39.11Z" fill="#00D665"/>
<path d="M355.604 36.32H355.536V50.18H348.092V15.1025H355.536V18.7475H355.604C357.465 15.9575 359.976 14.5625 363.318 14.5625C366.435 14.5625 368.834 15.62 370.561 17.7575C372.287 19.8725 373.095 22.7975 373.095 26.51C373.095 30.4925 372.108 33.7325 370.112 36.2075C368.116 38.66 365.47 39.8525 362.219 39.8525C359.304 39.7175 357.129 38.57 355.604 36.32ZM355.402 26.51V28.445C355.402 30.11 355.873 31.4375 356.725 32.495C357.599 33.5525 358.788 34.0925 360.178 34.0925C361.838 34.0925 363.161 33.44 364.102 32.1125C365.022 30.785 365.493 28.9175 365.493 26.5325C365.493 22.28 363.833 20.165 360.582 20.165C359.057 20.165 357.801 20.7725 356.859 21.8975C355.85 23.045 355.402 24.575 355.402 26.51Z" fill="#00D665"/>
<path d="M397.515 39.11H390.473V35.6675H390.339C388.747 38.39 386.347 39.7175 383.163 39.7175C380.831 39.7175 378.97 39.065 377.647 37.7375C376.324 36.41 375.651 34.61 375.651 32.4275C375.651 27.7925 378.431 25.07 383.948 24.3275L390.451 23.4725C390.451 20.8175 389.061 19.5575 386.19 19.5575C383.342 19.5575 380.607 20.4125 378.028 22.145V16.5425C379.082 16.0025 380.494 15.5525 382.288 15.1475C384.082 14.7425 385.742 14.54 387.199 14.54C394.039 14.54 397.492 17.9825 397.492 24.8225L397.515 39.11ZM390.541 29.3675V27.77L386.168 28.31C383.768 28.6475 382.513 29.705 382.513 31.5725C382.513 32.4275 382.782 33.1025 383.387 33.62C383.993 34.16 384.778 34.4075 385.787 34.4075C387.177 34.4075 388.321 33.935 389.173 32.945C390.07 32.0675 390.541 30.8075 390.541 29.3675Z" fill="#00D665"/>
<path d="M419.087 21.7851C418.212 21.3126 417.158 21.0651 415.97 21.0651C414.377 21.0651 413.122 21.6726 412.18 22.8651C411.26 24.0576 410.79 25.6551 410.79 27.7026V39.1776H403.345V15.1026H410.79V19.5576H410.857C412.045 16.2951 414.176 14.6526 417.225 14.6526C418.033 14.6526 418.616 14.7201 419.087 14.9226V21.7851Z" fill="#00D665"/>
<path d="M444 29.2326H428.258C428.527 32.7426 430.725 34.4751 434.828 34.4751C437.474 34.4751 439.807 33.8676 441.802 32.6076V37.9851C439.537 39.1776 436.69 39.7851 433.102 39.7851C429.177 39.7851 426.195 38.7276 424.065 36.5226C421.934 34.4076 420.813 31.3476 420.813 27.5001C420.813 23.5176 421.934 20.3451 424.267 18.0051C426.599 15.6876 429.447 14.4951 432.833 14.4951C436.353 14.4951 439.067 15.5526 440.995 17.6226C442.924 19.6701 443.843 22.5276 443.843 26.1051V29.2326H444ZM437.093 24.6426C437.093 21.2001 435.703 19.4676 432.9 19.4676C431.711 19.4676 430.702 19.9401 429.783 20.9301C428.908 21.9201 428.393 23.1126 428.191 24.6426H437.093Z" fill="#00D665"/>
<path d="M25.0254 39.9651V33.6201L31.6405 27.0051V39.9651" fill="#0A1623"/>
<path d="M34.6455 39.965V31.19L37.8522 33.5075L41.8213 30.155V39.965" fill="#0A1623"/>
<path d="M44.4448 39.965H52.0466V21.1775L44.4448 27.8825" fill="#0A1623"/>
<path d="M24.6667 30.1552L23.1194 28.3552L31.6854 20.1427L37.8297 25.9702L48.683 16.1152L46.8667 13.9552L54.5133 12.2002L53.0109 19.5802L50.8357 18.0277L37.8297 30.5602L31.6854 25.2952L31.0576 24.7327C31.0576 24.7327 25.3842 30.5602 25.003 30.3577" fill="#00D665"/>
<path d="M46.9789 51.5526L45.5661 46.3326C56.5989 43.3401 66.0843 36.8826 70.3225 29.5026C72.4977 25.6776 73.1704 21.8526 72.2286 18.3876C70.8831 13.4601 66.4431 9.61261 59.6934 7.52011C52.5177 5.29261 43.7722 5.38261 35.0492 7.74511L33.614 2.52511C43.3237 -0.107389 53.1455 -0.152389 61.2855 2.36761C69.8516 5.02261 75.5922 10.1976 77.431 16.9701C78.754 21.8301 77.9243 27.0951 75.0092 32.2026C70.031 40.9101 59.5364 48.1551 46.9789 51.5526Z" fill="#00D665"/>
<path d="M29.7122 54.5C25.1376 54.5 20.7425 53.8925 16.7734 52.655C8.20731 50 2.4667 44.8025 0.627914 38.0525C-0.695116 33.1925 0.134581 27.9275 3.04973 22.82C8.05034 14.09 18.5449 6.84501 31.1025 3.44751L32.5152 8.66751C21.4825 11.66 11.997 18.1175 7.75882 25.4975C5.58367 29.3225 4.91094 33.1475 5.85276 36.59C7.19822 41.5175 11.6382 45.365 18.3879 47.4575C25.5637 49.685 34.3091 49.595 43.0322 47.2325L44.4449 52.4525C39.4891 53.825 34.4885 54.5 29.7122 54.5Z" fill="#0A1623"/>
</g>
<defs>
<clipPath id="clip0_0_1164">
<rect width="444" height="54" fill="white" transform="translate(0 0.5)"/>
</clipPath>
</defs>
</svg>
