<svg width="317" height="91" viewBox="0 0 317 91" fill="none" xmlns="http://www.w3.org/2000/svg">
<g clip-path="url(#clip0_0_1200)">
<path d="M118.391 64.3683C114.757 64.3683 111.701 63.5605 109.221 61.9448C106.784 60.385 104.94 58.0611 103.981 55.3414L110.164 51.7492C111.59 55.4735 114.407 57.3357 118.613 57.3357C120.639 57.3357 122.123 56.9714 123.067 56.2428C124.01 55.5556 124.54 54.4413 124.477 53.2804C124.413 52.1195 123.764 51.0691 122.751 50.4879C121.598 49.7748 119.538 49.0044 116.571 48.1767C115.15 47.7729 113.754 47.2878 112.39 46.724C111.184 46.1903 110.041 45.526 108.982 44.743C107.865 43.9486 106.972 42.8822 106.388 41.646C105.768 40.2705 105.464 38.7749 105.498 37.268C105.498 33.9663 106.677 31.3359 109.035 29.3769C111.393 27.4179 114.231 26.4373 117.547 26.4351C120.315 26.3787 123.038 27.1294 125.381 28.5944C127.667 30.0732 129.49 32.1581 130.645 34.6134L124.568 38.1033C123.102 34.9755 120.762 33.4127 117.547 33.4149C116.046 33.4149 114.868 33.7527 114.014 34.4285C113.182 35.0517 112.704 36.035 112.728 37.0698C112.71 38.18 113.251 39.2258 114.17 39.8565C115.128 40.5696 116.97 41.34 119.696 42.1677C120.816 42.5154 121.664 42.7851 122.24 42.9766C122.814 43.1681 123.601 43.4619 124.594 43.8614C125.401 44.1647 126.179 44.5393 126.919 44.9807C127.569 45.4096 128.19 45.8794 128.779 46.3872C129.41 46.9021 129.95 47.5181 130.376 48.2098C130.78 48.9259 131.097 49.6874 131.319 50.478C131.589 51.4174 131.721 52.3903 131.711 53.367C131.711 56.7391 130.48 59.4135 128.018 61.3901C125.556 63.3667 122.352 64.3573 118.404 64.3617L118.391 64.3683Z" fill="#222337"/>
<path d="M228.663 63.8529C225.796 63.8529 223.429 62.8976 221.563 60.987C219.696 59.0764 218.762 56.435 218.76 53.0629V44.0526H214.2V37.5945H218.76V32.3316L225.518 30.301V37.5945H228.663V44.0526H225.518V52.2375C225.518 53.972 225.99 55.3004 226.933 56.2226C227.424 56.6996 228.015 57.0627 228.663 57.2858V63.8529Z" fill="#222337"/>
<path d="M289.271 39.7143C284.516 39.8002 281.839 42.8806 281.839 47.5658V63.6384H279.182V47.5658C279.182 41.3123 283.081 37.2314 289.268 37.2314V39.7143H289.271Z" fill="#222337"/>
<path d="M303.892 37.02C296.254 37.02 290.113 42.9069 290.113 50.6164C290.113 58.3259 296.24 64.2227 303.892 64.2227C311.49 64.2227 317.618 58.3358 317.618 50.6263C317.618 42.9168 311.49 37.02 303.892 37.02ZM303.892 61.7101C297.729 61.7101 292.733 56.7433 292.733 50.6164C292.733 44.4895 297.729 39.5227 303.892 39.5227C310.126 39.5227 314.948 44.4191 314.948 50.6164C314.948 56.8137 310.126 61.7101 303.892 61.7101Z" fill="#222337"/>
<path d="M265.213 27.178H252.746V63.6386H255.523V49.7319H265.213C271.816 49.7319 276.638 44.885 276.638 38.4797C276.638 32.0216 271.816 27.178 265.213 27.178ZM265.213 47.1268H255.523V29.7797H265.213C270.245 29.7797 273.848 33.4116 273.848 38.4797C273.861 43.4784 270.245 47.1268 265.213 47.1268Z" fill="#222337"/>
<path d="M236.045 34.4677C233.775 34.4306 231.944 32.6103 231.907 30.3538C231.902 29.255 232.347 28.2014 233.139 27.4351C233.89 26.6334 234.943 26.1808 236.045 26.1871C237.165 26.1728 238.239 26.6254 239.007 27.4351C239.8 28.2014 240.244 29.255 240.239 30.3538C240.246 31.4444 239.801 32.4894 239.007 33.2428C238.232 34.04 237.16 34.4833 236.045 34.4677Z" fill="#222337"/>
<path d="M232.693 63.638V37.5942H239.452V63.638H232.693Z" fill="#222337"/>
<path d="M210.159 32.906C206.47 32.6286 204.619 34.1045 204.606 37.3336V37.5944H210.159V44.0525H204.606V63.6382H197.848V44.0525H194.075V37.5944H197.848V37.3336C197.848 33.6511 198.878 30.8556 200.94 28.9473C203.001 27.0389 206.074 26.2057 210.159 26.4479V32.906Z" fill="#222337"/>
<path d="M183.283 37.5942H190.044V63.638H183.283V60.7226C181.642 63.1439 179.041 64.3545 175.478 64.3545C172.613 64.3545 170.247 63.3992 168.378 61.4886C166.509 59.578 165.575 56.9367 165.575 53.5645V37.5942H172.333V52.7523C172.333 54.489 172.805 55.8174 173.748 56.7375C174.691 57.6575 175.949 58.1176 177.521 58.1176C179.268 58.1176 180.665 57.5794 181.712 56.503C182.759 55.4267 183.283 53.8111 183.283 51.6562V37.5942Z" fill="#222337"/>
<path d="M150.664 36.8652C153.529 36.8652 155.896 37.8204 157.765 39.731C159.633 41.6416 160.567 44.283 160.567 47.6551V63.6452H153.816V48.4805C153.816 46.7438 153.344 45.4154 152.401 44.4954C151.458 43.5753 150.2 43.1153 148.628 43.1153C146.882 43.1153 145.484 43.6534 144.437 44.7298C143.39 45.8061 142.863 47.4207 142.856 49.5734V63.6386H136.098V27.178H142.856V40.5135C144.497 38.0791 147.099 36.8685 150.661 36.8817L150.664 36.8652Z" fill="#222337"/>
<path d="M46.4226 8.84999C66.6588 8.84999 83.0635 25.1592 83.0635 45.2776C83.0635 65.396 66.6588 81.7052 46.4226 81.7052V90.0552C21.5478 90.0552 1.38281 70.0076 1.38281 45.2776C1.38281 20.5476 21.5478 0.5 46.4226 0.5V8.84999ZM63.2403 28.5644C55.2122 20.5894 42.6356 19.3629 33.2018 25.6351C23.768 31.9073 20.1046 43.9313 24.4519 54.3535C28.7993 64.7758 39.9466 70.6936 51.0765 68.4878C62.2065 66.2821 70.2192 56.5671 70.2145 45.2842C70.2206 39.0103 67.7106 32.9928 63.2403 28.5644Z" fill="#EF5350"/>
</g>
<defs>
<clipPath id="clip0_0_1200">
<rect width="317" height="90" fill="white" transform="translate(0 0.5)"/>
</clipPath>
</defs>
</svg>
