<svg width="410" height="67" viewBox="0 0 410 67" fill="none" xmlns="http://www.w3.org/2000/svg">
<g clip-path="url(#clip0_0_899)">
<path d="M95.5002 33.0175C95.5002 41.1714 101.541 46.6118 108.863 46.6118C112.837 46.6204 116.735 45.5138 120.12 43.4159V51.3353C118.598 52.2867 114.027 54.0153 108.923 54.0153C97.0153 53.9952 87.5859 44.8899 87.5859 33.0175C87.5859 21.1451 97.0153 12.0599 108.923 12.0599C114.027 12.0599 118.598 13.7751 120.12 14.7399V22.6124C116.732 20.5224 112.835 19.4208 108.863 19.4299C101.541 19.4299 95.5002 24.8636 95.5002 33.0175ZM155.16 33.4999V53.4056H147.85V35.8516C147.85 32.3676 146.322 29.768 142.394 29.768C138.587 29.768 136.361 32.1867 136.361 36.5618V53.4056H129.051V10.2643H136.361V28.763C136.886 27.423 138.939 23.2623 145.092 23.2623C151.412 23.2623 155.16 27.0478 155.16 33.4999ZM194.904 47.2014V53.4056H185.468C185.314 53.4149 185.16 53.392 185.016 53.3382C184.872 53.2845 184.74 53.2011 184.63 53.0934C184.519 52.9857 184.432 52.856 184.374 52.7125C184.316 52.569 184.287 52.4149 184.291 52.2599V46.9669C183.295 50.4509 180.603 53.9952 174.988 53.9952C167.366 53.9952 161.858 48.2667 161.858 38.6321C161.858 28.8769 167.891 23.2623 175.394 23.2623C182.311 23.2623 183.72 28.9975 183.72 28.9975V23.8586H191.03V47.2014H194.904ZM183.939 38.6924C183.939 33.1381 181.281 29.6474 176.909 29.6474C172.689 29.6474 169.466 32.783 169.466 38.6321C169.466 44.4812 172.124 47.6168 176.557 47.6168C181.069 47.6168 183.939 44.6621 183.939 38.6924ZM211.682 25.0378V53.4056H204.373V30.0628H199.057V23.8586H210.539C210.693 23.8537 210.846 23.8811 210.989 23.939C211.131 23.9969 211.26 24.084 211.368 24.1949C211.475 24.3058 211.559 24.4379 211.613 24.583C211.667 24.7281 211.691 24.883 211.682 25.0378ZM211.45 17.708H203.536V10.2643H211.45V17.708ZM220.221 23.8586H227.431V29.1181C227.67 28.3476 229.425 23.2623 236.282 23.2623C242.615 23.2623 246.37 27.0478 246.37 33.4865V53.4056H239.06V35.8516C239.06 32.3676 237.538 29.768 233.611 29.768C229.797 29.768 227.571 32.1867 227.571 36.5618V53.4056H220.261L220.221 23.8586ZM286.107 47.2014V53.4056H276.671C276.518 53.4149 276.364 53.392 276.22 53.3382C276.075 53.2845 275.944 53.2011 275.833 53.0934C275.723 52.9857 275.635 52.856 275.577 52.7125C275.519 52.569 275.491 52.4149 275.495 52.2599V46.9669C274.498 50.4509 271.807 53.9952 266.192 53.9952C258.57 53.9952 253.061 48.2667 253.061 38.6321C253.061 28.8769 259.095 23.2623 266.604 23.2623C273.521 23.2623 274.923 28.9975 274.923 28.9975V23.8586H282.233V47.2014H286.107ZM275.143 38.6924C275.143 33.1381 272.485 29.6474 268.112 29.6474C263.893 29.6474 260.67 32.783 260.67 38.6321C260.67 44.4812 263.361 47.6168 267.793 47.6168C272.272 47.6168 275.143 44.6621 275.143 38.6924ZM301.058 12.0599V53.4056H293.709V16.4685H289.137V10.2643H299.278C299.512 10.2616 299.745 10.3062 299.962 10.3955C300.179 10.4848 300.377 10.6169 300.543 10.7842C300.709 10.9515 300.84 11.1505 300.928 11.3696C301.017 11.5886 301.061 11.8233 301.058 12.0599ZM314.222 66.9999H306.913V60.7957H312.315C314.249 60.7957 315.133 60.2061 315.83 58.4306L318.003 52.8763L306.72 23.8586H314.867L321.725 44.7157L328.821 23.8586H336.968L322.548 61.2647C321.027 65.2244 318.502 66.9999 314.222 66.9999ZM341.028 51.5162V44.3673C342.025 45.0373 346.065 47.7173 350.584 47.7173C354.039 47.7173 355.561 46.7123 355.561 44.7626C355.561 38.9135 340.616 43.2283 340.616 32.1197C340.616 27.0947 344.836 23.2489 352.578 23.2489C356.85 23.2489 359.887 24.3745 361.077 25.0847V32.1599C359.608 31.2085 356.678 29.3191 352.69 29.3191C349.235 29.3191 347.946 30.3844 347.946 32.0393C347.946 36.8231 362.831 33.5133 362.831 44.3941C362.831 50.3035 357.967 54.022 350.87 54.022C346.205 53.9952 342.377 52.4006 341.028 51.5162ZM380.361 25.0378V53.4056H373.051V30.0628H367.735V23.8586H379.224C379.378 23.8536 379.53 23.881 379.673 23.939C379.815 23.9969 379.944 24.0842 380.051 24.1952C380.158 24.3062 380.24 24.4384 380.294 24.5835C380.347 24.7286 380.37 24.8833 380.361 25.0378ZM380.128 17.708H372.214V10.2643H380.128V17.708ZM388.195 51.5162V44.3673C389.185 45.0373 393.232 47.7173 397.744 47.7173C401.206 47.7173 402.728 46.7123 402.728 44.7626C402.728 38.9135 387.783 43.2283 387.783 32.1197C387.783 27.0947 392.003 23.2489 399.744 23.2489C404.024 23.2489 407.054 24.3745 408.243 25.0847V32.1599C405.791 30.3959 402.875 29.4071 399.864 29.3191C396.402 29.3191 395.112 30.3844 395.112 32.0393C395.112 36.8231 410.004 33.5133 410.004 44.3941C410.004 50.3035 405.14 54.022 398.043 54.022C393.385 53.9952 389.537 52.4006 388.195 51.5162Z" fill="black"/>
<path d="M33.2214 0C33.9657 0 34.8096 0.0938 34.8096 0.0938C32.3126 3.1134 30.8079 6.84071 30.5036 10.7602C25.7988 11.5538 21.4673 13.8387 18.1382 17.2834C14.8091 20.728 12.6556 25.1529 11.9905 29.9155C7.69112 30.3845 2.82694 32.3677 0.0293697 35.2018C-0.635136 15.7584 14.1435 0 33.2214 0ZM38.0059 58.4106C37.1259 58.5417 36.2374 58.6067 35.3478 58.6049C33.8125 58.5864 32.2803 58.4588 30.7628 58.223C29.5771 61.1013 28.0125 63.8056 26.1112 66.263C20.1474 64.9369 14.6614 61.9791 10.2559 57.7145C5.85048 53.4499 2.69603 48.0436 1.13909 42.0894C4.13601 38.5049 11.0602 36.4279 15.3595 36.4279C24.5297 36.4279 29.3939 41.3323 31.0817 48.977C25.5597 47.4695 22.2837 44.354 20.1307 39.731C18.8725 39.2704 17.5419 39.0434 16.2034 39.061C14.9957 39.056 13.7951 39.2484 12.6483 39.6305C15.0804 48.977 24.0645 55.9584 35.0089 55.9584C45.1161 55.9584 49.4154 50.7726 49.4154 50.7726V42.8398C49.4154 42.8398 44.4582 48.0323 38.285 49.0708C37.5905 44.2247 35.3543 39.7369 31.9126 36.2825C28.4709 32.828 24.0098 30.5937 19.2004 29.9155C20.7885 21.9894 26.7757 17.554 34.9159 17.554C43.0561 17.554 49.6081 23.4969 49.6081 23.4969V15.6646C49.6081 15.6646 45.3952 11.6982 37.9128 10.854C38.0989 7.37 40.3449 3.0217 42.777 1.4137C52.9705 4.623 62.7986 13.3062 65.6028 25.9491C65.6028 25.9491 61.1107 30.4783 52.6914 30.4783C45.7673 30.4783 41.3948 26.9876 38.9362 20.8571C37.6464 20.3939 36.2849 20.167 34.9159 20.1871C33.6383 20.173 32.3694 20.4002 31.1747 20.8571C33.8859 30.6726 42.4713 37.2721 52.0402 37.2721C61.3965 37.2721 66.4467 32.9372 66.4467 32.9372C66.4467 52.5615 51.5684 66.6248 33.8859 67C35.9459 64.99 37.5341 60.5814 38.0059 58.4106Z" fill="black"/>
</g>
<defs>
<clipPath id="clip0_0_899">
<rect width="410" height="67" fill="white"/>
</clipPath>
</defs>
</svg>
