<svg width="194" height="56" viewBox="0 0 194 56" fill="none" xmlns="http://www.w3.org/2000/svg">
<g clip-path="url(#clip0_0_2082)">
<path d="M72.3691 39.5116C70.1524 39.5116 68.2876 39.0187 66.7747 38.033C65.2876 37.0813 64.1624 35.6635 63.5774 34.0042L67.3502 31.8125C68.2201 34.0848 69.9383 35.2209 72.5049 35.2209C73.7408 35.2209 74.6466 34.9986 75.222 34.5541C75.7975 34.1349 76.1212 33.455 76.0823 32.7467C76.0435 32.0384 75.6475 31.3976 75.0295 31.043C74.3257 30.6079 73.0688 30.1379 71.2587 29.6329C70.392 29.3865 69.5402 29.0906 68.7078 28.7466C67.9722 28.421 67.275 28.0156 66.6289 27.5379C65.9473 27.0533 65.4024 26.4026 65.0464 25.6484C64.6681 24.8092 64.4826 23.8967 64.5034 22.9773C64.5034 20.9629 65.2227 19.3581 66.6613 18.1629C68.0999 16.9676 69.8309 16.3694 71.8545 16.368C73.543 16.3336 75.2046 16.7916 76.6343 17.6854C78.0284 18.5877 79.1409 19.8597 79.8458 21.3577L76.1378 23.4869C75.2436 21.5786 73.8158 20.6251 71.8545 20.6265C70.9386 20.6265 70.22 20.8326 69.6986 21.2449C69.1913 21.6251 68.8994 22.225 68.9144 22.8564C68.903 23.5337 69.233 24.1718 69.7938 24.5566C70.3787 24.9917 71.5026 25.4617 73.1654 25.9667C73.8489 26.1789 74.3663 26.3434 74.7175 26.4602C75.068 26.5771 75.5482 26.7563 76.1541 27.0001C76.6464 27.1851 77.1211 27.4136 77.5724 27.683C77.9687 27.9446 78.3477 28.2312 78.7071 28.5411C79.0919 28.8552 79.4213 29.2311 79.6817 29.6531C79.9281 30.09 80.1213 30.5546 80.2571 31.037C80.4214 31.6101 80.5019 32.2037 80.4962 32.7996C80.4962 34.857 79.7452 36.4886 78.2431 37.6946C76.741 38.9005 74.7857 39.5049 72.3772 39.5076L72.3691 39.5116Z" fill="#222337"/>
<path d="M139.644 39.197C137.894 39.197 136.45 38.6142 135.312 37.4485C134.173 36.2828 133.603 34.6713 133.602 32.6139V27.1166H130.82V23.1764H133.602V19.9654L137.725 18.7266V23.1764H139.644V27.1166H137.725V32.1103C137.725 33.1685 138.013 33.979 138.588 34.5417C138.887 34.8327 139.248 35.0542 139.644 35.1903V39.197Z" fill="#222337"/>
<path d="M176.616 24.4699C173.714 24.5223 172.081 26.4017 172.081 29.2602V39.0663H170.46V29.2602C170.46 25.4449 172.839 22.9551 176.614 22.9551V24.4699H176.616Z" fill="#222337"/>
<path d="M185.539 22.8262C180.879 22.8262 177.132 26.4179 177.132 31.1215C177.132 35.8252 180.87 39.4229 185.539 39.4229C190.175 39.4229 193.913 35.8312 193.913 31.1276C193.913 26.4239 190.175 22.8262 185.539 22.8262ZM185.539 37.8899C181.779 37.8899 178.731 34.8596 178.731 31.1215C178.731 27.3834 181.779 24.3531 185.539 24.3531C189.342 24.3531 192.284 27.3405 192.284 31.1215C192.284 34.9026 189.342 37.8899 185.539 37.8899Z" fill="#222337"/>
<path d="M161.942 16.8213H154.335V39.0664H156.029V30.5817H161.942C165.97 30.5817 168.912 27.6246 168.912 23.7166C168.912 19.7764 165.97 16.8213 161.942 16.8213ZM161.942 28.9924H156.029V18.4086H161.942C165.011 18.4086 167.21 20.6245 167.21 23.7166C167.218 26.7664 165.011 28.9924 161.942 28.9924Z" fill="#222337"/>
<path d="M144.149 21.2691C142.764 21.2465 141.647 20.1359 141.624 18.7592C141.621 18.0888 141.893 17.446 142.376 16.9784C142.834 16.4893 143.477 16.2132 144.149 16.217C144.832 16.2083 145.488 16.4844 145.956 16.9784C146.44 17.446 146.711 18.0888 146.708 18.7592C146.712 19.4245 146.44 20.0622 145.956 20.5218C145.483 21.0082 144.829 21.2786 144.149 21.2691Z" fill="#222337"/>
<path d="M142.101 39.0664V23.1768H146.224V39.0664H142.101Z" fill="#222337"/>
<path d="M128.351 20.3162C126.101 20.147 124.972 21.0474 124.963 23.0175V23.1767H128.351V27.1169H124.963V39.0663H120.84V27.1169H118.538V23.1767H120.84V23.0175C120.84 20.7708 121.469 19.0653 122.727 17.9009C123.984 16.7366 125.859 16.2283 128.351 16.376V20.3162Z" fill="#222337"/>
<path d="M111.959 23.1768H116.085V39.0664H111.959V37.2877C110.958 38.7649 109.371 39.5036 107.198 39.5036C105.45 39.5036 104.006 38.9207 102.866 37.7551C101.726 36.5894 101.156 34.9778 101.156 32.9205V23.1768H105.279V32.4249C105.279 33.4845 105.567 34.295 106.142 34.8563C106.717 35.4177 107.485 35.6983 108.444 35.6983C109.51 35.6983 110.362 35.37 111.001 34.7133C111.64 34.0566 111.959 33.0709 111.959 31.7561V23.1768Z" fill="#222337"/>
<path d="M92.0581 22.7316C93.806 22.7316 95.25 23.3144 96.3901 24.4801C97.5302 25.6458 98.1002 27.2573 98.1002 29.3147V39.0705H93.981V29.8183C93.981 28.7587 93.6932 27.9482 93.1178 27.3869C92.5423 26.8255 91.7751 26.5449 90.816 26.5449C89.7502 26.5449 88.8979 26.8732 88.259 27.5299C87.62 28.1866 87.2985 29.1716 87.2945 30.485V39.0664H83.1711V16.8213H87.2945V24.9575C88.2954 23.4722 89.8826 22.7336 92.0561 22.7416L92.0581 22.7316Z" fill="#222337"/>
<path d="M28.4552 5.63937C40.8017 5.63937 50.8104 15.5898 50.8104 27.8644C50.8104 40.1389 40.8017 50.0894 28.4552 50.0894V55.1838C13.2788 55.1838 0.97583 42.9525 0.97583 27.8644C0.97583 12.7763 13.2788 0.544922 28.4552 0.544922V5.63937ZM38.716 17.6674C33.8179 12.8017 26.1447 12.0535 20.389 15.8802C14.6334 19.707 12.3982 27.043 15.0506 33.4017C17.703 39.7605 24.5041 43.371 31.2947 42.0253C38.0852 40.6795 42.9739 34.7522 42.971 27.8684C42.9747 24.0406 41.4433 20.3692 38.716 17.6674Z" fill="#EF5350"/>
</g>
<defs>
<clipPath id="clip0_0_2082">
<rect width="193.406" height="54.9103" fill="white" transform="translate(0.13208 0.544922)"/>
</clipPath>
</defs>
</svg>
