<svg width="735" height="1157" viewBox="0 0 735 1157" fill="none" xmlns="http://www.w3.org/2000/svg">
<g clip-path="url(#clip0_0_29)">
<path fill-rule="evenodd" clip-rule="evenodd" d="M379.1 878.104C525.209 954.871 638.383 884.439 631.859 720.736L633.957 721.838C640.534 886.867 526.447 957.839 379.195 880.472L379.1 878.104Z" fill="#4D4D4D"/>
<path fill-rule="evenodd" clip-rule="evenodd" d="M355.403 284.771C343.09 278.3 330.83 272.789 318.709 268.275C318.375 268.151 318.054 267.722 317.992 267.318C317.931 266.913 318.152 266.687 318.487 266.811C330.663 271.345 342.979 276.882 355.348 283.382M632.238 720.871C625.705 556.956 501.805 361.692 355.403 284.771L355.403 284.771M355.348 283.382C502.42 360.655 626.905 556.826 633.468 721.518C633.484 721.901 633.221 722.067 632.881 721.889C632.541 721.71 632.253 721.255 632.238 720.871" fill="#4D4D4D"/>
<path fill-rule="evenodd" clip-rule="evenodd" d="M318.786 268.791C190.823 221.181 96.6412 292.915 102.609 442.662L100.511 441.56C94.4948 290.599 189.437 218.31 318.406 266.295L318.786 268.791Z" fill="#4D4D4D"/>
<path fill-rule="evenodd" clip-rule="evenodd" d="M101.935 442.367C108.475 606.474 232.535 801.971 379.088 878.972L379.116 879.671C232.224 802.493 107.871 606.54 101.315 442.041L101.935 442.367Z" fill="#262626"/>
<g filter="url(#filter0_d_0_29)">
<path d="M482.082 963.545C508.456 977.402 528.882 964.684 527.705 935.138C526.527 905.592 504.192 870.407 477.818 856.55C451.443 842.692 431.017 855.41 432.194 884.956C433.372 914.502 455.707 949.688 482.082 963.545Z" fill="white"/>
</g>
<g filter="url(#filter1_d_0_29)">
<path fill-rule="evenodd" clip-rule="evenodd" d="M477.859 857.594C451.989 844.001 431.965 856.481 433.12 885.442C434.274 914.404 456.17 948.908 482.04 962.501C507.91 976.093 527.934 963.614 526.78 934.652C525.626 905.69 503.729 871.186 477.859 857.594ZM431.269 884.47C430.069 854.34 450.897 841.383 477.776 855.505C504.655 869.628 527.429 905.494 528.63 935.624C529.831 965.754 509.002 978.712 482.123 964.589C455.245 950.467 432.47 914.6 431.269 884.47Z" fill="#4D4D4D"/>
</g>
<g filter="url(#filter2_d_0_29)">
<path d="M278.886 856.787C305.261 870.644 325.687 857.926 324.51 828.38C323.332 798.834 300.997 763.649 274.622 749.791C248.248 735.934 227.822 748.652 228.999 778.198C230.177 807.744 252.512 842.929 278.886 856.787Z" fill="white"/>
</g>
<g filter="url(#filter3_d_0_29)">
<path fill-rule="evenodd" clip-rule="evenodd" d="M274.664 750.836C248.794 737.243 228.77 749.722 229.924 778.684C231.078 807.646 252.975 842.15 278.845 855.743C304.715 869.335 324.739 856.856 323.584 827.894C322.43 798.932 300.534 764.428 274.664 750.836ZM228.074 777.712C226.873 747.582 247.702 734.625 274.581 748.747C301.459 762.869 324.234 798.736 325.435 828.866C326.635 858.996 305.807 871.953 278.928 857.831C252.049 843.709 229.275 807.842 228.074 777.712Z" fill="#4D4D4D"/>
</g>
<g filter="url(#filter4_d_0_29)">
<path d="M128.566 620.476C154.941 634.334 175.367 621.616 174.189 592.07C173.012 562.524 150.676 527.338 124.302 513.481C97.9276 499.624 77.5014 512.342 78.6789 541.888C79.8564 571.434 102.192 606.619 128.566 620.476Z" fill="white"/>
</g>
<g filter="url(#filter5_d_0_29)">
<path fill-rule="evenodd" clip-rule="evenodd" d="M124.344 514.525C98.4735 500.933 78.4497 513.412 79.604 542.374C80.7582 571.336 102.654 605.84 128.524 619.432C154.395 633.025 174.418 620.546 173.264 591.584C172.11 562.622 150.214 528.118 124.344 514.525ZM77.7538 541.402C76.553 511.272 97.3816 498.315 124.26 512.437C151.139 526.559 173.913 562.426 175.114 592.556C176.315 622.686 155.486 635.643 128.608 621.521C101.729 607.398 78.9545 571.532 77.7538 541.402Z" fill="#4D4D4D"/>
</g>
<g filter="url(#filter6_d_0_29)">
<path d="M119.261 392.482C145.636 406.339 166.062 393.621 164.885 364.075C163.707 334.529 141.372 299.344 114.997 285.486C88.6229 271.629 68.1967 284.347 69.3742 313.893C70.5517 343.439 92.8869 378.624 119.261 392.482Z" fill="white"/>
</g>
<g filter="url(#filter7_d_0_29)">
<path fill-rule="evenodd" clip-rule="evenodd" d="M115.039 286.53C89.1688 272.938 69.1451 285.417 70.2993 314.379C71.4535 343.341 93.3496 377.845 119.22 391.437C145.09 405.03 165.114 392.551 163.959 363.589C162.805 334.627 140.909 300.123 115.039 286.53ZM68.4491 313.407C67.2483 283.277 88.0769 270.32 114.956 284.442C141.834 298.564 164.609 334.431 165.81 364.561C167.01 394.691 146.182 407.648 119.303 393.526C92.4242 379.403 69.6499 343.537 68.4491 313.407Z" fill="#4D4D4D"/>
</g>
<g filter="url(#filter8_d_0_29)">
<path d="M493.374 415.754C511.191 404.66 509.841 370.787 490.359 340.097C470.877 309.406 440.64 293.519 422.823 304.613C405.006 315.706 406.356 349.579 425.838 380.27C445.32 410.961 475.557 426.847 493.374 415.754Z" fill="white"/>
</g>
<g filter="url(#filter9_d_0_29)">
<path fill-rule="evenodd" clip-rule="evenodd" d="M423.509 305.693C406.038 316.571 407.362 349.785 426.465 379.879C445.569 409.973 475.218 425.551 492.688 414.673C510.159 403.795 508.835 370.581 489.732 340.487C470.628 310.393 440.979 294.815 423.509 305.693ZM425.211 380.66C405.35 349.373 403.974 314.841 422.137 303.532C440.3 292.223 471.125 308.419 490.986 339.706C510.847 370.994 512.223 405.525 494.06 416.834C475.897 428.144 445.072 411.948 425.211 380.66Z" fill="#4D4D4D"/>
</g>
<g filter="url(#filter10_d_0_29)">
<path d="M655.439 627.694C658.494 600.66 639.65 563.792 613.351 545.346C587.052 526.9 563.256 533.861 560.202 560.894C557.148 587.928 575.991 624.796 602.291 643.242C628.59 661.688 652.385 654.727 655.439 627.694Z" fill="white"/>
</g>
<g filter="url(#filter11_d_0_29)">
<path fill-rule="evenodd" clip-rule="evenodd" d="M561.125 561.542C558.131 588.041 576.603 624.194 602.399 642.287C628.194 660.38 651.523 653.546 654.517 627.047C657.511 600.547 639.039 564.394 613.243 546.301C587.447 528.208 564.118 535.042 561.125 561.542ZM602.183 644.197C575.38 625.398 556.165 587.815 559.279 560.247C562.394 532.68 586.656 525.592 613.459 544.391C640.261 563.19 659.477 600.774 656.362 628.341C653.248 655.908 628.985 662.997 602.183 644.197Z" fill="#4D4D4D"/>
</g>
<g filter="url(#filter12_d_0_29)">
<path d="M664.327 861.368C669.153 835.728 652.025 798.577 626.069 778.388C600.113 758.199 575.159 762.618 570.333 788.258C565.506 813.897 582.635 851.049 608.591 871.238C634.547 891.427 659.501 887.008 664.327 861.368Z" fill="white"/>
</g>
<g filter="url(#filter13_d_0_29)">
<path fill-rule="evenodd" clip-rule="evenodd" d="M571.243 788.966C566.512 814.1 583.303 850.53 608.761 870.332C634.22 890.134 658.685 885.794 663.416 860.66C668.147 835.526 651.357 799.096 625.898 779.294C600.44 759.492 575.975 763.832 571.243 788.966ZM608.42 872.144C581.967 851.568 564.5 813.695 569.422 787.549C574.344 761.404 599.786 756.907 626.239 777.482C652.692 798.058 670.159 835.931 665.238 862.077C660.316 888.222 634.873 892.719 608.42 872.144Z" fill="#4D4D4D"/>
</g>
<g filter="url(#filter14_d_0_29)">
<path d="M289.788 308.74C307.605 297.647 306.255 263.774 286.773 233.083C267.291 202.392 237.054 186.505 219.237 197.599C201.42 208.692 202.77 242.565 222.252 273.256C241.734 303.947 271.971 319.834 289.788 308.74Z" fill="white"/>
</g>
<g filter="url(#filter15_d_0_29)">
<path fill-rule="evenodd" clip-rule="evenodd" d="M219.923 198.679C202.452 209.557 203.776 242.772 222.879 272.866C241.983 302.96 271.632 318.537 289.102 307.66C306.573 296.782 305.249 263.568 286.146 233.474C267.042 203.379 237.393 187.802 219.923 198.679ZM221.625 273.647C201.764 242.359 200.388 207.828 218.551 196.518C236.714 185.209 267.539 201.405 287.4 232.692C307.261 263.98 308.637 298.511 290.474 309.821C272.311 321.13 241.486 304.934 221.625 273.647Z" fill="#4D4D4D"/>
</g>
<g filter="url(#filter16_d_0_29)">
<path d="M523.762 580.682L530.538 750.716C530.774 756.333 529.684 761.161 527.378 764.71C525.072 768.259 521.632 770.404 517.405 770.929L389.347 786.883C385.136 787.411 380.289 786.308 375.295 783.684C370.301 781.061 365.337 777.009 360.902 771.938L300.946 703.442L226.068 617.858C221.634 612.791 217.884 606.885 215.195 600.731C212.505 594.578 210.971 588.394 210.746 582.802L203.97 412.768C203.746 407.176 204.841 402.373 207.145 398.842C209.449 395.312 212.88 393.179 217.093 392.657L345.151 376.703C349.364 376.18 354.211 377.286 359.204 379.909C364.197 382.533 369.16 386.581 373.596 391.649L480.708 514.053L508.431 545.729C512.853 550.777 516.597 556.662 519.287 562.796C521.978 568.93 523.521 575.097 523.762 580.682V580.682Z" fill="#FE90C7"/>
</g>
<path d="M480.704 513.943L300.942 703.332L226.064 617.748C221.63 612.681 217.88 606.774 215.191 600.621C212.501 594.468 210.967 588.284 210.742 582.692L209.348 547.709L365.172 383.616C368.124 385.842 370.981 388.524 373.634 391.561L480.704 513.943Z" fill="#FE6BB4"/>
<path d="M513.016 740.971L506.572 579.282C506.451 576.285 505.628 572.972 504.188 569.675C502.748 566.378 500.74 563.213 498.366 560.496L370.149 413.993C367.774 411.276 365.115 409.105 362.441 407.7C359.766 406.295 357.17 405.704 354.915 405.989L233.143 421.192C230.888 421.476 229.052 422.622 227.818 424.514C226.585 426.406 225.997 428.979 226.115 431.973L232.558 593.663C232.68 596.66 233.502 599.973 234.942 603.269C236.383 606.566 238.39 609.732 240.765 612.448L368.982 758.967C371.359 761.678 374.017 763.844 376.69 765.248C379.363 766.653 381.959 767.247 384.216 766.971L505.99 751.8C508.251 751.515 510.09 750.363 511.324 748.463C512.557 746.562 513.141 743.978 513.016 740.971V740.971Z" fill="#E06AE9"/>
<path d="M504.635 574.882L511.079 736.572C511.201 739.568 510.615 742.141 509.381 744.031C508.147 745.921 506.308 747.062 504.05 747.337L382.292 762.532C380.031 762.806 377.434 762.21 374.758 760.805C372.083 759.399 369.423 757.232 367.043 754.52L294.227 671.314L238.825 607.986C236.452 605.272 234.445 602.11 233.005 598.816C231.565 595.522 230.742 592.211 230.62 589.216L224.176 427.526C224.062 424.534 224.65 421.964 225.884 420.072C227.117 418.18 228.951 417.033 231.204 416.745L312.08 406.66L352.977 401.574C355.235 401.291 357.833 401.882 360.51 403.289C363.187 404.695 365.848 406.867 368.226 409.585L451.725 505.017L496.415 556.089C498.794 558.804 500.806 561.97 502.249 565.269C503.692 568.568 504.515 571.884 504.635 574.882V574.882Z" fill="#7A18D5"/>
<path d="M280.984 456.711L446.084 543.456L445.111 564.991L284.296 480.086L280.984 456.711Z" fill="white"/>
<path d="M316.426 592.637L372.272 668.736L374.921 683.625L373.345 695.651L301.234 597.267L316.426 592.637Z" fill="white"/>
<path d="M315.024 580.725L316.52 592.995L310.721 597.961L301.221 597.262L295.02 554.219L315.024 580.725Z" fill="white"/>
<path d="M422.935 649.21L372.273 668.734L371.775 681.494L373.346 695.649L439.482 669.388L434.531 646.867L422.935 649.21Z" fill="white"/>
<path d="M340.752 583.165L408.157 618.58L402.3 634.677L336.765 600.244L340.752 583.165Z" fill="white"/>
<path d="M284.227 479.35L303.939 488.148L309.642 541.696L293.08 541.812L284.227 479.35Z" fill="white"/>
<path d="M293.062 541.808L309.417 541.07L342.161 584.113L336.756 600.243L293.062 541.808Z" fill="white"/>
<path d="M293.062 541.808L309.417 541.07L342.161 584.113L336.756 600.243L293.062 541.808Z" fill="white"/>
<path d="M427.989 553.57L445.198 562.784L442.656 613.845L426.171 590.623L427.989 553.57Z" fill="white"/>
<path d="M333.688 529.724L401.56 565.385L402.344 585.074L334.472 549.413L333.688 529.724Z" fill="white"/>
<path d="M401.586 565.397L441.704 621.543L427.307 625.463L390.741 575.285L401.586 565.397Z" fill="white"/>
<path d="M441.688 621.534L439.476 669.385L422.928 649.207L423.842 611.133L441.688 621.534Z" fill="white"/>
<path d="M312.445 538.556L333.695 529.726L346.081 548.846L326.813 556.872L312.445 538.556Z" fill="white"/>
<path d="M396.097 612.142L408.526 607.086L420.021 624.507L402.304 634.68L396.097 612.142Z" fill="white"/>
<path d="M451.342 504.667L293.845 670.964L238.442 607.636C236.069 604.922 234.062 601.76 232.622 598.466C231.182 595.171 230.359 591.861 230.237 588.866L226.545 496.229L311.697 406.31L352.595 401.224C354.852 400.94 357.45 401.532 360.127 402.938C362.804 404.345 365.466 406.517 367.843 409.235L451.342 504.667Z" fill="#7E44FE" fill-opacity="0.1"/>
<path d="M432.632 492.222C432.419 493.903 431.712 495.186 430.603 495.903C429.494 496.619 428.036 496.735 426.421 496.234C428.053 497.452 429.57 499.136 430.774 501.067C431.978 502.997 432.812 505.084 433.168 507.054C433.385 505.385 434.089 504.109 435.189 503.389C436.289 502.67 437.734 502.541 439.337 503.02C437.712 501.796 436.206 500.112 435.01 498.187C433.815 496.263 432.987 494.184 432.632 492.222V492.222Z" fill="#E3E4E9"/>
<path d="M417.078 453.311C416.727 456.148 415.546 458.322 413.69 459.547C411.833 460.772 409.388 460.991 406.674 460.176C409.436 462.243 412.002 465.096 414.037 468.365C416.072 471.634 417.482 475.166 418.082 478.501C418.438 475.67 419.62 473.5 421.476 472.276C423.332 471.052 425.774 470.829 428.485 471.636C425.723 469.57 423.157 466.716 421.122 463.447C419.087 460.178 417.678 456.646 417.078 453.311V453.311Z" fill="white"/>
<path d="M268.234 653.151C274.257 656.316 278.916 653.263 278.64 646.333C278.364 639.403 273.257 631.22 267.234 628.055C261.211 624.891 256.552 627.943 256.828 634.873C257.104 641.803 262.211 649.986 268.234 653.151Z" fill="white"/>
<path d="M151.039 631.062C153.158 632.175 154.799 631.153 154.704 628.779C154.609 626.406 152.815 623.579 150.696 622.466C148.577 621.352 146.936 622.374 147.031 624.748C147.125 627.122 148.92 629.948 151.039 631.062Z" fill="#4D4D4D"/>
<path d="M438.939 904.038C438.981 905.025 438.761 905.853 438.307 906.418C437.853 906.983 437.185 907.259 436.388 907.21C435.591 907.162 434.701 906.792 433.83 906.148C432.96 905.503 432.148 904.612 431.499 903.589C430.849 902.565 430.39 901.455 430.181 900.399C429.971 899.342 430.021 898.387 430.322 897.655C430.624 896.923 431.164 896.446 431.875 896.286C432.586 896.125 433.435 896.288 434.314 896.753C435.488 897.374 436.632 898.488 437.499 899.853C438.365 901.218 438.883 902.722 438.939 904.038V904.038Z" fill="#4D4D4D"/>
<path d="M628.038 657.962C628.072 658.825 627.877 659.548 627.477 660.041C627.078 660.533 626.491 660.772 625.792 660.728C625.093 660.683 624.313 660.357 623.551 659.791C622.788 659.224 622.078 658.443 621.51 657.545C620.942 656.648 620.541 655.675 620.359 654.75C620.176 653.825 620.22 652.989 620.485 652.349C620.75 651.708 621.224 651.291 621.847 651.152C622.47 651.012 623.214 651.155 623.985 651.563C624.496 651.831 625.006 652.209 625.486 652.676C625.966 653.144 626.407 653.69 626.784 654.285C627.16 654.879 627.465 655.51 627.68 656.141C627.895 656.772 628.017 657.391 628.038 657.962V657.962Z" fill="#4D4D4D"/>
<path d="M501.442 410.884C503.25 411.834 504.651 410.962 504.57 408.936C504.49 406.91 502.958 404.498 501.15 403.548C499.341 402.597 497.94 403.47 498.021 405.495C498.102 407.521 499.633 409.934 501.442 410.884Z" fill="#4D4D4D"/>
<path d="M550.776 472.134C550.806 472.942 550.621 473.618 550.244 474.077C549.868 474.536 549.317 474.758 548.661 474.714C548.006 474.671 547.275 474.364 546.56 473.832C545.846 473.301 545.181 472.568 544.648 471.727C544.116 470.886 543.74 469.975 543.569 469.108C543.397 468.241 543.438 467.457 543.685 466.855C543.932 466.254 544.375 465.862 544.958 465.728C545.54 465.595 546.237 465.726 546.959 466.105C547.44 466.358 547.92 466.715 548.373 467.155C548.825 467.595 549.241 468.11 549.595 468.67C549.95 469.23 550.237 469.824 550.44 470.419C550.642 471.013 550.757 471.596 550.776 472.134V472.134Z" fill="#4D4D4D"/>
<path d="M567.85 501.176C567.881 502.008 567.69 502.705 567.302 503.179C566.914 503.652 566.346 503.881 565.67 503.836C564.994 503.792 564.241 503.475 563.504 502.927C562.768 502.379 562.082 501.624 561.533 500.757C560.985 499.891 560.597 498.951 560.421 498.057C560.244 497.164 560.285 496.356 560.54 495.736C560.795 495.115 561.251 494.711 561.852 494.573C562.453 494.436 563.171 494.571 563.915 494.962C564.411 495.223 564.906 495.59 565.372 496.044C565.839 496.497 566.267 497.028 566.633 497.605C566.998 498.183 567.294 498.795 567.503 499.408C567.712 500.021 567.83 500.622 567.85 501.176Z" fill="#4D4D4D"/>
<path d="M174.261 274.758C176.474 275.92 178.187 274.853 178.088 272.375C177.989 269.897 176.116 266.946 173.904 265.784C171.692 264.621 169.978 265.688 170.077 268.166C170.176 270.644 172.049 273.595 174.261 274.758Z" fill="#4D4D4D"/>
<path d="M110.463 385.266C110.512 386.511 110.231 387.555 109.655 388.267C109.078 388.978 108.233 389.324 107.224 389.26C106.216 389.197 105.091 388.728 103.991 387.912C102.891 387.096 101.865 385.97 101.044 384.676C100.222 383.383 99.6423 381.979 99.3767 380.644C99.1111 379.308 99.172 378.1 99.5516 377.173C99.9312 376.246 100.613 375.641 101.509 375.435C102.406 375.229 103.478 375.43 104.59 376.014C106.081 376.798 107.538 378.213 108.639 379.947C109.74 381.682 110.396 383.595 110.463 385.266Z" fill="#4D4D4D"/>
<path d="M105.46 408.162C105.491 408.938 105.316 409.588 104.957 410.031C104.598 410.473 104.071 410.688 103.444 410.649C102.816 410.61 102.116 410.318 101.431 409.81C100.746 409.302 100.108 408.601 99.5964 407.796C99.0851 406.99 98.724 406.117 98.5586 405.285C98.3933 404.454 98.4312 403.702 98.6675 403.125C98.9038 402.548 99.328 402.171 99.8863 402.043C100.445 401.914 101.112 402.04 101.804 402.404C102.264 402.643 102.724 402.983 103.157 403.403C103.59 403.822 103.988 404.314 104.328 404.849C104.668 405.385 104.943 405.953 105.137 406.522C105.331 407.09 105.441 407.648 105.46 408.162V408.162Z" fill="#4D4D4D"/>
<path d="M357.121 288.201C358.751 289.057 360.013 288.271 359.941 286.445C359.868 284.619 358.487 282.445 356.858 281.588C355.228 280.732 353.965 281.518 354.038 283.344C354.111 285.17 355.491 287.344 357.121 288.201Z" fill="#4D4D4D"/>
<path d="M340.838 276.915C340.858 277.426 340.743 277.854 340.506 278.145C340.27 278.437 339.923 278.579 339.51 278.553C339.096 278.527 338.635 278.335 338.184 278C337.733 277.666 337.312 277.204 336.976 276.673C336.639 276.143 336.401 275.568 336.292 275.02C336.183 274.472 336.208 273.977 336.364 273.597C336.52 273.217 336.799 272.969 337.167 272.884C337.534 272.8 337.974 272.882 338.43 273.122C338.733 273.279 339.036 273.502 339.322 273.779C339.607 274.055 339.87 274.379 340.094 274.732C340.318 275.085 340.499 275.459 340.626 275.834C340.754 276.209 340.826 276.576 340.838 276.915V276.915Z" fill="#4D4D4D"/>
<path d="M596.635 864.013C598.505 864.996 599.954 864.094 599.87 861.999C599.787 859.903 598.203 857.408 596.332 856.425C594.462 855.442 593.013 856.344 593.096 858.44C593.18 860.535 594.764 863.031 596.635 864.013Z" fill="#4D4D4D"/>
<path d="M586.592 875.414C587.974 876.14 589.044 875.474 588.982 873.926C588.92 872.378 587.75 870.535 586.369 869.809C584.987 869.083 583.917 869.75 583.979 871.297C584.041 872.845 585.211 874.688 586.592 875.414Z" fill="#4D4D4D"/>
<path d="M539.212 865.193L510.106 849.901L502.912 838.552L501.612 805.947L508.191 801.85L537.297 817.143L544.505 828.483L545.804 861.088L539.212 865.193Z" fill="#4D4D4D"/>
<path d="M512.037 800.421L510.477 799.601L510.685 804.828L512.245 805.648L512.037 800.421Z" fill="#B3B3B3"/>
<path d="M515.826 802.407L514.266 801.587L514.474 806.814L516.034 807.634L515.826 802.407Z" fill="#B3B3B3"/>
<path d="M519.599 804.394L518.039 803.574L518.247 808.801L519.807 809.621L519.599 804.394Z" fill="#B3B3B3"/>
<path d="M523.38 806.38L521.82 805.56L522.029 810.787L523.589 811.607L523.38 806.38Z" fill="#B3B3B3"/>
<path d="M527.162 808.366L525.602 807.547L525.81 812.774L527.37 813.593L527.162 808.366Z" fill="#B3B3B3"/>
<path d="M530.951 810.36L529.391 809.54L529.599 814.767L531.159 815.587L530.951 810.36Z" fill="#B3B3B3"/>
<path d="M534.74 812.346L533.18 811.527L533.388 816.754L534.948 817.573L534.74 812.346Z" fill="#B3B3B3"/>
<path d="M514.029 850.282L512.469 849.462L512.677 854.689L514.237 855.509L514.029 850.282Z" fill="#B3B3B3"/>
<path d="M517.81 852.268L516.25 851.448L516.458 856.675L518.018 857.495L517.81 852.268Z" fill="#B3B3B3"/>
<path d="M521.583 854.254L520.023 853.435L520.232 858.662L521.792 859.481L521.583 854.254Z" fill="#B3B3B3"/>
<path d="M525.373 856.241L523.812 855.421L524.021 860.648L525.581 861.468L525.373 856.241Z" fill="#B3B3B3"/>
<path d="M529.146 858.227L527.586 857.407L527.794 862.634L529.354 863.454L529.146 858.227Z" fill="#B3B3B3"/>
<path d="M532.943 860.221L531.383 859.401L531.591 864.628L533.151 865.448L532.943 860.221Z" fill="#B3B3B3"/>
<path d="M536.724 862.207L535.164 861.387L535.372 866.614L536.932 867.434L536.724 862.207Z" fill="#B3B3B3"/>
<path d="M547.82 834.601L547.75 832.853L543.084 830.402L543.154 832.149L547.82 834.601Z" fill="#B3B3B3"/>
<path d="M547.984 838.836L547.914 837.088L543.248 834.637L543.318 836.384L547.984 838.836Z" fill="#B3B3B3"/>
<path d="M548.163 843.079L548.094 841.331L543.428 838.88L543.497 840.627L548.163 843.079Z" fill="#B3B3B3"/>
<path d="M548.32 847.322L548.25 845.574L543.584 843.123L543.654 844.87L548.32 847.322Z" fill="#B3B3B3"/>
<path d="M548.492 851.557L548.422 849.809L543.756 847.358L543.826 849.105L548.492 851.557Z" fill="#B3B3B3"/>
<path d="M548.663 855.792L548.594 854.044L543.928 851.593L543.997 853.341L548.663 855.792Z" fill="#B3B3B3"/>
<path d="M548.827 860.027L548.758 858.28L544.092 855.828L544.162 857.576L548.827 860.027Z" fill="#B3B3B3"/>
<path d="M503.304 811.216L503.234 809.468L498.568 807.017L498.638 808.764L503.304 811.216Z" fill="#B3B3B3"/>
<path d="M503.492 815.458L503.422 813.71L498.756 811.259L498.826 813.006L503.492 815.458Z" fill="#B3B3B3"/>
<path d="M503.656 819.693L503.586 817.946L498.92 815.494L498.99 817.242L503.656 819.693Z" fill="#B3B3B3"/>
<path d="M503.812 823.921L503.742 822.173L499.076 819.722L499.146 821.469L503.812 823.921Z" fill="#B3B3B3"/>
<path d="M503.976 828.172L503.906 826.424L499.24 823.973L499.31 825.72L503.976 828.172Z" fill="#B3B3B3"/>
<path d="M504.148 832.407L504.078 830.659L499.412 828.208L499.482 829.955L504.148 832.407Z" fill="#B3B3B3"/>
<path d="M504.335 836.649L504.266 834.902L499.6 832.45L499.669 834.198L504.335 836.649Z" fill="#B3B3B3"/>
<path fill-rule="evenodd" clip-rule="evenodd" d="M560.719 892.302L542.25 863.207L543.078 862.677L561.547 891.772L560.719 892.302Z" fill="#4D4D4D"/>
<path fill-rule="evenodd" clip-rule="evenodd" d="M504.838 804.254L486.383 775.182L487.211 774.652L505.665 803.724L504.838 804.254Z" fill="#4D4D4D"/>
<path d="M563.845 893.738C563.884 894.375 563.754 894.913 563.471 895.283C563.189 895.653 562.767 895.839 562.261 895.815C561.754 895.792 561.186 895.561 560.63 895.152C560.073 894.743 559.554 894.175 559.139 893.522C558.724 892.868 558.432 892.158 558.301 891.484C558.171 890.811 558.207 890.203 558.405 889.741C558.603 889.279 558.955 888.983 559.414 888.892C559.873 888.8 560.42 888.917 560.982 889.228C561.704 889.627 562.404 890.318 562.937 891.157C563.47 891.997 563.795 892.921 563.845 893.738Z" fill="#4D4D4D"/>
<path d="M489.611 776.78C489.635 777.384 489.499 777.89 489.221 778.237C488.943 778.583 488.535 778.754 488.048 778.727C487.56 778.701 487.016 778.478 486.481 778.088C485.947 777.698 485.448 777.156 485.045 776.532C484.642 775.908 484.354 775.228 484.217 774.578C484.08 773.928 484.1 773.337 484.274 772.878C484.449 772.419 484.77 772.113 485.197 771.999C485.625 771.884 486.14 771.965 486.678 772.233C487.411 772.618 488.129 773.309 488.677 774.159C489.225 775.008 489.56 775.949 489.611 776.78Z" fill="#4D4D4D"/>
<path d="M250.979 358.117L192.065 327.163L188.659 321.797L188.177 309.706L191.292 307.75L250.206 338.704L253.626 344.093L254.108 356.184L250.979 358.117Z" fill="#E06AE9"/>
<path d="M208.971 318.443L210.236 319.108L210.043 314.258L208.778 313.594L208.971 318.443ZM205.106 316.412L206.371 317.077L206.178 312.228L204.913 311.563L205.106 316.412ZM216.715 322.512L217.98 323.176L217.787 318.327L216.522 317.663L216.715 322.512ZM212.85 320.481L214.115 321.146L213.922 316.296L212.657 315.632L212.85 320.481ZM201.242 314.382L202.506 315.046L202.313 310.197L201.048 309.533L201.242 314.382ZM193.498 310.313L194.763 310.978L194.57 306.129L193.305 305.464L193.498 310.313ZM197.363 312.344L198.628 313.008L198.434 308.159L197.17 307.495L197.363 312.344ZM220.58 324.542L221.845 325.207L221.651 320.358L220.387 319.693L220.58 324.542ZM243.797 336.741L245.062 337.405L244.868 332.556L243.604 331.892L243.797 336.741ZM239.932 334.71L241.197 335.375L241.004 330.526L239.739 329.861L239.932 334.71ZM247.468 333.922L247.662 338.771L248.941 339.443L248.747 334.594L247.468 333.922ZM224.445 326.573L225.681 327.223L225.488 322.374L224.209 321.702L224.445 326.573ZM228.323 328.611L229.588 329.275L229.395 324.426L228.13 323.762L228.323 328.611ZM232.188 330.641L233.453 331.306L233.26 326.457L231.995 325.792L232.188 330.641ZM236.053 332.672L237.332 333.344L237.139 328.495L235.86 327.823L236.053 332.672Z" fill="#E3E4E9"/>
<path d="M209.823 339.823L211.088 340.488L210.894 335.623L209.63 334.958L209.823 339.823ZM205.959 337.793L207.223 338.457L207.03 333.592L205.765 332.928L205.959 337.793ZM217.567 343.892L218.832 344.556L218.638 339.692L217.373 339.027L217.567 343.892ZM213.702 341.861L214.967 342.526L214.773 337.661L213.508 336.996L213.702 341.861ZM202.094 335.762L203.359 336.427L203.165 331.562L201.9 330.897L202.094 335.762ZM194.35 331.693L195.615 332.358L195.421 327.493L194.156 326.829L194.35 331.693ZM198.215 333.724L199.48 334.389L199.286 329.524L198.021 328.859L198.215 333.724ZM221.432 345.922L222.697 346.587L222.503 341.722L221.238 341.058L221.432 345.922ZM244.649 358.121L245.914 358.785L245.72 353.921L244.455 353.256L244.649 358.121ZM240.784 356.09L242.049 356.755L241.855 351.89L240.59 351.225L240.784 356.09ZM248.32 355.287L248.514 360.152L249.793 360.823L249.599 355.959L248.32 355.287ZM225.297 347.953L226.534 348.603L226.34 343.738L225.061 343.066L225.297 347.953ZM229.176 349.991L230.441 350.656L230.247 345.791L228.982 345.126L229.176 349.991ZM233.041 352.022L234.305 352.686L234.111 347.821L232.847 347.157L233.041 352.022ZM236.905 354.052L238.184 354.724L237.99 349.859L236.711 349.187L236.905 354.052Z" fill="#E3E4E9"/>
<path d="M465.112 479.425L456.076 474.677L453.477 470.583L452.439 444.543L454.816 443.063L463.852 447.811L466.451 451.905L467.489 477.945L465.112 479.425Z" fill="#E3E4E9"/>
<path d="M482.956 488.803L473.919 484.055L471.321 479.961L470.283 453.921L472.659 452.441L481.696 457.189L484.309 461.29L485.346 487.331L482.956 488.803Z" fill="#E06AE9"/>
<path d="M500.808 498.181L491.771 493.433L489.172 489.339L488.134 463.299L490.511 461.819L499.548 466.567L502.146 470.66L503.184 496.701L500.808 498.181Z" fill="#E3E4E9"/>
<path d="M187.896 483.892L164.468 471.583L162.517 468.539L161.473 442.341L163.232 441.246L186.688 453.57L188.611 456.599L189.655 482.797L187.896 483.892Z" fill="#B3B3B3"/>
<path d="M162.974 444.857L158.195 442.347L158.245 443.59L163.023 446.101L162.974 444.857Z" fill="#E3E4E9"/>
<path d="M163.185 450.21L158.406 447.7L158.456 448.943L163.234 451.454L163.185 450.21Z" fill="#E3E4E9"/>
<path d="M163.403 455.563L158.625 453.053L158.675 454.296L163.453 456.807L163.403 455.563Z" fill="#E3E4E9"/>
<path d="M163.614 460.916L158.836 458.406L158.886 459.649L163.664 462.16L163.614 460.916Z" fill="#E3E4E9"/>
<path d="M163.825 466.269L159.047 463.759L159.096 465.002L163.875 467.513L163.825 466.269Z" fill="#E3E4E9"/>
<path d="M192.013 460.113L187.234 457.602L187.284 458.846L192.062 461.356L192.013 460.113Z" fill="#E3E4E9"/>
<path d="M192.224 465.466L187.445 462.955L187.495 464.199L192.273 466.709L192.224 465.466Z" fill="#E3E4E9"/>
<path d="M192.442 470.819L187.664 468.308L187.714 469.552L192.492 472.062L192.442 470.819Z" fill="#E3E4E9"/>
<path d="M192.653 476.171L187.875 473.661L187.925 474.905L192.703 477.415L192.653 476.171Z" fill="#E3E4E9"/>
<path d="M192.864 481.524L188.086 479.014L188.136 480.257L192.914 482.768L192.864 481.524Z" fill="#E3E4E9"/>
<path d="M185.112 454.304L184.898 448.951L183.788 448.367L184.002 453.72L185.112 454.304Z" fill="#E3E4E9"/>
<path d="M180.346 451.785L180.133 446.432L179.023 445.848L179.236 451.201L180.346 451.785Z" fill="#E3E4E9"/>
<path d="M175.573 449.274L175.359 443.921L174.249 443.338L174.462 448.69L175.573 449.274Z" fill="#E3E4E9"/>
<path d="M170.791 446.763L170.578 441.41L169.468 440.827L169.681 446.18L170.791 446.763Z" fill="#E3E4E9"/>
<path d="M166.018 444.253L165.805 438.9L164.694 438.316L164.908 443.669L166.018 444.253Z" fill="#E3E4E9"/>
<path d="M186.409 486.815L186.195 481.462L185.085 480.879L185.298 486.231L186.409 486.815Z" fill="#E3E4E9"/>
<path d="M181.635 484.304L181.422 478.951L180.312 478.368L180.525 483.721L181.635 484.304Z" fill="#E3E4E9"/>
<path d="M176.854 481.793L176.641 476.44L175.53 475.857L175.744 481.21L176.854 481.793Z" fill="#E3E4E9"/>
<path d="M172.08 479.283L171.867 473.93L170.757 473.346L170.97 478.699L172.08 479.283Z" fill="#E3E4E9"/>
<path d="M167.315 476.779L167.102 471.427L165.991 470.843L166.205 476.196L167.315 476.779Z" fill="#E3E4E9"/>
<path d="M189.779 531.187L166.351 518.878L164.4 515.833L163.356 489.635L165.114 488.54L188.57 500.864L190.494 503.894L191.538 530.092L189.779 531.187Z" fill="#E06AE9"/>
<path d="M164.856 492.152L160.078 489.642L160.128 490.885L164.906 493.396L164.856 492.152Z" fill="#E3E4E9"/>
<path d="M165.075 497.505L160.297 494.994L160.346 496.238L165.125 498.749L165.075 497.505Z" fill="#E3E4E9"/>
<path d="M165.286 502.858L160.508 500.347L160.557 501.591L165.336 504.102L165.286 502.858Z" fill="#E3E4E9"/>
<path d="M165.497 508.211L160.719 505.7L160.768 506.944L165.547 509.454L165.497 508.211Z" fill="#E3E4E9"/>
<path d="M165.716 513.564L160.938 511.053L160.987 512.297L165.765 514.808L165.716 513.564Z" fill="#E3E4E9"/>
<path d="M193.895 507.407L189.117 504.897L189.167 506.141L193.945 508.651L193.895 507.407Z" fill="#E3E4E9"/>
<path d="M194.114 512.76L189.336 510.25L189.386 511.494L194.164 514.004L194.114 512.76Z" fill="#E3E4E9"/>
<path d="M194.325 518.113L189.547 515.603L189.596 516.846L194.375 519.357L194.325 518.113Z" fill="#E3E4E9"/>
<path d="M194.536 523.466L189.758 520.956L189.807 522.199L194.586 524.71L194.536 523.466Z" fill="#E3E4E9"/>
<path d="M194.755 528.819L189.977 526.309L190.026 527.552L194.804 530.063L194.755 528.819Z" fill="#E3E4E9"/>
<path d="M186.995 501.598L186.781 496.245L185.671 495.662L185.884 501.015L186.995 501.598Z" fill="#E3E4E9"/>
<path d="M182.237 499.079L182.023 493.726L180.913 493.143L181.126 498.496L182.237 499.079Z" fill="#E3E4E9"/>
<path d="M177.463 496.568L177.25 491.216L176.14 490.632L176.353 495.985L177.463 496.568Z" fill="#E3E4E9"/>
<path d="M172.682 494.058L172.469 488.705L171.358 488.122L171.572 493.475L172.682 494.058Z" fill="#E3E4E9"/>
<path d="M167.909 491.547L167.695 486.194L166.585 485.611L166.798 490.964L167.909 491.547Z" fill="#E3E4E9"/>
<path d="M188.291 534.109L188.078 528.756L186.968 528.173L187.181 533.526L188.291 534.109Z" fill="#E3E4E9"/>
<path d="M183.518 531.599L183.305 526.246L182.194 525.662L182.408 531.015L183.518 531.599Z" fill="#E3E4E9"/>
<path d="M178.737 529.088L178.523 523.735L177.413 523.152L177.626 528.505L178.737 529.088Z" fill="#E3E4E9"/>
<path d="M173.963 526.577L173.75 521.224L172.64 520.641L172.853 525.994L173.963 526.577Z" fill="#E3E4E9"/>
<path d="M169.206 524.074L168.992 518.721L167.882 518.138L168.095 523.491L169.206 524.074Z" fill="#E3E4E9"/>
<path d="M228.139 674.44L214.296 667.167L213.151 665.379L212.533 649.855L213.581 649.219L227.424 656.492L228.568 658.28L229.187 673.804L228.139 674.44Z" fill="#B3B3B3"/>
<path d="M213.403 651.377L210.578 649.893L210.608 650.633L213.432 652.117L213.403 651.377Z" fill="#E3E4E9"/>
<path d="M213.528 654.542L210.703 653.058L210.733 653.798L213.557 655.282L213.528 654.542Z" fill="#E3E4E9"/>
<path d="M213.653 657.722L210.828 656.238L210.858 656.978L213.682 658.462L213.653 657.722Z" fill="#E3E4E9"/>
<path d="M213.786 660.886L210.961 659.402L210.99 660.142L213.815 661.626L213.786 660.886Z" fill="#E3E4E9"/>
<path d="M213.911 664.051L211.086 662.567L211.115 663.307L213.94 664.791L213.911 664.051Z" fill="#E3E4E9"/>
<path d="M230.606 660.415L227.781 658.931L227.811 659.671L230.636 661.155L230.606 660.415Z" fill="#E3E4E9"/>
<path d="M230.731 663.58L227.906 662.095L227.936 662.835L230.761 664.32L230.731 663.58Z" fill="#E3E4E9"/>
<path d="M230.856 666.76L228.031 665.276L228.061 666.016L230.886 667.5L230.856 666.76Z" fill="#E3E4E9"/>
<path d="M230.981 669.925L228.156 668.44L228.186 669.18L231.011 670.665L230.981 669.925Z" fill="#E3E4E9"/>
<path d="M231.106 673.089L228.281 671.605L228.311 672.345L231.136 673.829L231.106 673.089Z" fill="#E3E4E9"/>
<path d="M226.532 656.949L226.406 653.785L225.746 653.438L225.872 656.602L226.532 656.949Z" fill="#E3E4E9"/>
<path d="M223.696 655.474L223.57 652.309L222.91 651.962L223.036 655.127L223.696 655.474Z" fill="#E3E4E9"/>
<path d="M220.876 653.989L220.75 650.825L220.089 650.478L220.216 653.642L220.876 653.989Z" fill="#E3E4E9"/>
<path d="M218.048 652.505L217.922 649.341L217.261 648.994L217.387 652.158L218.048 652.505Z" fill="#E3E4E9"/>
<path d="M215.22 651.005L215.094 647.841L214.433 647.494L214.559 650.658L215.22 651.005Z" fill="#E3E4E9"/>
<path d="M227.298 676.22L227.172 673.055L226.511 672.708L226.637 675.873L227.298 676.22Z" fill="#E3E4E9"/>
<path d="M224.47 674.736L224.344 671.571L223.683 671.224L223.809 674.389L224.47 674.736Z" fill="#E3E4E9"/>
<path d="M221.642 673.244L221.516 670.079L220.855 669.732L220.981 672.897L221.642 673.244Z" fill="#E3E4E9"/>
<path d="M218.814 671.76L218.688 668.595L218.027 668.248L218.153 671.413L218.814 671.76Z" fill="#E3E4E9"/>
<path d="M215.993 670.276L215.867 667.111L215.207 666.764L215.333 669.929L215.993 670.276Z" fill="#E3E4E9"/>
<path d="M118.534 199.805L116.383 198.676C115.813 198.376 115.256 197.835 114.835 197.171C114.414 196.508 114.163 195.776 114.137 195.137L114.042 192.744C114.032 192.179 113.847 191.533 113.516 190.916C113.186 190.298 112.731 189.747 112.228 189.356C111.911 189.121 111.587 188.96 111.279 188.883C110.972 188.807 110.688 188.817 110.449 188.914C110.21 189.011 110.021 189.191 109.895 189.442C109.77 189.693 109.711 190.009 109.723 190.367L109.823 192.87C109.837 193.188 109.795 193.474 109.7 193.71C109.604 193.947 109.456 194.13 109.265 194.249C109.074 194.368 108.843 194.421 108.586 194.404C108.329 194.386 108.051 194.3 107.768 194.149L105.632 193.027C105.12 192.746 104.627 192.67 104.237 192.81C103.846 192.95 103.582 193.299 103.489 193.797C103.441 194.116 103.463 194.484 103.555 194.873C103.647 195.262 103.805 195.664 104.019 196.048C104.233 196.433 104.496 196.792 104.792 197.099C105.087 197.406 105.406 197.653 105.727 197.824L107.962 198.998C108.521 199.288 109.069 199.812 109.488 200.459C109.908 201.106 110.165 201.824 110.205 202.458L110.301 204.867C110.314 205.434 110.503 206.079 110.836 206.695C111.169 207.311 111.625 207.859 112.128 208.247C112.445 208.485 112.769 208.649 113.077 208.726C113.385 208.804 113.669 208.794 113.908 208.696C114.147 208.598 114.335 208.416 114.458 208.162C114.581 207.908 114.636 207.589 114.619 207.228L114.519 204.725C114.498 204.091 114.702 203.602 115.087 203.365C115.472 203.129 116.006 203.163 116.574 203.462L118.809 204.636C119.13 204.805 119.444 204.892 119.729 204.89C120.013 204.889 120.26 204.799 120.452 204.626C120.644 204.454 120.776 204.205 120.839 203.895C120.902 203.586 120.894 203.225 120.815 202.838C120.669 202.227 120.364 201.594 119.95 201.043C119.535 200.492 119.036 200.056 118.534 199.805V199.805Z" fill="#4D4D4D"/>
<path d="M673.605 723.523L671.679 722.512C671.425 722.378 671.171 722.19 670.933 721.957C670.694 721.725 670.474 721.452 670.287 721.156C670.1 720.86 669.949 720.546 669.843 720.233C669.736 719.919 669.677 719.611 669.667 719.327L669.581 717.171C669.569 716.658 669.399 716.075 669.098 715.519C668.798 714.963 668.386 714.467 667.932 714.115C667.647 713.904 667.356 713.759 667.079 713.69C666.803 713.622 666.548 713.632 666.333 713.719C666.118 713.807 665.948 713.97 665.836 714.197C665.724 714.423 665.672 714.708 665.685 715.031L665.774 717.282C665.797 717.858 665.615 718.304 665.268 718.52C664.92 718.736 664.436 718.706 663.922 718.436L661.996 717.424C661.538 717.171 661.096 717.101 660.748 717.227C660.399 717.353 660.164 717.667 660.084 718.115C660.038 718.4 660.056 718.729 660.137 719.078C660.217 719.427 660.359 719.788 660.55 720.134C660.742 720.479 660.979 720.802 661.244 721.077C661.51 721.352 661.797 721.574 662.085 721.725L664.095 722.781C664.609 723.051 665.111 723.539 665.491 724.138C665.871 724.736 666.098 725.396 666.121 725.973L666.207 728.13C666.218 728.639 666.386 729.22 666.684 729.774C666.981 730.329 667.39 730.824 667.842 731.177C668.128 731.389 668.42 731.534 668.697 731.603C668.974 731.672 669.23 731.663 669.446 731.576C669.661 731.489 669.832 731.327 669.946 731.102C670.06 730.876 670.113 730.592 670.103 730.269L670.014 728.018C670 727.733 670.038 727.476 670.123 727.263C670.208 727.05 670.34 726.884 670.511 726.776C670.682 726.668 670.889 726.62 671.119 726.634C671.349 726.648 671.598 726.724 671.852 726.857L673.862 727.913C674.15 728.064 674.432 728.141 674.687 728.139C674.942 728.137 675.164 728.057 675.336 727.903C675.509 727.749 675.629 727.526 675.686 727.249C675.744 726.973 675.738 726.65 675.669 726.304C675.546 725.747 675.273 725.166 674.897 724.66C674.52 724.153 674.064 723.752 673.605 723.523V723.523Z" fill="#E3E4E9"/>
<path fill-rule="evenodd" clip-rule="evenodd" d="M134.68 681.119C135.15 681.237 135.646 681.486 136.131 681.846L136.142 681.855L136.154 681.864C136.925 682.471 137.621 683.32 138.127 684.27C138.63 685.217 138.914 686.207 138.929 687.075L139.048 690.057C139.072 690.669 139.312 691.37 139.717 692.008C140.122 692.646 140.659 693.168 141.209 693.457L144.027 694.937L144.034 694.941C144.807 695.367 145.562 696.07 146.178 696.936C146.795 697.802 147.235 698.782 147.428 699.715L147.43 699.728L147.433 699.741C147.538 700.323 147.537 700.863 147.43 701.323C147.323 701.783 147.114 702.152 146.816 702.403C146.518 702.655 146.14 702.783 145.708 702.779C145.276 702.776 144.801 702.64 144.315 702.383C144.315 702.383 144.314 702.383 144.314 702.383L144.289 701.69L144.317 702.384L144.315 702.383L141.508 700.908C141.508 700.908 141.509 700.909 141.509 700.909L141.478 700.213L141.506 700.907L141.508 700.908C140.962 700.625 140.45 700.595 140.082 700.824C139.715 701.053 139.522 701.521 139.543 702.126L139.542 702.124L138.927 701.801L139.543 702.128C139.543 702.127 139.543 702.127 139.543 702.126L139.668 705.273C139.689 705.826 139.601 706.315 139.41 706.703C139.218 707.091 138.928 707.369 138.561 707.518C138.194 707.667 137.758 707.683 137.287 707.566C136.815 707.448 136.318 707.199 135.832 706.838L135.82 706.829L135.808 706.82C135.038 706.213 134.341 705.364 133.836 704.413C133.332 703.466 133.049 702.477 133.033 701.609L133.034 701.618L133.649 701.941L133.033 701.598C133.033 701.602 133.033 701.605 133.033 701.609L132.915 698.627C132.89 698.015 132.65 697.313 132.245 696.676C131.84 696.038 131.304 695.516 130.753 695.227L127.943 693.75C127.451 693.492 126.961 693.114 126.507 692.644C126.053 692.174 125.648 691.623 125.319 691.032C124.991 690.44 124.749 689.822 124.611 689.224C124.472 688.625 124.441 688.061 124.52 687.572L124.521 687.564L124.523 687.555C124.67 686.79 125.08 686.258 125.683 686.047C126.283 685.837 127.038 685.96 127.822 686.392L127.814 686.388L127.842 687.083L127.831 686.397C127.828 686.396 127.825 686.394 127.822 686.392L130.442 687.769C130.993 688.058 131.51 688.09 131.88 687.86C132.25 687.629 132.444 687.155 132.419 686.544L132.294 683.39C132.275 682.841 132.365 682.356 132.558 681.971C132.751 681.586 133.041 681.31 133.408 681.163C133.775 681.016 134.209 681.001 134.68 681.119ZM135.933 683.073C135.63 682.85 135.321 682.696 135.027 682.622C134.729 682.547 134.455 682.557 134.224 682.65C133.993 682.742 133.811 682.916 133.69 683.157C133.569 683.398 133.513 683.701 133.524 684.044L133.65 687.19C133.689 688.174 133.378 688.932 132.786 689.301C132.195 689.669 131.371 689.617 130.498 689.158L127.862 687.773L127.853 687.768C127.347 687.488 126.86 687.408 126.474 687.543C126.09 687.677 125.829 688.014 125.734 688.497C125.687 688.801 125.707 689.15 125.792 689.52C125.879 689.894 126.03 690.28 126.236 690.651C126.442 691.022 126.696 691.368 126.982 691.664C127.268 691.96 127.577 692.198 127.887 692.361L130.698 693.838C131.572 694.297 132.426 695.126 133.073 696.145C133.72 697.164 134.106 698.29 134.145 699.273L134.265 702.274L134.265 702.284C134.273 702.837 134.454 703.47 134.776 704.078C135.097 704.68 135.539 705.221 136.03 705.61C136.333 705.835 136.644 705.989 136.938 706.062C137.236 706.137 137.511 706.126 137.742 706.033C137.973 705.939 138.155 705.764 138.276 705.52C138.396 705.277 138.451 704.972 138.437 704.627L138.312 701.478L138.312 701.474C138.277 700.5 138.589 699.749 139.176 699.383C139.764 699.017 140.58 699.066 141.447 699.517L141.451 699.518L144.261 700.995L144.264 700.996C144.571 701.159 144.872 701.245 145.145 701.247C145.418 701.25 145.656 701.169 145.843 701.011C146.03 700.853 146.162 700.621 146.228 700.333C146.294 700.049 146.296 699.715 146.232 699.356C146.109 698.766 145.829 698.146 145.437 697.595C145.044 697.043 144.562 696.593 144.067 696.318L141.264 694.846C140.391 694.387 139.537 693.557 138.89 692.538C138.243 691.519 137.856 690.394 137.817 689.411L137.698 686.41L137.698 686.4C137.689 685.846 137.509 685.213 137.186 684.606C136.865 684.004 136.424 683.463 135.933 683.073Z" fill="#808490"/>
<path d="M613.542 952.571L585.898 938.046C585.152 937.655 584.424 936.947 583.873 936.08C583.323 935.212 582.995 934.256 582.961 933.421C582.928 932.586 583.192 931.94 583.696 931.627C584.2 931.313 584.901 931.357 585.647 931.749L613.291 946.273C614.036 946.665 614.764 947.372 615.315 948.24C615.866 949.107 616.194 950.064 616.227 950.899C616.26 951.734 615.996 952.379 615.492 952.693C614.989 953.006 614.287 952.962 613.542 952.571Z" fill="#B3B3B3"/>
<path d="M626.68 959.475L623.476 957.791C622.73 957.4 622.002 956.692 621.452 955.825C620.901 954.957 620.573 954.001 620.54 953.166C620.506 952.331 620.77 951.685 621.274 951.372C621.778 951.058 622.479 951.102 623.225 951.494L626.429 953.177C627.175 953.569 627.903 954.276 628.453 955.144C629.004 956.011 629.332 956.968 629.365 957.803C629.399 958.638 629.134 959.283 628.631 959.597C628.127 959.91 627.426 959.866 626.68 959.475Z" fill="#B3B3B3"/>
<path d="M642.88 967.989L642.304 967.686C641.558 967.294 640.83 966.587 640.28 965.719C639.729 964.852 639.401 963.896 639.368 963.06C639.334 962.225 639.599 961.58 640.102 961.266C640.606 960.953 641.307 960.997 642.053 961.388L642.629 961.691C643.375 962.083 644.103 962.79 644.653 963.658C645.204 964.525 645.532 965.482 645.565 966.317C645.599 967.152 645.334 967.797 644.831 968.111C644.327 968.424 643.626 968.38 642.88 967.989Z" fill="#B3B3B3"/>
<path d="M326.77 232.591L299.14 218.074C298.394 217.682 297.666 216.975 297.116 216.108C296.565 215.24 296.237 214.284 296.204 213.449C296.17 212.613 296.435 211.968 296.938 211.655C297.442 211.341 298.143 211.385 298.889 211.777L326.519 226.294C327.264 226.685 327.992 227.393 328.543 228.26C329.094 229.128 329.422 230.084 329.455 230.919C329.488 231.754 329.224 232.4 328.721 232.713C328.217 233.027 327.515 232.983 326.77 232.591Z" fill="#E06AE9"/>
<path d="M339.929 239.503L336.71 237.812C335.965 237.42 335.237 236.713 334.686 235.845C334.135 234.978 333.807 234.021 333.774 233.186C333.741 232.351 334.005 231.706 334.508 231.392C335.012 231.079 335.714 231.123 336.459 231.514L339.678 233.205C340.423 233.597 341.151 234.304 341.702 235.172C342.252 236.039 342.581 236.996 342.614 237.831C342.647 238.666 342.383 239.311 341.879 239.625C341.376 239.938 340.674 239.895 339.929 239.503Z" fill="#E06AE9"/>
<path d="M356.108 248.01L355.546 247.714C354.801 247.323 354.073 246.615 353.522 245.748C352.971 244.88 352.643 243.924 352.61 243.089C352.577 242.254 352.841 241.608 353.344 241.295C353.848 240.981 354.55 241.025 355.295 241.417L355.857 241.712C356.603 242.104 357.331 242.811 357.882 243.679C358.432 244.546 358.76 245.503 358.794 246.338C358.827 247.173 358.563 247.818 358.059 248.132C357.555 248.445 356.854 248.401 356.108 248.01Z" fill="#E06AE9"/>
<path d="M565.478 687.624C565.505 688.3 565.352 688.867 565.039 689.252C564.727 689.638 564.268 689.826 563.721 689.791C563.174 689.757 562.563 689.503 561.967 689.06C561.37 688.617 560.813 688.007 560.368 687.305C559.922 686.603 559.608 685.841 559.463 685.117C559.319 684.392 559.352 683.737 559.558 683.234C559.764 682.731 560.134 682.403 560.62 682.291C561.107 682.179 561.689 682.289 562.292 682.606C563.101 683.03 563.891 683.798 564.488 684.739C565.086 685.68 565.442 686.718 565.478 687.624Z" fill="#B3B3B3"/>
<path d="M572.954 682.968C572.981 683.643 572.829 684.21 572.516 684.596C572.203 684.982 571.744 685.169 571.197 685.135C570.65 685.101 570.04 684.846 569.443 684.404C568.846 683.961 568.29 683.35 567.844 682.648C567.399 681.946 567.084 681.185 566.94 680.46C566.796 679.736 566.829 679.081 567.035 678.578C567.241 678.075 567.61 677.746 568.097 677.635C568.584 677.523 569.165 677.632 569.768 677.949C570.577 678.374 571.367 679.141 571.965 680.083C572.562 681.024 572.918 682.062 572.954 682.968Z" fill="#B3B3B3"/>
<path d="M580.423 678.296C580.45 678.972 580.297 679.539 579.984 679.925C579.67 680.311 579.211 680.498 578.663 680.463C578.115 680.428 577.504 680.172 576.907 679.728C576.309 679.283 575.753 678.671 575.308 677.968C574.863 677.265 574.549 676.502 574.407 675.778C574.264 675.053 574.299 674.398 574.507 673.897C574.715 673.395 575.087 673.069 575.576 672.96C576.064 672.851 576.647 672.964 577.251 673.284C578.058 673.712 578.844 674.48 579.439 675.419C580.033 676.358 580.387 677.392 580.423 678.296Z" fill="#B3B3B3"/>
<path d="M639.994 905.184C640.007 905.511 639.933 905.785 639.782 905.972C639.63 906.159 639.408 906.249 639.144 906.233C638.879 906.216 638.584 906.093 638.295 905.879C638.006 905.665 637.737 905.369 637.521 905.029C637.306 904.69 637.153 904.321 637.084 903.971C637.014 903.62 637.03 903.303 637.13 903.06C637.229 902.816 637.408 902.658 637.644 902.604C637.879 902.549 638.16 902.602 638.452 902.756C638.648 902.848 638.846 902.986 639.033 903.161C639.22 903.337 639.391 903.546 639.537 903.775C639.682 904.004 639.798 904.247 639.876 904.49C639.955 904.733 639.995 904.969 639.994 905.184V905.184Z" fill="#B3B3B3"/>
<path d="M451.059 813.142C451.057 813.423 450.98 813.654 450.837 813.808C450.694 813.962 450.493 814.031 450.256 814.008C450.019 813.985 449.758 813.87 449.503 813.677C449.248 813.484 449.011 813.222 448.821 812.922C448.63 812.622 448.494 812.297 448.429 811.986C448.364 811.675 448.373 811.392 448.455 811.171C448.536 810.949 448.687 810.799 448.888 810.739C449.09 810.678 449.334 810.709 449.591 810.829C449.778 810.916 449.966 811.047 450.144 811.214C450.323 811.382 450.486 811.581 450.625 811.799C450.763 812.017 450.874 812.249 450.948 812.481C451.023 812.712 451.061 812.937 451.059 813.142V813.142Z" fill="#B3B3B3"/>
<path d="M365.056 889.934C365.069 890.264 364.993 890.54 364.839 890.726C364.684 890.913 364.458 891.001 364.189 890.979C363.92 890.958 363.621 890.828 363.33 890.606C363.039 890.385 362.77 890.081 362.557 889.735C362.345 889.389 362.198 889.017 362.136 888.665C362.074 888.314 362.101 888 362.211 887.764C362.322 887.528 362.512 887.381 362.757 887.342C363.001 887.302 363.29 887.372 363.585 887.542C363.776 887.642 363.966 887.785 364.145 887.961C364.323 888.137 364.486 888.343 364.624 888.567C364.762 888.79 364.871 889.027 364.945 889.262C365.02 889.497 365.057 889.726 365.056 889.934V889.934Z" fill="#4D4D4D"/>
<path d="M324.76 886.406C324.775 886.705 324.71 886.956 324.575 887.128C324.439 887.3 324.238 887.385 323.998 887.371C323.758 887.358 323.49 887.247 323.227 887.053C322.965 886.859 322.72 886.591 322.524 886.282C322.328 885.973 322.19 885.639 322.127 885.32C322.065 885.002 322.08 884.714 322.172 884.494C322.264 884.274 322.428 884.132 322.643 884.085C322.858 884.039 323.115 884.09 323.38 884.232C323.73 884.42 324.07 884.753 324.328 885.159C324.586 885.565 324.741 886.013 324.76 886.406V886.406Z" fill="#B3B3B3"/>
<path d="M266.228 701.356C266.241 701.686 266.165 701.962 266.011 702.149C265.856 702.335 265.63 702.423 265.361 702.402C265.092 702.38 264.793 702.251 264.502 702.029C264.211 701.807 263.942 701.504 263.729 701.158C263.517 700.812 263.37 700.439 263.308 700.088C263.246 699.737 263.272 699.423 263.383 699.187C263.494 698.951 263.684 698.804 263.928 698.764C264.173 698.724 264.462 698.794 264.757 698.965C264.948 699.065 265.138 699.207 265.317 699.383C265.495 699.559 265.658 699.765 265.796 699.989C265.933 700.213 266.043 700.449 266.117 700.684C266.191 700.919 266.229 701.148 266.228 701.356V701.356Z" fill="#4D4D4D"/>
<path d="M133.835 650.576C134.813 651.09 135.571 650.619 135.527 649.523C135.483 648.427 134.655 647.123 133.677 646.609C132.699 646.095 131.942 646.567 131.985 647.662C132.029 648.758 132.857 650.062 133.835 650.576Z" fill="#B3B3B3"/>
<path d="M68.9083 391.305C69.8164 391.782 70.5198 391.345 70.4792 390.327C70.4387 389.31 69.6696 388.098 68.7615 387.621C67.8534 387.144 67.1501 387.582 67.1906 388.599C67.2311 389.617 68.0002 390.828 68.9083 391.305Z" fill="#B3B3B3"/>
<path d="M48.0877 473.666C48.1046 474.09 48.009 474.445 47.813 474.687C47.617 474.928 47.3294 475.046 46.9866 475.024C46.6438 475.003 46.2612 474.843 45.8872 474.566C45.5131 474.289 45.1644 473.906 44.8852 473.466C44.6059 473.026 44.4087 472.549 44.3184 472.095C44.2281 471.641 44.2488 471.23 44.3779 470.915C44.5069 470.6 44.7386 470.394 45.0435 470.324C45.3485 470.254 45.713 470.322 46.091 470.521C46.5979 470.787 47.0931 471.268 47.4675 471.858C47.842 472.448 48.065 473.098 48.0877 473.666Z" fill="#E3E4E9"/>
<path d="M169.346 223.251C170.254 223.728 170.957 223.29 170.917 222.273C170.876 221.255 170.107 220.044 169.199 219.567C168.291 219.089 167.588 219.527 167.628 220.545C167.669 221.562 168.438 222.774 169.346 223.251Z" fill="#B3B3B3"/>
<path d="M413.08 250.487C413.988 250.965 414.692 250.527 414.651 249.509C414.611 248.492 413.842 247.281 412.933 246.803C412.025 246.326 411.322 246.764 411.362 247.781C411.403 248.799 412.172 250.01 413.08 250.487Z" fill="#B3B3B3"/>
<path d="M565.553 420.306C565.566 420.618 565.495 420.879 565.351 421.057C565.207 421.234 564.996 421.321 564.744 421.305C564.492 421.289 564.21 421.172 563.935 420.968C563.66 420.764 563.404 420.483 563.198 420.159C562.993 419.836 562.848 419.485 562.782 419.151C562.715 418.817 562.73 418.515 562.825 418.283C562.92 418.051 563.091 417.9 563.315 417.849C563.539 417.797 563.807 417.847 564.085 417.994C564.458 418.189 564.822 418.543 565.097 418.977C565.373 419.411 565.537 419.889 565.553 420.306Z" fill="#B3B3B3"/>
<path d="M387.322 370.177C388.23 370.654 388.934 370.216 388.893 369.199C388.853 368.181 388.084 366.97 387.176 366.493C386.267 366.015 385.564 366.453 385.605 367.471C385.645 368.488 386.414 369.7 387.322 370.177Z" fill="#B3B3B3"/>
<path d="M663.142 543.593C663.159 544.017 663.064 544.372 662.868 544.614C662.672 544.855 662.384 544.973 662.041 544.951C661.698 544.93 661.316 544.771 660.942 544.493C660.568 544.216 660.219 543.833 659.94 543.393C659.661 542.953 659.463 542.476 659.373 542.022C659.283 541.568 659.303 541.157 659.433 540.842C659.562 540.527 659.793 540.321 660.098 540.251C660.403 540.181 660.768 540.249 661.146 540.448C661.653 540.714 662.148 541.195 662.522 541.785C662.897 542.375 663.12 543.025 663.142 543.593Z" fill="#4D4D4D"/>
<path d="M565.522 621.326C565.534 621.637 565.464 621.898 565.32 622.076C565.176 622.254 564.964 622.34 564.712 622.325C564.46 622.309 564.179 622.192 563.904 621.988C563.629 621.784 563.372 621.502 563.167 621.179C562.962 620.855 562.817 620.504 562.75 620.17C562.684 619.837 562.699 619.535 562.794 619.303C562.889 619.071 563.059 618.92 563.284 618.868C563.508 618.817 563.776 618.867 564.054 619.013C564.427 619.209 564.791 619.563 565.066 619.996C565.341 620.43 565.505 620.908 565.522 621.326Z" fill="#B3B3B3"/>
<path d="M680.627 807.812C680.644 808.236 680.548 808.591 680.352 808.833C680.156 809.074 679.869 809.192 679.526 809.171C679.183 809.149 678.8 808.99 678.426 808.712C678.052 808.435 677.704 808.052 677.424 807.612C677.145 807.172 676.948 806.695 676.857 806.241C676.767 805.787 676.788 805.376 676.917 805.061C677.046 804.746 677.278 804.54 677.583 804.47C677.888 804.4 678.252 804.468 678.63 804.667C679.137 804.933 679.632 805.414 680.007 806.004C680.381 806.594 680.604 807.244 680.627 807.812V807.812Z" fill="#B3B3B3"/>
<path d="M549.205 762.76C549.222 763.184 549.126 763.539 548.93 763.781C548.734 764.022 548.447 764.14 548.104 764.118C547.761 764.097 547.378 763.938 547.004 763.66C546.63 763.383 546.282 763 546.002 762.56C545.723 762.12 545.526 761.643 545.436 761.189C545.345 760.735 545.366 760.324 545.495 760.009C545.624 759.694 545.856 759.488 546.161 759.418C546.466 759.348 546.83 759.416 547.208 759.615C547.715 759.881 548.21 760.362 548.585 760.952C548.959 761.542 549.182 762.192 549.205 762.76Z" fill="#E3E4E9"/>
<g clip-path="url(#clip1_0_29)">
<path d="M126.5 535.323C105.678 535.323 97.0314 562.426 114.246 574.025L114.246 587.17C114.246 589.97 116.792 591.834 119.102 592.854C119.84 598.382 133.16 598.382 133.898 592.854C136.211 591.833 138.754 589.889 138.754 587.17L138.754 574.025C155.911 562.465 147.395 535.323 126.5 535.323Z" fill="#518282"/>
<path d="M114.246 575.548L114.246 587.17C114.246 591.108 119.732 594.301 126.5 594.301C133.268 594.301 138.754 591.108 138.754 587.17L138.754 575.548L114.246 575.548Z" fill="#518282"/>
<path d="M126.5 590.425C119.732 590.425 114.246 587.232 114.246 583.294L114.246 587.17C114.246 591.108 119.732 594.301 126.5 594.301C133.268 594.301 138.754 591.108 138.754 587.17L138.754 583.294C138.754 587.232 133.268 590.425 126.5 590.425Z" fill="#749B9B"/>
<path d="M126.5 582.679C119.732 582.679 114.246 579.486 114.246 575.548L114.246 579.424C114.246 583.362 119.732 586.555 126.5 586.555C133.268 586.555 138.754 583.362 138.754 579.424L138.754 575.548C138.754 579.486 133.268 582.679 126.5 582.679Z" fill="#749B9B"/>
<path d="M148.221 556.376C148.221 544.57 138.496 535 126.5 535C114.504 535 104.779 544.57 104.779 556.376C104.779 563.707 108.531 570.174 114.246 574.025L114.246 575.548C114.246 579.486 119.732 582.679 126.5 582.679C133.268 582.679 138.754 579.486 138.754 575.548L138.754 574.025C144.469 570.174 148.221 563.707 148.221 556.376Z" fill="#FFCA00"/>
<path opacity="0.3" d="M126.5 582.679C119.732 582.679 114.246 579.486 114.246 575.548C114.246 571.609 119.732 568.417 126.5 568.417C133.268 568.417 138.754 571.609 138.754 575.548C138.754 579.486 133.268 582.679 126.5 582.679Z" fill="white"/>
<path d="M134.711 563.831C133.397 563.405 132.022 562.911 130.806 562.099C130.137 561.888 129.738 562.122 129.61 562.802L129.61 564.214L129.591 564.204C129.095 563.931 128.787 563.414 128.787 562.855L128.787 560.095C128.787 558.976 128.175 557.933 127.191 557.374L127.09 557.317C125.795 556.875 125.019 557.317 124.76 558.641L124.76 561.499L124.739 561.488C124.234 561.218 123.919 560.698 123.919 560.131L123.919 557.359C123.919 555.228 120.034 552.952 120.034 555.986L120.034 556.063L118.201 555.052L118.151 554.85C117.806 553.455 115.613 553.981 115.958 555.376L120.322 572.997C120.714 574.583 122.827 573.733 122.515 572.471L118.726 557.174L120.448 558.124C121.122 558.346 121.525 558.114 121.657 557.427L121.657 556.115C122.593 556.791 122.466 559.191 122.296 560.131C122.296 561.283 122.935 562.341 123.964 562.892L124.087 562.958C125.37 563.367 126.135 562.919 126.383 561.615L126.383 558.76C126.865 559.035 127.164 559.547 127.164 560.096L127.164 562.855C127.164 563.992 127.79 565.043 128.799 565.598C129.774 566.045 131.233 565.865 131.233 564.331L131.233 564.139L133.091 565.122L129.073 577.125C128.653 578.379 130.707 579.344 131.217 577.82L135.429 565.234C135.625 564.651 135.303 564.023 134.711 563.831C135.303 564.023 134.489 563.76 134.711 563.831Z" fill="#CAA414"/>
<path opacity="0.3" d="M119.895 558.84C114.651 558.84 110.401 554.656 110.401 549.496C110.401 544.336 114.651 540.152 119.895 540.152C125.138 540.152 129.389 544.336 129.389 549.496C129.389 554.656 125.138 558.84 119.895 558.84Z" fill="white"/>
</g>
<g clip-path="url(#clip2_0_29)">
<path d="M234.133 229.447C230.237 231.596 227.816 236.34 227.816 243.129C227.816 256.452 237.139 272.601 248.641 279.198C254.373 282.486 259.564 282.78 263.329 280.599C263.317 280.606 263.305 280.614 263.293 280.62L274.012 274.472C277.823 272.286 280.184 267.575 280.184 260.87C280.184 247.546 270.861 231.397 259.359 224.8C253.646 221.523 248.469 221.22 244.707 223.378L233.988 229.526C234.036 229.499 234.085 229.474 234.133 229.447Z" fill="#FEDA44"/>
<path d="M233.988 229.526L244.707 223.378C248.469 221.22 253.645 221.523 259.359 224.801C270.861 231.398 280.184 247.546 280.184 260.87C280.184 267.575 277.823 272.287 274.012 274.473L263.293 280.621C267.105 278.435 269.466 273.723 269.466 267.018C269.466 253.695 260.142 237.546 248.641 230.949C242.927 227.671 237.751 227.368 233.988 229.526Z" fill="#EEBF00"/>
<path d="M227.816 243.129C227.816 229.805 237.139 224.352 248.641 230.949C260.142 237.545 269.466 253.694 269.466 267.018C269.466 280.342 260.142 285.795 248.641 279.198C237.139 272.601 227.816 256.453 227.816 243.129Z" fill="#FEDA44"/>
<path d="M261.555 247.507C265.19 253.804 267.047 260.576 266.784 266.575C266.554 271.799 264.659 275.816 261.585 277.596C258.495 279.385 254.235 279.049 249.589 276.649C244.283 273.909 239.36 268.934 235.727 262.64C232.091 256.343 230.234 249.571 230.498 243.572C230.728 238.348 232.623 234.331 235.697 232.551C238.786 230.762 243.046 231.098 247.693 233.498C252.998 236.238 257.921 241.213 261.555 247.507ZM236.274 262.324C239.848 268.515 244.679 273.403 249.879 276.088C254.327 278.385 258.372 278.727 261.268 277.05C264.152 275.38 265.933 271.552 266.153 266.547C266.411 260.667 264.584 254.017 261.008 247.823C257.434 241.632 252.602 236.744 247.403 234.059C242.954 231.762 238.91 231.42 236.013 233.097C233.129 234.768 231.349 238.595 231.129 243.6C230.87 249.481 232.698 256.13 236.274 262.324Z" fill="#EEBF00"/>
<path d="M263.353 229.388L253.971 234.804C254.184 234.992 254.395 235.182 254.605 235.375L265.297 229.203C265.086 229.01 264.875 228.819 264.662 228.632L263.353 229.388Z" fill="#FECE00"/>
<path d="M272.96 238.457C272.814 238.228 272.667 238.001 272.518 237.774L261.819 243.952C261.967 244.178 262.115 244.405 262.26 244.634L272.96 238.457Z" fill="#FECE00"/>
<path d="M253.408 222.388C252.995 222.294 252.588 222.216 252.186 222.156L241.524 228.312C241.924 228.373 242.329 228.453 242.74 228.548L253.408 222.388Z" fill="#FECE00"/>
<path d="M248.721 230.996C248.988 231.15 249.253 231.31 249.517 231.474L260.202 225.305C259.938 225.141 259.672 224.981 259.405 224.828L248.721 230.996Z" fill="#FECE00"/>
<path d="M258.247 239.175C258.425 239.384 258.6 239.594 258.775 239.807L269.471 233.632C269.297 233.419 269.121 233.208 268.943 233L258.247 239.175Z" fill="#FECE00"/>
<path d="M267.128 254.565C267.221 254.825 267.312 255.085 267.4 255.345L278.107 249.164C278.019 248.903 277.928 248.643 277.835 248.383L267.128 254.565Z" fill="#FECE00"/>
<path d="M264.778 249.082C264.9 249.325 265.02 249.568 265.137 249.812L275.841 243.633C275.723 243.389 275.604 243.145 275.482 242.903L264.778 249.082Z" fill="#FECE00"/>
<path d="M278.479 269.466C278.667 269.071 278.84 268.658 278.999 268.229L268.261 274.428C268.1 274.86 267.923 275.274 267.733 275.671L278.479 269.466Z" fill="#FECE00"/>
<path d="M268.777 260.452C268.834 260.734 268.888 261.015 268.938 261.296L279.65 255.112C279.6 254.831 279.545 254.549 279.488 254.268L268.777 260.452Z" fill="#FECE00"/>
<path d="M269.452 267.839L280.172 261.649C280.179 261.392 280.184 261.133 280.184 260.87C280.184 260.816 280.183 260.761 280.183 260.706L269.464 266.894C269.465 266.935 269.466 266.977 269.466 267.018C269.466 267.295 269.46 267.568 269.452 267.839Z" fill="#FECE00"/>
</g>
</g>
<g clip-path="url(#clip3_0_29)">
<path d="M486.997 351.594C487.067 347.957 484.703 344.302 479.906 341.533C470.491 336.097 455.222 336.098 445.869 341.534C441.207 344.243 438.881 347.799 438.886 351.357C438.886 351.345 438.886 351.334 438.886 351.322L438.866 358.386C438.855 361.979 441.222 365.577 445.96 368.312C455.374 373.748 470.643 373.748 479.997 368.312C484.643 365.612 486.97 362.07 486.98 358.523L487 351.459C487 351.504 486.998 351.549 486.997 351.594ZM447.026 360.641C444.15 358.98 442.206 356.98 441.194 354.862C442.198 352.789 444.1 350.834 446.902 349.205C455.679 344.105 470.005 344.105 478.839 349.205C481.716 350.866 483.659 352.866 484.671 354.985C483.667 357.057 481.766 359.012 478.963 360.641C470.187 365.741 455.86 365.741 447.026 360.641Z" fill="#1D1D1F"/>
<path d="M485.515 351.456L485.495 358.52C485.504 355.148 483.284 351.772 478.839 349.205C470.005 344.105 455.679 344.105 446.902 349.205C442.542 351.739 440.36 355.062 440.35 358.39L440.37 351.327C440.38 347.999 442.562 344.676 446.922 342.142C455.699 337.042 470.025 337.041 478.859 342.142C483.304 344.708 485.524 348.085 485.515 351.456Z" fill="#1D1D1F"/>
<path d="M487 351.46L486.98 358.523C486.97 362.07 484.643 365.612 479.997 368.312C470.643 373.748 455.374 373.748 445.96 368.313C441.222 365.577 438.855 361.979 438.866 358.386L438.886 351.323C438.875 354.915 441.242 358.514 445.98 361.249C455.395 366.685 470.663 366.685 480.017 361.249C484.664 358.549 486.99 355.007 487 351.46Z" fill="#2E2E30"/>
<path d="M479.906 341.533C489.321 346.969 489.37 355.813 480.017 361.249C470.663 366.685 455.395 366.685 445.98 361.249C436.564 355.813 436.515 346.97 445.869 341.534C455.222 336.098 470.491 336.097 479.906 341.533ZM447.026 360.641C455.86 365.741 470.187 365.741 478.963 360.641C487.74 355.54 487.692 347.242 478.859 342.142C470.025 337.041 455.699 337.041 446.922 342.142C438.146 347.242 438.192 355.541 447.026 360.641Z" fill="#3E3D43"/>
<path d="M474.59 365.996C474.601 362.281 473.81 359.647 472.824 360.113C468.214 361.852 458.901 359.902 451.182 355.445C447.41 353.267 444.67 350.868 443.19 348.666C443.156 345.381 442.865 343.068 442.504 343.381C442.512 343.375 442.519 343.37 442.526 343.365C437.641 346.204 432.757 349.043 427.872 351.882C427.793 351.931 427.704 351.987 427.615 352.068C427.612 352.07 427.61 352.073 427.607 352.075C427.598 352.083 427.589 352.09 427.58 352.099C427.566 352.113 427.555 352.126 427.542 352.139C427.511 352.171 427.484 352.202 427.458 352.235C427.455 352.24 427.45 352.245 427.447 352.249C427.432 352.269 427.417 352.29 427.404 352.31C427.388 352.335 427.372 352.36 427.357 352.387C427.245 352.581 427.222 352.783 427.19 353.062C427.167 353.259 427.11 353.9 427.06 355.62C427.015 357.179 427.008 358.774 427.005 359.455L427.001 361.136C426.994 363.591 427.039 366.542 427.156 367.601C427.181 367.829 427.205 367.939 427.221 367.991C427.262 368.129 427.29 368.175 427.365 368.298C427.403 368.36 427.471 368.43 427.52 368.483C427.546 368.511 427.586 368.543 427.615 368.568C427.675 368.623 427.77 368.679 427.839 368.723L430.517 370.269L433.196 371.816L435.875 373.362L438.553 374.909L441.232 376.455L443.911 378.002L446.589 379.548L449.268 381.095L451.947 382.641L454.625 384.188C454.826 384.303 455.059 384.393 455.319 384.454C455.63 384.527 455.918 384.543 456.105 384.543C456.374 384.543 456.653 384.511 456.89 384.454C457.084 384.408 457.154 384.381 457.322 384.316C457.394 384.288 457.433 384.267 457.581 384.188C457.582 384.187 457.584 384.183 457.585 384.181C457.584 384.183 457.582 384.187 457.581 384.188C457.793 384.029 458.113 383.875 458.341 383.741C458.569 383.607 458.892 383.456 459.102 383.294C459.311 383.132 459.634 382.981 459.862 382.847C460.09 382.713 460.394 382.534 460.622 382.4C461.637 381.803 462.652 381.207 463.666 380.61C466.723 378.813 469.78 377.016 472.837 375.219C473.797 374.655 474.575 371.322 474.585 367.677L474.59 365.996Z" fill="#E0E0E2"/>
<path d="M442.502 358.471C442.449 358.555 442.369 358.662 442.325 358.751C442.284 358.836 442.227 358.949 442.191 359.036C442.177 359.072 442.14 359.166 442.119 359.258C442.244 358.576 442.381 356.52 442.39 353.615C442.392 352.745 442.651 351.924 443.188 351.175C443.178 354.762 442.874 357.95 442.502 358.471Z" fill="#3E3D43"/>
<path d="M442.39 353.615L442.394 351.934C442.397 351.064 442.656 350.242 443.193 349.493L443.188 351.175C442.651 351.924 442.392 352.745 442.39 353.615Z" fill="#3E3D43"/>
<path d="M427.872 351.881C432.757 349.043 437.641 346.204 442.526 343.365C442.519 343.369 442.512 343.375 442.505 343.381L427.877 351.881C427.876 351.88 427.874 351.88 427.872 351.881Z" fill="#E0E0E2"/>
<path d="M457.618 369.053C456.808 369.524 455.489 369.524 454.674 369.053L427.887 353.587C427.288 353.241 427.129 352.739 427.404 352.31C427.388 352.335 427.373 352.36 427.357 352.387C427.245 352.582 427.222 352.783 427.19 353.063C427.167 353.259 427.11 353.9 427.06 355.62C427.015 357.179 427.008 358.774 427.006 359.455L427.001 361.136C426.994 363.591 427.039 366.542 427.156 367.601C427.181 367.829 427.205 367.939 427.221 367.992C427.262 368.129 427.29 368.175 427.365 368.298C427.403 368.36 427.471 368.43 427.52 368.483C427.546 368.511 427.586 368.543 427.615 368.568C427.676 368.623 427.77 368.679 427.839 368.723L430.517 370.269L433.196 371.816L435.875 373.362L438.554 374.909L441.232 376.455L443.911 378.002L446.59 379.548L449.268 381.095L451.947 382.641L454.626 384.188C454.826 384.303 455.059 384.393 455.319 384.454C455.631 384.527 455.918 384.543 456.105 384.543C456.374 384.543 456.653 384.511 456.89 384.454C457.084 384.408 457.154 384.381 457.322 384.316C457.394 384.288 457.434 384.267 457.581 384.188C457.676 384.133 457.761 381.207 457.771 377.562L457.776 375.88C457.787 372.165 457.716 369.108 457.618 369.053Z" fill="#2E2E30"/>
<path d="M442.394 351.934C442.394 351.318 442.394 350.038 442.343 348.737C442.273 346.979 442.182 346.78 442.178 346.759C442.178 346.759 441.183 344.99 442.504 343.381C442.895 343.042 443.203 345.779 443.193 349.493C442.656 350.242 442.397 351.064 442.394 351.934Z" fill="#77767E"/>
<path d="M433.758 349.008C436.316 359.957 446.139 368.112 457.867 368.112C463.849 368.112 469.335 365.991 473.615 362.459C471.057 351.51 461.234 343.355 449.506 343.355C443.524 343.355 438.038 345.476 433.758 349.008Z" fill="#3E3D43"/>
<path d="M427.689 362.097L427.693 360.415C427.704 356.701 427.791 353.643 427.887 353.587C427.288 353.241 427.129 352.739 427.404 352.31C427.388 352.335 427.373 352.36 427.357 352.387C427.245 352.582 427.222 352.783 427.19 353.063C427.167 353.259 427.11 353.9 427.06 355.62C427.015 357.179 427.008 358.774 427.006 359.455L427.001 361.136C426.994 363.591 427.039 366.542 427.156 367.601C427.181 367.829 427.205 367.939 427.221 367.992C427.262 368.129 427.29 368.175 427.365 368.298C427.403 368.36 427.471 368.43 427.52 368.483C427.546 368.511 427.586 368.543 427.615 368.568C427.676 368.623 427.77 368.679 427.839 368.723C427.745 368.669 427.678 365.743 427.689 362.097Z" fill="#3E3D43"/>
<path d="M454.626 384.188C454.826 384.304 455.059 384.393 455.319 384.454C455.631 384.527 455.919 384.543 456.105 384.543C456.374 384.543 456.653 384.511 456.891 384.454C457.084 384.408 457.154 384.381 457.322 384.316C457.394 384.288 457.434 384.267 457.581 384.188C457.676 384.133 457.761 381.207 457.771 377.562L457.776 375.88C457.787 372.166 457.716 369.108 457.619 369.052C456.808 369.523 455.49 369.523 454.674 369.052L454.626 384.188Z" fill="#3E3D43"/>
<path d="M454.674 369.052L427.887 353.587C427.791 353.643 427.704 356.7 427.693 360.415L427.689 362.097C427.678 365.743 427.745 368.668 427.839 368.723L430.518 370.269L433.196 371.816L435.875 373.362L438.554 374.909L441.232 376.455L443.911 378.002L446.59 379.548L449.268 381.095L451.947 382.641L454.626 384.188L454.674 369.052Z" fill="#2E2E30"/>
<path d="M427.689 362.097L427.693 360.415C427.704 356.701 427.791 353.643 427.887 353.587C427.288 353.241 427.129 352.739 427.404 352.31C427.388 352.335 427.373 352.36 427.357 352.387C427.245 352.582 427.222 352.783 427.19 353.063C427.167 353.259 427.11 353.9 427.06 355.62C427.015 357.179 427.008 358.774 427.006 359.455L427.001 361.136C426.994 363.591 427.039 366.542 427.156 367.601C427.181 367.829 427.205 367.939 427.221 367.992C427.262 368.129 427.29 368.175 427.365 368.298C427.403 368.36 427.471 368.43 427.52 368.483C427.546 368.511 427.586 368.543 427.615 368.568C427.676 368.623 427.77 368.679 427.839 368.723C427.745 368.669 427.678 365.743 427.689 362.097Z" fill="#3E3D43"/>
<path d="M427.458 352.235C427.482 352.204 427.51 352.172 427.542 352.139C427.512 352.17 427.484 352.202 427.458 352.235Z" fill="#D8D8DA"/>
<path d="M427.404 352.31C427.418 352.289 427.432 352.269 427.447 352.249C427.432 352.269 427.418 352.29 427.404 352.31Z" fill="#D8D8DA"/>
<path d="M427.447 352.249C427.451 352.244 427.455 352.24 427.459 352.235C427.455 352.239 427.45 352.244 427.447 352.249Z" fill="#D8D8DA"/>
<path d="M427.872 351.881C427.793 351.931 427.704 351.987 427.615 352.068C427.69 352.002 427.777 351.94 427.877 351.881C427.875 351.88 427.874 351.88 427.872 351.881Z" fill="#D8D8DA"/>
<path d="M427.607 352.075C427.61 352.073 427.612 352.07 427.615 352.068C427.612 352.07 427.61 352.073 427.607 352.075Z" fill="#D8D8DA"/>
<path d="M427.58 352.099C427.566 352.113 427.555 352.126 427.542 352.139C427.563 352.118 427.584 352.096 427.607 352.075C427.598 352.083 427.589 352.09 427.58 352.099Z" fill="#D8D8DA"/>
<path d="M472.825 360.113C467.756 363.093 462.687 366.073 457.618 369.053C456.808 369.524 455.489 369.524 454.674 369.053C445.745 363.897 436.816 358.742 427.887 353.587C427.071 353.116 427.067 352.352 427.877 351.881C432.753 349.048 437.629 346.214 442.504 343.381C440.473 346.222 443.909 351.246 451.182 355.445C458.901 359.902 468.214 361.852 472.825 360.113Z" fill="#E0E0E2"/>
<path d="M451.448 360.428L443.317 355.733L440.805 357.194L448.935 361.888L451.448 360.428Z" fill="#57565C"/>
<path d="M474.59 365.996C474.601 362.281 473.81 359.647 472.824 360.113L457.618 369.052C457.716 369.108 457.787 372.165 457.776 375.88L457.771 377.562C457.761 381.207 457.676 384.132 457.581 384.188C457.793 384.029 458.113 383.875 458.341 383.741C458.569 383.607 458.892 383.456 459.102 383.294C459.311 383.132 459.634 382.981 459.862 382.847C460.09 382.713 460.394 382.534 460.623 382.4C461.637 381.803 462.652 381.207 463.667 380.61C466.723 378.813 469.78 377.016 472.837 375.219C473.797 374.655 474.575 371.323 474.585 367.677L474.59 365.996Z" fill="#ACABB1"/>
<path d="M449.494 369.455C448.779 369.043 448.199 369.374 448.197 370.195C448.194 371.016 448.771 372.016 449.485 372.429C450.2 372.841 450.781 372.51 450.784 371.689C450.786 370.868 450.208 369.868 449.494 369.455Z" fill="#59A4FF"/>
<path d="M449.475 376.139C448.76 375.726 448.18 376.058 448.177 376.878C448.175 377.699 448.752 378.699 449.466 379.112C450.181 379.524 450.762 379.193 450.765 378.372C450.767 377.552 450.189 376.551 449.475 376.139Z" fill="#59A4FF"/>
<path d="M452.788 374.704C452.074 374.292 451.493 374.623 451.49 375.444C451.488 376.265 452.065 377.265 452.779 377.677C453.494 378.089 454.075 377.759 454.077 376.938C454.08 376.117 453.502 375.117 452.788 374.704Z" fill="#59A4FF"/>
<path d="M432.895 359.7C432.18 359.287 431.6 359.619 431.598 360.44C431.595 361.261 432.172 362.261 432.887 362.673C433.601 363.086 434.182 362.754 434.185 361.933C434.187 361.112 433.609 360.112 432.895 359.7Z" fill="#59A4FF"/>
<path d="M432.876 366.383C432.161 365.971 431.581 366.302 431.579 367.123C431.576 367.944 432.153 368.944 432.868 369.356C433.582 369.769 434.163 369.437 434.166 368.616C434.168 367.796 433.591 366.796 432.876 366.383Z" fill="#59A4FF"/>
<path d="M429.582 361.134C428.868 360.722 428.287 361.053 428.284 361.874C428.282 362.695 428.859 363.694 429.574 364.107C430.289 364.519 430.869 364.189 430.871 363.367C430.874 362.546 430.297 361.547 429.582 361.134Z" fill="#59A4FF"/>
<path d="M447.643 350.692C449.337 350.692 450.711 349.318 450.711 347.623C450.711 345.929 449.337 344.555 447.643 344.555C445.948 344.555 444.574 345.929 444.574 347.623C444.574 349.318 445.948 350.692 447.643 350.692Z" fill="#77767E"/>
<path d="M450.839 360.581C450.838 358.184 449.161 355.278 447.091 354.091C446.063 353.501 445.131 353.447 444.454 353.835L442.525 354.941C442.525 354.941 441.414 355.473 441.414 357.346L448.91 361.702L448.91 361.702L450.839 360.581Z" fill="#1D1D1F"/>
<path d="M447.091 354.091C446.063 353.501 445.131 353.447 444.454 353.835L442.525 354.941C443.202 354.553 444.133 354.608 445.162 355.198C447.232 356.385 448.91 359.291 448.91 361.689C448.91 361.694 448.91 361.698 448.91 361.702L448.91 361.702L450.839 360.581C450.838 358.184 449.16 355.278 447.091 354.091Z" fill="#57565C"/>
<path d="M447.81 354.917L446.121 355.892C446.159 355.925 446.198 355.96 446.235 355.994L448.16 354.884C448.122 354.849 448.084 354.815 448.045 354.781L447.81 354.917Z" fill="#3E3D43"/>
<path d="M449.539 356.549C449.512 356.508 449.486 356.467 449.459 356.426L447.533 357.538C447.56 357.579 447.587 357.619 447.613 357.661L449.539 356.549Z" fill="#3E3D43"/>
<path d="M446.02 353.657C445.945 353.64 445.872 353.626 445.8 353.615L443.881 354.723C443.953 354.734 444.026 354.748 444.1 354.766L446.02 353.657Z" fill="#3E3D43"/>
<path d="M445.176 355.206C445.224 355.234 445.272 355.263 445.32 355.292L447.243 354.182C447.195 354.152 447.147 354.124 447.099 354.096L445.176 355.206Z" fill="#3E3D43"/>
<path d="M446.891 356.678C446.923 356.716 446.954 356.754 446.986 356.792L448.911 355.68C448.879 355.642 448.848 355.604 448.816 355.566L446.891 356.678Z" fill="#3E3D43"/>
<path d="M448.489 359.448C448.506 359.495 448.522 359.542 448.538 359.589L450.465 358.476C450.449 358.429 450.433 358.382 450.416 358.335L448.489 359.448Z" fill="#3E3D43"/>
<path d="M448.066 358.461C448.088 358.505 448.11 358.549 448.131 358.592L450.057 357.48C450.036 357.436 450.014 357.392 449.993 357.349L448.066 358.461Z" fill="#3E3D43"/>
<path d="M448.786 360.508C448.796 360.558 448.806 360.609 448.815 360.66L450.743 359.547C450.734 359.496 450.724 359.446 450.714 359.395L448.786 360.508Z" fill="#3E3D43"/>
<path d="M445.162 355.197C443.104 354.017 441.434 354.98 441.414 357.346L448.91 361.702C448.91 361.698 448.91 361.694 448.91 361.689C448.91 359.291 447.232 356.385 445.162 355.197Z" fill="#2E2E30"/>
<path d="M445.162 357.175C444.04 356.532 443.13 357.056 443.119 358.346L447.205 360.721C447.205 360.719 447.205 360.716 447.205 360.714C447.205 359.407 446.29 357.822 445.162 357.175Z" fill="#1D1D1F"/>
</g>
<g clip-path="url(#clip4_0_29)">
<path d="M296.368 819.136C296.368 812.846 293.78 805.871 289.948 800.766C290.017 800.093 290.053 799.387 290.053 798.649C290.053 789.347 284.398 778.542 277.422 774.515C274.009 772.545 270.913 772.562 268.64 774.183L264.566 776.51L264.566 776.51C261.746 777.971 259.947 781.617 259.947 786.863C259.947 787.599 259.987 788.346 260.055 789.097C256.221 789.774 253.632 793.765 253.632 800.058C253.632 809.359 259.287 820.164 266.263 824.191C268.565 825.521 270.723 825.945 272.581 825.583C274.439 828.088 276.593 830.156 278.894 831.484C282.163 833.371 285.142 833.435 287.385 832.013L292.158 829.257V829.256C294.742 827.664 296.368 824.123 296.368 819.136Z" fill="#009EFF"/>
<path d="M283.737 811.844C283.737 821.145 278.082 825.42 271.106 821.393C264.131 817.365 258.475 806.56 258.475 797.259C258.475 787.958 264.131 783.683 271.106 787.71C278.082 791.738 283.737 802.543 283.737 811.844Z" fill="#F7E041"/>
<path d="M264.899 786.302C265.7 795.037 270.999 804.489 277.422 808.197C279.679 809.5 281.795 809.929 283.629 809.605C282.828 800.87 277.529 791.418 271.106 787.71C268.85 786.407 266.733 785.978 264.899 786.302Z" fill="#E9662C"/>
<path d="M277.422 808.197C279.679 809.501 281.796 809.93 283.63 809.605C283.116 804.001 280.749 798.103 277.422 793.615C274.094 794.261 271.728 797.426 271.214 802.437C273.047 804.879 275.165 806.894 277.422 808.197Z" fill="#D36BC5"/>
<path d="M277.422 808.197C275.165 806.894 273.048 804.879 271.214 802.437C271.145 803.11 271.106 803.813 271.106 804.551C271.106 810.784 273.647 817.688 277.422 822.78C281.196 822.047 283.737 818.076 283.737 811.844C283.737 811.106 283.699 810.358 283.63 809.605C281.796 809.93 279.679 809.501 277.422 808.197Z" fill="#A4C639"/>
<path d="M285.209 801.448C285.209 810.749 279.554 815.024 272.578 810.997C265.602 806.969 259.947 796.164 259.947 786.863C259.947 777.562 265.602 773.287 272.578 777.314C279.554 781.342 285.209 792.147 285.209 801.448Z" fill="#FF3400"/>
<path d="M277.422 774.515C274.009 772.545 270.913 772.562 268.64 774.183L264.566 776.51L264.566 776.51C266.746 775.381 269.537 775.558 272.578 777.314C279.554 781.342 285.209 792.147 285.209 801.448C285.209 802.183 285.174 802.887 285.105 803.558L289.944 800.762C289.945 800.763 289.947 800.765 289.948 800.766C290.017 800.093 290.053 799.387 290.053 798.649C290.053 789.347 284.398 778.542 277.422 774.515Z" fill="#750601"/>
<path d="M278.894 814.643C278.894 823.944 273.239 828.219 266.263 824.192C259.287 820.164 253.632 809.359 253.632 800.058C253.632 790.757 259.287 786.482 266.263 790.509C273.239 794.537 278.894 805.342 278.894 814.643Z" fill="#FFCA00"/>
<path d="M260.056 789.101C260.857 797.836 266.156 807.288 272.578 810.996C274.835 812.299 276.952 812.729 278.785 812.405C277.984 803.67 272.685 794.217 266.263 790.509C264.006 789.206 261.889 788.777 260.056 789.101Z" fill="#FF6936"/>
<path d="M291.525 821.935C291.525 831.237 285.87 835.512 278.894 831.484C271.918 827.457 266.263 816.652 266.263 807.35C266.263 798.049 271.918 793.774 278.894 797.802C285.869 801.829 291.525 812.634 291.525 821.935Z" fill="#00BAFF"/>
<path d="M266.371 805.237C268.205 807.679 270.322 809.694 272.578 810.997C279.001 814.705 284.3 811.371 285.101 803.561C283.267 801.12 281.15 799.105 278.894 797.802C272.471 794.094 267.172 797.427 266.371 805.237Z" fill="#604EE8"/>
<path d="M272.578 810.997C274.835 812.3 276.952 812.729 278.786 812.405C278.272 806.8 275.906 800.903 272.578 796.414C269.251 797.06 266.884 800.226 266.37 805.236C268.204 807.678 270.321 809.694 272.578 810.997Z" fill="#EA6E8A"/>
<path d="M272.578 810.996C270.321 809.693 268.204 807.678 266.37 805.236C266.301 805.909 266.263 806.612 266.263 807.35C266.263 813.583 268.804 820.488 272.578 825.579C276.352 824.846 278.894 820.875 278.894 814.643C278.894 813.905 278.855 813.157 278.786 812.404C276.953 812.729 274.835 812.3 272.578 810.996Z" fill="#408E0D"/>
</g>
<g clip-path="url(#clip5_0_29)">
<path d="M496.828 899.957L465.628 882L463.172 883.466V923.985L494.375 942L496.828 940.535L496.828 899.957Z" fill="#BBD4DA"/>
<path d="M463.172 923.985V883.466L494.359 901.448L494.375 942L463.172 923.985Z" fill="#E5EFF2"/>
<path d="M463.172 883.466L465.628 882L496.828 899.957L494.359 901.447L463.172 883.466Z" fill="#D6E5E9"/>
<path d="M467.08 890.223L490.466 903.725V935.242L467.105 921.755L467.08 890.223Z" fill="#008BBF"/>
<path d="M467.096 911.126V890.233L490.466 903.725V924.618L467.096 911.126Z" fill="#33C8FF"/>
<path d="M467.096 911.126L474.286 906.875L479.344 915.261L484.315 914.41L490.466 924.618L467.096 911.126Z" fill="#408E0D"/>
<path d="M486.699 909.933C486.699 912.673 485.033 913.933 482.978 912.746C480.923 911.56 479.257 908.377 479.257 905.637C479.257 902.897 480.923 901.637 482.978 902.824C485.033 904.01 486.699 907.193 486.699 909.933Z" fill="#FFCA00"/>
</g>
<g clip-path="url(#clip6_0_29)">
<path d="M626.251 800.852L606.108 789.318C605.316 788.86 604.424 788.924 603.735 789.332L603.735 789.331L600.413 791.31L600.413 791.31C599.561 791.643 598.909 792.457 598.909 793.501V832.256C598.909 834.287 599.992 836.163 601.751 837.178L621.892 848.681C622.617 849.1 623.424 849.079 624.084 848.761L624.094 848.783L627.901 846.542L627.901 846.541C628.594 846.147 629.091 845.409 629.091 844.498V805.773C629.091 803.743 628.008 801.867 626.251 800.852Z" fill="#9F9EAD"/>
<path d="M598.909 832.256V793.501C598.909 791.691 600.869 790.559 602.436 791.465L622.578 802.999C624.336 804.014 625.419 805.89 625.419 807.92V846.645C625.419 848.455 623.46 849.586 621.892 848.681L601.751 837.178C599.992 836.163 598.909 834.287 598.909 832.256Z" fill="#E3E3E3"/>
<path d="M601.43 794.786L622.046 806.503V841.477L601.43 829.467V794.786Z" fill="#00BAFF"/>
<path d="M605.151 799.039L607.051 800.136C607.751 800.541 608.183 801.288 608.183 802.096V805.171C608.183 805.87 607.425 806.307 606.82 805.957L604.922 804.861C604.222 804.458 603.791 803.711 603.79 802.903L603.788 799.827C603.787 799.127 604.545 798.689 605.151 799.039Z" fill="#FF3400"/>
<path d="M610.903 802.3L612.804 803.397C613.504 803.801 613.935 804.549 613.935 805.357V808.431C613.935 809.131 613.178 809.568 612.573 809.218L610.675 808.122C609.975 807.718 609.544 806.972 609.543 806.164L609.541 803.087C609.54 802.388 610.297 801.95 610.903 802.3Z" fill="#604EE8"/>
<path d="M616.656 805.56L618.557 806.658C619.257 807.062 619.688 807.809 619.688 808.618V811.692C619.688 812.391 618.931 812.828 618.326 812.479L616.427 811.383C615.728 810.979 615.297 810.232 615.296 809.424L615.293 806.348C615.293 805.648 616.05 805.211 616.656 805.56Z" fill="#009EFF"/>
<path d="M605.151 807.431L607.051 808.529C607.751 808.933 608.183 809.68 608.183 810.489V813.563C608.183 814.262 607.425 814.699 606.82 814.35L604.922 813.254C604.222 812.85 603.791 812.103 603.79 811.295L603.788 808.219C603.787 807.519 604.545 807.082 605.151 807.431Z" fill="#408E0D"/>
<path d="M610.9 810.748L612.809 811.85C613.513 812.256 613.946 813.007 613.946 813.819V816.908C613.946 817.611 613.185 818.05 612.577 817.699L610.67 816.598C609.967 816.192 609.533 815.442 609.533 814.63L609.53 811.539C609.53 810.836 610.291 810.396 610.9 810.748Z" fill="#FFCA00"/>
<path d="M616.679 814.024L618.589 815.126C619.292 815.532 619.726 816.283 619.726 817.095V820.184C619.726 820.887 618.965 821.326 618.357 820.975L616.45 819.873C615.746 819.468 615.313 818.718 615.313 817.906L615.31 814.815C615.31 814.112 616.071 813.672 616.679 814.024Z" fill="#FF6936"/>
<path d="M605.119 815.903L607.029 817.006C607.733 817.412 608.166 818.163 608.166 818.975V822.064C608.166 822.767 607.405 823.206 606.797 822.854L604.89 821.753C604.187 821.347 603.753 820.598 603.753 819.786L603.75 816.695C603.75 815.992 604.511 815.552 605.119 815.903Z" fill="#009EFF"/>
<path d="M610.9 819.18L612.809 820.282C613.513 820.688 613.946 821.439 613.946 822.251V825.34C613.946 826.043 613.185 826.482 612.577 826.131L610.67 825.029C609.967 824.624 609.533 823.874 609.533 823.062L609.53 819.971C609.53 819.268 610.291 818.828 610.9 819.18Z" fill="#FF3400"/>
<path d="M616.679 822.456L618.589 823.558C619.292 823.964 619.726 824.715 619.726 825.527V828.616C619.726 829.319 618.965 829.758 618.357 829.407L616.45 828.306C615.746 827.9 615.313 827.15 615.313 826.338L615.31 823.247C615.31 822.544 616.071 822.104 616.679 822.456Z" fill="#604EE8"/>
<path d="M605.119 824.335L607.029 825.438C607.733 825.844 608.166 826.595 608.166 827.407V830.496C608.166 831.198 607.405 831.638 606.797 831.286L604.89 830.185C604.187 829.779 603.753 829.029 603.753 828.218L603.75 825.127C603.75 824.423 604.511 823.984 605.119 824.335Z" fill="#FFCA00"/>
<path d="M610.9 827.611L612.809 828.714C613.513 829.12 613.946 829.871 613.946 830.683V833.772C613.946 834.475 613.185 834.914 612.577 834.562L610.67 833.461C609.967 833.055 609.533 832.305 609.533 831.494L609.53 828.403C609.53 827.7 610.291 827.26 610.9 827.611Z" fill="#408E0D"/>
<path d="M616.679 830.888L618.589 831.99C619.292 832.396 619.726 833.147 619.726 833.959V837.048C619.726 837.751 618.965 838.19 618.357 837.839L616.45 836.737C615.746 836.331 615.313 835.582 615.313 834.77L615.31 831.679C615.31 830.976 616.071 830.536 616.679 830.888Z" fill="#009EFF"/>
<path d="M612.768 839.948C612.768 841.233 611.986 841.825 611.022 841.268C610.057 840.711 609.276 839.217 609.276 837.931C609.276 836.645 610.057 836.054 611.022 836.611C611.986 837.168 612.768 838.662 612.768 839.948Z" fill="#D1D1D1"/>
<path opacity="0.1" d="M601.43 825.159L622.046 809.574V806.503L607.263 798.101L601.43 802.511V825.159Z" fill="white"/>
<path opacity="0.1" d="M622.046 833.706V818.027L604.527 831.271L616.24 838.095L622.046 833.706Z" fill="white"/>
</g>
<g clip-path="url(#clip7_0_29)">
<path d="M594.01 595L581.06 602.477V609.965L607.101 625L632.94 610.082V602.477L620.141 595.029L594.01 595Z" fill="#8475FF"/>
<path d="M607.101 565L632.94 580.035V587.64L607.101 602.558L581.06 587.523V580.035L607.101 565Z" fill="#FF9134"/>
<path d="M607.101 565L581.06 580.035L607.101 595.069L632.94 580.035L607.101 565Z" fill="#FF6936"/>
<path d="M607.101 617.511V625L632.94 610.082V602.477L607.101 617.511Z" fill="#30469A"/>
<path d="M607.101 602.558L594.01 595L581.06 602.477L607.101 617.511L632.94 602.477L620.141 595.029L607.101 602.558Z" fill="#604EE8"/>
<path d="M607.101 595.07V602.558L632.94 587.64V580.035L607.101 595.07Z" fill="#FF4404"/>
<path d="M581.06 580.035L607.101 595.07V602.558L581.06 587.523V580.035Z" fill="#FF9134"/>
</g>
<g clip-path="url(#clip8_0_29)">
<path d="M133.773 323.996L102.505 306L100.227 307.34V347.946L131.497 366L133.773 364.661L133.773 323.996Z" fill="#BBD4DA"/>
<path d="M100.227 347.946V307.34L131.482 325.36L131.497 366L100.227 347.946Z" fill="#E5EFF2"/>
<path d="M100.227 307.34L102.505 306L133.773 323.996L131.482 325.36L100.227 307.34Z" fill="#D6E5E9"/>
<path d="M102.294 324.516L114.012 331.282V347.153L102.306 340.395L102.294 324.516Z" fill="#BBD4DA"/>
<path d="M131.497 336.67L100.227 318.65V307.34L131.497 325.36V336.67Z" fill="#604EE8"/>
<path d="M126.643 329.826L105.081 317.046V314.184L126.643 326.964V329.826Z" fill="white"/>
<path d="M127.386 341.008L115.862 334.391V332.331L127.386 338.948V341.008Z" fill="#969698"/>
<path d="M127.386 345.515L115.862 338.898V336.838L127.386 343.455V345.515Z" fill="#969698"/>
<path d="M127.386 350.043L115.862 343.426V341.366L127.386 347.983V350.043Z" fill="#969698"/>
<path d="M127.386 354.55L115.862 347.933V345.873L127.386 352.49V354.55Z" fill="#969698"/>
<path d="M127.386 359.192L102.294 344.707V342.647L127.386 357.132V359.192Z" fill="#969698"/>
</g>
<defs>
<filter id="filter0_d_0_29" x="432.146" y="845.944" width="100.607" height="123.207" filterUnits="userSpaceOnUse" color-interpolation-filters="sRGB">
<feFlood flood-opacity="0" result="BackgroundImageFix"/>
<feColorMatrix in="SourceAlpha" type="matrix" values="0 0 0 0 0 0 0 0 0 0 0 0 0 0 0 0 0 0 127 0" result="hardAlpha"/>
<feOffset dx="5" dy="-5"/>
<feComposite in2="hardAlpha" operator="out"/>
<feColorMatrix type="matrix" values="0 0 0 0 0.15 0 0 0 0 0.15 0 0 0 0 0.15 0 0 0 1 0"/>
<feBlend mode="normal" in2="BackgroundImageFix" result="effect1_dropShadow_0_29"/>
<feBlend mode="normal" in="SourceGraphic" in2="effect1_dropShadow_0_29" result="shape"/>
</filter>
<filter id="filter1_d_0_29" x="431.22" y="844.792" width="102.459" height="125.51" filterUnits="userSpaceOnUse" color-interpolation-filters="sRGB">
<feFlood flood-opacity="0" result="BackgroundImageFix"/>
<feColorMatrix in="SourceAlpha" type="matrix" values="0 0 0 0 0 0 0 0 0 0 0 0 0 0 0 0 0 0 127 0" result="hardAlpha"/>
<feOffset dx="5" dy="-5"/>
<feComposite in2="hardAlpha" operator="out"/>
<feColorMatrix type="matrix" values="0 0 0 0 0.15 0 0 0 0 0.15 0 0 0 0 0.15 0 0 0 1 0"/>
<feBlend mode="normal" in2="BackgroundImageFix" result="effect1_dropShadow_0_29"/>
<feBlend mode="normal" in="SourceGraphic" in2="effect1_dropShadow_0_29" result="shape"/>
</filter>
<filter id="filter2_d_0_29" x="228.951" y="739.186" width="100.607" height="123.207" filterUnits="userSpaceOnUse" color-interpolation-filters="sRGB">
<feFlood flood-opacity="0" result="BackgroundImageFix"/>
<feColorMatrix in="SourceAlpha" type="matrix" values="0 0 0 0 0 0 0 0 0 0 0 0 0 0 0 0 0 0 127 0" result="hardAlpha"/>
<feOffset dx="5" dy="-5"/>
<feComposite in2="hardAlpha" operator="out"/>
<feColorMatrix type="matrix" values="0 0 0 0 0.15 0 0 0 0 0.15 0 0 0 0 0.15 0 0 0 1 0"/>
<feBlend mode="normal" in2="BackgroundImageFix" result="effect1_dropShadow_0_29"/>
<feBlend mode="normal" in="SourceGraphic" in2="effect1_dropShadow_0_29" result="shape"/>
</filter>
<filter id="filter3_d_0_29" x="228.025" y="738.034" width="102.459" height="125.51" filterUnits="userSpaceOnUse" color-interpolation-filters="sRGB">
<feFlood flood-opacity="0" result="BackgroundImageFix"/>
<feColorMatrix in="SourceAlpha" type="matrix" values="0 0 0 0 0 0 0 0 0 0 0 0 0 0 0 0 0 0 127 0" result="hardAlpha"/>
<feOffset dx="5" dy="-5"/>
<feComposite in2="hardAlpha" operator="out"/>
<feColorMatrix type="matrix" values="0 0 0 0 0.15 0 0 0 0 0.15 0 0 0 0 0.15 0 0 0 1 0"/>
<feBlend mode="normal" in2="BackgroundImageFix" result="effect1_dropShadow_0_29"/>
<feBlend mode="normal" in="SourceGraphic" in2="effect1_dropShadow_0_29" result="shape"/>
</filter>
<filter id="filter4_d_0_29" x="78.6304" y="502.875" width="100.607" height="123.207" filterUnits="userSpaceOnUse" color-interpolation-filters="sRGB">
<feFlood flood-opacity="0" result="BackgroundImageFix"/>
<feColorMatrix in="SourceAlpha" type="matrix" values="0 0 0 0 0 0 0 0 0 0 0 0 0 0 0 0 0 0 127 0" result="hardAlpha"/>
<feOffset dx="5" dy="-5"/>
<feComposite in2="hardAlpha" operator="out"/>
<feColorMatrix type="matrix" values="0 0 0 0 0.15 0 0 0 0 0.15 0 0 0 0 0.15 0 0 0 1 0"/>
<feBlend mode="normal" in2="BackgroundImageFix" result="effect1_dropShadow_0_29"/>
<feBlend mode="normal" in="SourceGraphic" in2="effect1_dropShadow_0_29" result="shape"/>
</filter>
<filter id="filter5_d_0_29" x="77.7043" y="501.724" width="102.459" height="125.51" filterUnits="userSpaceOnUse" color-interpolation-filters="sRGB">
<feFlood flood-opacity="0" result="BackgroundImageFix"/>
<feColorMatrix in="SourceAlpha" type="matrix" values="0 0 0 0 0 0 0 0 0 0 0 0 0 0 0 0 0 0 127 0" result="hardAlpha"/>
<feOffset dx="5" dy="-5"/>
<feComposite in2="hardAlpha" operator="out"/>
<feColorMatrix type="matrix" values="0 0 0 0 0.15 0 0 0 0 0.15 0 0 0 0 0.15 0 0 0 1 0"/>
<feBlend mode="normal" in2="BackgroundImageFix" result="effect1_dropShadow_0_29"/>
<feBlend mode="normal" in="SourceGraphic" in2="effect1_dropShadow_0_29" result="shape"/>
</filter>
<filter id="filter6_d_0_29" x="69.3257" y="274.88" width="100.607" height="123.207" filterUnits="userSpaceOnUse" color-interpolation-filters="sRGB">
<feFlood flood-opacity="0" result="BackgroundImageFix"/>
<feColorMatrix in="SourceAlpha" type="matrix" values="0 0 0 0 0 0 0 0 0 0 0 0 0 0 0 0 0 0 127 0" result="hardAlpha"/>
<feOffset dx="5" dy="-5"/>
<feComposite in2="hardAlpha" operator="out"/>
<feColorMatrix type="matrix" values="0 0 0 0 0.15 0 0 0 0 0.15 0 0 0 0 0.15 0 0 0 1 0"/>
<feBlend mode="normal" in2="BackgroundImageFix" result="effect1_dropShadow_0_29"/>
<feBlend mode="normal" in="SourceGraphic" in2="effect1_dropShadow_0_29" result="shape"/>
</filter>
<filter id="filter7_d_0_29" x="68.3997" y="273.729" width="102.459" height="125.51" filterUnits="userSpaceOnUse" color-interpolation-filters="sRGB">
<feFlood flood-opacity="0" result="BackgroundImageFix"/>
<feColorMatrix in="SourceAlpha" type="matrix" values="0 0 0 0 0 0 0 0 0 0 0 0 0 0 0 0 0 0 127 0" result="hardAlpha"/>
<feOffset dx="5" dy="-5"/>
<feComposite in2="hardAlpha" operator="out"/>
<feColorMatrix type="matrix" values="0 0 0 0 0.15 0 0 0 0 0.15 0 0 0 0 0.15 0 0 0 1 0"/>
<feBlend mode="normal" in2="BackgroundImageFix" result="effect1_dropShadow_0_29"/>
<feBlend mode="normal" in="SourceGraphic" in2="effect1_dropShadow_0_29" result="shape"/>
</filter>
<filter id="filter8_d_0_29" x="410.295" y="296.078" width="100.606" height="123.211" filterUnits="userSpaceOnUse" color-interpolation-filters="sRGB">
<feFlood flood-opacity="0" result="BackgroundImageFix"/>
<feColorMatrix in="SourceAlpha" type="matrix" values="0 0 0 0 0 0 0 0 0 0 0 0 0 0 0 0 0 0 127 0" result="hardAlpha"/>
<feOffset dx="5" dy="-5"/>
<feComposite in2="hardAlpha" operator="out"/>
<feColorMatrix type="matrix" values="0 0 0 0 0.15 0 0 0 0 0.15 0 0 0 0 0.15 0 0 0 1 0"/>
<feBlend mode="normal" in2="BackgroundImageFix" result="effect1_dropShadow_0_29"/>
<feBlend mode="normal" in="SourceGraphic" in2="effect1_dropShadow_0_29" result="shape"/>
</filter>
<filter id="filter9_d_0_29" x="409.366" y="294.928" width="102.465" height="125.51" filterUnits="userSpaceOnUse" color-interpolation-filters="sRGB">
<feFlood flood-opacity="0" result="BackgroundImageFix"/>
<feColorMatrix in="SourceAlpha" type="matrix" values="0 0 0 0 0 0 0 0 0 0 0 0 0 0 0 0 0 0 127 0" result="hardAlpha"/>
<feOffset dx="5" dy="-5"/>
<feComposite in2="hardAlpha" operator="out"/>
<feColorMatrix type="matrix" values="0 0 0 0 0.15 0 0 0 0 0.15 0 0 0 0 0.15 0 0 0 1 0"/>
<feBlend mode="normal" in2="BackgroundImageFix" result="effect1_dropShadow_0_29"/>
<feBlend mode="normal" in="SourceGraphic" in2="effect1_dropShadow_0_29" result="shape"/>
</filter>
<filter id="filter10_d_0_29" x="559.877" y="530.031" width="100.887" height="123.527" filterUnits="userSpaceOnUse" color-interpolation-filters="sRGB">
<feFlood flood-opacity="0" result="BackgroundImageFix"/>
<feColorMatrix in="SourceAlpha" type="matrix" values="0 0 0 0 0 0 0 0 0 0 0 0 0 0 0 0 0 0 127 0" result="hardAlpha"/>
<feOffset dx="5" dy="-5"/>
<feComposite in2="hardAlpha" operator="out"/>
<feColorMatrix type="matrix" values="0 0 0 0 0.15 0 0 0 0 0.15 0 0 0 0 0.15 0 0 0 1 0"/>
<feBlend mode="normal" in2="BackgroundImageFix" result="effect1_dropShadow_0_29"/>
<feBlend mode="normal" in="SourceGraphic" in2="effect1_dropShadow_0_29" result="shape"/>
</filter>
<filter id="filter11_d_0_29" x="558.948" y="528.877" width="102.745" height="125.834" filterUnits="userSpaceOnUse" color-interpolation-filters="sRGB">
<feFlood flood-opacity="0" result="BackgroundImageFix"/>
<feColorMatrix in="SourceAlpha" type="matrix" values="0 0 0 0 0 0 0 0 0 0 0 0 0 0 0 0 0 0 127 0" result="hardAlpha"/>
<feOffset dx="5" dy="-5"/>
<feComposite in2="hardAlpha" operator="out"/>
<feColorMatrix type="matrix" values="0 0 0 0 0.15 0 0 0 0 0.15 0 0 0 0 0.15 0 0 0 1 0"/>
<feBlend mode="normal" in2="BackgroundImageFix" result="effect1_dropShadow_0_29"/>
<feBlend mode="normal" in="SourceGraphic" in2="effect1_dropShadow_0_29" result="shape"/>
</filter>
<filter id="filter12_d_0_29" x="569.519" y="760.721" width="100.622" height="123.184" filterUnits="userSpaceOnUse" color-interpolation-filters="sRGB">
<feFlood flood-opacity="0" result="BackgroundImageFix"/>
<feColorMatrix in="SourceAlpha" type="matrix" values="0 0 0 0 0 0 0 0 0 0 0 0 0 0 0 0 0 0 127 0" result="hardAlpha"/>
<feOffset dx="5" dy="-5"/>
<feComposite in2="hardAlpha" operator="out"/>
<feColorMatrix type="matrix" values="0 0 0 0 0.15 0 0 0 0 0.15 0 0 0 0 0.15 0 0 0 1 0"/>
<feBlend mode="normal" in2="BackgroundImageFix" result="effect1_dropShadow_0_29"/>
<feBlend mode="normal" in="SourceGraphic" in2="effect1_dropShadow_0_29" result="shape"/>
</filter>
<filter id="filter13_d_0_29" x="568.592" y="759.571" width="102.476" height="125.483" filterUnits="userSpaceOnUse" color-interpolation-filters="sRGB">
<feFlood flood-opacity="0" result="BackgroundImageFix"/>
<feColorMatrix in="SourceAlpha" type="matrix" values="0 0 0 0 0 0 0 0 0 0 0 0 0 0 0 0 0 0 127 0" result="hardAlpha"/>
<feOffset dx="5" dy="-5"/>
<feComposite in2="hardAlpha" operator="out"/>
<feColorMatrix type="matrix" values="0 0 0 0 0.15 0 0 0 0 0.15 0 0 0 0 0.15 0 0 0 1 0"/>
<feBlend mode="normal" in2="BackgroundImageFix" result="effect1_dropShadow_0_29"/>
<feBlend mode="normal" in="SourceGraphic" in2="effect1_dropShadow_0_29" result="shape"/>
</filter>
<filter id="filter14_d_0_29" x="206.71" y="190.064" width="101.606" height="122.211" filterUnits="userSpaceOnUse" color-interpolation-filters="sRGB">
<feFlood flood-opacity="0" result="BackgroundImageFix"/>
<feColorMatrix in="SourceAlpha" type="matrix" values="0 0 0 0 0 0 0 0 0 0 0 0 0 0 0 0 0 0 127 0" result="hardAlpha"/>
<feOffset dx="6" dy="-4"/>
<feComposite in2="hardAlpha" operator="out"/>
<feColorMatrix type="matrix" values="0 0 0 0 0.15 0 0 0 0 0.15 0 0 0 0 0.15 0 0 0 1 0"/>
<feBlend mode="normal" in2="BackgroundImageFix" result="effect1_dropShadow_0_29"/>
<feBlend mode="normal" in="SourceGraphic" in2="effect1_dropShadow_0_29" result="shape"/>
</filter>
<filter id="filter15_d_0_29" x="205.78" y="188.915" width="103.465" height="124.51" filterUnits="userSpaceOnUse" color-interpolation-filters="sRGB">
<feFlood flood-opacity="0" result="BackgroundImageFix"/>
<feColorMatrix in="SourceAlpha" type="matrix" values="0 0 0 0 0 0 0 0 0 0 0 0 0 0 0 0 0 0 127 0" result="hardAlpha"/>
<feOffset dx="6" dy="-4"/>
<feComposite in2="hardAlpha" operator="out"/>
<feColorMatrix type="matrix" values="0 0 0 0 0.15 0 0 0 0 0.15 0 0 0 0 0.15 0 0 0 1 0"/>
<feBlend mode="normal" in2="BackgroundImageFix" result="effect1_dropShadow_0_29"/>
<feBlend mode="normal" in="SourceGraphic" in2="effect1_dropShadow_0_29" result="shape"/>
</filter>
<filter id="filter16_d_0_29" x="203.941" y="366.577" width="341.628" height="420.435" filterUnits="userSpaceOnUse" color-interpolation-filters="sRGB">
<feFlood flood-opacity="0" result="BackgroundImageFix"/>
<feColorMatrix in="SourceAlpha" type="matrix" values="0 0 0 0 0 0 0 0 0 0 0 0 0 0 0 0 0 0 127 0" result="hardAlpha"/>
<feOffset dx="15" dy="-10"/>
<feComposite in2="hardAlpha" operator="out"/>
<feColorMatrix type="matrix" values="0 0 0 0 0.15 0 0 0 0 0.15 0 0 0 0 0.15 0 0 0 1 0"/>
<feBlend mode="normal" in2="BackgroundImageFix" result="effect1_dropShadow_0_29"/>
<feBlend mode="normal" in="SourceGraphic" in2="effect1_dropShadow_0_29" result="shape"/>
</filter>
<clipPath id="clip0_0_29">
<rect width="793.782" height="787.819" fill="white" transform="matrix(0.885249 0.465117 0.0398211 0.999207 0.742188 0.0527344)"/>
</clipPath>
<clipPath id="clip1_0_29">
<rect width="63" height="62" fill="white" transform="matrix(-1 -9.80199e-09 -2.56835e-09 1 158 535)"/>
</clipPath>
<clipPath id="clip2_0_29">
<rect width="60" height="60" fill="white" transform="translate(224 222)"/>
</clipPath>
<clipPath id="clip3_0_29">
<rect width="60" height="60" fill="white" transform="translate(427 331)"/>
</clipPath>
<clipPath id="clip4_0_29">
<rect width="60" height="60" fill="white" transform="matrix(-1 0 0 1 305 773)"/>
</clipPath>
<clipPath id="clip5_0_29">
<rect width="60" height="60" fill="white" transform="matrix(-1 0 0 1 510 882)"/>
</clipPath>
<clipPath id="clip6_0_29">
<rect width="60" height="60" fill="white" transform="matrix(-1 0 0 1 644 789)"/>
</clipPath>
<clipPath id="clip7_0_29">
<rect width="60" height="60" fill="white" transform="matrix(-1 0 0 1 637 565)"/>
</clipPath>
<clipPath id="clip8_0_29">
<rect width="60" height="60" fill="white" transform="matrix(-1 0 0 1 147 306)"/>
</clipPath>
</defs>
</svg>
