<svg width="641" height="787" viewBox="0 0 641 787" fill="none" xmlns="http://www.w3.org/2000/svg">
<path d="M592.902 533.3C599.402 697.7 485.802 768.4 339.102 691.3" stroke="#4D4D4D" stroke-width="2.37" stroke-miterlimit="10"/>
<path d="M278.602 79.5C290.702 84 303.002 89.5 315.402 96C462.102 173.1 586.302 368.8 592.902 533.1" stroke="#4D4D4D" stroke-width="1.39" stroke-miterlimit="10" stroke-linecap="round"/>
<path d="M61.5983 254.1C55.5983 103.7 150.198 31.7 278.598 79.5" stroke="#4D4D4D" stroke-width="2.37" stroke-miterlimit="10"/>
<path d="M339.102 691.3C192.402 614.2 68.2016 418.5 61.6016 254.2" stroke="#262626" stroke-width="0.7" stroke-miterlimit="10"/>
<path d="M442.099 775.5C468.499 789.4 488.899 776.6 487.699 747.1C486.499 717.6 464.199 682.4 437.799 668.5C411.399 654.6 390.999 667.4 392.199 696.9C393.399 726.5 415.699 761.7 442.099 775.5Z" fill="white"/>
<path d="M442.099 775.5C468.499 789.4 488.899 776.6 487.699 747.1C486.499 717.6 464.199 682.4 437.799 668.5C411.399 654.6 390.999 667.4 392.199 696.9C393.399 726.5 415.699 761.7 442.099 775.5Z" stroke="#4D4D4D" stroke-width="2.09" stroke-miterlimit="10"/>
<path d="M238.903 668.8C265.303 682.7 285.703 669.9 284.503 640.4C283.303 610.9 261.003 575.7 234.603 561.8C208.203 547.9 187.803 560.7 189.003 590.2C190.203 619.7 212.503 654.9 238.903 668.8Z" fill="white"/>
<path d="M238.903 668.8C265.303 682.7 285.703 669.9 284.503 640.4C283.303 610.9 261.003 575.7 234.603 561.8C208.203 547.9 187.803 560.7 189.003 590.2C190.203 619.7 212.503 654.9 238.903 668.8Z" stroke="#4D4D4D" stroke-width="2.09" stroke-miterlimit="10"/>
<path d="M88.5988 432.5C114.999 446.4 135.399 433.6 134.199 404.1C132.999 374.6 110.699 339.4 84.2988 325.5C57.8988 311.6 37.4988 324.4 38.6988 353.9C39.8988 383.4 62.1988 418.6 88.5988 432.5Z" fill="white"/>
<path d="M88.5988 432.5C114.999 446.4 135.399 433.6 134.199 404.1C132.999 374.6 110.699 339.4 84.2988 325.5C57.8988 311.6 37.4988 324.4 38.6988 353.9C39.8988 383.4 62.1988 418.6 88.5988 432.5Z" stroke="#4D4D4D" stroke-width="2.09" stroke-miterlimit="10"/>
<path d="M79.3019 204.5C105.702 218.4 126.102 205.6 124.902 176.1C123.702 146.6 101.402 111.4 75.0019 97.5C48.6019 83.6 28.2019 96.4 29.4019 125.9C30.6019 155.4 52.9019 190.6 79.3019 204.5Z" fill="white"/>
<path d="M79.3019 204.5C105.702 218.4 126.102 205.6 124.902 176.1C123.702 146.6 101.402 111.4 75.0019 97.5C48.6019 83.6 28.2019 96.4 29.4019 125.9C30.6019 155.4 52.9019 190.6 79.3019 204.5Z" stroke="#4D4D4D" stroke-width="2.09" stroke-miterlimit="10"/>
<path d="M453.401 227.8C471.201 216.7 469.901 182.8 450.401 152.1C430.901 121.4 400.701 105.5 382.901 116.6C365.101 127.7 366.401 161.6 385.901 192.3C405.301 223 435.601 238.8 453.401 227.8Z" fill="white"/>
<path d="M453.401 227.8C471.201 216.7 469.901 182.8 450.401 152.1C430.901 121.4 400.701 105.5 382.901 116.6C365.101 127.7 366.401 161.6 385.901 192.3C405.301 223 435.601 238.8 453.401 227.8Z" stroke="#4D4D4D" stroke-width="2.09" stroke-miterlimit="10"/>
<path d="M615.4 439.7C618.5 412.7 599.6 375.8 573.3 357.4C547 339 523.2 345.9 520.2 372.9C517.1 399.9 536 436.8 562.3 455.2C588.6 473.7 612.4 466.7 615.4 439.7Z" fill="white"/>
<path d="M615.4 439.7C618.5 412.7 599.6 375.8 573.3 357.4C547 339 523.2 345.9 520.2 372.9C517.1 399.9 536 436.8 562.3 455.2C588.6 473.7 612.4 466.7 615.4 439.7Z" stroke="#4D4D4D" stroke-width="2.0959" stroke-miterlimit="10"/>
<path d="M624.299 673.4C629.099 647.8 611.999 610.6 585.999 590.4C559.999 570.2 535.099 574.6 530.299 600.3C525.499 625.9 542.599 663.1 568.599 683.3C594.499 703.4 619.499 699 624.299 673.4Z" fill="white"/>
<path d="M624.299 673.4C629.099 647.8 611.999 610.6 585.999 590.4C559.999 570.2 535.099 574.6 530.299 600.3C525.499 625.9 542.599 663.1 568.599 683.3C594.499 703.4 619.499 699 624.299 673.4Z" stroke="#4D4D4D" stroke-width="2.09" stroke-miterlimit="10"/>
<path d="M249.8 120.7C267.6 109.6 266.3 75.7 246.8 45C227.3 14.3 197.1 -1.60001 179.3 9.49999C161.5 20.6 162.8 54.5 182.3 85.2C201.8 115.9 232 131.8 249.8 120.7Z" fill="white"/>
<path d="M249.8 120.7C267.6 109.6 266.3 75.7 246.8 45C227.3 14.3 197.1 -1.60001 179.3 9.49999C161.5 20.6 162.8 54.5 182.3 85.2C201.8 115.9 232 131.8 249.8 120.7Z" stroke="#4D4D4D" stroke-width="2.09" stroke-miterlimit="10"/>
<path d="M483.797 392.7L490.597 562.7C490.797 568.3 489.697 573.1 487.397 576.7C485.097 580.2 481.697 582.4 477.397 582.9L349.297 598.9C345.097 599.4 340.197 598.3 335.197 595.7C330.197 593.1 325.197 589 320.797 584L260.797 515.5L185.897 429.9C181.497 424.8 177.697 418.9 174.997 412.8C172.297 406.6 170.797 400.5 170.597 394.9L163.797 224.9C163.597 219.3 164.697 214.5 166.997 211C169.297 207.5 172.697 205.3 176.897 204.8L304.997 188.8C309.197 188.3 314.097 189.4 319.097 192C324.097 194.6 329.097 198.7 333.497 203.7L440.597 326.1L468.297 357.8C472.697 362.8 476.497 368.7 479.197 374.9C481.997 380.9 483.497 387.1 483.797 392.7Z" fill="#FE90C7"/>
<path d="M440.697 325.9L260.897 515.3L185.997 429.7C181.597 424.6 177.797 418.7 175.097 412.6C172.397 406.4 170.897 400.3 170.697 394.7L169.297 359.7L325.097 195.6C328.097 197.8 330.897 200.5 333.597 203.5L440.697 325.9Z" fill="#FE6BB4"/>
<path d="M472.997 553L466.597 391.3C466.497 388.3 465.697 385 464.197 381.7C462.697 378.4 460.797 375.2 458.397 372.5L330.097 226C327.697 223.3 325.097 221.1 322.397 219.7C319.697 218.3 317.097 217.7 314.897 218L193.097 233.2C190.797 233.5 188.997 234.6 187.797 236.5C186.597 238.4 185.997 241 186.097 244L192.497 405.7C192.597 408.7 193.397 412 194.897 415.3C196.297 418.6 198.297 421.8 200.697 424.5L328.997 571C331.397 573.7 333.997 575.9 336.697 577.3C339.397 578.7 341.997 579.3 344.197 579L465.997 563.8C468.297 563.5 470.097 562.4 471.297 560.5C472.597 558.6 473.097 556 472.997 553Z" fill="#E06AE9"/>
<path d="M464.598 386.9L470.998 548.6C471.098 551.6 470.498 554.2 469.298 556.1C468.098 558 466.198 559.1 463.998 559.4L342.198 574.6C339.898 574.9 337.298 574.3 334.698 572.9C331.998 571.5 329.398 569.3 326.998 566.6L254.198 483.4L198.798 420C196.398 417.3 194.398 414.1 192.998 410.8C191.598 407.5 190.698 404.2 190.598 401.2L184.198 239.5C184.098 236.5 184.698 233.9 185.898 232C187.098 230.1 188.998 229 191.198 228.7L272.098 218.6L312.998 213.5C315.298 213.2 317.898 213.8 320.498 215.2C323.198 216.6 325.798 218.8 328.198 221.5L411.698 316.9L456.398 368C458.798 370.7 460.798 373.9 462.198 377.2C463.598 380.5 464.498 383.9 464.598 386.9Z" fill="#7A18D5"/>
<path d="M241 268.7L406.1 355.4L405.1 376.9L244.3 292L241 268.7Z" fill="white"/>
<path d="M276.402 404.6L332.202 480.7L334.802 495.6L333.202 507.6L261.102 409.2L276.402 404.6Z" fill="white"/>
<path d="M275 392.7L276.5 405L270.7 410L261.2 409.3L255 366.3L275 392.7Z" fill="white"/>
<path d="M382.903 461.2L332.203 480.7L331.703 493.5L333.303 507.7L399.403 481.4L394.403 458.9L382.903 461.2Z" fill="white"/>
<path d="M300.797 395.2L368.197 430.6L362.297 446.7L296.797 412.3L300.797 395.2Z" fill="white"/>
<path d="M244.203 291.4L263.903 300.2L269.603 353.7L253.003 353.8L244.203 291.4Z" fill="white"/>
<path d="M253.102 353.8L269.502 353.1L302.202 396.1L296.802 412.2L253.102 353.8Z" fill="white"/>
<path d="M253.102 353.8L269.502 353.1L302.202 396.1L296.802 412.2L253.102 353.8Z" fill="white"/>
<path d="M388.003 365.6L405.203 374.8L402.703 425.9L386.203 402.7L388.003 365.6Z" fill="white"/>
<path d="M293.703 341.7L361.603 377.4L362.303 397.1L294.503 361.4L293.703 341.7Z" fill="white"/>
<path d="M361.603 377.4L401.703 433.5L387.303 437.4L350.703 387.2L361.603 377.4Z" fill="white"/>
<path d="M401.7 433.5L399.5 481.4L383 461.2L383.9 423.1L401.7 433.5Z" fill="white"/>
<path d="M272.398 350.6L293.598 341.8L305.998 360.9L286.698 368.9L272.398 350.6Z" fill="white"/>
<path d="M356.102 424.1L368.502 419L380.002 436.4L362.302 446.6L356.102 424.1Z" fill="white"/>
<path d="M411.3 316.7L253.8 483L198.4 419.7C196 417 194 413.8 192.6 410.5C191.2 407.2 190.3 403.9 190.2 400.9L186.5 308.3L271.7 218.4L312.6 213.3C314.9 213 317.5 213.6 320.1 215C322.8 216.4 325.4 218.6 327.8 221.3L411.3 316.7Z" fill="#7E44FE" fill-opacity="0.1"/>
<path d="M392.598 304.2C392.398 305.9 391.698 307.2 390.598 307.9C389.498 308.6 387.998 308.7 386.398 308.2C387.998 309.4 389.498 311.1 390.798 313C391.998 314.9 392.798 317 393.198 319C393.398 317.3 394.098 316.1 395.198 315.3C396.298 314.6 397.698 314.5 399.298 314.9C397.698 313.7 396.198 312 394.998 310.1C393.798 308.3 392.998 306.2 392.598 304.2Z" fill="#E3E4E9"/>
<path d="M377.103 265.3C376.703 268.1 375.603 270.3 373.703 271.5C371.803 272.7 369.403 272.9 366.703 272.1C369.503 274.2 372.003 277 374.103 280.3C376.103 283.6 377.503 287.1 378.103 290.4C378.503 287.6 379.603 285.4 381.503 284.2C383.403 283 385.803 282.8 388.503 283.6C385.703 281.5 383.203 278.7 381.103 275.4C379.103 272.2 377.703 268.6 377.103 265.3Z" fill="white"/>
<path d="M228.203 465.2C234.203 468.4 238.903 465.3 238.603 458.4C238.303 451.5 233.203 443.3 227.203 440.1C221.203 436.9 216.503 440 216.803 446.9C217.103 453.8 222.203 462 228.203 465.2Z" fill="white"/>
<path d="M110.996 443.1C113.096 444.2 114.796 443.2 114.696 440.8C114.596 438.4 112.796 435.6 110.696 434.5C108.596 433.4 106.896 434.4 106.996 436.8C107.096 439.1 108.896 441.9 110.996 443.1Z" fill="#4D4D4D"/>
<path d="M398.902 716C398.902 717 398.702 717.8 398.302 718.4C397.802 719 397.202 719.2 396.402 719.2C395.602 719.2 394.702 718.8 393.802 718.1C392.902 717.5 392.102 716.6 391.502 715.5C390.902 714.5 390.402 713.4 390.202 712.3C390.002 711.2 390.002 710.3 390.302 709.6C390.602 708.9 391.102 708.4 391.902 708.2C392.702 708 393.502 708.2 394.302 708.7C395.502 709.3 396.602 710.4 397.502 711.8C398.402 713.2 398.902 714.7 398.902 716Z" fill="#4D4D4D"/>
<path d="M587.997 470C587.997 470.9 587.797 471.6 587.397 472.1C586.997 472.6 586.397 472.8 585.697 472.8C584.997 472.8 584.197 472.4 583.497 471.9C582.697 471.3 581.997 470.6 581.497 469.7C580.897 468.8 580.497 467.8 580.297 466.9C580.097 466 580.197 465.1 580.397 464.5C580.597 463.9 581.097 463.4 581.797 463.3C582.397 463.2 583.197 463.3 583.897 463.7C584.397 464 584.897 464.3 585.397 464.8C585.897 465.3 586.297 465.8 586.697 466.4C587.097 467 587.396 467.6 587.596 468.3C587.896 468.8 587.997 469.4 587.997 470Z" fill="#4D4D4D"/>
<path d="M461.397 222.9C463.197 223.8 464.597 223 464.497 221C464.397 219 462.897 216.6 461.097 215.6C459.297 214.6 457.897 215.5 457.997 217.5C458.097 219.5 459.597 221.9 461.397 222.9Z" fill="#4D4D4D"/>
<path d="M510.801 284.1C510.801 284.9 510.601 285.6 510.301 286C509.901 286.5 509.401 286.7 508.701 286.6C508.001 286.6 507.301 286.2 506.601 285.7C505.901 285.2 505.201 284.4 504.701 283.6C504.201 282.8 503.801 281.8 503.601 281C503.401 280.1 503.501 279.3 503.701 278.7C503.901 278.1 504.401 277.7 505.001 277.6C505.601 277.5 506.301 277.6 507.001 278C507.501 278.3 508.001 278.6 508.401 279C508.901 279.4 509.301 280 509.601 280.5C510.001 281.1 510.201 281.7 510.401 282.2C510.601 283 510.801 283.6 510.801 284.1Z" fill="#4D4D4D"/>
<path d="M527.798 313.2C527.798 314 527.598 314.7 527.298 315.2C526.898 315.7 526.298 315.9 525.698 315.9C524.998 315.9 524.298 315.5 523.498 315C522.798 314.5 522.098 313.7 521.498 312.8C520.998 311.9 520.598 311 520.398 310.1C520.198 309.2 520.298 308.4 520.498 307.8C520.698 307.2 521.198 306.8 521.798 306.6C522.398 306.5 523.098 306.6 523.898 307C524.398 307.3 524.898 307.6 525.398 308.1C525.898 308.6 526.298 309.1 526.698 309.7C527.098 310.3 527.398 310.9 527.598 311.5C527.698 312 527.798 312.6 527.798 313.2Z" fill="#4D4D4D"/>
<path d="M134.298 86.7999C136.498 87.9999 138.198 86.8999 138.098 84.3999C137.998 81.8999 136.098 78.9999 133.898 77.7999C131.698 76.5999 129.998 77.6999 130.098 80.1999C130.198 82.5999 131.998 85.5999 134.298 86.7999Z" fill="#4D4D4D"/>
<path d="M70.5026 197.3C70.5026 198.5 70.3026 199.6 69.7026 200.3C69.1026 201 68.3026 201.4 67.3026 201.3C66.3026 201.2 65.2026 200.8 64.1026 200C63.0026 199.2 62.0026 198.1 61.2026 196.8C60.4026 195.5 59.8026 194.1 59.5026 192.8C59.2026 191.5 59.3026 190.3 59.7026 189.3C60.1026 188.4 60.8026 187.8 61.7026 187.6C62.6026 187.4 63.7026 187.6 64.8026 188.2C66.3026 189 67.7026 190.4 68.8026 192.1C69.7026 193.7 70.4026 195.6 70.5026 197.3Z" fill="#4D4D4D"/>
<path d="M65.5028 220.2C65.5028 221 65.4028 221.6 65.0028 222.1C64.6028 222.5 64.1028 222.8 63.5028 222.7C62.9028 222.7 62.2028 222.4 61.5028 221.9C60.8028 221.4 60.2028 220.7 59.7028 219.9C59.2028 219.1 58.8028 218.2 58.7028 217.4C58.5028 216.6 58.6028 215.8 58.8028 215.2C59.0028 214.6 59.5028 214.2 60.0028 214.1C60.6028 214 61.2028 214.1 61.9028 214.5C62.4028 214.7 62.8028 215.1 63.3028 215.5C63.7028 215.9 64.1028 216.4 64.5028 216.9C64.8028 217.4 65.1028 218 65.3028 218.6C65.5028 219.2 65.4028 219.6 65.5028 220.2Z" fill="#4D4D4D"/>
<path d="M317.098 100.2C318.698 101.1 319.998 100.3 319.898 98.4C319.798 96.6 318.398 94.4 316.798 93.5C315.198 92.6 313.898 93.3999 313.998 95.2999C314.098 97.1999 315.498 99.3 317.098 100.2Z" fill="#4D4D4D"/>
<path d="M300.8 88.9C300.8 89.4 300.7 89.8 300.5 90.1C300.3 90.4 299.9 90.5 299.5 90.5C299.1 90.5 298.6 90.3 298.2 89.9C297.7 89.6 297.3 89.1 297 88.6C296.7 88.1 296.4 87.5 296.3 86.9C296.2 86.4 296.2 85.9 296.4 85.5C296.6 85.1 296.8 84.9 297.2 84.8C297.6 84.7 298 84.8 298.5 85C298.8 85.2 299.1 85.4 299.4 85.7C299.7 86 299.9 86.3 300.2 86.7C300.5 87.1 300.6 87.4 300.7 87.8C300.8 88.2 300.8 88.6 300.8 88.9Z" fill="#4D4D4D"/>
<path d="M556.599 676C558.499 677 559.899 676.1 559.799 674C559.699 671.9 558.099 669.4 556.299 668.4C554.399 667.4 552.999 668.3 553.099 670.4C553.199 672.5 554.799 675 556.599 676Z" fill="#4D4D4D"/>
<path d="M546.598 687.4C547.998 688.1 549.099 687.5 548.999 685.9C548.899 684.4 547.799 682.5 546.399 681.8C544.999 681.1 543.899 681.7 543.999 683.3C543.999 684.8 545.198 686.7 546.598 687.4Z" fill="#4D4D4D"/>
<path d="M499.202 677.2L470.102 661.9L462.902 650.6L461.602 618L468.202 613.9L497.302 629.2L504.502 640.5L505.802 673.1L499.202 677.2Z" fill="#4D4D4D"/>
<path d="M471.998 612.4L470.398 611.6L470.598 616.8L472.198 617.6L471.998 612.4Z" fill="#B3B3B3"/>
<path d="M475.803 614.4L474.203 613.6L474.403 618.8L476.003 619.6L475.803 614.4Z" fill="#B3B3B3"/>
<path d="M479.6 616.4L478 615.6L478.2 620.8L479.8 621.6L479.6 616.4Z" fill="#B3B3B3"/>
<path d="M483.397 618.4L481.797 617.6L481.997 622.8L483.597 623.6L483.397 618.4Z" fill="#B3B3B3"/>
<path d="M487.202 620.4L485.602 619.6L485.802 624.8L487.402 625.6L487.202 620.4Z" fill="#B3B3B3"/>
<path d="M490.998 622.4L489.398 621.6L489.598 626.8L491.198 627.6L490.998 622.4Z" fill="#B3B3B3"/>
<path d="M494.702 624.3L493.102 623.5L493.302 628.7L494.902 629.5L494.702 624.3Z" fill="#B3B3B3"/>
<path d="M473.998 662.3L472.398 661.5L472.598 666.7L474.198 667.5L473.998 662.3Z" fill="#B3B3B3"/>
<path d="M477.803 664.3L476.203 663.5L476.403 668.7L478.003 669.5L477.803 664.3Z" fill="#B3B3B3"/>
<path d="M481.6 666.3L480 665.5L480.2 670.7L481.8 671.5L481.6 666.3Z" fill="#B3B3B3"/>
<path d="M485.397 668.2L483.797 667.4L483.997 672.6L485.597 673.4L485.397 668.2Z" fill="#B3B3B3"/>
<path d="M489.1 670.2L487.5 669.4L487.7 674.6L489.3 675.4L489.1 670.2Z" fill="#B3B3B3"/>
<path d="M492.897 672.2L491.297 671.4L491.497 676.6L493.097 677.4L492.897 672.2Z" fill="#B3B3B3"/>
<path d="M496.702 674.2L495.102 673.4L495.302 678.6L496.902 679.4L496.702 674.2Z" fill="#B3B3B3"/>
<path d="M507.8 646.6L507.7 644.9L503 642.4L503.1 644.1L507.8 646.6Z" fill="#B3B3B3"/>
<path d="M508.003 650.8L507.903 649.1L503.203 646.6L503.303 648.3L508.003 650.8Z" fill="#B3B3B3"/>
<path d="M508.198 655.1L508.098 653.4L503.398 650.9L503.498 652.6L508.198 655.1Z" fill="#B3B3B3"/>
<path d="M508.3 659.3L508.2 657.6L503.5 655.1L503.6 656.8L508.3 659.3Z" fill="#B3B3B3"/>
<path d="M508.503 663.6L508.403 661.9L503.703 659.4L503.803 661.1L508.503 663.6Z" fill="#B3B3B3"/>
<path d="M508.698 667.8L508.598 666.1L503.898 663.6L503.998 665.3L508.698 667.8Z" fill="#B3B3B3"/>
<path d="M508.8 672L508.7 670.3L504 667.8L504.1 669.5L508.8 672Z" fill="#B3B3B3"/>
<path d="M463.3 623.2L463.2 621.5L458.5 619L458.6 620.7L463.3 623.2Z" fill="#B3B3B3"/>
<path d="M463.503 627.5L463.403 625.8L458.703 623.3L458.803 625L463.503 627.5Z" fill="#B3B3B3"/>
<path d="M463.698 631.7L463.598 630L458.898 627.5L458.998 629.2L463.698 631.7Z" fill="#B3B3B3"/>
<path d="M463.8 635.9L463.7 634.2L459 631.7L459.1 633.4L463.8 635.9Z" fill="#B3B3B3"/>
<path d="M464.003 640.2L463.903 638.5L459.203 636L459.303 637.7L464.003 640.2Z" fill="#B3B3B3"/>
<path d="M464.097 644.4L463.997 642.7L459.297 640.2L459.397 641.9L464.097 644.4Z" fill="#B3B3B3"/>
<path d="M464.3 648.6L464.2 646.9L459.5 644.4L459.6 646.1L464.3 648.6Z" fill="#B3B3B3"/>
<path d="M502.703 674.9L521.203 704" stroke="#4D4D4D" stroke-width="1.39" stroke-miterlimit="10"/>
<path d="M446.797 586.9L465.297 616" stroke="#4D4D4D" stroke-width="1.39" stroke-miterlimit="10"/>
<path d="M523.8 705.7C523.8 706.3 523.7 706.9 523.4 707.2C523.1 707.6 522.7 707.8 522.2 707.7C521.7 707.7 521.1 707.4 520.6 707C520 706.6 519.5 706 519.1 705.4C518.7 704.7 518.4 704 518.3 703.4C518.2 702.7 518.2 702.1 518.4 701.7C518.6 701.2 518.9 700.9 519.4 700.9C519.9 700.8 520.4 700.9 521 701.2C521.7 701.6 522.4 702.3 523 703.1C523.5 704 523.8 704.9 523.8 705.7Z" fill="#4D4D4D"/>
<path d="M449.599 588.8C449.599 589.4 449.499 589.9 449.199 590.3C448.899 590.6 448.498 590.8 447.998 590.8C447.498 590.8 446.998 590.6 446.398 590.2C445.898 589.8 445.398 589.3 444.998 588.6C444.598 588 444.299 587.3 444.199 586.6C444.099 585.9 444.098 585.4 444.298 584.9C444.498 584.4 444.799 584.1 445.199 584C445.599 583.9 446.099 584 446.699 584.2C447.399 584.6 448.199 585.3 448.699 586.1C449.199 587 449.599 587.9 449.599 588.8Z" fill="#4D4D4D"/>
<path d="M211.003 170.1L152.103 139.1L148.703 133.7L148.203 121.6L151.303 119.6L210.203 150.6L213.603 156L214.103 168.1L211.003 170.1Z" fill="#E06AE9"/>
<path d="M168.997 130.4L170.297 131.1L170.097 126.3L168.797 125.6L168.997 130.4ZM165.097 128.4L166.397 129.1L166.197 124.3L164.897 123.6L165.097 128.4ZM176.697 134.5L177.997 135.2L177.797 130.4L176.497 129.7L176.697 134.5ZM172.897 132.5L174.197 133.2L173.997 128.4L172.697 127.7L172.897 132.5ZM161.197 126.4L162.497 127.1L162.297 122.2L160.997 121.5L161.197 126.4ZM153.497 122.3L154.797 123L154.597 118.2L153.297 117.5L153.497 122.3ZM157.397 124.3L158.697 125L158.497 120.1L157.197 119.4L157.397 124.3ZM180.597 136.5L181.897 137.2L181.697 132.4L180.397 131.7L180.597 136.5ZM203.797 148.7L205.097 149.4L204.897 144.6L203.597 143.9L203.797 148.7ZM199.897 146.7L201.197 147.4L200.997 142.6L199.697 141.9L199.897 146.7ZM207.497 145.9L207.697 150.7L208.997 151.4L208.797 146.6L207.497 145.9ZM184.397 138.6L185.597 139.2L185.397 134.4L184.097 133.7L184.397 138.6ZM188.297 140.6L189.597 141.3L189.397 136.4L188.097 135.7L188.297 140.6ZM192.197 142.6L193.497 143.3L193.297 138.5L191.997 137.8L192.197 142.6ZM196.097 144.7L197.397 145.4L197.197 140.6L195.897 139.9L196.097 144.7Z" fill="#E3E4E9"/>
<path d="M169.803 151.8L171.103 152.5L170.903 147.6L169.603 146.9L169.803 151.8ZM166.003 149.8L167.303 150.5L167.103 145.6L165.803 144.9L166.003 149.8ZM177.603 155.9L178.903 156.6L178.703 151.7L177.403 151L177.603 155.9ZM173.703 153.9L175.003 154.6L174.803 149.7L173.503 149L173.703 153.9ZM162.103 147.8L163.403 148.5L163.203 143.6L161.903 142.9L162.103 147.8ZM154.403 143.7L155.703 144.4L155.503 139.5L154.203 138.8L154.403 143.7ZM158.203 145.7L159.503 146.4L159.303 141.5L158.003 140.8L158.203 145.7ZM181.403 157.9L182.703 158.6L182.503 153.7L181.203 153L181.403 157.9ZM204.603 170.1L205.903 170.8L205.703 165.9L204.403 165.2L204.603 170.1ZM200.803 168.1L202.103 168.8L201.903 163.9L200.603 163.2L200.803 168.1ZM208.303 167.3L208.503 172.2L209.803 172.9L209.603 168L208.303 167.3ZM185.303 160L186.503 160.6L186.303 155.7L185.003 155L185.303 160ZM189.203 162L190.503 162.7L190.303 157.8L189.003 157.1L189.203 162ZM193.003 164L194.303 164.7L194.103 159.8L192.803 159.1L193.003 164ZM196.903 166.1L198.203 166.8L198.003 161.9L196.703 161.2L196.903 166.1Z" fill="#E3E4E9"/>
<path d="M425.1 291.4L416.1 286.7L413.5 282.6L412.5 256.6L414.9 255.1L423.9 259.8L426.5 263.9L427.5 289.9L425.1 291.4Z" fill="#E3E4E9"/>
<path d="M442.998 300.8L433.998 296.1L431.398 292L430.398 266L432.798 264.5L441.798 269.2L444.398 273.3L445.398 299.3L442.998 300.8Z" fill="#E06AE9"/>
<path d="M460.803 310.2L451.803 305.5L449.203 301.4L448.203 275.4L450.603 273.9L459.603 278.6L462.203 282.7L463.203 308.7L460.803 310.2Z" fill="#E3E4E9"/>
<path d="M147.9 295.9L124.5 283.6L122.5 280.6L121.5 254.4L123.3 253.3L146.8 265.6L148.7 268.6L149.7 294.8L147.9 295.9Z" fill="#B3B3B3"/>
<path d="M123.003 256.9L118.203 254.4V255.6L123.003 258.1V256.9Z" fill="#E3E4E9"/>
<path d="M123.198 262.2L118.398 259.7V260.9L123.198 263.4V262.2Z" fill="#E3E4E9"/>
<path d="M123.402 267.6L118.602 265.1L118.702 266.3L123.502 268.8L123.402 267.6Z" fill="#E3E4E9"/>
<path d="M123.597 272.9L118.797 270.4L118.897 271.6L123.697 274.1L123.597 272.9Z" fill="#E3E4E9"/>
<path d="M123.8 278.3L119 275.8V277L123.8 279.5V278.3Z" fill="#E3E4E9"/>
<path d="M152.003 272.1L147.203 269.6L147.303 270.8L152.103 273.3L152.003 272.1Z" fill="#E3E4E9"/>
<path d="M152.198 277.5L147.398 275V276.2L152.198 278.7V277.5Z" fill="#E3E4E9"/>
<path d="M152.402 282.8L147.602 280.3L147.702 281.5L152.502 284L152.402 282.8Z" fill="#E3E4E9"/>
<path d="M152.698 288.2L147.898 285.7L147.998 286.9L152.798 289.4L152.698 288.2Z" fill="#E3E4E9"/>
<path d="M152.902 293.5L148.102 291L148.202 292.2L153.002 294.7L152.902 293.5Z" fill="#E3E4E9"/>
<path d="M145.097 266.3L144.897 260.9L143.797 260.3L143.997 265.7L145.097 266.3Z" fill="#E3E4E9"/>
<path d="M140.3 263.8L140.1 258.4L139 257.8L139.2 263.2L140.3 263.8Z" fill="#E3E4E9"/>
<path d="M135.597 261.3L135.397 255.9L134.297 255.3L134.497 260.7L135.597 261.3Z" fill="#E3E4E9"/>
<path d="M130.8 258.8L130.6 253.4L129.5 252.8L129.7 258.2L130.8 258.8Z" fill="#E3E4E9"/>
<path d="M126.003 256.3L125.803 250.9L124.703 250.3L124.903 255.7L126.003 256.3Z" fill="#E3E4E9"/>
<path d="M146.402 298.8L146.202 293.4L145.102 292.8L145.302 298.2L146.402 298.8Z" fill="#E3E4E9"/>
<path d="M141.597 296.3L141.397 290.9L140.297 290.3L140.497 295.7L141.597 296.3Z" fill="#E3E4E9"/>
<path d="M136.902 293.8L136.702 288.4L135.602 287.8L135.802 293.2L136.902 293.8Z" fill="#E3E4E9"/>
<path d="M132.097 291.3L131.897 285.9L130.797 285.3L130.997 290.7L132.097 291.3Z" fill="#E3E4E9"/>
<path d="M127.3 288.8L127.1 283.4L126 282.8L126.2 288.2L127.3 288.8Z" fill="#E3E4E9"/>
<path d="M149.798 343.2L126.398 330.9L124.398 327.9L123.398 301.7L125.198 300.6L148.698 312.9L150.598 315.9L151.598 342.1L149.798 343.2Z" fill="#E06AE9"/>
<path d="M124.902 304.2L120.102 301.7L120.202 302.9L125.002 305.4L124.902 304.2Z" fill="#E3E4E9"/>
<path d="M125.097 309.5L120.297 307V308.2L125.097 310.7V309.5Z" fill="#E3E4E9"/>
<path d="M125.3 314.9L120.5 312.4V313.6L125.3 316.1V314.9Z" fill="#E3E4E9"/>
<path d="M125.503 320.2L120.703 317.7V318.9L125.503 321.4V320.2Z" fill="#E3E4E9"/>
<path d="M125.698 325.6L120.898 323.1V324.3L125.698 326.8V325.6Z" fill="#E3E4E9"/>
<path d="M153.902 319.4L149.102 316.9L149.202 318.1L154.002 320.6L153.902 319.4Z" fill="#E3E4E9"/>
<path d="M154.097 324.8L149.297 322.3L149.397 323.5L154.197 326L154.097 324.8Z" fill="#E3E4E9"/>
<path d="M154.3 330.1L149.5 327.6V328.8L154.3 331.3V330.1Z" fill="#E3E4E9"/>
<path d="M154.503 335.5L149.703 333V334.2L154.503 336.7V335.5Z" fill="#E3E4E9"/>
<path d="M154.8 340.8L150 338.3V339.5L154.8 342V340.8Z" fill="#E3E4E9"/>
<path d="M147.003 313.6L146.803 308.2L145.703 307.6L145.903 313L147.003 313.6Z" fill="#E3E4E9"/>
<path d="M142.198 311.1L141.998 305.7L140.898 305.1L141.098 310.5L142.198 311.1Z" fill="#E3E4E9"/>
<path d="M137.503 308.6L137.303 303.2L136.203 302.6L136.403 308L137.503 308.6Z" fill="#E3E4E9"/>
<path d="M132.698 306.1L132.498 300.7L131.398 300.1L131.598 305.5L132.698 306.1Z" fill="#E3E4E9"/>
<path d="M127.902 303.5L127.702 298.1L126.602 297.5L126.802 302.9L127.902 303.5Z" fill="#E3E4E9"/>
<path d="M148.3 346.1L148.1 340.7L147 340.1L147.2 345.5L148.3 346.1Z" fill="#E3E4E9"/>
<path d="M143.503 343.6L143.303 338.2L142.203 337.6L142.403 343L143.503 343.6Z" fill="#E3E4E9"/>
<path d="M138.698 341.1L138.498 335.7L137.398 335.1L137.598 340.5L138.698 341.1Z" fill="#E3E4E9"/>
<path d="M134.003 338.6L133.803 333.2L132.703 332.6L132.903 338L134.003 338.6Z" fill="#E3E4E9"/>
<path d="M129.198 336.1L128.998 330.7L127.898 330.1L128.098 335.5L129.198 336.1Z" fill="#E3E4E9"/>
<path d="M188.102 486.4L174.302 479.1L173.202 477.3L172.602 461.8L173.602 461.2L187.402 468.5L188.502 470.3L189.102 485.8L188.102 486.4Z" fill="#B3B3B3"/>
<path d="M173.402 463.4L170.602 461.9V462.6L173.402 464.1V463.4Z" fill="#E3E4E9"/>
<path d="M173.503 466.5L170.703 465V465.7L173.503 467.2V466.5Z" fill="#E3E4E9"/>
<path d="M173.698 469.7L170.898 468.2V468.9L173.698 470.4V469.7Z" fill="#E3E4E9"/>
<path d="M173.8 472.9L171 471.4V472.1L173.8 473.6V472.9Z" fill="#E3E4E9"/>
<path d="M173.902 476.1L171.102 474.6V475.3L173.902 476.8V476.1Z" fill="#E3E4E9"/>
<path d="M190.597 472.4L187.797 470.9V471.6L190.597 473.1V472.4Z" fill="#E3E4E9"/>
<path d="M190.698 475.6L187.898 474.1V474.8L190.698 476.3V475.6Z" fill="#E3E4E9"/>
<path d="M190.902 478.8L188.102 477.3V478L190.902 479.5V478.8Z" fill="#E3E4E9"/>
<path d="M191.003 481.9L188.203 480.4V481.1L191.003 482.6V481.9Z" fill="#E3E4E9"/>
<path d="M191.097 485.1L188.297 483.6V484.3L191.097 485.8V485.1Z" fill="#E3E4E9"/>
<path d="M186.503 469L186.403 465.8L185.703 465.5L185.803 468.7L186.503 469Z" fill="#E3E4E9"/>
<path d="M183.698 467.5L183.598 464.3L182.898 464L182.998 467.2L183.698 467.5Z" fill="#E3E4E9"/>
<path d="M180.902 466L180.802 462.8L180.102 462.5L180.202 465.7L180.902 466Z" fill="#E3E4E9"/>
<path d="M178.003 464.5L177.903 461.3L177.203 461L177.303 464.2L178.003 464.5Z" fill="#E3E4E9"/>
<path d="M175.198 463L175.098 459.8L174.398 459.5L174.498 462.7L175.198 463Z" fill="#E3E4E9"/>
<path d="M187.3 488.2L187.2 485L186.5 484.7L186.6 487.9L187.3 488.2Z" fill="#E3E4E9"/>
<path d="M184.503 486.7L184.403 483.5L183.703 483.2L183.803 486.4L184.503 486.7Z" fill="#E3E4E9"/>
<path d="M181.597 485.2L181.497 482L180.797 481.7L180.897 484.9L181.597 485.2Z" fill="#E3E4E9"/>
<path d="M178.8 483.8L178.7 480.6L178 480.3L178.1 483.5L178.8 483.8Z" fill="#E3E4E9"/>
<path d="M176.003 482.3L175.903 479.1L175.203 478.8L175.303 482L176.003 482.3Z" fill="#E3E4E9"/>
<path d="M78.5016 11.8L76.3016 10.7C75.7016 10.4 75.2016 9.89995 74.8016 9.19995C74.4016 8.49995 74.1016 7.79995 74.1016 7.19995L74.0016 4.79996C74.0016 4.19996 73.8016 3.59996 73.5016 2.99996C73.2016 2.39996 72.7016 1.79995 72.2016 1.39995C71.9016 1.19995 71.6016 0.999951 71.3016 0.899951C71.0016 0.799951 70.7016 0.799951 70.5016 0.899951C70.3016 0.999951 70.1016 1.19995 69.9016 1.39995C69.8016 1.69995 69.7016 1.99996 69.7016 2.29996L69.8016 4.79996C69.8016 5.09996 69.8016 5.39996 69.7016 5.59996C69.6016 5.79996 69.5016 5.99996 69.3016 6.09996C69.1016 6.19996 68.9016 6.29996 68.6016 6.29996C68.3016 6.29996 68.1016 6.19996 67.8016 5.99996L65.7016 4.89995C65.2016 4.59995 64.7016 4.49995 64.3016 4.69995C63.9016 4.79995 63.6016 5.19995 63.6016 5.69995C63.6016 5.99995 63.6016 6.39996 63.7016 6.79996C63.8016 7.19996 63.9016 7.59996 64.2016 7.99996C64.4016 8.39996 64.7016 8.69996 65.0016 9.09996C65.3016 9.39996 65.6016 9.69996 65.9016 9.79996L68.1016 11C68.7016 11.3 69.2016 11.8 69.6016 12.5C70.0016 13.1 70.3016 13.9 70.3016 14.5L70.4016 16.9C70.4016 17.5 70.6016 18.1 70.9016 18.7C71.2016 19.3 71.7016 19.9 72.2016 20.3C72.5016 20.5 72.8016 20.7 73.1016 20.8C73.4016 20.9 73.7016 20.9 73.9016 20.8C74.1016 20.7 74.3016 20.5 74.5016 20.3C74.7016 20.1 74.7016 19.7 74.7016 19.4L74.6016 16.9C74.6016 16.3 74.8016 15.8 75.2016 15.5C75.6016 15.3 76.1016 15.3 76.7016 15.6L78.9016 16.8C79.2016 17 79.5016 17.1 79.8016 17.1C80.1016 17.1 80.3016 17 80.5016 16.8C80.7016 16.6 80.8016 16.4 80.9016 16.1C81.0016 15.8 81.0016 15.4 80.9016 15C80.8016 14.4 80.4016 13.8 80.0016 13.2C79.5016 12.5 79.0016 12.1 78.5016 11.8Z" fill="#4D4D4D"/>
<path d="M633.603 535.5L631.703 534.5C631.403 534.4 631.203 534.2 631.003 533.9C630.803 533.7 630.503 533.4 630.403 533.1C630.203 532.8 630.103 532.5 630.003 532.2C629.903 531.9 629.803 531.6 629.803 531.3L629.703 529.1C629.703 528.6 629.503 528 629.203 527.4C628.903 526.8 628.503 526.3 628.003 526C627.703 525.8 627.403 525.6 627.103 525.6C626.803 525.5 626.603 525.5 626.403 525.6C626.203 525.7 626.003 525.9 625.903 526.1C625.803 526.3 625.703 526.6 625.703 526.9L625.803 529.2C625.803 529.8 625.603 530.2 625.303 530.4C625.003 530.6 624.503 530.6 624.003 530.3L622.103 529.3C621.603 529 621.203 529 620.903 529.1C620.603 529.2 620.303 529.5 620.203 530C620.203 530.3 620.203 530.6 620.303 531C620.403 531.3 620.503 531.7 620.703 532.1C620.903 532.4 621.103 532.8 621.403 533C621.703 533.3 622.003 533.5 622.203 533.6L624.203 534.7C624.703 535 625.203 535.5 625.603 536.1C626.003 536.7 626.203 537.4 626.203 537.9L626.303 540.1C626.303 540.6 626.503 541.2 626.803 541.7C627.103 542.3 627.503 542.7 628.003 543.1C628.303 543.3 628.603 543.5 628.903 543.5C629.203 543.6 629.403 543.6 629.603 543.5C629.803 543.4 630.003 543.3 630.103 543C630.203 542.8 630.303 542.5 630.303 542.2L630.003 540C630.003 539.7 630.003 539.5 630.103 539.2C630.203 539 630.303 538.8 630.503 538.7C630.703 538.6 630.903 538.5 631.103 538.6C631.303 538.6 631.603 538.7 631.803 538.8L633.803 539.9C634.103 540.1 634.403 540.1 634.603 540.1C634.903 540.1 635.103 540 635.203 539.9C635.403 539.7 635.503 539.5 635.503 539.2C635.603 538.9 635.603 538.6 635.503 538.3C635.403 537.7 635.103 537.2 634.703 536.7C634.503 536.2 634.103 535.8 633.603 535.5Z" fill="#E3E4E9"/>
<path d="M104.002 507.6L101.202 506.1C100.502 505.7 99.8024 505.1 99.3024 504.2C98.8024 503.4 98.5024 502.5 98.4024 501.7L98.3024 498.7C98.3024 498 98.1024 497.2 97.6024 496.4C97.2024 495.6 96.6024 494.9 96.0024 494.4C95.6024 494.1 95.2024 493.9 94.8024 493.8C94.4024 493.7 94.1024 493.7 93.8024 493.8C93.5024 493.9 93.3024 494.1 93.1024 494.5C92.9024 494.8 92.9024 495.2 92.9024 495.7L93.0024 498.8C93.0024 499.6 92.8024 500.2 92.3024 500.5C91.8024 500.8 91.1024 500.8 90.4024 500.4L87.8024 499C87.2024 498.6 86.5024 498.5 86.0024 498.7C85.5024 498.9 85.2024 499.3 85.0024 499.9C84.9024 500.3 85.0024 500.8 85.1024 501.2C85.2024 501.7 85.4024 502.2 85.7024 502.7C86.0024 503.2 86.3024 503.6 86.7024 504C87.1024 504.4 87.5024 504.7 87.9024 504.9L90.7024 506.4C91.4024 506.8 92.1024 507.4 92.6024 508.3C93.1024 509.1 93.4024 510 93.5024 510.8L93.6024 513.8C93.6024 514.5 93.8024 515.3 94.3024 516.1C94.7024 516.9 95.3024 517.6 95.9024 518.1C96.3024 518.4 96.7024 518.6 97.1024 518.7C97.5024 518.8 97.8024 518.8 98.1024 518.7C98.4024 518.6 98.6024 518.4 98.8024 518C99.0024 517.7 99.0024 517.3 99.0024 516.8L98.9024 513.7C98.9024 512.9 99.1024 512.3 99.6024 512C100.102 511.7 100.702 511.7 101.402 512.1L104.202 513.6C104.602 513.8 105.002 513.9 105.302 513.9C105.702 513.9 106.002 513.8 106.202 513.6C106.402 513.4 106.602 513.1 106.702 512.7C106.802 512.3 106.802 511.9 106.702 511.4C106.502 510.6 106.202 509.8 105.702 509.1C105.302 508.6 104.702 508 104.002 507.6Z" stroke="#808490" stroke-width="1.39" stroke-miterlimit="10"/>
<path d="M573.5 764.6L545.9 750C545.2 749.6 544.4 748.9 543.9 748C543.4 747.1 543 746.2 543 745.3C543 744.5 543.2 743.8 543.7 743.5C544.2 743.2 544.9 743.2 545.7 743.6L573.3 758.1C574 758.5 574.8 759.2 575.3 760.1C575.9 761 576.2 761.9 576.2 762.8C576.2 763.6 576 764.3 575.5 764.6C575 765 574.3 765 573.5 764.6Z" fill="#B3B3B3"/>
<path d="M586.702 771.5L583.502 769.8C582.802 769.4 582.002 768.7 581.502 767.8C580.902 766.9 580.602 766 580.602 765.1C580.602 764.3 580.802 763.6 581.302 763.3C581.802 763 582.502 763 583.302 763.4L586.502 765.1C587.202 765.5 588.002 766.2 588.502 767.1C589.102 768 589.402 768.9 589.402 769.8C589.402 770.6 589.202 771.3 588.702 771.6C588.102 771.9 587.402 771.9 586.702 771.5Z" fill="#B3B3B3"/>
<path d="M602.898 780L602.298 779.7C601.598 779.3 600.798 778.6 600.298 777.7C599.698 776.8 599.398 775.9 599.398 775C599.398 774.2 599.598 773.5 600.098 773.2C600.598 772.9 601.298 772.9 602.098 773.3L602.698 773.6C603.398 774 604.198 774.7 604.698 775.6C605.298 776.5 605.598 777.4 605.598 778.3C605.598 779.1 605.398 779.8 604.898 780.1C604.298 780.4 603.598 780.4 602.898 780Z" fill="#B3B3B3"/>
<path d="M286.797 44.6001L259.197 30.1001C258.497 29.7001 257.697 29.0001 257.197 28.1001C256.597 27.2001 256.297 26.3001 256.297 25.4001C256.297 24.6001 256.497 23.9001 256.997 23.6001C257.497 23.3001 258.197 23.3001 258.997 23.7001L286.597 38.2001C287.297 38.6001 288.097 39.3001 288.597 40.2001C289.197 41.1001 289.497 42.0001 289.497 42.9001C289.497 43.7001 289.297 44.4001 288.797 44.7001C288.197 45.0001 287.497 45.0001 286.797 44.6001Z" fill="#E06AE9"/>
<path d="M299.897 51.5L296.697 49.8C295.997 49.4 295.197 48.7 294.697 47.8C294.097 46.9 293.797 46 293.797 45.1C293.797 44.3 293.997 43.6 294.497 43.3C294.997 43 295.697 43 296.497 43.4L299.697 45.1C300.397 45.5 301.197 46.2 301.697 47.1C302.297 48 302.597 48.9 302.597 49.8C302.597 50.6 302.397 51.3 301.897 51.6C301.397 51.9 300.697 51.9 299.897 51.5Z" fill="#E06AE9"/>
<path d="M316.102 59.9999L315.502 59.6999C314.802 59.2999 314.002 58.5999 313.502 57.6999C312.902 56.7999 312.602 55.8999 312.602 54.9999C312.602 54.1999 312.802 53.4999 313.302 53.1999C313.802 52.8999 314.502 52.8999 315.302 53.2999L315.902 53.5999C316.602 53.9999 317.402 54.6999 317.902 55.5999C318.502 56.4999 318.802 57.3999 318.802 58.2999C318.802 59.0999 318.602 59.7999 318.102 60.0999C317.602 60.3999 316.902 60.3999 316.102 59.9999Z" fill="#E06AE9"/>
<path d="M525.503 499.6C525.503 500.3 525.403 500.8 525.103 501.2C524.803 501.6 524.303 501.8 523.803 501.7C523.303 501.6 522.603 501.4 522.003 501C521.403 500.6 520.803 499.9 520.403 499.2C520.003 498.5 519.603 497.7 519.503 497C519.403 496.3 519.403 495.6 519.603 495.1C519.803 494.6 520.203 494.3 520.703 494.2C521.203 494.1 521.803 494.2 522.403 494.5C523.203 494.9 524.003 495.7 524.603 496.6C525.103 497.7 525.403 498.7 525.503 499.6Z" fill="#B3B3B3"/>
<path d="M533.003 495C533.003 495.7 532.903 496.2 532.603 496.6C532.303 497 531.803 497.2 531.303 497.1C530.803 497 530.103 496.8 529.503 496.4C528.903 496 528.303 495.3 527.903 494.6C527.503 493.9 527.103 493.1 527.003 492.4C526.903 491.7 526.903 491 527.103 490.5C527.303 490 527.703 489.7 528.203 489.6C528.703 489.5 529.303 489.6 529.903 489.9C530.703 490.3 531.503 491.1 532.103 492C532.603 493 532.903 494.1 533.003 495Z" fill="#B3B3B3"/>
<path d="M540.402 490.3C540.402 491 540.302 491.5 540.002 491.9C539.702 492.3 539.202 492.5 538.702 492.4C538.202 492.4 537.502 492.1 536.902 491.7C536.302 491.3 535.702 490.6 535.302 489.9C534.902 489.2 534.502 488.4 534.402 487.7C534.302 487 534.302 486.3 534.502 485.8C534.702 485.3 535.102 485 535.602 484.9C536.102 484.8 536.702 484.9 537.302 485.2C538.102 485.6 538.902 486.4 539.502 487.3C540.002 488.4 540.402 489.4 540.402 490.3Z" fill="#B3B3B3"/>
<path d="M600 717.2C600 717.5 599.9 717.8 599.8 718C599.6 718.2 599.4 718.3 599.2 718.3C598.9 718.3 598.6 718.2 598.4 717.9C598.1 717.7 597.8 717.4 597.6 717.1C597.4 716.8 597.2 716.4 597.2 716C597.1 715.6 597.1 715.3 597.2 715.1C597.3 714.9 597.5 714.7 597.7 714.6C597.9 714.5 598.2 714.6 598.5 714.8C598.7 714.9 598.9 715 599.1 715.2C599.3 715.4 599.5 715.6 599.6 715.8C599.7 716 599.9 716.3 599.9 716.5C600 716.7 600 717 600 717.2Z" fill="#B3B3B3"/>
<path d="M411.103 625.1C411.103 625.4 411.003 625.6 410.903 625.8C410.803 626 410.603 626 410.303 626C410.103 626 409.803 625.9 409.503 625.7C409.203 625.5 409.003 625.2 408.803 624.9C408.603 624.6 408.503 624.3 408.403 624C408.303 623.7 408.303 623.4 408.403 623.2C408.503 623 408.603 622.8 408.803 622.8C409.003 622.7 409.203 622.8 409.503 622.9C409.703 623 409.903 623.1 410.103 623.3C410.303 623.5 410.403 623.7 410.603 623.9C410.703 624.1 410.803 624.4 410.903 624.6C411.003 624.7 411.103 624.9 411.103 625.1Z" fill="#B3B3B3"/>
<path d="M325.098 701.9C325.098 702.2 324.998 702.5 324.898 702.7C324.698 702.9 324.498 703 324.298 703C323.998 703 323.698 702.8 323.398 702.6C323.098 702.4 322.798 702.1 322.598 701.7C322.398 701.4 322.198 701 322.198 700.6C322.098 700.2 322.198 699.9 322.298 699.7C322.398 699.5 322.598 699.3 322.798 699.3C322.998 699.3 323.298 699.3 323.598 699.5C323.798 699.6 323.998 699.7 324.198 699.9C324.398 700.1 324.498 700.3 324.698 700.5C324.798 700.7 324.898 701 324.998 701.2C324.998 701.5 325.098 701.7 325.098 701.9Z" fill="#4D4D4D"/>
<path d="M284.799 698.4C284.799 698.7 284.699 698.9 284.599 699.1C284.499 699.3 284.299 699.4 283.999 699.3C283.799 699.3 283.499 699.2 283.199 699C282.899 698.8 282.699 698.5 282.499 698.2C282.299 697.9 282.199 697.6 282.099 697.2C281.999 696.9 282.099 696.6 282.099 696.4C282.199 696.2 282.399 696 282.599 696C282.799 696 283.099 696 283.299 696.1C283.699 696.3 283.999 696.6 284.199 697C284.599 697.6 284.699 698 284.799 698.4Z" fill="#B3B3B3"/>
<path d="M226.199 513.4C226.199 513.7 226.099 514 225.999 514.2C225.799 514.4 225.599 514.5 225.399 514.5C225.099 514.5 224.799 514.3 224.499 514.1C224.199 513.9 223.899 513.6 223.699 513.2C223.499 512.9 223.299 512.5 223.299 512.1C223.199 511.7 223.299 511.4 223.399 511.2C223.499 511 223.699 510.8 223.899 510.8C224.099 510.8 224.399 510.8 224.699 511C224.899 511.1 225.099 511.2 225.299 511.4C225.499 511.6 225.599 511.8 225.799 512C225.899 512.2 225.999 512.5 226.099 512.7C226.199 512.9 226.199 513.1 226.199 513.4Z" fill="#4D4D4D"/>
<path d="M93.8 462.6C94.8 463.1 95.5 462.6 95.5 461.5C95.5 460.4 94.6 459.1 93.7 458.6C92.7 458.1 92 458.6 92 459.7C92 460.8 92.9 462.1 93.8 462.6Z" fill="#B3B3B3"/>
<path d="M28.9031 203.3C29.8031 203.8 30.5031 203.3 30.5031 202.3C30.5031 201.3 29.7031 200.1 28.8031 199.6C27.9031 199.1 27.2031 199.6 27.2031 200.6C27.2031 201.6 28.0031 202.8 28.9031 203.3Z" fill="#B3B3B3"/>
<path d="M8.10006 285.7C8.10006 286.1 8.00006 286.5 7.80006 286.7C7.60006 286.9 7.30006 287.1 7.00006 287C6.70006 287 6.30006 286.8 5.90006 286.5C5.50006 286.2 5.20006 285.8 4.90006 285.4C4.60006 285 4.40006 284.5 4.30006 284C4.20006 283.5 4.20006 283.1 4.40006 282.8C4.50006 282.5 4.80006 282.3 5.10006 282.2C5.40006 282.1 5.80006 282.2 6.10006 282.4C6.60006 282.7 7.10006 283.1 7.50006 283.7C7.80006 284.4 8.10006 285.1 8.10006 285.7Z" fill="#E3E4E9"/>
<path d="M129.302 35.3C130.202 35.8 130.902 35.3 130.902 34.3C130.902 33.3 130.102 32.1 129.202 31.6C128.302 31.1 127.602 31.6 127.602 32.6C127.702 33.6 128.402 34.8 129.302 35.3Z" fill="#B3B3B3"/>
<path d="M373.098 62.4999C373.998 62.9999 374.698 62.4999 374.698 61.4999C374.698 60.4999 373.898 59.2999 372.998 58.7999C372.098 58.2999 371.398 58.7999 371.398 59.7999C371.398 60.7999 372.198 61.9999 373.098 62.4999Z" fill="#B3B3B3"/>
<path d="M525.603 232.3C525.603 232.6 525.503 232.9 525.403 233.1C525.303 233.3 525.003 233.4 524.803 233.3C524.503 233.3 524.303 233.2 524.003 233C523.703 232.8 523.503 232.5 523.303 232.2C523.103 231.9 523.003 231.5 522.903 231.2C522.803 230.9 522.803 230.6 522.903 230.3C523.003 230.1 523.203 229.9 523.403 229.9C523.603 229.8 523.903 229.9 524.203 230C524.603 230.2 524.903 230.5 525.203 231C525.403 231.4 525.503 231.9 525.603 232.3Z" fill="#B3B3B3"/>
<path d="M347.302 182.2C348.202 182.7 348.902 182.2 348.902 181.2C348.902 180.2 348.102 179 347.202 178.5C346.302 178 345.602 178.5 345.602 179.5C345.602 180.5 346.402 181.7 347.302 182.2Z" fill="#B3B3B3"/>
<path d="M623.1 355.6C623.1 356 623 356.4 622.8 356.6C622.6 356.8 622.3 357 622 356.9C621.7 356.9 621.3 356.7 620.9 356.4C620.5 356.1 620.2 355.7 619.9 355.3C619.6 354.9 619.4 354.4 619.3 353.9C619.2 353.4 619.2 353 619.4 352.7C619.5 352.4 619.8 352.2 620.1 352.1C620.4 352 620.8 352.1 621.1 352.3C621.6 352.6 622.1 353 622.5 353.6C622.9 354.4 623.1 355 623.1 355.6Z" fill="#4D4D4D"/>
<path d="M525.502 433.3C525.502 433.6 525.402 433.9 525.302 434.1C525.202 434.3 524.902 434.4 524.702 434.3C524.402 434.3 524.202 434.2 523.902 434C523.602 433.8 523.402 433.5 523.202 433.2C523.002 432.9 522.902 432.5 522.802 432.2C522.702 431.9 522.702 431.6 522.802 431.3C522.902 431.1 523.102 430.9 523.302 430.9C523.502 430.8 523.802 430.9 524.102 431C524.502 431.2 524.802 431.5 525.102 432C525.302 432.4 525.502 432.9 525.502 433.3Z" fill="#B3B3B3"/>
<path d="M640.6 619.8C640.6 620.2 640.5 620.6 640.3 620.8C640.1 621 639.8 621.2 639.5 621.1C639.2 621.1 638.8 620.9 638.4 620.6C638 620.3 637.7 619.9 637.4 619.5C637.1 619.1 636.9 618.6 636.8 618.1C636.7 617.6 636.7 617.2 636.9 616.9C637 616.6 637.3 616.4 637.6 616.3C637.9 616.2 638.3 616.3 638.6 616.5C639.1 616.8 639.6 617.2 640 617.8C640.4 618.6 640.6 619.2 640.6 619.8Z" fill="#B3B3B3"/>
<path d="M509.202 574.8C509.202 575.2 509.102 575.6 508.902 575.8C508.702 576 508.402 576.2 508.102 576.1C507.802 576.1 507.402 575.9 507.002 575.6C506.602 575.3 506.302 574.9 506.002 574.5C505.702 574.1 505.502 573.6 505.402 573.1C505.302 572.6 505.302 572.2 505.502 571.9C505.602 571.6 505.902 571.4 506.202 571.3C506.502 571.2 506.902 571.3 507.202 571.5C507.702 571.8 508.202 572.2 508.602 572.8C509.002 573.5 509.202 574.2 509.202 574.8Z" fill="#E3E4E9"/>
<path d="M86.4932 347.3C65.6932 347.3 56.9932 374.4 74.1932 386V399.1C74.1932 401.9 76.6932 403.8 79.0932 404.8C79.7932 410.3 93.1932 410.3 93.8932 404.8C96.1932 403.8 98.7932 401.8 98.7932 399.1V386C115.893 374.5 107.393 347.3 86.4932 347.3Z" fill="#518282"/>
<path d="M74.1953 387.5V399.1C74.1953 403 79.6953 406.2 86.4953 406.2C93.2953 406.2 98.7953 403 98.7953 399.1V387.5H74.1953Z" fill="#518282"/>
<path d="M86.4953 402.4C79.6953 402.4 74.1953 399.2 74.1953 395.3V399.2C74.1953 403.1 79.6953 406.3 86.4953 406.3C93.2953 406.3 98.7953 403.1 98.7953 399.2V395.3C98.7953 399.2 93.2953 402.4 86.4953 402.4Z" fill="#749B9B"/>
<path d="M86.4953 394.7C79.6953 394.7 74.1953 391.5 74.1953 387.6V391.5C74.1953 395.4 79.6953 398.6 86.4953 398.6C93.2953 398.6 98.7953 395.4 98.7953 391.5V387.6C98.7953 391.5 93.2953 394.7 86.4953 394.7Z" fill="#749B9B"/>
<path d="M108.197 368.4C108.197 356.6 98.4969 347 86.4969 347C74.4969 347 64.7969 356.6 64.7969 368.4C64.7969 375.7 68.5969 382.2 74.2969 386V387.5C74.2969 391.4 79.7969 394.6 86.5969 394.6C93.3969 394.6 98.8969 391.4 98.8969 387.5V386C104.497 382.2 108.197 375.7 108.197 368.4Z" fill="#FFCA00"/>
<path opacity="0.3" d="M86.4953 394.7C79.6953 394.7 74.1953 391.5 74.1953 387.6C74.1953 383.7 79.6953 380.5 86.4953 380.5C93.2953 380.5 98.7953 383.7 98.7953 387.6C98.7953 391.5 93.2953 394.7 86.4953 394.7Z" fill="white"/>
<path d="M94.6983 375.8C93.3983 375.4 91.9984 374.9 90.7984 374.1C90.0984 373.9 89.6984 374.1 89.5984 374.8V376.2C89.0984 375.9 88.7984 375.4 88.7984 374.9V372.1C88.7984 371 88.1983 369.9 87.1983 369.4L87.0983 369.3C85.7983 368.9 84.9984 369.3 84.7984 370.6V373.5C84.2984 373.2 83.9983 372.7 83.9983 372.1V369.3C83.9983 367.2 80.0983 364.9 80.0983 367.9V368L78.2984 367V366.8C77.9984 365.4 75.7983 365.9 76.0983 367.3L80.4983 384.9C80.8983 386.5 82.9983 385.6 82.6983 384.4L78.8984 369.1L80.5983 370.1C81.2983 370.3 81.6984 370.1 81.7984 369.4V368.1C82.6984 368.8 82.5984 371.2 82.3984 372.1C82.3984 373.3 82.9983 374.3 84.0983 374.9L84.1983 375C85.4983 375.4 86.1983 375 86.4983 373.7V370.8C86.9983 371.1 87.2984 371.6 87.2984 372.1V374.9C87.2984 376 87.8983 377.1 88.8983 377.6C89.8983 378 91.2984 377.9 91.2984 376.3V376.1L93.1983 377.1L89.1983 389.1C88.7983 390.4 90.7984 391.3 91.2984 389.8L95.4983 377.2C95.5983 376.7 95.2983 376 94.6983 375.8C95.2983 376 94.4983 375.8 94.6983 375.8Z" fill="#CAA414"/>
<path opacity="0.3" d="M79.8984 370.8C74.6984 370.8 70.3984 366.6 70.3984 361.5C70.3984 356.3 74.6984 352.2 79.8984 352.2C85.0984 352.2 89.3984 356.4 89.3984 361.5C89.3984 366.7 85.0984 370.8 79.8984 370.8Z" fill="white"/>
<path d="M194.097 41.4C190.197 43.5 187.797 48.3 187.797 55.1C187.797 68.4 197.097 84.6 208.597 91.2C214.297 94.5 219.497 94.8 223.297 92.6L233.997 86.5C237.797 84.3 240.197 79.6 240.197 72.9C240.197 59.6 230.897 43.4 219.397 36.8C213.697 33.5 208.497 33.2 204.697 35.4L193.997 41.5C193.997 41.5 194.097 41.5 194.097 41.4Z" fill="#FEDA44"/>
<path d="M194 41.5L204.7 35.4C208.5 33.2 213.6 33.5 219.4 36.8C230.9 43.4 240.2 59.5 240.2 72.9C240.2 79.6 237.8 84.3 234 86.5L223.3 92.6C227.1 90.4 229.5 85.7 229.5 79C229.5 65.7 220.2 49.5 208.7 42.9C202.9 39.7 197.7 39.4 194 41.5Z" fill="#EEBF00"/>
<path d="M187.797 55.1C187.797 41.8 197.097 36.3 208.597 42.9C220.097 49.5 229.397 65.6 229.397 79C229.397 92.3 220.097 97.8 208.597 91.2C197.097 84.6 187.797 68.5 187.797 55.1Z" fill="#FEDA44"/>
<path d="M221.498 59.5C225.098 65.8 226.998 72.6 226.698 78.6C226.498 83.8 224.598 87.8 221.498 89.6C218.398 91.4 214.198 91.1 209.498 88.7C204.198 86 199.298 81 195.598 74.7C191.998 68.4 190.098 61.6 190.398 55.6C190.598 50.4 192.498 46.4 195.598 44.6C198.698 42.8 202.898 43.1 207.598 45.5C212.998 48.2 217.898 53.2 221.498 59.5ZM196.298 74.3C199.898 80.5 204.698 85.4 209.898 88.1C214.298 90.4 218.398 90.7 221.298 89.1C224.198 87.4 225.998 83.6 226.198 78.6C226.498 72.7 224.598 66.1 221.098 59.9C217.498 53.7 212.698 48.8 207.498 46.1C203.098 43.8 198.998 43.5 196.098 45.1C193.198 46.8 191.398 50.6 191.198 55.6C190.898 61.5 192.698 68.1 196.298 74.3Z" fill="#EEBF00"/>
<path d="M223.4 41.4001L214 46.8001C214.2 47.0001 214.4 47.2001 214.6 47.4001L225.3 41.2001C225.1 41.0001 224.9 40.8001 224.7 40.6001L223.4 41.4001Z" fill="#FECE00"/>
<path d="M232.998 50.5C232.898 50.3 232.698 50 232.598 49.8L221.898 56C221.998 56.2 222.198 56.5 222.298 56.7L232.998 50.5Z" fill="#FECE00"/>
<path d="M213.4 34.3999C213 34.2999 212.6 34.2 212.2 34.2L201.5 40.3999C201.9 40.4999 202.3 40.5 202.7 40.6L213.4 34.3999Z" fill="#FECE00"/>
<path d="M208.695 43C208.995 43.2 209.195 43.3 209.495 43.5L220.195 37.3C219.895 37.1 219.695 37 219.395 36.8L208.695 43Z" fill="#FECE00"/>
<path d="M218.195 51.2C218.395 51.4 218.595 51.6 218.695 51.8L229.395 45.6C229.195 45.4 228.995 45.2 228.895 45L218.195 51.2Z" fill="#FECE00"/>
<path d="M227.094 66.5999C227.194 66.8999 227.294 67.0999 227.394 67.3999L238.094 61.1999C237.994 60.8999 237.894 60.6999 237.794 60.3999L227.094 66.5999Z" fill="#FECE00"/>
<path d="M224.797 61.0999C224.897 61.2999 224.997 61.5999 225.197 61.7999L235.897 55.5999C235.797 55.3999 235.697 55.0999 235.497 54.8999L224.797 61.0999Z" fill="#FECE00"/>
<path d="M238.497 81.5001C238.697 81.1001 238.897 80.7 238.997 80.3L228.297 86.5001C228.097 86.9001 227.997 87.3001 227.797 87.7001L238.497 81.5001Z" fill="#FECE00"/>
<path d="M228.797 72.5C228.897 72.8 228.897 73.1 228.997 73.3L239.697 67.1001C239.597 66.8001 239.597 66.5 239.497 66.3L228.797 72.5Z" fill="#FECE00"/>
<path d="M229.5 79.8001L240.2 73.6001C240.2 73.3001 240.2 73.1001 240.2 72.8001C240.2 72.7001 240.2 72.7001 240.2 72.6001L229.5 78.8001V78.9001C229.5 79.3001 229.5 79.6001 229.5 79.8001Z" fill="#FECE00"/>
<path d="M446.998 163.6C447.098 160 444.698 156.3 439.898 153.5C430.498 148.1 415.198 148.1 405.898 153.5C401.198 156.2 398.898 159.8 398.898 163.3V170.4C398.898 174 401.298 177.6 405.998 180.3C415.398 185.7 430.698 185.7 439.998 180.3C444.598 177.6 446.998 174.1 446.998 170.5V163.4C446.998 163.5 446.998 163.5 446.998 163.6ZM406.998 172.6C404.098 170.9 402.198 168.9 401.198 166.8C402.198 164.7 404.098 162.8 406.898 161.1C415.698 156 429.998 156 438.798 161.1C441.698 162.8 443.598 164.8 444.598 166.9C443.598 169 441.698 170.9 438.898 172.6C430.198 177.7 415.898 177.7 406.998 172.6Z" fill="#1D1D1F"/>
<path d="M445.497 163.5V170.6C445.497 167.2 443.297 163.9 438.797 161.3C429.997 156.2 415.597 156.2 406.897 161.3C402.497 163.8 400.397 167.2 400.297 170.5V163.4C400.297 160.1 402.497 156.7 406.897 154.2C415.697 149.1 429.997 149.1 438.797 154.2C443.297 156.7 445.497 160.1 445.497 163.5Z" fill="#1D1D1F"/>
<path d="M446.998 163.5V170.6C446.998 174.1 444.698 177.7 439.998 180.4C430.598 185.8 415.398 185.8 405.998 180.4C401.298 177.7 398.898 174.1 398.898 170.5V163.4C398.898 167 401.298 170.6 405.998 173.3C415.398 178.7 430.698 178.7 439.998 173.3C444.698 170.5 446.998 167 446.998 163.5Z" fill="#2E2E30"/>
<path d="M439.899 153.5C449.299 158.9 449.399 167.8 439.999 173.2C430.599 178.6 415.399 178.6 405.999 173.2C396.599 167.8 396.499 158.9 405.899 153.5C415.299 148.1 430.499 148.1 439.899 153.5ZM406.999 172.6C415.799 177.7 430.199 177.7 438.899 172.6C447.699 167.5 447.599 159.2 438.799 154.1C429.999 149 415.599 149 406.899 154.1C398.099 159.2 398.199 167.5 406.999 172.6Z" fill="#3E3D43"/>
<path d="M434.6 178C434.6 174.3 433.8 171.7 432.8 172.1C428.2 173.8 418.9 171.9 411.2 167.4C407.4 165.2 404.7 162.8 403.2 160.6C403.2 157.3 402.9 155 402.5 155.3C397.6 158.1 392.7 161 387.8 163.8C387.7 163.8 387.6 163.9 387.5 164L387.4 164.1C387.4 164.1 387.4 164.1 387.4 164.2C387.4 164.2 387.4 164.2 387.4 164.3C387.3 164.5 387.3 164.7 387.2 165C387.2 165.2 387.1 165.8 387.1 167.6C387.1 169.2 387 170.8 387 171.4V173.1C387 175.6 387 178.5 387.2 179.6C387.2 179.8 387.2 179.9 387.3 180C387.3 180.1 387.4 180.2 387.4 180.3C387.4 180.4 387.5 180.4 387.6 180.5L387.7 180.6C387.8 180.7 387.9 180.7 387.9 180.8L390.6 182.3L393.3 183.8L396 185.3L398.7 186.8L401.4 188.3L404.1 189.8L406.8 191.3L409.5 192.8L412.2 194.3L414.9 195.8C415.1 195.9 415.3 196 415.6 196.1C415.9 196.2 416.2 196.2 416.4 196.2C416.7 196.2 416.9 196.2 417.2 196.1C417.4 196.1 417.5 196 417.6 196C417.7 196 417.7 196 417.9 195.9C418.1 195.7 418.4 195.6 418.7 195.5C419 195.4 419.3 195.2 419.5 195.1C419.7 194.9 420 194.8 420.3 194.7C420.5 194.6 420.8 194.4 421.1 194.3C422.1 193.7 423.1 193.1 424.1 192.5C427.2 190.7 430.2 188.9 433.3 187.1C434.3 186.5 435 183.2 435 179.6L434.6 178Z" fill="#E0E0E2"/>
<path d="M402.502 170.5C402.402 170.6 402.402 170.7 402.302 170.8C402.302 170.9 402.202 171 402.202 171.1C402.202 171.1 402.102 171.2 402.102 171.3C402.202 170.6 402.402 168.6 402.402 165.7C402.402 164.8 402.702 164 403.202 163.3C403.202 166.8 402.902 170 402.502 170.5Z" fill="#3E3D43"/>
<path d="M402.398 165.6V163.9C402.398 163 402.698 162.2 403.198 161.5V163.2C402.698 163.9 402.398 164.7 402.398 165.6Z" fill="#3E3D43"/>
<path d="M387.898 163.9C392.798 161.1 397.698 158.2 402.598 155.4L387.898 163.9Z" fill="#E0E0E2"/>
<path d="M417.6 181.1C416.8 181.6 415.5 181.6 414.7 181.1L387.9 165.6C387.3 165.3 387.1 164.8 387.4 164.3C387.4 164.3 387.4 164.3 387.4 164.4C387.3 164.6 387.3 164.8 387.2 165.1C387.2 165.3 387.1 165.9 387.1 167.7C387.1 169.3 387 170.9 387 171.5V173.2C387 175.7 387 178.6 387.2 179.7C387.2 179.9 387.2 180 387.3 180.1C387.3 180.2 387.4 180.3 387.4 180.4C387.4 180.5 387.5 180.5 387.6 180.6L387.7 180.7C387.8 180.8 387.9 180.8 387.9 180.9L390.6 182.4L393.3 183.9L396 185.4L398.7 186.9L401.4 188.4L404.1 189.9L406.8 191.4L409.5 192.9L412.2 194.4L414.9 195.9C415.1 196 415.3 196.1 415.6 196.2C415.9 196.3 416.2 196.3 416.4 196.3C416.7 196.3 416.9 196.3 417.2 196.2C417.4 196.2 417.5 196.1 417.6 196.1C417.7 196.1 417.7 196.1 417.9 196C418 195.9 418.1 193 418.1 189.4V187.7C417.8 184.2 417.7 181.1 417.6 181.1Z" fill="#2E2E30"/>
<path d="M402.402 163.9C402.402 163.3 402.402 162 402.302 160.7C402.202 158.9 402.102 158.7 402.102 158.7C402.102 158.7 401.102 156.9 402.402 155.3C402.802 155 403.102 157.7 403.102 161.4C402.702 162.2 402.402 163.1 402.402 163.9Z" fill="#77767E"/>
<path d="M393.797 161C396.397 171.9 406.197 180.1 417.897 180.1C423.897 180.1 429.397 178 433.597 174.4C430.997 163.5 421.197 155.3 409.497 155.3C403.497 155.4 397.997 157.5 393.797 161Z" fill="#3E3D43"/>
<path d="M387.7 174.1V172.4C387.7 168.7 387.8 165.6 387.9 165.6C387.3 165.3 387.1 164.8 387.4 164.3C387.4 164.3 387.4 164.3 387.4 164.4C387.3 164.6 387.3 164.8 387.2 165.1C387.2 165.3 387.1 165.9 387.1 167.7C387.1 169.3 387 170.9 387 171.5V173.2C387 175.7 387 178.6 387.2 179.7C387.2 179.9 387.2 180 387.3 180.1C387.3 180.2 387.4 180.3 387.4 180.4C387.4 180.5 387.5 180.5 387.6 180.6L387.7 180.7C387.8 180.8 387.9 180.8 387.9 180.9C387.7 180.7 387.7 177.7 387.7 174.1Z" fill="#3E3D43"/>
<path d="M414.602 196.2C414.802 196.3 415.002 196.4 415.302 196.5C415.602 196.6 415.902 196.6 416.102 196.6C416.402 196.6 416.602 196.6 416.902 196.5C417.102 196.5 417.202 196.4 417.302 196.4C417.402 196.4 417.402 196.4 417.602 196.3C417.702 196.2 417.802 193.3 417.802 189.7V188C417.802 184.3 417.702 181.2 417.602 181.2C416.802 181.7 415.502 181.7 414.702 181.2L414.602 196.2Z" fill="#3E3D43"/>
<path d="M414.703 181.1L387.903 165.6C387.803 165.7 387.703 168.7 387.703 172.4V174.1C387.703 177.7 387.803 180.7 387.803 180.7L390.503 182.2L393.203 183.7L395.903 185.2L398.603 186.7L401.303 188.2L404.003 189.7L406.703 191.2L409.403 192.7L412.103 194.2L414.803 195.7L414.703 181.1Z" fill="#2E2E30"/>
<path d="M387.7 174.1V172.4C387.7 168.7 387.8 165.6 387.9 165.6C387.3 165.3 387.1 164.8 387.4 164.3C387.4 164.3 387.4 164.3 387.4 164.4C387.3 164.6 387.3 164.8 387.2 165.1C387.2 165.3 387.1 165.9 387.1 167.7C387.1 169.3 387 170.9 387 171.5V173.2C387 175.7 387 178.6 387.2 179.7C387.2 179.9 387.2 180 387.3 180.1C387.3 180.2 387.4 180.3 387.4 180.4C387.4 180.5 387.5 180.5 387.6 180.6L387.7 180.7C387.8 180.8 387.9 180.8 387.9 180.9C387.7 180.7 387.7 177.7 387.7 174.1Z" fill="#3E3D43"/>
<path d="M387.902 163.9C387.802 163.9 387.702 164 387.602 164.1C387.702 164 387.802 163.9 387.902 163.9Z" fill="#D8D8DA"/>
<path d="M432.797 172.1C427.697 175.1 422.697 178.1 417.597 181C416.797 181.5 415.497 181.5 414.697 181C405.797 175.8 396.797 170.7 387.897 165.5C387.097 165 387.097 164.3 387.897 163.8C392.797 161 397.697 158.1 402.497 155.3C400.497 158.1 403.897 163.2 411.197 167.4C418.897 171.9 428.197 173.9 432.797 172.1Z" fill="#E0E0E2"/>
<path d="M411.397 172.4L403.297 167.7L400.797 169.2L408.897 173.9L411.397 172.4Z" fill="#57565C"/>
<path d="M434.602 178C434.602 174.3 433.802 171.7 432.802 172.1L417.602 181C417.702 181.1 417.802 184.1 417.802 187.8V189.5C417.802 193.1 417.702 196.1 417.602 196.1C417.802 195.9 418.102 195.8 418.402 195.7C418.602 195.6 419.002 195.4 419.202 195.3C419.402 195.1 419.702 195 420.002 194.9C420.202 194.8 420.502 194.6 420.802 194.5C421.802 193.9 422.802 193.3 423.802 192.7C426.902 190.9 429.902 189.1 433.002 187.3C434.002 186.7 434.702 183.4 434.702 179.8L434.602 178Z" fill="#ACABB1"/>
<path d="M409.503 181.5C408.803 181.1 408.203 181.4 408.203 182.2C408.203 183 408.803 184 409.503 184.4C410.203 184.8 410.803 184.5 410.803 183.7C410.803 182.9 410.203 181.9 409.503 181.5Z" fill="#59A4FF"/>
<path d="M409.503 188.1C408.803 187.7 408.203 188 408.203 188.8C408.203 189.6 408.803 190.6 409.503 191C410.203 191.4 410.803 191.1 410.803 190.3C410.803 189.6 410.203 188.6 409.503 188.1Z" fill="#59A4FF"/>
<path d="M412.8 186.7C412.1 186.3 411.5 186.6 411.5 187.4C411.5 188.2 412.1 189.2 412.8 189.6C413.5 190 414.1 189.7 414.1 188.9C414.1 188.1 413.5 187.1 412.8 186.7Z" fill="#59A4FF"/>
<path d="M392.902 171.7C392.202 171.3 391.602 171.6 391.602 172.4C391.602 173.2 392.202 174.2 392.902 174.6C393.602 175 394.202 174.7 394.202 173.9C394.202 173.1 393.602 172.1 392.902 171.7Z" fill="#59A4FF"/>
<path d="M392.902 178.4C392.202 178 391.602 178.3 391.602 179.1C391.602 179.9 392.202 180.9 392.902 181.3C393.602 181.7 394.202 181.4 394.202 180.6C394.202 179.8 393.602 178.8 392.902 178.4Z" fill="#59A4FF"/>
<path d="M389.597 173.1C388.897 172.7 388.297 173 388.297 173.8C388.297 174.6 388.897 175.6 389.597 176C390.297 176.4 390.897 176.1 390.897 175.3C390.897 174.5 390.297 173.5 389.597 173.1Z" fill="#59A4FF"/>
<path d="M407.6 162.7C409.3 162.7 410.7 161.3 410.7 159.6C410.7 157.9 409.3 156.5 407.6 156.5C405.9 156.5 404.5 157.9 404.5 159.6C404.5 161.3 406 162.7 407.6 162.7Z" fill="#77767E"/>
<path d="M410.8 172.6C410.8 170.2 409.1 167.3 407.1 166.1C406.1 165.5 405.1 165.5 404.5 165.8L402.6 166.9C402.6 166.9 401.5 167.4 401.5 169.3L409 173.7L410.8 172.6Z" fill="#1D1D1F"/>
<path d="M407.102 166.1C406.102 165.5 405.102 165.5 404.502 165.8L402.602 166.9C403.302 166.5 404.202 166.6 405.202 167.2C407.302 168.4 408.902 171.3 408.902 173.7L410.802 172.6C410.802 170.2 409.202 167.3 407.102 166.1Z" fill="#57565C"/>
<path d="M407.802 166.9L406.102 167.9L406.202 168L408.102 166.9L408.002 166.8L407.802 166.9Z" fill="#3E3D43"/>
<path d="M409.5 168.5L409.4 168.4L407.5 169.5L407.6 169.6L409.5 168.5Z" fill="#3E3D43"/>
<path d="M405.998 165.7C405.898 165.7 405.898 165.7 405.798 165.7L403.898 166.8C403.998 166.8 403.998 166.8 404.098 166.8L405.998 165.7Z" fill="#3E3D43"/>
<path d="M405.203 167.2L405.303 167.3L407.203 166.2L407.103 166.1L405.203 167.2Z" fill="#3E3D43"/>
<path d="M406.898 168.7L406.998 168.8L408.898 167.7L408.798 167.6L406.898 168.7Z" fill="#3E3D43"/>
<path d="M408.5 171.4V171.5L410.4 170.4V170.3L408.5 171.4Z" fill="#3E3D43"/>
<path d="M408.102 170.5C408.102 170.5 408.102 170.6 408.202 170.6L410.102 169.5C410.102 169.5 410.102 169.4 410.002 169.4L408.102 170.5Z" fill="#3E3D43"/>
<path d="M408.797 172.5C408.797 172.6 408.797 172.6 408.797 172.7L410.697 171.6C410.697 171.5 410.697 171.5 410.697 171.4L408.797 172.5Z" fill="#3E3D43"/>
<path d="M405.2 167.2C403.1 166 401.5 167 401.5 169.3L409 173.7C408.9 171.3 407.2 168.4 405.2 167.2Z" fill="#2E2E30"/>
<path d="M405.203 169.2C404.103 168.6 403.203 169.1 403.203 170.4L407.303 172.8C407.203 171.4 406.303 169.8 405.203 169.2Z" fill="#1D1D1F"/>
<path d="M256.403 631.1C256.403 624.8 253.803 617.8 250.003 612.7C250.103 612 250.103 611.3 250.103 610.6C250.103 601.3 244.403 590.5 237.503 586.5C234.103 584.5 231.003 584.5 228.703 586.2L224.603 588.5C221.803 590 220.003 593.6 220.003 598.9C220.003 599.6 220.003 600.4 220.103 601.1C216.303 601.8 213.703 605.8 213.703 612.1C213.703 621.4 219.403 632.2 226.303 636.2C228.603 637.5 230.803 638 232.603 637.6C234.503 640.1 236.603 642.2 238.903 643.5C242.203 645.4 245.103 645.5 247.403 644L252.203 641.2C254.703 639.7 256.403 636.1 256.403 631.1Z" fill="#009EFF"/>
<path d="M243.7 623.8C243.7 633.1 238 637.4 231.1 633.3C224.1 629.3 218.5 618.5 218.5 609.2C218.5 599.9 224.2 595.6 231.1 599.7C238.1 603.7 243.7 614.5 243.7 623.8Z" fill="#F7E041"/>
<path d="M224.906 598.3C225.706 607 231.006 616.5 237.406 620.2C239.706 621.5 241.806 621.9 243.606 621.6C242.806 612.9 237.506 603.4 231.106 599.7C228.806 598.4 226.706 598 224.906 598.3Z" fill="#E9662C"/>
<path d="M237.403 620.2C239.703 621.5 241.803 621.9 243.603 621.6C243.103 616 240.703 610.1 237.403 605.6C234.103 606.2 231.703 609.4 231.203 614.4C233.003 616.9 235.203 618.9 237.403 620.2Z" fill="#D36BC5"/>
<path d="M237.402 620.2C235.102 618.9 233.002 616.9 231.202 614.4C231.102 615.1 231.102 615.8 231.102 616.5C231.102 622.7 233.602 629.6 237.402 634.7C241.202 634 243.702 630 243.702 623.8C243.702 623.1 243.702 622.3 243.602 621.6C241.802 621.9 239.702 621.5 237.402 620.2Z" fill="#A4C639"/>
<path d="M245.2 613.4C245.2 622.7 239.5 627 232.6 622.9C225.6 618.9 220 608.1 220 598.8C220 589.5 225.7 585.2 232.6 589.3C239.6 593.3 245.2 604.1 245.2 613.4Z" fill="#FF3400"/>
<path d="M237.4 586.5C234 584.5 230.9 584.5 228.6 586.2L224.5 588.5C226.7 587.4 229.5 587.5 232.5 589.3C239.5 593.3 245.1 604.1 245.1 613.4C245.1 614.1 245.1 614.8 245 615.5L249.8 612.7C249.9 612 249.9 611.3 249.9 610.6C250.1 601.3 244.4 590.5 237.4 586.5Z" fill="#750601"/>
<path d="M238.903 626.6C238.903 635.9 233.203 640.2 226.303 636.1C219.303 632.1 213.703 621.3 213.703 612C213.703 602.7 219.403 598.4 226.303 602.5C233.203 606.5 238.903 617.3 238.903 626.6Z" fill="#FFCA00"/>
<path d="M220.102 601.1C220.902 609.8 226.202 619.3 232.602 623C234.902 624.3 237.002 624.7 238.802 624.4C238.002 615.7 232.702 606.2 226.302 602.5C224.002 601.2 221.902 600.8 220.102 601.1Z" fill="#FF6936"/>
<path d="M251.505 633.9C251.505 643.2 245.805 647.5 238.905 643.4C231.905 639.4 226.305 628.6 226.305 619.3C226.305 610 232.005 605.7 238.905 609.8C245.905 613.8 251.505 624.6 251.505 633.9Z" fill="#00BAFF"/>
<path d="M226.406 617.2C228.206 619.6 230.306 621.7 232.606 623C239.006 626.7 244.306 623.4 245.106 615.6C243.306 613.2 241.106 611.1 238.906 609.8C232.506 606.1 227.206 609.4 226.406 617.2Z" fill="#604EE8"/>
<path d="M232.606 623C234.906 624.3 237.006 624.7 238.806 624.4C238.306 618.8 235.906 612.9 232.606 608.4C229.306 609 226.906 612.2 226.406 617.2C228.206 619.7 230.306 621.7 232.606 623Z" fill="#EA6E8A"/>
<path d="M232.605 623C230.305 621.7 228.205 619.7 226.405 617.2C226.305 617.9 226.305 618.6 226.305 619.3C226.305 625.5 228.805 632.4 232.605 637.5C236.405 636.8 238.905 632.8 238.905 626.6C238.905 625.9 238.905 625.1 238.805 624.4C237.005 624.7 234.805 624.3 232.605 623Z" fill="#408E0D"/>
<path d="M456.802 712L425.602 694L423.102 695.5V736L454.302 754L456.802 752.5V712Z" fill="#BBD4DA"/>
<path d="M423.203 736V695.5L454.403 713.5V754.1L423.203 736Z" fill="#E5EFF2"/>
<path d="M423.203 695.5L425.703 694L456.903 712L454.403 713.5L423.203 695.5Z" fill="#D6E5E9"/>
<path d="M427.102 702.2L450.502 715.7V747.2L427.102 733.7V702.2Z" fill="#008BBF"/>
<path d="M427.102 723.1V702.2L450.502 715.7V736.6L427.102 723.1Z" fill="#33C8FF"/>
<path d="M427.102 723.1L434.302 718.9L439.402 727.3L444.402 726.4L450.602 736.6L427.102 723.1Z" fill="#408E0D"/>
<path d="M446.697 721.9C446.697 724.6 444.997 725.9 442.997 724.7C440.897 723.5 439.297 720.3 439.297 717.6C439.297 714.9 440.997 713.6 442.997 714.8C444.997 716 446.697 719.2 446.697 721.9Z" fill="#FFCA00"/>
<path d="M586.3 612.9L566.2 601.4C565.4 600.9 564.5 601 563.8 601.4L560.5 603.4C559.6 603.7 559 604.5 559 605.6V644.4C559 646.4 560.1 648.3 561.8 649.3L581.9 660.8C582.6 661.2 583.4 661.2 584.1 660.9L587.9 658.7C588.6 658.3 589.1 657.6 589.1 656.7V618C589.1 615.7 588 613.9 586.3 612.9Z" fill="#9F9EAD"/>
<path d="M558.898 644.3V605.5C558.898 603.7 560.898 602.6 562.398 603.5L582.498 615C584.298 616 585.298 617.9 585.298 619.9V658.6C585.298 660.4 583.298 661.5 581.798 660.6L561.698 649.1C559.998 648.2 558.898 646.3 558.898 644.3Z" fill="#E3E3E3"/>
<path d="M561.398 606.8L581.998 618.5V653.5L561.398 641.5V606.8Z" fill="#00BAFF"/>
<path d="M565.197 611L567.097 612.1C567.797 612.5 568.197 613.3 568.197 614.1V617.2C568.197 617.9 567.397 618.3 566.797 618L564.897 616.9C564.197 616.5 563.797 615.7 563.797 614.9V611.8C563.797 611.1 564.497 610.7 565.197 611Z" fill="#FF3400"/>
<path d="M570.9 614.3L572.8 615.4C573.5 615.8 573.9 616.6 573.9 617.4V620.5C573.9 621.2 573.1 621.6 572.5 621.3L570.6 620.2C569.9 619.8 569.5 619 569.5 618.2V615.1C569.5 614.4 570.3 614 570.9 614.3Z" fill="#604EE8"/>
<path d="M576.697 617.6L578.597 618.7C579.297 619.1 579.697 619.9 579.697 620.7V623.8C579.697 624.5 578.897 624.9 578.297 624.6L576.397 623.5C575.697 623.1 575.297 622.3 575.297 621.5V618.4C575.297 617.6 575.997 617.2 576.697 617.6Z" fill="#009EFF"/>
<path d="M565.197 619.4L567.097 620.5C567.797 620.9 568.197 621.7 568.197 622.5V625.6C568.197 626.3 567.397 626.7 566.797 626.4L564.897 625.3C564.197 624.9 563.797 624.1 563.797 623.3V620.2C563.797 619.5 564.497 619.1 565.197 619.4Z" fill="#408E0D"/>
<path d="M570.9 622.7L572.8 623.8C573.5 624.2 573.9 625 573.9 625.8V628.9C573.9 629.6 573.1 630 572.5 629.7L570.6 628.6C569.9 628.2 569.5 627.4 569.5 626.6V623.5C569.5 622.8 570.3 622.4 570.9 622.7Z" fill="#FFCA00"/>
<path d="M576.697 626L578.597 627.1C579.297 627.5 579.697 628.3 579.697 629.1V632.2C579.697 632.9 578.897 633.3 578.297 633L576.397 631.9C575.697 631.5 575.297 630.7 575.297 629.9V626.8C575.297 626.1 576.097 625.7 576.697 626Z" fill="#FF6936"/>
<path d="M565.095 627.9L566.995 629C567.695 629.4 568.095 630.2 568.095 631V634.1C568.095 634.8 567.295 635.2 566.695 634.9L564.795 633.8C564.095 633.4 563.695 632.6 563.695 631.8V628.7C563.795 628 564.495 627.6 565.095 627.9Z" fill="#009EFF"/>
<path d="M570.9 631.2L572.8 632.3C573.5 632.7 573.9 633.5 573.9 634.3V637.4C573.9 638.1 573.1 638.5 572.5 638.2L570.6 637.1C569.9 636.7 569.5 635.9 569.5 635.1V632C569.5 631.3 570.3 630.8 570.9 631.2Z" fill="#FF3400"/>
<path d="M576.697 634.5L578.597 635.6C579.297 636 579.697 636.8 579.697 637.6V640.7C579.697 641.4 578.897 641.8 578.297 641.5L576.397 640.4C575.697 640 575.297 639.2 575.297 638.4V635.3C575.297 634.5 576.097 634.1 576.697 634.5Z" fill="#604EE8"/>
<path d="M565.095 636.3L566.995 637.4C567.695 637.8 568.095 638.6 568.095 639.4V642.5C568.095 643.2 567.295 643.6 566.695 643.3L564.795 642.2C564.095 641.8 563.695 641 563.695 640.2V637.1C563.795 636.4 564.495 636 565.095 636.3Z" fill="#FFCA00"/>
<path d="M570.9 639.6L572.8 640.7C573.5 641.1 573.9 641.9 573.9 642.7V645.8C573.9 646.5 573.1 646.9 572.5 646.6L570.6 645.5C569.9 645.1 569.5 644.3 569.5 643.5V640.4C569.5 639.7 570.3 639.3 570.9 639.6Z" fill="#408E0D"/>
<path d="M576.697 642.9L578.597 644C579.297 644.4 579.697 645.2 579.697 646V649.1C579.697 649.8 578.897 650.2 578.297 649.9L576.397 648.8C575.697 648.4 575.297 647.6 575.297 646.8V643.7C575.297 643 576.097 642.5 576.697 642.9Z" fill="#009EFF"/>
<path d="M572.798 651.9C572.798 653.2 571.998 653.8 571.098 653.2C570.098 652.6 569.398 651.1 569.398 649.9C569.398 648.6 570.198 648 571.098 648.6C571.998 649.2 572.798 650.7 572.798 651.9Z" fill="#D1D1D1"/>
<path opacity="0.1" d="M561.398 637.2L581.998 621.6V618.5L567.198 610.1L561.398 614.5V637.2V637.2Z" fill="white"/>
<path opacity="0.1" d="M582 645.7V630L564.5 643.2L576.2 650L582 645.7Z" fill="white"/>
<path d="M554 407L541 414.5V422L567 437L592.8 422.1V414.5L580 407.1L554 407Z" fill="#8475FF"/>
<path d="M567.102 377L592.902 392V399.6L567.102 414.5L541.102 399.5V392L567.102 377Z" fill="#FF9134"/>
<path d="M567.102 377L541.102 392L567.102 407L592.902 392L567.102 377Z" fill="#FF6936"/>
<path d="M567.102 429.5V437L592.902 422.1V414.5L567.102 429.5Z" fill="#30469A"/>
<path d="M567.1 414.6L554 407L541 414.5L567 429.5L592.8 414.5L580 407.1L567.1 414.6Z" fill="#604EE8"/>
<path d="M567.102 407.1V414.6L592.902 399.7V392L567.102 407.1Z" fill="#FF4404"/>
<path d="M541.102 392L567.102 407V414.5L541.102 399.5V392Z" fill="#FF9134"/>
<path d="M93.8031 136L62.5031 118L60.2031 119.3V159.9L91.5031 178L93.8031 176.7V136V136Z" fill="#BBD4DA"/>
<path d="M60.2031 159.9V119.3L91.5031 137.3V177.9L60.2031 159.9Z" fill="#E5EFF2"/>
<path d="M60.2031 119.3L62.5031 118L93.8031 136L91.5031 137.4L60.2031 119.3Z" fill="#D6E5E9"/>
<path d="M62.2969 136.5L73.9969 143.3V159.2L62.2969 152.4V136.5Z" fill="#BBD4DA"/>
<path d="M91.5031 148.7L60.2031 130.7V119.4L91.5031 137.4V148.7Z" fill="#604EE8"/>
<path d="M86.6016 141.8L65.1016 129V126.1L86.7016 138.9V141.8H86.6016Z" fill="white"/>
<path d="M87.3984 153L75.8984 146.4V144.3L87.3984 150.9V153Z" fill="#969698"/>
<path d="M87.3984 157.5L75.8984 150.9V148.8L87.3984 155.4V157.5Z" fill="#969698"/>
<path d="M87.3984 162L75.8984 155.4V153.3L87.3984 159.9V162Z" fill="#969698"/>
<path d="M87.3984 166.5L75.8984 159.9V157.8L87.3984 164.4V166.5Z" fill="#969698"/>
<path d="M87.3969 171.2L62.2969 156.7V154.6L87.3969 169.1V171.2Z" fill="#969698"/>
</svg>
