<?xml version="1.0" encoding="utf-8"?>
<!-- Generator: Adobe Illustrator 26.0.2, SVG Export Plug-In . SVG Version: 6.00 Build 0)  -->
<svg version="1.1" id="Layer_1" xmlns="http://www.w3.org/2000/svg" xmlns:xlink="http://www.w3.org/1999/xlink" x="0px" y="0px"
	 viewBox="0 0 735 1157" style="enable-background:new 0 0 735 1157;" xml:space="preserve">
<style type="text/css">
	.st0{clip-path:url(#SVGID_00000162326828082907119130000010702060229321210282_);}
	.st1{fill:#FFFFFF;}
	.st2{fill:none;stroke:#4D4D4D;stroke-width:2.37;stroke-miterlimit:10;}
	.st3{fill:none;stroke:#4D4D4D;stroke-width:1.39;stroke-linecap:round;stroke-miterlimit:10;}
	.st4{fill:none;stroke:#262626;stroke-width:0.7;stroke-miterlimit:10;}
	.st5{fill:none;stroke:#4D4D4D;stroke-width:2.09;stroke-miterlimit:10;}
	.st6{fill:none;stroke:#4D4D4D;stroke-width:2.0959;stroke-miterlimit:10;}
	.st7{fill:#FE90C7;}
	.st8{fill:#FE6BB4;}
	.st9{fill:#E06AE9;}
	.st10{fill:#7A18D5;}
	.st11{fill:#7E44FE;fill-opacity:0.1;}
	.st12{fill:#E3E4E9;}
	.st13{fill:#4D4D4D;}
	.st14{fill:#B3B3B3;}
	.st15{fill:none;stroke:#4D4D4D;stroke-width:1.39;stroke-miterlimit:10;}
	.st16{fill:none;stroke:#808490;stroke-width:1.39;stroke-miterlimit:10;}
	.st17{clip-path:url(#SVGID_00000023256872456125466280000010990248137783829431_);}
	.st18{fill:#518282;}
	.st19{fill:#749B9B;}
	.st20{fill:#FFCA00;}
	.st21{opacity:0.3;fill:#FFFFFF;enable-background:new    ;}
	.st22{fill:#CAA414;}
	.st23{clip-path:url(#SVGID_00000007408065720494682260000002825198691145601964_);}
	.st24{fill:#FEDA44;}
	.st25{fill:#EEBF00;}
	.st26{fill:#FECE00;}
	.st27{clip-path:url(#SVGID_00000090264882173631905560000007637619749200196777_);}
	.st28{fill:#1D1D1F;}
	.st29{fill:#2E2E30;}
	.st30{fill:#3E3D43;}
	.st31{fill:#E0E0E2;}
	.st32{fill:#77767E;}
	.st33{fill:#D8D8DA;}
	.st34{fill:#57565C;}
	.st35{fill:#ACABB1;}
	.st36{fill:#59A4FF;}
	.st37{clip-path:url(#SVGID_00000029038974211123841530000010440678095481133958_);}
	.st38{fill:#009EFF;}
	.st39{fill:#F7E041;}
	.st40{fill:#E9662C;}
	.st41{fill:#D36BC5;}
	.st42{fill:#A4C639;}
	.st43{fill:#FF3400;}
	.st44{fill:#750601;}
	.st45{fill:#FF6936;}
	.st46{fill:#00BAFF;}
	.st47{fill:#604EE8;}
	.st48{fill:#EA6E8A;}
	.st49{fill:#408E0D;}
	.st50{fill:#BBD4DA;}
	.st51{fill:#E5EFF2;}
	.st52{fill:#D6E5E9;}
	.st53{fill:#008BBF;}
	.st54{fill:#33C8FF;}
	.st55{clip-path:url(#SVGID_00000099647939011267925480000004910504533359274943_);}
	.st56{fill:#9F9EAD;}
	.st57{fill:#E3E3E3;}
	.st58{fill:#D1D1D1;}
	.st59{opacity:0.1;fill:#FFFFFF;enable-background:new    ;}
	.st60{fill:#8475FF;}
	.st61{fill:#FF9134;}
	.st62{fill:#30469A;}
	.st63{fill:#FF4404;}
	.st64{fill:#969698;}
</style>
<g>
	<defs>
		<polygon id="SVGID_1_" points="0.7,0.1 703.4,369.3 734.8,1156.4 32.1,787.2 		"/>
	</defs>
	<clipPath id="SVGID_00000028283446161628492730000005784215160199309719_">
		<use xlink:href="#SVGID_1_"  style="overflow:visible;"/>
	</clipPath>
	<g style="clip-path:url(#SVGID_00000028283446161628492730000005784215160199309719_);">
		<path class="st1" d="M703.4,369.3L0.7,0.1l31.4,787.2l702.7,369.2L703.4,369.3z"/>
		<path class="st2" d="M632.9,721.3c6.5,164.4-107.1,235.1-253.8,158"/>
		<path class="st3" d="M318.6,267.5c12.1,4.5,24.4,10,36.8,16.5c146.7,77.1,270.9,272.8,277.5,437.1"/>
		<path class="st2" d="M101.6,442.1c-6-150.4,88.6-222.4,217-174.6"/>
		<path class="st4" d="M379.1,879.3c-146.7-77.1-270.9-272.8-277.5-437.1"/>
		<g>
			<path class="st1" d="M482.1,963.5c26.4,13.9,46.8,1.1,45.6-28.4c-1.2-29.5-23.5-64.7-49.9-78.6c-26.4-13.9-46.8-1.1-45.6,28.4
				C433.4,914.5,455.7,949.7,482.1,963.5z"/>
			<path class="st5" d="M482.1,963.5c26.4,13.9,46.8,1.1,45.6-28.4c-1.2-29.5-23.5-64.7-49.9-78.6c-26.4-13.9-46.8-1.1-45.6,28.4
				C433.4,914.5,455.7,949.7,482.1,963.5z"/>
		</g>
		<g>
			<path class="st1" d="M278.9,856.8c26.4,13.9,46.8,1.1,45.6-28.4c-1.2-29.5-23.5-64.7-49.9-78.6c-26.4-13.9-46.8-1.1-45.6,28.4
				C230.2,807.7,252.5,842.9,278.9,856.8z"/>
			<path class="st5" d="M278.9,856.8c26.4,13.9,46.8,1.1,45.6-28.4c-1.2-29.5-23.5-64.7-49.9-78.6c-26.4-13.9-46.8-1.1-45.6,28.4
				C230.2,807.7,252.5,842.9,278.9,856.8z"/>
		</g>
		<g>
			<path class="st1" d="M128.6,620.5c26.4,13.9,46.8,1.1,45.6-28.4c-1.2-29.5-23.5-64.7-49.9-78.6c-26.4-13.9-46.8-1.1-45.6,28.4
				S102.2,606.6,128.6,620.5z"/>
			<path class="st5" d="M128.6,620.5c26.4,13.9,46.8,1.1,45.6-28.4c-1.2-29.5-23.5-64.7-49.9-78.6c-26.4-13.9-46.8-1.1-45.6,28.4
				S102.2,606.6,128.6,620.5z"/>
		</g>
		<g>
			<path class="st1" d="M119.3,392.5c26.4,13.9,46.8,1.1,45.6-28.4c-1.2-29.5-23.5-64.7-49.9-78.6c-26.4-13.9-46.8-1.1-45.6,28.4
				C70.6,343.4,92.9,378.6,119.3,392.5z"/>
			<path class="st5" d="M119.3,392.5c26.4,13.9,46.8,1.1,45.6-28.4c-1.2-29.5-23.5-64.7-49.9-78.6c-26.4-13.9-46.8-1.1-45.6,28.4
				C70.6,343.4,92.9,378.6,119.3,392.5z"/>
		</g>
		<g>
			<path class="st1" d="M493.4,415.8c17.8-11.1,16.5-45-3-75.7s-49.7-46.6-67.5-35.5c-17.8,11.1-16.5,45,3,75.7
				C445.3,411,475.6,426.8,493.4,415.8z"/>
			<path class="st5" d="M493.4,415.8c17.8-11.1,16.5-45-3-75.7s-49.7-46.6-67.5-35.5c-17.8,11.1-16.5,45,3,75.7
				C445.3,411,475.6,426.8,493.4,415.8z"/>
		</g>
		<g>
			<path class="st1" d="M655.4,627.7c3.1-27-15.8-63.9-42.1-82.3s-50.1-11.5-53.1,15.5c-3.1,27,15.8,63.9,42.1,82.3
				C628.6,661.7,652.4,654.7,655.4,627.7z"/>
			<path class="st6" d="M655.4,627.7c3.1-27-15.8-63.9-42.1-82.3s-50.1-11.5-53.1,15.5c-3.1,27,15.8,63.9,42.1,82.3
				C628.6,661.7,652.4,654.7,655.4,627.7z"/>
		</g>
		<g>
			<path class="st1" d="M664.3,861.4c4.8-25.6-12.3-62.8-38.3-83c-26-20.2-50.9-15.8-55.7,9.9c-4.8,25.6,12.3,62.8,38.3,83
				C634.5,891.4,659.5,887,664.3,861.4z"/>
			<path class="st5" d="M664.3,861.4c4.8-25.6-12.3-62.8-38.3-83c-26-20.2-50.9-15.8-55.7,9.9c-4.8,25.6,12.3,62.8,38.3,83
				C634.5,891.4,659.5,887,664.3,861.4z"/>
		</g>
		<g>
			<path class="st1" d="M289.8,308.7c17.8-11.1,16.5-45-3-75.7c-19.5-30.7-49.7-46.6-67.5-35.5c-17.8,11.1-16.5,45,3,75.7
				S272,319.8,289.8,308.7z"/>
			<path class="st5" d="M289.8,308.7c17.8-11.1,16.5-45-3-75.7c-19.5-30.7-49.7-46.6-67.5-35.5c-17.8,11.1-16.5,45,3,75.7
				S272,319.8,289.8,308.7z"/>
		</g>
		<g>
			<path class="st7" d="M523.8,580.7l6.8,170c0.2,5.6-0.9,10.4-3.2,14c-2.3,3.5-5.7,5.7-10,6.2l-128.1,16c-4.2,0.5-9.1-0.6-14.1-3.2
				c-5-2.6-10-6.7-14.4-11.7l-60-68.5l-74.9-85.6c-4.4-5.1-8.2-11-10.9-17.1c-2.7-6.2-4.2-12.3-4.4-17.9l-6.8-170
				c-0.2-5.6,0.9-10.4,3.2-13.9c2.3-3.5,5.7-5.7,9.9-6.2l128.1-16c4.2-0.5,9.1,0.6,14.1,3.2c5,2.6,10,6.7,14.4,11.7l107.1,122.4
				l27.7,31.7c4.4,5,8.2,10.9,10.9,17.1C522,568.9,523.5,575.1,523.8,580.7z"/>
		</g>
		<path class="st8" d="M480.7,513.9L300.9,703.3l-74.9-85.6c-4.4-5.1-8.2-11-10.9-17.1c-2.7-6.2-4.2-12.3-4.4-17.9l-1.4-35
			l155.8-164.1c3,2.2,5.8,4.9,8.5,7.9L480.7,513.9z"/>
		<path class="st9" d="M513,741l-6.4-161.7c-0.1-3-0.9-6.3-2.4-9.6s-3.4-6.5-5.8-9.2L370.1,414c-2.4-2.7-5-4.9-7.7-6.3
			c-2.7-1.4-5.3-2-7.5-1.7l-121.8,15.2c-2.3,0.3-4.1,1.4-5.3,3.3c-1.2,1.9-1.8,4.5-1.7,7.5l6.4,161.7c0.1,3,0.9,6.3,2.4,9.6
			c1.4,3.3,3.4,6.5,5.8,9.2L369,759c2.4,2.7,5,4.9,7.7,6.3c2.7,1.4,5.3,2,7.5,1.7L506,751.8c2.3-0.3,4.1-1.4,5.3-3.3
			C512.6,746.6,513.1,744,513,741z"/>
		<path class="st10" d="M504.6,574.9l6.4,161.7c0.1,3-0.5,5.6-1.7,7.5c-1.2,1.9-3.1,3-5.3,3.3l-121.8,15.2c-2.3,0.3-4.9-0.3-7.5-1.7
			c-2.7-1.4-5.3-3.6-7.7-6.3l-72.8-83.2L238.8,608c-2.4-2.7-4.4-5.9-5.8-9.2s-2.3-6.6-2.4-9.6l-6.4-161.7c-0.1-3,0.5-5.6,1.7-7.5
			c1.2-1.9,3.1-3,5.3-3.3l80.9-10.1l40.9-5.1c2.3-0.3,4.9,0.3,7.5,1.7c2.7,1.4,5.3,3.6,7.7,6.3l83.5,95.4l44.7,51.1
			c2.4,2.7,4.4,5.9,5.8,9.2S504.5,571.9,504.6,574.9z"/>
		<path class="st1" d="M281,456.7l165.1,86.7l-1,21.5l-160.8-84.9L281,456.7z"/>
		<path class="st1" d="M316.4,592.6l55.8,76.1l2.6,14.9l-1.6,12l-72.1-98.4L316.4,592.6z"/>
		<path class="st1" d="M315,580.7l1.5,12.3l-5.8,5l-9.5-0.7l-6.2-43L315,580.7z"/>
		<path class="st1" d="M422.9,649.2l-50.7,19.5l-0.5,12.8l1.6,14.2l66.1-26.3l-5-22.5L422.9,649.2z"/>
		<path class="st1" d="M340.8,583.2l67.4,35.4l-5.9,16.1l-65.5-34.4L340.8,583.2z"/>
		<path class="st1" d="M284.2,479.4l19.7,8.8l5.7,53.5l-16.6,0.1L284.2,479.4z"/>
		<path class="st1" d="M293.1,541.8l16.4-0.7l32.7,43l-5.4,16.1L293.1,541.8z"/>
		<path class="st1" d="M293.1,541.8l16.4-0.7l32.7,43l-5.4,16.1L293.1,541.8z"/>
		<path class="st1" d="M428,553.6l17.2,9.2l-2.5,51.1l-16.5-23.2L428,553.6z"/>
		<polygon class="st1" points="333.7,529.7 401.6,565.4 402.3,585.1 334.5,549.4 		"/>
		<path class="st1" d="M401.6,565.4l40.1,56.1l-14.4,3.9l-36.6-50.2L401.6,565.4z"/>
		<path class="st1" d="M441.7,621.5l-2.2,47.9l-16.5-20.2l0.9-38.1L441.7,621.5z"/>
		<path class="st1" d="M312.4,538.6l21.2-8.8l12.4,19.1l-19.3,8L312.4,538.6z"/>
		<path class="st1" d="M396.1,612.1l12.4-5.1l11.5,17.4l-17.7,10.2L396.1,612.1z"/>
		<path class="st11" d="M451.3,504.7L293.8,671l-55.4-63.3c-2.4-2.7-4.4-5.9-5.8-9.2c-1.4-3.3-2.3-6.6-2.4-9.6l-3.7-92.6l85.2-89.9
			l40.9-5.1c2.3-0.3,4.9,0.3,7.5,1.7c2.7,1.4,5.3,3.6,7.7,6.3L451.3,504.7z"/>
		<path class="st12" d="M432.6,492.2c-0.2,1.7-0.9,3-2,3.7c-1.1,0.7-2.6,0.8-4.2,0.3c1.6,1.2,3.1,2.9,4.4,4.8c1.2,1.9,2,4,2.4,6
			c0.2-1.7,0.9-2.9,2-3.7c1.1-0.7,2.5-0.8,4.1-0.4c-1.6-1.2-3.1-2.9-4.3-4.8C433.8,496.3,433,494.2,432.6,492.2z"/>
		<path class="st1" d="M417.1,453.3c-0.4,2.8-1.5,5-3.4,6.2c-1.9,1.2-4.3,1.4-7,0.6c2.8,2.1,5.3,4.9,7.4,8.2c2,3.3,3.4,6.8,4,10.1
			c0.4-2.8,1.5-5,3.4-6.2c1.9-1.2,4.3-1.4,7-0.6c-2.8-2.1-5.3-4.9-7.4-8.2C419.1,460.2,417.7,456.6,417.1,453.3z"/>
		<path class="st1" d="M268.2,653.2c6,3.2,10.7,0.1,10.4-6.8c-0.3-6.9-5.4-15.1-11.4-18.3c-6-3.2-10.7-0.1-10.4,6.8
			S262.2,650,268.2,653.2z"/>
		<path class="st13" d="M151,631.1c2.1,1.1,3.8,0.1,3.7-2.3c-0.1-2.4-1.9-5.2-4-6.3s-3.8-0.1-3.7,2.3
			C147.1,627.1,148.9,629.9,151,631.1z"/>
		<path class="st13" d="M438.9,904c0,1-0.2,1.8-0.6,2.4c-0.5,0.6-1.1,0.8-1.9,0.8c-0.8,0-1.7-0.4-2.6-1.1c-0.9-0.6-1.7-1.5-2.3-2.6
			c-0.6-1-1.1-2.1-1.3-3.2c-0.2-1.1-0.2-2,0.1-2.7c0.3-0.7,0.8-1.2,1.6-1.4s1.6,0,2.4,0.5c1.2,0.6,2.3,1.7,3.2,3.1
			C438.4,901.2,438.9,902.7,438.9,904z"/>
		<path class="st13" d="M628,658c0,0.9-0.2,1.6-0.6,2.1c-0.4,0.5-1,0.7-1.7,0.7c-0.7,0-1.5-0.4-2.2-0.9c-0.8-0.6-1.5-1.3-2-2.2
			c-0.6-0.9-1-1.9-1.2-2.8c-0.2-0.9-0.1-1.8,0.1-2.4s0.7-1.1,1.4-1.2c0.6-0.1,1.4,0,2.1,0.4c0.5,0.3,1,0.6,1.5,1.1
			c0.5,0.5,0.9,1,1.3,1.6c0.4,0.6,0.7,1.2,0.9,1.9C627.9,656.8,628,657.4,628,658z"/>
		<path class="st13" d="M501.4,410.9c1.8,0.9,3.2,0.1,3.1-1.9c-0.1-2-1.6-4.4-3.4-5.4c-1.8-1-3.2-0.1-3.1,1.9
			S499.6,409.9,501.4,410.9z"/>
		<path class="st13" d="M550.8,472.1c0,0.8-0.2,1.5-0.5,1.9c-0.4,0.5-0.9,0.7-1.6,0.6c-0.7,0-1.4-0.4-2.1-0.9
			c-0.7-0.5-1.4-1.3-1.9-2.1c-0.5-0.8-0.9-1.8-1.1-2.6c-0.2-0.9-0.1-1.7,0.1-2.3c0.2-0.6,0.7-1,1.3-1.1c0.6-0.1,1.3,0,2,0.4
			c0.5,0.3,1,0.6,1.4,1c0.5,0.4,0.9,1,1.2,1.5c0.4,0.6,0.6,1.2,0.8,1.7C550.6,471,550.8,471.6,550.8,472.1z"/>
		<path class="st13" d="M567.8,501.2c0,0.8-0.2,1.5-0.5,2c-0.4,0.5-1,0.7-1.6,0.7c-0.7,0-1.4-0.4-2.2-0.9c-0.7-0.5-1.4-1.3-2-2.2
			c-0.5-0.9-0.9-1.8-1.1-2.7c-0.2-0.9-0.1-1.7,0.1-2.3s0.7-1,1.3-1.2c0.6-0.1,1.3,0,2.1,0.4c0.5,0.3,1,0.6,1.5,1.1
			c0.5,0.5,0.9,1,1.3,1.6c0.4,0.6,0.7,1.2,0.9,1.8C567.7,500,567.8,500.6,567.8,501.2z"/>
		<path class="st13" d="M174.3,274.8c2.2,1.2,3.9,0.1,3.8-2.4s-2-5.4-4.2-6.6c-2.2-1.2-3.9-0.1-3.8,2.4
			C170.2,270.6,172,273.6,174.3,274.8z"/>
		<path class="st13" d="M110.5,385.3c0,1.2-0.2,2.3-0.8,3c-0.6,0.7-1.4,1.1-2.4,1c-1-0.1-2.1-0.5-3.2-1.3c-1.1-0.8-2.1-1.9-2.9-3.2
			c-0.8-1.3-1.4-2.7-1.7-4s-0.2-2.5,0.2-3.5c0.4-0.9,1.1-1.5,2-1.7c0.9-0.2,2,0,3.1,0.6c1.5,0.8,2.9,2.2,4,3.9
			C109.7,381.7,110.4,383.6,110.5,385.3z"/>
		<path class="st13" d="M105.5,408.2c0,0.8-0.1,1.4-0.5,1.9c-0.4,0.4-0.9,0.7-1.5,0.6c-0.6,0-1.3-0.3-2-0.8s-1.3-1.2-1.8-2
			c-0.5-0.8-0.9-1.7-1-2.5c-0.2-0.8-0.1-1.6,0.1-2.2c0.2-0.6,0.7-1,1.2-1.1c0.6-0.1,1.2,0,1.9,0.4c0.5,0.2,0.9,0.6,1.4,1
			c0.4,0.4,0.8,0.9,1.2,1.4c0.3,0.5,0.6,1.1,0.8,1.7S105.4,407.6,105.5,408.2z"/>
		<path class="st13" d="M357.1,288.2c1.6,0.9,2.9,0.1,2.8-1.8c-0.1-1.8-1.5-4-3.1-4.9c-1.6-0.9-2.9-0.1-2.8,1.8
			C354.1,285.2,355.5,287.3,357.1,288.2z"/>
		<path class="st13" d="M340.8,276.9c0,0.5-0.1,0.9-0.3,1.2c-0.2,0.3-0.6,0.4-1,0.4c-0.4,0-0.9-0.2-1.3-0.6
			c-0.5-0.3-0.9-0.8-1.2-1.3c-0.3-0.5-0.6-1.1-0.7-1.7c-0.1-0.5-0.1-1,0.1-1.4c0.2-0.4,0.4-0.6,0.8-0.7c0.4-0.1,0.8,0,1.3,0.2
			c0.3,0.2,0.6,0.4,0.9,0.7c0.3,0.3,0.5,0.6,0.8,1s0.4,0.7,0.5,1.1C340.8,276.2,340.8,276.6,340.8,276.9z"/>
		<path class="st13" d="M596.6,864c1.9,1,3.3,0.1,3.2-2c-0.1-2.1-1.7-4.6-3.5-5.6c-1.9-1-3.3-0.1-3.2,2
			C593.2,860.5,594.8,863,596.6,864z"/>
		<path class="st13" d="M586.6,875.4c1.4,0.7,2.5,0.1,2.4-1.5c-0.1-1.5-1.2-3.4-2.6-4.1c-1.4-0.7-2.5-0.1-2.4,1.5
			C584,872.8,585.2,874.7,586.6,875.4z"/>
		<path class="st13" d="M539.2,865.2l-29.1-15.3l-7.2-11.3l-1.3-32.6l6.6-4.1l29.1,15.3l7.2,11.3l1.3,32.6L539.2,865.2z"/>
		<path class="st14" d="M512,800.4l-1.6-0.8l0.2,5.2l1.6,0.8L512,800.4z"/>
		<path class="st14" d="M515.8,802.4l-1.6-0.8l0.2,5.2l1.6,0.8L515.8,802.4z"/>
		<path class="st14" d="M519.6,804.4l-1.6-0.8l0.2,5.2l1.6,0.8L519.6,804.4z"/>
		<path class="st14" d="M523.4,806.4l-1.6-0.8l0.2,5.2l1.6,0.8L523.4,806.4z"/>
		<path class="st14" d="M527.2,808.4l-1.6-0.8l0.2,5.2l1.6,0.8L527.2,808.4z"/>
		<path class="st14" d="M531,810.4l-1.6-0.8l0.2,5.2l1.6,0.8L531,810.4z"/>
		<path class="st14" d="M534.7,812.3l-1.6-0.8l0.2,5.2l1.6,0.8L534.7,812.3z"/>
		<path class="st14" d="M514,850.3l-1.6-0.8l0.2,5.2l1.6,0.8L514,850.3z"/>
		<path class="st14" d="M517.8,852.3l-1.6-0.8l0.2,5.2l1.6,0.8L517.8,852.3z"/>
		<path class="st14" d="M521.6,854.3l-1.6-0.8l0.2,5.2l1.6,0.8L521.6,854.3z"/>
		<path class="st14" d="M525.4,856.2l-1.6-0.8l0.2,5.2l1.6,0.8L525.4,856.2z"/>
		<path class="st14" d="M529.1,858.2l-1.6-0.8l0.2,5.2l1.6,0.8L529.1,858.2z"/>
		<path class="st14" d="M532.9,860.2l-1.6-0.8l0.2,5.2l1.6,0.8L532.9,860.2z"/>
		<path class="st14" d="M536.7,862.2l-1.6-0.8l0.2,5.2l1.6,0.8L536.7,862.2z"/>
		<path class="st14" d="M547.8,834.6l-0.1-1.7l-4.7-2.5l0.1,1.7L547.8,834.6z"/>
		<path class="st14" d="M548,838.8l-0.1-1.7l-4.7-2.5l0.1,1.7L548,838.8z"/>
		<path class="st14" d="M548.2,843.1l-0.1-1.7l-4.7-2.5l0.1,1.7L548.2,843.1z"/>
		<path class="st14" d="M548.3,847.3l-0.1-1.7l-4.7-2.5l0.1,1.7L548.3,847.3z"/>
		<path class="st14" d="M548.5,851.6l-0.1-1.7l-4.7-2.5l0.1,1.7L548.5,851.6z"/>
		<path class="st14" d="M548.7,855.8l-0.1-1.7l-4.7-2.5l0.1,1.7L548.7,855.8z"/>
		<path class="st14" d="M548.8,860l-0.1-1.7l-4.7-2.5l0.1,1.7L548.8,860z"/>
		<path class="st14" d="M503.3,811.2l-0.1-1.7l-4.7-2.5l0.1,1.7L503.3,811.2z"/>
		<path class="st14" d="M503.5,815.5l-0.1-1.7l-4.7-2.5l0.1,1.7L503.5,815.5z"/>
		<path class="st14" d="M503.7,819.7l-0.1-1.7l-4.7-2.5l0.1,1.7L503.7,819.7z"/>
		<path class="st14" d="M503.8,823.9l-0.1-1.7l-4.7-2.5l0.1,1.7L503.8,823.9z"/>
		<path class="st14" d="M504,828.2l-0.1-1.7l-4.7-2.5l0.1,1.7L504,828.2z"/>
		<path class="st14" d="M504.1,832.4l-0.1-1.7l-4.7-2.5l0.1,1.7L504.1,832.4z"/>
		<path class="st14" d="M504.3,836.6l-0.1-1.7l-4.7-2.5l0.1,1.7L504.3,836.6z"/>
		<path class="st15" d="M542.7,862.9l18.5,29.1"/>
		<path class="st15" d="M486.8,774.9l18.5,29.1"/>
		<path class="st13" d="M563.8,893.7c0,0.6-0.1,1.2-0.4,1.5c-0.3,0.4-0.7,0.6-1.2,0.5c-0.5,0-1.1-0.3-1.6-0.7
			c-0.6-0.4-1.1-1-1.5-1.6c-0.4-0.7-0.7-1.4-0.8-2c-0.1-0.7-0.1-1.3,0.1-1.7c0.2-0.5,0.5-0.8,1-0.8c0.5-0.1,1,0,1.6,0.3
			c0.7,0.4,1.4,1.1,2,1.9C563.5,892,563.8,892.9,563.8,893.7z"/>
		<path class="st13" d="M489.6,776.8c0,0.6-0.1,1.1-0.4,1.5c-0.3,0.3-0.7,0.5-1.2,0.5c-0.5,0-1-0.2-1.6-0.6c-0.5-0.4-1-0.9-1.4-1.6
			c-0.4-0.6-0.7-1.3-0.8-2c-0.1-0.7-0.1-1.2,0.1-1.7c0.2-0.5,0.5-0.8,0.9-0.9c0.4-0.1,0.9,0,1.5,0.2c0.7,0.4,1.5,1.1,2,1.9
			C489.2,775,489.6,775.9,489.6,776.8z"/>
		<path class="st9" d="M251,358.1l-58.9-31l-3.4-5.4l-0.5-12.1l3.1-2l58.9,31l3.4,5.4l0.5,12.1L251,358.1z"/>
		<path class="st12" d="M209,318.4l1.3,0.7l-0.2-4.8l-1.3-0.7L209,318.4z M205.1,316.4l1.3,0.7l-0.2-4.8l-1.3-0.7L205.1,316.4z
			 M216.7,322.5l1.3,0.7l-0.2-4.8l-1.3-0.7L216.7,322.5z M212.9,320.5l1.3,0.7l-0.2-4.8l-1.3-0.7L212.9,320.5z M201.2,314.4l1.3,0.7
			l-0.2-4.9l-1.3-0.7L201.2,314.4z M193.5,310.3l1.3,0.7l-0.2-4.8l-1.3-0.7L193.5,310.3z M197.4,312.3l1.3,0.7l-0.2-4.9l-1.3-0.7
			L197.4,312.3z M220.6,324.5l1.3,0.7l-0.2-4.8l-1.3-0.7L220.6,324.5z M243.8,336.7l1.3,0.7l-0.2-4.8l-1.3-0.7L243.8,336.7z
			 M239.9,334.7l1.3,0.7l-0.2-4.8l-1.3-0.7L239.9,334.7z M247.5,333.9l0.2,4.8l1.3,0.7l-0.2-4.8L247.5,333.9z M224.4,326.6l1.2,0.6
			l-0.2-4.8l-1.3-0.7L224.4,326.6z M228.3,328.6l1.3,0.7l-0.2-4.9l-1.3-0.7L228.3,328.6z M232.2,330.6l1.3,0.7l-0.2-4.8l-1.3-0.7
			L232.2,330.6z M236.1,332.7l1.3,0.7l-0.2-4.8l-1.3-0.7L236.1,332.7z"/>
		<path class="st12" d="M209.8,339.8l1.3,0.7l-0.2-4.9l-1.3-0.7L209.8,339.8z M206,337.8l1.3,0.7l-0.2-4.9l-1.3-0.7L206,337.8z
			 M217.6,343.9l1.3,0.7l-0.2-4.9l-1.3-0.7L217.6,343.9z M213.7,341.9l1.3,0.7l-0.2-4.9l-1.3-0.7L213.7,341.9z M202.1,335.8l1.3,0.7
			l-0.2-4.9l-1.3-0.7L202.1,335.8z M194.4,331.7l1.3,0.7l-0.2-4.9l-1.3-0.7L194.4,331.7z M198.2,333.7l1.3,0.7l-0.2-4.9l-1.3-0.7
			L198.2,333.7z M221.4,345.9l1.3,0.7l-0.2-4.9l-1.3-0.7L221.4,345.9z M244.6,358.1l1.3,0.7l-0.2-4.9l-1.3-0.7L244.6,358.1z
			 M240.8,356.1l1.3,0.7l-0.2-4.9l-1.3-0.7L240.8,356.1z M248.3,355.3l0.2,4.9l1.3,0.7l-0.2-4.9L248.3,355.3z M225.3,348l1.2,0.6
			l-0.2-4.9l-1.3-0.7L225.3,348z M229.2,350l1.3,0.7l-0.2-4.9l-1.3-0.7L229.2,350z M233,352l1.3,0.7l-0.2-4.9l-1.3-0.7L233,352z
			 M236.9,354.1l1.3,0.7l-0.2-4.9l-1.3-0.7L236.9,354.1z"/>
		<path class="st12" d="M465.1,479.4l-9-4.7l-2.6-4.1l-1-26l2.4-1.5l9,4.7l2.6,4.1l1,26L465.1,479.4z"/>
		<path class="st9" d="M483,488.8l-9-4.7l-2.6-4.1l-1-26l2.4-1.5l9,4.7l2.6,4.1l1,26L483,488.8z"/>
		<path class="st12" d="M500.8,498.2l-9-4.7l-2.6-4.1l-1-26l2.4-1.5l9,4.7l2.6,4.1l1,26L500.8,498.2z"/>
		<path class="st14" d="M187.9,483.9l-23.4-12.3l-2-3l-1-26.2l1.8-1.1l23.5,12.3l1.9,3l1,26.2L187.9,483.9z"/>
		<path class="st12" d="M163,444.9l-4.8-2.5l0,1.2l4.8,2.5L163,444.9z"/>
		<path class="st12" d="M163.2,450.2l-4.8-2.5l0,1.2l4.8,2.5L163.2,450.2z"/>
		<path class="st12" d="M163.4,455.6l-4.8-2.5l0.1,1.2l4.8,2.5L163.4,455.6z"/>
		<path class="st12" d="M163.6,460.9l-4.8-2.5l0.1,1.2l4.8,2.5L163.6,460.9z"/>
		<path class="st12" d="M163.8,466.3l-4.8-2.5l0,1.2l4.8,2.5L163.8,466.3z"/>
		<path class="st12" d="M192,460.1l-4.8-2.5l0.1,1.2l4.8,2.5L192,460.1z"/>
		<path class="st12" d="M192.2,465.5l-4.8-2.5l0,1.2l4.8,2.5L192.2,465.5z"/>
		<path class="st12" d="M192.4,470.8l-4.8-2.5l0.1,1.2l4.8,2.5L192.4,470.8z"/>
		<path class="st12" d="M192.7,476.2l-4.8-2.5l0.1,1.2l4.8,2.5L192.7,476.2z"/>
		<path class="st12" d="M192.9,481.5l-4.8-2.5l0.1,1.2l4.8,2.5L192.9,481.5z"/>
		<path class="st12" d="M185.1,454.3l-0.2-5.4l-1.1-0.6l0.2,5.4L185.1,454.3z"/>
		<path class="st12" d="M180.3,451.8l-0.2-5.4l-1.1-0.6l0.2,5.4L180.3,451.8z"/>
		<path class="st12" d="M175.6,449.3l-0.2-5.4l-1.1-0.6l0.2,5.4L175.6,449.3z"/>
		<path class="st12" d="M170.8,446.8l-0.2-5.4l-1.1-0.6l0.2,5.4L170.8,446.8z"/>
		<path class="st12" d="M166,444.3l-0.2-5.4l-1.1-0.6l0.2,5.4L166,444.3z"/>
		<path class="st12" d="M186.4,486.8l-0.2-5.4l-1.1-0.6l0.2,5.4L186.4,486.8z"/>
		<path class="st12" d="M181.6,484.3l-0.2-5.4l-1.1-0.6l0.2,5.4L181.6,484.3z"/>
		<path class="st12" d="M176.9,481.8l-0.2-5.4l-1.1-0.6l0.2,5.4L176.9,481.8z"/>
		<path class="st12" d="M172.1,479.3l-0.2-5.4l-1.1-0.6l0.2,5.4L172.1,479.3z"/>
		<path class="st12" d="M167.3,476.8l-0.2-5.4l-1.1-0.6l0.2,5.4L167.3,476.8z"/>
		<path class="st9" d="M189.8,531.2l-23.4-12.3l-2-3l-1-26.2l1.8-1.1l23.5,12.3l1.9,3l1,26.2L189.8,531.2z"/>
		<path class="st12" d="M164.9,492.2l-4.8-2.5l0.1,1.2l4.8,2.5L164.9,492.2z"/>
		<path class="st12" d="M165.1,497.5l-4.8-2.5l0,1.2l4.8,2.5L165.1,497.5z"/>
		<path class="st12" d="M165.3,502.9l-4.8-2.5l0,1.2l4.8,2.5L165.3,502.9z"/>
		<path class="st12" d="M165.5,508.2l-4.8-2.5l0,1.2l4.8,2.5L165.5,508.2z"/>
		<path class="st12" d="M165.7,513.6l-4.8-2.5l0,1.2l4.8,2.5L165.7,513.6z"/>
		<path class="st12" d="M193.9,507.4l-4.8-2.5l0.1,1.2l4.8,2.5L193.9,507.4z"/>
		<path class="st12" d="M194.1,512.8l-4.8-2.5l0.1,1.2l4.8,2.5L194.1,512.8z"/>
		<path class="st12" d="M194.3,518.1l-4.8-2.5l0,1.2l4.8,2.5L194.3,518.1z"/>
		<path class="st12" d="M194.5,523.5l-4.8-2.5l0,1.2l4.8,2.5L194.5,523.5z"/>
		<path class="st12" d="M194.8,528.8l-4.8-2.5l0,1.2l4.8,2.5L194.8,528.8z"/>
		<path class="st12" d="M187,501.6l-0.2-5.4l-1.1-0.6l0.2,5.4L187,501.6z"/>
		<path class="st12" d="M182.2,499.1l-0.2-5.4l-1.1-0.6l0.2,5.4L182.2,499.1z"/>
		<path class="st12" d="M177.5,496.6l-0.2-5.4l-1.1-0.6l0.2,5.4L177.5,496.6z"/>
		<path class="st12" d="M172.7,494.1l-0.2-5.4l-1.1-0.6l0.2,5.4L172.7,494.1z"/>
		<path class="st12" d="M167.9,491.5l-0.2-5.4l-1.1-0.6l0.2,5.4L167.9,491.5z"/>
		<path class="st12" d="M188.3,534.1l-0.2-5.4l-1.1-0.6l0.2,5.4L188.3,534.1z"/>
		<path class="st12" d="M183.5,531.6l-0.2-5.4l-1.1-0.6l0.2,5.4L183.5,531.6z"/>
		<path class="st12" d="M178.7,529.1l-0.2-5.4l-1.1-0.6l0.2,5.4L178.7,529.1z"/>
		<path class="st12" d="M174,526.6l-0.2-5.4l-1.1-0.6l0.2,5.4L174,526.6z"/>
		<path class="st12" d="M169.2,524.1l-0.2-5.4l-1.1-0.6l0.2,5.4L169.2,524.1z"/>
		<path class="st14" d="M228.1,674.4l-13.8-7.3l-1.1-1.8l-0.6-15.5l1-0.6l13.8,7.3l1.1,1.8l0.6,15.5L228.1,674.4z"/>
		<path class="st12" d="M213.4,651.4l-2.8-1.5l0,0.7l2.8,1.5L213.4,651.4z"/>
		<path class="st12" d="M213.5,654.5l-2.8-1.5l0,0.7l2.8,1.5L213.5,654.5z"/>
		<path class="st12" d="M213.7,657.7l-2.8-1.5l0,0.7l2.8,1.5L213.7,657.7z"/>
		<path class="st12" d="M213.8,660.9l-2.8-1.5l0,0.7l2.8,1.5L213.8,660.9z"/>
		<path class="st12" d="M213.9,664.1l-2.8-1.5l0,0.7l2.8,1.5L213.9,664.1z"/>
		<path class="st12" d="M230.6,660.4l-2.8-1.5l0,0.7l2.8,1.5L230.6,660.4z"/>
		<path class="st12" d="M230.7,663.6l-2.8-1.5l0,0.7l2.8,1.5L230.7,663.6z"/>
		<path class="st12" d="M230.9,666.8l-2.8-1.5l0,0.7l2.8,1.5L230.9,666.8z"/>
		<path class="st12" d="M231,669.9l-2.8-1.5l0,0.7l2.8,1.5L231,669.9z"/>
		<path class="st12" d="M231.1,673.1l-2.8-1.5l0,0.7l2.8,1.5L231.1,673.1z"/>
		<path class="st12" d="M226.5,657l-0.1-3.2l-0.7-0.3l0.1,3.2L226.5,657z"/>
		<path class="st12" d="M223.7,655.5l-0.1-3.2l-0.7-0.3l0.1,3.2L223.7,655.5z"/>
		<path class="st12" d="M220.9,654l-0.1-3.2l-0.7-0.3l0.1,3.2L220.9,654z"/>
		<path class="st12" d="M218,652.5l-0.1-3.2l-0.7-0.3l0.1,3.2L218,652.5z"/>
		<path class="st12" d="M215.2,651l-0.1-3.2l-0.7-0.3l0.1,3.2L215.2,651z"/>
		<path class="st12" d="M227.3,676.2l-0.1-3.2l-0.7-0.3l0.1,3.2L227.3,676.2z"/>
		<path class="st12" d="M224.5,674.7l-0.1-3.2l-0.7-0.3l0.1,3.2L224.5,674.7z"/>
		<path class="st12" d="M221.6,673.2l-0.1-3.2l-0.7-0.3l0.1,3.2L221.6,673.2z"/>
		<path class="st12" d="M218.8,671.8l-0.1-3.2l-0.7-0.3l0.1,3.2L218.8,671.8z"/>
		<path class="st12" d="M216,670.3l-0.1-3.2l-0.7-0.3l0.1,3.2L216,670.3z"/>
		<path class="st13" d="M118.5,199.8l-2.2-1.1c-0.6-0.3-1.1-0.8-1.5-1.5c-0.4-0.7-0.7-1.4-0.7-2l-0.1-2.4c0-0.6-0.2-1.2-0.5-1.8
			c-0.3-0.6-0.8-1.2-1.3-1.6c-0.3-0.2-0.6-0.4-0.9-0.5c-0.3-0.1-0.6-0.1-0.8,0c-0.2,0.1-0.4,0.3-0.6,0.5c-0.1,0.3-0.2,0.6-0.2,0.9
			l0.1,2.5c0,0.3,0,0.6-0.1,0.8c-0.1,0.2-0.2,0.4-0.4,0.5s-0.4,0.2-0.7,0.2c-0.3,0-0.5-0.1-0.8-0.3l-2.1-1.1c-0.5-0.3-1-0.4-1.4-0.2
			c-0.4,0.1-0.7,0.5-0.7,1c0,0.3,0,0.7,0.1,1.1c0.1,0.4,0.2,0.8,0.5,1.2c0.2,0.4,0.5,0.7,0.8,1.1c0.3,0.3,0.6,0.6,0.9,0.7l2.2,1.2
			c0.6,0.3,1.1,0.8,1.5,1.5c0.4,0.6,0.7,1.4,0.7,2l0.1,2.4c0,0.6,0.2,1.2,0.5,1.8c0.3,0.6,0.8,1.2,1.3,1.6c0.3,0.2,0.6,0.4,0.9,0.5
			c0.3,0.1,0.6,0.1,0.8,0c0.2-0.1,0.4-0.3,0.6-0.5s0.2-0.6,0.2-0.9l-0.1-2.5c0-0.6,0.2-1.1,0.6-1.4c0.4-0.2,0.9-0.2,1.5,0.1l2.2,1.2
			c0.3,0.2,0.6,0.3,0.9,0.3c0.3,0,0.5-0.1,0.7-0.3c0.2-0.2,0.3-0.4,0.4-0.7c0.1-0.3,0.1-0.7,0-1.1c-0.1-0.6-0.5-1.2-0.9-1.8
			C119.5,200.5,119,200.1,118.5,199.8z"/>
		<path class="st12" d="M673.6,723.5l-1.9-1c-0.3-0.1-0.5-0.3-0.7-0.6c-0.2-0.2-0.5-0.5-0.6-0.8c-0.2-0.3-0.3-0.6-0.4-0.9
			c-0.1-0.3-0.2-0.6-0.2-0.9l-0.1-2.2c0-0.5-0.2-1.1-0.5-1.7c-0.3-0.6-0.7-1.1-1.2-1.4c-0.3-0.2-0.6-0.4-0.9-0.4
			c-0.3-0.1-0.5-0.1-0.7,0c-0.2,0.1-0.4,0.3-0.5,0.5c-0.1,0.2-0.2,0.5-0.2,0.8l0.1,2.3c0,0.6-0.2,1-0.5,1.2
			c-0.3,0.2-0.8,0.2-1.3-0.1l-1.9-1c-0.5-0.3-0.9-0.3-1.2-0.2c-0.3,0.1-0.6,0.4-0.7,0.9c0,0.3,0,0.6,0.1,1c0.1,0.3,0.2,0.7,0.4,1.1
			c0.2,0.3,0.4,0.7,0.7,0.9c0.3,0.3,0.6,0.5,0.8,0.6l2,1.1c0.5,0.3,1,0.8,1.4,1.4c0.4,0.6,0.6,1.3,0.6,1.8l0.1,2.2
			c0,0.5,0.2,1.1,0.5,1.6c0.3,0.6,0.7,1,1.2,1.4c0.3,0.2,0.6,0.4,0.9,0.4c0.3,0.1,0.5,0.1,0.7,0c0.2-0.1,0.4-0.2,0.5-0.5
			c0.1-0.2,0.2-0.5,0.2-0.8L670,728c0-0.3,0-0.5,0.1-0.8c0.1-0.2,0.2-0.4,0.4-0.5c0.2-0.1,0.4-0.2,0.6-0.1c0.2,0,0.5,0.1,0.7,0.2
			l2,1.1c0.3,0.2,0.6,0.2,0.8,0.2c0.3,0,0.5-0.1,0.6-0.2c0.2-0.2,0.3-0.4,0.3-0.7c0.1-0.3,0.1-0.6,0-0.9c-0.1-0.6-0.4-1.1-0.8-1.6
			C674.5,724.2,674.1,723.8,673.6,723.5z"/>
		<path class="st16" d="M144,695.6l-2.8-1.5c-0.7-0.4-1.4-1-1.9-1.9c-0.5-0.8-0.8-1.7-0.9-2.5l-0.1-3c0-0.7-0.2-1.5-0.7-2.3
			c-0.4-0.8-1-1.5-1.6-2c-0.4-0.3-0.8-0.5-1.2-0.6c-0.4-0.1-0.7-0.1-1,0c-0.3,0.1-0.5,0.3-0.7,0.7c-0.2,0.3-0.2,0.7-0.2,1.2l0.1,3.1
			c0,0.8-0.2,1.4-0.7,1.7c-0.5,0.3-1.2,0.3-1.9-0.1l-2.6-1.4c-0.6-0.4-1.3-0.5-1.8-0.3c-0.5,0.2-0.8,0.6-1,1.2
			c-0.1,0.4,0,0.9,0.1,1.3c0.1,0.5,0.3,1,0.6,1.5c0.3,0.5,0.6,0.9,1,1.3c0.4,0.4,0.8,0.7,1.2,0.9l2.8,1.5c0.7,0.4,1.4,1,1.9,1.9
			c0.5,0.8,0.8,1.7,0.9,2.5l0.1,3c0,0.7,0.2,1.5,0.7,2.3c0.4,0.8,1,1.5,1.6,2c0.4,0.3,0.8,0.5,1.2,0.6c0.4,0.1,0.7,0.1,1,0
			c0.3-0.1,0.5-0.3,0.7-0.7c0.2-0.3,0.2-0.7,0.2-1.2l-0.1-3.1c0-0.8,0.2-1.4,0.7-1.7c0.5-0.3,1.1-0.3,1.8,0.1l2.8,1.5
			c0.4,0.2,0.8,0.3,1.1,0.3c0.4,0,0.7-0.1,0.9-0.3c0.2-0.2,0.4-0.5,0.5-0.9c0.1-0.4,0.1-0.8,0-1.3c-0.2-0.8-0.5-1.6-1-2.3
			C145.3,696.6,144.7,696,144,695.6z"/>
		<path class="st14" d="M613.5,952.6L585.9,938c-0.7-0.4-1.5-1.1-2-2c-0.5-0.9-0.9-1.8-0.9-2.7c0-0.8,0.2-1.5,0.7-1.8
			c0.5-0.3,1.2-0.3,2,0.1l27.6,14.5c0.7,0.4,1.5,1.1,2,2c0.6,0.9,0.9,1.8,0.9,2.7c0,0.8-0.2,1.5-0.7,1.8
			C615,953,614.3,953,613.5,952.6z"/>
		<path class="st14" d="M626.7,959.5l-3.2-1.7c-0.7-0.4-1.5-1.1-2-2c-0.6-0.9-0.9-1.8-0.9-2.7c0-0.8,0.2-1.5,0.7-1.8
			c0.5-0.3,1.2-0.3,2,0.1l3.2,1.7c0.7,0.4,1.5,1.1,2,2c0.6,0.9,0.9,1.8,0.9,2.7c0,0.8-0.2,1.5-0.7,1.8
			C628.1,959.9,627.4,959.9,626.7,959.5z"/>
		<path class="st14" d="M642.9,968l-0.6-0.3c-0.7-0.4-1.5-1.1-2-2c-0.6-0.9-0.9-1.8-0.9-2.7c0-0.8,0.2-1.5,0.7-1.8
			c0.5-0.3,1.2-0.3,2,0.1l0.6,0.3c0.7,0.4,1.5,1.1,2,2c0.6,0.9,0.9,1.8,0.9,2.7c0,0.8-0.2,1.5-0.7,1.8
			C644.3,968.4,643.6,968.4,642.9,968z"/>
		<path class="st9" d="M326.8,232.6l-27.6-14.5c-0.7-0.4-1.5-1.1-2-2c-0.6-0.9-0.9-1.8-0.9-2.7c0-0.8,0.2-1.5,0.7-1.8
			c0.5-0.3,1.2-0.3,2,0.1l27.6,14.5c0.7,0.4,1.5,1.1,2,2c0.6,0.9,0.9,1.8,0.9,2.7c0,0.8-0.2,1.5-0.7,1.8
			C328.2,233,327.5,233,326.8,232.6z"/>
		<path class="st9" d="M339.9,239.5l-3.2-1.7c-0.7-0.4-1.5-1.1-2-2c-0.6-0.9-0.9-1.8-0.9-2.7c0-0.8,0.2-1.5,0.7-1.8
			c0.5-0.3,1.2-0.3,2,0.1l3.2,1.7c0.7,0.4,1.5,1.1,2,2c0.6,0.9,0.9,1.8,0.9,2.7c0,0.8-0.2,1.5-0.7,1.8
			C341.4,239.9,340.7,239.9,339.9,239.5z"/>
		<path class="st9" d="M356.1,248l-0.6-0.3c-0.7-0.4-1.5-1.1-2-2c-0.6-0.9-0.9-1.8-0.9-2.7c0-0.8,0.2-1.5,0.7-1.8
			c0.5-0.3,1.2-0.3,2,0.1l0.6,0.3c0.7,0.4,1.5,1.1,2,2c0.6,0.9,0.9,1.8,0.9,2.7c0,0.8-0.2,1.5-0.7,1.8
			C357.6,248.4,356.9,248.4,356.1,248z"/>
		<path class="st14" d="M565.5,687.6c0,0.7-0.1,1.2-0.4,1.6c-0.3,0.4-0.8,0.6-1.3,0.5s-1.2-0.3-1.8-0.7c-0.6-0.4-1.2-1.1-1.6-1.8
			c-0.4-0.7-0.8-1.5-0.9-2.2c-0.1-0.7-0.1-1.4,0.1-1.9s0.6-0.8,1.1-0.9c0.5-0.1,1.1,0,1.7,0.3c0.8,0.4,1.6,1.2,2.2,2.1
			C565.1,685.7,565.4,686.7,565.5,687.6z"/>
		<path class="st14" d="M573,683c0,0.7-0.1,1.2-0.4,1.6s-0.8,0.6-1.3,0.5s-1.2-0.3-1.8-0.7s-1.2-1.1-1.6-1.8
			c-0.4-0.7-0.8-1.5-0.9-2.2c-0.1-0.7-0.1-1.4,0.1-1.9c0.2-0.5,0.6-0.8,1.1-0.9s1.1,0,1.7,0.3c0.8,0.4,1.6,1.2,2.2,2.1
			C572.6,681,572.9,682.1,573,683z"/>
		<path class="st14" d="M580.4,678.3c0,0.7-0.1,1.2-0.4,1.6c-0.3,0.4-0.8,0.6-1.3,0.5c-0.5,0-1.2-0.3-1.8-0.7
			c-0.6-0.4-1.2-1.1-1.6-1.8s-0.8-1.5-0.9-2.2c-0.1-0.7-0.1-1.4,0.1-1.9c0.2-0.5,0.6-0.8,1.1-0.9c0.5-0.1,1.1,0,1.7,0.3
			c0.8,0.4,1.6,1.2,2.2,2.1C580,676.4,580.4,677.4,580.4,678.3z"/>
		<path class="st14" d="M640,905.2c0,0.3-0.1,0.6-0.2,0.8c-0.2,0.2-0.4,0.3-0.6,0.3c-0.3,0-0.6-0.1-0.8-0.4
			c-0.3-0.2-0.6-0.5-0.8-0.8c-0.2-0.3-0.4-0.7-0.4-1.1c-0.1-0.4-0.1-0.7,0-0.9c0.1-0.2,0.3-0.4,0.5-0.5c0.2-0.1,0.5,0,0.8,0.2
			c0.2,0.1,0.4,0.2,0.6,0.4c0.2,0.2,0.4,0.4,0.5,0.6c0.1,0.2,0.3,0.5,0.3,0.7C640,904.7,640,905,640,905.2z"/>
		<path class="st14" d="M451.1,813.1c0,0.3-0.1,0.5-0.2,0.7c-0.1,0.2-0.3,0.2-0.6,0.2c-0.2,0-0.5-0.1-0.8-0.3
			c-0.3-0.2-0.5-0.5-0.7-0.8c-0.2-0.3-0.3-0.6-0.4-0.9c-0.1-0.3-0.1-0.6,0-0.8c0.1-0.2,0.2-0.4,0.4-0.4c0.2-0.1,0.4,0,0.7,0.1
			c0.2,0.1,0.4,0.2,0.6,0.4c0.2,0.2,0.3,0.4,0.5,0.6c0.1,0.2,0.2,0.5,0.3,0.7C451,812.7,451.1,812.9,451.1,813.1z"/>
		<path class="st13" d="M365.1,889.9c0,0.3-0.1,0.6-0.2,0.8c-0.2,0.2-0.4,0.3-0.6,0.3c-0.3,0-0.6-0.2-0.9-0.4
			c-0.3-0.2-0.6-0.5-0.8-0.9c-0.2-0.3-0.4-0.7-0.4-1.1c-0.1-0.4,0-0.7,0.1-0.9c0.1-0.2,0.3-0.4,0.5-0.4c0.2,0,0.5,0,0.8,0.2
			c0.2,0.1,0.4,0.2,0.6,0.4c0.2,0.2,0.3,0.4,0.5,0.6c0.1,0.2,0.2,0.5,0.3,0.7C365,889.5,365.1,889.7,365.1,889.9z"/>
		<path class="st14" d="M324.8,886.4c0,0.3-0.1,0.5-0.2,0.7c-0.1,0.2-0.3,0.3-0.6,0.2c-0.2,0-0.5-0.1-0.8-0.3
			c-0.3-0.2-0.5-0.5-0.7-0.8c-0.2-0.3-0.3-0.6-0.4-1c-0.1-0.3,0-0.6,0-0.8c0.1-0.2,0.3-0.4,0.5-0.4c0.2,0,0.5,0,0.7,0.1
			c0.4,0.2,0.7,0.5,0.9,0.9C324.6,885.6,324.7,886,324.8,886.4z"/>
		<path class="st13" d="M266.2,701.4c0,0.3-0.1,0.6-0.2,0.8c-0.2,0.2-0.4,0.3-0.6,0.3c-0.3,0-0.6-0.2-0.9-0.4
			c-0.3-0.2-0.6-0.5-0.8-0.9c-0.2-0.3-0.4-0.7-0.4-1.1c-0.1-0.4,0-0.7,0.1-0.9c0.1-0.2,0.3-0.4,0.5-0.4c0.2,0,0.5,0,0.8,0.2
			c0.2,0.1,0.4,0.2,0.6,0.4c0.2,0.2,0.3,0.4,0.5,0.6c0.1,0.2,0.2,0.5,0.3,0.7C266.2,700.9,266.2,701.1,266.2,701.4z"/>
		<path class="st14" d="M133.8,650.6c1,0.5,1.7,0,1.7-1.1c0-1.1-0.9-2.4-1.8-2.9c-1-0.5-1.7,0-1.7,1.1
			C132,648.8,132.9,650.1,133.8,650.6z"/>
		<path class="st14" d="M68.9,391.3c0.9,0.5,1.6,0,1.6-1c0-1-0.8-2.2-1.7-2.7c-0.9-0.5-1.6,0-1.6,1C67.2,389.6,68,390.8,68.9,391.3z
			"/>
		<path class="st12" d="M48.1,473.7c0,0.4-0.1,0.8-0.3,1c-0.2,0.2-0.5,0.4-0.8,0.3c-0.3,0-0.7-0.2-1.1-0.5c-0.4-0.3-0.7-0.7-1-1.1
			c-0.3-0.4-0.5-0.9-0.6-1.4c-0.1-0.5-0.1-0.9,0.1-1.2c0.1-0.3,0.4-0.5,0.7-0.6c0.3-0.1,0.7,0,1,0.2c0.5,0.3,1,0.7,1.4,1.3
			C47.8,472.4,48.1,473.1,48.1,473.7z"/>
		<path class="st14" d="M169.3,223.3c0.9,0.5,1.6,0,1.6-1c0-1-0.8-2.2-1.7-2.7c-0.9-0.5-1.6,0-1.6,1
			C167.7,221.6,168.4,222.8,169.3,223.3z"/>
		<path class="st14" d="M413.1,250.5c0.9,0.5,1.6,0,1.6-1c0-1-0.8-2.2-1.7-2.7c-0.9-0.5-1.6,0-1.6,1
			C411.4,248.8,412.2,250,413.1,250.5z"/>
		<path class="st14" d="M565.6,420.3c0,0.3-0.1,0.6-0.2,0.8c-0.1,0.2-0.4,0.3-0.6,0.2c-0.3,0-0.5-0.1-0.8-0.3
			c-0.3-0.2-0.5-0.5-0.7-0.8c-0.2-0.3-0.3-0.7-0.4-1c-0.1-0.3-0.1-0.6,0-0.9c0.1-0.2,0.3-0.4,0.5-0.4c0.2-0.1,0.5,0,0.8,0.1
			c0.4,0.2,0.7,0.5,1,1C565.4,419.4,565.5,419.9,565.6,420.3z"/>
		<path class="st14" d="M387.3,370.2c0.9,0.5,1.6,0,1.6-1c0-1-0.8-2.2-1.7-2.7c-0.9-0.5-1.6,0-1.6,1
			C385.6,368.5,386.4,369.7,387.3,370.2z"/>
		<path class="st13" d="M663.1,543.6c0,0.4-0.1,0.8-0.3,1c-0.2,0.2-0.5,0.4-0.8,0.3c-0.3,0-0.7-0.2-1.1-0.5c-0.4-0.3-0.7-0.7-1-1.1
			s-0.5-0.9-0.6-1.4c-0.1-0.5-0.1-0.9,0.1-1.2c0.1-0.3,0.4-0.5,0.7-0.6c0.3-0.1,0.7,0,1,0.2c0.5,0.3,1,0.7,1.4,1.3
			C662.9,542.4,663.1,543,663.1,543.6z"/>
		<path class="st14" d="M565.5,621.3c0,0.3-0.1,0.6-0.2,0.8c-0.1,0.2-0.4,0.3-0.6,0.2c-0.3,0-0.5-0.1-0.8-0.3
			c-0.3-0.2-0.5-0.5-0.7-0.8c-0.2-0.3-0.3-0.7-0.4-1c-0.1-0.3-0.1-0.6,0-0.9c0.1-0.2,0.3-0.4,0.5-0.4c0.2-0.1,0.5,0,0.8,0.1
			c0.4,0.2,0.7,0.5,1,1C565.3,620.4,565.5,620.9,565.5,621.3z"/>
		<path class="st14" d="M680.6,807.8c0,0.4-0.1,0.8-0.3,1s-0.5,0.4-0.8,0.3c-0.3,0-0.7-0.2-1.1-0.5c-0.4-0.3-0.7-0.7-1-1.1
			c-0.3-0.4-0.5-0.9-0.6-1.4c-0.1-0.5-0.1-0.9,0.1-1.2c0.1-0.3,0.4-0.5,0.7-0.6c0.3-0.1,0.7,0,1,0.2c0.5,0.3,1,0.7,1.4,1.3
			C680.4,806.6,680.6,807.2,680.6,807.8z"/>
		<path class="st12" d="M549.2,762.8c0,0.4-0.1,0.8-0.3,1c-0.2,0.2-0.5,0.4-0.8,0.3c-0.3,0-0.7-0.2-1.1-0.5c-0.4-0.3-0.7-0.7-1-1.1
			c-0.3-0.4-0.5-0.9-0.6-1.4c-0.1-0.5-0.1-0.9,0.1-1.2c0.1-0.3,0.4-0.5,0.7-0.6c0.3-0.1,0.7,0,1,0.2c0.5,0.3,1,0.7,1.4,1.3
			C549,761.5,549.2,762.2,549.2,762.8z"/>
		<g>
			<defs>
				<rect id="SVGID_00000157284151201531973400000018032419777889749143_" x="95" y="535" width="63" height="62"/>
			</defs>
			<clipPath id="SVGID_00000173872975071784162240000004006839864899190945_">
				<use xlink:href="#SVGID_00000157284151201531973400000018032419777889749143_"  style="overflow:visible;"/>
			</clipPath>
			<g style="clip-path:url(#SVGID_00000173872975071784162240000004006839864899190945_);">
				<path class="st18" d="M126.5,535.3c-20.8,0-29.5,27.1-12.3,38.7v13.1c0,2.8,2.5,4.7,4.9,5.7c0.7,5.5,14.1,5.5,14.8,0
					c2.3-1,4.9-3,4.9-5.7V574C155.9,562.5,147.4,535.3,126.5,535.3z"/>
				<path class="st18" d="M114.2,575.5v11.6c0,3.9,5.5,7.1,12.3,7.1c6.8,0,12.3-3.2,12.3-7.1v-11.6H114.2z"/>
				<path class="st19" d="M126.5,590.4c-6.8,0-12.3-3.2-12.3-7.1v3.9c0,3.9,5.5,7.1,12.3,7.1c6.8,0,12.3-3.2,12.3-7.1v-3.9
					C138.8,587.2,133.3,590.4,126.5,590.4z"/>
				<path class="st19" d="M126.5,582.7c-6.8,0-12.3-3.2-12.3-7.1v3.9c0,3.9,5.5,7.1,12.3,7.1c6.8,0,12.3-3.2,12.3-7.1v-3.9
					C138.8,579.5,133.3,582.7,126.5,582.7z"/>
				<path class="st20" d="M148.2,556.4c0-11.8-9.7-21.4-21.7-21.4s-21.7,9.6-21.7,21.4c0,7.3,3.8,13.8,9.5,17.6v1.5
					c0,3.9,5.5,7.1,12.3,7.1c6.8,0,12.3-3.2,12.3-7.1V574C144.5,570.2,148.2,563.7,148.2,556.4z"/>
				<path class="st21" d="M126.5,582.7c-6.8,0-12.3-3.2-12.3-7.1c0-3.9,5.5-7.1,12.3-7.1s12.3,3.2,12.3,7.1
					C138.8,579.5,133.3,582.7,126.5,582.7z"/>
				<path class="st22" d="M134.7,563.8c-1.3-0.4-2.7-0.9-3.9-1.7c-0.7-0.2-1.1,0-1.2,0.7v1.4l0,0c-0.5-0.3-0.8-0.8-0.8-1.3v-2.8
					c0-1.1-0.6-2.2-1.6-2.7l-0.1-0.1c-1.3-0.4-2.1,0-2.3,1.3v2.9l0,0c-0.5-0.3-0.8-0.8-0.8-1.4v-2.8c0-2.1-3.9-4.4-3.9-1.4v0.1
					l-1.8-1l0-0.2c-0.3-1.4-2.5-0.9-2.2,0.5l4.4,17.6c0.4,1.6,2.5,0.7,2.2-0.5l-3.8-15.3l1.7,1c0.7,0.2,1.1,0,1.2-0.7v-1.3
					c0.9,0.7,0.8,3.1,0.6,4c0,1.2,0.6,2.2,1.7,2.8l0.1,0.1c1.3,0.4,2,0,2.3-1.3v-2.9c0.5,0.3,0.8,0.8,0.8,1.3v2.8
					c0,1.1,0.6,2.2,1.6,2.7c1,0.4,2.4,0.3,2.4-1.3v-0.2l1.9,1l-4,12c-0.4,1.3,1.6,2.2,2.1,0.7l4.2-12.6
					C135.6,564.7,135.3,564,134.7,563.8C134.5,563.8,135.3,564,134.7,563.8z"/>
				<path class="st21" d="M119.9,558.8c-5.2,0-9.5-4.2-9.5-9.3c0-5.2,4.3-9.3,9.5-9.3c5.2,0,9.5,4.2,9.5,9.3
					C129.4,554.7,125.1,558.8,119.9,558.8z"/>
			</g>
		</g>
		<g>
			<defs>
				<rect id="SVGID_00000045593073608624804920000015603765183573865121_" x="224" y="222" width="60" height="60"/>
			</defs>
			<clipPath id="SVGID_00000025406770305758896220000005519134169774375323_">
				<use xlink:href="#SVGID_00000045593073608624804920000015603765183573865121_"  style="overflow:visible;"/>
			</clipPath>
			<g style="clip-path:url(#SVGID_00000025406770305758896220000005519134169774375323_);">
				<path class="st24" d="M234.1,229.4c-3.9,2.1-6.3,6.9-6.3,13.7c0,13.3,9.3,29.5,20.8,36.1c5.7,3.3,10.9,3.6,14.7,1.4c0,0,0,0,0,0
					l10.7-6.1c3.8-2.2,6.2-6.9,6.2-13.6c0-13.3-9.3-29.5-20.8-36.1c-5.7-3.3-10.9-3.6-14.7-1.4l-10.7,6.1
					C234,229.5,234.1,229.5,234.1,229.4z"/>
				<path class="st25" d="M234,229.5l10.7-6.1c3.8-2.2,8.9-1.9,14.7,1.4c11.5,6.6,20.8,22.7,20.8,36.1c0,6.7-2.4,11.4-6.2,13.6
					l-10.7,6.1c3.8-2.2,6.2-6.9,6.2-13.6c0-13.3-9.3-29.5-20.8-36.1C242.9,227.7,237.7,227.4,234,229.5z"/>
				<path class="st24" d="M227.8,243.1c0-13.3,9.3-18.8,20.8-12.2c11.5,6.6,20.8,22.7,20.8,36.1c0,13.3-9.3,18.8-20.8,12.2
					C237.1,272.6,227.8,256.5,227.8,243.1z"/>
				<path class="st25" d="M261.5,247.5c3.6,6.3,5.5,13.1,5.2,19.1c-0.2,5.2-2.1,9.2-5.2,11c-3.1,1.8-7.3,1.5-12-0.9
					c-5.3-2.7-10.2-7.7-13.9-14c-3.6-6.3-5.5-13.1-5.2-19.1c0.2-5.2,2.1-9.2,5.2-11c3.1-1.8,7.3-1.5,12,0.9
					C253,236.2,257.9,241.2,261.5,247.5z M236.3,262.3c3.6,6.2,8.4,11.1,13.6,13.8c4.4,2.3,8.5,2.6,11.4,1c2.9-1.7,4.7-5.5,4.9-10.5
					c0.3-5.9-1.6-12.5-5.1-18.7c-3.6-6.2-8.4-11.1-13.6-13.8c-4.4-2.3-8.5-2.6-11.4-1c-2.9,1.7-4.7,5.5-4.9,10.5
					C230.9,249.5,232.7,256.1,236.3,262.3z"/>
				<path class="st26" d="M263.4,229.4l-9.4,5.4c0.2,0.2,0.4,0.4,0.6,0.6l10.7-6.2c-0.2-0.2-0.4-0.4-0.6-0.6L263.4,229.4z"/>
				<path class="st26" d="M273,238.5c-0.1-0.2-0.3-0.5-0.4-0.7l-10.7,6.2c0.1,0.2,0.3,0.5,0.4,0.7L273,238.5z"/>
				<path class="st26" d="M253.4,222.4c-0.4-0.1-0.8-0.2-1.2-0.2l-10.7,6.2c0.4,0.1,0.8,0.1,1.2,0.2L253.4,222.4z"/>
				<path class="st26" d="M248.7,231c0.3,0.2,0.5,0.3,0.8,0.5l10.7-6.2c-0.3-0.2-0.5-0.3-0.8-0.5L248.7,231z"/>
				<path class="st26" d="M258.2,239.2c0.2,0.2,0.4,0.4,0.5,0.6l10.7-6.2c-0.2-0.2-0.4-0.4-0.5-0.6L258.2,239.2z"/>
				<path class="st26" d="M267.1,254.6c0.1,0.3,0.2,0.5,0.3,0.8l10.7-6.2c-0.1-0.3-0.2-0.5-0.3-0.8L267.1,254.6z"/>
				<path class="st26" d="M264.8,249.1c0.1,0.2,0.2,0.5,0.4,0.7l10.7-6.2c-0.1-0.2-0.2-0.5-0.4-0.7L264.8,249.1z"/>
				<path class="st26" d="M278.5,269.5c0.2-0.4,0.4-0.8,0.5-1.2l-10.7,6.2c-0.2,0.4-0.3,0.8-0.5,1.2L278.5,269.5z"/>
				<path class="st26" d="M268.8,260.5c0.1,0.3,0.1,0.6,0.2,0.8l10.7-6.2c-0.1-0.3-0.1-0.6-0.2-0.8L268.8,260.5z"/>
				<path class="st26" d="M269.5,267.8l10.7-6.2c0-0.3,0-0.5,0-0.8c0-0.1,0-0.1,0-0.2l-10.7,6.2c0,0,0,0.1,0,0.1
					C269.5,267.3,269.5,267.6,269.5,267.8z"/>
			</g>
		</g>
	</g>
</g>
<g>
	<defs>
		<rect id="SVGID_00000180351719460124964550000000444217015107837886_" x="427" y="331" width="60" height="60"/>
	</defs>
	<clipPath id="SVGID_00000151526892362314725550000002367923248183556006_">
		<use xlink:href="#SVGID_00000180351719460124964550000000444217015107837886_"  style="overflow:visible;"/>
	</clipPath>
	<g style="clip-path:url(#SVGID_00000151526892362314725550000002367923248183556006_);">
		<path class="st28" d="M487,351.6c0.1-3.6-2.3-7.3-7.1-10.1c-9.4-5.4-24.7-5.4-34,0c-4.7,2.7-7,6.3-7,9.8c0,0,0,0,0,0l0,7.1
			c0,3.6,2.4,7.2,7.1,9.9c9.4,5.4,24.7,5.4,34,0c4.6-2.7,7-6.2,7-9.8l0-7.1C487,351.5,487,351.5,487,351.6z M447,360.6
			c-2.9-1.7-4.8-3.7-5.8-5.8c1-2.1,2.9-4,5.7-5.7c8.8-5.1,23.1-5.1,31.9,0c2.9,1.7,4.8,3.7,5.8,5.8c-1,2.1-2.9,4-5.7,5.7
			C470.2,365.7,455.9,365.7,447,360.6z"/>
		<path class="st28" d="M485.5,351.5l0,7.1c0-3.4-2.2-6.7-6.7-9.3c-8.8-5.1-23.2-5.1-31.9,0c-4.4,2.5-6.5,5.9-6.6,9.2l0-7.1
			c0-3.3,2.2-6.7,6.6-9.2c8.8-5.1,23.1-5.1,31.9,0C483.3,344.7,485.5,348.1,485.5,351.5z"/>
		<path class="st29" d="M487,351.5l0,7.1c0,3.5-2.3,7.1-7,9.8c-9.4,5.4-24.6,5.4-34,0c-4.7-2.7-7.1-6.3-7.1-9.9l0-7.1
			c0,3.6,2.4,7.2,7.1,9.9c9.4,5.4,24.7,5.4,34,0C484.7,358.5,487,355,487,351.5z"/>
		<path class="st30" d="M479.9,341.5c9.4,5.4,9.5,14.3,0.1,19.7s-24.6,5.4-34,0c-9.4-5.4-9.5-14.3-0.1-19.7S470.5,336.1,479.9,341.5
			z M447,360.6c8.8,5.1,23.2,5.1,31.9,0c8.8-5.1,8.7-13.4-0.1-18.5c-8.8-5.1-23.2-5.1-31.9,0C438.1,347.2,438.2,355.5,447,360.6z"/>
		<path class="st31" d="M474.6,366c0-3.7-0.8-6.3-1.8-5.9c-4.6,1.7-13.9-0.2-21.6-4.7c-3.8-2.2-6.5-4.6-8-6.8c0-3.3-0.3-5.6-0.7-5.3
			c0,0,0,0,0,0c-4.9,2.8-9.8,5.7-14.7,8.5c-0.1,0-0.2,0.1-0.3,0.2c0,0,0,0,0,0c0,0,0,0,0,0c0,0,0,0,0,0c0,0-0.1,0.1-0.1,0.1
			c0,0,0,0,0,0c0,0,0,0,0,0.1c0,0,0,0,0,0.1c-0.1,0.2-0.1,0.4-0.2,0.7c0,0.2-0.1,0.8-0.1,2.6c0,1.6-0.1,3.2-0.1,3.8l0,1.7
			c0,2.5,0,5.4,0.2,6.5c0,0.2,0,0.3,0.1,0.4c0,0.1,0.1,0.2,0.1,0.3c0,0.1,0.1,0.1,0.2,0.2c0,0,0.1,0.1,0.1,0.1
			c0.1,0.1,0.2,0.1,0.2,0.2l2.7,1.5l2.7,1.5l2.7,1.5l2.7,1.5l2.7,1.5l2.7,1.5l2.7,1.5l2.7,1.5l2.7,1.5l2.7,1.5
			c0.2,0.1,0.4,0.2,0.7,0.3c0.3,0.1,0.6,0.1,0.8,0.1c0.3,0,0.5,0,0.8-0.1c0.2,0,0.3-0.1,0.4-0.1c0.1,0,0.1,0,0.3-0.1c0,0,0,0,0,0
			c0,0,0,0,0,0c0.2-0.2,0.5-0.3,0.8-0.4s0.6-0.3,0.8-0.4c0.2-0.2,0.5-0.3,0.8-0.4c0.2-0.1,0.5-0.3,0.8-0.4c1-0.6,2-1.2,3-1.8
			c3.1-1.8,6.1-3.6,9.2-5.4c1-0.6,1.7-3.9,1.7-7.5L474.6,366z"/>
		<path class="st30" d="M442.5,358.5c-0.1,0.1-0.1,0.2-0.2,0.3c0,0.1-0.1,0.2-0.1,0.3c0,0-0.1,0.1-0.1,0.2c0.1-0.7,0.3-2.7,0.3-5.6
			c0-0.9,0.3-1.7,0.8-2.4C443.2,354.8,442.9,358,442.5,358.5z"/>
		<path class="st30" d="M442.4,353.6l0-1.7c0-0.9,0.3-1.7,0.8-2.4l0,1.7C442.7,351.9,442.4,352.7,442.4,353.6z"/>
		<path class="st31" d="M427.9,351.9c4.9-2.8,9.8-5.7,14.7-8.5c0,0,0,0,0,0L427.9,351.9C427.9,351.9,427.9,351.9,427.9,351.9z"/>
		<path class="st29" d="M457.6,369.1c-0.8,0.5-2.1,0.5-2.9,0l-26.8-15.5c-0.6-0.3-0.8-0.8-0.5-1.3c0,0,0,0,0,0.1
			c-0.1,0.2-0.1,0.4-0.2,0.7c0,0.2-0.1,0.8-0.1,2.6c0,1.6-0.1,3.2-0.1,3.8l0,1.7c0,2.5,0,5.4,0.2,6.5c0,0.2,0,0.3,0.1,0.4
			c0,0.1,0.1,0.2,0.1,0.3c0,0.1,0.1,0.1,0.2,0.2c0,0,0.1,0.1,0.1,0.1c0.1,0.1,0.2,0.1,0.2,0.2l2.7,1.5l2.7,1.5l2.7,1.5l2.7,1.5
			l2.7,1.5l2.7,1.5l2.7,1.5l2.7,1.5l2.7,1.5l2.7,1.5c0.2,0.1,0.4,0.2,0.7,0.3c0.3,0.1,0.6,0.1,0.8,0.1c0.3,0,0.5,0,0.8-0.1
			c0.2,0,0.3-0.1,0.4-0.1c0.1,0,0.1,0,0.3-0.1c0.1-0.1,0.2-3,0.2-6.6l0-1.7C457.8,372.2,457.7,369.1,457.6,369.1z"/>
		<path class="st32" d="M442.4,351.9c0-0.6,0-1.9-0.1-3.2c-0.1-1.8-0.2-2-0.2-2c0,0-1-1.8,0.3-3.4c0.4-0.3,0.7,2.4,0.7,6.1
			C442.7,350.2,442.4,351.1,442.4,351.9z"/>
		<path class="st30" d="M433.8,349c2.6,10.9,12.4,19.1,24.1,19.1c6,0,11.5-2.1,15.7-5.7c-2.6-10.9-12.4-19.1-24.1-19.1
			C443.5,343.4,438,345.5,433.8,349z"/>
		<path class="st30" d="M427.7,362.1l0-1.7c0-3.7,0.1-6.8,0.2-6.8c-0.6-0.3-0.8-0.8-0.5-1.3c0,0,0,0,0,0.1c-0.1,0.2-0.1,0.4-0.2,0.7
			c0,0.2-0.1,0.8-0.1,2.6c0,1.6-0.1,3.2-0.1,3.8l0,1.7c0,2.5,0,5.4,0.2,6.5c0,0.2,0,0.3,0.1,0.4c0,0.1,0.1,0.2,0.1,0.3
			c0,0.1,0.1,0.1,0.2,0.2c0,0,0.1,0.1,0.1,0.1c0.1,0.1,0.2,0.1,0.2,0.2C427.7,368.7,427.7,365.7,427.7,362.1z"/>
		<path class="st30" d="M454.6,384.2c0.2,0.1,0.4,0.2,0.7,0.3c0.3,0.1,0.6,0.1,0.8,0.1c0.3,0,0.5,0,0.8-0.1c0.2,0,0.3-0.1,0.4-0.1
			c0.1,0,0.1,0,0.3-0.1c0.1-0.1,0.2-3,0.2-6.6l0-1.7c0-3.7-0.1-6.8-0.2-6.8c-0.8,0.5-2.1,0.5-2.9,0L454.6,384.2z"/>
		<path class="st29" d="M454.7,369.1l-26.8-15.5c-0.1,0.1-0.2,3.1-0.2,6.8l0,1.7c0,3.6,0.1,6.6,0.1,6.6l2.7,1.5l2.7,1.5l2.7,1.5
			l2.7,1.5l2.7,1.5l2.7,1.5l2.7,1.5l2.7,1.5l2.7,1.5l2.7,1.5L454.7,369.1z"/>
		<path class="st30" d="M427.7,362.1l0-1.7c0-3.7,0.1-6.8,0.2-6.8c-0.6-0.3-0.8-0.8-0.5-1.3c0,0,0,0,0,0.1c-0.1,0.2-0.1,0.4-0.2,0.7
			c0,0.2-0.1,0.8-0.1,2.6c0,1.6-0.1,3.2-0.1,3.8l0,1.7c0,2.5,0,5.4,0.2,6.5c0,0.2,0,0.3,0.1,0.4c0,0.1,0.1,0.2,0.1,0.3
			c0,0.1,0.1,0.1,0.2,0.2c0,0,0.1,0.1,0.1,0.1c0.1,0.1,0.2,0.1,0.2,0.2C427.7,368.7,427.7,365.7,427.7,362.1z"/>
		<path class="st33" d="M427.5,352.2C427.5,352.2,427.5,352.2,427.5,352.2C427.5,352.2,427.5,352.2,427.5,352.2z"/>
		<path class="st33" d="M427.4,352.3C427.4,352.3,427.4,352.3,427.4,352.3C427.4,352.3,427.4,352.3,427.4,352.3z"/>
		<path class="st33" d="M427.4,352.2C427.4,352.2,427.5,352.2,427.4,352.2C427.5,352.2,427.4,352.2,427.4,352.2z"/>
		<path class="st33" d="M427.9,351.9c-0.1,0-0.2,0.1-0.3,0.2C427.7,352,427.8,351.9,427.9,351.9
			C427.9,351.9,427.9,351.9,427.9,351.9z"/>
		<path class="st33" d="M427.6,352.1C427.6,352.1,427.6,352.1,427.6,352.1C427.6,352.1,427.6,352.1,427.6,352.1z"/>
		<path class="st33" d="M427.6,352.1C427.6,352.1,427.6,352.1,427.6,352.1C427.6,352.1,427.6,352.1,427.6,352.1
			C427.6,352.1,427.6,352.1,427.6,352.1z"/>
		<path class="st31" d="M472.8,360.1c-5.1,3-10.1,6-15.2,8.9c-0.8,0.5-2.1,0.5-2.9,0c-8.9-5.2-17.9-10.3-26.8-15.5
			c-0.8-0.5-0.8-1.2,0-1.7c4.9-2.8,9.8-5.7,14.6-8.5c-2,2.8,1.4,7.9,8.7,12.1C458.9,359.9,468.2,361.9,472.8,360.1z"/>
		<path class="st34" d="M451.4,360.4l-8.1-4.7l-2.5,1.5l8.1,4.7L451.4,360.4z"/>
		<path class="st35" d="M474.6,366c0-3.7-0.8-6.3-1.8-5.9l-15.2,8.9c0.1,0.1,0.2,3.1,0.2,6.8l0,1.7c0,3.6-0.1,6.6-0.2,6.6
			c0.2-0.2,0.5-0.3,0.8-0.4c0.2-0.1,0.6-0.3,0.8-0.4c0.2-0.2,0.5-0.3,0.8-0.4c0.2-0.1,0.5-0.3,0.8-0.4c1-0.6,2-1.2,3-1.8
			c3.1-1.8,6.1-3.6,9.2-5.4c1-0.6,1.7-3.9,1.7-7.5L474.6,366z"/>
		<path class="st36" d="M449.5,369.5c-0.7-0.4-1.3-0.1-1.3,0.7c0,0.8,0.6,1.8,1.3,2.2c0.7,0.4,1.3,0.1,1.3-0.7
			C450.8,370.9,450.2,369.9,449.5,369.5z"/>
		<path class="st36" d="M449.5,376.1c-0.7-0.4-1.3-0.1-1.3,0.7c0,0.8,0.6,1.8,1.3,2.2c0.7,0.4,1.3,0.1,1.3-0.7
			C450.8,377.6,450.2,376.6,449.5,376.1z"/>
		<path class="st36" d="M452.8,374.7c-0.7-0.4-1.3-0.1-1.3,0.7c0,0.8,0.6,1.8,1.3,2.2c0.7,0.4,1.3,0.1,1.3-0.7
			C454.1,376.1,453.5,375.1,452.8,374.7z"/>
		<path class="st36" d="M432.9,359.7c-0.7-0.4-1.3-0.1-1.3,0.7c0,0.8,0.6,1.8,1.3,2.2c0.7,0.4,1.3,0.1,1.3-0.7
			C434.2,361.1,433.6,360.1,432.9,359.7z"/>
		<path class="st36" d="M432.9,366.4c-0.7-0.4-1.3-0.1-1.3,0.7c0,0.8,0.6,1.8,1.3,2.2c0.7,0.4,1.3,0.1,1.3-0.7
			C434.2,367.8,433.6,366.8,432.9,366.4z"/>
		<path class="st36" d="M429.6,361.1c-0.7-0.4-1.3-0.1-1.3,0.7c0,0.8,0.6,1.8,1.3,2.2c0.7,0.4,1.3,0.1,1.3-0.7
			C430.9,362.5,430.3,361.5,429.6,361.1z"/>
		<path class="st32" d="M447.6,350.7c1.7,0,3.1-1.4,3.1-3.1s-1.4-3.1-3.1-3.1c-1.7,0-3.1,1.4-3.1,3.1S446,350.7,447.6,350.7z"/>
		<path class="st28" d="M450.8,360.6c0-2.4-1.7-5.3-3.7-6.5c-1-0.6-2-0.6-2.6-0.3l-1.9,1.1c0,0-1.1,0.5-1.1,2.4l7.5,4.4l0,0
			L450.8,360.6z"/>
		<path class="st34" d="M447.1,354.1c-1-0.6-2-0.6-2.6-0.3l-1.9,1.1c0.7-0.4,1.6-0.3,2.6,0.3c2.1,1.2,3.7,4.1,3.7,6.5c0,0,0,0,0,0
			l0,0l1.9-1.1C450.8,358.2,449.2,355.3,447.1,354.1z"/>
		<path class="st30" d="M447.8,354.9l-1.7,1c0,0,0.1,0.1,0.1,0.1l1.9-1.1c0,0-0.1-0.1-0.1-0.1L447.8,354.9z"/>
		<path class="st30" d="M449.5,356.5c0,0-0.1-0.1-0.1-0.1l-1.9,1.1c0,0,0.1,0.1,0.1,0.1L449.5,356.5z"/>
		<path class="st30" d="M446,353.7c-0.1,0-0.1,0-0.2,0l-1.9,1.1c0.1,0,0.1,0,0.2,0L446,353.7z"/>
		<path class="st30" d="M445.2,355.2c0,0,0.1,0.1,0.1,0.1l1.9-1.1c0,0-0.1-0.1-0.1-0.1L445.2,355.2z"/>
		<path class="st30" d="M446.9,356.7c0,0,0.1,0.1,0.1,0.1l1.9-1.1c0,0-0.1-0.1-0.1-0.1L446.9,356.7z"/>
		<path class="st30" d="M448.5,359.4c0,0,0,0.1,0,0.1l1.9-1.1c0,0,0-0.1,0-0.1L448.5,359.4z"/>
		<path class="st30" d="M448.1,358.5c0,0,0,0.1,0.1,0.1l1.9-1.1c0,0,0-0.1-0.1-0.1L448.1,358.5z"/>
		<path class="st30" d="M448.8,360.5c0,0.1,0,0.1,0,0.2l1.9-1.1c0-0.1,0-0.1,0-0.2L448.8,360.5z"/>
		<path class="st29" d="M445.2,355.2c-2.1-1.2-3.7-0.2-3.7,2.1l7.5,4.4c0,0,0,0,0,0C448.9,359.3,447.2,356.4,445.2,355.2z"/>
		<path class="st28" d="M445.2,357.2c-1.1-0.6-2-0.1-2,1.2l4.1,2.4c0,0,0,0,0,0C447.2,359.4,446.3,357.8,445.2,357.2z"/>
	</g>
</g>
<g>
	<defs>
		<rect id="SVGID_00000174586394101465895190000008640222379766339519_" x="245" y="773" width="60" height="60"/>
	</defs>
	<clipPath id="SVGID_00000061455576365049753660000011386871015051171458_">
		<use xlink:href="#SVGID_00000174586394101465895190000008640222379766339519_"  style="overflow:visible;"/>
	</clipPath>
	<g style="clip-path:url(#SVGID_00000061455576365049753660000011386871015051171458_);">
		<path class="st38" d="M296.4,819.1c0-6.3-2.6-13.3-6.4-18.4c0.1-0.7,0.1-1.4,0.1-2.1c0-9.3-5.7-20.1-12.6-24.1
			c-3.4-2-6.5-2-8.8-0.3l-4.1,2.3l0,0c-2.8,1.5-4.6,5.1-4.6,10.4c0,0.7,0,1.5,0.1,2.2c-3.8,0.7-6.4,4.7-6.4,11
			c0,9.3,5.7,20.1,12.6,24.1c2.3,1.3,4.5,1.8,6.3,1.4c1.9,2.5,4,4.6,6.3,5.9c3.3,1.9,6.2,2,8.5,0.5l4.8-2.8v0
			C294.7,827.7,296.4,824.1,296.4,819.1z"/>
		<path class="st39" d="M283.7,811.8c0,9.3-5.7,13.6-12.6,9.5c-7-4-12.6-14.8-12.6-24.1c0-9.3,5.7-13.6,12.6-9.5
			C278.1,791.7,283.7,802.5,283.7,811.8z"/>
		<path class="st40" d="M264.9,786.3c0.8,8.7,6.1,18.2,12.5,21.9c2.3,1.3,4.4,1.7,6.2,1.4c-0.8-8.7-6.1-18.2-12.5-21.9
			C268.8,786.4,266.7,786,264.9,786.3z"/>
		<path class="st41" d="M277.4,808.2c2.3,1.3,4.4,1.7,6.2,1.4c-0.5-5.6-2.9-11.5-6.2-16c-3.3,0.6-5.7,3.8-6.2,8.8
			C273,804.9,275.2,806.9,277.4,808.2z"/>
		<path class="st42" d="M277.4,808.2c-2.3-1.3-4.4-3.3-6.2-5.8c-0.1,0.7-0.1,1.4-0.1,2.1c0,6.2,2.5,13.1,6.3,18.2
			c3.8-0.7,6.3-4.7,6.3-10.9c0-0.7,0-1.5-0.1-2.2C281.8,809.9,279.7,809.5,277.4,808.2z"/>
		<path class="st43" d="M285.2,801.4c0,9.3-5.7,13.6-12.6,9.5c-7-4-12.6-14.8-12.6-24.1c0-9.3,5.7-13.6,12.6-9.5
			C279.6,781.3,285.2,792.1,285.2,801.4z"/>
		<path class="st44" d="M277.4,774.5c-3.4-2-6.5-2-8.8-0.3l-4.1,2.3l0,0c2.2-1.1,5-1,8,0.8c7,4,12.6,14.8,12.6,24.1
			c0,0.7,0,1.4-0.1,2.1l4.8-2.8c0,0,0,0,0,0c0.1-0.7,0.1-1.4,0.1-2.1C290.1,789.3,284.4,778.5,277.4,774.5z"/>
		<path class="st20" d="M278.9,814.6c0,9.3-5.7,13.6-12.6,9.5c-7-4-12.6-14.8-12.6-24.1c0-9.3,5.7-13.6,12.6-9.5
			C273.2,794.5,278.9,805.3,278.9,814.6z"/>
		<path class="st45" d="M260.1,789.1c0.8,8.7,6.1,18.2,12.5,21.9c2.3,1.3,4.4,1.7,6.2,1.4c-0.8-8.7-6.1-18.2-12.5-21.9
			C264,789.2,261.9,788.8,260.1,789.1z"/>
		<path class="st46" d="M291.5,821.9c0,9.3-5.7,13.6-12.6,9.5c-7-4-12.6-14.8-12.6-24.1c0-9.3,5.7-13.6,12.6-9.5
			C285.9,801.8,291.5,812.6,291.5,821.9z"/>
		<path class="st47" d="M266.4,805.2c1.8,2.4,3.9,4.5,6.2,5.8c6.4,3.7,11.7,0.4,12.5-7.4c-1.8-2.4-4-4.5-6.2-5.8
			C272.5,794.1,267.2,797.4,266.4,805.2z"/>
		<path class="st48" d="M272.6,811c2.3,1.3,4.4,1.7,6.2,1.4c-0.5-5.6-2.9-11.5-6.2-16c-3.3,0.6-5.7,3.8-6.2,8.8
			C268.2,807.7,270.3,809.7,272.6,811z"/>
		<path class="st49" d="M272.6,811c-2.3-1.3-4.4-3.3-6.2-5.8c-0.1,0.7-0.1,1.4-0.1,2.1c0,6.2,2.5,13.1,6.3,18.2
			c3.8-0.7,6.3-4.7,6.3-10.9c0-0.7,0-1.5-0.1-2.2C277,812.7,274.8,812.3,272.6,811z"/>
	</g>
</g>
<path class="st50" d="M496.8,900l-31.2-18l-2.5,1.5V924l31.2,18l2.5-1.5V900z"/>
<path class="st51" d="M463.2,924v-40.5l31.2,18l0,40.6L463.2,924z"/>
<path class="st52" d="M463.2,883.5l2.5-1.5l31.2,18l-2.5,1.5L463.2,883.5z"/>
<path class="st53" d="M467.1,890.2l23.4,13.5v31.5l-23.4-13.5L467.1,890.2z"/>
<path class="st54" d="M467.1,911.1v-20.9l23.4,13.5v20.9L467.1,911.1z"/>
<path class="st49" d="M467.1,911.1l7.2-4.2l5.1,8.4l5-0.9l6.2,10.2L467.1,911.1z"/>
<path class="st20" d="M486.7,909.9c0,2.7-1.7,4-3.7,2.8c-2.1-1.2-3.7-4.4-3.7-7.1c0-2.7,1.7-4,3.7-2.8
	C485,904,486.7,907.2,486.7,909.9z"/>
<g>
	<defs>
		<rect id="SVGID_00000009553940406868810880000017611756825410612135_" x="584" y="789" width="60" height="60"/>
	</defs>
	<clipPath id="SVGID_00000055688562692784632870000010765431748101870982_">
		<use xlink:href="#SVGID_00000009553940406868810880000017611756825410612135_"  style="overflow:visible;"/>
	</clipPath>
	<g style="clip-path:url(#SVGID_00000055688562692784632870000010765431748101870982_);">
		<path class="st56" d="M626.3,800.9l-20.1-11.5c-0.8-0.5-1.7-0.4-2.4,0h0l-3.3,2v0c-0.9,0.3-1.5,1.1-1.5,2.2v38.8
			c0,2,1.1,3.9,2.8,4.9l20.1,11.5c0.7,0.4,1.5,0.4,2.2,0.1l0,0l3.8-2.2v0c0.7-0.4,1.2-1.1,1.2-2v-38.7
			C629.1,803.7,628,801.9,626.3,800.9z"/>
		<path class="st57" d="M598.9,832.3v-38.8c0-1.8,2-2.9,3.5-2l20.1,11.5c1.8,1,2.8,2.9,2.8,4.9v38.7c0,1.8-2,2.9-3.5,2l-20.1-11.5
			C600,836.2,598.9,834.3,598.9,832.3z"/>
		<path class="st46" d="M601.4,794.8l20.6,11.7v35l-20.6-12V794.8z"/>
		<path class="st43" d="M605.2,799l1.9,1.1c0.7,0.4,1.1,1.2,1.1,2v3.1c0,0.7-0.8,1.1-1.4,0.8l-1.9-1.1c-0.7-0.4-1.1-1.2-1.1-2l0-3.1
			C603.8,799.1,604.5,798.7,605.2,799z"/>
		<path class="st47" d="M610.9,802.3l1.9,1.1c0.7,0.4,1.1,1.2,1.1,2v3.1c0,0.7-0.8,1.1-1.4,0.8l-1.9-1.1c-0.7-0.4-1.1-1.2-1.1-2
			l0-3.1C609.5,802.4,610.3,802,610.9,802.3z"/>
		<path class="st38" d="M616.7,805.6l1.9,1.1c0.7,0.4,1.1,1.2,1.1,2v3.1c0,0.7-0.8,1.1-1.4,0.8l-1.9-1.1c-0.7-0.4-1.1-1.2-1.1-2
			l0-3.1C615.3,805.6,616,805.2,616.7,805.6z"/>
		<path class="st49" d="M605.2,807.4l1.9,1.1c0.7,0.4,1.1,1.2,1.1,2v3.1c0,0.7-0.8,1.1-1.4,0.8l-1.9-1.1c-0.7-0.4-1.1-1.2-1.1-2
			l0-3.1C603.8,807.5,604.5,807.1,605.2,807.4z"/>
		<path class="st20" d="M610.9,810.7l1.9,1.1c0.7,0.4,1.1,1.2,1.1,2v3.1c0,0.7-0.8,1.1-1.4,0.8l-1.9-1.1c-0.7-0.4-1.1-1.2-1.1-2
			l0-3.1C609.5,810.8,610.3,810.4,610.9,810.7z"/>
		<path class="st45" d="M616.7,814l1.9,1.1c0.7,0.4,1.1,1.2,1.1,2v3.1c0,0.7-0.8,1.1-1.4,0.8l-1.9-1.1c-0.7-0.4-1.1-1.2-1.1-2l0-3.1
			C615.3,814.1,616.1,813.7,616.7,814z"/>
		<path class="st38" d="M605.1,815.9l1.9,1.1c0.7,0.4,1.1,1.2,1.1,2v3.1c0,0.7-0.8,1.1-1.4,0.8l-1.9-1.1c-0.7-0.4-1.1-1.2-1.1-2
			l0-3.1C603.8,816,604.5,815.6,605.1,815.9z"/>
		<path class="st43" d="M610.9,819.2l1.9,1.1c0.7,0.4,1.1,1.2,1.1,2v3.1c0,0.7-0.8,1.1-1.4,0.8l-1.9-1.1c-0.7-0.4-1.1-1.2-1.1-2
			l0-3.1C609.5,819.3,610.3,818.8,610.9,819.2z"/>
		<path class="st47" d="M616.7,822.5l1.9,1.1c0.7,0.4,1.1,1.2,1.1,2v3.1c0,0.7-0.8,1.1-1.4,0.8l-1.9-1.1c-0.7-0.4-1.1-1.2-1.1-2
			l0-3.1C615.3,822.5,616.1,822.1,616.7,822.5z"/>
		<path class="st20" d="M605.1,824.3l1.9,1.1c0.7,0.4,1.1,1.2,1.1,2v3.1c0,0.7-0.8,1.1-1.4,0.8l-1.9-1.1c-0.7-0.4-1.1-1.2-1.1-2
			l0-3.1C603.8,824.4,604.5,824,605.1,824.3z"/>
		<path class="st49" d="M610.9,827.6l1.9,1.1c0.7,0.4,1.1,1.2,1.1,2v3.1c0,0.7-0.8,1.1-1.4,0.8l-1.9-1.1c-0.7-0.4-1.1-1.2-1.1-2
			l0-3.1C609.5,827.7,610.3,827.3,610.9,827.6z"/>
		<path class="st38" d="M616.7,830.9l1.9,1.1c0.7,0.4,1.1,1.2,1.1,2v3.1c0,0.7-0.8,1.1-1.4,0.8l-1.9-1.1c-0.7-0.4-1.1-1.2-1.1-2
			l0-3.1C615.3,831,616.1,830.5,616.7,830.9z"/>
		<path class="st58" d="M612.8,839.9c0,1.3-0.8,1.9-1.7,1.3c-1-0.6-1.7-2.1-1.7-3.3c0-1.3,0.8-1.9,1.7-1.3
			C612,837.2,612.8,838.7,612.8,839.9z"/>
		<path class="st59" d="M601.4,825.2l20.6-15.6v-3.1l-14.8-8.4l-5.8,4.4V825.2z"/>
		<path class="st59" d="M622,833.7V818l-17.5,13.2l11.7,6.8L622,833.7z"/>
	</g>
</g>
<path class="st60" d="M594,595l-13,7.5v7.5l26,15l25.8-14.9v-7.6l-12.8-7.4L594,595z"/>
<path class="st61" d="M607.1,565l25.8,15v7.6l-25.8,14.9l-26-15V580L607.1,565z"/>
<path class="st45" d="M607.1,565l-26,15l26,15l25.8-15L607.1,565z"/>
<path class="st62" d="M607.1,617.5v7.5l25.8-14.9v-7.6L607.1,617.5z"/>
<path class="st47" d="M607.1,602.6L594,595l-13,7.5l26,15l25.8-15l-12.8-7.4L607.1,602.6z"/>
<path class="st63" d="M607.1,595.1v7.5l25.8-14.9V580L607.1,595.1z"/>
<path class="st61" d="M581.1,580l26,15v7.5l-26-15V580z"/>
<path class="st50" d="M133.8,324l-31.3-18l-2.3,1.3v40.6l31.3,18.1l2.3-1.3V324z"/>
<path class="st51" d="M100.2,347.9v-40.6l31.3,18l0,40.6L100.2,347.9z"/>
<path class="st52" d="M100.2,307.3l2.3-1.3l31.3,18l-2.3,1.4L100.2,307.3z"/>
<path class="st50" d="M102.3,324.5l11.7,6.8v15.9l-11.7-6.8L102.3,324.5z"/>
<path class="st47" d="M131.5,336.7l-31.3-18v-11.3l31.3,18V336.7z"/>
<path class="st1" d="M126.6,329.8L105.1,317v-2.9l21.6,12.8V329.8z"/>
<path class="st64" d="M127.4,341l-11.5-6.6v-2.1l11.5,6.6V341z"/>
<path class="st64" d="M127.4,345.5l-11.5-6.6v-2.1l11.5,6.6V345.5z"/>
<path class="st64" d="M127.4,350l-11.5-6.6v-2.1l11.5,6.6V350z"/>
<path class="st64" d="M127.4,354.5l-11.5-6.6v-2.1l11.5,6.6V354.5z"/>
<path class="st64" d="M127.4,359.2l-25.1-14.5v-2.1l25.1,14.5V359.2z"/>
</svg>
