<svg width="750" height="524" viewBox="0 0 750 524" fill="none" xmlns="http://www.w3.org/2000/svg">
<rect opacity="0.1" x="20" width="471" height="377" fill="#7E44FE"/>
<rect opacity="0.1" x="279" y="141" width="471" height="377" fill="#E06AE9"/>
<rect opacity="0.1" x="577" y="9" width="137" height="110" fill="#E84142"/>
<path d="M389.072 185.277H388.572H333.436L333.014 184.014L389.072 185.277ZM389.072 185.277C389.072 173.485 392.865 164.642 400.452 158.746C408.038 152.85 417.17 149.903 427.848 149.903C440.493 149.903 450.257 153.412 457.141 160.431C464.166 167.449 467.678 177.346 467.678 190.12C467.678 197.279 466.414 204.298 463.885 211.176C461.496 218.054 457.773 224.792 452.716 231.39C447.798 237.988 441.406 244.585 433.538 251.183L389.072 185.277ZM394.051 328.038V328.538H394.551H451.873H452.373V328.038C452.373 319.91 452.794 313.272 453.631 308.115L453.631 308.113C454.465 302.838 456.129 298.129 458.62 293.979C461.255 289.823 465.221 285.439 470.535 280.829L470.539 280.825C481.65 270.988 491.289 261.428 499.454 252.145L499.457 252.142C507.634 242.704 513.984 232.836 518.502 222.539C523.169 212.083 525.5 200.713 525.5 188.435C525.5 162.205 516.884 141.494 499.619 126.365C482.36 111.1 458.344 103.5 427.637 103.5C408.895 103.5 392.316 106.668 377.911 113.018C363.501 119.37 352.255 128.623 344.189 140.781C336.116 152.811 332.232 167.233 332.514 184.022L332.516 184.099L332.54 184.172L332.961 185.435L333.075 185.777H333.436H389.072H389.572V185.277C389.572 173.601 393.321 164.92 400.758 159.141C408.248 153.321 417.269 150.403 427.848 150.403C440.399 150.403 450.019 153.883 456.784 160.781L456.788 160.784C463.694 167.684 467.178 177.439 467.178 190.12C467.178 197.219 465.925 204.179 463.416 211.003L463.413 211.012C461.044 217.833 457.349 224.525 452.319 231.086L452.315 231.091C447.426 237.65 441.064 244.219 433.22 250.797C425.065 257.4 418.447 263.308 413.372 268.519C408.288 273.599 404.324 278.76 401.487 284.003L401.487 284.003L401.482 284.012C398.785 289.261 396.874 295.348 395.743 302.269C394.614 309.183 394.051 317.775 394.051 328.038ZM393.84 415V415.5H394.34H452.083H452.583V415V363.202V362.702H452.083H394.34H393.84V363.202V415Z" fill="#D9C2F7" stroke="#8647C1"/>
<path d="M369.072 165.277H368.572H313.436L313.014 164.014L369.072 165.277ZM369.072 165.277C369.072 153.485 372.865 144.642 380.452 138.746C388.038 132.85 397.17 129.903 407.848 129.903C420.493 129.903 430.257 133.412 437.141 140.431C444.166 147.449 447.678 157.346 447.678 170.12C447.678 177.279 446.414 184.298 443.885 191.176C441.496 198.054 437.773 204.792 432.716 211.39C427.798 217.988 421.406 224.585 413.538 231.183L369.072 165.277ZM374.051 308.038V308.538H374.551H431.873H432.373V308.038C432.373 299.91 432.794 293.272 433.631 288.115L433.631 288.113C434.465 282.838 436.129 278.129 438.62 273.979C441.255 269.823 445.221 265.439 450.535 260.829L450.539 260.825C461.65 250.988 471.289 241.428 479.454 232.145L479.457 232.142C487.634 222.704 493.984 212.836 498.502 202.539C503.169 192.083 505.5 180.713 505.5 168.435C505.5 142.205 496.884 121.494 479.619 106.365C462.36 91.1004 438.344 83.5 407.637 83.5C388.895 83.5 372.316 86.668 357.911 93.0178C343.501 99.3697 332.255 108.623 324.189 120.781C316.116 132.811 312.232 147.233 312.514 164.022L312.516 164.099L312.54 164.172L312.961 165.435L313.075 165.777H313.436H369.072H369.572V165.277C369.572 153.601 373.321 144.92 380.758 139.141C388.248 133.321 397.269 130.403 407.848 130.403C420.399 130.403 430.019 133.883 436.784 140.781L436.788 140.784C443.694 147.684 447.178 157.439 447.178 170.12C447.178 177.219 445.925 184.179 443.416 191.003L443.413 191.012C441.044 197.833 437.349 204.525 432.319 211.086L432.315 211.091C427.426 217.65 421.064 224.219 413.22 230.797C405.065 237.4 398.447 243.308 393.372 248.519C388.288 253.599 384.324 258.76 381.487 264.003L381.487 264.003L381.482 264.012C378.785 269.261 376.874 275.348 375.743 282.269C374.614 289.183 374.051 297.775 374.051 308.038ZM373.84 395V395.5H374.34H432.083H432.583V395V343.202V342.702H432.083H374.34H373.84V343.202V395Z" fill="#D9C2F7" stroke="#8647C1"/>
<path d="M349.072 145.277H348.572H293.436L293.014 144.014L349.072 145.277ZM349.072 145.277C349.072 133.485 352.865 124.642 360.452 118.746C368.038 112.85 377.17 109.903 387.848 109.903C400.493 109.903 410.257 113.412 417.141 120.431C424.166 127.449 427.678 137.346 427.678 150.12C427.678 157.279 426.414 164.298 423.885 171.176C421.496 178.054 417.773 184.792 412.716 191.39C407.798 197.988 401.406 204.585 393.538 211.183L349.072 145.277ZM354.051 288.038V288.538H354.551H411.873H412.373V288.038C412.373 279.91 412.794 273.272 413.631 268.115L413.631 268.113C414.465 262.838 416.129 258.129 418.62 253.979C421.255 249.823 425.221 245.439 430.535 240.829L430.539 240.825C441.65 230.988 451.289 221.428 459.454 212.145L459.457 212.142C467.634 202.704 473.984 192.836 478.502 182.539C483.169 172.083 485.5 160.713 485.5 148.435C485.5 122.205 476.884 101.494 459.619 86.3648C442.36 71.1004 418.344 63.5 387.637 63.5C368.895 63.5 352.316 66.668 337.911 73.0178C323.501 79.3697 312.255 88.6235 304.189 100.781C296.116 112.811 292.232 127.233 292.514 144.022L292.516 144.099L292.54 144.172L292.961 145.435L293.075 145.777H293.436H349.072H349.572V145.277C349.572 133.601 353.321 124.92 360.758 119.141C368.248 113.321 377.269 110.403 387.848 110.403C400.399 110.403 410.019 113.883 416.784 120.781L416.788 120.784C423.694 127.684 427.178 137.439 427.178 150.12C427.178 157.219 425.925 164.179 423.416 171.003L423.413 171.012C421.044 177.833 417.349 184.525 412.319 191.086L412.315 191.091C407.426 197.65 401.064 204.219 393.22 210.797C385.065 217.4 378.447 223.308 373.372 228.519C368.288 233.599 364.324 238.76 361.487 244.003L361.487 244.003L361.482 244.012C358.785 249.261 356.874 255.348 355.743 262.269C354.614 269.183 354.051 277.775 354.051 288.038ZM353.84 375V375.5H354.34H412.083H412.583V375V323.202V322.702H412.083H354.34H353.84V323.202V375Z" fill="#D9C2F7" stroke="#8647C1"/>
<path d="M329.072 125.277H328.572H273.436L273.014 124.014L329.072 125.277ZM329.072 125.277C329.072 113.485 332.865 104.642 340.452 98.7461C348.038 92.8504 357.17 89.9025 367.848 89.9025C380.493 89.9025 390.257 93.4119 397.141 100.431C404.166 107.449 407.678 117.346 407.678 130.12C407.678 137.279 406.414 144.298 403.885 151.176C401.496 158.054 397.773 164.792 392.716 171.39C387.798 177.988 381.406 184.585 373.538 191.183L329.072 125.277ZM334.051 268.038V268.538H334.551H391.873H392.373V268.038C392.373 259.91 392.794 253.272 393.631 248.115L393.631 248.113C394.465 242.838 396.129 238.129 398.62 233.979C401.255 229.823 405.221 225.439 410.535 220.829L410.539 220.825C421.65 210.988 431.289 201.428 439.454 192.145L439.457 192.142C447.634 182.704 453.984 172.836 458.502 162.539C463.169 152.083 465.5 140.713 465.5 128.435C465.5 102.205 456.884 81.4941 439.619 66.3648C422.36 51.1004 398.344 43.5 367.637 43.5C348.895 43.5 332.316 46.668 317.911 53.0178C303.501 59.3697 292.255 68.6235 284.189 80.7813C276.116 92.8108 272.232 107.233 272.514 124.022L272.516 124.099L272.54 124.172L272.961 125.435L273.075 125.777H273.436H329.072H329.572V125.277C329.572 113.601 333.321 104.92 340.758 99.1409C348.248 93.321 357.269 90.4025 367.848 90.4025C380.399 90.4025 390.019 93.8833 396.784 100.781L396.788 100.784C403.694 107.684 407.178 117.439 407.178 130.12C407.178 137.219 405.925 144.179 403.416 151.003L403.413 151.012C401.044 157.833 397.349 164.525 392.319 171.086L392.315 171.091C387.426 177.65 381.064 184.219 373.22 190.797C365.065 197.4 358.447 203.308 353.372 208.519C348.288 213.599 344.324 218.76 341.487 224.003L341.487 224.003L341.482 224.012C338.785 229.261 336.874 235.348 335.743 242.269C334.614 249.183 334.051 257.775 334.051 268.038ZM333.84 355V355.5H334.34H392.083H392.583V355V303.202V302.702H392.083H334.34H333.84V303.202V355Z" fill="#D9C2F7" stroke="#8647C1"/>
<path d="M309.072 105.277H308.572H253.436L253.014 104.014L309.072 105.277ZM309.072 105.277C309.072 93.4854 312.865 84.6418 320.452 78.7461C328.038 72.8504 337.17 69.9025 347.848 69.9025C360.493 69.9025 370.257 73.4119 377.141 80.4306C384.166 87.4493 387.678 97.3457 387.678 110.12C387.678 117.279 386.414 124.298 383.885 131.176C381.496 138.054 377.773 144.792 372.716 151.39C367.798 157.988 361.406 164.585 353.538 171.183L309.072 105.277ZM314.051 248.038V248.538H314.551H371.873H372.373V248.038C372.373 239.91 372.794 233.272 373.631 228.115L373.631 228.113C374.465 222.838 376.129 218.129 378.62 213.979C381.255 209.823 385.221 205.439 390.535 200.829L390.539 200.825C401.65 190.988 411.289 181.428 419.454 172.145L419.457 172.142C427.634 162.704 433.984 152.836 438.502 142.539C443.169 132.083 445.5 120.713 445.5 108.435C445.5 82.205 436.884 61.4941 419.619 46.3648C402.36 31.1004 378.344 23.5 347.637 23.5C328.895 23.5 312.316 26.668 297.911 33.0178C283.501 39.3697 272.255 48.6235 264.189 60.7813C256.116 72.8108 252.232 87.2328 252.514 104.022L252.516 104.099L252.54 104.172L252.961 105.435L253.075 105.777H253.436H309.072H309.572V105.277C309.572 93.6009 313.321 84.9204 320.758 79.1409C328.248 73.321 337.269 70.4025 347.848 70.4025C360.399 70.4025 370.019 73.8833 376.784 80.7807L376.788 80.7843C383.694 87.6845 387.178 97.4387 387.178 110.12C387.178 117.219 385.925 124.179 383.416 131.003L383.413 131.012C381.044 137.833 377.349 144.525 372.319 151.086L372.315 151.091C367.426 157.65 361.064 164.219 353.22 170.797C345.065 177.4 338.447 183.308 333.372 188.519C328.288 193.599 324.324 198.76 321.487 204.003L321.487 204.003L321.482 204.012C318.785 209.261 316.874 215.348 315.743 222.269C314.614 229.183 314.051 237.775 314.051 248.038ZM313.84 335V335.5H314.34H372.083H372.583V335V283.202V282.702H372.083H314.34H313.84V283.202V335Z" fill="#D9C2F7" stroke="#8647C1"/>
<path d="M289.072 85.2769H288.572H233.436L233.014 84.0135L289.072 85.2769ZM289.072 85.2769C289.072 73.4854 292.865 64.6418 300.452 58.7461C308.038 52.8504 317.17 49.9025 327.848 49.9025C340.493 49.9025 350.257 53.4119 357.141 60.4306C364.166 67.4493 367.678 77.3457 367.678 90.1198C367.678 97.2789 366.414 104.298 363.885 111.176C361.496 118.054 357.773 124.792 352.716 131.39C347.798 137.988 341.406 144.585 333.538 151.183L289.072 85.2769ZM294.051 228.038V228.538H294.551H351.873H352.373V228.038C352.373 219.91 352.794 213.272 353.631 208.115L353.631 208.113C354.465 202.838 356.129 198.129 358.62 193.979C361.255 189.823 365.221 185.439 370.535 180.829L370.539 180.825C381.65 170.988 391.289 161.428 399.454 152.145L399.457 152.142C407.634 142.704 413.984 132.836 418.502 122.539C423.169 112.083 425.5 100.713 425.5 88.4353C425.5 62.205 416.884 41.4941 399.619 26.3648C382.36 11.1004 358.344 3.5 327.637 3.5C308.895 3.5 292.316 6.66802 277.911 13.0178C263.501 19.3697 252.255 28.6235 244.189 40.7813C236.116 52.8108 232.232 67.2328 232.514 84.0219L232.516 84.0988L232.54 84.1718L232.961 85.4351L233.075 85.7769H233.436H289.072H289.572V85.2769C289.572 73.6009 293.321 64.9204 300.758 59.1409C308.248 53.321 317.269 50.4025 327.848 50.4025C340.399 50.4025 350.019 53.8833 356.784 60.7807L356.788 60.7843C363.694 67.6845 367.178 77.4387 367.178 90.1198C367.178 97.2187 365.925 104.179 363.416 111.003L363.413 111.012C361.044 117.833 357.349 124.525 352.319 131.086L352.315 131.091C347.426 137.65 341.064 144.219 333.22 150.797C325.065 157.4 318.447 163.308 313.372 168.519C308.288 173.599 304.324 178.76 301.487 184.003L301.487 184.003L301.482 184.012C298.785 189.261 296.874 195.348 295.743 202.269C294.614 209.183 294.051 217.775 294.051 228.038ZM293.84 315V315.5H294.34H352.083H352.583V315V263.202V262.702H352.083H294.34H293.84V263.202V315Z" fill="#7A18D5" stroke="black"/>
<path d="M123.923 456.562V457.062H124.423H168.216H168.716V456.562C168.716 450.356 169.038 445.291 169.676 441.359L169.676 441.357C170.311 437.341 171.578 433.758 173.472 430.603C175.477 427.441 178.498 424.101 182.552 420.583L182.555 420.58C191.047 413.062 198.415 405.754 204.657 398.658L204.659 398.655C210.914 391.437 215.772 383.888 219.229 376.009C222.801 368.005 224.585 359.302 224.585 349.907C224.585 329.839 217.992 313.982 204.773 302.397C191.559 290.711 173.18 284.899 149.701 284.899C135.369 284.899 122.686 287.322 111.663 292.18C100.635 297.042 92.0245 304.125 85.8493 313.434C79.6658 322.647 76.6938 333.69 76.9099 346.537L76.9112 346.614L76.9355 346.687L77.2575 347.652L77.3716 347.994H77.7319H120.237H120.737V347.494C120.737 338.601 123.592 332.007 129.238 327.619C134.937 323.191 141.802 320.968 149.862 320.968C159.428 320.968 166.744 323.62 171.885 328.861L171.888 328.865C177.136 334.109 179.792 341.527 179.792 351.194C179.792 356.603 178.837 361.907 176.924 367.108L176.924 367.108L176.921 367.116C175.116 372.314 172.3 377.415 168.464 382.419L168.46 382.425C164.731 387.427 159.878 392.439 153.891 397.459C147.659 402.505 142.6 407.021 138.719 411.007C134.829 414.894 131.792 418.846 129.619 422.863L129.614 422.873C127.546 426.895 126.083 431.558 125.218 436.855C124.353 442.146 123.923 448.717 123.923 456.562ZM123.762 523V523.5H124.262H168.377H168.877V523V483.427V482.927H168.377H124.262H123.762V483.427V523Z" fill="#FFDCFE" stroke="#C78BCC"/>
<path d="M108.643 441.282V441.782H109.143H152.937H153.437V441.282C153.437 435.076 153.758 430.011 154.396 426.08L154.397 426.078C155.031 422.061 156.298 418.479 158.193 415.323C160.198 412.161 163.218 408.821 167.272 405.304L167.275 405.3C175.768 397.782 183.135 390.475 189.377 383.378L189.38 383.375C195.634 376.157 200.492 368.608 203.949 360.73C207.522 352.725 209.305 344.022 209.305 334.627C209.305 314.559 202.712 298.702 189.493 287.118C176.28 275.431 157.9 269.619 134.421 269.619C120.089 269.619 107.406 272.042 96.3834 276.901C85.3554 281.762 76.7448 288.846 70.5695 298.154C64.386 307.368 61.414 318.41 61.6301 331.257L61.6314 331.334L61.6558 331.407L61.9778 332.372L62.0918 332.714H62.4521H104.957H105.457V332.214C105.457 323.321 108.312 316.727 113.958 312.339C119.657 307.911 126.523 305.688 134.582 305.688C144.148 305.688 151.464 308.341 156.605 313.582L156.608 313.585C161.857 318.829 164.512 326.248 164.512 335.914C164.512 341.323 163.557 346.627 161.645 351.828L161.645 351.828L161.642 351.837C159.837 357.035 157.02 362.136 153.184 367.14L153.18 367.145C149.452 372.147 144.598 377.159 138.611 382.18C132.379 387.225 127.32 391.741 123.439 395.727C119.549 399.614 116.512 403.566 114.339 407.584L114.334 407.593C112.266 411.615 110.804 416.279 109.938 421.575C109.073 426.866 108.643 433.437 108.643 441.282ZM108.482 507.72V508.22H108.982H153.098H153.598V507.72V468.147V467.647H153.098H108.982H108.482V468.147V507.72Z" fill="#FFDCFE" stroke="#C78BCC"/>
<path d="M93.3636 426.002V426.502H93.8636H137.657H138.157V426.002C138.157 419.796 138.478 414.731 139.116 410.8L139.117 410.798C139.751 406.782 141.019 403.199 142.913 400.043C144.918 396.882 147.938 393.541 151.992 390.024L151.996 390.021C160.488 382.502 167.856 375.195 174.097 368.098L174.1 368.096C180.354 360.877 185.212 353.329 188.669 345.45C192.242 337.445 194.025 328.742 194.025 319.347C194.025 299.279 187.433 283.422 174.213 271.838C161 260.151 142.62 254.339 119.141 254.339C104.809 254.339 92.1265 256.762 81.1036 261.621C70.0756 266.482 61.465 273.566 55.2897 282.874C49.1062 292.088 46.1342 303.131 46.3503 315.977L46.3516 316.054L46.376 316.127L46.698 317.092L46.812 317.434H47.1723H89.6775H90.1775V316.934C90.1775 308.041 93.032 301.448 98.6786 297.06C104.377 292.631 111.243 290.408 119.302 290.408C128.869 290.408 136.184 293.061 141.325 298.302L141.329 298.305C146.577 303.549 149.232 310.968 149.232 320.634C149.232 326.043 148.277 331.347 146.365 336.548L146.365 336.548L146.362 336.557C144.557 341.755 141.74 346.856 137.904 351.86L137.9 351.865C134.172 356.867 129.318 361.879 123.331 366.9C117.099 371.946 112.041 376.462 108.159 380.447C104.269 384.334 101.233 388.286 99.059 392.304L99.0541 392.313C96.9867 396.336 95.5237 400.999 94.6582 406.296C93.7936 411.587 93.3636 418.158 93.3636 426.002ZM93.2026 492.44V492.94H93.7026H137.818H138.318V492.44V452.867V452.367H137.818H93.7026H93.2026V452.867V492.44Z" fill="#FFDCFE" stroke="#C78BCC"/>
<path d="M78.0838 410.722V411.222H78.5838H122.377H122.877V410.722C122.877 404.516 123.199 399.451 123.837 395.52L123.837 395.518C124.472 391.502 125.739 387.919 127.633 384.763C129.638 381.602 132.658 378.261 136.712 374.744L136.716 374.741C145.208 367.222 152.576 359.915 158.818 352.819L158.82 352.816C165.074 345.597 169.932 338.049 173.389 330.17C176.962 322.165 178.746 313.462 178.746 304.067C178.746 284 172.153 268.142 158.934 256.558C145.72 244.871 127.341 239.06 103.862 239.06C89.5296 239.06 76.8467 241.482 65.8238 246.341C54.7959 251.202 46.1852 258.286 40.0099 267.595C33.8264 276.808 30.8545 287.851 31.0706 300.698L31.0718 300.774L31.0962 300.847L31.4182 301.813L31.5322 302.154H31.8925H74.3977H74.8977V301.654C74.8977 292.761 77.7522 286.168 83.3988 281.78C89.0974 277.351 95.963 275.129 104.023 275.129C113.589 275.129 120.905 277.781 126.045 283.022L126.049 283.026C131.297 288.269 133.952 295.688 133.952 305.354C133.952 310.764 132.997 316.067 131.085 321.268L131.085 321.268L131.082 321.277C129.277 326.475 126.46 331.576 122.624 336.58L122.62 336.585C118.892 341.587 114.038 346.6 108.051 351.62C101.82 356.666 96.7607 361.182 92.8794 365.167C88.9892 369.055 85.9528 373.006 83.7792 377.024L83.7743 377.033C81.7069 381.056 80.2439 385.719 79.3784 391.016C78.5139 396.307 78.0838 402.878 78.0838 410.722ZM77.9228 477.161V477.661H78.4228H122.538H123.038V477.161V437.587V437.087H122.538H78.4228H77.9228V437.587V477.161Z" fill="#FFDCFE" stroke="#C78BCC"/>
<path d="M62.804 395.443V395.943H63.304H107.097H107.597V395.443C107.597 389.236 107.919 384.172 108.557 380.24L108.557 380.238C109.192 376.222 110.459 372.639 112.353 369.483C114.358 366.322 117.379 362.982 121.432 359.464L121.436 359.461C129.928 351.943 137.296 344.635 143.538 337.539L143.54 337.536C149.794 330.318 154.653 322.769 158.11 314.89C161.682 306.886 163.466 298.183 163.466 288.788C163.466 268.72 156.873 252.863 143.654 241.278C130.44 229.591 112.061 223.78 88.5818 223.78C74.2498 223.78 61.5669 226.202 50.544 231.061C39.5161 235.922 30.9054 243.006 24.7301 252.315C18.5467 261.528 15.5747 272.571 15.7908 285.418L15.7921 285.495L15.8164 285.568L16.1384 286.533L16.2524 286.875H16.6127H59.1179H59.6179V286.375C59.6179 277.481 62.4724 270.888 68.119 266.5C73.8176 262.072 80.6833 259.849 88.7428 259.849C98.3091 259.849 105.625 262.501 110.765 267.742L110.769 267.746C116.017 272.99 118.673 280.408 118.673 290.075C118.673 295.484 117.718 300.788 115.805 305.989L115.805 305.989L115.802 305.997C113.997 311.195 111.181 316.296 107.344 321.3L107.34 321.306C103.612 326.308 98.7584 331.32 92.7717 336.34C86.5399 341.386 81.481 345.902 77.5996 349.888C73.7094 353.775 70.673 357.727 68.4994 361.744L68.4945 361.754C66.4271 365.776 64.9642 370.439 64.0986 375.736C63.2341 381.027 62.804 387.598 62.804 395.443ZM62.643 461.881V462.381H63.143H107.258H107.758V461.881V422.307V421.807H107.258H63.143H62.643V422.307V461.881Z" fill="#FFDCFE" stroke="#C78BCC"/>
<path d="M47.5243 380.163V380.663H48.0243H91.8175H92.3175V380.163C92.3175 373.957 92.639 368.892 93.2771 364.961L93.2774 364.958C93.9121 360.942 95.1791 357.36 97.0734 354.204C99.0784 351.042 102.099 347.702 106.153 344.184L106.156 344.181C114.649 336.663 122.016 329.356 128.258 322.259L128.26 322.256C134.515 315.038 139.373 307.489 142.83 299.61C146.402 291.606 148.186 282.903 148.186 273.508C148.186 253.44 141.593 237.583 128.374 225.998C115.161 214.312 96.7811 208.5 73.302 208.5C58.97 208.5 46.2871 210.923 35.2642 215.782C24.2363 220.643 15.6256 227.726 9.45034 237.035C3.26688 246.249 0.294891 257.291 0.510986 270.138L0.51228 270.215L0.536614 270.288L0.858624 271.253L0.972643 271.595H1.33292H43.8381H44.3381V271.095C44.3381 262.202 47.1927 255.608 52.8392 251.22C58.5378 246.792 65.4035 244.569 73.463 244.569C83.0293 244.569 90.3451 247.222 95.4857 252.463L95.4892 252.466C100.737 257.71 103.393 265.128 103.393 274.795C103.393 280.204 102.438 285.508 100.525 290.709L100.525 290.709L100.522 290.717C98.7175 295.915 95.9009 301.016 92.0647 306.02L92.0606 306.026C88.3326 311.028 83.4786 316.04 77.4919 321.061C71.2601 326.106 66.2012 330.622 62.3198 334.608C58.4296 338.495 55.3932 342.447 53.2197 346.464L53.2147 346.474C51.1473 350.496 49.6844 355.159 48.8188 360.456C47.9543 365.747 47.5243 372.318 47.5243 380.163ZM47.3633 446.601V447.101H47.8633H91.9785H92.4785V446.601V407.028V406.528H91.9785H47.8633H47.3633V407.028V446.601Z" fill="#E06AE9" stroke="black"/>
<path d="M629.003 397.433V397.933H629.503H655.584H656.084V397.433C656.084 393.743 656.275 390.739 656.653 388.412L656.653 388.41C657.027 386.042 657.773 383.935 658.886 382.08C660.066 380.22 661.85 378.246 664.254 376.159L664.258 376.156C669.32 371.674 673.714 367.316 677.438 363.083L677.44 363.08C681.177 358.768 684.081 354.255 686.149 349.543C688.289 344.748 689.356 339.537 689.356 333.916C689.356 321.916 685.411 312.413 677.489 305.47C669.572 298.468 658.572 294.999 644.557 294.999C635.999 294.999 628.418 296.445 621.823 299.352C615.223 302.262 610.064 306.504 606.363 312.083C602.654 317.609 600.876 324.227 601.005 331.912L601.006 331.989L601.031 332.062L601.223 332.637L601.337 332.979H601.697H627.01H627.51V332.479C627.51 327.229 629.193 323.369 632.495 320.802C635.849 318.196 639.893 316.884 644.653 316.884C650.312 316.884 654.611 318.452 657.624 321.524L657.628 321.528C660.705 324.603 662.275 328.963 662.275 334.682C662.275 337.879 661.711 341.014 660.58 344.09L660.58 344.09L660.577 344.099C659.51 347.171 657.844 350.19 655.571 353.155L655.571 353.155L655.567 353.161C653.358 356.124 650.479 359.098 646.924 362.079C643.21 365.087 640.192 367.781 637.873 370.161C635.546 372.487 633.725 374.856 632.42 377.268L632.42 377.268L632.415 377.278C631.172 379.695 630.295 382.493 629.777 385.665C629.26 388.83 629.003 392.755 629.003 397.433ZM628.908 437V437.5H629.408H655.68H656.18V437V413.432V412.932H655.68H629.408H628.908V413.432V437Z" fill="#FFCACA" stroke="#EA9192"/>
<path d="M619.905 388.334V388.834H620.405H646.485H646.985V388.334C646.985 384.643 647.177 381.639 647.554 379.312L647.555 379.31C647.929 376.943 648.675 374.835 649.788 372.98C650.968 371.12 652.751 369.146 655.155 367.06L655.159 367.057C660.221 362.575 664.615 358.217 668.339 353.983L668.342 353.98C672.078 349.668 674.983 345.156 677.05 340.443C679.19 335.649 680.258 330.437 680.258 324.816C680.258 312.816 676.313 303.314 668.39 296.371C660.473 289.368 649.474 285.899 635.459 285.899C626.901 285.899 619.319 287.346 612.724 290.253C606.124 293.162 600.965 297.405 597.264 302.983C593.555 308.51 591.777 315.128 591.906 322.813L591.908 322.89L591.932 322.963L592.124 323.537L592.238 323.879H592.598H617.912H618.412V323.379C618.412 318.13 620.094 314.269 623.396 311.703C626.751 309.096 630.794 307.784 635.555 307.784C641.214 307.784 645.512 309.352 648.526 312.425L648.529 312.428C651.607 315.503 653.177 319.864 653.177 325.583C653.177 328.78 652.612 331.915 651.482 334.99L651.482 334.99L651.479 334.999C650.412 338.071 648.745 341.091 646.472 344.056L646.472 344.056L646.468 344.061C644.26 347.025 641.381 349.998 637.825 352.98C634.111 355.987 631.093 358.681 628.774 361.062C626.447 363.388 624.626 365.756 623.321 368.169L623.321 368.169L623.316 368.178C622.074 370.596 621.197 373.394 620.678 376.565C620.161 379.731 619.905 383.656 619.905 388.334ZM619.809 427.9V428.4H620.309H646.581H647.081V427.9V404.333V403.833H646.581H620.309H619.809V404.333V427.9Z" fill="#FFCACA" stroke="#EA9192"/>
<path d="M610.804 379.234V379.734H611.304H637.385H637.885V379.234C637.885 375.543 638.076 372.539 638.454 370.213L638.454 370.211C638.828 367.843 639.574 365.735 640.687 363.881C641.867 362.02 643.65 360.046 646.055 357.96L646.058 357.957C651.121 353.475 655.515 349.117 659.239 344.883L659.241 344.881C662.977 340.568 665.882 336.056 667.95 331.343C670.09 326.549 671.157 321.338 671.157 315.716C671.157 303.716 667.212 294.214 659.289 287.271C651.372 280.269 640.373 276.799 626.358 276.799C617.8 276.799 610.218 278.246 603.624 281.153C597.024 284.062 591.864 288.305 588.164 293.883C584.455 299.41 582.677 306.028 582.806 313.713L582.807 313.79L582.832 313.863L583.023 314.438L583.137 314.779H583.498H608.811H609.311V314.279C609.311 309.03 610.994 305.169 614.296 302.603C617.65 299.996 621.694 298.684 626.454 298.684C632.113 298.684 636.412 300.252 639.425 303.325L639.429 303.328C642.506 306.403 644.076 310.764 644.076 316.483C644.076 319.68 643.512 322.815 642.381 325.891L642.381 325.891L642.378 325.899C641.311 328.972 639.645 331.991 637.372 334.956L637.372 334.956L637.368 334.961C635.159 337.925 632.28 340.898 628.725 343.88C625.011 346.887 621.992 349.581 619.674 351.962C617.347 354.288 615.526 356.656 614.22 359.069L614.22 359.069L614.215 359.078C612.973 361.496 612.096 364.294 611.578 367.465C611.061 370.631 610.804 374.556 610.804 379.234ZM610.708 418.801V419.301H611.208H637.481H637.981V418.801V395.233V394.733H637.481H611.208H610.708V395.233V418.801Z" fill="#FFCACA" stroke="#EA9192"/>
<path d="M601.704 370.134V370.634H602.204H628.284H628.784V370.134C628.784 366.444 628.976 363.439 629.353 361.113L629.353 361.111C629.728 358.743 630.474 356.635 631.586 354.781C632.767 352.92 634.55 350.946 636.954 348.86L636.958 348.857C642.02 344.375 646.414 340.017 650.138 335.783L650.14 335.781C653.877 331.468 656.781 326.956 658.849 322.244C660.989 317.449 662.056 312.238 662.056 306.617C662.056 294.617 658.112 285.114 650.189 278.171C642.272 271.169 631.272 267.699 617.258 267.699C608.7 267.699 601.118 269.146 594.523 272.053C587.923 274.962 582.764 279.205 579.063 284.783C575.354 290.31 573.576 296.928 573.705 304.613L573.707 304.69L573.731 304.763L573.923 305.338L574.037 305.679H574.397H599.711H600.211V305.179C600.211 299.93 601.893 296.069 605.195 293.503C608.55 290.896 612.593 289.585 617.353 289.585C623.013 289.585 627.311 291.153 630.324 294.225L630.328 294.228C633.406 297.303 634.976 301.664 634.976 307.383C634.976 310.58 634.411 313.715 633.28 316.791L633.28 316.791L633.277 316.799C632.211 319.872 630.544 322.891 628.271 325.856L628.271 325.856L628.267 325.862C626.058 328.825 623.18 331.798 619.624 334.78C615.91 337.787 612.892 340.481 610.573 342.862C608.246 345.188 606.425 347.556 605.12 349.969L605.12 349.969L605.115 349.978C603.872 352.396 602.995 355.194 602.477 358.365C601.96 361.531 601.704 365.456 601.704 370.134ZM601.608 409.701V410.201H602.108H628.38H628.88V409.701V386.133V385.633H628.38H602.108H601.608V386.133V409.701Z" fill="#FFCACA" stroke="#EA9192"/>
<path d="M592.605 361.034V361.534H593.105H619.186H619.686V361.034C619.686 357.344 619.877 354.34 620.255 352.013L620.255 352.011C620.63 349.643 621.376 347.536 622.488 345.681C623.668 343.821 625.452 341.847 627.856 339.761L627.86 339.757C632.922 335.275 637.316 330.918 641.04 326.684L641.042 326.681C644.779 322.369 647.683 317.856 649.751 313.144C651.891 308.349 652.958 303.138 652.958 297.517C652.958 285.517 649.013 276.014 641.091 269.071C633.174 262.069 622.174 258.6 608.159 258.6C599.601 258.6 592.02 260.046 585.425 262.953C578.825 265.863 573.666 270.105 569.965 275.684C566.256 281.21 564.478 287.829 564.607 295.513L564.608 295.59L564.633 295.663L564.825 296.238L564.939 296.58H565.299H590.612H591.112V296.08C591.112 290.83 592.795 286.97 596.097 284.403C599.451 281.797 603.495 280.485 608.255 280.485C613.914 280.485 618.213 282.053 621.226 285.125L621.23 285.129C624.307 288.204 625.878 292.564 625.878 298.283C625.878 301.48 625.313 304.615 624.182 307.691L624.182 307.691L624.179 307.7C623.112 310.772 621.446 313.791 619.173 316.757L619.173 316.757L619.169 316.762C616.96 319.725 614.082 322.699 610.526 325.681C606.812 328.688 603.794 331.382 601.475 333.762C599.148 336.088 597.327 338.457 596.022 340.869L596.022 340.869L596.017 340.879C594.774 343.296 593.897 346.094 593.379 349.266C592.862 352.431 592.605 356.356 592.605 361.034ZM592.51 400.601V401.101H593.01H619.282H619.782V400.601V377.034V376.534H619.282H593.01H592.51V377.034V400.601Z" fill="#FFCACA" stroke="#EA9192"/>
<path d="M583.505 351.935V352.435H584.005H610.086H610.586V351.935C610.586 348.244 610.777 345.24 611.154 342.913L611.155 342.911C611.529 340.544 612.275 338.436 613.388 336.581C614.568 334.721 616.351 332.747 618.755 330.661L618.759 330.657C623.822 326.175 628.216 321.818 631.939 317.584L631.942 317.581C635.678 313.269 638.583 308.757 640.651 304.044C642.79 299.249 643.858 294.038 643.858 288.417C643.858 276.417 639.913 266.915 631.99 259.971C624.073 252.969 613.074 249.5 599.059 249.5C590.501 249.5 582.919 250.947 576.324 253.854C569.724 256.763 564.565 261.005 560.864 266.584C557.155 272.11 555.377 278.729 555.507 286.414L555.508 286.49L555.532 286.563L555.724 287.138L555.838 287.48H556.198H581.512H582.012V286.98C582.012 281.731 583.694 277.87 586.996 275.304C590.351 272.697 594.395 271.385 599.155 271.385C604.814 271.385 609.112 272.953 612.126 276.025L612.129 276.029C615.207 279.104 616.777 283.464 616.777 289.183C616.777 292.381 616.213 295.516 615.082 298.591L615.082 298.591L615.079 298.6C614.012 301.672 612.346 304.691 610.072 307.657L610.072 307.657L610.068 307.662C607.86 310.625 604.981 313.599 601.425 316.581C597.712 319.588 594.693 322.282 592.375 324.663C590.047 326.988 588.226 329.357 586.921 331.77L586.921 331.77L586.916 331.779C585.674 334.197 584.797 336.994 584.279 340.166C583.761 343.331 583.505 347.256 583.505 351.935ZM583.409 391.501V392.001H583.909H610.181H610.681V391.501V367.934V367.434H610.181H583.909H583.409V367.934V391.501Z" fill="#E84142" stroke="black"/>
</svg>
