<svg width="621" height="785" viewBox="0 0 621 785" fill="none" xmlns="http://www.w3.org/2000/svg">
<path d="M569.68 534.136C576.23 698.502 462.6 769.205 315.92 692.137" stroke="#4D4D4D" stroke-width="2.37" stroke-miterlimit="10"/>
<path d="M255.37 80.3929C267.519 84.9167 279.807 90.441 292.148 96.9263C438.885 174.023 563.077 369.741 569.625 534.044" stroke="#4D4D4D" stroke-width="1.39" stroke-miterlimit="10" stroke-linecap="round"/>
<path d="M38.3322 254.961C32.3402 104.607 126.902 32.595 255.368 80.3927" stroke="#4D4D4D" stroke-width="2.37" stroke-miterlimit="10"/>
<path d="M315.874 692.171C169.152 615.082 44.9451 419.357 38.3972 255.053" stroke="#262626" stroke-width="0.7" stroke-miterlimit="10"/>
<g filter="url(#filter0_d_5_608)">
<path d="M418.854 776.395C445.228 790.252 465.655 777.534 464.477 747.988C463.3 718.442 440.964 683.257 414.59 669.399C388.215 655.542 367.789 668.26 368.967 697.806C370.144 727.352 392.479 762.537 418.854 776.395Z" fill="white"/>
<path d="M418.854 776.395C445.228 790.252 465.655 777.534 464.477 747.988C463.3 718.442 440.964 683.257 414.59 669.399C388.215 655.542 367.789 668.26 368.967 697.806C370.144 727.352 392.479 762.537 418.854 776.395Z" stroke="#4D4D4D" stroke-width="2.09" stroke-miterlimit="10"/>
</g>
<g filter="url(#filter1_d_5_608)">
<path d="M215.659 669.636C242.033 683.494 262.459 670.776 261.282 641.23C260.104 611.684 237.769 576.498 211.395 562.641C185.02 548.784 164.594 561.502 165.771 591.048C166.949 620.594 189.284 655.779 215.659 669.636Z" fill="white"/>
<path d="M215.659 669.636C242.033 683.494 262.459 670.776 261.282 641.23C260.104 611.684 237.769 576.498 211.395 562.641C185.02 548.784 164.594 561.502 165.771 591.048C166.949 620.594 189.284 655.779 215.659 669.636Z" stroke="#4D4D4D" stroke-width="2.09" stroke-miterlimit="10"/>
</g>
<g filter="url(#filter2_d_5_608)">
<path d="M65.3383 433.326C91.7127 447.183 112.139 434.465 110.961 404.919C109.784 375.373 87.4487 340.188 61.0742 326.331C34.6998 312.473 14.2736 325.192 15.4511 354.737C16.6286 384.283 38.9639 419.469 65.3383 433.326Z" fill="white"/>
<path d="M65.3383 433.326C91.7127 447.183 112.139 434.465 110.961 404.919C109.784 375.373 87.4487 340.188 61.0742 326.331C34.6998 312.473 14.2736 325.192 15.4511 354.737C16.6286 384.283 38.9639 419.469 65.3383 433.326Z" stroke="#4D4D4D" stroke-width="2.09" stroke-miterlimit="10"/>
</g>
<g filter="url(#filter3_d_5_608)">
<path d="M56.0336 205.331C82.4081 219.189 102.834 206.47 101.657 176.925C100.479 147.379 78.144 112.193 51.7696 98.3358C25.3951 84.4785 4.96895 97.1966 6.14643 126.743C7.32392 156.289 29.6592 191.474 56.0336 205.331Z" fill="white"/>
<path d="M56.0336 205.331C82.4081 219.189 102.834 206.47 101.657 176.925C100.479 147.379 78.144 112.193 51.7696 98.3358C25.3951 84.4785 4.96895 97.1966 6.14643 126.743C7.32392 156.289 29.6592 191.474 56.0336 205.331Z" stroke="#4D4D4D" stroke-width="2.09" stroke-miterlimit="10"/>
</g>
<g filter="url(#filter4_d_5_608)">
<path d="M430.146 228.603C447.963 217.51 446.613 183.637 427.131 152.946C407.649 122.255 377.412 106.369 359.595 117.462C341.778 128.556 343.128 162.429 362.61 193.119C382.092 223.81 412.329 239.697 430.146 228.603Z" fill="white"/>
<path d="M430.146 228.603C447.963 217.51 446.613 183.637 427.131 152.946C407.649 122.255 377.412 106.369 359.595 117.462C341.778 128.556 343.128 162.429 362.61 193.119C382.092 223.81 412.329 239.697 430.146 228.603Z" stroke="#4D4D4D" stroke-width="2.09" stroke-miterlimit="10"/>
</g>
<g filter="url(#filter5_d_5_608)">
<path d="M592.212 440.543C595.266 413.51 576.422 376.642 550.123 358.195C523.824 339.749 500.029 346.711 496.974 373.744C493.92 400.777 512.764 437.646 539.063 456.092C565.362 474.538 589.158 467.577 592.212 440.543Z" fill="white"/>
<path d="M592.212 440.543C595.266 413.51 576.422 376.642 550.123 358.195C523.824 339.749 500.029 346.711 496.974 373.744C493.92 400.777 512.764 437.646 539.063 456.092C565.362 474.538 589.158 467.577 592.212 440.543Z" stroke="#4D4D4D" stroke-width="2.09595" stroke-miterlimit="10"/>
</g>
<g filter="url(#filter6_d_5_608)">
<path d="M601.099 674.218C605.926 648.578 588.797 611.426 562.841 591.238C536.885 571.049 511.931 575.467 507.105 601.107C502.279 626.747 519.407 663.899 545.363 684.087C571.319 704.276 596.273 699.857 601.099 674.218Z" fill="white"/>
<path d="M601.099 674.218C605.926 648.578 588.797 611.426 562.841 591.238C536.885 571.049 511.931 575.467 507.105 601.107C502.279 626.747 519.407 663.899 545.363 684.087C571.319 704.276 596.273 699.857 601.099 674.218Z" stroke="#4D4D4D" stroke-width="2.09" stroke-miterlimit="10"/>
</g>
<g filter="url(#filter7_d_5_608)">
<path d="M226.56 121.589C244.377 110.496 243.027 76.6231 223.545 45.9323C204.063 15.2415 173.826 -0.645213 156.009 10.4483C138.192 21.5418 139.542 55.4147 159.024 86.1055C178.506 116.796 208.743 132.683 226.56 121.589Z" fill="white"/>
<path d="M226.56 121.589C244.377 110.496 243.027 76.6231 223.545 45.9323C204.063 15.2415 173.826 -0.645213 156.009 10.4483C138.192 21.5418 139.542 55.4147 159.024 86.1055C178.506 116.796 208.743 132.683 226.56 121.589Z" stroke="#4D4D4D" stroke-width="2.09" stroke-miterlimit="10"/>
</g>
<g filter="url(#filter8_d_5_608)">
<path d="M460.534 393.531L467.311 563.565C467.547 569.183 466.457 574.01 464.151 577.559C461.845 581.109 458.404 583.254 454.178 583.779L326.12 599.733C321.908 600.261 317.061 599.158 312.067 596.534C307.074 593.91 302.109 589.859 297.675 584.787L237.719 516.292L162.84 430.708C158.406 425.641 154.656 419.734 151.967 413.581C149.278 407.427 147.743 401.244 147.518 395.652L140.742 225.618C140.519 220.025 141.614 215.222 143.917 211.692C146.221 208.161 149.652 206.028 153.865 205.507L281.923 189.553C286.137 189.03 290.983 190.136 295.976 192.759C300.969 195.382 305.932 199.431 310.369 204.498L417.481 326.903L445.203 358.578C449.625 363.627 453.369 369.512 456.059 375.646C458.75 381.779 460.293 387.947 460.534 393.531Z" fill="#FE90C7"/>
</g>
<path d="M417.477 326.793L237.714 516.182L162.836 430.597C158.402 425.531 154.652 419.624 151.963 413.471C149.273 407.317 147.739 401.134 147.514 395.541L146.12 360.559L301.944 196.465C304.896 198.692 307.753 201.374 310.407 204.41L417.477 326.793Z" fill="#FE6BB4"/>
<path d="M449.788 553.821L443.344 392.131C443.223 389.134 442.401 385.822 440.96 382.525C439.52 379.228 437.512 376.062 435.138 373.346L306.921 226.843C304.547 224.126 301.888 221.955 299.213 220.549C296.538 219.144 293.942 218.554 291.687 218.839L169.915 234.041C167.66 234.326 165.824 235.472 164.591 237.364C163.357 239.256 162.77 241.828 162.887 244.823L169.331 406.512C169.452 409.509 170.274 412.822 171.715 416.119C173.155 419.416 175.163 422.581 177.537 425.298L305.754 571.816C308.131 574.527 310.789 576.693 313.462 578.098C316.136 579.502 318.731 580.096 320.989 579.821L442.762 564.65C445.023 564.364 446.862 563.213 448.096 561.312C449.329 559.411 449.913 556.827 449.788 553.821Z" fill="#E06AE9"/>
<path d="M441.408 387.732L447.851 549.421C447.973 552.417 447.387 554.99 446.153 556.88C444.919 558.771 443.08 559.911 440.823 560.187L319.064 575.381C316.803 575.656 314.206 575.06 311.53 573.654C308.855 572.249 306.195 570.082 303.815 567.37L231 484.164L175.598 420.835C173.224 418.122 171.217 414.96 169.777 411.665C168.337 408.371 167.514 405.061 167.392 402.065L160.948 240.376C160.834 237.383 161.423 234.813 162.656 232.921C163.889 231.03 165.723 229.883 167.976 229.594L248.852 219.51L289.75 214.423C292.007 214.14 294.606 214.732 297.282 216.138C299.959 217.545 302.621 219.717 304.998 222.435L388.497 317.867L433.187 368.939C435.566 371.653 437.578 374.819 439.021 378.119C440.464 381.418 441.287 384.733 441.408 387.732Z" fill="#7A18D5"/>
<path d="M217.757 269.561L382.856 356.306L381.884 377.84L221.068 292.936L217.757 269.561Z" fill="white"/>
<path d="M253.199 405.487L309.044 481.585L311.693 496.475L310.117 508.501L238.006 410.117L253.199 405.487Z" fill="white"/>
<path d="M251.796 393.575L253.292 405.845L247.493 410.811L237.993 410.111L231.792 367.069L251.796 393.575Z" fill="white"/>
<path d="M359.707 462.06L309.045 481.583L308.547 494.344L310.118 508.499L376.254 482.238L371.303 459.716L359.707 462.06Z" fill="white"/>
<path d="M277.524 396.015L344.929 431.43L339.072 447.527L273.537 413.094L277.524 396.015Z" fill="white"/>
<path d="M220.999 292.2L240.711 300.998L246.415 354.545L229.852 354.661L220.999 292.2Z" fill="white"/>
<path d="M229.835 354.658L246.189 353.92L278.933 396.963L273.528 413.092L229.835 354.658Z" fill="white"/>
<path d="M229.835 354.658L246.189 353.92L278.933 396.963L273.528 413.092L229.835 354.658Z" fill="white"/>
<path d="M364.761 366.419L381.97 375.634L379.429 426.695L362.943 403.473L364.761 366.419Z" fill="white"/>
<rect width="76.6701" height="19.7048" transform="matrix(0.885249 0.465117 0.0398211 0.999207 270.46 342.574)" fill="white"/>
<path d="M338.358 378.246L378.476 434.392L364.079 438.312L327.513 388.134L338.358 378.246Z" fill="white"/>
<path d="M378.46 434.384L376.248 482.234L359.7 462.056L360.614 423.982L378.46 434.384Z" fill="white"/>
<path d="M249.218 351.406L270.467 342.576L282.853 361.696L263.585 369.721L249.218 351.406Z" fill="white"/>
<path d="M332.869 424.992L345.299 419.936L356.793 437.357L339.076 447.53L332.869 424.992Z" fill="white"/>
<path d="M388.114 317.516L230.617 483.814L175.215 420.485C172.842 417.772 170.834 414.609 169.394 411.315C167.954 408.021 167.132 404.711 167.009 401.715L163.317 309.078L248.469 219.16L289.367 214.073C291.625 213.79 294.223 214.382 296.9 215.788C299.577 217.195 302.238 219.366 304.615 222.085L388.114 317.516Z" fill="#7E44FE" fill-opacity="0.1"/>
<path d="M369.404 305.071C369.192 306.752 368.484 308.036 367.375 308.752C366.266 309.469 364.808 309.584 363.193 309.083C364.826 310.302 366.343 311.986 367.546 313.916C368.75 315.847 369.584 317.933 369.94 319.904C370.158 318.235 370.862 316.958 371.961 316.239C373.061 315.52 374.506 315.391 376.109 315.869C374.485 314.645 372.978 312.962 371.783 311.037C370.587 309.112 369.759 307.034 369.404 305.071Z" fill="#E3E4E9"/>
<path d="M353.85 266.161C353.499 268.998 352.319 271.171 350.462 272.396C348.606 273.621 346.16 273.841 343.446 273.026C346.208 275.092 348.774 277.946 350.809 281.215C352.844 284.484 354.254 288.016 354.854 291.351C355.21 288.519 356.393 286.35 358.248 285.126C360.104 283.901 362.546 283.678 365.258 284.486C362.495 282.419 359.929 279.566 357.894 276.297C355.859 273.028 354.45 269.496 353.85 266.161Z" fill="white"/>
<path d="M205.006 466.001C211.029 469.165 215.688 466.113 215.412 459.183C215.136 452.253 210.029 444.069 204.006 440.905C197.983 437.74 193.324 440.793 193.6 447.723C193.877 454.653 198.983 462.836 205.006 466.001Z" fill="white"/>
<path d="M87.8109 443.911C89.9298 445.025 91.5709 444.003 91.4763 441.629C91.3817 439.255 89.5873 436.428 87.4683 435.315C85.3493 434.202 83.7083 435.224 83.8029 437.597C83.8975 439.971 85.6919 442.798 87.8109 443.911Z" fill="#4D4D4D"/>
<path d="M375.711 716.888C375.753 717.875 375.533 718.703 375.079 719.268C374.625 719.832 373.957 720.108 373.16 720.06C372.363 720.012 371.473 719.642 370.602 718.997C369.732 718.352 368.921 717.462 368.271 716.438C367.621 715.415 367.162 714.305 366.953 713.248C366.744 712.192 366.793 711.237 367.094 710.505C367.396 709.773 367.936 709.296 368.647 709.135C369.358 708.975 370.207 709.137 371.087 709.603C372.26 710.223 373.405 711.337 374.271 712.702C375.137 714.067 375.655 715.572 375.711 716.888Z" fill="#4D4D4D"/>
<path d="M564.81 470.811C564.844 471.674 564.649 472.398 564.25 472.89C563.85 473.383 563.263 473.622 562.564 473.577C561.865 473.533 561.085 473.207 560.323 472.64C559.561 472.074 558.85 471.292 558.282 470.395C557.714 469.498 557.313 468.525 557.131 467.6C556.948 466.675 556.993 465.839 557.258 465.198C557.523 464.558 557.997 464.141 558.62 464.001C559.243 463.861 559.987 464.004 560.757 464.412C561.268 464.68 561.778 465.059 562.258 465.526C562.738 465.993 563.18 466.54 563.556 467.134C563.933 467.729 564.237 468.359 564.452 468.99C564.667 469.621 564.789 470.24 564.81 470.811Z" fill="#4D4D4D"/>
<path d="M438.214 223.734C440.023 224.684 441.423 223.812 441.343 221.786C441.262 219.76 439.73 217.347 437.922 216.397C436.113 215.447 434.713 216.319 434.793 218.345C434.874 220.371 436.406 222.784 438.214 223.734Z" fill="#4D4D4D"/>
<path d="M487.549 284.984C487.578 285.791 487.393 286.467 487.016 286.926C486.64 287.386 486.089 287.608 485.434 287.564C484.778 287.521 484.047 287.214 483.333 286.682C482.618 286.15 481.953 285.418 481.42 284.577C480.888 283.736 480.512 282.825 480.341 281.957C480.169 281.09 480.21 280.307 480.457 279.705C480.704 279.104 481.147 278.711 481.73 278.578C482.312 278.444 483.009 278.575 483.731 278.955C484.212 279.207 484.692 279.564 485.145 280.004C485.597 280.444 486.013 280.959 486.368 281.519C486.722 282.08 487.009 282.674 487.212 283.268C487.415 283.863 487.529 284.446 487.549 284.984Z" fill="#4D4D4D"/>
<path d="M504.622 314.026C504.653 314.858 504.462 315.555 504.074 316.028C503.686 316.502 503.118 316.731 502.442 316.686C501.767 316.641 501.013 316.325 500.277 315.777C499.54 315.229 498.855 314.474 498.306 313.607C497.757 312.74 497.37 311.801 497.193 310.907C497.016 310.013 497.058 309.205 497.312 308.585C497.567 307.965 498.024 307.561 498.624 307.423C499.225 307.285 499.943 307.421 500.687 307.812C501.183 308.072 501.678 308.44 502.145 308.893C502.611 309.347 503.039 309.878 503.405 310.455C503.77 311.032 504.066 311.645 504.275 312.258C504.484 312.87 504.602 313.471 504.622 314.026Z" fill="#4D4D4D"/>
<path d="M111.034 87.6073C113.246 88.7695 114.959 87.7028 114.86 85.2247C114.761 82.7466 112.888 79.7955 110.676 78.6333C108.464 77.471 106.751 78.5377 106.849 81.0158C106.948 83.4939 108.822 86.445 111.034 87.6073Z" fill="#4D4D4D"/>
<path d="M47.2351 198.115C47.2847 199.361 47.0035 200.405 46.4271 201.116C45.8507 201.827 45.0049 202.173 43.9966 202.11C42.9884 202.047 41.8631 201.578 40.7629 200.762C39.6628 199.946 38.6372 198.82 37.8159 197.526C36.9946 196.232 36.4145 194.829 36.1489 193.493C35.8833 192.158 35.9442 190.95 36.3238 190.023C36.7034 189.096 37.3848 188.491 38.2817 188.284C39.1785 188.078 40.2507 188.28 41.3625 188.864C42.8535 189.647 44.3098 191.062 45.4111 192.797C46.5124 194.532 47.1685 196.445 47.2351 198.115Z" fill="#4D4D4D"/>
<path d="M42.232 221.012C42.2629 221.787 42.0878 222.438 41.729 222.88C41.3702 223.323 40.8437 223.538 40.2161 223.499C39.5885 223.46 38.8879 223.168 38.2031 222.66C37.5182 222.152 36.8798 221.451 36.3686 220.645C35.8573 219.84 35.4962 218.966 35.3309 218.135C35.1655 217.304 35.2034 216.552 35.4397 215.975C35.676 215.397 36.1002 215.021 36.6585 214.892C37.2168 214.764 37.8842 214.89 38.5763 215.253C39.0363 215.493 39.4962 215.832 39.9294 216.252C40.3627 216.672 40.7607 217.164 41.1005 217.699C41.4404 218.234 41.7153 218.803 41.9095 219.371C42.1037 219.94 42.2133 220.498 42.232 221.012Z" fill="#4D4D4D"/>
<path d="M293.893 101.05C295.523 101.907 296.786 101.121 296.713 99.2947C296.64 97.4687 295.26 95.2943 293.63 94.4379C292 93.5815 290.737 94.3675 290.81 96.1934C290.883 98.0194 292.263 100.194 293.893 101.05Z" fill="#4D4D4D"/>
<path d="M277.61 89.7645C277.63 90.2752 277.515 90.7034 277.279 90.9949C277.042 91.2864 276.695 91.4283 276.282 91.4024C275.869 91.3766 275.407 91.1842 274.956 90.8497C274.505 90.5151 274.085 90.0534 273.748 89.523C273.411 88.9925 273.173 88.4171 273.064 87.8695C272.956 87.3219 272.981 86.8268 273.136 86.4466C273.292 86.0665 273.571 85.8185 273.939 85.7339C274.307 85.6493 274.746 85.732 275.202 85.9715C275.505 86.1287 275.808 86.352 276.094 86.6284C276.38 86.9048 276.642 87.2288 276.866 87.5816C277.09 87.9344 277.271 88.3091 277.399 88.6838C277.526 89.0585 277.598 89.4258 277.61 89.7645Z" fill="#4D4D4D"/>
<path d="M533.407 676.863C535.277 677.846 536.726 676.944 536.643 674.848C536.559 672.753 534.975 670.257 533.104 669.274C531.234 668.292 529.785 669.194 529.869 671.289C529.952 673.385 531.536 675.88 533.407 676.863Z" fill="#4D4D4D"/>
<path d="M523.364 688.264C524.746 688.99 525.816 688.323 525.754 686.776C525.693 685.228 524.523 683.385 523.141 682.659C521.759 681.933 520.689 682.599 520.751 684.147C520.813 685.695 521.983 687.538 523.364 688.264Z" fill="#4D4D4D"/>
<path d="M475.984 678.043L446.878 662.75L439.684 651.402L438.384 618.796L444.963 614.7L474.069 629.992L481.277 641.332L482.576 673.938L475.984 678.043Z" fill="#4D4D4D"/>
<path d="M448.809 613.271L447.249 612.451L447.457 617.678L449.017 618.498L448.809 613.271Z" fill="#B3B3B3"/>
<path d="M452.598 615.257L451.038 614.437L451.246 619.664L452.806 620.484L452.598 615.257Z" fill="#B3B3B3"/>
<path d="M456.371 617.243L454.811 616.424L455.02 621.651L456.58 622.47L456.371 617.243Z" fill="#B3B3B3"/>
<path d="M460.153 619.229L458.593 618.41L458.801 623.637L460.361 624.456L460.153 619.229Z" fill="#B3B3B3"/>
<path d="M463.934 621.216L462.374 620.396L462.582 625.623L464.142 626.443L463.934 621.216Z" fill="#B3B3B3"/>
<path d="M467.723 623.21L466.163 622.39L466.371 627.617L467.931 628.436L467.723 623.21Z" fill="#B3B3B3"/>
<path d="M471.512 625.196L469.952 624.376L470.16 629.603L471.72 630.423L471.512 625.196Z" fill="#B3B3B3"/>
<path d="M450.801 663.131L449.241 662.312L449.45 667.539L451.01 668.358L450.801 663.131Z" fill="#B3B3B3"/>
<path d="M454.582 665.117L453.022 664.298L453.231 669.525L454.791 670.344L454.582 665.117Z" fill="#B3B3B3"/>
<path d="M458.356 667.104L456.796 666.284L457.004 671.511L458.564 672.331L458.356 667.104Z" fill="#B3B3B3"/>
<path d="M462.145 669.09L460.585 668.271L460.793 673.497L462.353 674.317L462.145 669.09Z" fill="#B3B3B3"/>
<path d="M465.918 671.077L464.358 670.257L464.566 675.484L466.126 676.304L465.918 671.077Z" fill="#B3B3B3"/>
<path d="M469.715 673.07L468.155 672.251L468.363 677.478L469.923 678.297L469.715 673.07Z" fill="#B3B3B3"/>
<path d="M473.496 675.057L471.936 674.237L472.145 679.464L473.705 680.284L473.496 675.057Z" fill="#B3B3B3"/>
<path d="M484.592 647.45L484.522 645.703L479.856 643.251L479.926 644.999L484.592 647.45Z" fill="#B3B3B3"/>
<path d="M484.756 651.686L484.687 649.938L480.021 647.486L480.09 649.234L484.756 651.686Z" fill="#B3B3B3"/>
<path d="M484.936 655.928L484.866 654.181L480.2 651.729L480.27 653.477L484.936 655.928Z" fill="#B3B3B3"/>
<path d="M485.092 660.171L485.022 658.424L480.356 655.972L480.426 657.72L485.092 660.171Z" fill="#B3B3B3"/>
<path d="M485.264 664.407L485.194 662.659L480.528 660.207L480.598 661.955L485.264 664.407Z" fill="#B3B3B3"/>
<path d="M485.436 668.642L485.366 666.894L480.7 664.443L480.77 666.19L485.436 668.642Z" fill="#B3B3B3"/>
<path d="M485.6 672.877L485.53 671.129L480.864 668.678L480.934 670.425L485.6 672.877Z" fill="#B3B3B3"/>
<path d="M440.076 624.065L440.007 622.318L435.341 619.866L435.41 621.614L440.076 624.065Z" fill="#B3B3B3"/>
<path d="M440.264 628.308L440.194 626.56L435.528 624.109L435.598 625.856L440.264 628.308Z" fill="#B3B3B3"/>
<path d="M440.428 632.543L440.358 630.795L435.692 628.344L435.762 630.091L440.428 632.543Z" fill="#B3B3B3"/>
<path d="M440.584 636.77L440.514 635.023L435.848 632.571L435.918 634.319L440.584 636.77Z" fill="#B3B3B3"/>
<path d="M440.748 641.021L440.678 639.274L436.013 636.822L436.082 638.57L440.748 641.021Z" fill="#B3B3B3"/>
<path d="M440.92 645.257L440.851 643.509L436.185 641.058L436.254 642.805L440.92 645.257Z" fill="#B3B3B3"/>
<path d="M441.107 649.499L441.038 647.751L436.372 645.3L436.442 647.047L441.107 649.499Z" fill="#B3B3B3"/>
<path d="M479.437 675.792L497.906 704.886" stroke="#4D4D4D" stroke-width="1.39" stroke-miterlimit="10"/>
<path d="M423.569 587.767L442.024 616.838" stroke="#4D4D4D" stroke-width="1.39" stroke-miterlimit="10"/>
<path d="M500.617 706.588C500.656 707.224 500.526 707.762 500.243 708.133C499.961 708.503 499.54 708.688 499.033 708.665C498.527 708.642 497.958 708.411 497.402 708.002C496.846 707.593 496.326 707.025 495.911 706.371C495.496 705.718 495.205 705.008 495.074 704.334C494.943 703.66 494.979 703.053 495.177 702.591C495.376 702.129 495.727 701.833 496.186 701.741C496.646 701.65 497.192 701.767 497.754 702.078C498.476 702.477 499.176 703.167 499.709 704.007C500.242 704.846 500.567 705.77 500.617 706.588Z" fill="#4D4D4D"/>
<path d="M426.383 589.63C426.407 590.233 426.272 590.74 425.994 591.086C425.716 591.433 425.307 591.603 424.82 591.577C424.333 591.55 423.788 591.328 423.254 590.938C422.72 590.547 422.22 590.006 421.817 589.382C421.415 588.757 421.127 588.078 420.99 587.428C420.853 586.778 420.872 586.187 421.047 585.728C421.221 585.269 421.542 584.963 421.97 584.848C422.397 584.734 422.912 584.815 423.45 585.083C424.184 585.468 424.901 586.159 425.449 587.008C425.997 587.858 426.332 588.798 426.383 589.63Z" fill="#4D4D4D"/>
<path d="M187.752 170.966L128.838 140.012L125.432 134.647L124.95 122.555L128.064 120.6L186.978 151.554L190.399 156.943L190.881 169.034L187.752 170.966Z" fill="#E06AE9"/>
<path d="M145.743 131.293L147.008 131.957L146.815 127.108L145.55 126.444L145.743 131.293ZM141.879 129.262L143.144 129.927L142.95 125.077L141.685 124.413L141.879 129.262ZM153.487 135.361L154.752 136.026L154.559 131.177L153.294 130.512L153.487 135.361ZM149.622 133.331L150.887 133.995L150.694 129.146L149.429 128.482L149.622 133.331ZM138.014 127.231L139.279 127.896L139.085 123.047L137.821 122.382L138.014 127.231ZM130.27 123.163L131.535 123.827L131.342 118.978L130.077 118.314L130.27 123.163ZM134.135 125.193L135.4 125.858L135.207 121.009L133.942 120.344L134.135 125.193ZM157.352 137.392L158.617 138.056L158.424 133.207L157.159 132.543L157.352 137.392ZM180.569 149.59L181.834 150.255L181.641 145.406L180.376 144.741L180.569 149.59ZM176.704 147.56L177.969 148.224L177.776 143.375L176.511 142.711L176.704 147.56ZM184.241 146.772L184.434 151.621L185.713 152.293L185.52 147.444L184.241 146.772ZM161.217 139.422L162.454 140.072L162.26 135.223L160.981 134.551L161.217 139.422ZM165.096 141.46L166.361 142.125L166.167 137.276L164.902 136.611L165.096 141.46ZM168.961 143.491L170.225 144.156L170.032 139.307L168.767 138.642L168.961 143.491ZM172.825 145.522L174.104 146.194L173.911 141.345L172.632 140.673L172.825 145.522Z" fill="#E3E4E9"/>
<path d="M146.596 152.673L147.861 153.337L147.667 148.473L146.402 147.808L146.596 152.673ZM142.731 150.642L143.996 151.307L143.802 146.442L142.537 145.777L142.731 150.642ZM154.339 156.741L155.604 157.406L155.41 152.541L154.145 151.877L154.339 156.741ZM150.475 154.711L151.739 155.375L151.546 150.511L150.281 149.846L150.475 154.711ZM138.866 148.612L140.131 149.276L139.937 144.411L138.672 143.747L138.866 148.612ZM131.122 144.543L132.387 145.208L132.193 140.343L130.928 139.678L131.122 144.543ZM134.987 146.574L136.252 147.238L136.058 142.373L134.793 141.709L134.987 146.574ZM158.204 158.772L159.469 159.437L159.275 154.572L158.01 153.907L158.204 158.772ZM181.421 170.971L182.686 171.635L182.492 166.77L181.227 166.106L181.421 170.971ZM177.556 168.94L178.821 169.604L178.627 164.74L177.363 164.075L177.556 168.94ZM185.092 168.136L185.286 173.001L186.565 173.673L186.371 168.808L185.092 168.136ZM162.069 160.803L163.306 161.453L163.112 156.588L161.833 155.916L162.069 160.803ZM165.948 162.841L167.213 163.505L167.019 158.64L165.754 157.976L165.948 162.841ZM169.813 164.871L171.078 165.536L170.884 160.671L169.619 160.006L169.813 164.871ZM173.678 166.902L174.956 167.574L174.763 162.709L173.484 162.037L173.678 166.902Z" fill="#E3E4E9"/>
<path d="M401.884 292.275L392.848 287.527L390.249 283.433L389.211 257.393L391.588 255.913L400.625 260.661L403.223 264.754L404.261 290.795L401.884 292.275Z" fill="#E3E4E9"/>
<path d="M419.728 301.652L410.692 296.905L408.093 292.811L407.055 266.771L409.432 265.291L418.468 270.039L421.081 274.14L422.119 300.18L419.728 301.652Z" fill="#E06AE9"/>
<path d="M437.58 311.03L428.543 306.282L425.945 302.189L424.907 276.148L427.283 274.669L436.32 279.416L438.919 283.51L439.956 309.55L437.58 311.03Z" fill="#E3E4E9"/>
<path d="M124.668 296.742L101.24 284.433L99.2891 281.388L98.245 255.19L100.004 254.095L123.46 266.419L125.383 269.449L126.427 295.647L124.668 296.742Z" fill="#B3B3B3"/>
<path d="M99.7458 257.707L94.9675 255.196L95.0171 256.44L99.7954 258.951L99.7458 257.707Z" fill="#E3E4E9"/>
<path d="M99.9568 263.06L95.1785 260.549L95.228 261.793L100.006 264.304L99.9568 263.06Z" fill="#E3E4E9"/>
<path d="M100.176 268.413L95.3972 265.902L95.4468 267.146L100.225 269.657L100.176 268.413Z" fill="#E3E4E9"/>
<path d="M100.386 273.766L95.6082 271.255L95.6577 272.499L100.436 275.009L100.386 273.766Z" fill="#E3E4E9"/>
<path d="M100.597 279.119L95.8191 276.608L95.8687 277.852L100.647 280.363L100.597 279.119Z" fill="#E3E4E9"/>
<path d="M128.785 272.962L124.007 270.452L124.056 271.695L128.834 274.206L128.785 272.962Z" fill="#E3E4E9"/>
<path d="M128.996 278.315L124.218 275.805L124.267 277.048L129.045 279.559L128.996 278.315Z" fill="#E3E4E9"/>
<path d="M129.215 283.668L124.436 281.158L124.486 282.401L129.264 284.912L129.215 283.668Z" fill="#E3E4E9"/>
<path d="M129.426 289.021L124.647 286.51L124.697 287.754L129.475 290.265L129.426 289.021Z" fill="#E3E4E9"/>
<path d="M129.636 294.374L124.858 291.863L124.908 293.107L129.686 295.618L129.636 294.374Z" fill="#E3E4E9"/>
<path d="M121.884 267.153L121.671 261.8L120.56 261.217L120.774 266.57L121.884 267.153Z" fill="#E3E4E9"/>
<path d="M117.118 264.634L116.905 259.281L115.795 258.698L116.008 264.051L117.118 264.634Z" fill="#E3E4E9"/>
<path d="M112.345 262.123L112.132 256.771L111.021 256.187L111.235 261.54L112.345 262.123Z" fill="#E3E4E9"/>
<path d="M107.564 259.613L107.35 254.26L106.24 253.677L106.453 259.03L107.564 259.613Z" fill="#E3E4E9"/>
<path d="M102.79 257.102L102.577 251.749L101.467 251.166L101.68 256.519L102.79 257.102Z" fill="#E3E4E9"/>
<path d="M123.181 299.664L122.968 294.312L121.857 293.728L122.071 299.081L123.181 299.664Z" fill="#E3E4E9"/>
<path d="M118.407 297.153L118.194 291.801L117.084 291.217L117.297 296.57L118.407 297.153Z" fill="#E3E4E9"/>
<path d="M113.626 294.643L113.413 289.29L112.303 288.707L112.516 294.06L113.626 294.643Z" fill="#E3E4E9"/>
<path d="M108.853 292.132L108.639 286.779L107.529 286.196L107.742 291.549L108.853 292.132Z" fill="#E3E4E9"/>
<path d="M104.087 289.629L103.874 284.276L102.764 283.693L102.977 289.046L104.087 289.629Z" fill="#E3E4E9"/>
<path d="M126.551 344.037L103.123 331.727L101.172 328.683L100.128 302.485L101.887 301.39L125.343 313.714L127.266 316.744L128.31 342.941L126.551 344.037Z" fill="#E06AE9"/>
<path d="M101.629 305.002L96.8503 302.491L96.8999 303.735L101.678 306.246L101.629 305.002Z" fill="#E3E4E9"/>
<path d="M101.847 310.355L97.0691 307.844L97.1187 309.088L101.897 311.598L101.847 310.355Z" fill="#E3E4E9"/>
<path d="M102.058 315.707L97.28 313.197L97.3296 314.441L102.108 316.951L102.058 315.707Z" fill="#E3E4E9"/>
<path d="M102.269 321.06L97.491 318.55L97.5405 319.794L102.319 322.304L102.269 321.06Z" fill="#E3E4E9"/>
<path d="M102.488 326.413L97.7097 323.903L97.7593 325.147L102.538 327.657L102.488 326.413Z" fill="#E3E4E9"/>
<path d="M130.668 320.257L125.889 317.746L125.939 318.99L130.717 321.501L130.668 320.257Z" fill="#E3E4E9"/>
<path d="M130.886 325.61L126.108 323.099L126.158 324.343L130.936 326.854L130.886 325.61Z" fill="#E3E4E9"/>
<path d="M131.097 330.963L126.319 328.452L126.369 329.696L131.147 332.207L131.097 330.963Z" fill="#E3E4E9"/>
<path d="M131.308 336.316L126.53 333.805L126.58 335.049L131.358 337.559L131.308 336.316Z" fill="#E3E4E9"/>
<path d="M131.527 341.669L126.749 339.158L126.798 340.402L131.577 342.913L131.527 341.669Z" fill="#E3E4E9"/>
<path d="M123.767 314.448L123.553 309.095L122.443 308.511L122.657 313.864L123.767 314.448Z" fill="#E3E4E9"/>
<path d="M119.009 311.929L118.796 306.576L117.685 305.993L117.899 311.346L119.009 311.929Z" fill="#E3E4E9"/>
<path d="M114.236 309.418L114.022 304.065L112.912 303.482L113.125 308.835L114.236 309.418Z" fill="#E3E4E9"/>
<path d="M109.454 306.908L109.241 301.555L108.131 300.971L108.344 306.324L109.454 306.908Z" fill="#E3E4E9"/>
<path d="M104.681 304.397L104.468 299.044L103.357 298.461L103.571 303.814L104.681 304.397Z" fill="#E3E4E9"/>
<path d="M125.064 346.959L124.85 341.606L123.74 341.023L123.953 346.376L125.064 346.959Z" fill="#E3E4E9"/>
<path d="M120.29 344.448L120.077 339.095L118.967 338.512L119.18 343.865L120.29 344.448Z" fill="#E3E4E9"/>
<path d="M115.509 341.938L115.296 336.585L114.185 336.001L114.399 341.354L115.509 341.938Z" fill="#E3E4E9"/>
<path d="M110.736 339.427L110.522 334.074L109.412 333.491L109.625 338.844L110.736 339.427Z" fill="#E3E4E9"/>
<path d="M105.978 336.924L105.764 331.571L104.654 330.987L104.867 336.34L105.978 336.924Z" fill="#E3E4E9"/>
<path d="M164.911 487.29L151.068 480.016L149.924 478.228L149.305 462.705L150.353 462.068L164.196 469.342L165.34 471.13L165.959 486.653L164.911 487.29Z" fill="#B3B3B3"/>
<path d="M150.175 464.227L147.35 462.743L147.38 463.483L150.205 464.967L150.175 464.227Z" fill="#E3E4E9"/>
<path d="M150.3 467.391L147.475 465.907L147.505 466.647L150.33 468.131L150.3 467.391Z" fill="#E3E4E9"/>
<path d="M150.425 470.572L147.6 469.087L147.63 469.827L150.455 471.312L150.425 470.572Z" fill="#E3E4E9"/>
<path d="M150.558 473.736L147.733 472.252L147.763 472.992L150.587 474.476L150.558 473.736Z" fill="#E3E4E9"/>
<path d="M150.683 476.9L147.858 475.416L147.888 476.156L150.712 477.64L150.683 476.9Z" fill="#E3E4E9"/>
<path d="M167.378 473.265L164.553 471.781L164.583 472.52L167.408 474.005L167.378 473.265Z" fill="#E3E4E9"/>
<path d="M167.503 476.429L164.678 474.945L164.708 475.685L167.533 477.169L167.503 476.429Z" fill="#E3E4E9"/>
<path d="M167.628 479.61L164.803 478.125L164.833 478.865L167.658 480.35L167.628 479.61Z" fill="#E3E4E9"/>
<path d="M167.753 482.774L164.928 481.29L164.958 482.03L167.783 483.514L167.753 482.774Z" fill="#E3E4E9"/>
<path d="M167.878 485.939L165.053 484.454L165.083 485.194L167.908 486.678L167.878 485.939Z" fill="#E3E4E9"/>
<path d="M163.305 469.799L163.178 466.635L162.518 466.287L162.644 469.452L163.305 469.799Z" fill="#E3E4E9"/>
<path d="M160.469 468.323L160.343 465.159L159.682 464.812L159.808 467.976L160.469 468.323Z" fill="#E3E4E9"/>
<path d="M157.648 466.839L157.522 463.674L156.862 463.327L156.988 466.492L157.648 466.839Z" fill="#E3E4E9"/>
<path d="M154.82 465.355L154.694 462.19L154.034 461.843L154.16 465.008L154.82 465.355Z" fill="#E3E4E9"/>
<path d="M151.992 463.855L151.866 460.69L151.205 460.343L151.332 463.508L151.992 463.855Z" fill="#E3E4E9"/>
<path d="M164.07 489.069L163.944 485.905L163.284 485.558L163.41 488.722L164.07 489.069Z" fill="#E3E4E9"/>
<path d="M161.242 487.585L161.116 484.421L160.455 484.074L160.582 487.238L161.242 487.585Z" fill="#E3E4E9"/>
<path d="M158.414 486.093L158.288 482.929L157.627 482.582L157.753 485.746L158.414 486.093Z" fill="#E3E4E9"/>
<path d="M155.586 484.609L155.46 481.445L154.799 481.098L154.925 484.262L155.586 484.609Z" fill="#E3E4E9"/>
<path d="M152.766 483.125L152.639 479.961L151.979 479.614L152.105 482.778L152.766 483.125Z" fill="#E3E4E9"/>
<path d="M55.3059 12.655L53.1556 11.5252C52.5854 11.2256 52.0283 10.6845 51.6071 10.0209C51.1858 9.35724 50.9349 8.62552 50.9094 7.98667L50.814 5.59359C50.8046 5.02829 50.6191 4.38252 50.2886 3.76523C49.9582 3.14795 49.5032 2.59694 49.0003 2.2052C48.6831 1.97046 48.3591 1.80916 48.0516 1.73282C47.7441 1.65648 47.4606 1.66699 47.2213 1.76358C46.982 1.86016 46.7929 2.04047 46.6673 2.29161C46.5418 2.54276 46.483 2.85856 46.4951 3.21649L46.5949 5.71977C46.6093 6.03766 46.5675 6.32327 46.4718 6.56004C46.3761 6.7968 46.2284 6.98001 46.0373 7.099C45.8462 7.21799 45.6155 7.27041 45.3585 7.25321C45.1016 7.23601 44.8236 7.14955 44.5406 6.99882L42.4044 5.87645C41.8918 5.59607 41.3991 5.51954 41.0089 5.65969C40.6187 5.79983 40.3547 6.14813 40.2611 6.64626C40.2131 6.96596 40.2356 7.33353 40.3272 7.72274C40.4188 8.11196 40.5772 8.51322 40.791 8.89791C41.0047 9.2826 41.2687 9.64123 41.564 9.94821C41.8593 10.2552 42.1786 10.503 42.4993 10.6739L44.7339 11.8479C45.2931 12.1375 45.8413 12.6621 46.2607 13.309C46.6801 13.956 46.9373 14.6736 46.977 15.3078L47.073 17.7166C47.0863 18.2835 47.2753 18.9291 47.6081 19.5447C47.9409 20.1604 48.3972 20.7084 48.9001 21.0966C49.2171 21.3344 49.5414 21.4982 49.8494 21.5759C50.1574 21.6535 50.4412 21.6431 50.6801 21.5455C50.9189 21.4478 51.1068 21.2653 51.2298 21.0114C51.3529 20.7575 51.408 20.4385 51.3913 20.078L51.2915 17.5747C51.2699 16.9405 51.4738 16.4517 51.8588 16.2151C52.2437 15.9784 52.7785 16.013 53.3464 16.3114L55.5809 17.4854C55.9023 17.6546 56.2165 17.7416 56.5008 17.74C56.785 17.7383 57.0322 17.6482 57.2243 17.4761C57.4163 17.3039 57.5486 17.0541 57.6113 16.7448C57.6741 16.4355 57.6658 16.0744 57.587 15.6878C57.4412 15.0766 57.1362 14.4437 56.7218 13.8927C56.3074 13.3417 55.8082 12.9054 55.3059 12.655Z" fill="#4D4D4D"/>
<path d="M610.377 536.373L608.452 535.361C608.197 535.228 607.944 535.039 607.705 534.807C607.466 534.574 607.247 534.302 607.06 534.006C606.873 533.71 606.722 533.396 606.615 533.082C606.509 532.768 606.449 532.461 606.44 532.177L606.354 530.02C606.341 529.508 606.171 528.925 605.871 528.369C605.57 527.812 605.159 527.317 604.704 526.965C604.419 526.754 604.128 526.608 603.851 526.54C603.575 526.472 603.32 526.481 603.105 526.569C602.89 526.656 602.721 526.819 602.609 527.046C602.497 527.273 602.445 527.558 602.457 527.88L602.547 530.132C602.57 530.708 602.387 531.153 602.04 531.37C601.692 531.586 601.208 531.556 600.694 531.285L598.768 530.274C598.31 530.02 597.869 529.951 597.52 530.077C597.171 530.203 596.936 530.516 596.856 530.964C596.81 531.25 596.828 531.579 596.909 531.928C596.989 532.277 597.131 532.638 597.322 532.983C597.514 533.329 597.751 533.651 598.017 533.926C598.282 534.202 598.569 534.423 598.857 534.575L600.867 535.631C601.381 535.901 601.884 536.389 602.264 536.988C602.644 537.586 602.87 538.246 602.893 538.822L602.979 540.979C602.99 541.489 603.159 542.069 603.456 542.624C603.754 543.178 604.162 543.674 604.614 544.027C604.9 544.238 605.192 544.384 605.469 544.453C605.746 544.522 606.002 544.512 606.218 544.426C606.434 544.339 606.605 544.177 606.718 543.951C606.832 543.725 606.886 543.441 606.876 543.119L606.786 540.868C606.773 540.582 606.81 540.325 606.895 540.112C606.981 539.899 607.113 539.734 607.284 539.626C607.455 539.518 607.661 539.47 607.891 539.483C608.121 539.497 608.371 539.573 608.625 539.707L610.634 540.763C610.923 540.913 611.204 540.99 611.459 540.989C611.714 540.987 611.936 540.906 612.109 540.752C612.281 540.599 612.401 540.375 612.458 540.099C612.516 539.822 612.51 539.5 612.442 539.153C612.318 538.597 612.045 538.016 611.669 537.509C611.293 537.003 610.836 536.601 610.377 536.373Z" fill="#E3E4E9"/>
<path d="M80.8197 508.478L78.0089 507.001C77.297 506.627 76.6016 505.951 76.0757 505.123C75.5498 504.295 75.2365 503.381 75.2048 502.584L75.0855 499.592C75.0748 498.88 74.8428 498.067 74.4286 497.288C74.0143 496.509 73.4428 495.812 72.8098 495.314C72.4141 495.019 72.0097 494.817 71.6257 494.72C71.2416 494.624 70.8874 494.636 70.5884 494.756C70.2894 494.876 70.053 495.1 69.8962 495.414C69.7394 495.727 69.666 496.121 69.6813 496.568L69.8068 499.717C69.8386 500.514 69.5863 501.13 69.1053 501.43C68.6244 501.729 67.9543 501.687 67.2424 501.313L64.6143 499.933C63.9676 499.574 63.3447 499.472 62.8503 499.645C62.356 499.817 62.0204 500.254 61.9001 500.88C61.8362 501.277 61.8614 501.735 61.9738 502.222C62.0862 502.708 62.283 503.21 62.5499 503.691C62.8168 504.172 63.1471 504.621 63.5168 505.004C63.8865 505.387 64.2863 505.695 64.6872 505.905L67.498 507.382C68.2099 507.756 68.9053 508.432 69.4312 509.26C69.957 510.089 70.2703 511.002 70.3021 511.8L70.4213 514.791C70.4321 515.503 70.664 516.316 71.0783 517.095C71.4926 517.874 72.0641 518.571 72.6971 519.069C73.094 519.365 73.4995 519.568 73.8846 519.664C74.2696 519.76 74.6245 519.747 74.9237 519.625C75.2229 519.504 75.4589 519.277 75.6147 518.961C75.7706 518.646 75.8424 518.249 75.8249 517.8L75.6994 514.651C75.6716 513.861 75.9239 513.251 76.4015 512.953C76.8791 512.656 77.5436 512.695 78.2505 513.062L81.0612 514.539C81.4578 514.749 81.846 514.86 82.1985 514.863C82.5511 514.866 82.8594 514.761 83.1018 514.557C83.3442 514.352 83.5148 514.052 83.6015 513.678C83.6882 513.304 83.689 512.865 83.6037 512.391C83.4462 511.628 83.0855 510.826 82.58 510.115C82.0746 509.405 81.4542 508.828 80.8197 508.478Z" stroke="#808490" stroke-width="1.39" stroke-miterlimit="10"/>
<path d="M550.314 765.42L522.67 750.896C521.924 750.504 521.196 749.797 520.646 748.929C520.095 748.062 519.767 747.105 519.734 746.27C519.7 745.435 519.965 744.79 520.468 744.476C520.972 744.163 521.673 744.207 522.419 744.598L550.063 759.123C550.808 759.514 551.537 760.222 552.087 761.089C552.638 761.957 552.966 762.913 552.999 763.748C553.032 764.583 552.768 765.229 552.265 765.542C551.761 765.856 551.059 765.812 550.314 765.42Z" fill="#B3B3B3"/>
<path d="M563.452 772.324L560.248 770.641C559.503 770.249 558.774 769.542 558.224 768.674C557.673 767.807 557.345 766.85 557.312 766.015C557.278 765.18 557.543 764.535 558.046 764.221C558.55 763.908 559.252 763.952 559.997 764.343L563.201 766.027C563.947 766.418 564.675 767.126 565.226 767.993C565.776 768.861 566.104 769.817 566.138 770.652C566.171 771.488 565.907 772.133 565.403 772.446C564.899 772.76 564.198 772.716 563.452 772.324Z" fill="#B3B3B3"/>
<path d="M579.652 780.838L579.076 780.536C578.331 780.144 577.603 779.437 577.052 778.569C576.501 777.702 576.173 776.745 576.14 775.91C576.107 775.075 576.371 774.43 576.874 774.116C577.378 773.802 578.08 773.846 578.825 774.238L579.401 774.541C580.147 774.932 580.875 775.64 581.426 776.507C581.976 777.375 582.304 778.331 582.338 779.166C582.371 780.001 582.107 780.647 581.603 780.96C581.1 781.274 580.398 781.23 579.652 780.838Z" fill="#B3B3B3"/>
<path d="M263.542 45.4408L235.912 30.9238C235.167 30.5321 234.438 29.8247 233.888 28.9573C233.337 28.0898 233.009 27.1333 232.976 26.2982C232.943 25.4631 233.207 24.8178 233.71 24.5042C234.214 24.1907 234.916 24.2345 235.661 24.6262L263.291 39.1432C264.037 39.5349 264.765 40.2423 265.315 41.1097C265.866 41.9772 266.194 42.9337 266.227 43.7688C266.261 44.6039 265.996 45.2492 265.493 45.5628C264.989 45.8763 264.288 45.8325 263.542 45.4408Z" fill="#E06AE9"/>
<path d="M276.701 52.3523L273.482 50.6613C272.737 50.2696 272.009 49.5623 271.458 48.6948C270.907 47.8273 270.579 46.8708 270.546 46.0357C270.513 45.2006 270.777 44.5553 271.281 44.2418C271.784 43.9282 272.486 43.9721 273.231 44.3638L276.45 46.0547C277.195 46.4464 277.923 47.1538 278.474 48.0212C279.025 48.8887 279.353 49.8452 279.386 50.6803C279.419 51.5154 279.155 52.1607 278.652 52.4743C278.148 52.7878 277.446 52.7439 276.701 52.3523Z" fill="#E06AE9"/>
<path d="M292.88 60.8588L292.318 60.5634C291.573 60.1717 290.845 59.4644 290.294 58.5969C289.743 57.7294 289.415 56.7729 289.382 55.9378C289.349 55.1027 289.613 54.4574 290.117 54.1439C290.62 53.8303 291.322 53.8742 292.067 54.2659L292.63 54.5612C293.375 54.9529 294.103 55.6603 294.654 56.5277C295.204 57.3952 295.533 58.3517 295.566 59.1868C295.599 60.0219 295.335 60.6672 294.831 60.9808C294.328 61.2943 293.626 61.2505 292.88 60.8588Z" fill="#E06AE9"/>
<path d="M502.25 500.474C502.277 501.15 502.125 501.716 501.812 502.102C501.499 502.488 501.04 502.675 500.493 502.641C499.946 502.607 499.336 502.352 498.739 501.91C498.142 501.467 497.586 500.856 497.14 500.154C496.695 499.452 496.38 498.691 496.236 497.967C496.092 497.242 496.125 496.587 496.331 496.084C496.537 495.581 496.906 495.253 497.393 495.141C497.88 495.029 498.461 495.138 499.064 495.455C499.873 495.88 500.663 496.648 501.261 497.589C501.858 498.53 502.214 499.568 502.25 500.474Z" fill="#B3B3B3"/>
<path d="M509.727 495.817C509.754 496.493 509.601 497.06 509.288 497.445C508.976 497.831 508.517 498.019 507.97 497.985C507.423 497.95 506.812 497.696 506.216 497.253C505.619 496.811 505.062 496.2 504.617 495.498C504.171 494.796 503.857 494.035 503.713 493.31C503.568 492.585 503.601 491.93 503.807 491.427C504.013 490.924 504.383 490.596 504.87 490.484C505.356 490.372 505.938 490.482 506.541 490.799C507.35 491.224 508.14 491.991 508.737 492.932C509.335 493.873 509.691 494.911 509.727 495.817Z" fill="#B3B3B3"/>
<path d="M517.195 491.145C517.222 491.822 517.07 492.389 516.756 492.774C516.443 493.16 515.983 493.347 515.435 493.312C514.888 493.277 514.276 493.021 513.679 492.577C513.082 492.133 512.525 491.521 512.08 490.817C511.635 490.114 511.322 489.352 511.179 488.627C511.037 487.903 511.072 487.248 511.28 486.746C511.488 486.245 511.86 485.919 512.348 485.81C512.837 485.701 513.42 485.814 514.024 486.134C514.83 486.562 515.617 487.329 516.211 488.268C516.806 489.208 517.159 490.242 517.195 491.145Z" fill="#B3B3B3"/>
<path d="M576.766 718.034C576.779 718.361 576.705 718.635 576.554 718.821C576.403 719.008 576.181 719.099 575.916 719.082C575.651 719.066 575.356 718.943 575.067 718.728C574.778 718.514 574.509 718.219 574.294 717.879C574.078 717.539 573.926 717.171 573.856 716.82C573.786 716.47 573.802 716.153 573.902 715.909C574.002 715.666 574.18 715.507 574.416 715.453C574.651 715.399 574.933 715.452 575.225 715.605C575.421 715.697 575.618 715.835 575.805 716.011C575.992 716.186 576.163 716.395 576.309 716.624C576.454 716.853 576.57 717.097 576.649 717.34C576.727 717.583 576.767 717.819 576.766 718.034Z" fill="#B3B3B3"/>
<path d="M387.831 625.991C387.829 626.273 387.752 626.504 387.609 626.658C387.467 626.812 387.265 626.881 387.028 626.858C386.791 626.834 386.53 626.72 386.275 626.527C386.021 626.334 385.784 626.072 385.593 625.772C385.403 625.472 385.267 625.146 385.202 624.836C385.137 624.525 385.145 624.242 385.227 624.02C385.308 623.799 385.459 623.649 385.661 623.588C385.862 623.528 386.106 623.559 386.363 623.679C386.55 623.766 386.739 623.897 386.917 624.064C387.095 624.231 387.259 624.43 387.397 624.649C387.536 624.867 387.646 625.099 387.721 625.33C387.796 625.562 387.833 625.787 387.831 625.991Z" fill="#B3B3B3"/>
<path d="M301.829 702.784C301.841 703.114 301.766 703.39 301.611 703.576C301.456 703.762 301.23 703.85 300.961 703.829C300.692 703.808 300.393 703.678 300.102 703.456C299.812 703.234 299.542 702.931 299.33 702.585C299.117 702.239 298.97 701.866 298.908 701.515C298.847 701.164 298.873 700.85 298.983 700.614C299.094 700.378 299.284 700.231 299.529 700.191C299.774 700.152 300.062 700.222 300.357 700.392C300.548 700.492 300.738 700.634 300.917 700.81C301.096 700.986 301.259 701.193 301.396 701.416C301.534 701.64 301.643 701.877 301.717 702.112C301.792 702.347 301.83 702.575 301.829 702.784Z" fill="#4D4D4D"/>
<path d="M261.533 699.256C261.547 699.555 261.483 699.806 261.347 699.978C261.211 700.149 261.01 700.234 260.771 700.221C260.531 700.208 260.262 700.097 260 699.903C259.737 699.709 259.492 699.44 259.296 699.132C259.1 698.823 258.962 698.488 258.9 698.17C258.837 697.851 258.852 697.564 258.944 697.344C259.036 697.124 259.2 696.982 259.415 696.935C259.631 696.888 259.887 696.939 260.153 697.082C260.502 697.27 260.842 697.602 261.1 698.009C261.358 698.415 261.513 698.863 261.533 699.256Z" fill="#B3B3B3"/>
<path d="M203 514.206C203.013 514.536 202.938 514.812 202.783 514.998C202.628 515.185 202.402 515.273 202.133 515.251C201.864 515.23 201.565 515.1 201.274 514.878C200.984 514.657 200.714 514.353 200.502 514.007C200.289 513.661 200.142 513.289 200.08 512.937C200.019 512.586 200.045 512.272 200.155 512.036C200.266 511.8 200.456 511.653 200.701 511.614C200.946 511.574 201.234 511.644 201.529 511.814C201.72 511.914 201.91 512.057 202.089 512.233C202.267 512.409 202.43 512.615 202.568 512.839C202.706 513.062 202.815 513.299 202.889 513.534C202.964 513.769 203.001 513.998 203 514.206Z" fill="#4D4D4D"/>
<path d="M70.6074 463.426C71.5854 463.94 72.3428 463.468 72.2991 462.373C72.2554 461.277 71.4272 459.972 70.4493 459.458C69.4713 458.945 68.7139 459.416 68.7575 460.512C68.8012 461.607 69.6294 462.912 70.6074 463.426Z" fill="#B3B3B3"/>
<path d="M5.68053 204.155C6.58865 204.632 7.29197 204.194 7.25143 203.177C7.21088 202.16 6.44183 200.948 5.53371 200.471C4.62558 199.994 3.92227 200.432 3.96281 201.449C4.00336 202.466 4.7724 203.678 5.68053 204.155Z" fill="#B3B3B3"/>
<path d="M106.118 36.1003C107.026 36.5774 107.729 36.1395 107.689 35.1222C107.648 34.1048 106.879 32.8933 105.971 32.4162C105.063 31.939 104.36 32.377 104.4 33.3943C104.441 34.4116 105.21 35.6231 106.118 36.1003Z" fill="#B3B3B3"/>
<path d="M349.852 63.3371C350.761 63.8142 351.464 63.3763 351.423 62.359C351.383 61.3416 350.614 60.1301 349.706 59.653C348.797 59.1759 348.094 59.6138 348.135 60.6311C348.175 61.6484 348.944 62.8599 349.852 63.3371Z" fill="#B3B3B3"/>
<path d="M502.325 233.156C502.338 233.467 502.268 233.728 502.123 233.906C501.979 234.084 501.768 234.17 501.516 234.155C501.264 234.139 500.982 234.022 500.707 233.818C500.432 233.614 500.176 233.332 499.971 233.009C499.765 232.685 499.62 232.334 499.554 232C499.488 231.667 499.503 231.365 499.598 231.133C499.693 230.901 499.863 230.75 500.087 230.698C500.311 230.647 500.579 230.697 500.857 230.843C501.23 231.039 501.594 231.393 501.869 231.826C502.145 232.26 502.309 232.738 502.325 233.156Z" fill="#B3B3B3"/>
<path d="M324.095 183.026C325.003 183.503 325.706 183.065 325.665 182.048C325.625 181.031 324.856 179.819 323.948 179.342C323.04 178.865 322.336 179.303 322.377 180.32C322.417 181.338 323.186 182.549 324.095 183.026Z" fill="#B3B3B3"/>
<path d="M599.915 356.443C599.931 356.866 599.836 357.221 599.64 357.463C599.444 357.705 599.156 357.823 598.814 357.801C598.471 357.78 598.088 357.62 597.714 357.343C597.34 357.065 596.991 356.682 596.712 356.243C596.433 355.803 596.236 355.325 596.145 354.871C596.055 354.417 596.076 354.007 596.205 353.691C596.334 353.376 596.566 353.171 596.87 353.1C597.175 353.03 597.54 353.099 597.918 353.297C598.425 353.564 598.92 354.045 599.294 354.635C599.669 355.225 599.892 355.875 599.915 356.443Z" fill="#4D4D4D"/>
<path d="M502.294 434.175C502.307 434.487 502.236 434.748 502.092 434.926C501.948 435.103 501.737 435.19 501.485 435.174C501.233 435.158 500.951 435.041 500.676 434.837C500.401 434.633 500.145 434.352 499.939 434.028C499.734 433.705 499.589 433.354 499.523 433.02C499.456 432.686 499.471 432.384 499.566 432.152C499.661 431.921 499.832 431.769 500.056 431.718C500.28 431.666 500.548 431.717 500.826 431.863C501.199 432.059 501.563 432.412 501.838 432.846C502.113 433.28 502.278 433.758 502.294 434.175Z" fill="#B3B3B3"/>
<path d="M617.399 620.662C617.416 621.085 617.32 621.44 617.124 621.682C616.928 621.924 616.641 622.042 616.298 622.02C615.955 621.999 615.573 621.839 615.199 621.562C614.825 621.284 614.476 620.901 614.197 620.462C613.917 620.022 613.72 619.545 613.63 619.09C613.54 618.636 613.56 618.226 613.689 617.91C613.818 617.595 614.05 617.39 614.355 617.319C614.66 617.249 615.025 617.318 615.403 617.516C615.909 617.783 616.405 618.264 616.779 618.854C617.153 619.444 617.377 620.094 617.399 620.662Z" fill="#B3B3B3"/>
<path d="M485.977 575.61C485.994 576.033 485.899 576.388 485.703 576.63C485.507 576.872 485.219 576.99 484.876 576.968C484.533 576.947 484.151 576.787 483.777 576.51C483.403 576.232 483.054 575.849 482.775 575.41C482.496 574.97 482.298 574.493 482.208 574.038C482.118 573.584 482.138 573.174 482.268 572.858C482.397 572.543 482.628 572.337 482.933 572.267C483.238 572.197 483.603 572.266 483.981 572.464C484.488 572.731 484.983 573.212 485.357 573.802C485.732 574.392 485.955 575.042 485.977 575.61Z" fill="#E3E4E9"/>
<g clip-path="url(#clip0_5_608)">
<path d="M423.769 164.444C423.84 160.806 421.476 157.152 416.679 154.383C407.264 148.947 391.995 148.948 382.641 154.383C377.979 157.093 375.654 160.648 375.659 164.207C375.659 164.195 375.658 164.184 375.658 164.172L375.638 171.235C375.628 174.828 377.994 178.427 382.732 181.162C392.147 186.598 407.415 186.598 416.769 181.162C421.416 178.461 423.742 174.92 423.752 171.372L423.772 164.309C423.772 164.354 423.77 164.399 423.769 164.444ZM383.799 173.491C380.922 171.83 378.978 169.83 377.966 167.711C378.971 165.639 380.872 163.684 383.675 162.055C392.451 156.954 406.777 156.954 415.611 162.055C418.488 163.716 420.432 165.716 421.444 167.834C420.439 169.907 418.538 171.862 415.736 173.49C406.959 178.591 392.632 178.591 383.799 173.491Z" fill="#1D1D1F"/>
<path d="M422.287 164.306L422.267 171.369C422.277 167.998 420.057 164.621 415.611 162.055C406.777 156.954 392.451 156.955 383.675 162.055C379.315 164.589 377.132 167.912 377.123 171.24L377.143 164.177C377.152 160.848 379.335 157.525 383.695 154.992C392.471 149.891 406.797 149.891 415.631 154.992C420.077 157.558 422.297 160.934 422.287 164.306Z" fill="#1D1D1F"/>
<path d="M423.772 164.309L423.752 171.372C423.742 174.92 421.416 178.461 416.769 181.162C407.415 186.598 392.147 186.598 382.732 181.162C377.994 178.427 375.628 174.828 375.638 171.235L375.658 164.172C375.648 167.765 378.014 171.363 382.752 174.099C392.167 179.534 407.435 179.534 416.789 174.098C421.436 171.398 423.762 167.856 423.772 164.309Z" fill="#2E2E30"/>
<path d="M416.679 154.383C426.094 159.818 426.143 168.663 416.789 174.099C407.435 179.534 392.167 179.534 382.752 174.099C373.337 168.663 373.287 159.819 382.641 154.383C391.995 148.948 407.264 148.947 416.679 154.383ZM383.799 173.491C392.632 178.59 406.96 178.59 415.735 173.49C424.512 168.39 424.465 160.091 415.631 154.991C406.797 149.891 392.471 149.891 383.695 154.992C374.919 160.092 374.964 168.39 383.799 173.491Z" fill="#3E3D43"/>
<path d="M411.362 178.845C411.373 175.131 410.582 172.496 409.597 172.963C404.986 174.702 395.674 172.752 387.954 168.295C384.182 166.117 381.442 163.717 379.962 161.515C379.928 158.231 379.638 155.917 379.277 156.231C379.284 156.225 379.291 156.219 379.299 156.215C374.414 159.054 369.529 161.892 364.644 164.731C364.565 164.78 364.476 164.837 364.387 164.918C364.385 164.92 364.382 164.922 364.38 164.925C364.371 164.933 364.362 164.94 364.353 164.949C364.338 164.963 364.327 164.976 364.314 164.989C364.284 165.02 364.256 165.052 364.231 165.084C364.227 165.089 364.223 165.094 364.219 165.099C364.204 165.119 364.19 165.139 364.177 165.16C364.16 165.185 364.145 165.21 364.129 165.237C364.017 165.431 363.994 165.633 363.962 165.912C363.94 166.108 363.882 166.75 363.832 168.47C363.788 170.028 363.781 171.623 363.778 172.304L363.773 173.986C363.766 176.44 363.811 179.391 363.928 180.451C363.954 180.679 363.978 180.789 363.993 180.841C364.034 180.978 364.062 181.024 364.137 181.148C364.175 181.21 364.243 181.28 364.292 181.333C364.318 181.361 364.359 181.393 364.387 181.418C364.448 181.472 364.542 181.529 364.611 181.572L367.29 183.119L369.968 184.665L372.647 186.212L375.326 187.758L378.004 189.305L380.683 190.851L383.362 192.398L386.04 193.944L388.719 195.491L391.398 197.037C391.598 197.153 391.831 197.242 392.091 197.304C392.403 197.377 392.691 197.392 392.877 197.392C393.146 197.392 393.425 197.361 393.663 197.304C393.856 197.257 393.926 197.23 394.094 197.165C394.166 197.138 394.206 197.116 394.353 197.037C394.355 197.037 394.356 197.033 394.358 197.03C394.356 197.033 394.355 197.036 394.353 197.037C394.565 196.879 394.885 196.725 395.114 196.59C395.342 196.456 395.665 196.305 395.874 196.143C396.083 195.982 396.406 195.831 396.634 195.696C396.862 195.562 397.167 195.383 397.395 195.249C398.409 194.653 399.424 194.056 400.439 193.46C403.496 191.663 406.552 189.866 409.609 188.069C410.569 187.504 411.347 184.172 411.357 180.527L411.362 178.845Z" fill="#E0E0E2"/>
<path d="M379.274 171.321C379.221 171.405 379.141 171.511 379.098 171.6C379.056 171.685 378.999 171.798 378.964 171.886C378.949 171.922 378.913 172.015 378.892 172.107C379.016 171.426 379.154 169.369 379.162 166.465C379.164 165.595 379.424 164.773 379.961 164.025C379.951 167.612 379.647 170.8 379.274 171.321Z" fill="#3E3D43"/>
<path d="M379.162 166.465L379.167 164.783C379.169 163.913 379.428 163.092 379.965 162.343L379.961 164.025C379.424 164.773 379.164 165.595 379.162 166.465Z" fill="#3E3D43"/>
<path d="M364.644 164.731C369.529 161.892 374.414 159.054 379.299 156.215C379.291 156.219 379.284 156.224 379.277 156.231L364.65 164.731C364.648 164.73 364.646 164.73 364.644 164.731Z" fill="#E0E0E2"/>
<path d="M394.391 181.902C393.58 182.373 392.262 182.373 391.446 181.902L364.659 166.437C364.061 166.091 363.901 165.589 364.177 165.16C364.16 165.185 364.145 165.21 364.129 165.237C364.017 165.431 363.994 165.633 363.962 165.912C363.94 166.108 363.882 166.75 363.832 168.47C363.788 170.028 363.781 171.623 363.778 172.304L363.773 173.986C363.766 176.44 363.811 179.392 363.928 180.451C363.954 180.679 363.978 180.789 363.993 180.841C364.034 180.978 364.062 181.025 364.137 181.148C364.175 181.21 364.243 181.28 364.292 181.333C364.318 181.361 364.359 181.393 364.387 181.418C364.448 181.472 364.542 181.529 364.611 181.572L367.29 183.119L369.968 184.665L372.647 186.212L375.326 187.758L378.004 189.305L380.683 190.851L383.362 192.398L386.04 193.944L388.719 195.491L391.398 197.037C391.598 197.153 391.831 197.243 392.091 197.304C392.403 197.377 392.691 197.392 392.877 197.392C393.146 197.392 393.425 197.361 393.663 197.304C393.856 197.257 393.926 197.23 394.094 197.165C394.166 197.138 394.206 197.116 394.353 197.037C394.449 196.982 394.533 194.057 394.543 190.411L394.548 188.73C394.559 185.015 394.488 181.958 394.391 181.902Z" fill="#2E2E30"/>
<path d="M379.167 164.783C379.167 164.168 379.167 162.887 379.115 161.587C379.046 159.829 378.954 159.629 378.95 159.609C378.95 159.609 377.956 157.84 379.277 156.231C379.667 155.891 379.976 158.628 379.965 162.343C379.428 163.092 379.169 163.913 379.167 164.783Z" fill="#77767E"/>
<path d="M370.531 161.857C373.088 172.807 382.911 180.962 394.639 180.962C400.621 180.962 406.107 178.84 410.387 175.309C407.829 164.36 398.007 156.204 386.278 156.204C380.296 156.204 374.81 158.326 370.531 161.857Z" fill="#3E3D43"/>
<path d="M364.461 174.947L364.466 173.265C364.476 169.55 364.563 166.493 364.659 166.437C364.061 166.091 363.901 165.589 364.177 165.16C364.16 165.185 364.145 165.21 364.129 165.237C364.017 165.431 363.994 165.633 363.962 165.912C363.94 166.108 363.882 166.75 363.832 168.47C363.788 170.028 363.781 171.623 363.778 172.304L363.773 173.986C363.766 176.44 363.811 179.392 363.928 180.451C363.954 180.679 363.978 180.789 363.993 180.841C364.034 180.978 364.062 181.025 364.137 181.148C364.175 181.21 364.243 181.28 364.292 181.333C364.318 181.361 364.359 181.393 364.387 181.418C364.448 181.473 364.542 181.529 364.611 181.572C364.517 181.518 364.45 178.593 364.461 174.947Z" fill="#3E3D43"/>
<path d="M391.398 197.038C391.598 197.153 391.831 197.243 392.091 197.304C392.403 197.377 392.691 197.392 392.878 197.392C393.147 197.392 393.425 197.361 393.663 197.304C393.856 197.257 393.926 197.23 394.094 197.166C394.166 197.138 394.206 197.117 394.353 197.038C394.449 196.982 394.533 194.057 394.544 190.411L394.548 188.73C394.559 185.015 394.488 181.958 394.391 181.902C393.581 182.373 392.262 182.373 391.446 181.902L391.398 197.038Z" fill="#3E3D43"/>
<path d="M391.446 181.902L364.659 166.437C364.563 166.493 364.476 169.55 364.466 173.265L364.461 174.946C364.451 178.593 364.518 181.518 364.611 181.572L367.29 183.119L369.969 184.665L372.647 186.212L375.326 187.758L378.005 189.305L380.683 190.851L383.362 192.398L386.041 193.944L388.719 195.491L391.398 197.037L391.446 181.902Z" fill="#2E2E30"/>
<path d="M364.461 174.947L364.466 173.265C364.476 169.55 364.563 166.493 364.659 166.437C364.061 166.091 363.901 165.589 364.177 165.16C364.16 165.185 364.145 165.21 364.129 165.237C364.017 165.431 363.994 165.633 363.962 165.912C363.94 166.108 363.882 166.75 363.832 168.47C363.788 170.028 363.781 171.623 363.778 172.304L363.773 173.986C363.766 176.44 363.811 179.392 363.928 180.451C363.954 180.679 363.978 180.789 363.993 180.841C364.034 180.978 364.062 181.025 364.137 181.148C364.175 181.21 364.243 181.28 364.292 181.333C364.318 181.361 364.359 181.393 364.387 181.418C364.448 181.473 364.542 181.529 364.611 181.572C364.517 181.518 364.45 178.593 364.461 174.947Z" fill="#3E3D43"/>
<path d="M364.231 165.084C364.254 165.054 364.283 165.022 364.315 164.989C364.284 165.02 364.256 165.052 364.231 165.084Z" fill="#D8D8DA"/>
<path d="M364.177 165.16C364.19 165.139 364.204 165.119 364.219 165.099C364.204 165.119 364.19 165.139 364.177 165.16Z" fill="#D8D8DA"/>
<path d="M364.219 165.099C364.223 165.094 364.227 165.089 364.231 165.084C364.227 165.089 364.223 165.094 364.219 165.099Z" fill="#D8D8DA"/>
<path d="M364.644 164.731C364.565 164.78 364.477 164.837 364.387 164.918C364.462 164.852 364.55 164.789 364.649 164.731C364.648 164.73 364.646 164.73 364.644 164.731Z" fill="#D8D8DA"/>
<path d="M364.379 164.925C364.382 164.922 364.385 164.92 364.387 164.917C364.384 164.92 364.382 164.922 364.379 164.925Z" fill="#D8D8DA"/>
<path d="M364.352 164.949C364.338 164.963 364.327 164.976 364.314 164.989C364.335 164.967 364.356 164.946 364.379 164.925C364.37 164.933 364.361 164.94 364.352 164.949Z" fill="#D8D8DA"/>
<path d="M409.597 172.963C404.528 175.943 399.459 178.922 394.391 181.902C393.581 182.373 392.262 182.373 391.446 181.902C382.517 176.747 373.588 171.592 364.659 166.437C363.843 165.965 363.839 165.202 364.65 164.731C369.525 161.897 374.401 159.064 379.277 156.23C377.245 159.072 380.681 164.096 387.954 168.294C395.674 172.752 404.986 174.702 409.597 172.963Z" fill="#E0E0E2"/>
<path d="M388.22 173.277L380.09 168.583L377.577 170.043L385.708 174.738L388.22 173.277Z" fill="#57565C"/>
<path d="M411.362 178.845C411.373 175.131 410.582 172.496 409.597 172.963L394.391 181.902C394.488 181.958 394.559 185.015 394.548 188.73L394.543 190.411C394.533 194.057 394.449 196.981 394.353 197.037C394.565 196.879 394.885 196.725 395.114 196.59C395.342 196.456 395.665 196.305 395.874 196.144C396.083 195.982 396.406 195.831 396.634 195.696C396.862 195.562 397.167 195.383 397.395 195.249C398.41 194.653 399.424 194.056 400.439 193.46C403.496 191.663 406.552 189.866 409.609 188.069C410.569 187.504 411.347 184.172 411.358 180.527L411.362 178.845Z" fill="#ACABB1"/>
<path d="M386.266 182.305C385.552 181.892 384.971 182.224 384.969 183.045C384.967 183.866 385.543 184.866 386.258 185.278C386.973 185.691 387.554 185.36 387.556 184.539C387.558 183.718 386.981 182.717 386.266 182.305Z" fill="#59A4FF"/>
<path d="M386.247 188.988C385.533 188.576 384.952 188.907 384.95 189.728C384.948 190.549 385.524 191.549 386.239 191.961C386.954 192.374 387.535 192.042 387.537 191.221C387.539 190.401 386.962 189.401 386.247 188.988Z" fill="#59A4FF"/>
<path d="M389.56 187.554C388.846 187.142 388.265 187.473 388.263 188.294C388.26 189.115 388.838 190.114 389.552 190.526C390.266 190.939 390.847 190.608 390.85 189.787C390.852 188.966 390.275 187.966 389.56 187.554Z" fill="#59A4FF"/>
<path d="M369.668 172.549C368.953 172.137 368.372 172.468 368.37 173.289C368.368 174.11 368.944 175.11 369.659 175.523C370.374 175.935 370.955 175.604 370.957 174.783C370.959 173.962 370.382 172.962 369.668 172.549Z" fill="#59A4FF"/>
<path d="M369.648 179.233C368.934 178.821 368.353 179.152 368.351 179.972C368.349 180.794 368.925 181.793 369.64 182.206C370.355 182.618 370.936 182.287 370.938 181.466C370.94 180.646 370.363 179.646 369.648 179.233Z" fill="#59A4FF"/>
<path d="M366.355 173.984C365.64 173.571 365.059 173.903 365.057 174.724C365.054 175.545 365.632 176.544 366.346 176.956C367.061 177.369 367.641 177.038 367.644 176.217C367.646 175.396 367.069 174.397 366.355 173.984Z" fill="#59A4FF"/>
<path d="M384.415 163.542C386.11 163.542 387.484 162.168 387.484 160.473C387.484 158.778 386.11 157.405 384.415 157.405C382.72 157.405 381.346 158.778 381.346 160.473C381.346 162.168 382.72 163.542 384.415 163.542Z" fill="#77767E"/>
<path d="M387.611 173.431C387.611 171.033 385.933 168.128 383.863 166.941C382.835 166.351 381.903 166.296 381.226 166.685L379.297 167.791C379.297 167.791 378.187 168.323 378.187 170.196L385.682 174.552L385.682 174.552L387.611 173.431Z" fill="#1D1D1F"/>
<path d="M383.863 166.941C382.835 166.351 381.903 166.296 381.226 166.685L379.297 167.791C379.974 167.403 380.906 167.457 381.934 168.047C384.004 169.234 385.682 172.141 385.682 174.539C385.682 174.543 385.682 174.548 385.682 174.552L385.682 174.552L387.611 173.431C387.611 171.033 385.933 168.128 383.863 166.941Z" fill="#57565C"/>
<path d="M384.582 167.766L382.893 168.741C382.932 168.775 382.97 168.809 383.008 168.844L384.932 167.733C384.894 167.698 384.856 167.664 384.818 167.63L384.582 167.766Z" fill="#3E3D43"/>
<path d="M386.311 169.398C386.285 169.357 386.258 169.316 386.231 169.276L384.306 170.387C384.332 170.428 384.359 170.469 384.385 170.51L386.311 169.398Z" fill="#3E3D43"/>
<path d="M382.792 166.507C382.718 166.49 382.644 166.476 382.572 166.465L380.653 167.573C380.725 167.584 380.798 167.598 380.872 167.615L382.792 166.507Z" fill="#3E3D43"/>
<path d="M381.948 168.056C381.997 168.083 382.044 168.112 382.092 168.142L384.015 167.032C383.967 167.002 383.919 166.973 383.871 166.946L381.948 168.056Z" fill="#3E3D43"/>
<path d="M383.663 169.528C383.695 169.565 383.726 169.603 383.758 169.641L385.683 168.53C385.651 168.492 385.62 168.454 385.588 168.416L383.663 169.528Z" fill="#3E3D43"/>
<path d="M385.261 172.298C385.278 172.344 385.295 172.391 385.31 172.438L387.237 171.326C387.222 171.279 387.205 171.232 387.188 171.185L385.261 172.298Z" fill="#3E3D43"/>
<path d="M384.838 171.311C384.86 171.354 384.882 171.398 384.903 171.442L386.829 170.33C386.808 170.286 386.787 170.242 386.765 170.198L384.838 171.311Z" fill="#3E3D43"/>
<path d="M385.558 173.357C385.568 173.408 385.578 173.459 385.587 173.509L387.515 172.396C387.506 172.346 387.496 172.295 387.486 172.244L385.558 173.357Z" fill="#3E3D43"/>
<path d="M381.934 168.047C379.877 166.867 378.207 167.83 378.187 170.196L385.682 174.552C385.682 174.547 385.682 174.543 385.682 174.539C385.682 172.141 384.004 169.234 381.934 168.047Z" fill="#2E2E30"/>
<path d="M381.934 170.025C380.813 169.381 379.902 169.906 379.891 171.196L383.977 173.571C383.977 173.568 383.978 173.566 383.978 173.563C383.977 172.256 383.063 170.672 381.934 170.025Z" fill="#1D1D1F"/>
</g>
<g clip-path="url(#clip1_5_608)">
<path d="M233.14 631.986C233.14 625.695 230.552 618.72 226.72 613.616C226.789 612.943 226.825 612.236 226.825 611.498C226.825 602.197 221.17 591.392 214.194 587.365C210.781 585.394 207.685 585.412 205.412 587.032L201.338 589.36L201.338 589.36C198.519 590.82 196.72 594.467 196.72 599.712C196.72 600.449 196.759 601.195 196.828 601.947C192.993 602.624 190.404 606.615 190.404 612.907C190.404 622.209 196.059 633.014 203.035 637.041C205.337 638.37 207.495 638.795 209.354 638.433C211.211 640.938 213.366 643.006 215.666 644.334C218.935 646.221 221.914 646.285 224.157 644.863L228.931 642.107L228.931 642.106C231.514 640.514 233.14 636.973 233.14 631.986Z" fill="#009EFF"/>
<path d="M220.51 624.693C220.51 633.995 214.855 638.27 207.879 634.242C200.903 630.215 195.248 619.41 195.248 610.108C195.248 600.807 200.903 596.532 207.879 600.56C214.855 604.587 220.51 615.392 220.51 624.693Z" fill="#F7E041"/>
<path d="M201.672 599.151C202.472 607.886 207.771 617.339 214.194 621.047C216.451 622.35 218.567 622.779 220.401 622.455C219.6 613.72 214.301 604.268 207.878 600.56C205.622 599.257 203.505 598.828 201.672 599.151Z" fill="#E9662C"/>
<path d="M214.194 621.047C216.451 622.35 218.568 622.779 220.402 622.455C219.888 616.851 217.522 610.953 214.194 606.464C210.867 607.111 208.5 610.276 207.986 615.286C209.82 617.728 211.937 619.744 214.194 621.047Z" fill="#D36BC5"/>
<path d="M214.194 621.047C211.937 619.744 209.82 617.728 207.986 615.286C207.917 615.959 207.879 616.663 207.879 617.401C207.879 623.633 210.42 630.538 214.194 635.63C217.968 634.896 220.51 630.926 220.51 624.693C220.51 623.955 220.471 623.208 220.402 622.455C218.568 622.779 216.451 622.35 214.194 621.047Z" fill="#A4C639"/>
<path d="M221.981 614.297C221.981 623.599 216.326 627.874 209.351 623.846C202.375 619.819 196.72 609.014 196.72 599.712C196.72 590.411 202.375 586.136 209.351 590.164C216.326 594.191 221.981 604.996 221.981 614.297Z" fill="#FF3400"/>
<path d="M214.194 587.365C210.781 585.394 207.685 585.412 205.412 587.032L201.338 589.36L201.338 589.36C203.518 588.23 206.309 588.408 209.35 590.164C216.326 594.191 221.981 604.996 221.981 614.297C221.981 615.033 221.946 615.737 221.877 616.408L226.716 613.611C226.717 613.613 226.719 613.614 226.72 613.616C226.789 612.943 226.825 612.236 226.825 611.498C226.825 602.197 221.17 591.392 214.194 587.365Z" fill="#750601"/>
<path d="M215.666 627.492C215.666 636.794 210.011 641.069 203.035 637.041C196.059 633.014 190.404 622.209 190.404 612.908C190.404 603.606 196.059 599.331 203.035 603.359C210.011 607.386 215.666 618.191 215.666 627.492Z" fill="#FFCA00"/>
<path d="M196.828 601.951C197.629 610.686 202.928 620.138 209.35 623.846C211.607 625.149 213.724 625.578 215.557 625.254C214.757 616.519 209.457 607.067 203.035 603.359C200.778 602.056 198.662 601.627 196.828 601.951Z" fill="#FF6936"/>
<path d="M228.297 634.785C228.297 644.086 222.642 648.361 215.666 644.334C208.69 640.306 203.035 629.501 203.035 620.2C203.035 610.899 208.69 606.624 215.666 610.651C222.642 614.679 228.297 625.484 228.297 634.785Z" fill="#00BAFF"/>
<path d="M203.143 618.087C204.977 620.528 207.094 622.543 209.35 623.846C215.773 627.554 221.072 624.221 221.873 616.41C220.039 613.969 217.923 611.954 215.666 610.651C209.243 606.943 203.944 610.277 203.143 618.087Z" fill="#604EE8"/>
<path d="M209.35 623.846C211.608 625.149 213.725 625.579 215.559 625.254C215.044 619.65 212.678 613.752 209.35 609.264C206.023 609.91 203.657 613.075 203.142 618.086C204.976 620.528 207.093 622.543 209.35 623.846Z" fill="#EA6E8A"/>
<path d="M209.351 623.846C207.093 622.543 204.976 620.527 203.142 618.085C203.073 618.758 203.035 619.462 203.035 620.2C203.035 626.432 205.576 633.337 209.351 638.429C213.125 637.695 215.666 633.725 215.666 627.492C215.666 626.754 215.628 626.007 215.559 625.254C213.725 625.578 211.608 625.149 209.351 623.846Z" fill="#408E0D"/>
</g>
<g clip-path="url(#clip2_5_608)">
<path d="M433.6 712.807L402.4 694.849L399.944 696.315L399.944 736.834L431.147 754.849L433.601 753.385L433.6 712.807Z" fill="#BBD4DA"/>
<path d="M399.944 736.834L399.944 696.315L431.132 714.297L431.147 754.849L399.944 736.834Z" fill="#E5EFF2"/>
<path d="M399.944 696.315L402.4 694.849L433.6 712.807L431.132 714.297L399.944 696.315Z" fill="#D6E5E9"/>
<path d="M403.852 703.073L427.238 716.575L427.238 748.092L403.877 734.604L403.852 703.073Z" fill="#008BBF"/>
<path d="M403.868 723.975L403.868 703.082L427.238 716.575L427.238 737.467L403.868 723.975Z" fill="#33C8FF"/>
<path d="M403.868 723.975L411.058 719.725L416.116 728.11L421.087 727.259L427.238 737.467L403.868 723.975Z" fill="#408E0D"/>
<path d="M423.471 722.783C423.471 725.523 421.805 726.782 419.75 725.596C417.695 724.409 416.029 721.226 416.029 718.486C416.029 715.746 417.695 714.487 419.75 715.674C421.805 716.86 423.471 720.043 423.471 722.783Z" fill="#FFCA00"/>
</g>
<g clip-path="url(#clip3_5_608)">
<path d="M563.023 613.701L542.881 602.168C542.088 601.71 541.197 601.774 540.508 602.181L540.507 602.181L537.185 604.16L537.185 604.16C536.334 604.492 535.681 605.307 535.681 606.35L535.681 645.106C535.681 647.136 536.765 649.012 538.523 650.028L558.665 661.531C559.389 661.949 560.196 661.928 560.856 661.61L560.866 661.633L564.673 659.391L564.673 659.391C565.366 658.997 565.863 658.259 565.863 657.348L565.863 618.622C565.863 616.592 564.781 614.717 563.023 613.701Z" fill="#9F9EAD"/>
<path d="M535.681 645.106L535.681 606.35C535.681 604.54 537.641 603.409 539.208 604.315L559.351 615.848C561.108 616.864 562.191 618.739 562.191 620.769L562.191 659.495C562.191 661.305 560.232 662.436 558.664 661.531L538.523 650.028C536.764 649.013 535.681 647.136 535.681 645.106Z" fill="#E3E3E3"/>
<path d="M538.202 607.635L558.818 619.353L558.818 654.327L538.202 642.316L538.202 607.635Z" fill="#00BAFF"/>
<path d="M541.923 611.889L543.823 612.986C544.523 613.39 544.955 614.137 544.955 614.946L544.955 618.02C544.955 618.72 544.198 619.157 543.592 618.807L541.694 617.711C540.994 617.307 540.563 616.561 540.562 615.753L540.56 612.676C540.559 611.977 541.317 611.539 541.923 611.889Z" fill="#FF3400"/>
<path d="M547.676 615.149L549.576 616.247C550.276 616.651 550.708 617.398 550.708 618.207L550.708 621.281C550.708 621.98 549.951 622.417 549.345 622.068L547.447 620.972C546.747 620.568 546.316 619.821 546.315 619.013L546.313 615.937C546.312 615.237 547.07 614.8 547.676 615.149Z" fill="#604EE8"/>
<path d="M553.428 618.41L555.329 619.507C556.029 619.911 556.46 620.659 556.46 621.467L556.46 624.541C556.46 625.241 555.703 625.678 555.098 625.328L553.2 624.232C552.5 623.828 552.069 623.082 552.068 622.274L552.066 619.197C552.065 618.498 552.822 618.06 553.428 618.41Z" fill="#009EFF"/>
<path d="M541.923 620.281L543.823 621.378C544.523 621.783 544.955 622.53 544.955 623.338L544.955 626.413C544.955 627.112 544.198 627.549 543.592 627.199L541.694 626.103C540.994 625.699 540.563 624.953 540.562 624.145L540.56 621.068C540.559 620.369 541.317 619.931 541.923 620.281Z" fill="#408E0D"/>
<path d="M547.672 623.597L549.581 624.7C550.285 625.106 550.718 625.857 550.718 626.669L550.718 629.758C550.718 630.46 549.957 630.9 549.349 630.548L547.442 629.447C546.739 629.041 546.305 628.291 546.305 627.48L546.302 624.389C546.302 623.686 547.063 623.246 547.672 623.597Z" fill="#FFCA00"/>
<path d="M553.452 626.873L555.361 627.976C556.065 628.382 556.498 629.132 556.498 629.945L556.498 633.034C556.498 633.736 555.737 634.175 555.129 633.824L553.222 632.723C552.519 632.317 552.085 631.567 552.085 630.756L552.082 627.664C552.082 626.961 552.843 626.522 553.452 626.873Z" fill="#FF6936"/>
<path d="M541.892 628.753L543.801 629.855C544.505 630.262 544.938 631.012 544.938 631.825L544.938 634.914C544.938 635.616 544.177 636.055 543.569 635.704L541.662 634.603C540.959 634.197 540.525 633.447 540.525 632.635L540.522 629.544C540.522 628.841 541.283 628.402 541.892 628.753Z" fill="#009EFF"/>
<path d="M547.672 632.029L549.581 633.132C550.285 633.538 550.718 634.288 550.718 635.101L550.718 638.19C550.718 638.892 549.957 639.332 549.349 638.98L547.442 637.879C546.739 637.473 546.305 636.723 546.305 635.912L546.302 632.82C546.302 632.117 547.063 631.678 547.672 632.029Z" fill="#FF3400"/>
<path d="M553.452 635.305L555.361 636.408C556.065 636.814 556.498 637.565 556.498 638.377L556.498 641.466C556.498 642.168 555.737 642.608 555.129 642.256L553.222 641.155C552.519 640.749 552.085 639.999 552.085 639.188L552.082 636.097C552.082 635.393 552.843 634.954 553.452 635.305Z" fill="#604EE8"/>
<path d="M541.892 637.185L543.801 638.287C544.505 638.694 544.938 639.444 544.938 640.257L544.938 643.345C544.938 644.048 544.177 644.487 543.569 644.136L541.662 643.035C540.959 642.629 540.525 641.879 540.525 641.067L540.522 637.976C540.522 637.273 541.283 636.833 541.892 637.185Z" fill="#FFCA00"/>
<path d="M547.672 640.461L549.581 641.563C550.285 641.97 550.718 642.72 550.718 643.533L550.718 646.621C550.718 647.324 549.957 647.763 549.349 647.412L547.442 646.311C546.739 645.905 546.305 645.155 546.305 644.343L546.302 641.252C546.302 640.549 547.063 640.11 547.672 640.461Z" fill="#408E0D"/>
<path d="M553.452 643.737L555.361 644.84C556.065 645.246 556.498 645.996 556.498 646.809L556.498 649.898C556.498 650.6 555.737 651.039 555.129 650.688L553.222 649.587C552.519 649.181 552.085 648.431 552.085 647.619L552.082 644.528C552.082 643.825 552.843 643.386 553.452 643.737Z" fill="#009EFF"/>
<path d="M549.54 652.797C549.54 654.083 548.758 654.674 547.794 654.117C546.829 653.56 546.048 652.067 546.048 650.781C546.048 649.495 546.829 648.904 547.794 649.461C548.758 650.017 549.54 651.511 549.54 652.797Z" fill="#D1D1D1"/>
<path opacity="0.1" d="M538.202 638.009L558.818 622.424L558.818 619.353L544.035 610.951L538.202 615.36L538.202 638.009Z" fill="white"/>
<path opacity="0.1" d="M558.818 646.555L558.818 630.877L541.299 644.121L553.012 650.944L558.818 646.555Z" fill="white"/>
</g>
<g clip-path="url(#clip4_5_608)">
<path d="M530.782 407.849L517.832 415.326L517.832 422.815L543.873 437.849L569.712 422.931L569.712 415.326L556.913 407.879L530.782 407.849Z" fill="#8475FF"/>
<path d="M543.873 377.849L569.712 392.884L569.712 400.489L543.873 415.407L517.832 400.372L517.832 392.884L543.873 377.849Z" fill="#FF9134"/>
<path d="M543.873 377.849L517.832 392.884L543.873 407.919L569.712 392.884L543.873 377.849Z" fill="#FF6936"/>
<path d="M543.873 430.361L543.873 437.849L569.712 422.931L569.712 415.326L543.873 430.361Z" fill="#30469A"/>
<path d="M543.873 415.407L530.782 407.849L517.832 415.326L543.873 430.361L569.712 415.326L556.913 407.879L543.873 415.407Z" fill="#604EE8"/>
<path d="M543.873 407.919L543.873 415.407L569.712 400.489L569.712 392.884L543.873 407.919Z" fill="#FF4404"/>
<path d="M517.832 392.884L543.873 407.919L543.873 415.407L517.832 400.373L517.832 392.884Z" fill="#FF9134"/>
</g>
<g clip-path="url(#clip5_5_608)">
<path d="M70.5449 136.845L39.2774 118.849L36.9993 120.19L36.9993 160.796L68.2694 178.849L70.5452 177.511L70.5449 136.845Z" fill="#BBD4DA"/>
<path d="M36.9992 160.796L36.9992 120.19L68.2542 138.21L68.2693 178.849L36.9992 160.796Z" fill="#E5EFF2"/>
<path d="M36.9993 120.19L39.2774 118.849L70.5449 136.845L68.2543 138.21L36.9993 120.19Z" fill="#D6E5E9"/>
<path d="M39.0661 137.366L50.7839 144.131L50.7839 160.003L39.0783 153.245L39.0661 137.366Z" fill="#BBD4DA"/>
<path d="M68.2693 149.52L36.9992 131.499L36.9992 120.19L68.2693 138.21L68.2693 149.52Z" fill="#604EE8"/>
<path d="M63.4155 142.675L41.853 129.896L41.853 127.034L63.4155 139.813L63.4155 142.675Z" fill="white"/>
<path d="M64.1584 153.858L52.6345 147.241L52.6345 145.181L64.1584 151.798L64.1584 153.858Z" fill="#969698"/>
<path d="M64.1584 158.365L52.6345 151.748L52.6345 149.688L64.1584 156.305L64.1584 158.365Z" fill="#969698"/>
<path d="M64.1584 162.893L52.6345 156.276L52.6345 154.216L64.1584 160.833L64.1584 162.893Z" fill="#969698"/>
<path d="M64.1584 167.399L52.6345 160.782L52.6345 158.722L64.1584 165.339L64.1584 167.399Z" fill="#969698"/>
<path d="M64.1584 172.041L39.0663 157.557L39.0663 155.497L64.1584 169.981L64.1584 172.041Z" fill="#969698"/>
</g>
<g clip-path="url(#clip6_5_608)">
<path d="M63.2725 348.172C42.4504 348.172 33.8039 375.276 51.0186 386.874L51.0186 400.02C51.0186 402.82 53.5641 404.684 55.8743 405.704C56.6123 411.231 69.9326 411.231 70.6706 405.704C72.9837 404.682 75.5263 402.738 75.5263 400.02L75.5263 386.874C92.6837 375.314 84.1671 348.172 63.2725 348.172Z" fill="#518282"/>
<path d="M51.0186 388.397L51.0186 400.019C51.0186 403.958 56.5049 407.151 63.2725 407.151C70.0401 407.151 75.5264 403.958 75.5264 400.019L75.5264 388.397L51.0186 388.397Z" fill="#518282"/>
<path d="M63.2723 403.275C56.5047 403.275 51.0184 400.082 51.0184 396.144L51.0184 400.02C51.0184 403.958 56.5047 407.151 63.2723 407.151C70.0398 407.151 75.5261 403.958 75.5261 400.02L75.5261 396.144C75.5261 400.082 70.0398 403.275 63.2723 403.275Z" fill="#749B9B"/>
<path d="M63.2723 395.529C56.5047 395.529 51.0184 392.336 51.0184 388.397L51.0184 392.273C51.0184 396.212 56.5047 399.405 63.2723 399.405C70.0398 399.405 75.5261 396.212 75.5261 392.273L75.5261 388.397C75.5261 392.336 70.0398 395.529 63.2723 395.529Z" fill="#749B9B"/>
<path d="M84.9932 369.225C84.9932 357.42 75.2684 347.849 63.2723 347.849C51.2762 347.849 41.5515 357.42 41.5515 369.225C41.5515 376.557 45.3032 383.023 51.0184 386.874L51.0184 388.397C51.0184 392.336 56.5047 395.529 63.2723 395.529C70.0399 395.529 75.5262 392.336 75.5262 388.397L75.5262 386.874C81.2415 383.023 84.9932 376.557 84.9932 369.225Z" fill="#FFCA00"/>
<path opacity="0.3" d="M63.2724 395.529C56.5045 395.529 51.0181 392.336 51.0181 388.397C51.0181 384.459 56.5045 381.266 63.2724 381.266C70.0402 381.266 75.5266 384.459 75.5266 388.397C75.5266 392.336 70.0402 395.529 63.2724 395.529Z" fill="white"/>
<path d="M71.4832 376.681C70.1693 376.255 68.7945 375.761 67.5783 374.948C66.9092 374.737 66.5105 374.972 66.3822 375.652L66.3822 377.064L66.3632 377.054C65.8675 376.781 65.5595 376.264 65.5595 375.705L65.5595 372.945C65.5595 371.826 64.9477 370.783 63.9628 370.223L63.8624 370.166C62.5677 369.725 61.7909 370.166 61.532 371.49L61.532 374.349L61.5116 374.338C61.0058 374.067 60.6914 373.547 60.6914 372.98L60.6914 370.209C60.6914 368.078 56.8061 365.801 56.8061 368.836L56.8061 368.913L54.9734 367.902L54.9234 367.7C54.5781 366.305 52.3851 366.831 52.7308 368.226L57.0941 385.847C57.4866 387.433 59.5995 386.583 59.2868 385.321L55.4987 370.023L57.2206 370.974C57.894 371.196 58.2969 370.964 58.4292 370.277L58.4292 368.965C59.3648 369.64 59.2387 372.04 59.0682 372.981C59.0682 374.133 59.7073 375.191 60.7359 375.741L60.8592 375.807C62.1421 376.217 62.9075 375.769 63.155 374.464L63.155 371.609C63.6369 371.885 63.9361 372.396 63.9361 372.945L63.9361 375.705C63.9361 376.842 64.5624 377.893 65.5708 378.448C66.5467 378.895 68.0052 378.715 68.0052 377.181L68.0052 376.988L69.8628 377.972L65.8453 389.974C65.4256 391.228 67.4792 392.193 67.9888 390.669L72.2017 378.083C72.397 377.501 72.0752 376.873 71.4832 376.681C71.2615 376.609 72.0752 376.873 71.4832 376.681Z" fill="#CAA414"/>
<path opacity="0.3" d="M56.6673 371.689C51.4238 371.689 47.173 367.506 47.173 362.346C47.173 357.185 51.4238 353.002 56.6673 353.002C61.9109 353.002 66.1616 357.185 66.1616 362.346C66.1616 367.506 61.9109 371.689 56.6673 371.689Z" fill="white"/>
</g>
<g clip-path="url(#clip7_5_608)">
<path d="M170.905 42.2969C167.009 44.4462 164.588 49.1898 164.588 55.9785C164.588 69.3023 173.911 85.4512 185.413 92.048C191.145 95.3358 196.336 95.6299 200.101 93.4488C200.089 93.4558 200.078 93.4634 200.066 93.4703L210.784 87.3223C214.595 85.1362 216.956 80.4246 216.956 73.7198C216.956 60.396 207.633 44.2471 196.131 37.6503C190.418 34.3731 185.242 34.07 181.479 36.2281L170.76 42.3761C170.808 42.3487 170.857 42.3235 170.905 42.2969Z" fill="#FEDA44"/>
<path d="M170.76 42.3761L181.479 36.2281C185.242 34.07 190.418 34.3731 196.132 37.6504C207.633 44.2475 216.957 60.3961 216.957 73.7201C216.957 80.4249 214.596 85.1366 210.784 87.3227L200.066 93.4707C203.877 91.2847 206.238 86.573 206.238 79.8682C206.238 66.5444 196.915 50.3955 185.413 43.7986C179.699 40.5211 174.523 40.218 170.76 42.3761Z" fill="#EEBF00"/>
<path d="M164.588 55.9786C164.588 42.6547 173.911 37.2015 185.413 43.7985C196.914 50.3953 206.238 66.5442 206.238 79.8681C206.238 93.1919 196.915 98.6451 185.413 92.0482C173.912 85.4512 164.588 69.3024 164.588 55.9786Z" fill="#FEDA44"/>
<path d="M198.327 60.357C201.963 66.6538 203.82 73.4257 203.556 79.4249C203.326 84.6489 201.431 88.6659 198.357 90.4463C195.268 92.235 191.008 91.8988 186.361 89.4991C181.056 86.7593 176.133 81.784 172.499 75.49C168.864 69.193 167.007 62.4213 167.27 56.422C167.5 51.1981 169.395 47.181 172.469 45.4008C175.559 43.612 179.819 43.9482 184.465 46.3478C189.77 49.0877 194.693 54.0628 198.327 60.357ZM173.046 75.1741C176.62 81.3648 181.452 86.2529 186.651 88.9381C191.099 91.2353 195.144 91.5769 198.04 89.8997C200.925 88.2295 202.705 84.4016 202.925 79.3972C203.183 73.5166 201.356 66.8668 197.78 60.6728C194.206 54.4821 189.374 49.5941 184.175 46.9089C179.727 44.6118 175.682 44.2703 172.786 45.9473C169.902 47.6174 168.121 51.4453 167.901 56.4498C167.643 62.3304 169.47 68.9802 173.046 75.1741Z" fill="#EEBF00"/>
<path d="M200.125 42.2379L190.743 47.6544C190.956 47.8417 191.167 48.0322 191.377 48.2255L202.069 42.0526C201.859 41.8596 201.647 41.669 201.434 41.4819L200.125 42.2379Z" fill="#FECE00"/>
<path d="M209.732 51.3068C209.587 51.0779 209.439 50.8507 209.29 50.6245L198.591 56.8017C198.74 57.0281 198.887 57.2552 199.032 57.4842L209.732 51.3068Z" fill="#FECE00"/>
<path d="M190.18 35.2384C189.768 35.1439 189.36 35.066 188.959 35.0063L178.297 41.162C178.696 41.2228 179.102 41.3027 179.512 41.3979L190.18 35.2384Z" fill="#FECE00"/>
<path d="M185.494 43.8461C185.76 44.0002 186.025 44.1601 186.289 44.3241L196.974 38.1553C196.71 37.9914 196.445 37.8315 196.178 37.6777L185.494 43.8461Z" fill="#FECE00"/>
<path d="M195.019 52.0247C195.197 52.2336 195.372 52.4446 195.547 52.6575L206.243 46.4821C206.069 46.2694 205.893 46.0583 205.715 45.8496L195.019 52.0247Z" fill="#FECE00"/>
<path d="M203.901 67.4148C203.993 67.6747 204.084 67.9349 204.172 68.1954L214.879 62.0137C214.791 61.7534 214.7 61.4932 214.607 61.2334L203.901 67.4148Z" fill="#FECE00"/>
<path d="M201.551 61.9321C201.673 62.1747 201.792 62.4182 201.91 62.6623L212.613 56.4826C212.495 56.2385 212.376 55.9951 212.254 55.7527L201.551 61.9321Z" fill="#FECE00"/>
<path d="M215.251 82.3166C215.439 81.9212 215.612 81.5082 215.771 81.0789L205.033 87.2783C204.872 87.7097 204.696 88.1239 204.505 88.5207L215.251 82.3166Z" fill="#FECE00"/>
<path d="M205.549 73.302C205.606 73.5839 205.66 73.8655 205.71 74.1465L216.423 67.9617C216.372 67.6808 216.318 67.3995 216.26 67.1179L205.549 73.302Z" fill="#FECE00"/>
<path d="M206.224 80.6888L216.944 74.4995C216.952 74.2425 216.957 73.9834 216.957 73.7201C216.957 73.6656 216.955 73.6106 216.955 73.5562L206.237 79.7444C206.237 79.7855 206.238 79.827 206.238 79.8681C206.238 80.1455 206.232 80.4183 206.224 80.6888Z" fill="#FECE00"/>
</g>
<defs>
<filter id="filter0_d_5_608" x="367.992" y="657.642" width="102.459" height="125.51" filterUnits="userSpaceOnUse" color-interpolation-filters="sRGB">
<feFlood flood-opacity="0" result="BackgroundImageFix"/>
<feColorMatrix in="SourceAlpha" type="matrix" values="0 0 0 0 0 0 0 0 0 0 0 0 0 0 0 0 0 0 127 0" result="hardAlpha"/>
<feOffset dx="5" dy="-5"/>
<feComposite in2="hardAlpha" operator="out"/>
<feColorMatrix type="matrix" values="0 0 0 0 0.15 0 0 0 0 0.15 0 0 0 0 0.15 0 0 0 1 0"/>
<feBlend mode="normal" in2="BackgroundImageFix" result="effect1_dropShadow_5_608"/>
<feBlend mode="normal" in="SourceGraphic" in2="effect1_dropShadow_5_608" result="shape"/>
</filter>
<filter id="filter1_d_5_608" x="164.797" y="550.884" width="102.459" height="125.51" filterUnits="userSpaceOnUse" color-interpolation-filters="sRGB">
<feFlood flood-opacity="0" result="BackgroundImageFix"/>
<feColorMatrix in="SourceAlpha" type="matrix" values="0 0 0 0 0 0 0 0 0 0 0 0 0 0 0 0 0 0 127 0" result="hardAlpha"/>
<feOffset dx="5" dy="-5"/>
<feComposite in2="hardAlpha" operator="out"/>
<feColorMatrix type="matrix" values="0 0 0 0 0.15 0 0 0 0 0.15 0 0 0 0 0.15 0 0 0 1 0"/>
<feBlend mode="normal" in2="BackgroundImageFix" result="effect1_dropShadow_5_608"/>
<feBlend mode="normal" in="SourceGraphic" in2="effect1_dropShadow_5_608" result="shape"/>
</filter>
<filter id="filter2_d_5_608" x="14.4766" y="314.573" width="102.459" height="125.51" filterUnits="userSpaceOnUse" color-interpolation-filters="sRGB">
<feFlood flood-opacity="0" result="BackgroundImageFix"/>
<feColorMatrix in="SourceAlpha" type="matrix" values="0 0 0 0 0 0 0 0 0 0 0 0 0 0 0 0 0 0 127 0" result="hardAlpha"/>
<feOffset dx="5" dy="-5"/>
<feComposite in2="hardAlpha" operator="out"/>
<feColorMatrix type="matrix" values="0 0 0 0 0.15 0 0 0 0 0.15 0 0 0 0 0.15 0 0 0 1 0"/>
<feBlend mode="normal" in2="BackgroundImageFix" result="effect1_dropShadow_5_608"/>
<feBlend mode="normal" in="SourceGraphic" in2="effect1_dropShadow_5_608" result="shape"/>
</filter>
<filter id="filter3_d_5_608" x="5.17188" y="86.5784" width="102.459" height="125.51" filterUnits="userSpaceOnUse" color-interpolation-filters="sRGB">
<feFlood flood-opacity="0" result="BackgroundImageFix"/>
<feColorMatrix in="SourceAlpha" type="matrix" values="0 0 0 0 0 0 0 0 0 0 0 0 0 0 0 0 0 0 127 0" result="hardAlpha"/>
<feOffset dx="5" dy="-5"/>
<feComposite in2="hardAlpha" operator="out"/>
<feColorMatrix type="matrix" values="0 0 0 0 0.15 0 0 0 0 0.15 0 0 0 0 0.15 0 0 0 1 0"/>
<feBlend mode="normal" in2="BackgroundImageFix" result="effect1_dropShadow_5_608"/>
<feBlend mode="normal" in="SourceGraphic" in2="effect1_dropShadow_5_608" result="shape"/>
</filter>
<filter id="filter4_d_5_608" x="346.138" y="107.778" width="102.465" height="125.51" filterUnits="userSpaceOnUse" color-interpolation-filters="sRGB">
<feFlood flood-opacity="0" result="BackgroundImageFix"/>
<feColorMatrix in="SourceAlpha" type="matrix" values="0 0 0 0 0 0 0 0 0 0 0 0 0 0 0 0 0 0 127 0" result="hardAlpha"/>
<feOffset dx="5" dy="-5"/>
<feComposite in2="hardAlpha" operator="out"/>
<feColorMatrix type="matrix" values="0 0 0 0 0.15 0 0 0 0 0.15 0 0 0 0 0.15 0 0 0 1 0"/>
<feBlend mode="normal" in2="BackgroundImageFix" result="effect1_dropShadow_5_608"/>
<feBlend mode="normal" in="SourceGraphic" in2="effect1_dropShadow_5_608" result="shape"/>
</filter>
<filter id="filter5_d_5_608" x="495.721" y="341.727" width="102.745" height="125.834" filterUnits="userSpaceOnUse" color-interpolation-filters="sRGB">
<feFlood flood-opacity="0" result="BackgroundImageFix"/>
<feColorMatrix in="SourceAlpha" type="matrix" values="0 0 0 0 0 0 0 0 0 0 0 0 0 0 0 0 0 0 127 0" result="hardAlpha"/>
<feOffset dx="5" dy="-5"/>
<feComposite in2="hardAlpha" operator="out"/>
<feColorMatrix type="matrix" values="0 0 0 0 0.15 0 0 0 0 0.15 0 0 0 0 0.15 0 0 0 1 0"/>
<feBlend mode="normal" in2="BackgroundImageFix" result="effect1_dropShadow_5_608"/>
<feBlend mode="normal" in="SourceGraphic" in2="effect1_dropShadow_5_608" result="shape"/>
</filter>
<filter id="filter6_d_5_608" x="505.364" y="572.421" width="102.476" height="125.484" filterUnits="userSpaceOnUse" color-interpolation-filters="sRGB">
<feFlood flood-opacity="0" result="BackgroundImageFix"/>
<feColorMatrix in="SourceAlpha" type="matrix" values="0 0 0 0 0 0 0 0 0 0 0 0 0 0 0 0 0 0 127 0" result="hardAlpha"/>
<feOffset dx="5" dy="-5"/>
<feComposite in2="hardAlpha" operator="out"/>
<feColorMatrix type="matrix" values="0 0 0 0 0.15 0 0 0 0 0.15 0 0 0 0 0.15 0 0 0 1 0"/>
<feBlend mode="normal" in2="BackgroundImageFix" result="effect1_dropShadow_5_608"/>
<feBlend mode="normal" in="SourceGraphic" in2="effect1_dropShadow_5_608" result="shape"/>
</filter>
<filter id="filter7_d_5_608" x="142.552" y="1.76416" width="103.465" height="124.51" filterUnits="userSpaceOnUse" color-interpolation-filters="sRGB">
<feFlood flood-opacity="0" result="BackgroundImageFix"/>
<feColorMatrix in="SourceAlpha" type="matrix" values="0 0 0 0 0 0 0 0 0 0 0 0 0 0 0 0 0 0 127 0" result="hardAlpha"/>
<feOffset dx="6" dy="-4"/>
<feComposite in2="hardAlpha" operator="out"/>
<feColorMatrix type="matrix" values="0 0 0 0 0.15 0 0 0 0 0.15 0 0 0 0 0.15 0 0 0 1 0"/>
<feBlend mode="normal" in2="BackgroundImageFix" result="effect1_dropShadow_5_608"/>
<feBlend mode="normal" in="SourceGraphic" in2="effect1_dropShadow_5_608" result="shape"/>
</filter>
<filter id="filter8_d_5_608" x="140.714" y="179.427" width="341.628" height="420.435" filterUnits="userSpaceOnUse" color-interpolation-filters="sRGB">
<feFlood flood-opacity="0" result="BackgroundImageFix"/>
<feColorMatrix in="SourceAlpha" type="matrix" values="0 0 0 0 0 0 0 0 0 0 0 0 0 0 0 0 0 0 127 0" result="hardAlpha"/>
<feOffset dx="15" dy="-10"/>
<feComposite in2="hardAlpha" operator="out"/>
<feColorMatrix type="matrix" values="0 0 0 0 0.15 0 0 0 0 0.15 0 0 0 0 0.15 0 0 0 1 0"/>
<feBlend mode="normal" in2="BackgroundImageFix" result="effect1_dropShadow_5_608"/>
<feBlend mode="normal" in="SourceGraphic" in2="effect1_dropShadow_5_608" result="shape"/>
</filter>
<clipPath id="clip0_5_608">
<rect width="60" height="60" fill="white" transform="translate(363.772 143.849)"/>
</clipPath>
<clipPath id="clip1_5_608">
<rect width="60" height="60" fill="white" transform="matrix(-1 -9.80199e-09 -2.56835e-09 1 241.772 585.849)"/>
</clipPath>
<clipPath id="clip2_5_608">
<rect width="60" height="60" fill="white" transform="matrix(-1 -9.80199e-09 -2.56835e-09 1 446.772 694.849)"/>
</clipPath>
<clipPath id="clip3_5_608">
<rect width="60" height="60" fill="white" transform="matrix(-1 -9.80199e-09 -2.56835e-09 1 580.772 601.849)"/>
</clipPath>
<clipPath id="clip4_5_608">
<rect width="60" height="60" fill="white" transform="matrix(-1 -9.80199e-09 -2.56835e-09 1 573.772 377.849)"/>
</clipPath>
<clipPath id="clip5_5_608">
<rect width="60" height="60" fill="white" transform="matrix(-1 -9.80199e-09 -2.56835e-09 1 83.7722 118.849)"/>
</clipPath>
<clipPath id="clip6_5_608">
<rect width="63" height="62" fill="white" transform="matrix(-1 -9.80199e-09 -2.56835e-09 1 94.7722 347.849)"/>
</clipPath>
<clipPath id="clip7_5_608">
<rect width="60" height="60" fill="white" transform="translate(160.772 34.8494)"/>
</clipPath>
</defs>
</svg>
