<svg width="32" height="33" viewBox="0 0 32 33" fill="none" xmlns="http://www.w3.org/2000/svg">
<path d="M16.0001 11.9406C13.7064 11.9406 11.8345 13.8124 11.8345 16.1062C11.8345 18.3999 13.7064 20.2718 16.0001 20.2718C18.2939 20.2718 20.1658 18.3999 20.1658 16.1062C20.1658 13.8124 18.2939 11.9406 16.0001 11.9406ZM28.4939 16.1062C28.4939 14.3812 28.5095 12.6718 28.4126 10.9499C28.3158 8.94993 27.8595 7.17493 26.397 5.71243C24.9314 4.2468 23.1595 3.79368 21.1595 3.6968C19.4345 3.59993 17.7251 3.61555 16.0033 3.61555C14.2783 3.61555 12.5689 3.59993 10.847 3.6968C8.84702 3.79368 7.07202 4.24993 5.60952 5.71243C4.1439 7.17805 3.69077 8.94993 3.5939 10.9499C3.49702 12.6749 3.51265 14.3843 3.51265 16.1062C3.51265 17.8281 3.49702 19.5406 3.5939 21.2624C3.69077 23.2624 4.14702 25.0374 5.60952 26.4999C7.07515 27.9656 8.84702 28.4187 10.847 28.5156C12.572 28.6124 14.2814 28.5968 16.0033 28.5968C17.7283 28.5968 19.4376 28.6124 21.1595 28.5156C23.1595 28.4187 24.9345 27.9624 26.397 26.4999C27.8626 25.0343 28.3158 23.2624 28.4126 21.2624C28.5126 19.5406 28.4939 17.8312 28.4939 16.1062V16.1062ZM16.0001 22.5156C12.4533 22.5156 9.59077 19.6531 9.59077 16.1062C9.59077 12.5593 12.4533 9.6968 16.0001 9.6968C19.547 9.6968 22.4095 12.5593 22.4095 16.1062C22.4095 19.6531 19.547 22.5156 16.0001 22.5156ZM22.672 10.9312C21.8439 10.9312 21.1751 10.2624 21.1751 9.4343C21.1751 8.60618 21.8439 7.93743 22.672 7.93743C23.5001 7.93743 24.1689 8.60618 24.1689 9.4343C24.1691 9.63095 24.1306 9.8257 24.0555 10.0074C23.9803 10.1891 23.8701 10.3543 23.731 10.4933C23.592 10.6324 23.4269 10.7426 23.2451 10.8177C23.0634 10.8929 22.8687 10.9314 22.672 10.9312V10.9312Z" fill="#7A18D5"/>
</svg>
