<svg width="32" height="33" viewBox="0 0 32 33" fill="none" xmlns="http://www.w3.org/2000/svg">
<path d="M8.14433 30.3278H2.24719V11.3374H8.14433V30.3278ZM5.19258 8.74689C3.30687 8.74689 1.77734 7.18499 1.77734 5.29927C1.77734 4.39349 2.13716 3.52481 2.77764 2.88433C3.41813 2.24385 4.2868 1.88403 5.19258 1.88403C6.09836 1.88403 6.96704 2.24385 7.60752 2.88433C8.248 3.52481 8.60782 4.39349 8.60782 5.29927C8.60782 7.18499 7.07766 8.74689 5.19258 8.74689ZM30.2154 30.3278H24.331V21.0834C24.331 18.8802 24.2866 16.0548 21.265 16.0548C18.1989 16.0548 17.7291 18.4485 17.7291 20.9247V30.3278H11.8383V11.3374H17.4942V13.9278H17.5767C18.364 12.4358 20.2872 10.8612 23.1564 10.8612C29.1246 10.8612 30.2218 14.7913 30.2218 19.8961V30.3278H30.2154Z" fill="#7A18D5"/>
</svg>
