<svg width="32" height="32" viewBox="0 0 32 32" fill="none" xmlns="http://www.w3.org/2000/svg">
<path d="M21.7097 10C20.7742 4.41875 18.5677 0.5 16 0.5C13.4323 0.5 11.2258 4.41875 10.2903 10H21.7097ZM9.80645 16C9.80645 17.3875 9.88387 18.7188 10.0194 20H21.9742C22.1097 18.7188 22.1871 17.3875 22.1871 16C22.1871 14.6125 22.1097 13.2812 21.9742 12H10.0194C9.88387 13.2812 9.80645 14.6125 9.80645 16ZM30.7548 10C28.9097 5.75625 25.1742 2.475 20.5613 1.15C22.1355 3.2625 23.2194 6.44375 23.7871 10H30.7548ZM11.4323 1.15C6.82581 2.475 3.08387 5.75625 1.24516 10H8.2129C8.77419 6.44375 9.85806 3.2625 11.4323 1.15V1.15ZM31.4452 12H24.0452C24.1806 13.3125 24.2581 14.6562 24.2581 16C24.2581 17.3438 24.1806 18.6875 24.0452 20H31.4387C31.7935 18.7188 31.9935 17.3875 31.9935 16C31.9935 14.6125 31.7935 13.2812 31.4452 12ZM7.74194 16C7.74194 14.6562 7.81935 13.3125 7.95484 12H0.554839C0.206452 13.2812 0 14.6125 0 16C0 17.3875 0.206452 18.7188 0.554839 20H7.94839C7.81935 18.6875 7.74194 17.3438 7.74194 16V16ZM10.2903 22C11.2258 27.5813 13.4323 31.5 16 31.5C18.5677 31.5 20.7742 27.5813 21.7097 22H10.2903ZM20.5677 30.85C25.1742 29.525 28.9161 26.2438 30.7613 22H23.7935C23.2258 25.5563 22.1419 28.7375 20.5677 30.85ZM1.24516 22C3.09032 26.2438 6.82581 29.525 11.4387 30.85C9.86452 28.7375 8.78065 25.5563 8.2129 22H1.24516V22Z" fill="#7A18D5"/>
</svg>
