<svg width="32" height="33" viewBox="0 0 32 33" fill="none" xmlns="http://www.w3.org/2000/svg">
<path d="M31.5247 6.68889C30.4113 7.18222 29.2153 7.51556 27.958 7.66622C29.2553 6.88995 30.2259 5.66818 30.6887 4.22889C29.4698 4.95288 28.1358 5.46248 26.7447 5.73556C25.8092 4.73671 24.5701 4.07466 23.2198 3.85219C21.8695 3.62972 20.4835 3.85928 19.277 4.50523C18.0705 5.15117 17.111 6.17737 16.5475 7.42449C15.984 8.67162 15.848 10.0699 16.1607 11.4022C13.6909 11.2782 11.2748 10.6363 9.06923 9.5181C6.86363 8.3999 4.91779 6.83044 3.358 4.91156C2.82467 5.83156 2.518 6.89822 2.518 8.03422C2.51741 9.05688 2.76924 10.0639 3.25117 10.9659C3.7331 11.8679 4.43022 12.6369 5.28067 13.2049C4.29437 13.1735 3.32983 12.907 2.46733 12.4276V12.5076C2.46723 13.9419 2.96338 15.3321 3.87158 16.4422C4.77978 17.5524 6.0441 18.3141 7.45 18.5982C6.53504 18.8458 5.57578 18.8823 4.64467 18.7049C5.04133 19.939 5.81399 21.0183 6.85449 21.7915C7.89499 22.5647 9.15122 22.9931 10.4473 23.0169C8.24711 24.7441 5.52985 25.681 2.73267 25.6769C2.23717 25.677 1.7421 25.6481 1.25 25.5902C4.0893 27.4158 7.39445 28.3846 10.77 28.3809C22.1967 28.3809 28.4433 18.9169 28.4433 10.7089C28.4433 10.4422 28.4367 10.1729 28.4247 9.90622C29.6397 9.02752 30.6885 7.93942 31.522 6.69289L31.5247 6.68889V6.68889Z" fill="#7A18D5"/>
</svg>
