<svg width="32" height="32" viewBox="0 0 32 32" fill="none" xmlns="http://www.w3.org/2000/svg">
<path d="M31.3262 8.27127C31.1404 7.60701 30.7862 7.00198 30.2979 6.51476C29.8097 6.02755 29.2039 5.67466 28.5392 5.49027C26.0442 4.82327 16.0142 4.82327 16.0142 4.82327C16.0142 4.82327 6.00322 4.80727 3.48222 5.49027C2.81862 5.67547 2.21402 6.02873 1.72685 6.5159C1.23968 7.00307 0.886424 7.60767 0.701224 8.27127C0.227424 10.8255 -0.00593012 13.4185 0.00422383 16.0163C-0.00039926 18.6016 0.232918 21.1818 0.701224 23.7243C0.887023 24.3882 1.24038 24.9933 1.72738 25.4813C2.21438 25.9694 2.81867 26.324 3.48222 26.5113C5.97722 27.1783 16.0142 27.1783 16.0142 27.1783C16.0142 27.1783 26.0192 27.1783 28.5392 26.5113C29.2038 26.3249 29.8093 25.9706 30.2974 25.4825C30.7855 24.9944 31.1398 24.3889 31.3262 23.7243C31.7852 21.1833 32.0092 18.5993 31.9932 16.0163C32.0092 13.4163 31.7902 10.8283 31.3262 8.27127V8.27127ZM12.8102 20.8033V11.2083L21.1592 16.0163L12.8102 20.8033Z" fill="#7A18D5"/>
</svg>
