<svg width="970" height="72" viewBox="0 0 970 72" fill="none" xmlns="http://www.w3.org/2000/svg">
<mask id="path-1-outside-1_226_507" maskUnits="userSpaceOnUse" x="-0.594727" y="0.360107" width="971" height="71" fill="black">
<rect fill="white" x="-0.594727" y="0.360107" width="971" height="71"/>
<path d="M4.44527 69.0001V59.0251L30.0953 34.8001C32.1219 32.9634 33.6103 31.3168 34.5603 29.8601C35.5103 28.4034 36.1436 27.0734 36.4603 25.8701C36.8403 24.6668 37.0303 23.5584 37.0303 22.5451C37.0303 19.8851 36.1119 17.8584 34.2753 16.4651C32.5019 15.0084 29.8736 14.2801 26.3903 14.2801C23.6036 14.2801 21.0069 14.8184 18.6003 15.8951C16.2569 16.9718 14.2619 18.6501 12.6153 20.9301L1.40527 13.7101C3.93861 9.91011 7.48527 6.90177 12.0453 4.6851C16.6053 2.46844 21.8619 1.36011 27.8153 1.36011C32.7553 1.36011 37.0619 2.18344 40.7353 3.8301C44.4719 5.41344 47.3536 7.66177 49.3803 10.5751C51.4703 13.4884 52.5153 16.9718 52.5153 21.0251C52.5153 23.1784 52.2303 25.3318 51.6603 27.4851C51.1536 29.5751 50.0769 31.7918 48.4303 34.1351C46.8469 36.4784 44.5036 39.1068 41.4003 42.0201L20.1203 62.0651L17.1753 56.4601H54.7003V69.0001H4.44527ZM89.5504 70.1401C84.1038 70.1401 79.2271 68.8101 74.9204 66.1501C70.6138 63.4268 67.2254 59.5001 64.7554 54.3701C62.2854 49.2401 61.0504 43.0334 61.0504 35.7501C61.0504 28.4668 62.2854 22.2601 64.7554 17.1301C67.2254 12.0001 70.6138 8.10511 74.9204 5.44511C79.2271 2.72177 84.1038 1.36011 89.5504 1.36011C95.0604 1.36011 99.9371 2.72177 104.18 5.44511C108.487 8.10511 111.875 12.0001 114.345 17.1301C116.815 22.2601 118.05 28.4668 118.05 35.7501C118.05 43.0334 116.815 49.2401 114.345 54.3701C111.875 59.5001 108.487 63.4268 104.18 66.1501C99.9371 68.8101 95.0604 70.1401 89.5504 70.1401ZM89.5504 57.1251C92.1471 57.1251 94.3954 56.3968 96.2954 54.9401C98.2588 53.4834 99.7788 51.1718 100.855 48.0051C101.995 44.8384 102.565 40.7534 102.565 35.7501C102.565 30.7468 101.995 26.6618 100.855 23.4951C99.7788 20.3284 98.2588 18.0168 96.2954 16.5601C94.3954 15.1034 92.1471 14.3751 89.5504 14.3751C87.0171 14.3751 84.7688 15.1034 82.8054 16.5601C80.9054 18.0168 79.3854 20.3284 78.2454 23.4951C77.1688 26.6618 76.6304 30.7468 76.6304 35.7501C76.6304 40.7534 77.1688 44.8384 78.2454 48.0051C79.3854 51.1718 80.9054 53.4834 82.8054 54.9401C84.7688 56.3968 87.0171 57.1251 89.5504 57.1251ZM124.587 69.0001V59.0251L150.237 34.8001C152.264 32.9634 153.752 31.3168 154.702 29.8601C155.652 28.4034 156.285 27.0734 156.602 25.8701C156.982 24.6668 157.172 23.5584 157.172 22.5451C157.172 19.8851 156.254 17.8584 154.417 16.4651C152.644 15.0084 150.015 14.2801 146.532 14.2801C143.745 14.2801 141.149 14.8184 138.742 15.8951C136.399 16.9718 134.404 18.6501 132.757 20.9301L121.547 13.7101C124.08 9.91011 127.627 6.90177 132.187 4.6851C136.747 2.46844 142.004 1.36011 147.957 1.36011C152.897 1.36011 157.204 2.18344 160.877 3.8301C164.614 5.41344 167.495 7.66177 169.522 10.5751C171.612 13.4884 172.657 16.9718 172.657 21.0251C172.657 23.1784 172.372 25.3318 171.802 27.4851C171.295 29.5751 170.219 31.7918 168.572 34.1351C166.989 36.4784 164.645 39.1068 161.542 42.0201L140.262 62.0651L137.317 56.4601H174.842V69.0001H124.587ZM191.452 69.0001V8.2001L198.102 14.8501H178.152V2.5001H206.842V69.0001H191.452Z"/>
<path d="M258.445 69.0001V59.0251L284.095 34.8001C286.122 32.9634 287.61 31.3168 288.56 29.8601C289.51 28.4034 290.144 27.0734 290.46 25.8701C290.84 24.6668 291.03 23.5584 291.03 22.5451C291.03 19.8851 290.112 17.8584 288.275 16.4651C286.502 15.0084 283.874 14.2801 280.39 14.2801C277.604 14.2801 275.007 14.8184 272.6 15.8951C270.257 16.9718 268.262 18.6501 266.615 20.9301L255.405 13.7101C257.939 9.91011 261.485 6.90177 266.045 4.6851C270.605 2.46844 275.862 1.36011 281.815 1.36011C286.755 1.36011 291.062 2.18344 294.735 3.8301C298.472 5.41344 301.354 7.66177 303.38 10.5751C305.47 13.4884 306.515 16.9718 306.515 21.0251C306.515 23.1784 306.23 25.3318 305.66 27.4851C305.154 29.5751 304.077 31.7918 302.43 34.1351C300.847 36.4784 298.504 39.1068 295.4 42.0201L274.12 62.0651L271.175 56.4601H308.7V69.0001H258.445ZM343.55 70.1401C338.104 70.1401 333.227 68.8101 328.92 66.1501C324.614 63.4268 321.225 59.5001 318.755 54.3701C316.285 49.2401 315.05 43.0334 315.05 35.7501C315.05 28.4668 316.285 22.2601 318.755 17.1301C321.225 12.0001 324.614 8.10511 328.92 5.44511C333.227 2.72177 338.104 1.36011 343.55 1.36011C349.06 1.36011 353.937 2.72177 358.18 5.44511C362.487 8.10511 365.875 12.0001 368.345 17.1301C370.815 22.2601 372.05 28.4668 372.05 35.7501C372.05 43.0334 370.815 49.2401 368.345 54.3701C365.875 59.5001 362.487 63.4268 358.18 66.1501C353.937 68.8101 349.06 70.1401 343.55 70.1401ZM343.55 57.1251C346.147 57.1251 348.395 56.3968 350.295 54.9401C352.259 53.4834 353.779 51.1718 354.855 48.0051C355.995 44.8384 356.565 40.7534 356.565 35.7501C356.565 30.7468 355.995 26.6618 354.855 23.4951C353.779 20.3284 352.259 18.0168 350.295 16.5601C348.395 15.1034 346.147 14.3751 343.55 14.3751C341.017 14.3751 338.769 15.1034 336.805 16.5601C334.905 18.0168 333.385 20.3284 332.245 23.4951C331.169 26.6618 330.63 30.7468 330.63 35.7501C330.63 40.7534 331.169 44.8384 332.245 48.0051C333.385 51.1718 334.905 53.4834 336.805 54.9401C338.769 56.3968 341.017 57.1251 343.55 57.1251ZM378.587 69.0001V59.0251L404.237 34.8001C406.264 32.9634 407.752 31.3168 408.702 29.8601C409.652 28.4034 410.285 27.0734 410.602 25.8701C410.982 24.6668 411.172 23.5584 411.172 22.5451C411.172 19.8851 410.254 17.8584 408.417 16.4651C406.644 15.0084 404.015 14.2801 400.532 14.2801C397.745 14.2801 395.149 14.8184 392.742 15.8951C390.399 16.9718 388.404 18.6501 386.757 20.9301L375.547 13.7101C378.08 9.91011 381.627 6.90177 386.187 4.6851C390.747 2.46844 396.004 1.36011 401.957 1.36011C406.897 1.36011 411.204 2.18344 414.877 3.8301C418.614 5.41344 421.495 7.66177 423.522 10.5751C425.612 13.4884 426.657 16.9718 426.657 21.0251C426.657 23.1784 426.372 25.3318 425.802 27.4851C425.295 29.5751 424.219 31.7918 422.572 34.1351C420.989 36.4784 418.645 39.1068 415.542 42.0201L394.262 62.0651L391.317 56.4601H428.842V69.0001H378.587ZM445.452 69.0001V8.2001L452.102 14.8501H432.152V2.5001H460.842V69.0001H445.452Z"/>
<path d="M512.445 69.0001V59.0251L538.095 34.8001C540.122 32.9634 541.61 31.3168 542.56 29.8601C543.51 28.4034 544.144 27.0734 544.46 25.8701C544.84 24.6668 545.03 23.5584 545.03 22.5451C545.03 19.8851 544.112 17.8584 542.275 16.4651C540.502 15.0084 537.874 14.2801 534.39 14.2801C531.604 14.2801 529.007 14.8184 526.6 15.8951C524.257 16.9718 522.262 18.6501 520.615 20.9301L509.405 13.7101C511.939 9.91011 515.485 6.90177 520.045 4.6851C524.605 2.46844 529.862 1.36011 535.815 1.36011C540.755 1.36011 545.062 2.18344 548.735 3.8301C552.472 5.41344 555.354 7.66177 557.38 10.5751C559.47 13.4884 560.515 16.9718 560.515 21.0251C560.515 23.1784 560.23 25.3318 559.66 27.4851C559.154 29.5751 558.077 31.7918 556.43 34.1351C554.847 36.4784 552.504 39.1068 549.4 42.0201L528.12 62.0651L525.175 56.4601H562.7V69.0001H512.445ZM597.55 70.1401C592.104 70.1401 587.227 68.8101 582.92 66.1501C578.614 63.4268 575.225 59.5001 572.755 54.3701C570.285 49.2401 569.05 43.0334 569.05 35.7501C569.05 28.4668 570.285 22.2601 572.755 17.1301C575.225 12.0001 578.614 8.10511 582.92 5.44511C587.227 2.72177 592.104 1.36011 597.55 1.36011C603.06 1.36011 607.937 2.72177 612.18 5.44511C616.487 8.10511 619.875 12.0001 622.345 17.1301C624.815 22.2601 626.05 28.4668 626.05 35.7501C626.05 43.0334 624.815 49.2401 622.345 54.3701C619.875 59.5001 616.487 63.4268 612.18 66.1501C607.937 68.8101 603.06 70.1401 597.55 70.1401ZM597.55 57.1251C600.147 57.1251 602.395 56.3968 604.295 54.9401C606.259 53.4834 607.779 51.1718 608.855 48.0051C609.995 44.8384 610.565 40.7534 610.565 35.7501C610.565 30.7468 609.995 26.6618 608.855 23.4951C607.779 20.3284 606.259 18.0168 604.295 16.5601C602.395 15.1034 600.147 14.3751 597.55 14.3751C595.017 14.3751 592.769 15.1034 590.805 16.5601C588.905 18.0168 587.385 20.3284 586.245 23.4951C585.169 26.6618 584.63 30.7468 584.63 35.7501C584.63 40.7534 585.169 44.8384 586.245 48.0051C587.385 51.1718 588.905 53.4834 590.805 54.9401C592.769 56.3968 595.017 57.1251 597.55 57.1251ZM632.587 69.0001V59.0251L658.237 34.8001C660.264 32.9634 661.752 31.3168 662.702 29.8601C663.652 28.4034 664.285 27.0734 664.602 25.8701C664.982 24.6668 665.172 23.5584 665.172 22.5451C665.172 19.8851 664.254 17.8584 662.417 16.4651C660.644 15.0084 658.015 14.2801 654.532 14.2801C651.745 14.2801 649.149 14.8184 646.742 15.8951C644.399 16.9718 642.404 18.6501 640.757 20.9301L629.547 13.7101C632.08 9.91011 635.627 6.90177 640.187 4.6851C644.747 2.46844 650.004 1.36011 655.957 1.36011C660.897 1.36011 665.204 2.18344 668.877 3.8301C672.614 5.41344 675.495 7.66177 677.522 10.5751C679.612 13.4884 680.657 16.9718 680.657 21.0251C680.657 23.1784 680.372 25.3318 679.802 27.4851C679.295 29.5751 678.219 31.7918 676.572 34.1351C674.989 36.4784 672.645 39.1068 669.542 42.0201L648.262 62.0651L645.317 56.4601H682.842V69.0001H632.587ZM699.452 69.0001V8.2001L706.102 14.8501H686.152V2.5001H714.842V69.0001H699.452Z"/>
<path d="M766.445 69.0001V59.0251L792.095 34.8001C794.122 32.9634 795.61 31.3168 796.56 29.8601C797.51 28.4034 798.144 27.0734 798.46 25.8701C798.84 24.6668 799.03 23.5584 799.03 22.5451C799.03 19.8851 798.112 17.8584 796.275 16.4651C794.502 15.0084 791.874 14.2801 788.39 14.2801C785.604 14.2801 783.007 14.8184 780.6 15.8951C778.257 16.9718 776.262 18.6501 774.615 20.9301L763.405 13.7101C765.939 9.91011 769.485 6.90177 774.045 4.6851C778.605 2.46844 783.862 1.36011 789.815 1.36011C794.755 1.36011 799.062 2.18344 802.735 3.8301C806.472 5.41344 809.354 7.66177 811.38 10.5751C813.47 13.4884 814.515 16.9718 814.515 21.0251C814.515 23.1784 814.23 25.3318 813.66 27.4851C813.154 29.5751 812.077 31.7918 810.43 34.1351C808.847 36.4784 806.504 39.1068 803.4 42.0201L782.12 62.0651L779.175 56.4601H816.7V69.0001H766.445ZM851.55 70.1401C846.104 70.1401 841.227 68.8101 836.92 66.1501C832.614 63.4268 829.225 59.5001 826.755 54.3701C824.285 49.2401 823.05 43.0334 823.05 35.7501C823.05 28.4668 824.285 22.2601 826.755 17.1301C829.225 12.0001 832.614 8.10511 836.92 5.44511C841.227 2.72177 846.104 1.36011 851.55 1.36011C857.06 1.36011 861.937 2.72177 866.18 5.44511C870.487 8.10511 873.875 12.0001 876.345 17.1301C878.815 22.2601 880.05 28.4668 880.05 35.7501C880.05 43.0334 878.815 49.2401 876.345 54.3701C873.875 59.5001 870.487 63.4268 866.18 66.1501C861.937 68.8101 857.06 70.1401 851.55 70.1401ZM851.55 57.1251C854.147 57.1251 856.395 56.3968 858.295 54.9401C860.259 53.4834 861.779 51.1718 862.855 48.0051C863.995 44.8384 864.565 40.7534 864.565 35.7501C864.565 30.7468 863.995 26.6618 862.855 23.4951C861.779 20.3284 860.259 18.0168 858.295 16.5601C856.395 15.1034 854.147 14.3751 851.55 14.3751C849.017 14.3751 846.769 15.1034 844.805 16.5601C842.905 18.0168 841.385 20.3284 840.245 23.4951C839.169 26.6618 838.63 30.7468 838.63 35.7501C838.63 40.7534 839.169 44.8384 840.245 48.0051C841.385 51.1718 842.905 53.4834 844.805 54.9401C846.769 56.3968 849.017 57.1251 851.55 57.1251ZM886.587 69.0001V59.0251L912.237 34.8001C914.264 32.9634 915.752 31.3168 916.702 29.8601C917.652 28.4034 918.285 27.0734 918.602 25.8701C918.982 24.6668 919.172 23.5584 919.172 22.5451C919.172 19.8851 918.254 17.8584 916.417 16.4651C914.644 15.0084 912.015 14.2801 908.532 14.2801C905.745 14.2801 903.149 14.8184 900.742 15.8951C898.399 16.9718 896.404 18.6501 894.757 20.9301L883.547 13.7101C886.08 9.91011 889.627 6.90177 894.187 4.6851C898.747 2.46844 904.004 1.36011 909.957 1.36011C914.897 1.36011 919.204 2.18344 922.877 3.8301C926.614 5.41344 929.495 7.66177 931.522 10.5751C933.612 13.4884 934.657 16.9718 934.657 21.0251C934.657 23.1784 934.372 25.3318 933.802 27.4851C933.295 29.5751 932.219 31.7918 930.572 34.1351C928.989 36.4784 926.645 39.1068 923.542 42.0201L902.262 62.0651L899.317 56.4601H936.842V69.0001H886.587ZM953.452 69.0001V8.2001L960.102 14.8501H940.152V2.5001H968.842V69.0001H953.452Z"/>
</mask>
<path d="M4.44527 69.0001V59.0251L30.0953 34.8001C32.1219 32.9634 33.6103 31.3168 34.5603 29.8601C35.5103 28.4034 36.1436 27.0734 36.4603 25.8701C36.8403 24.6668 37.0303 23.5584 37.0303 22.5451C37.0303 19.8851 36.1119 17.8584 34.2753 16.4651C32.5019 15.0084 29.8736 14.2801 26.3903 14.2801C23.6036 14.2801 21.0069 14.8184 18.6003 15.8951C16.2569 16.9718 14.2619 18.6501 12.6153 20.9301L1.40527 13.7101C3.93861 9.91011 7.48527 6.90177 12.0453 4.6851C16.6053 2.46844 21.8619 1.36011 27.8153 1.36011C32.7553 1.36011 37.0619 2.18344 40.7353 3.8301C44.4719 5.41344 47.3536 7.66177 49.3803 10.5751C51.4703 13.4884 52.5153 16.9718 52.5153 21.0251C52.5153 23.1784 52.2303 25.3318 51.6603 27.4851C51.1536 29.5751 50.0769 31.7918 48.4303 34.1351C46.8469 36.4784 44.5036 39.1068 41.4003 42.0201L20.1203 62.0651L17.1753 56.4601H54.7003V69.0001H4.44527ZM89.5504 70.1401C84.1038 70.1401 79.2271 68.8101 74.9204 66.1501C70.6138 63.4268 67.2254 59.5001 64.7554 54.3701C62.2854 49.2401 61.0504 43.0334 61.0504 35.7501C61.0504 28.4668 62.2854 22.2601 64.7554 17.1301C67.2254 12.0001 70.6138 8.10511 74.9204 5.44511C79.2271 2.72177 84.1038 1.36011 89.5504 1.36011C95.0604 1.36011 99.9371 2.72177 104.18 5.44511C108.487 8.10511 111.875 12.0001 114.345 17.1301C116.815 22.2601 118.05 28.4668 118.05 35.7501C118.05 43.0334 116.815 49.2401 114.345 54.3701C111.875 59.5001 108.487 63.4268 104.18 66.1501C99.9371 68.8101 95.0604 70.1401 89.5504 70.1401ZM89.5504 57.1251C92.1471 57.1251 94.3954 56.3968 96.2954 54.9401C98.2588 53.4834 99.7788 51.1718 100.855 48.0051C101.995 44.8384 102.565 40.7534 102.565 35.7501C102.565 30.7468 101.995 26.6618 100.855 23.4951C99.7788 20.3284 98.2588 18.0168 96.2954 16.5601C94.3954 15.1034 92.1471 14.3751 89.5504 14.3751C87.0171 14.3751 84.7688 15.1034 82.8054 16.5601C80.9054 18.0168 79.3854 20.3284 78.2454 23.4951C77.1688 26.6618 76.6304 30.7468 76.6304 35.7501C76.6304 40.7534 77.1688 44.8384 78.2454 48.0051C79.3854 51.1718 80.9054 53.4834 82.8054 54.9401C84.7688 56.3968 87.0171 57.1251 89.5504 57.1251ZM124.587 69.0001V59.0251L150.237 34.8001C152.264 32.9634 153.752 31.3168 154.702 29.8601C155.652 28.4034 156.285 27.0734 156.602 25.8701C156.982 24.6668 157.172 23.5584 157.172 22.5451C157.172 19.8851 156.254 17.8584 154.417 16.4651C152.644 15.0084 150.015 14.2801 146.532 14.2801C143.745 14.2801 141.149 14.8184 138.742 15.8951C136.399 16.9718 134.404 18.6501 132.757 20.9301L121.547 13.7101C124.08 9.91011 127.627 6.90177 132.187 4.6851C136.747 2.46844 142.004 1.36011 147.957 1.36011C152.897 1.36011 157.204 2.18344 160.877 3.8301C164.614 5.41344 167.495 7.66177 169.522 10.5751C171.612 13.4884 172.657 16.9718 172.657 21.0251C172.657 23.1784 172.372 25.3318 171.802 27.4851C171.295 29.5751 170.219 31.7918 168.572 34.1351C166.989 36.4784 164.645 39.1068 161.542 42.0201L140.262 62.0651L137.317 56.4601H174.842V69.0001H124.587ZM191.452 69.0001V8.2001L198.102 14.8501H178.152V2.5001H206.842V69.0001H191.452Z" stroke="url(#paint0_linear_226_507)" stroke-width="2" mask="url(#path-1-outside-1_226_507)"/>
<path d="M258.445 69.0001V59.0251L284.095 34.8001C286.122 32.9634 287.61 31.3168 288.56 29.8601C289.51 28.4034 290.144 27.0734 290.46 25.8701C290.84 24.6668 291.03 23.5584 291.03 22.5451C291.03 19.8851 290.112 17.8584 288.275 16.4651C286.502 15.0084 283.874 14.2801 280.39 14.2801C277.604 14.2801 275.007 14.8184 272.6 15.8951C270.257 16.9718 268.262 18.6501 266.615 20.9301L255.405 13.7101C257.939 9.91011 261.485 6.90177 266.045 4.6851C270.605 2.46844 275.862 1.36011 281.815 1.36011C286.755 1.36011 291.062 2.18344 294.735 3.8301C298.472 5.41344 301.354 7.66177 303.38 10.5751C305.47 13.4884 306.515 16.9718 306.515 21.0251C306.515 23.1784 306.23 25.3318 305.66 27.4851C305.154 29.5751 304.077 31.7918 302.43 34.1351C300.847 36.4784 298.504 39.1068 295.4 42.0201L274.12 62.0651L271.175 56.4601H308.7V69.0001H258.445ZM343.55 70.1401C338.104 70.1401 333.227 68.8101 328.92 66.1501C324.614 63.4268 321.225 59.5001 318.755 54.3701C316.285 49.2401 315.05 43.0334 315.05 35.7501C315.05 28.4668 316.285 22.2601 318.755 17.1301C321.225 12.0001 324.614 8.10511 328.92 5.44511C333.227 2.72177 338.104 1.36011 343.55 1.36011C349.06 1.36011 353.937 2.72177 358.18 5.44511C362.487 8.10511 365.875 12.0001 368.345 17.1301C370.815 22.2601 372.05 28.4668 372.05 35.7501C372.05 43.0334 370.815 49.2401 368.345 54.3701C365.875 59.5001 362.487 63.4268 358.18 66.1501C353.937 68.8101 349.06 70.1401 343.55 70.1401ZM343.55 57.1251C346.147 57.1251 348.395 56.3968 350.295 54.9401C352.259 53.4834 353.779 51.1718 354.855 48.0051C355.995 44.8384 356.565 40.7534 356.565 35.7501C356.565 30.7468 355.995 26.6618 354.855 23.4951C353.779 20.3284 352.259 18.0168 350.295 16.5601C348.395 15.1034 346.147 14.3751 343.55 14.3751C341.017 14.3751 338.769 15.1034 336.805 16.5601C334.905 18.0168 333.385 20.3284 332.245 23.4951C331.169 26.6618 330.63 30.7468 330.63 35.7501C330.63 40.7534 331.169 44.8384 332.245 48.0051C333.385 51.1718 334.905 53.4834 336.805 54.9401C338.769 56.3968 341.017 57.1251 343.55 57.1251ZM378.587 69.0001V59.0251L404.237 34.8001C406.264 32.9634 407.752 31.3168 408.702 29.8601C409.652 28.4034 410.285 27.0734 410.602 25.8701C410.982 24.6668 411.172 23.5584 411.172 22.5451C411.172 19.8851 410.254 17.8584 408.417 16.4651C406.644 15.0084 404.015 14.2801 400.532 14.2801C397.745 14.2801 395.149 14.8184 392.742 15.8951C390.399 16.9718 388.404 18.6501 386.757 20.9301L375.547 13.7101C378.08 9.91011 381.627 6.90177 386.187 4.6851C390.747 2.46844 396.004 1.36011 401.957 1.36011C406.897 1.36011 411.204 2.18344 414.877 3.8301C418.614 5.41344 421.495 7.66177 423.522 10.5751C425.612 13.4884 426.657 16.9718 426.657 21.0251C426.657 23.1784 426.372 25.3318 425.802 27.4851C425.295 29.5751 424.219 31.7918 422.572 34.1351C420.989 36.4784 418.645 39.1068 415.542 42.0201L394.262 62.0651L391.317 56.4601H428.842V69.0001H378.587ZM445.452 69.0001V8.2001L452.102 14.8501H432.152V2.5001H460.842V69.0001H445.452Z" stroke="url(#paint1_linear_226_507)" stroke-width="2" mask="url(#path-1-outside-1_226_507)"/>
<path d="M512.445 69.0001V59.0251L538.095 34.8001C540.122 32.9634 541.61 31.3168 542.56 29.8601C543.51 28.4034 544.144 27.0734 544.46 25.8701C544.84 24.6668 545.03 23.5584 545.03 22.5451C545.03 19.8851 544.112 17.8584 542.275 16.4651C540.502 15.0084 537.874 14.2801 534.39 14.2801C531.604 14.2801 529.007 14.8184 526.6 15.8951C524.257 16.9718 522.262 18.6501 520.615 20.9301L509.405 13.7101C511.939 9.91011 515.485 6.90177 520.045 4.6851C524.605 2.46844 529.862 1.36011 535.815 1.36011C540.755 1.36011 545.062 2.18344 548.735 3.8301C552.472 5.41344 555.354 7.66177 557.38 10.5751C559.47 13.4884 560.515 16.9718 560.515 21.0251C560.515 23.1784 560.23 25.3318 559.66 27.4851C559.154 29.5751 558.077 31.7918 556.43 34.1351C554.847 36.4784 552.504 39.1068 549.4 42.0201L528.12 62.0651L525.175 56.4601H562.7V69.0001H512.445ZM597.55 70.1401C592.104 70.1401 587.227 68.8101 582.92 66.1501C578.614 63.4268 575.225 59.5001 572.755 54.3701C570.285 49.2401 569.05 43.0334 569.05 35.7501C569.05 28.4668 570.285 22.2601 572.755 17.1301C575.225 12.0001 578.614 8.10511 582.92 5.44511C587.227 2.72177 592.104 1.36011 597.55 1.36011C603.06 1.36011 607.937 2.72177 612.18 5.44511C616.487 8.10511 619.875 12.0001 622.345 17.1301C624.815 22.2601 626.05 28.4668 626.05 35.7501C626.05 43.0334 624.815 49.2401 622.345 54.3701C619.875 59.5001 616.487 63.4268 612.18 66.1501C607.937 68.8101 603.06 70.1401 597.55 70.1401ZM597.55 57.1251C600.147 57.1251 602.395 56.3968 604.295 54.9401C606.259 53.4834 607.779 51.1718 608.855 48.0051C609.995 44.8384 610.565 40.7534 610.565 35.7501C610.565 30.7468 609.995 26.6618 608.855 23.4951C607.779 20.3284 606.259 18.0168 604.295 16.5601C602.395 15.1034 600.147 14.3751 597.55 14.3751C595.017 14.3751 592.769 15.1034 590.805 16.5601C588.905 18.0168 587.385 20.3284 586.245 23.4951C585.169 26.6618 584.63 30.7468 584.63 35.7501C584.63 40.7534 585.169 44.8384 586.245 48.0051C587.385 51.1718 588.905 53.4834 590.805 54.9401C592.769 56.3968 595.017 57.1251 597.55 57.1251ZM632.587 69.0001V59.0251L658.237 34.8001C660.264 32.9634 661.752 31.3168 662.702 29.8601C663.652 28.4034 664.285 27.0734 664.602 25.8701C664.982 24.6668 665.172 23.5584 665.172 22.5451C665.172 19.8851 664.254 17.8584 662.417 16.4651C660.644 15.0084 658.015 14.2801 654.532 14.2801C651.745 14.2801 649.149 14.8184 646.742 15.8951C644.399 16.9718 642.404 18.6501 640.757 20.9301L629.547 13.7101C632.08 9.91011 635.627 6.90177 640.187 4.6851C644.747 2.46844 650.004 1.36011 655.957 1.36011C660.897 1.36011 665.204 2.18344 668.877 3.8301C672.614 5.41344 675.495 7.66177 677.522 10.5751C679.612 13.4884 680.657 16.9718 680.657 21.0251C680.657 23.1784 680.372 25.3318 679.802 27.4851C679.295 29.5751 678.219 31.7918 676.572 34.1351C674.989 36.4784 672.645 39.1068 669.542 42.0201L648.262 62.0651L645.317 56.4601H682.842V69.0001H632.587ZM699.452 69.0001V8.2001L706.102 14.8501H686.152V2.5001H714.842V69.0001H699.452Z" stroke="url(#paint2_linear_226_507)" stroke-width="2" mask="url(#path-1-outside-1_226_507)"/>
<path d="M766.445 69.0001V59.0251L792.095 34.8001C794.122 32.9634 795.61 31.3168 796.56 29.8601C797.51 28.4034 798.144 27.0734 798.46 25.8701C798.84 24.6668 799.03 23.5584 799.03 22.5451C799.03 19.8851 798.112 17.8584 796.275 16.4651C794.502 15.0084 791.874 14.2801 788.39 14.2801C785.604 14.2801 783.007 14.8184 780.6 15.8951C778.257 16.9718 776.262 18.6501 774.615 20.9301L763.405 13.7101C765.939 9.91011 769.485 6.90177 774.045 4.6851C778.605 2.46844 783.862 1.36011 789.815 1.36011C794.755 1.36011 799.062 2.18344 802.735 3.8301C806.472 5.41344 809.354 7.66177 811.38 10.5751C813.47 13.4884 814.515 16.9718 814.515 21.0251C814.515 23.1784 814.23 25.3318 813.66 27.4851C813.154 29.5751 812.077 31.7918 810.43 34.1351C808.847 36.4784 806.504 39.1068 803.4 42.0201L782.12 62.0651L779.175 56.4601H816.7V69.0001H766.445ZM851.55 70.1401C846.104 70.1401 841.227 68.8101 836.92 66.1501C832.614 63.4268 829.225 59.5001 826.755 54.3701C824.285 49.2401 823.05 43.0334 823.05 35.7501C823.05 28.4668 824.285 22.2601 826.755 17.1301C829.225 12.0001 832.614 8.10511 836.92 5.44511C841.227 2.72177 846.104 1.36011 851.55 1.36011C857.06 1.36011 861.937 2.72177 866.18 5.44511C870.487 8.10511 873.875 12.0001 876.345 17.1301C878.815 22.2601 880.05 28.4668 880.05 35.7501C880.05 43.0334 878.815 49.2401 876.345 54.3701C873.875 59.5001 870.487 63.4268 866.18 66.1501C861.937 68.8101 857.06 70.1401 851.55 70.1401ZM851.55 57.1251C854.147 57.1251 856.395 56.3968 858.295 54.9401C860.259 53.4834 861.779 51.1718 862.855 48.0051C863.995 44.8384 864.565 40.7534 864.565 35.7501C864.565 30.7468 863.995 26.6618 862.855 23.4951C861.779 20.3284 860.259 18.0168 858.295 16.5601C856.395 15.1034 854.147 14.3751 851.55 14.3751C849.017 14.3751 846.769 15.1034 844.805 16.5601C842.905 18.0168 841.385 20.3284 840.245 23.4951C839.169 26.6618 838.63 30.7468 838.63 35.7501C838.63 40.7534 839.169 44.8384 840.245 48.0051C841.385 51.1718 842.905 53.4834 844.805 54.9401C846.769 56.3968 849.017 57.1251 851.55 57.1251ZM886.587 69.0001V59.0251L912.237 34.8001C914.264 32.9634 915.752 31.3168 916.702 29.8601C917.652 28.4034 918.285 27.0734 918.602 25.8701C918.982 24.6668 919.172 23.5584 919.172 22.5451C919.172 19.8851 918.254 17.8584 916.417 16.4651C914.644 15.0084 912.015 14.2801 908.532 14.2801C905.745 14.2801 903.149 14.8184 900.742 15.8951C898.399 16.9718 896.404 18.6501 894.757 20.9301L883.547 13.7101C886.08 9.91011 889.627 6.90177 894.187 4.6851C898.747 2.46844 904.004 1.36011 909.957 1.36011C914.897 1.36011 919.204 2.18344 922.877 3.8301C926.614 5.41344 929.495 7.66177 931.522 10.5751C933.612 13.4884 934.657 16.9718 934.657 21.0251C934.657 23.1784 934.372 25.3318 933.802 27.4851C933.295 29.5751 932.219 31.7918 930.572 34.1351C928.989 36.4784 926.645 39.1068 923.542 42.0201L902.262 62.0651L899.317 56.4601H936.842V69.0001H886.587ZM953.452 69.0001V8.2001L960.102 14.8501H940.152V2.5001H968.842V69.0001H953.452Z" stroke="url(#paint3_linear_226_507)" stroke-width="2" mask="url(#path-1-outside-1_226_507)"/>
<defs>
<linearGradient id="paint0_linear_226_507" x1="0.99902" y1="36.0004" x2="968.999" y2="36.0004" gradientUnits="userSpaceOnUse">
<stop stop-color="white"/>
<stop offset="1" stop-color="white"/>
</linearGradient>
<linearGradient id="paint1_linear_226_507" x1="0.99902" y1="36.0004" x2="968.999" y2="36.0004" gradientUnits="userSpaceOnUse">
<stop stop-color="white"/>
<stop offset="1" stop-color="white"/>
</linearGradient>
<linearGradient id="paint2_linear_226_507" x1="0.99902" y1="36.0004" x2="968.999" y2="36.0004" gradientUnits="userSpaceOnUse">
<stop stop-color="white"/>
<stop offset="1" stop-color="white"/>
</linearGradient>
<linearGradient id="paint3_linear_226_507" x1="0.99902" y1="36.0004" x2="968.999" y2="36.0004" gradientUnits="userSpaceOnUse">
<stop stop-color="white"/>
<stop offset="1" stop-color="white"/>
</linearGradient>
</defs>
</svg>
