<svg width="208" height="72" viewBox="0 0 208 72" fill="none" xmlns="http://www.w3.org/2000/svg">
<path d="M3.94625 69.4999V68.9999V59.0249V58.8093L4.10294 58.6614L29.7529 34.4364L29.7604 34.4293L29.7605 34.4294C31.7713 32.6071 33.2252 30.9932 34.1424 29.5867C35.0739 28.1585 35.6789 26.8781 35.9777 25.7426L35.9808 25.7309L35.9845 25.7193C36.3527 24.5532 36.5312 23.4964 36.5312 22.5449C36.5312 20.014 35.6658 18.1466 33.9741 16.8632L33.9664 16.8574L33.9589 16.8512C32.3111 15.4977 29.8162 14.7799 26.3913 14.7799C23.6718 14.7799 21.1459 15.3046 18.8077 16.3503C16.5507 17.3877 14.6219 19.0068 13.0216 21.2226L12.744 21.6069L12.3455 21.3502L1.13551 14.1302L0.708455 13.8552L0.990225 13.4325C3.57817 9.5506 7.19673 6.48632 11.8277 4.23518C16.4667 1.98011 21.8003 0.859863 27.8163 0.859863C32.809 0.859863 37.1866 1.69163 40.9361 3.37149C44.7433 4.98559 47.7027 7.28767 49.7897 10.2864C51.947 13.2949 53.0163 16.8826 53.0163 21.0249C53.0163 23.2212 52.7257 25.4159 52.1459 27.6078C51.6203 29.7725 50.5116 32.0432 48.843 34.4185C47.2314 36.8028 44.8605 39.4582 41.7441 42.3838L3.94625 69.4999ZM3.94625 69.4999H4.44625H54.7013H55.2013V68.9999V56.4599V55.9599H54.7013H27.3316L41.7435 42.3844L3.94625 69.4999ZM74.6542 66.5725L74.6587 66.5753C79.0503 69.2878 84.0193 70.6399 89.5514 70.6399C95.1456 70.6399 100.116 69.2883 104.447 66.5735L104.449 66.5725C108.844 63.7934 112.291 59.7909 114.797 54.5868C117.307 49.3729 118.551 43.088 118.551 35.7499C118.551 28.4117 117.307 22.1268 114.797 16.913C112.291 11.7094 108.844 7.73782 104.448 5.02164C100.117 2.24344 95.1463 0.859863 89.5514 0.859863C84.018 0.859863 79.0482 2.24433 74.6567 5.0207C70.2599 7.73691 66.8116 11.7088 64.3059 16.913C61.7955 22.1268 60.5514 28.4117 60.5514 35.7499C60.5514 43.088 61.7955 49.3729 64.3059 54.5868C66.8116 59.7909 70.2593 63.7934 74.6542 66.5725ZM95.9985 54.5383L95.9922 54.5431C94.187 55.927 92.048 56.6249 89.5514 56.6249C87.1226 56.6249 84.9807 55.9294 83.1076 54.5407C81.3108 53.162 79.8377 50.9473 78.7184 47.8398C77.6667 44.7444 77.1314 40.7206 77.1314 35.7499C77.1314 30.7791 77.6667 26.7553 78.7184 23.6599C79.8377 20.5524 81.3108 18.3378 83.1075 16.959C84.9807 15.5703 87.1226 14.8749 89.5514 14.8749C92.048 14.8749 94.187 15.5727 95.9922 16.9567L95.9922 16.9567L95.9985 16.9614C97.8552 18.339 99.3273 20.5508 100.383 23.6558L100.383 23.6558L100.386 23.6642C101.499 26.757 102.066 30.7789 102.066 35.7499C102.066 40.7208 101.499 44.7428 100.386 47.8355L100.386 47.8355L100.383 47.8439C99.3273 50.9489 97.8552 53.1608 95.9985 54.5383L95.9985 54.5383ZM124.088 68.9999V69.4999H124.588H174.843H175.343V68.9999V56.4599V55.9599H174.843H147.473L161.885 42.3844C165.002 39.4587 167.373 36.8033 168.984 34.419C170.653 32.0434 171.762 29.7725 172.288 27.6076C172.867 25.4157 173.158 23.2211 173.158 21.0249C173.158 16.8825 172.089 13.2948 169.931 10.2862C167.844 7.28761 164.885 4.98562 161.078 3.37155C157.328 1.69165 152.951 0.859863 147.958 0.859863C141.942 0.859863 136.608 1.98011 131.969 4.23518C127.338 6.48632 123.72 9.5506 121.132 13.4325L120.85 13.8552L121.277 14.1302L132.487 21.3502L132.886 21.6069L133.163 21.2226C134.764 19.0066 136.693 17.3875 138.95 16.3501C141.288 15.3046 143.814 14.7799 146.533 14.7799C149.958 14.7799 152.453 15.4977 154.1 16.8512L154.108 16.8574L154.116 16.8632C155.807 18.1466 156.673 20.014 156.673 22.5449C156.673 23.4964 156.494 24.5533 156.126 25.7193L156.122 25.7309L156.119 25.7426C155.821 26.8781 155.215 28.1585 154.284 29.5867C153.367 30.9932 151.913 32.6071 149.902 34.4293L149.895 34.4364L124.245 58.6614L124.088 58.8093V59.0249V68.9999ZM190.953 68.9999V69.4999H191.453H206.843H207.343V68.9999V2.49986V1.99986H206.843H178.153H177.653V2.49986V14.8499V15.3499H178.153H190.953V68.9999Z" stroke="white"/>
</svg>
