<?xml version="1.0" encoding="utf-8"?><svg viewBox="0 0 25 21" xmlns="http://www.w3.org/2000/svg" xmlns:xlink="http://www.w3.org/1999/xlink"><style>:root>svg{display:none}:root>svg:target{display:block}</style><svg fill="none" viewBox="0 0 25 19" id="dc" xmlns="http://www.w3.org/2000/svg"><path d="M8.476.392C6.642.65 4.441 1.532 3.481 2.39c-.375.336-.515.539-.937 1.413C1.194 6.597.156 10.843.04 14.113L0 15.208l.39.522c.531.703 1.288 1.312 2.272 1.811 1.397.718 3.301 1.257 4.23 1.202l.406-.023.702-.991c.586-.82.742-.992.867-.96.757.203 2.333.35 3.63.35 1.287 0 3.09-.17 3.66-.343.093-.03.304.211.788.898.367.515.726.976.796 1.015.547.296 2.95-.305 4.59-1.148.999-.515 1.701-1.069 2.247-1.787l.422-.546-.047-1.093c-.117-3.232-1.14-7.454-2.459-10.225-.499-1.054-.764-1.397-1.436-1.85-1.288-.874-3.84-1.701-5.252-1.701-.305 0-.367.03-.5.25-.078.14-.195.42-.25.632l-.093.374-.594-.062c-.749-.078-2.989-.078-3.746 0l-.585.062-.141-.476c-.219-.757-.43-.866-1.42-.726zm.43 1.273c0 .085-.047.171-.094.187-1.694.46-3.739 1.381-3.965 1.787-.101.188-.101.234 0 .422.234.421.445.413 1.39-.078 3.746-1.952 8.772-1.952 12.519 0 .936.484 1.155.5 1.381.093.094-.171.094-.226 0-.421-.187-.383-1.826-1.187-3.27-1.6-.632-.18-.75-.242-.765-.39-.031-.172-.015-.172.43-.118 1.514.188 3.582.992 4.284 1.67.46.446 1.241 2.21 1.819 4.145.632 2.092 1.108 4.613 1.218 6.541.054.85.054.882-.14 1.132-.703.92-1.71 1.584-3.24 2.115-.64.219-1.842.515-2.123.515-.11 0-.952-1.186-.882-1.249.031-.03.203-.101.375-.156.515-.164 1.6-.687 2.2-1.061.883-.547 1.062-.874.688-1.241-.266-.266-.484-.242-.945.101-1.186.89-3.278 1.64-5.307 1.889-1.038.133-3.2.11-4.207-.039-2.077-.312-4.06-1.046-5.144-1.905-.164-.132-.367-.241-.453-.241a.748.748 0 01-.304-.086c-.312-.164-.695.109-.695.491 0 .281.188.531.398.531.086 0 .383.164.672.367.546.367 1.85 1.022 2.404 1.194.171.055.343.125.374.156.078.07-.78 1.25-.913 1.25-.265-.009-1.584-.337-2.193-.547-1.444-.515-2.451-1.187-3.146-2.092-.187-.242-.187-.281-.14-1.054.218-3.325 1.194-7.266 2.396-9.694.21-.429.445-.85.523-.936.507-.601 2.162-1.35 3.707-1.67.968-.204 1.148-.204 1.148-.008z" fill="#fff"/><path d="M8.32 8.01c-1.89.624-2.42 3.255-.937 4.652.53.507.882.655 1.56.663.96.016 1.757-.523 2.217-1.506.172-.375.203-.539.203-1.179s-.031-.804-.21-1.186c-.422-.913-1.171-1.452-2.085-1.514a2.473 2.473 0 00-.749.07zm1.03 1.077c1.03.39 1.287 1.944.46 2.779-.406.406-.765.492-1.265.296-.702-.265-1.1-1.194-.858-2.013.148-.508.359-.789.734-.992.327-.171.608-.195.928-.07zM15.502 7.979c-.71.187-1.311.718-1.67 1.483-.172.374-.203.538-.203 1.178 0 .64.031.804.203 1.179.46.976 1.256 1.522 2.216 1.506 2.217-.023 3.255-3.06 1.608-4.706-.546-.547-1.475-.82-2.154-.64zm1.046 1.178c.398.196.609.477.757.992.242.82-.156 1.748-.858 2.013-.5.195-.859.11-1.265-.296-.655-.656-.671-1.756-.047-2.428.414-.445.914-.538 1.413-.28z" fill="#fff"/></svg><svg fill="none" viewBox="0 0 22 21" id="tg" xmlns="http://www.w3.org/2000/svg"><path d="M21.265 1.337a2.048 2.048 0 00-2.078-.324L1.266 8.248a2.043 2.043 0 00.104 3.819l3.625 1.26 2.02 6.682a1 1 0 00.119.253c.008.011.019.02.027.032a.987.987 0 00.281.265c.095.063.2.11.31.137h.013l.006.003c.067.014.135.02.203.021l.018-.003a.992.992 0 00.302-.053c.022-.007.041-.02.063-.03a.99.99 0 00.205-.114l.152-.128 2.702-2.983 4.03 3.122c.355.276.792.426 1.242.426a2.054 2.054 0 002.007-1.633l3.263-16.016a2.03 2.03 0 00-.693-1.97zM8.37 13.646a.994.994 0 00-.272.506l-.31 1.504-.784-2.593 4.065-2.117-2.699 2.7zm8.302 5.303l-4.763-3.689a1.001 1.001 0 00-1.353.12l-.866.954.306-1.486 7.083-7.083A1 1 0 0015.91 6.17L5.745 11.464 2.02 10.1l17.978-7.193-3.327 16.041z" fill="#fff"/></svg><svg fill="none" viewBox="0 0 23 20" id="tw" xmlns="http://www.w3.org/2000/svg"><path d="M22 2.172a1 1 0 00-1.51-.86 7.48 7.48 0 01-1.873.794A5.153 5.153 0 0015.241.864a5.232 5.232 0 00-5.223 5.063 11.032 11.032 0 01-6.814-3.924 1.011 1.011 0 00-.857-.365.999.999 0 00-.785.5 5.276 5.276 0 00-.242 4.768l-.002.002a1.041 1.041 0 00-.496.89c-.001.146.007.293.027.439a5.186 5.186 0 001.568 3.312.998.998 0 00-.066.77 5.205 5.205 0 002.362 2.921 7.465 7.465 0 01-3.59.449 1 1 0 00-.665 1.833 12.942 12.942 0 007.01 2.061 12.787 12.787 0 0012.465-9.363c.353-1.183.533-2.412.535-3.647l-.001-.2A5.77 5.77 0 0022 2.173zm-3.306 3.212a.995.995 0 00-.234.702c.01.165.009.331.009.487a10.826 10.826 0 01-.454 3.082 10.684 10.684 0 01-10.546 7.928c-.86 0-1.715-.1-2.55-.3a9.48 9.48 0 002.942-1.564 1 1 0 00-.602-1.786 3.208 3.208 0 01-2.214-.935c.15-.028.298-.063.445-.105a1 1 0 00-.08-1.944 3.2 3.2 0 01-2.25-1.725c.181.025.363.04.545.046a1.02 1.02 0 00.984-.697 1 1 0 00-.4-1.136A3.196 3.196 0 012.87 4.566a13.014 13.014 0 008.21 3.48 1.02 1.02 0 00.817-.36 1 1 0 00.206-.867 3.159 3.159 0 01-.087-.729 3.23 3.23 0 014.506-2.962c.403.176.766.433 1.065.756a.993.993 0 00.921.298c.41-.08.816-.188 1.212-.322a6.682 6.682 0 01-1.026 1.524z" fill="#fff"/></svg><svg fill="none" viewBox="0 0 23 17" id="yt" xmlns="http://www.w3.org/2000/svg"><path d="M21.26 6.29l-.001.012v.013c0 .626 0 3.962-.038 4.487l-.003.03v.032a9.83 9.83 0 01-.482 3.159l-.001.003c-.084.262-.23.5-.424.696a2.13 2.13 0 01-1.097.568c-3.585.276-6.622.325-10.094.275h-.027a44.443 44.443 0 01-6.368-.321 2.11 2.11 0 01-1.062-.555 2.39 2.39 0 01-.525-1.018l-.001-.007-.002-.008a8.8 8.8 0 01-.277-1.843v-.019a47.54 47.54 0 01.003-6.42c.05-.597.097-1.17.226-1.693.131-.534.33-.938.63-1.214h0l.008-.007a2.12 2.12 0 011.047-.541 77.7 77.7 0 018.224-.294h.025c2.755-.045 5.51.056 8.255.304.46.09.88.328 1.194.676a7.75 7.75 0 01.79 3.684zM7.998 11.454v1.259l1.107-.6c.996-.539 2.023-1.06 3.013-1.563l.083-.042a92.63 92.63 0 002.83-1.478l1.216-.673-1.23-.647-5.92-3.11-1.1-.577V11.455z" stroke="#fff" stroke-width="1.5"/></svg></svg>