<svg width="294" height="505" fill="none" xmlns="http://www.w3.org/2000/svg"><path d="M257.572 217.219L1.76 69.504 1 343.866c0 6.077 4.277 13.552 9.594 16.59l175.819 101.502 70.599 40.737c5.277 3.038 9.635.599 9.635-5.517l.4-129.646.399-133.923.04-10.753-9.914-5.637z" fill="#fff" stroke="#231F20" stroke-width=".75" stroke-miterlimit="10" stroke-linecap="round" stroke-linejoin="round"/><path d="M241.146 456.681c.24-.839.399-1.799.399-2.878l.56-205.402c0-.4-.04-.76-.08-1.159 0-.36-.08-.72-.12-1.08-.08-.559-.2-1.079-.32-1.639-.079-.4-.24-.879-.399-1.279-1.16-3.558-3.358-7.076-6.117-9.515-.28-.239-.56-.479-.879-.719-.24-.2-.48-.4-.72-.56-.32-.24-.64-.44-.959-.639L36.464 118.636c-5.317-3.038-9.635-.6-9.635 5.517l-.56 205.401c0 6.117 4.278 13.513 9.595 16.591L231.91 459.32c4.357 2.478 8.075 1.279 9.235-2.639z" fill="#fff" stroke="#231F20" stroke-width=".75" stroke-miterlimit="10" stroke-linecap="round" stroke-linejoin="round"/><path d="M232.551 231.771c5.317 3.078 9.594 10.474 9.594 16.59l-.6 205.402c0 6.116-4.317 8.555-9.634 5.477L35.864 346.065c-5.317-3.078-9.594-10.474-9.594-16.591l.599-205.401c0-6.117 4.318-8.555 9.635-5.477L232.55 231.771z" fill="#7A18D5" stroke="#231F20" stroke-width=".75" stroke-miterlimit="10" stroke-linecap="round" stroke-linejoin="round"/><path d="M267.566 176.083l-.04 7.475-.08 29.024-.04 10.274-9.875-5.677L1.719 69.464l.16-46.773c0-3.238 1.239-5.477 3.158-6.356.04 0 .08-.04.08-.04.28-.12.6-.24.92-.28.359-.08.719-.12 1.119-.12 1.319 0 2.758.4 4.317 1.32l246.458 142.277c5.357 3.078 9.635 10.514 9.635 16.591z" fill="#2B2829" stroke="#231F20" stroke-width=".75" stroke-miterlimit="10" stroke-linecap="round" stroke-linejoin="round"/><path d="M293.112 207.984l-.4 144.677-.359 129.685c-.04 3.038-1.08 5.157-2.839 6.157l-25.385 14.751c.32-.24.599-.48.879-.759.12-.12.24-.28.36-.44.16-.24.28-.44.4-.72.2-.32.32-.679.44-1.039 0-.08.04-.08.04-.16.08-.32.199-.64.239-1.039.08-.2.08-.44.08-.68.04-.36.08-.72.08-1.159l.4-129.646.4-133.923.04-10.753 5.996-3.518 19.629-11.434z" fill="#fff" stroke="#231F20" stroke-width=".75" stroke-miterlimit="10" stroke-linecap="round" stroke-linejoin="round"/><path d="M293.237 161.171l-.12 46.773-19.668 11.434-5.997 3.518.04-10.274.08-29.024.04-7.475c0-6.117-4.278-13.553-9.595-16.591L11.559 17.254c-1.559-.92-2.998-1.32-4.317-1.32-.4 0-.76.04-1.12.12-.32.08-.639.16-.919.28L30.43 1.665c1.719-1.04 4.197-.88 6.836.639L283.683 144.58c5.277 3.078 9.554 10.514 9.554 16.59z" fill="#424242" stroke="#231F20" stroke-width=".75" stroke-miterlimit="10" stroke-linecap="round" stroke-linejoin="round"/><path d="M45.938 66.226c-.04 4.318-3.078 6.077-6.876 3.918-3.758-2.199-6.836-7.476-6.796-11.793 0-4.358 3.078-6.076 6.876-3.918 3.758 2.159 6.796 7.436 6.796 11.793zm23.274 15.231c-.04 4.318-3.079 6.077-6.876 3.918-3.798-2.159-6.837-7.476-6.797-11.793 0-4.358 3.079-6.077 6.877-3.918 3.758 2.159 6.796 7.436 6.796 11.793zM94.395 95.41c-.04 4.317-3.078 6.076-6.876 3.917-3.758-2.199-6.836-7.476-6.796-11.793 0-4.358 3.078-6.077 6.876-3.918 3.798 2.159 6.796 7.436 6.796 11.793z" fill="#2B2829" stroke="#fff" stroke-width=".75" stroke-miterlimit="10" stroke-linecap="round" stroke-linejoin="round"/><path d="M223.029 255.277l-12.552-7.276" stroke="#fff" stroke-width=".75" stroke-miterlimit="10" stroke-linecap="round" stroke-linejoin="round"/><path d="M79.754 209.543l-20.988 60.526v3.598l39.857 22.986m-16.588-9.554v-14.752m0 29.503v-14.751m99.62-18.709l-20.948 60.525v3.598l39.857 22.986m-16.591-9.554v-14.751m0 29.502v-14.751m-71.239-49.532c0 9.235 6.477 20.468 14.472 25.066 7.996 4.597 14.472.879 14.472-8.355v-46.693c0-9.235-6.476-20.469-14.472-25.066-7.995-4.637-14.472-.88-14.472 8.355v46.693z" stroke="#fff" stroke-width="2" stroke-miterlimit="10" stroke-linecap="round" stroke-linejoin="round"/></svg>