<svg width="593" height="593" fill="none" xmlns="http://www.w3.org/2000/svg"><g clip-path="url(#clip0_196_291)" fill="#7A18D5"><path d="M206.194 210.757h180.117l-2.04 21.928-175.425-.408-2.652-21.52zm33.456 116.678l58.849 46.508 2.291 13.426-2.291 12.786-75.983-60.175 17.134-12.545z"/><path d="M238.621 316.318l1.122 11.423-6.682 7.971-10.555 4.268-4.998-39.573 21.113 15.911zm117.195 11.729l-57.319 45.896-1.122 12.953 1.122 13.259 74.861-60.685-4.517-19.814-13.025 8.391zm-88.634-22.745h73.536l-7.241 19.073H261.98l5.202-19.073zm-58.386-73.718l21.574-1.55 3.978 50.282-18.461 8.771-7.091-57.503z"/><path d="M215.876 289.087l18.256-9.281 34.576 25.702-6.74 18.868-46.092-35.289z"/><path d="M215.876 289.087l18.256-9.281 34.576 25.702-6.74 18.868-46.092-35.289zm149.826-58.817l18.767.172-5.099 52.117-17.339-14.482 3.671-37.807zm-104.017 25.566h74.046v19.174h-74.046z"/><path d="M335.746 255.836l42.21 34.881-16.216 11.423-38.518-30.8 12.524-15.504z"/><path d="M377.951 290.718l-4.589 48.751-17.543-11.423 2.709-38.348 19.423 1.02zM237.61 275.725l24.071-19.888 12.952 12.545-21.826 18.052-15.197-10.709zm89.953 29.477l14.075-11.525 12.035 11.321-20.194 19.378-5.916-19.174z"/></g><path d="M590.744 333.007a296.492 296.492 0 01-26.322 90.496l-117.837-55.858a166.089 166.089 0 0014.744-50.695l129.415 16.057z" fill="#7E44FE"/><path d="M536.314 122.14a296.502 296.502 0 0154.361 211.421l-129.384-16.3a166.096 166.096 0 00-30.452-118.434l105.475-76.687z" fill="#151515"/><path d="M564.785 422.736a296.504 296.504 0 01-359.901 155.755l40.295-124.026a166.088 166.088 0 00201.608-87.25l117.998 55.521z" fill="#FA44FE"/><path d="M204.866 578.485a296.448 296.448 0 01-51.216-22.166l62.828-114.274a166.119 166.119 0 0028.69 12.417l-40.302 124.023z" fill="#2F7617"/><path d="M153.665 556.327A296.494 296.494 0 0128.221 422.748l117.995-55.526a166.087 166.087 0 0070.271 74.828l-62.822 114.277z" fill="#287AFF"/><path d="M28.218 422.742a296.5 296.5 0 01-13.706-217.867l124.024 40.299a166.095 166.095 0 007.678 122.044L28.218 422.742z" fill="#37C87B"/><path d="M14.506 204.895A296.496 296.496 0 0180.347 93.546l95.069 89.264a166.069 166.069 0 00-36.883 62.375l-124.027-40.29z" fill="#DB44FE"/><path d="M80.372 93.52a296.507 296.507 0 0188.65-64.717l56.068 117.739a166.076 166.076 0 00-49.661 36.253L80.372 93.52z" fill="#B97AD7"/><path d="M169.114 28.76A296.5 296.5 0 01296.396 0l.046 130.407a166.103 166.103 0 00-71.301 16.11L169.114 28.759z" fill="#4BBC24"/><path d="M422.785 28.238a296.5 296.5 0 01113.616 94.021l-105.514 76.635a166.093 166.093 0 00-63.645-52.669l55.543-117.987z" fill="#F55151"/><path d="M296.5 0c43.645 0 86.752 9.636 126.244 28.219l-55.525 117.995a166.106 166.106 0 00-70.719-15.807V0z" fill="#FFAD28"/><path d="M324.137 71.615l8.67-19.44 1.02 1.74h-11.91l1.86-1.89v5.46h-3.63v-6.87h16.32v2.61l-8.16 18.39h-4.17zm17.711 0l14.34-21h2.94l-14.34 21h-2.94zm1.74-9.69c-.98 0-1.85-.24-2.61-.72-.76-.48-1.35-1.15-1.77-2.01-.42-.86-.63-1.87-.63-3.03 0-1.16.21-2.17.63-3.03.42-.86 1.01-1.53 1.77-2.01.76-.48 1.63-.72 2.61-.72 1.02 0 1.9.24 2.64.72.76.48 1.35 1.15 1.77 2.01.42.86.63 1.87.63 3.03 0 1.16-.21 2.17-.63 3.03-.42.86-1.01 1.53-1.77 2.01-.74.48-1.62.72-2.64.72zm.03-2.1c.8 0 1.42-.31 1.86-.93.46-.64.69-1.55.69-2.73s-.23-2.08-.69-2.7c-.44-.64-1.06-.96-1.86-.96s-1.44.32-1.92.96c-.46.64-.69 1.54-.69 2.7 0 1.16.23 2.06.69 2.7.48.64 1.12.96 1.92.96zm13.74 12c-.98 0-1.85-.24-2.61-.72-.76-.48-1.35-1.15-1.77-2.01-.42-.86-.63-1.87-.63-3.03 0-1.16.21-2.17.63-3.03.42-.86 1.01-1.53 1.77-2.01.76-.48 1.63-.72 2.61-.72 1.02 0 1.9.24 2.64.72.76.48 1.35 1.15 1.77 2.01.42.86.63 1.87.63 3.03 0 1.16-.21 2.17-.63 3.03-.42.86-1.01 1.53-1.77 2.01-.74.48-1.62.72-2.64.72zm0-2.1c.8 0 1.43-.32 1.89-.96.46-.64.69-1.54.69-2.7 0-1.16-.23-2.06-.69-2.7-.46-.64-1.09-.96-1.89-.96-.78 0-1.41.32-1.89.96-.46.62-.69 1.52-.69 2.7 0 1.18.23 2.09.69 2.73.48.62 1.11.93 1.89.93zm77.6 53.808c-1.74 0-3.25-.26-4.53-.78-1.28-.52-2.27-1.25-2.97-2.19-.7-.96-1.05-2.08-1.05-3.36 0-1.28.34-2.36 1.02-3.24.68-.88 1.66-1.55 2.94-2.01 1.28-.46 2.81-.69 4.59-.69 1.78 0 3.31.23 4.59.69 1.3.46 2.29 1.14 2.97 2.04.7.88 1.05 1.95 1.05 3.21 0 1.28-.36 2.4-1.08 3.36-.7.94-1.7 1.67-3 2.19-1.28.52-2.79.78-4.53.78zm0-3.06c1.44 0 2.58-.3 3.42-.9.84-.6 1.26-1.43 1.26-2.49 0-1.04-.42-1.86-1.26-2.46-.84-.6-1.98-.9-3.42-.9s-2.57.3-3.39.9c-.82.6-1.23 1.42-1.23 2.46 0 1.06.41 1.89 1.23 2.49.82.6 1.95.9 3.39.9zm0-7.17c-1.62 0-3.01-.21-4.17-.63-1.16-.44-2.06-1.07-2.7-1.89-.62-.84-.93-1.84-.93-3 0-1.2.32-2.23.96-3.09.66-.88 1.58-1.56 2.76-2.04 1.18-.48 2.54-.72 4.08-.72 1.56 0 2.93.24 4.11.72 1.18.48 2.1 1.16 2.76 2.04.66.86.99 1.89.99 3.09 0 1.16-.32 2.16-.96 3-.62.82-1.52 1.45-2.7 1.89-1.18.42-2.58.63-4.2.63zm0-2.4c1.24 0 2.22-.26 2.94-.78.72-.54 1.08-1.26 1.08-2.16 0-.94-.37-1.67-1.11-2.19-.74-.52-1.71-.78-2.91-.78-1.2 0-2.16.26-2.88.78-.72.52-1.08 1.25-1.08 2.19 0 .9.35 1.62 1.05 2.16.72.52 1.69.78 2.91.78zm13.787 12.33l14.34-21h2.94l-14.34 21h-2.94zm1.74-9.69c-.98 0-1.85-.24-2.61-.72-.76-.48-1.35-1.15-1.77-2.01-.42-.86-.63-1.87-.63-3.03 0-1.16.21-2.17.63-3.03.42-.86 1.01-1.53 1.77-2.01.76-.48 1.63-.72 2.61-.72 1.02 0 1.9.24 2.64.72.76.48 1.35 1.15 1.77 2.01.42.86.63 1.87.63 3.03 0 1.16-.21 2.17-.63 3.03-.42.86-1.01 1.53-1.77 2.01-.74.48-1.62.72-2.64.72zm.03-2.1c.8 0 1.42-.31 1.86-.93.46-.64.69-1.55.69-2.73s-.23-2.08-.69-2.7c-.44-.64-1.06-.96-1.86-.96s-1.44.32-1.92.96c-.46.64-.69 1.54-.69 2.7 0 1.16.23 2.06.69 2.7.48.64 1.12.96 1.92.96zm13.74 12c-.98 0-1.85-.24-2.61-.72-.76-.48-1.35-1.15-1.77-2.01-.42-.86-.63-1.87-.63-3.03 0-1.16.21-2.17.63-3.03.42-.86 1.01-1.53 1.77-2.01.76-.48 1.63-.72 2.61-.72 1.02 0 1.9.24 2.64.72.76.48 1.35 1.15 1.77 2.01.42.86.63 1.87.63 3.03 0 1.16-.21 2.17-.63 3.03-.42.86-1.01 1.53-1.77 2.01-.74.48-1.62.72-2.64.72zm0-2.1c.8 0 1.43-.32 1.89-.96.46-.64.69-1.54.69-2.7 0-1.16-.23-2.06-.69-2.7-.46-.64-1.09-.96-1.89-.96-.78 0-1.41.32-1.89.96-.46.62-.69 1.52-.69 2.7 0 1.18.23 2.09.69 2.73.48.62 1.11.93 1.89.93zm26.589 124.331v-19.5l1.71 1.77h-6.15v-3.27h8.34v21h-3.9zm7.796 0v-2.61l8.34-7.92c.7-.66 1.22-1.24 1.56-1.74.34-.5.56-.96.66-1.38.12-.44.18-.85.18-1.23 0-.96-.33-1.7-.99-2.22-.66-.54-1.63-.81-2.91-.81-1.02 0-1.95.18-2.79.54-.82.36-1.53.91-2.13 1.65l-2.73-2.1c.82-1.1 1.92-1.95 3.3-2.55 1.4-.62 2.96-.93 4.68-.93 1.52 0 2.84.25 3.96.75 1.14.48 2.01 1.17 2.61 2.07.62.9.93 1.97.93 3.21 0 .68-.09 1.36-.27 2.04-.18.66-.52 1.36-1.02 2.1s-1.23 1.57-2.19 2.49l-7.17 6.81-.81-1.47h12.27v3.3h-15.48zm20.964 0l14.34-21h2.94l-14.34 21h-2.94zm1.74-9.69c-.98 0-1.85-.24-2.61-.72-.76-.48-1.35-1.15-1.77-2.01-.42-.86-.63-1.87-.63-3.03 0-1.16.21-2.17.63-3.03.42-.86 1.01-1.53 1.77-2.01.76-.48 1.63-.72 2.61-.72 1.02 0 1.9.24 2.64.72.76.48 1.35 1.15 1.77 2.01.42.86.63 1.87.63 3.03 0 1.16-.21 2.17-.63 3.03-.42.86-1.01 1.53-1.77 2.01-.74.48-1.62.72-2.64.72zm.03-2.1c.8 0 1.42-.31 1.86-.93.46-.64.69-1.55.69-2.73s-.23-2.08-.69-2.7c-.44-.64-1.06-.96-1.86-.96s-1.44.32-1.92.96c-.46.64-.69 1.54-.69 2.7 0 1.16.23 2.06.69 2.7.48.64 1.12.96 1.92.96zm13.74 12c-.98 0-1.85-.24-2.61-.72-.76-.48-1.35-1.15-1.77-2.01-.42-.86-.63-1.87-.63-3.03 0-1.16.21-2.17.63-3.03.42-.86 1.01-1.53 1.77-2.01.76-.48 1.63-.72 2.61-.72 1.02 0 1.9.24 2.64.72.76.48 1.35 1.15 1.77 2.01.42.86.63 1.87.63 3.03 0 1.16-.21 2.17-.63 3.03-.42.86-1.01 1.53-1.77 2.01-.74.48-1.62.72-2.64.72zm0-2.1c.8 0 1.43-.32 1.89-.96.46-.64.69-1.54.69-2.7 0-1.16-.23-2.06-.69-2.7-.46-.64-1.09-.96-1.89-.96-.78 0-1.41.32-1.89.96-.46.62-.69 1.52-.69 2.7 0 1.18.23 2.09.69 2.73.48.62 1.11.93 1.89.93zm-34.667 122.23c-1.48 0-2.93-.21-4.35-.63-1.4-.44-2.58-1.04-3.54-1.8l1.65-3.03c.76.62 1.68 1.12 2.76 1.5 1.1.38 2.24.57 3.42.57 1.38 0 2.46-.29 3.24-.87.8-.58 1.2-1.36 1.2-2.34 0-.66-.17-1.24-.51-1.74-.32-.5-.9-.88-1.74-1.14-.82-.26-1.95-.39-3.39-.39h-5.07l1.08-11.43h12.33v3.27h-10.89l2.04-1.86-.81 8.55-2.04-1.83h4.23c2.08 0 3.75.28 5.01.84 1.28.54 2.21 1.3 2.79 2.28.6.96.9 2.06.9 3.3 0 1.22-.3 2.34-.9 3.36-.6 1.02-1.52 1.84-2.76 2.46-1.22.62-2.77.93-4.65.93zm13.207-.3l14.34-21h2.94l-14.34 21h-2.94zm1.74-9.69c-.98 0-1.85-.24-2.61-.72-.76-.48-1.35-1.15-1.77-2.01-.42-.86-.63-1.87-.63-3.03 0-1.16.21-2.17.63-3.03.42-.86 1.01-1.53 1.77-2.01.76-.48 1.63-.72 2.61-.72 1.02 0 1.9.24 2.64.72.76.48 1.35 1.15 1.77 2.01.42.86.63 1.87.63 3.03 0 1.16-.21 2.17-.63 3.03-.42.86-1.01 1.53-1.77 2.01-.74.48-1.62.72-2.64.72zm.03-2.1c.8 0 1.42-.31 1.86-.93.46-.64.69-1.55.69-2.73s-.23-2.08-.69-2.7c-.44-.64-1.06-.96-1.86-.96s-1.44.32-1.92.96c-.46.64-.69 1.54-.69 2.7 0 1.16.23 2.06.69 2.7.48.64 1.12.96 1.92.96zm13.74 12c-.98 0-1.85-.24-2.61-.72-.76-.48-1.35-1.15-1.77-2.01-.42-.86-.63-1.87-.63-3.03 0-1.16.21-2.17.63-3.03.42-.86 1.01-1.53 1.77-2.01.76-.48 1.63-.72 2.61-.72 1.02 0 1.9.24 2.64.72.76.48 1.35 1.15 1.77 2.01.42.86.63 1.87.63 3.03 0 1.16-.21 2.17-.63 3.03-.42.86-1.01 1.53-1.77 2.01-.74.48-1.62.72-2.64.72zm0-2.1c.8 0 1.43-.32 1.89-.96.46-.64.69-1.54.69-2.7 0-1.16-.23-2.06-.69-2.7-.46-.64-1.09-.96-1.89-.96-.78 0-1.41.32-1.89.96-.46.62-.69 1.52-.69 2.7 0 1.18.23 2.09.69 2.73.48.62 1.11.93 1.89.93zM367.061 508.563v-2.61l8.34-7.92c.7-.66 1.22-1.24 1.56-1.74.34-.5.56-.96.66-1.38.12-.44.18-.85.18-1.23 0-.96-.33-1.7-.99-2.22-.66-.54-1.63-.81-2.91-.81-1.02 0-1.95.18-2.79.54-.82.36-1.53.91-2.13 1.65l-2.73-2.1c.82-1.1 1.92-1.95 3.3-2.55 1.4-.62 2.96-.93 4.68-.93 1.52 0 2.84.25 3.96.75 1.14.48 2.01 1.17 2.61 2.07.62.9.93 1.97.93 3.21 0 .68-.09 1.36-.27 2.04-.18.66-.52 1.36-1.02 2.1s-1.23 1.57-2.19 2.49l-7.17 6.81-.81-1.47h12.27v3.3h-15.48zm24.331.3c-1.48 0-2.93-.21-4.35-.63-1.4-.44-2.58-1.04-3.54-1.8l1.68-3.03c.76.62 1.68 1.12 2.76 1.5 1.08.38 2.21.57 3.39.57 1.4 0 2.49-.28 3.27-.84.78-.58 1.17-1.36 1.17-2.34 0-.96-.36-1.72-1.08-2.28-.72-.56-1.88-.84-3.48-.84h-1.92v-2.67l6-7.14.51 1.47h-11.28v-3.27h14.31v2.61l-6 7.14-2.04-1.2h1.17c2.58 0 4.51.58 5.79 1.74 1.3 1.14 1.95 2.61 1.95 4.41 0 1.18-.3 2.27-.9 3.27-.6 1-1.52 1.81-2.76 2.43-1.22.6-2.77.9-4.65.9zm13.508-.3l14.34-21h2.94l-14.34 21h-2.94zm1.74-9.69c-.98 0-1.85-.24-2.61-.72-.76-.48-1.35-1.15-1.77-2.01-.42-.86-.63-1.87-.63-3.03 0-1.16.21-2.17.63-3.03.42-.86 1.01-1.53 1.77-2.01.76-.48 1.63-.72 2.61-.72 1.02 0 1.9.24 2.64.72.76.48 1.35 1.15 1.77 2.01.42.86.63 1.87.63 3.03 0 1.16-.21 2.17-.63 3.03-.42.86-1.01 1.53-1.77 2.01-.74.48-1.62.72-2.64.72zm.03-2.1c.8 0 1.42-.31 1.86-.93.46-.64.69-1.55.69-2.73s-.23-2.08-.69-2.7c-.44-.64-1.06-.96-1.86-.96s-1.44.32-1.92.96c-.46.64-.69 1.54-.69 2.7 0 1.16.23 2.06.69 2.7.48.64 1.12.96 1.92.96zm13.74 12c-.98 0-1.85-.24-2.61-.72-.76-.48-1.35-1.15-1.77-2.01-.42-.86-.63-1.87-.63-3.03 0-1.16.21-2.17.63-3.03.42-.86 1.01-1.53 1.77-2.01.76-.48 1.63-.72 2.61-.72 1.02 0 1.9.24 2.64.72.76.48 1.35 1.15 1.77 2.01.42.86.63 1.87.63 3.03 0 1.16-.21 2.17-.63 3.03-.42.86-1.01 1.53-1.77 2.01-.74.48-1.62.72-2.64.72zm0-2.1c.8 0 1.43-.32 1.89-.96.46-.64.69-1.54.69-2.7 0-1.16-.23-2.06-.69-2.7-.46-.64-1.09-.96-1.89-.96-.78 0-1.41.32-1.89.96-.46.62-.69 1.52-.69 2.7 0 1.18.23 2.09.69 2.73.48.62 1.11.93 1.89.93zm-231.229 4.591c-1.48 0-2.93-.21-4.35-.63-1.4-.44-2.58-1.04-3.54-1.8l1.68-3.03c.76.62 1.68 1.12 2.76 1.5 1.08.38 2.21.57 3.39.57 1.4 0 2.49-.28 3.27-.84.78-.58 1.17-1.36 1.17-2.34 0-.96-.36-1.72-1.08-2.28-.72-.56-1.88-.84-3.48-.84h-1.92v-2.67l6-7.14.51 1.47h-11.28v-3.27h14.31v2.61l-6 7.14-2.04-1.2h1.17c2.58 0 4.51.58 5.79 1.74 1.3 1.14 1.95 2.61 1.95 4.41 0 1.18-.3 2.27-.9 3.27-.6 1-1.52 1.81-2.76 2.43-1.22.6-2.77.9-4.65.9zm13.508-.3l14.34-21h2.94l-14.34 21h-2.94zm1.74-9.69c-.98 0-1.85-.24-2.61-.72-.76-.48-1.35-1.15-1.77-2.01-.42-.86-.63-1.87-.63-3.03 0-1.16.21-2.17.63-3.03.42-.86 1.01-1.53 1.77-2.01.76-.48 1.63-.72 2.61-.72 1.02 0 1.9.24 2.64.72.76.48 1.35 1.15 1.77 2.01.42.86.63 1.87.63 3.03 0 1.16-.21 2.17-.63 3.03-.42.86-1.01 1.53-1.77 2.01-.74.48-1.62.72-2.64.72zm.03-2.1c.8 0 1.42-.31 1.86-.93.46-.64.69-1.55.69-2.73s-.23-2.08-.69-2.7c-.44-.64-1.06-.96-1.86-.96s-1.44.32-1.92.96c-.46.64-.69 1.54-.69 2.7 0 1.16.23 2.06.69 2.7.48.64 1.12.96 1.92.96zm13.74 12c-.98 0-1.85-.24-2.61-.72-.76-.48-1.35-1.15-1.77-2.01-.42-.86-.63-1.87-.63-3.03 0-1.16.21-2.17.63-3.03.42-.86 1.01-1.53 1.77-2.01.76-.48 1.63-.72 2.61-.72 1.02 0 1.9.24 2.64.72.76.48 1.35 1.15 1.77 2.01.42.86.63 1.87.63 3.03 0 1.16-.21 2.17-.63 3.03-.42.86-1.01 1.53-1.77 2.01-.74.48-1.62.72-2.64.72zm0-2.1c.8 0 1.43-.32 1.89-.96.46-.64.69-1.54.69-2.7 0-1.16-.23-2.06-.69-2.7-.46-.64-1.09-.96-1.89-.96-.78 0-1.41.32-1.89.96-.46.62-.69 1.52-.69 2.7 0 1.18.23 2.09.69 2.73.48.62 1.11.93 1.89.93zM99.4 459.346v-19.5l1.71 1.77h-6.15v-3.27h8.34v21h-3.9zm16.826.3c-1.66 0-3.16-.42-4.5-1.26-1.32-.84-2.36-2.06-3.12-3.66-.76-1.62-1.14-3.58-1.14-5.88s.38-4.25 1.14-5.85c.76-1.62 1.8-2.85 3.12-3.69 1.34-.84 2.84-1.26 4.5-1.26 1.68 0 3.18.42 4.5 1.26 1.32.84 2.36 2.07 3.12 3.69.78 1.6 1.17 3.55 1.17 5.85s-.39 4.26-1.17 5.88c-.76 1.6-1.8 2.82-3.12 3.66-1.32.84-2.82 1.26-4.5 1.26zm0-3.39c.98 0 1.83-.26 2.55-.78.72-.54 1.28-1.36 1.68-2.46.42-1.1.63-2.49.63-4.17 0-1.7-.21-3.09-.63-4.17-.4-1.1-.96-1.91-1.68-2.43-.72-.54-1.57-.81-2.55-.81-.94 0-1.78.27-2.52.81-.72.52-1.29 1.33-1.71 2.43-.4 1.08-.6 2.47-.6 4.17 0 1.68.2 3.07.6 4.17.42 1.1.99 1.92 1.71 2.46.74.52 1.58.78 2.52.78zm14.365 3.09l14.34-21h2.94l-14.34 21h-2.94zm1.74-9.69c-.98 0-1.85-.24-2.61-.72-.76-.48-1.35-1.15-1.77-2.01-.42-.86-.63-1.87-.63-3.03 0-1.16.21-2.17.63-3.03.42-.86 1.01-1.53 1.77-2.01.76-.48 1.63-.72 2.61-.72 1.02 0 1.9.24 2.64.72.76.48 1.35 1.15 1.77 2.01.42.86.63 1.87.63 3.03 0 1.16-.21 2.17-.63 3.03-.42.86-1.01 1.53-1.77 2.01-.74.48-1.62.72-2.64.72zm.03-2.1c.8 0 1.42-.31 1.86-.93.46-.64.69-1.55.69-2.73s-.23-2.08-.69-2.7c-.44-.64-1.06-.96-1.86-.96s-1.44.32-1.92.96c-.46.64-.69 1.54-.69 2.7 0 1.16.23 2.06.69 2.7.48.64 1.12.96 1.92.96zm13.74 12c-.98 0-1.85-.24-2.61-.72-.76-.48-1.35-1.15-1.77-2.01-.42-.86-.63-1.87-.63-3.03 0-1.16.21-2.17.63-3.03.42-.86 1.01-1.53 1.77-2.01.76-.48 1.63-.72 2.61-.72 1.02 0 1.9.24 2.64.72.76.48 1.35 1.15 1.77 2.01.42.86.63 1.87.63 3.03 0 1.16-.21 2.17-.63 3.03-.42.86-1.01 1.53-1.77 2.01-.74.48-1.62.72-2.64.72zm0-2.1c.8 0 1.43-.32 1.89-.96.46-.64.69-1.54.69-2.7 0-1.16-.23-2.06-.69-2.7-.46-.64-1.09-.96-1.89-.96-.78 0-1.41.32-1.89.96-.46.62-.69 1.52-.69 2.7 0 1.18.23 2.09.69 2.73.48.62 1.11.93 1.89.93zM38.18 320.099v-19.5l1.71 1.77h-6.15v-3.27h8.34v21h-3.9zm7.796 0v-2.61l8.34-7.92c.7-.66 1.22-1.24 1.56-1.74.34-.5.56-.96.66-1.38.12-.44.18-.85.18-1.23 0-.96-.33-1.7-.99-2.22-.66-.54-1.63-.81-2.91-.81-1.02 0-1.95.18-2.79.54-.82.36-1.53.91-2.13 1.65l-2.73-2.1c.82-1.1 1.92-1.95 3.3-2.55 1.4-.62 2.96-.93 4.68-.93 1.52 0 2.84.25 3.96.75 1.14.48 2.01 1.17 2.61 2.07.62.9.93 1.97.93 3.21 0 .68-.09 1.36-.27 2.04-.18.66-.52 1.36-1.02 2.1s-1.23 1.57-2.19 2.49l-7.17 6.81-.81-1.47h12.27v3.3h-15.48zm20.964 0l14.34-21h2.94l-14.34 21h-2.94zm1.74-9.69c-.98 0-1.85-.24-2.61-.72-.76-.48-1.35-1.15-1.77-2.01-.42-.86-.63-1.87-.63-3.03 0-1.16.21-2.17.63-3.03.42-.86 1.01-1.53 1.77-2.01.76-.48 1.63-.72 2.61-.72 1.02 0 1.9.24 2.64.72.76.48 1.35 1.15 1.77 2.01.42.86.63 1.87.63 3.03 0 1.16-.21 2.17-.63 3.03-.42.86-1.01 1.53-1.77 2.01-.74.48-1.62.72-2.64.72zm.03-2.1c.8 0 1.42-.31 1.86-.93.46-.64.69-1.55.69-2.73s-.23-2.08-.69-2.7c-.44-.64-1.06-.96-1.86-.96s-1.44.32-1.92.96c-.46.64-.69 1.54-.69 2.7 0 1.16.23 2.06.69 2.7.48.64 1.12.96 1.92.96zm13.74 12c-.98 0-1.85-.24-2.61-.72-.76-.48-1.35-1.15-1.77-2.01-.42-.86-.63-1.87-.63-3.03 0-1.16.21-2.17.63-3.03.42-.86 1.01-1.53 1.77-2.01.76-.48 1.63-.72 2.61-.72 1.02 0 1.9.24 2.64.72.76.48 1.35 1.15 1.77 2.01.42.86.63 1.87.63 3.03 0 1.16-.21 2.17-.63 3.03-.42.86-1.01 1.53-1.77 2.01-.74.48-1.62.72-2.64.72zm0-2.1c.8 0 1.43-.32 1.89-.96.46-.64.69-1.54.69-2.7 0-1.16-.23-2.06-.69-2.7-.46-.64-1.09-.96-1.89-.96-.78 0-1.41.32-1.89.96-.46.62-.69 1.52-.69 2.7 0 1.18.23 2.09.69 2.73.48.62 1.11.93 1.89.93zm-9.309-128.954l8.67-19.44 1.02 1.74h-11.91l1.86-1.89v5.46h-3.63v-6.87h16.32v2.61l-8.16 18.39h-4.17zm17.712 0l14.34-21h2.94l-14.34 21h-2.94zm1.74-9.69c-.98 0-1.85-.24-2.61-.72-.76-.48-1.35-1.15-1.77-2.01-.42-.86-.63-1.87-.63-3.03 0-1.16.21-2.17.63-3.03.42-.86 1.01-1.53 1.77-2.01.76-.48 1.63-.72 2.61-.72 1.02 0 1.9.24 2.64.72.76.48 1.35 1.15 1.77 2.01.42.86.63 1.87.63 3.03 0 1.16-.21 2.17-.63 3.03-.42.86-1.01 1.53-1.77 2.01-.74.48-1.62.72-2.64.72zm.03-2.1c.8 0 1.42-.31 1.86-.93.46-.64.69-1.55.69-2.73s-.23-2.08-.69-2.7c-.44-.64-1.06-.96-1.86-.96s-1.44.32-1.92.96c-.46.64-.69 1.54-.69 2.7 0 1.16.23 2.06.69 2.7.48.64 1.12.96 1.92.96zm13.74 12c-.98 0-1.85-.24-2.61-.72-.76-.48-1.35-1.15-1.77-2.01-.42-.86-.63-1.87-.63-3.03 0-1.16.21-2.17.63-3.03.42-.86 1.01-1.53 1.77-2.01.76-.48 1.63-.72 2.61-.72 1.02 0 1.9.24 2.64.72.76.48 1.35 1.15 1.77 2.01.42.86.63 1.87.63 3.03 0 1.16-.21 2.17-.63 3.03-.42.86-1.01 1.53-1.77 2.01-.74.48-1.62.72-2.64.72zm0-2.1c.8 0 1.43-.32 1.89-.96.46-.64.69-1.54.69-2.7 0-1.16-.23-2.06-.69-2.7-.46-.64-1.09-.96-1.89-.96-.78 0-1.41.32-1.89.96-.46.62-.69 1.52-.69 2.7 0 1.18.23 2.09.69 2.73.48.62 1.11.93 1.89.93zm34.778-69.834c-1.9 0-3.53-.4-4.89-1.2-1.36-.82-2.4-2-3.12-3.54-.72-1.54-1.08-3.44-1.08-5.7 0-2.4.43-4.43 1.29-6.09.88-1.66 2.09-2.92 3.63-3.78 1.56-.86 3.35-1.29 5.37-1.29 1.06 0 2.07.11 3.03.33.98.22 1.81.56 2.49 1.02l-1.44 2.94c-.58-.38-1.21-.64-1.89-.78-.66-.16-1.36-.24-2.1-.24-1.98 0-3.55.61-4.71 1.83-1.16 1.22-1.74 3.02-1.74 5.4 0 .38.01.83.03 1.35.02.5.09 1.01.21 1.53l-1.2-1.32c.36-.82.85-1.5 1.47-2.04.64-.56 1.39-.98 2.25-1.26a9.35 9.35 0 012.85-.42c1.38 0 2.61.27 3.69.81 1.08.52 1.94 1.27 2.58 2.25.64.96.96 2.09.96 3.39 0 1.38-.34 2.58-1.02 3.6-.68 1.02-1.6 1.81-2.76 2.37-1.16.56-2.46.84-3.9.84zm-.21-3.06c.8 0 1.51-.14 2.13-.42.62-.3 1.1-.72 1.44-1.26.36-.54.54-1.17.54-1.89 0-1.1-.38-1.97-1.14-2.61-.76-.64-1.78-.96-3.06-.96-.84 0-1.58.16-2.22.48-.62.3-1.12.72-1.5 1.26-.36.54-.54 1.16-.54 1.86 0 .64.17 1.23.51 1.77.34.54.83.97 1.47 1.29.66.32 1.45.48 2.37.48zm12.283 2.76l14.34-21h2.94l-14.34 21h-2.94zm1.74-9.69c-.98 0-1.85-.24-2.61-.72-.76-.48-1.35-1.15-1.77-2.01-.42-.86-.63-1.87-.63-3.03 0-1.16.21-2.17.63-3.03.42-.86 1.01-1.53 1.77-2.01.76-.48 1.63-.72 2.61-.72 1.02 0 1.9.24 2.64.72.76.48 1.35 1.15 1.77 2.01.42.86.63 1.87.63 3.03 0 1.16-.21 2.17-.63 3.03-.42.86-1.01 1.53-1.77 2.01-.74.48-1.62.72-2.64.72zm.03-2.1c.8 0 1.42-.31 1.86-.93.46-.64.69-1.55.69-2.73s-.23-2.08-.69-2.7c-.44-.64-1.06-.96-1.86-.96s-1.44.32-1.92.96c-.46.64-.69 1.54-.69 2.7 0 1.16.23 2.06.69 2.7.48.64 1.12.96 1.92.96zm13.74 12c-.98 0-1.85-.24-2.61-.72-.76-.48-1.35-1.15-1.77-2.01-.42-.86-.63-1.87-.63-3.03 0-1.16.21-2.17.63-3.03.42-.86 1.01-1.53 1.77-2.01.76-.48 1.63-.72 2.61-.72 1.02 0 1.9.24 2.64.72.76.48 1.35 1.15 1.77 2.01.42.86.63 1.87.63 3.03 0 1.16-.21 2.17-.63 3.03-.42.86-1.01 1.53-1.77 2.01-.74.48-1.62.72-2.64.72zm0-2.1c.8 0 1.43-.32 1.89-.96.46-.64.69-1.54.69-2.7 0-1.16-.23-2.06-.69-2.7-.46-.64-1.09-.96-1.89-.96-.78 0-1.41.32-1.89.96-.46.62-.69 1.52-.69 2.7 0 1.18.23 2.09.69 2.73.48.62 1.11.93 1.89.93zm53.268-43.726l8.67-19.44 1.02 1.74h-11.91l1.86-1.89v5.46h-3.63v-6.87h16.32v2.61l-8.16 18.39h-4.17zm17.711 0l14.34-21h2.94l-14.34 21h-2.94zm1.74-9.69c-.98 0-1.85-.24-2.61-.72-.76-.48-1.35-1.15-1.77-2.01-.42-.86-.63-1.87-.63-3.03 0-1.16.21-2.17.63-3.03.42-.86 1.01-1.53 1.77-2.01.76-.48 1.63-.72 2.61-.72 1.02 0 1.9.24 2.64.72.76.48 1.35 1.15 1.77 2.01.42.86.63 1.87.63 3.03 0 1.16-.21 2.17-.63 3.03-.42.86-1.01 1.53-1.77 2.01-.74.48-1.62.72-2.64.72zm.03-2.1c.8 0 1.42-.31 1.86-.93.46-.64.69-1.55.69-2.73s-.23-2.08-.69-2.7c-.44-.64-1.06-.96-1.86-.96s-1.44.32-1.92.96c-.46.64-.69 1.54-.69 2.7 0 1.16.23 2.06.69 2.7.48.64 1.12.96 1.92.96zm13.74 12c-.98 0-1.85-.24-2.61-.72-.76-.48-1.35-1.15-1.77-2.01-.42-.86-.63-1.87-.63-3.03 0-1.16.21-2.17.63-3.03.42-.86 1.01-1.53 1.77-2.01.76-.48 1.63-.72 2.61-.72 1.02 0 1.9.24 2.64.72.76.48 1.35 1.15 1.77 2.01.42.86.63 1.87.63 3.03 0 1.16-.21 2.17-.63 3.03-.42.86-1.01 1.53-1.77 2.01-.74.48-1.62.72-2.64.72zm0-2.1c.8 0 1.43-.32 1.89-.96.46-.64.69-1.54.69-2.7 0-1.16-.23-2.06-.69-2.7-.46-.64-1.09-.96-1.89-.96-.78 0-1.41.32-1.89.96-.46.62-.69 1.52-.69 2.7 0 1.18.23 2.09.69 2.73.48.62 1.11.93 1.89.93z" fill="#fff"/><defs><clipPath id="clip0_196_291"><path fill="#fff" transform="translate(201.668 210.071)" d="M0 0h189.644v189.644H0z"/></clipPath></defs></svg>