<svg width="180" height="181" fill="none" xmlns="http://www.w3.org/2000/svg"><g clip-path="url(#clip0_184_150)" fill="#7A18D5"><path d="M4.295.788h170.957l-1.936 20.813-166.504-.387L4.295.788zM36.05 111.532l55.857 44.143 2.173 12.743-2.173 12.136-72.12-57.115 16.263-11.907z"/><path d="M35.073 100.981l1.065 10.842-6.343 7.565-10.017 4.051-4.744-37.56 20.039 15.102zm111.234 11.133l-54.404 43.562-1.065 12.294 1.065 12.585 71.054-57.599-4.287-18.807-12.363 7.965zM62.181 90.525h69.796l-6.873 18.103h-67.86l4.937-18.103zM6.764 20.556l20.477-1.472 3.775 47.725-17.521 8.325-6.731-54.578z"/><path d="M13.484 75.135l17.328-8.81L63.63 90.72l-6.397 17.909-43.748-33.494z"/><path d="M13.484 75.135l17.328-8.81L63.63 90.72l-6.397 17.909-43.748-33.494zm142.207-55.826l17.812.163-4.84 49.467-16.456-13.746 3.484-35.884zM56.963 43.575h70.28v18.199h-70.28z"/><path d="M127.26 43.575l40.063 33.107-15.392 10.842-36.558-29.234 11.887-14.715z"/><path d="M167.316 76.682l-4.356 46.273-16.65-10.842 2.571-36.399 18.435.968zM34.113 62.452L56.96 43.575l12.295 11.907-20.717 17.135-14.424-10.165zm85.379 27.978l13.359-10.939 11.423 10.745-19.167 18.393-5.615-18.2z"/></g><defs><clipPath id="clip0_184_150"><path fill="#fff" transform="translate(0 .137)" d="M0 0h180v180H0z"/></clipPath></defs></svg>