<svg width="272" height="313" fill="none" xmlns="http://www.w3.org/2000/svg"><path d="M63.46 241.808l.257-.256-.256.256z" fill="#fff" stroke="#262626" stroke-width=".75" stroke-miterlimit="10" stroke-linecap="round" stroke-linejoin="round"/><path d="M17.895 212.37c0 2.56 1.791 5.887 4.095 7.167l38.398 22.271c1.28.768 2.304.768 3.072.256h.256l.256-.256c.256-.256.512-.512.512-.768s.256-.256.256-.512v-45.054c0-2.559-1.792-5.887-4.096-7.167l-38.398-22.271c-.256-.256-.768-.256-1.024-.512-.512-.256-1.024-.256-1.28 0h-.256c-.768.512-1.28 1.28-1.28 2.56l-.511 44.286z" fill="#E84142" stroke="#262626" stroke-width=".75" stroke-miterlimit="10" stroke-linecap="round" stroke-linejoin="round"/><path d="M19.43 165.524c.256 0 .256 0 .512-.256h1.28c.256 0 .512.256 1.024.512l38.398 22.271c2.303 1.28 4.096 4.608 4.096 7.167v45.054c0 .256 0 .256-.256.512 0 .256-.256.512-.512.768l-.257.256 11.776-6.912c.768-.512 1.28-1.279 1.28-2.559v-44.03c0-2.56-1.792-5.888-4.096-7.168l-38.398-22.271c-1.024-.768-2.304-.768-3.072-.256l-11.775 6.912z" fill="#fff" stroke="#262626" stroke-width=".75" stroke-miterlimit="10" stroke-linecap="round" stroke-linejoin="round"/><path d="M35.557 188.051c-.512-.256-.768-.512-1.28-.512-4.096-1.536-5.888 3.584-3.072 8.703l9.472 19.199c.256.256.256.512.512.512s.512.256.512 0l9.471-8.191c2.56-2.304 1.024-9.216-3.072-12.288-.512-.256-.768-.512-1.28-.768-2.303-1.28-4.352-1.024-5.375.256h-.256c-.256 0-.256-.256-.256-.512-1.28-2.559-3.072-5.119-5.376-6.399z" fill="#fff" stroke="#262626" stroke-width=".75" stroke-miterlimit="10" stroke-linecap="round" stroke-linejoin="round"/><path d="M25.319 72.344l37.118 21.503c1.024.512 1.792.512 2.304.256.512-.256 1.024-1.024 1.024-2.048v-41.47c0-2.047-1.536-4.863-3.328-5.887L17.895 18.843l-1.536-.768-12.031-6.912c-1.024-.512-1.792-.512-2.304-.256C1.512 11.163 1 11.931 1 12.955v42.238c0 1.792 1.28 3.84 2.816 4.864l6.4 3.84 15.103 8.447z" fill="#ADADAD" stroke="#262626" stroke-width=".75" stroke-miterlimit="10" stroke-linecap="round" stroke-linejoin="round"/><path d="M44.773 59.033c0 2.048 1.536 4.608 3.328 5.632 1.792 1.024 3.328.256 3.328-1.792s-1.536-4.608-3.328-5.632c-1.792-1.28-3.328-.256-3.328 1.792zm-14.589-8.448c0 2.048 1.535 4.608 3.327 5.632s3.328.256 3.328-1.792-1.536-4.608-3.328-5.632c-1.792-1.024-3.327-.256-3.327 1.792zm-14.336-8.191c0 2.048 1.536 4.608 3.327 5.632 1.792 1.024 3.328.256 3.328-1.792s-1.536-4.608-3.328-5.632c-1.791-1.28-3.327-.512-3.327 1.792z" fill="#fff" stroke="#262626" stroke-width=".75" stroke-miterlimit="10" stroke-linecap="round" stroke-linejoin="round"/><path d="M2.023 10.907c.512-.256 1.536-.256 2.304.256l12.032 6.912 1.536.768 44.541 25.855c1.792 1.024 3.328 3.584 3.328 5.887v41.47c0 1.024-.256 1.792-1.024 2.048l7.68-4.352L80.1 85.4h.256c.512-.256 1.023-1.024 1.023-2.048V42.138c0-2.048-1.535-4.864-3.327-5.888L19.942 2.46c-1.023-.512-1.791-.512-2.303-.256l-.256.256-15.36 8.447z" fill="#fff" stroke="#262626" stroke-width=".75" stroke-miterlimit="10" stroke-linecap="round" stroke-linejoin="round"/><path d="M72.934 236.432c0 6.144 4.352 13.824 9.727 16.895l99.323 57.342c2.816 1.536 5.376 1.792 7.168.512.256 0 .256-.256.512-.256s.256-.256.512-.256c0 0 .256-.256.256-.512.256-.256.512-.512.512-1.024 0-.256.256-.256.256-.512s.256-.512.256-.768v-59.389l.256-57.341v-16.384l.256-56.317V87.448c0-6.144-4.352-13.824-9.728-16.895l-22.27-12.8-18.432-10.495-28.926-16.64-3.072-1.791-26.623-15.36c-.512-.256-.768-.512-1.28-.512-1.28-.511-2.56-.768-3.84-.768h-1.022c-.256 0-.768.256-1.024.512-1.792 1.024-2.816 3.072-2.816 6.4v30.719l-.512 155.64.512 30.974z" fill="#fff" stroke="#262626" stroke-width=".75" stroke-miterlimit="10" stroke-linecap="round" stroke-linejoin="round"/><path d="M183.266 264.847c0 2.304-1.536 3.072-3.584 2.048l-95.739-55.294c-2.048-1.024-3.584-3.839-3.584-6.143l.512-147.449c0-2.304 1.536-3.072 3.584-2.048l95.739 55.293c2.048 1.024 3.584 3.84 3.584 6.144l-.512 147.449z" fill="#7A18D5" stroke="#262626" stroke-width=".75" stroke-miterlimit="10" stroke-linecap="round" stroke-linejoin="round"/><path d="M183.266 264.847c0 2.304-1.536 3.072-3.584 2.048l-95.739-55.294c-2.048-1.024-3.584-3.839-3.584-6.143l.512-147.449c0-2.304 1.536-3.072 3.584-2.048l95.739 55.293c2.048 1.024 3.584 3.84 3.584 6.144l-.512 147.449z" stroke="#262626" stroke-width=".75" stroke-miterlimit="10" stroke-linecap="round" stroke-linejoin="round"/><path d="M209.631 69.272l-18.943 10.496c-1.792-3.84-4.608-7.168-7.936-9.216l-22.27-12.799-18.432-10.495-28.926-16.64-3.072-1.791-26.623-15.36c-.512-.256-.768-.512-1.28-.512-1.28-.512-2.56-.768-3.84-.768h-1.022c-.256 0-.768.256-1.024.512L94.949 1.692C96.74.668 99.3.668 101.86 2.46l99.323 57.34c3.584 1.793 6.656 5.377 8.448 9.472z" fill="#fff" stroke="#262626" stroke-width=".75" stroke-miterlimit="10" stroke-linecap="round" stroke-linejoin="round"/><path d="M211.166 76.696v30.974l-17.919 10.496-.768.512V87.703c0-2.56-.768-5.12-1.791-7.68l18.943-10.495c1.023 2.048 1.535 4.608 1.535 7.168z" fill="#262626" stroke="#262626" stroke-width=".75" stroke-miterlimit="10" stroke-linecap="round" stroke-linejoin="round"/><path d="M188.898 311.18l18.687-11.007c1.792-1.024 2.816-3.328 2.816-6.4v-30.974l-18.687 11.007v33.791c0 .256-.256.512-.256.768s-.256.256-.256.512c-.256.256-.512.767-.512 1.023 0 .256-.256.256-.256.512-.256 0-.256.256-.512.256-.512.256-.768.512-1.024.512.256 0 .256 0 0 0z" fill="#262626"/><path d="M188.898 311.18l18.687-11.007c1.792-1.024 2.816-3.328 2.816-6.4v-30.974l-18.687 11.007v33.791c0 .256-.256.512-.256.768s-.256.256-.256.512c-.256.256-.512.767-.512 1.023 0 .256-.256.256-.256.512-.256 0-.256.256-.512.256-.512.256-.768.512-1.024.512zm0 0c.256 0 .256 0 0 0z" stroke="#262626" stroke-width=".75" stroke-miterlimit="10" stroke-linecap="round" stroke-linejoin="round"/><path d="M191.973 274.062l18.687-11.007.512-155.64-17.919 10.495-.768.512-.256 56.317v16.383l-.256 57.342v25.598z" fill="#262626" stroke="#262626" stroke-width=".75" stroke-miterlimit="10" stroke-linecap="round" stroke-linejoin="round"/><path d="M126.945 164.5c.768.255 1.792.511 2.56 1.023-1.024-.512-1.792-.768-2.56-1.023zm-19.457 15.103c.768-10.24 6.144-15.871 14.08-15.871h1.28c.511 0 .767 0 1.279.256.512 0 .768.256 1.28.256-.256 0-.768-.256-1.024-.256s-.768 0-1.024-.256c-8.703-1.024-15.103 4.863-15.871 15.871zm13.571-32.767c0 7.424 5.119 16.64 11.775 20.223 6.4 3.84 11.775.768 11.775-6.655 0-7.424-5.119-16.639-11.775-20.223-6.656-3.84-11.775-1.024-11.775 6.655z" fill="#fff" stroke="#262626" stroke-width=".75" stroke-miterlimit="10" stroke-linecap="round" stroke-linejoin="round"/><path d="M107.488 179.603c.768-10.24 6.144-15.871 14.08-15.871h1.791c-8.703-1.024-15.103 4.863-15.871 15.871zm16.895-15.615c-.256 0-.768 0-1.024-.256h.768l.256.256z" fill="#fff" stroke="#262626" stroke-width=".75" stroke-miterlimit="10" stroke-linecap="round" stroke-linejoin="round"/><path d="M107.49 181.651v-2.048c.768-11.007 7.168-16.895 15.871-15.871.256 0 .512 0 1.024.256.256 0 .768 0 1.024.256.512 0 1.024.256 1.536.512.768.256 1.792.512 2.56 1.024 1.024.512 2.304 1.024 3.328 1.536-6.4-3.84-11.776-12.8-11.776-20.223 0-7.424 5.376-10.496 11.776-6.656 6.4 3.84 11.775 12.799 11.775 20.223 0 7.424-5.375 10.495-11.775 6.656 13.823 7.935 25.087 27.646 25.087 43.773 8.447-3.327 13.823-12.543 14.079-26.366 0-24.831-17.407-55.037-38.91-67.581-21.503-12.543-39.166-2.304-39.166 22.271-.256 13.823 5.12 29.183 13.567 42.238z" fill="#262626" stroke="#262626" stroke-width=".75" stroke-miterlimit="10" stroke-linecap="round" stroke-linejoin="round"/><path d="M107.49 181.395c6.656 10.751 15.616 19.711 25.087 25.343 9.472 5.631 18.431 6.655 25.087 3.839 0-15.871-11.264-35.582-25.087-43.773-1.024-.512-2.304-1.28-3.328-1.536-.768-.256-1.792-.768-2.56-1.024-.512-.256-1.024-.256-1.536-.512-.511 0-.767-.256-1.279-.256-.512 0-.768 0-1.28-.256h-1.28c-7.936 0-13.312 5.887-14.08 15.871.256 1.28.256 1.792.256 2.304z" fill="#fff" stroke="#262626" stroke-width=".75" stroke-miterlimit="10" stroke-linecap="round" stroke-linejoin="round"/><path d="M123.363 255.631l18.175 10.496M123.875 57.753l18.431 10.495" stroke="#262626" stroke-width=".75" stroke-miterlimit="10" stroke-linecap="round" stroke-linejoin="round"/><path d="M200.668 242.064c0 3.328 2.304 7.168 5.12 8.959l46.589 27.135c1.536.768 2.816 1.024 3.84.256l.256-.256c.768-.512 1.28-1.536 1.28-3.072v-6.655l-2.048-3.584-6.143-10.752c-1.28-2.304-3.072-4.095-4.864-5.119-1.792-1.024-3.584-1.28-4.864-.512-1.28.768-3.072.512-4.864-.512-1.792-1.024-3.584-2.816-4.863-5.12l-5.888-10.24c-1.28-2.304-3.072-4.095-4.864-5.119-1.792-1.024-3.584-1.28-4.864-.512l-.512.256-13.055 7.423-.256 7.424z" fill="#ADADAD" stroke="#262626" stroke-width=".75" stroke-miterlimit="10" stroke-linecap="round" stroke-linejoin="round"/><path d="M200.668 234.896l13.055-7.423.512-.256c1.28-.768 3.072-.512 4.864.512 1.792 1.024 3.584 2.816 4.864 5.119l5.888 10.24c1.279 2.304 3.071 4.096 4.863 5.12 1.792 1.024 3.584 1.28 4.864.512 1.28-.768 3.072-.512 4.864.512 1.792 1.024 3.584 2.815 4.864 5.119l6.143 10.752 2.048 3.584v-2.56l.256-35.838c0-3.328-2.304-7.168-5.12-8.96l-46.589-27.135c-1.28-.768-2.56-.768-3.584-.512-1.024.512-1.536 1.792-1.792 3.328v37.886z" fill="#fff" stroke="#262626" stroke-width=".75" stroke-miterlimit="10" stroke-linecap="round" stroke-linejoin="round"/><path d="M240.348 237.2c-2.304-1.28-4.352-4.864-4.352-7.423 0-2.816 2.048-3.84 4.352-2.56 2.304 1.28 4.352 4.863 4.352 7.423 0 2.816-2.048 4.096-4.352 2.56z" fill="#FFAD28" stroke="#262626" stroke-width=".75" stroke-miterlimit="10" stroke-linecap="round" stroke-linejoin="round"/><path d="M256.475 278.158l-.256.256" stroke="#262626" stroke-width=".75" stroke-miterlimit="10" stroke-linecap="round" stroke-linejoin="round"/><path d="M202.715 193.682c1.024-.512 2.048-.256 3.584.512l46.589 27.135c2.816 1.536 5.12 5.631 5.12 8.959l-.256 35.839v9.215c0 1.536-.512 2.56-1.28 3.072l12.544-7.168c.256 0 .256 0 .512-.256.767-.512 1.279-1.536 1.279-3.072v-6.655l.256-38.398c0-3.328-2.303-7.168-5.119-8.96l-46.59-27.135c-1.28-.767-2.56-1.023-3.584-.511l-13.055 7.423zM245.98 170.9c.256 0 .256-.256 0 0l.256-.256-.256.256z" fill="#fff" stroke="#262626" stroke-width=".75" stroke-miterlimit="10" stroke-linecap="round" stroke-linejoin="round"/><path d="M200.668 141.205c0 2.56 1.792 5.887 4.096 7.167l38.398 22.271c1.28.768 2.304.768 3.072.256h.256l.256-.256c.256-.256.512-.512.512-.768s.256-.256.256-.512V124.31c0-2.56-1.792-5.888-4.096-7.168L205.02 94.871c-.256-.256-.768-.256-1.024-.512-.512-.256-1.024-.256-1.28 0h-.256c-.768.512-1.28 1.28-1.28 2.56l-.512 44.286z" fill="#FFAD28" stroke="#262626" stroke-width=".75" stroke-miterlimit="10" stroke-linecap="round" stroke-linejoin="round"/><path d="M201.949 94.615c.256 0 .256-.256 0 0 .256 0 .256 0 .512-.256h1.28c.256 0 .512.256 1.024.512l38.398 22.271c2.304 1.28 4.096 4.608 4.096 7.168v45.053c0 .256 0 .256-.256.512 0 .256-.256.512-.512.768l-.256.256 11.775-6.911c.768-.512 1.28-1.28 1.28-2.56v-44.03c0-2.56-1.792-5.888-4.095-7.168l-38.399-22.27c-1.024-.768-2.303-.768-3.071-.256l-11.776 6.911z" fill="#fff" stroke="#262626" stroke-width=".75" stroke-miterlimit="10" stroke-linecap="round" stroke-linejoin="round"/></svg>