<svg width="235" height="313" fill="none" xmlns="http://www.w3.org/2000/svg"><path d="M161.01 238.082l-.072.036-.058.058-.214.214-.691.461-5.714 3.229-.01.006-.009.006c-.9.562-2.11.858-3.347.858-1.238 0-2.448-.296-3.348-.858l-.008-.006-.009-.004-10.455-5.974-.009-.006-2.482-1.489h0l-.008-.005-25.164-14.45h0l-13.445-7.719-1.937-1.211-.209-.208-.057-.058-.073-.036c-.883-.442-1.218-1.043-1.218-1.546v-.249c0-.503.335-1.105 1.218-1.546l.016-.008.016-.009 6.711-3.977c.907-.45 2.126-.687 3.373-.687 1.248 0 2.469.238 3.377.689l12.695 7.218.305.174.267-.229c5.345-4.581 8.396-11.448 8.396-18.318v-21.717l24.163 16.747v22.41c0 5.817-2.911 11.399-7.519 14.795l-.615.453.661.383 4.733 2.74.004.002 10.871 6.177c.344.461.614.845.801 1.193.197.365.283.655.283.915 0 .503-.336 1.105-1.219 1.546z" fill="#fff" stroke="#262626"/><mask id="a" fill="#fff"><path d="M153.015 203.899c-2.99-2.243-6.229-3.987-9.468-5.731-.996-.498-2.242-.996-3.239-.747-1.245.249-2.242 1.495-2.989 2.491-1.495 2.243-2.741 4.485-4.236 6.727-1.495 2.242-3.488 3.986-5.73 5.232-2.491.997-5.481.997-7.474-.747 3.986-2.99 6.478-7.724 7.474-12.457.997-4.983.997-10.713.748-15.696 1.245.747 6.726 4.733 10.214 6.228 3.987 1.744 7.973 4.236 11.71 6.478.997.498 1.993 1.246 2.491 2.242.997 1.744.499 3.737 0 5.73"/></mask><path d="M153.015 203.899c-2.99-2.243-6.229-3.987-9.468-5.731-.996-.498-2.242-.996-3.239-.747-1.245.249-2.242 1.495-2.989 2.491-1.495 2.243-2.741 4.485-4.236 6.727-1.495 2.242-3.488 3.986-5.73 5.232-2.491.997-5.481.997-7.474-.747 3.986-2.99 6.478-7.724 7.474-12.457.997-4.983.997-10.713.748-15.696 1.245.747 6.726 4.733 10.214 6.228 3.987 1.744 7.973 4.236 11.71 6.478.997.498 1.993 1.246 2.491 2.242.997 1.744.499 3.737 0 5.73" fill="#ADADAD"/><path d="M143.547 198.168l.474-.88-.013-.007-.014-.007-.447.894zm-3.239-.747l.197.98.023-.004.023-.006-.243-.97zm-2.989 2.491l-.8-.6-.017.022-.015.024.832.554zm-9.966 11.959l.372.928.058-.023.056-.031-.486-.874zm-7.474-.747l-.6-.8-.987.74.928.812.659-.752zm7.474-12.457l.979.206.002-.01-.981-.196zm.748-15.696l.514-.858-1.607-.964.094 1.872.999-.05zm10.214 6.228l.401-.916-.007-.003-.394.919zm11.71 6.478l-.514.857.032.02.035.017.447-.894zm2.491 2.242l-.894.447.012.025.014.024.868-.496zm1.099 5.18c-3.06-2.295-6.365-4.073-9.594-5.811l-.948 1.761c3.249 1.749 6.422 3.46 9.342 5.65l1.2-1.6zm-9.621-5.825c-.521-.261-1.147-.542-1.798-.723-.642-.178-1.395-.284-2.13-.1l.485 1.94c.261-.065.629-.047 1.109.087.47.13.965.347 1.44.585l.894-1.789zm-3.882-.834c-.882.177-1.606.688-2.169 1.217-.568.532-1.049 1.155-1.424 1.655l1.6 1.2c.372-.496.763-.994 1.192-1.396.433-.406.83-.642 1.194-.715l-.393-1.961zm-3.625 2.918c-.76 1.14-1.456 2.278-2.139 3.396a98.635 98.635 0 01-2.097 3.33l1.664 1.11a97.994 97.994 0 002.139-3.397 98.635 98.635 0 012.097-3.33l-1.664-1.109zm-4.236 6.726c-1.398 2.099-3.268 3.737-5.384 4.913l.972 1.748c2.369-1.316 4.485-3.165 6.076-5.551l-1.664-1.11zm-5.269 4.859c-2.296.918-4.84.832-6.445-.572l-1.317 1.505c2.382 2.084 5.817 1.998 8.505.923l-.743-1.856zm-6.503.981c4.225-3.17 6.819-8.142 7.853-13.051l-1.957-.412c-.96 4.558-3.349 9.052-7.096 11.863l1.2 1.6zm7.855-13.061c1.021-5.107 1.016-10.937.765-15.942l-1.997.1c.248 4.96.242 10.591-.729 15.449l1.961.393zm-.748-15.035c.611.367 2.206 1.494 4.236 2.815 1.961 1.276 4.268 2.69 6.099 3.475l.788-1.838c-1.656-.71-3.834-2.036-5.796-3.313-1.895-1.233-3.663-2.473-4.298-2.854l-1.029 1.715zm10.329 6.287c3.912 1.712 7.83 4.16 11.596 6.419l1.029-1.715c-3.709-2.225-7.764-4.76-11.824-6.536l-.801 1.832zm11.663 6.456c.91.456 1.685 1.078 2.044 1.795l1.789-.894c-.638-1.275-1.856-2.148-2.939-2.69l-.894 1.789zm2.07 1.844c.762 1.334.421 2.9-.102 4.992l1.941.485c.473-1.894 1.129-4.314-.102-6.469l-1.737.992z" fill="#262626" mask="url(#a)"/><path d="M158.494 187.456v22.671c0 6.976-2.989 13.454-8.221 17.939l-4.734-2.741c4.734-3.488 7.724-9.218 7.724-15.198v-22.671h5.231z" fill="#262626" stroke="#262626" stroke-width=".75" stroke-miterlimit="10" stroke-linecap="round" stroke-linejoin="round"/><path d="M162.729 236.536c0 .748-.499 1.495-1.495 1.993l-.249.25-.748.498-5.73 3.239c-1.993 1.245-5.232 1.245-7.225 0l-10.464-5.98-2.491-1.495-25.164-14.45-13.453-7.723-1.993-1.246-.25-.249c-.996-.498-1.494-1.246-1.494-1.993v-.249c0-.748.498-1.495 1.495-1.993l6.726-3.987c1.994-.996 5.232-.996 7.225 0l12.707 7.226c5.232-4.485 8.221-11.212 8.221-17.939v-22.671l25.163 17.439v22.672c0 5.98-2.989 11.71-7.723 15.198l4.734 2.74 10.962 6.229c.747.996 1.246 1.744 1.246 2.491z" stroke="#262626" stroke-width=".75" stroke-miterlimit="10" stroke-linecap="round" stroke-linejoin="round"/><path d="M222.025 211.373v19.682c0 1.744-.498 2.741-1.495 3.488-.249 0-.249.249-.498.249-.996.498-2.242.249-3.737-.498L66.063 147.593c-2.99-1.744-5.481-5.98-5.481-9.467v-19.683l11.71 6.727 149.733 86.203z" fill="#fff" stroke="#262626" stroke-width=".75" stroke-miterlimit="10" stroke-linecap="round" stroke-linejoin="round"/><path d="M222.026 104.741v106.632L72.542 125.17l-11.71-6.726V11.562c0-1.993.748-3.239 1.993-3.737.997-.498 2.242-.249 3.488.498l6.229 3.737.996.499 86.95 50.326 9.717 5.73 46.091 26.659c3.488 1.743 5.73 5.979 5.73 9.467z" fill="#ADADAD" stroke="#262626" stroke-width=".75" stroke-miterlimit="10" stroke-linecap="round" stroke-linejoin="round"/><path d="M233.986 204.397v19.682c0 1.744-.498 2.99-1.494 3.488l-11.461 6.727c.748-.498 1.495-1.744 1.495-3.488v-19.433l11.46-6.976z" fill="#262626" stroke="#262626" stroke-width=".75" stroke-miterlimit="10" stroke-linecap="round" stroke-linejoin="round"/><path d="M232.49 92.782l-11.959 6.727c-.996-1.744-2.491-3.488-3.986-4.236l-46.091-26.658-9.717-5.73-86.95-50.326-.996-.499-6.229-3.737c-1.245-.747-2.491-.996-3.488-.498l11.212-6.478c.996-.498 2.49-.498 3.986.25l94.175 54.312 9.716 5.73 46.092 26.658c1.744.997 3.238 2.741 4.235 4.485z" fill="#fff" stroke="#262626" stroke-width=".75" stroke-miterlimit="10" stroke-linecap="round" stroke-linejoin="round"/><path d="M233.986 98.014v106.632l-11.71 6.727V104.74c0-1.744-.498-3.487-1.495-5.231l11.959-6.727c.747 1.744 1.246 3.488 1.246 5.232zm-71.254 138.522v5.98c0 .747-.499 1.494-1.495 1.993l-6.727 3.986c-1.993.997-5.232.997-7.225 0l-54.064-31.143c-.996-.498-1.494-1.494-1.494-2.242v-5.73c0 .747.498 1.495 1.494 1.993l.25.249 1.993 1.246 13.453 7.723 25.163 14.45 2.492 1.495 10.464 5.98c1.993 1.245 5.232 1.245 7.225 0l5.73-3.239.748-.498.249-.25c1.245-.498 1.744-1.245 1.744-1.993z" fill="#262626" stroke="#262626" stroke-width=".75" stroke-miterlimit="10" stroke-linecap="round" stroke-linejoin="round"/><path d="M176.43 282.378c0 1.495-.996 2.989-2.989 3.986l-.748.498-1.495.748-28.402 16.443c-3.737 2.242-10.214 2.242-13.951 0L8.509 234.543 4.523 232.3l-.747-.498c-1.744-.996-2.74-2.491-2.74-3.737v-.498c0-1.495.996-2.741 2.989-3.737l30.644-17.689c3.737-2.243 10.215-2.243 13.952 0l125.069 72.251c1.744.996 2.74 2.491 2.74 3.986z" fill="#fff" stroke="#262626" stroke-width=".75" stroke-miterlimit="10" stroke-linecap="round" stroke-linejoin="round"/><path d="M128.1 260.702c0 1.246-.748 2.243-1.994 2.99l-.498.249-.996.748-20.928 12.208c-2.741 1.494-7.474 1.494-10.215 0L75.78 266.682c-.747-.499-.747-1.744 0-2.243l2.242-1.245h.25c.248-.249.498-.499.498-.748s-.25-.498-.499-.498l-39.862-23.17c-.498-.249-1.495-.249-2.242 0l-1.993 1.246a4.528 4.528 0 01-4.983 0l-11.71-6.727-2.99-1.744-.498-.249c-1.246-.748-1.993-1.744-1.993-2.741v-.249c0-.996.747-1.993 1.993-2.74l22.423-12.956c2.74-1.495 7.474-1.495 10.215 0l79.475 45.842c1.246 0 1.994.997 1.994 2.242zm36.873 21.427c0 1.245-.748 2.242-1.993 2.99l-.498.249-.997.747-20.928 12.208c-2.741 1.495-7.474 1.495-10.215 0l-16.443-9.467-2.99-1.744-.498-.25c-1.246-.747-1.993-1.744-1.993-2.74v-.498c0-.997.747-1.993 1.993-2.741l22.423-12.955c2.74-1.495 7.474-1.495 10.214 0l19.683 11.46c1.494.499 2.242 1.744 2.242 2.741z" fill="#ADADAD" stroke="#262626" stroke-width=".75" stroke-miterlimit="10" stroke-linecap="round" stroke-linejoin="round"/><path d="M176.433 282.378v5.979c0 1.495-.997 2.99-2.99 3.986l-30.644 17.689c-3.737 2.243-10.215 2.243-13.952 0L3.778 237.781c-1.993-1.245-2.99-2.74-2.74-4.235v-5.481c0 1.246.996 2.74 2.74 3.737l.748.498 3.986 2.243 120.335 69.51c3.737 2.242 10.215 2.242 13.952 0l28.402-16.443 1.495-.748.747-.498c1.993-.997 2.99-2.492 2.99-3.986z" fill="#262626" stroke="#262626" stroke-width=".75" stroke-miterlimit="10" stroke-linecap="round" stroke-linejoin="round"/><path d="M70.05 116.451l141.762 81.967c1.494.996 3.487-.249 3.487-1.993v-74.743L68.805 36.975v77.482c.249.997.498 1.744 1.245 1.994z" fill="#fff" stroke="#262626" stroke-width=".75" stroke-miterlimit="10" stroke-linecap="round" stroke-linejoin="round"/><path d="M69.054 37.224l146.495 84.707v-15.945c0-.996-.499-2.242-1.495-2.74L73.538 22.026c-1.993-1.246-4.733.249-4.733 2.74v12.458h.249z" fill="#262626" stroke="#262626" stroke-width=".75" stroke-miterlimit="10" stroke-linecap="round" stroke-linejoin="round"/><path d="M79.766 34.483c0 1.744-1.246 2.491-2.74 1.495-1.495-.997-2.74-2.99-2.74-4.734 0-1.744 1.245-2.491 2.74-1.495 1.495.748 2.74 2.99 2.74 4.734z" fill="#E84142" stroke="#262626" stroke-width=".75" stroke-miterlimit="10" stroke-linecap="round" stroke-linejoin="round"/><path d="M86.643 40.645c1.072-.619 1.05-2.666-.052-4.573-1.1-1.906-2.862-2.95-3.934-2.33-1.073.618-1.05 2.666.051 4.572 1.1 1.907 2.862 2.95 3.935 2.331z" fill="#FFAD28" stroke="#262626" stroke-width=".75" stroke-miterlimit="10" stroke-linecap="round" stroke-linejoin="round"/><path d="M95.216 43.452c0 1.744-1.246 2.491-2.741 1.495-1.495-.997-2.74-2.99-2.74-4.734 0-1.744 1.245-2.491 2.74-1.495 1.495.748 2.74 2.99 2.74 4.734z" fill="#ADADAD" stroke="#262626" stroke-width=".75" stroke-miterlimit="10" stroke-linecap="round" stroke-linejoin="round"/><path d="M90.48 115.703v-6.478l10.713 2.491v-4.484h10.963l10.962 6.228 10.713-1.494 5.73-.997 5.232 2.99v32.886m-43.602-39.613v14.699m10.965-14.699v20.928m10.961-14.7v20.928m10.715-22.422v28.402m-33.387-62.036l54.313 31.64m-54.313-41.108l28.901 16.693" stroke="#262626" stroke-width=".75" stroke-miterlimit="10" stroke-linecap="round" stroke-linejoin="round"/><path d="M81.762 67.868l10.962 6.478c.997.498 1.495 0 1.495-1.246v-5.73c0-1.246-.747-2.492-1.495-2.99l-10.962-6.478c-.997-.498-1.495 0-1.495 1.246v5.73c-.25 1.246.498 2.492 1.495 2.99z" fill="#FFAD28" stroke="#262626" stroke-width=".75" stroke-miterlimit="10" stroke-linecap="round" stroke-linejoin="round"/><path d="M81.762 87.301l10.962 6.478c.997.498 1.495 0 1.495-1.246v-5.73c0-1.246-.747-2.492-1.495-2.99l-10.962-6.478c-.997-.498-1.495 0-1.495 1.246v5.73c-.25.997.498 2.492 1.495 2.99z" fill="#7A18D5" stroke="#262626" stroke-width=".75" stroke-miterlimit="10" stroke-linecap="round" stroke-linejoin="round"/><path d="M90.48 109.225l-10.464-5.979v6.478m64.777 4.235l9.966 5.73v33.136m-74.743-43.101l74.742 43.101" stroke="#262626" stroke-width=".75" stroke-miterlimit="10" stroke-linecap="round" stroke-linejoin="round"/><path d="M166.937 151.514c-6.936-15.739-4.464-32.058 5.499-36.422 9.963-4.388 23.684 4.843 30.62 20.582s4.489 32.058-5.499 36.447c-9.963 4.338-23.684-4.868-30.62-20.607z" fill="#7A18D5" stroke="#262626" stroke-width=".5" stroke-miterlimit="10"/><path d="M190.695 141.097v1.891l-5.902-3.43-.05 13.948-1.64-.958.051-13.923-5.927-3.43.025-1.867 13.443 7.769z" fill="#fff" stroke="#262626" stroke-width=".5" stroke-miterlimit="10"/><path d="M183.913 156.685c-6.381-3.683-11.552-12.637-11.527-19.977.026-7.339 5.221-10.29 11.603-6.608 6.381 3.682 11.552 12.636 11.526 19.976 0 7.315-5.221 10.291-11.602 6.609zm.101-28.678c-7.39-4.263-13.418-.833-13.444 7.642-.025 8.475 5.953 18.841 13.343 23.104 7.39 4.262 13.393.832 13.418-7.643.026-8.474-5.952-18.841-13.317-23.103z" fill="#fff" stroke="#262626" stroke-width=".5" stroke-miterlimit="10"/></svg>