<svg width="345" height="249" fill="none" xmlns="http://www.w3.org/2000/svg"><path d="M331.954 140.344l-36.844 21.421-8.569 4.927-22.706 13.066-8.782 5.141-25.491 14.567-8.783 5.141-40.057 23.134c-2.357 1.286-5.355 2.142-8.14 2.142-2.571 0-5.141-.428-7.069-1.499l-45.841-26.348-8.783-5.141-65.334-37.701-8.782-5.141-17.137-9.853-6.855-3.856 7.498-4.284 24.634-14.138 8.783-5.141 57.408-33.203 8.782-5.14 22.706-13.067 8.569-4.927 13.281-7.712c4.498-2.57 11.353-2.785 15.209-.643l84.827 49.054 8.782 5.141 33.845 19.494 8.783 4.926 16.066 9.64z" fill="#D0D2D3" stroke="#262626" stroke-width=".75" stroke-miterlimit="10" stroke-linecap="round" stroke-linejoin="round"/><path d="M343.735 130.704c0 1.714-1.285 3.428-3.641 4.927l-8.14 4.713-36.844 21.421-8.568 4.926-22.707 13.067-8.782 5.141-25.491 14.566-8.783 5.142-40.057 23.134c-2.356 1.285-5.355 2.142-8.14 2.142-2.57 0-5.141-.428-7.069-1.499l-45.841-26.348-8.782-5.141-65.334-37.701-8.783-5.141-17.137-9.854-6.854-3.855-9.211-5.356C1.857 133.917 1 132.632 1 131.133v-.215c.214-1.713 1.285-3.427 3.642-4.712l40.057-23.135 8.782-5.14 57.409-33.203 8.782-5.141 22.706-13.067 8.569-4.927 13.281-7.712c4.498-2.57 11.353-2.784 15.209-.642l84.827 49.054 8.782 5.14 33.845 19.494 8.783 4.927 25.491 14.566c1.499.857 2.356 2.142 2.57 3.427v.857z" fill="#D0D2D3" stroke="#262626" stroke-width=".75" stroke-miterlimit="10" stroke-linecap="round" stroke-linejoin="round"/><path d="M185.65 184.257l35.131 20.135 8.782-5.141-33.631-19.493 25.063-14.352 34.274 19.279 8.782-5.141-40.914-22.92c-1.285-.643-2.999-.643-4.284 0l-31.489 18.207-43.484-25.062 57.408-33.417 52.053 29.775 33.63 20.35 8.569-4.926-31.489-19.065 52.053-30.418-8.783-4.927-52.052 30.204-34.274-19.493 52.267-30.204-8.783-5.14-52.266 30.203-35.345-20.35 24.634-14.138c1.285-.857 2.142-2.142 2.142-3.856 0-1.5-.857-2.999-2.142-3.856L151.377 41.38l-8.568 4.927 47.983 27.847L168.3 87.005l-48.198-27.632-8.782 5.14 20.992 11.996-57.622 32.989-20.778-11.996-8.783 5.141 27.419 15.851h.214l12.638 7.283-48.197 27.848 8.783 5.141 48.197-27.847 27.847 16.065 11.139 6.427 26.348 15.208-48.197 27.848 8.782 5.141L168.3 173.76l16.065 9.211 1.285 1.286zM166.8 96.859l25.277 14.566-57.194 33.417-8.783-5.141-5.569-3.213-24.42-14.138-12.853-7.283 57.623-32.988 23.777 13.71 2.142 1.07z" fill="#fff"/><path d="M343.735 130.704c0 1.714-1.285 3.428-3.641 4.927l-8.14 4.713-36.844 21.421-8.568 4.926-22.707 13.067-8.782 5.141-25.491 14.566-8.783 5.142-40.057 23.134c-2.356 1.285-5.355 2.142-8.14 2.142-2.57 0-5.141-.428-7.069-1.499l-45.841-26.348-8.782-5.141-65.334-37.701-8.783-5.141-17.137-9.854-6.854-3.855-9.211-5.356C1.857 133.917 1 132.632 1 131.133v-.215c.214-1.713 1.285-3.427 3.642-4.712l40.057-23.135 8.782-5.14 57.409-33.203 8.782-5.141 22.706-13.067 8.569-4.927 13.281-7.712c4.498-2.57 11.353-2.784 15.209-.642l84.827 49.054 8.782 5.14 33.845 19.494 8.783 4.927 25.491 14.566c1.499.857 2.356 2.142 2.57 3.427v.857z" stroke="#262626" stroke-width=".75" stroke-miterlimit="10" stroke-linecap="round" stroke-linejoin="round"/><path d="M176.438 78.865c0 .429.214.643.428.643l1.285.857 1.285.857 31.275 17.993c.214.215.643.215 1.071.215.429 0 .857 0 1.071-.215l23.992-13.923 1.071-.643 1.285-.857c.214-.214.428-.428.428-.642 0-.215-.214-.429-.428-.643l-32.988-19.065c-.643-.428-1.714-.428-2.357 0L176.438 78.01c.214.428 0 .642 0 .856z" fill="#fff" stroke="#262626" stroke-width=".75" stroke-miterlimit="10" stroke-linecap="round" stroke-linejoin="round"/><path d="M176.438 78.865c0 .429.214.643.428.643l1.285.857 1.285.857 31.275 17.993c.214.215.643.215 1.071.215.429 0 .857 0 1.071-.215l23.992-13.923 1.071-.643 1.285-.857c.214-.214.428-.428.428-.642 0-.215-.214-.429-.428-.643l-32.988-19.065c-.643-.428-1.714-.428-2.357 0L176.438 78.01c.214.428 0 .642 0 .856z" fill="#fff" stroke="#262626" stroke-width=".75" stroke-miterlimit="10" stroke-linecap="round" stroke-linejoin="round"/><path d="M212.211 99.43v13.066c.428 0 .857 0 1.071-.214l26.348-15.209c.428-.214.428-.428.428-.642V83.578c0 .214-.214.428-.428.643l-1.286.857-1.071.642-23.991 13.924c-.428-.429-.643-.214-1.071-.214z" fill="#fff" stroke="#262626" stroke-width=".75" stroke-miterlimit="10" stroke-linecap="round" stroke-linejoin="round"/><path d="M176.866 92.575l34.059 19.493c.214.214.642.214 1.071.214V99.216c-.429 0-.857 0-1.071-.215L179.65 81.008l-1.285-.857-1.285-.857c-.214-.214-.429-.428-.429-.643v12.853c-.214.643 0 .857.215 1.071z" fill="#ADADAD" stroke="#262626" stroke-width=".75" stroke-miterlimit="10" stroke-linecap="round" stroke-linejoin="round"/><path d="M170.012 153.839c0 .428.214.642.428.642l1.286.857 1.285.857 12.638 7.283c.214.214.643.214 1.071.214.429 0 .857 0 1.071-.214l28.062-16.066 1.071-.642 1.285-.857c.214-.214.428-.428.428-.643 0-.214-.214-.428-.428-.642l-15.423-8.997c-.643-.429-1.714-.429-2.356 0l-30.418 17.565c.214.214 0 .428 0 .643z" fill="#fff" stroke="#262626" stroke-width=".75" stroke-miterlimit="10" stroke-linecap="round" stroke-linejoin="round"/><path d="M170.012 153.839c0 .428.214.642.428.642l1.286.857 1.285.857 12.638 7.283c.214.214.643.214 1.071.214.429 0 .857 0 1.071-.214l28.062-16.066 1.071-.642 1.285-.857c.214-.214.428-.428.428-.643 0-.214-.214-.428-.428-.642l-15.423-8.997c-.643-.429-1.714-.429-2.356 0l-30.418 17.565c.214.214 0 .428 0 .643z" fill="#fff" stroke="#262626" stroke-width=".75" stroke-miterlimit="10" stroke-linecap="round" stroke-linejoin="round"/><path d="M186.934 163.692v10.925c.428 0 .856 0 1.071-.214l30.417-17.566c.429-.214.429-.428.429-.642v-10.711c0 .215-.214.429-.429.643l-1.285.857-1.071.642-28.061 16.066h-1.071z" fill="#fff" stroke="#262626" stroke-width=".75" stroke-miterlimit="10" stroke-linecap="round" stroke-linejoin="round"/><path d="M170.44 165.405l15.423 8.997c.214.214.642.214 1.071.214v-10.924c-.429 0-.857 0-1.071-.215l-12.639-7.283-1.285-.857-1.285-.857c-.214-.214-.429-.428-.429-.642v10.71c-.214.429.001.643.215.857z" fill="#D0D2D3" stroke="#262626" stroke-width=".75" stroke-miterlimit="10" stroke-linecap="round" stroke-linejoin="round"/><path d="M104.033 133.702c0 .643-.214.857-.857 1.286l-2.142 1.285-2.356 1.285-30.846 17.779c-.429.215-1.285.429-1.928.429s-1.285-.214-1.928-.429l-13.924-7.925-1.713-1.071-2.142-1.286c-.429-.214-.857-.642-.857-1.071v-.214c0-.428.214-.643.857-1.071l35.344-20.35c1.071-.642 2.785-.642 3.856 0l17.779 10.282c.429.429.857.643.857 1.071z" fill="#fff" stroke="#262626" stroke-width=".75" stroke-miterlimit="10" stroke-linecap="round" stroke-linejoin="round"/><path d="M104.033 133.702c0 .643-.214.857-.857 1.286l-2.142 1.285-2.356 1.285-30.846 17.779c-.429.215-1.285.429-1.928.429s-1.285-.214-1.928-.429l-13.924-7.925-1.713-1.071-2.142-1.286c-.429-.214-.857-.642-.857-1.071v-.214c0-.428.214-.643.857-1.071l35.344-20.35c1.071-.642 2.785-.642 3.856 0l17.779 10.282c.429.429.857.643.857 1.071z" fill="#fff" stroke="#262626" stroke-width=".75" stroke-miterlimit="10" stroke-linecap="round" stroke-linejoin="round"/><path d="M65.904 155.765v14.566c-.643 0-1.285-.214-1.928-.428l-17.78-10.282c-.642-.429-.856-.857-.856-1.286v-14.352c0 .429.214.857.857 1.071l2.142 1.286 1.713 1.071 13.924 7.926c.428.214 1.285.428 1.928.428z" fill="#ADADAD" stroke="#262626" stroke-width=".75" stroke-miterlimit="10" stroke-linecap="round" stroke-linejoin="round"/><path d="M103.179 149.339l-35.345 20.35c-.428.215-1.285.429-1.928.429v-14.567c.643 0 1.286-.214 1.928-.428l30.846-17.779 2.357-1.286 2.142-1.285c.428-.214.642-.642.857-1.071v14.352c0 .643-.215 1.071-.857 1.285zm78.614-137.736c0 .429-.214.643-.429.643l-1.285.857-1.285.857-7.926 4.712c-.214.215-.643.215-1.071.215-.428 0-.857 0-1.071-.215l-14.566-8.354-1.071-.642-1.286-.857c-.214-.215-.428-.429-.428-.643 0-.214.214-.428.428-.643l10.711-6.212c.642-.428 1.713-.428 2.356 0l16.923 9.854v.428z" fill="#fff" stroke="#262626" stroke-width=".75" stroke-miterlimit="10" stroke-linecap="round" stroke-linejoin="round"/><path d="M181.793 11.603c0 .429-.214.643-.429.643l-1.285.857-1.285.857-7.926 4.712c-.214.215-.643.215-1.071.215-.428 0-.857 0-1.071-.215l-14.566-8.354-1.071-.642-1.286-.857c-.214-.215-.428-.429-.428-.643 0-.214.214-.428.428-.643l10.711-6.212c.642-.428 1.713-.428 2.356 0l16.923 9.854v.428z" fill="#fff" stroke="#262626" stroke-width=".75" stroke-miterlimit="10" stroke-linecap="round" stroke-linejoin="round"/><path d="M169.582 18.672v33.417c-.428 0-.857 0-1.071-.215l-16.923-9.639c-.428-.214-.428-.428-.428-.642V8.175c0 .214.214.428.428.642l1.286.857 1.071.643 14.566 8.354h1.071z" fill="#ADADAD" stroke="#262626" stroke-width=".75" stroke-miterlimit="10" stroke-linecap="round" stroke-linejoin="round"/><path d="M181.364 46.09l-10.711 5.784c-.214.215-.643.215-1.071.215V18.672c.428 0 .857 0 1.071-.214l7.926-4.713 1.285-.857 1.285-.857c.215-.214.429-.428.429-.642v33.63c.428.643.214.858-.214 1.072z" fill="#fff" stroke="#262626" stroke-width=".75" stroke-miterlimit="10" stroke-linecap="round" stroke-linejoin="round"/><path d="M172.583 229.883v18.637c-2.57 0-5.141-.429-7.069-1.5l-45.84-26.348-8.783-5.141-65.334-37.7-8.782-5.142-32.989-19.064c-1.928-1.071-2.784-2.571-2.57-4.07v-18.422c0 1.499.856 2.785 2.57 3.856l9.211 5.355 6.855 3.856 17.137 9.853 8.782 5.141 65.334 37.701 8.783 5.141 45.841 26.348c1.499 1.071 4.07 1.499 6.854 1.499z" fill="#262626" stroke="#262626" stroke-width=".75" stroke-miterlimit="10" stroke-linecap="round" stroke-linejoin="round"/><path d="M343.735 130.704v18.636c0 1.714-1.285 3.642-3.641 5.141l-44.984 25.92-8.569 4.927-22.706 13.066-8.782 5.141-25.491 14.567-8.783 5.141-40.057 23.134c-2.356 1.286-5.355 2.142-8.14 2.142v-18.636c2.785 0 5.784-.857 8.14-2.142l40.057-23.135 8.783-5.141 25.491-14.566 8.782-5.141 22.706-13.067 8.569-4.927 36.844-21.42 8.14-4.713c2.356-1.5 3.641-3.213 3.641-4.927z" fill="#fff" stroke="#262626" stroke-width=".75" stroke-miterlimit="10" stroke-linecap="round" stroke-linejoin="round"/><path d="M154.801 176.331l10.496-5.998a5.048 5.048 0 014.927 0l14.352 8.14a5.042 5.042 0 004.927 0l28.49-16.28a5.048 5.048 0 014.927 0l35.987 19.922" stroke="#E84142" stroke-width=".75" stroke-miterlimit="10" stroke-linecap="round" stroke-linejoin="round"/><path d="M174.723 188.112c0 .214-.214.428-.428.643l-1.286.642-1.285.643-16.708 9.639c-.214.214-.643.214-1.071.214-.429 0-.857 0-1.071-.214L122.027 181.9l-.856-.643-1.286-.642c-.214-.215-.428-.429-.428-.643 0-.214.214-.428.428-.643l19.065-11.139a1.947 1.947 0 012.142 0l32.988 19.065c.429.429.643.643.643.857z" fill="#fff" stroke="#262626" stroke-width=".75" stroke-miterlimit="10" stroke-linecap="round" stroke-linejoin="round"/><path d="M174.723 188.112c0 .214-.214.428-.428.643l-1.286.642-1.285.643-16.708 9.639c-.214.214-.643.214-1.071.214-.429 0-.857 0-1.071-.214L122.027 181.9l-.856-.643-1.286-.642c-.214-.215-.428-.429-.428-.643 0-.214.214-.428.428-.643l19.065-11.139a1.947 1.947 0 012.142 0l32.988 19.065c.429.429.643.643.643.857z" fill="#fff" stroke="#262626" stroke-width=".75" stroke-miterlimit="10" stroke-linecap="round" stroke-linejoin="round"/><path d="M154.16 200.108v21.421c-.429 0-.857 0-1.071-.215L120.1 202.25c-.214-.214-.428-.429-.428-.643V180.4c0 .215.214.429.428.643l1.286.643.857.642 30.846 17.78h1.071z" fill="#ADADAD" stroke="#262626" stroke-width=".75" stroke-miterlimit="10" stroke-linecap="round" stroke-linejoin="round"/><path d="M174.296 210.176l-19.065 11.138c-.214.215-.642.215-1.071.215v-21.421c.429 0 .857 0 1.071-.215l16.709-9.639 1.285-.643 1.285-.642c.214-.214.429-.429.429-.643v21.207c-.215.214-.215.428-.643.643z" fill="#fff" stroke="#262626" stroke-width=".75" stroke-miterlimit="10" stroke-linecap="round" stroke-linejoin="round"/><path d="M158.657 132.203c-.643-.214-1.072-.428-1.928-.642-1.071-.214-1.928-.214-3.214 0-1.499.214-2.999.857-4.712 1.713-7.712 4.499-13.924 15.209-13.924 23.992 0 4.713 3.856 12.21 7.497 18.208 1.286 1.928 2.357 3.856 3.428 5.355a71.201 71.201 0 002.785 4.07l-3.642-2.142s-13.924-18.851-13.924-27.847c0-8.997 6.213-19.708 13.924-23.992 3.427-2.142 6.855-2.356 9.211-1.285l.857.428 3.642 2.142z" fill="#262626" stroke="#262626" stroke-width=".75" stroke-miterlimit="10" stroke-linecap="round" stroke-linejoin="round"/><path d="M149.019 155.338c-2.571 1.499-4.713.642-5.355-1.5-.215-.428-.215-1.071-.215-1.499 0-3.428 2.357-7.712 5.57-9.426a10.401 10.401 0 001.499-.642c2.357-.429 3.856.857 3.856 3.856.214 3.213-2.356 7.497-5.355 9.211z" stroke="#262626" stroke-width=".75" stroke-miterlimit="10" stroke-linecap="round" stroke-linejoin="round"/><path d="M158.871 132.203c-.857-.428-1.286-.643-2.143-.857-1.071-.214-1.927-.214-3.213 0-1.499.214-2.999.857-4.712 1.714-7.712 4.498-13.924 15.209-13.924 23.991 0 4.713 3.856 12.21 7.497 18.208 1.286 1.928 2.357 3.856 3.428 5.355a71.098 71.098 0 002.784 4.07s13.924-34.916 13.924-43.913c.428-4.07-1.071-7.069-3.641-8.568zm-14.995 21.635c-.214-.428-.214-1.071-.214-1.499 0-3.428 2.356-7.712 5.569-9.425a10.506 10.506 0 001.499-.643c2.357-.429 3.856.857 3.856 3.856 0 3.427-2.356 7.711-5.569 9.425-2.571 1.285-4.499.643-5.141-1.714z" fill="#E84142" stroke="#262626" stroke-width=".75" stroke-miterlimit="10" stroke-linecap="round" stroke-linejoin="round"/><path d="M150.728 143.771c0 3.427-2.356 7.712-5.569 9.425-.428.214-1.071.429-1.499.643-.214-.429-.215-1.071-.215-1.5 0-3.427 2.357-7.711 5.57-9.425a10.282 10.282 0 001.499-.643c.215.215.214.857.214 1.5z" fill="#fff" stroke="#262626" stroke-width=".75" stroke-miterlimit="10" stroke-linecap="round" stroke-linejoin="round"/><path d="M154.585 145.912c0 3.428-2.356 7.712-5.57 9.426-2.57 1.499-4.712.642-5.355-1.5.429-.214 1.071-.214 1.5-.642 2.998-1.714 5.569-5.998 5.569-9.426 0-.642 0-1.071-.214-1.713 2.356-.429 4.07 1.071 4.07 3.855z" fill="#262626" stroke="#262626" stroke-width=".75" stroke-miterlimit="10" stroke-linecap="round" stroke-linejoin="round"/><path d="M93.324 99.43l1.714.856c1.5.857 3.427.857 4.927 0l38.343-21.85a5.043 5.043 0 014.927 0l109.89 62.55a5.04 5.04 0 004.926 0l16.923-9.64" stroke="#E84142" stroke-width=".75" stroke-miterlimit="10" stroke-linecap="round" stroke-linejoin="round"/><path d="M329.814 111.853c0 .429-.214.643-.428.643l-1.285.857-1.286.857-30.417 17.351c-.215.214-.643.214-1.072.214-.428 0-.856 0-1.071-.214l-16.494-9.425-1.071-.643-1.285-.857c-.214-.214-.428-.428-.428-.643 0-.214.214-.428.428-.642l33.203-19.065c.642-.428 1.713-.428 2.356 0l18.85 10.925c-.214.214 0 .428 0 .642z" fill="#fff" stroke="#262626" stroke-width=".75" stroke-miterlimit="10" stroke-linecap="round" stroke-linejoin="round"/><path d="M329.814 111.853c0 .429-.214.643-.428.643l-1.285.857-1.286.857-30.417 17.351c-.215.214-.643.214-1.072.214-.428 0-.856 0-1.071-.214l-16.494-9.425-1.071-.643-1.285-.857c-.214-.214-.428-.428-.428-.643 0-.214.214-.428.428-.642l33.203-19.065c.642-.428 1.713-.428 2.356 0l18.85 10.925c-.214.214 0 .428 0 .642z" fill="#fff" stroke="#262626" stroke-width=".75" stroke-miterlimit="10" stroke-linecap="round" stroke-linejoin="round"/><path d="M295.112 131.774v29.347c-.429 0-.857 0-1.071-.214l-18.851-11.353c-.428-.214-.428-.429-.428-.643v-28.704c0 .214.214.428.428.643l1.286.857 1.071.642 16.494 9.425h1.071z" fill="#ADADAD" stroke="#262626" stroke-width=".75" stroke-miterlimit="10" stroke-linecap="round" stroke-linejoin="round"/><path d="M329.387 141.843l-33.203 19.065c-.214.214-.642.214-1.071.214v-29.347c.429 0 .857 0 1.071-.214l30.418-17.351 1.285-.857 1.286-.857c.214-.214.428-.428.428-.642v29.132c.214.428 0 .643-.214.857z" fill="#fff" stroke="#262626" stroke-width=".75" stroke-miterlimit="10" stroke-linecap="round" stroke-linejoin="round"/><path d="M313.746 63.657c-.643-.215-1.071-.429-1.928-.643-1.071-.214-1.927-.214-3.213 0-1.499.214-2.999.857-4.712 1.714-7.712 4.498-13.924 15.208-13.924 23.991 0 4.713 3.856 12.21 7.497 18.208 1.285 1.928 2.356 3.856 3.428 5.355a71.539 71.539 0 002.784 4.07l-3.641-2.142s-13.924-18.85-13.924-27.847 6.212-19.708 13.924-23.992c3.427-2.142 6.854-2.356 9.211-1.285l.857.428 3.641 2.142z" fill="#262626" stroke="#262626" stroke-width=".75" stroke-miterlimit="10" stroke-linecap="round" stroke-linejoin="round"/><path d="M304.105 87.005c-2.571 1.5-4.713.643-5.356-1.499-.214-.428-.214-1.071-.214-1.5 0-3.427 2.356-7.711 5.57-9.425a10.446 10.446 0 001.499-.642c2.356-.429 3.856.857 3.856 3.856.214 3.213-2.357 7.497-5.355 9.21z" stroke="#262626" stroke-width=".75" stroke-miterlimit="10" stroke-linecap="round" stroke-linejoin="round"/><path d="M313.96 63.871c-.856-.428-1.285-.643-2.142-.857-1.071-.214-1.928-.214-3.213 0-1.499.214-2.999.857-4.713 1.714-7.711 4.498-13.923 15.209-13.923 23.991 0 4.713 3.856 12.21 7.497 18.208 1.285 1.928 2.356 3.856 3.427 5.355a71.385 71.385 0 002.785 4.07s13.924-34.916 13.924-43.913c.428-4.07-1.071-7.068-3.642-8.568zm-14.994 21.635c-.214-.428-.215-1.07-.215-1.5 0-3.427 2.357-7.71 5.57-9.424.643-.215 1.071-.429 1.499-.643 2.357-.428 3.856.857 3.856 3.856 0 3.427-2.356 7.711-5.569 9.425-2.571 1.285-4.499.428-5.141-1.714z" fill="#E84142" stroke="#262626" stroke-width=".75" stroke-miterlimit="10" stroke-linecap="round" stroke-linejoin="round"/><path d="M305.818 75.438c0 3.427-2.356 7.711-5.569 9.425-.428.214-1.071.429-1.5.643-.214-.429-.214-1.071-.214-1.5 0-3.427 2.356-7.711 5.57-9.425a10.446 10.446 0 001.499-.642c.214.214.214.856.214 1.499z" fill="#fff" stroke="#262626" stroke-width=".75" stroke-miterlimit="10" stroke-linecap="round" stroke-linejoin="round"/><path d="M309.675 77.58c0 3.428-2.357 7.712-5.57 9.426-2.57 1.5-4.712.642-5.355-1.5.428 0 1.071-.214 1.5-.642 2.999-1.714 5.569-5.998 5.569-9.425 0-.643 0-1.071-.214-1.714 2.356-.429 4.07.857 4.07 3.856z" fill="#262626" stroke="#262626" stroke-width=".75" stroke-miterlimit="10" stroke-linecap="round" stroke-linejoin="round"/><path d="M109.393 72.867c0 .429-.215.643-.429.643l-1.285.857-1.285.856-30.418 17.352c-.215.214-.643.214-1.071.214-.429 0-.857 0-1.071-.215L57.339 83.15l-1.07-.642-1.286-.857c-.214-.215-.428-.429-.428-.643 0-.214.214-.428.428-.642L88.186 61.3c.642-.429 1.713-.429 2.356 0l18.851 10.925c-.215.214-.215.428 0 .642z" fill="#fff" stroke="#262626" stroke-width=".75" stroke-miterlimit="10" stroke-linecap="round" stroke-linejoin="round"/><path d="M109.393 72.867c0 .429-.215.643-.429.643l-1.285.857-1.285.856-30.418 17.352c-.215.214-.643.214-1.071.214-.429 0-.857 0-1.071-.215L57.339 83.15l-1.07-.642-1.286-.857c-.214-.215-.428-.429-.428-.643 0-.214.214-.428.428-.642L88.186 61.3c.642-.429 1.713-.429 2.356 0l18.851 10.925c-.215.214-.215.428 0 .642z" fill="#fff" stroke="#262626" stroke-width=".75" stroke-miterlimit="10" stroke-linecap="round" stroke-linejoin="round"/><path d="M74.69 92.788v16.923c-.429 0-.857 0-1.071-.214l-18.85-10.925c-.429-.214-.43-.428-.43-.643V81.007c0 .214.215.428.43.642l1.285.857 1.07.643 16.495 9.425c.214.214.642.214 1.07.214z" fill="#ADADAD" stroke="#262626" stroke-width=".75" stroke-miterlimit="10" stroke-linecap="round" stroke-linejoin="round"/><path d="M108.75 90.432l-33.202 19.065c-.215.214-.643.214-1.071.214V92.789c.428 0 .856 0 1.07-.215l30.418-17.35 1.286-.857 1.285-.857c.214-.214.428-.429.428-.643v16.709c.429.428.215.642-.214.856z" fill="#fff" stroke="#262626" stroke-width=".75" stroke-miterlimit="10" stroke-linecap="round" stroke-linejoin="round"/><path d="M93.325 25.741c-.643-.214-1.072-.428-1.928-.642-1.072-.214-1.928-.214-3.214 0-1.499.214-2.999.857-4.712 1.713-7.712 4.499-13.924 15.21-13.924 23.992 0 4.713 3.856 12.21 7.497 18.208 1.286 1.928 2.357 3.856 3.428 5.355a71.472 71.472 0 002.785 4.07l-3.642-2.142s-13.924-18.85-13.924-27.847c0-8.783 6.212-19.708 13.924-23.992 3.427-2.142 6.855-2.356 9.21-1.285l.858.428 3.641 2.142z" fill="#262626" stroke="#262626" stroke-width=".75" stroke-miterlimit="10" stroke-linecap="round" stroke-linejoin="round"/><path d="M83.687 49.09c-2.57 1.5-4.713.643-5.355-1.499-.215-.428-.215-1.071-.215-1.5 0-3.427 2.357-7.711 5.57-9.425.642-.214 1.07-.428 1.5-.642 2.356-.429 3.855.856 3.855 3.855 0 3.214-2.356 7.498-5.355 9.212z" stroke="#262626" stroke-width=".75" stroke-miterlimit="10" stroke-linecap="round" stroke-linejoin="round"/><path d="M93.538 25.956c-.856-.428-1.285-.643-2.142-.857-1.07-.214-1.927-.214-3.213 0-1.5.214-2.999.857-4.713 1.714-7.711 4.498-13.923 15.209-13.923 23.991 0 4.713 3.856 12.21 7.497 18.208 1.285 1.928 2.357 3.856 3.428 5.355a71.46 71.46 0 002.784 4.07S97.18 43.521 97.18 34.524c.214-4.07-1.285-7.069-3.642-8.568zM78.33 47.591c-.215-.428-.215-1.07-.215-1.5 0-3.427 2.357-7.71 5.57-9.425.642-.214 1.07-.428 1.5-.642 2.356-.429 3.855.857 3.855 3.856 0 3.427-2.356 7.711-5.57 9.425-2.356 1.285-4.498.428-5.14-1.714z" fill="#E84142" stroke="#262626" stroke-width=".75" stroke-miterlimit="10" stroke-linecap="round" stroke-linejoin="round"/><path d="M85.397 37.524c0 3.427-2.357 7.711-5.57 9.425-.428.214-1.07.428-1.5.643-.213-.429-.214-1.071-.214-1.5 0-3.427 2.357-7.711 5.57-9.425.643-.214 1.07-.428 1.5-.643.213.215.213.857.213 1.5z" fill="#fff" stroke="#262626" stroke-width=".75" stroke-miterlimit="10" stroke-linecap="round" stroke-linejoin="round"/><path d="M89.038 39.666c0 3.427-2.356 7.711-5.57 9.425-2.57 1.5-4.712.642-5.355-1.5.429 0 1.072-.214 1.5-.642 2.999-1.714 5.57-5.998 5.57-9.425 0-.643 0-1.072-.215-1.714 2.57-.429 4.07.857 4.07 3.856z" fill="#262626" stroke="#262626" stroke-width=".75" stroke-miterlimit="10" stroke-linecap="round" stroke-linejoin="round"/></svg>