<svg width="194" height="306" fill="none" xmlns="http://www.w3.org/2000/svg"><path d="M185.576 116.914v183.358c0 2.194-.731 3.901-1.95 4.389-.975.487-2.194.487-3.414-.244l-73.635-42.426c-3.17-1.707-5.608-6.583-5.608-10.485V68.149c0-2.195.731-3.658 1.706-4.39h.244c.976-.487 2.195-.487 3.414.245l1.707.975.487.244 71.441 41.206c3.17 1.707 5.608 6.34 5.608 10.485z" fill="#fff" stroke="#262626" stroke-width=".75" stroke-miterlimit="10" stroke-linecap="round" stroke-linejoin="round"/><path d="M127.304 262.234l-12.923-7.315c-1.707-.975-3.17-3.901-3.17-6.095v-13.655c0-2.438 1.463-3.413 3.17-2.438l12.923 7.315c1.706.975 3.169 3.901 3.169 6.096v13.654c.244 2.438-1.219 3.414-3.169 2.438z" fill="#FFAD28" stroke="#262626" stroke-width=".75" stroke-miterlimit="10" stroke-linecap="round" stroke-linejoin="round"/><path d="M140.473 249.555l17.311 10.24m-17.311-1.219l34.867 20.238m-34.867-11.46l34.867 20.238m-59.254-43.401l3.414 6.34 6.827-3.901" stroke="#262626" stroke-width=".75" stroke-miterlimit="10" stroke-linecap="round" stroke-linejoin="round"/><path d="M127.304 191.768l-12.923-7.314c-1.707-.976-3.17-3.902-3.17-6.096v-13.654c0-2.439 1.463-3.414 3.17-2.439l12.923 7.315c1.706.975 3.169 3.901 3.169 6.096v13.654c.244 2.438-1.219 3.657-3.169 2.438z" fill="#FFAD28" stroke="#262626" stroke-width=".75" stroke-miterlimit="10" stroke-linecap="round" stroke-linejoin="round"/><path d="M140.473 179.333l17.311 9.997m-17.311-1.22l34.867 20.238m-34.867-11.215l34.867 20.237m-59.254-43.401l3.414 6.095 6.827-3.901" stroke="#262626" stroke-width=".75" stroke-miterlimit="10" stroke-linecap="round" stroke-linejoin="round"/><path d="M127.304 227.123l-12.923-7.315c-1.707-.975-3.17-3.901-3.17-6.096v-13.654c0-2.438 1.463-3.413 3.17-2.438l12.923 7.315c1.706.975 3.169 3.901 3.169 6.095v13.655c.244 2.194-1.219 3.413-3.169 2.438z" fill="#E84142" stroke="#262626" stroke-width=".75" stroke-miterlimit="10" stroke-linecap="round" stroke-linejoin="round"/><path d="M140.473 214.443l17.311 10.241m-17.311-1.219l34.867 20.237m-34.867-11.459l34.867 20.238M117.547 214.2l6.827-3.901m0 7.558l-6.827-11.46" stroke="#262626" stroke-width=".75" stroke-miterlimit="10" stroke-linecap="round" stroke-linejoin="round"/><path d="M140.469 133.982c.487.244.731.244 1.219.488-.488-.244-.975-.244-1.219-.488zm-9.996 7.803c.243-5.121 3.169-8.047 7.071-8.047h1.95-.975c-4.389-.731-7.559 2.195-8.046 8.047zm6.832-16.825c0 3.901 2.682 8.534 6.095 10.241 3.414 1.951 6.096.488 6.096-3.413 0-3.902-2.682-8.534-5.852-10.241-3.657-1.951-6.339-.488-6.339 3.413z" fill="#fff" stroke="#262626" stroke-width=".75" stroke-miterlimit="10" stroke-linecap="round" stroke-linejoin="round"/><path d="M130.477 141.785c.243-5.121 3.169-8.047 7.071-8.047h.975c-4.389-.731-7.559 2.195-8.046 8.047zm8.777-8.047h-.487.487c-.244 0-.244 0 0 0z" fill="#fff"/><path d="M139.254 133.738h-.487.487zm0 0c-.244 0-.244 0 0 0zm-8.777 8.047c.243-5.121 3.169-8.047 7.071-8.047h.975c-4.389-.731-7.559 2.195-8.046 8.047z" stroke="#262626" stroke-width=".75" stroke-miterlimit="10" stroke-linecap="round" stroke-linejoin="round"/><path d="M130.477 142.76v-.976c.243-5.608 3.657-8.777 8.046-8.046h.975c.244 0 .488.244.732.244.487.244.731.244 1.219.487.487.244 1.219.488 1.707.732-3.414-1.951-6.096-6.583-6.096-10.241 0-3.901 2.682-5.364 6.096-3.413 3.413 1.95 6.095 6.583 5.851 10.24 0 3.902-2.682 5.365-6.095 3.414 7.071 4.145 12.679 14.142 12.679 22.188 4.389-1.707 7.071-6.339 7.071-13.41 0-12.679-8.778-28.04-19.75-34.38-10.973-6.339-19.994-1.219-19.994 11.46.488 7.071 3.17 15.117 7.559 21.701z" fill="#7A18D5" stroke="#262626" stroke-width=".75" stroke-miterlimit="10" stroke-linecap="round" stroke-linejoin="round"/><path d="M130.477 142.516c3.413 5.364 7.802 9.997 12.679 12.923 4.876 2.926 9.265 3.413 12.922 1.95 0-8.046-5.608-18.287-12.679-22.188-.487-.244-1.219-.487-1.706-.731-.488-.244-.976-.244-1.22-.488-.243 0-.487-.244-.731-.244h-1.951c-3.901 0-6.827 2.926-7.071 8.047-.243.243-.243.487-.243.731z" fill="#fff" stroke="#262626" stroke-width=".75" stroke-miterlimit="10" stroke-linecap="round" stroke-linejoin="round"/><path d="M193.376 112.525v183.358c0 2.194-.731 3.901-1.95 4.389l-7.559 4.388c1.219-.731 1.951-2.194 1.951-4.388V116.914c0-1.951-.488-3.901-1.463-5.608l7.558-4.389c.976 1.707 1.463 3.657 1.463 5.608z" fill="#262626" stroke="#262626" stroke-width=".75" stroke-miterlimit="10" stroke-linecap="round" stroke-linejoin="round"/><path d="M191.917 106.673l-7.559 4.389c-.975-2.194-2.438-3.901-4.145-4.876l-71.441-41.207-.487-.244-1.707-.975c-1.219-.732-2.682-.732-3.414-.244l7.559-4.39c.975-.487 2.194-.487 3.413.245l73.636 42.426c1.707.975 3.17 2.926 4.145 4.876zM85.608 58.883V242.24c0 2.195-.732 3.902-1.95 4.389-.976.488-2.195.488-3.414-.244L6.608 203.96C3.438 202.253 1 197.376 1 193.475V10.117c0-2.194.731-3.657 1.707-4.388h.244c.975-.488 2.194-.488 3.413.243l1.707.976.488.243 71.44 41.207c3.17 1.707 5.609 6.583 5.609 10.485z" fill="#fff" stroke="#262626" stroke-width=".75" stroke-miterlimit="10" stroke-linecap="round" stroke-linejoin="round"/><path d="M27.335 204.204l-12.923-7.315c-1.707-.975-3.17-3.901-3.17-6.096v-13.654c0-2.438 1.463-3.413 3.17-2.438l12.923 7.315c1.707.975 3.17 3.901 3.17 6.095v13.655c0 2.438-1.22 3.657-3.17 2.438z" fill="#FFAD28" stroke="#262626" stroke-width=".75" stroke-miterlimit="10" stroke-linecap="round" stroke-linejoin="round"/><path d="M40.254 191.769l17.556 9.996m-17.556-1.219l35.111 20.238m-35.111-11.217l35.111 20.238m-59.248-43.401l3.414 6.096 6.827-3.901" stroke="#262626" stroke-width=".75" stroke-miterlimit="10" stroke-linecap="round" stroke-linejoin="round"/><path d="M27.335 133.981l-12.923-7.315c-1.707-.975-3.17-3.901-3.17-6.095v-13.655c0-2.438 1.463-3.413 3.17-2.438l12.923 7.315c1.707.975 3.17 3.901 3.17 6.096v13.654c0 2.438-1.22 3.414-3.17 2.438z" fill="#FFAD28" stroke="#262626" stroke-width=".75" stroke-miterlimit="10" stroke-linecap="round" stroke-linejoin="round"/><path d="M40.254 121.303l17.556 10.24m-17.556-1.219l35.111 20.238m-35.111-11.46l35.111 20.237m-59.248-43.401l3.414 6.34 6.827-3.901" stroke="#262626" stroke-width=".75" stroke-miterlimit="10" stroke-linecap="round" stroke-linejoin="round"/><path d="M27.335 169.092l-12.923-7.314c-1.707-.976-3.17-3.902-3.17-6.096v-13.898c0-2.439 1.463-3.414 3.17-2.439l12.923 7.315c1.707.976 3.17 3.901 3.17 6.096v13.654c0 2.682-1.22 3.658-3.17 2.682z" fill="#FFAD28" stroke="#262626" stroke-width=".75" stroke-miterlimit="10" stroke-linecap="round" stroke-linejoin="round"/><path d="M40.258 156.413l17.555 10.241m-17.555-1.219l35.11 20.237m-35.11-11.216l35.11 20.238" stroke="#262626" stroke-width=".75" stroke-miterlimit="10" stroke-linecap="round" stroke-linejoin="round"/><path d="M40.258 76.194c.487.244.731.244 1.219.488-.244-.244-.731-.488-1.22-.488zm-9.754 7.559c.244-5.12 3.17-8.046 7.07-8.046h1.952-.976c-4.389-.488-7.802 2.438-8.046 8.046zm6.828-16.823c0 3.901 2.682 8.534 6.096 10.24 3.413 1.951 6.095.488 6.095-3.413s-2.682-8.534-5.851-10.24c-3.658-1.708-6.34-.245-6.34 3.413z" fill="#fff" stroke="#262626" stroke-width=".75" stroke-miterlimit="10" stroke-linecap="round" stroke-linejoin="round"/><path d="M30.504 83.753c.244-5.12 3.17-8.046 7.07-8.046h.976c-4.389-.488-7.802 2.438-8.046 8.046zm8.534-8.046h-.488.488z" fill="#fff" stroke="#262626" stroke-width=".75" stroke-miterlimit="10" stroke-linecap="round" stroke-linejoin="round"/><path d="M30.504 84.728v-.975c.244-5.608 3.657-8.778 8.046-8.046h.976c.243 0 .487.244.73.244.489.243.732.243 1.22.487s1.22.488 1.707.732c-3.414-1.951-6.096-6.584-6.096-10.241 0-3.901 2.682-5.364 6.096-3.414 3.413 1.951 6.096 6.584 5.852 10.241 0 3.901-2.682 5.364-6.096 3.414 7.071 4.145 12.679 14.141 12.679 22.188 4.389-1.707 7.071-6.34 7.071-13.41 0-12.68-8.778-28.04-19.75-34.38-10.972-6.34-19.994-1.22-19.994 11.46.488 7.315 3.17 15.117 7.559 21.7z" fill="#E84142" stroke="#262626" stroke-width=".75" stroke-miterlimit="10" stroke-linecap="round" stroke-linejoin="round"/><path d="M30.504 84.729c3.413 5.364 7.802 9.997 12.679 12.923 4.877 2.926 9.265 3.413 12.923 1.95 0-8.046-5.608-18.287-12.68-22.188-.487-.244-1.218-.488-1.706-.731-.488-.244-.975-.244-1.22-.488-.243 0-.487-.244-.73-.244h-1.951c-3.902 0-6.828 2.926-7.071 8.046-.244 0-.244.488-.244.732z" fill="#fff" stroke="#262626" stroke-width=".75" stroke-miterlimit="10" stroke-linecap="round" stroke-linejoin="round"/><path d="M93.412 54.494V237.85c0 2.195-.732 3.902-1.951 4.389l-7.559 4.389c1.22-.731 1.95-2.194 1.95-4.389V58.883c0-1.951-.487-3.902-1.462-5.608l7.559-4.39c.731 1.708 1.463 3.658 1.463 5.609z" fill="#262626" stroke="#262626" stroke-width=".75" stroke-miterlimit="10" stroke-linecap="round" stroke-linejoin="round"/><path d="M91.95 48.886l-7.559 4.389c-.975-2.194-2.438-3.901-4.145-4.877L8.561 7.192l-.488-.244-1.706-.975c-1.22-.732-2.682-.732-3.414-.244l7.559-4.39c.975-.487 2.194-.487 3.413.245L87.561 44.01c1.95.975 3.414 2.682 4.389 4.876z" fill="#fff" stroke="#262626" stroke-width=".75" stroke-miterlimit="10" stroke-linecap="round" stroke-linejoin="round"/><path d="M16.117 151.293l3.414 6.096 6.827-3.902" stroke="#262626" stroke-width=".75" stroke-miterlimit="10" stroke-linecap="round" stroke-linejoin="round"/></svg>