<svg width="197" height="258" fill="none" xmlns="http://www.w3.org/2000/svg"><path d="M25.353 161.134C-4.284 93.886 6.063 24.266 48.523 5.622c42.462-18.644 100.874 20.8 130.511 88.048 29.636 67.249 19.29 136.868-23.171 155.512-42.462 18.645-100.873-20.799-130.51-88.048z" fill="#B92425" stroke="#262626" stroke-width=".5" stroke-miterlimit="10"/><path d="M17.159 164.368C-12.478 97.119-1.916 27.392 40.653 8.748c42.569-18.752 101.196 20.692 130.833 87.94 29.637 67.249 19.183 136.976-23.494 155.728-42.569 18.537-101.196-20.8-130.833-88.048z" fill="#E84142" stroke="#262626" stroke-width=".5" stroke-miterlimit="10"/><path d="M118.674 119.858v8.083l-25.218-14.657-.216 59.597-7.004-4.095.215-59.489L61.125 94.64l.108-7.975 57.441 33.193z" fill="#fff" stroke="#262626" stroke-width=".5" stroke-miterlimit="10"/><path d="M89.902 187.538c-28.128-16.058-50.867-57.226-50.867-89.126.107-31.9 24.679-43.97 52.807-28.02 28.128 15.95 50.975 54.963 50.975 86.863s-23.709 47.526-51.945 31.469l-.97-1.186zM91.95 61.339C59.295 42.803 32.784 57.675 32.676 94.64c-.108 36.858 26.296 82.013 58.95 100.55 32.547 18.536 59.166 3.664 59.274-33.301.108-36.858-26.296-82.013-58.95-100.55z" fill="#D0D2D3" stroke="#262626" stroke-width=".5" stroke-miterlimit="10"/><path d="M89.687 186.461c-27.266-15.734-49.36-53.993-49.251-85.354.107-31.361 22.308-43.97 49.574-28.236 27.266 15.735 49.359 53.993 49.251 85.354 0 31.254-22.309 43.97-49.574 28.236zm.43-122.535c-31.576-18.213-57.333-3.556-57.44 32.655-.109 36.21 25.433 80.504 57.01 98.717 31.576 18.213 57.226 3.557 57.333-32.654.108-36.211-25.433-80.505-56.902-98.718z" fill="#fff" stroke="#262626" stroke-width=".5" stroke-miterlimit="10"/></svg>