<svg width="197" height="258" fill="none" xmlns="http://www.w3.org/2000/svg"><path d="M26.017 160.998C-3.619 93.748 6.727 24.129 49.187 5.485c42.462-18.644 100.874 20.8 130.511 88.048 29.636 67.249 19.29 136.869-23.171 155.513-42.461 18.644-100.873-20.8-130.51-88.048z" fill="#3B2E56" stroke="#262626" stroke-width=".5" stroke-miterlimit="10"/><path d="M17.823 164.231C-11.814 96.982-1.252 27.255 41.317 8.611c42.57-18.753 101.196 20.691 130.833 87.94s19.183 136.976-23.494 155.728c-42.569 18.536-101.196-20.8-130.833-88.048z" fill="#7A18D5" stroke="#262626" stroke-width=".5" stroke-miterlimit="10"/><path d="M119.338 119.722v8.082L94.12 113.148l-.215 59.596-7.005-4.095.215-59.489L61.79 94.503l.108-7.975 57.441 33.194z" fill="#fff" stroke="#262626" stroke-width=".5" stroke-miterlimit="10"/><path d="M90.566 187.401C62.438 171.344 39.7 130.175 39.7 98.275c.107-31.9 24.679-43.97 52.807-28.02 28.128 15.95 50.975 54.963 50.975 86.863s-23.709 47.527-51.945 31.469l-.97-1.186zm2.048-126.199C59.959 42.666 33.448 57.538 33.34 94.505c-.108 36.857 26.296 82.013 58.95 100.549 32.547 18.537 59.166 3.664 59.274-33.301.108-36.857-26.296-82.013-58.95-100.55z" fill="#D0D2D3" stroke="#262626" stroke-width=".5" stroke-miterlimit="10"/><path d="M90.35 186.324c-27.265-15.735-49.358-53.993-49.25-85.354.107-31.361 22.308-43.97 49.574-28.236 27.266 15.734 49.359 53.993 49.251 85.354 0 31.253-22.309 43.97-49.574 28.236zm.432-122.535C59.205 45.576 33.448 60.233 33.34 96.443c-.108 36.211 25.434 80.505 57.01 98.718 31.577 18.213 57.227 3.556 57.334-32.654.108-36.211-25.433-80.505-56.902-98.718z" fill="#fff" stroke="#262626" stroke-width=".5" stroke-miterlimit="10"/></svg>