<svg width="273" height="313" fill="none" xmlns="http://www.w3.org/2000/svg"><path d="M130.542 309.005L10.734 239.866l-.499-.25A18.77 18.77 0 011 223.393l28.205 16.223 93.1 53.914c0 6.489 3.494 12.23 8.237 15.475z" fill="#fff" stroke="#262626" stroke-width=".75" stroke-miterlimit="10" stroke-linecap="round" stroke-linejoin="round"/><path d="M205.672 192.192l.749.5" stroke="#262626" stroke-width=".75" stroke-miterlimit="10" stroke-linecap="round" stroke-linejoin="round"/><path d="M205.673 192.442l-45.677-26.457v-34.694c.499-4.493 2.496-8.487 5.491-11.482 3.495-3.494 7.987-5.491 13.229-5.491 3.245 0 6.24.749 8.736 2.246h.25s.249 0 .249.25c5.741 3.245 9.485 9.235 9.485 16.224v43.68c0 6.489 3.245 12.23 8.237 15.724z" fill="#262626" stroke="#262626" stroke-width=".75" stroke-miterlimit="10"/><path d="M187.449 116.315c-2.496-1.498-5.491-2.247-8.736-2.247-5.241 0-9.984 1.997-13.229 5.492-2.995 2.995-4.992 6.988-5.491 11.481V293.28c0 10.234-8.486 18.72-18.72 18.72-3.744 0-6.988-.998-9.734-2.745l-.749-.5c-4.992-3.494-8.237-8.985-8.237-15.475l-93.1-53.913c5.74-3.245 9.485-9.235 9.485-16.224V62.901c0-10.484 8.486-18.72 18.72-18.72 3.494 0 6.739.998 9.484 2.745l46.676 26.957 73.631 42.432z" fill="#fff" stroke="#262626" stroke-width=".75" stroke-miterlimit="10" stroke-linecap="round" stroke-linejoin="round"/><path d="M132.04 1c-10.483 0-18.72 8.486-18.72 18.72l.25 53.913 73.881 42.682h.25s.249 0 .249.249c5.741 3.245 9.485 9.235 9.485 16.224v43.68c0 6.489 3.245 12.23 8.237 15.475l.749.499c2.745 1.747 6.24 2.746 9.734 2.746 10.234 0 18.72-8.487 18.72-18.72l-.25-76.128V89.608c0-6.99 3.744-12.98 9.485-16.224 2.746-1.498 5.99-2.496 9.235-2.496 3.245 0 6.24.748 8.736 2.246L141.525 3.496C138.779 1.998 135.535 1 132.04 1z" fill="#fff" stroke="#262626" stroke-width=".75" stroke-miterlimit="10" stroke-linecap="round" stroke-linejoin="round"/><path d="M135.035 13.48l47.674 27.705m-56.908-24.211l100.588 58.157M125.301 25.71l98.342 56.659m-98.342-47.923l97.593 56.41m-97.593-47.674l48.672 28.205m-48.422-19.219l97.343 56.16m-97.343-47.424l97.343 56.409M125.301 69.64l97.593 56.409M125.301 69.64l97.593 56.409m-25.96 2.496l25.958 14.976m-25.208-5.491l25.209 14.477m-25.459-5.991l25.459 14.727" stroke="#262626" stroke-width=".75" stroke-miterlimit="10" stroke-linecap="round" stroke-linejoin="round"/><path d="M272.315 89.857v32.448l-37.44-21.715V89.857c0-6.989 3.744-12.979 9.485-16.224 2.745-1.497 5.99-2.496 9.235-2.496 3.245 0 6.24.75 8.736 2.247h.249s.25 0 .25.25c5.491 2.994 9.485 9.234 9.485 16.223z" fill="#262626" stroke="#262626" stroke-width=".75" stroke-miterlimit="10"/><path d="M73.134 220.897l-11.731-6.74c-.998-.748-1.997-2.246-1.997-3.743v-12.98c0-1.497.999-2.246 1.997-1.497l11.731 6.739c.999.749 1.997 2.246 1.997 3.744v12.979c0 1.498-.998 2.246-1.997 1.498z" fill="#E84142" stroke="#262626" stroke-width=".75" stroke-miterlimit="10" stroke-linecap="round" stroke-linejoin="round"/><path d="M62.648 205.671l3.245 5.492 5.741-3.495m11.733 2.746l27.706 15.974m-27.706-8.487l57.658 33.197M83.367 225.14l57.658 33.446" stroke="#262626" stroke-width=".75" stroke-miterlimit="10" stroke-linecap="round" stroke-linejoin="round"/><path d="M73.134 188.199l-11.731-6.739c-.998-.749-1.997-2.246-1.997-3.744v-12.979c0-1.497.999-2.246 1.997-1.497l11.731 6.739c.999.749 1.997 2.246 1.997 3.744v12.979c0 1.497-.998 2.246-1.997 1.497z" fill="#E06AE9" stroke="#262626" stroke-width=".75" stroke-miterlimit="10" stroke-linecap="round" stroke-linejoin="round"/><path d="M62.648 172.724l3.245 5.491 5.741-3.244m11.733 2.745l27.706 15.975m-27.706-8.736l57.658 33.446m-57.658-25.958l57.658 33.196" stroke="#262626" stroke-width=".75" stroke-miterlimit="10" stroke-linecap="round" stroke-linejoin="round"/><path d="M73.134 155.502l-11.731-6.739c-.998-.749-1.997-2.247-1.997-3.744v-12.98c0-1.497.999-2.246 1.997-1.497l11.731 6.739c.999.749 1.997 2.246 1.997 3.744v12.979c0 1.248-.998 1.997-1.997 1.498z" fill="#FFAD28" stroke="#262626" stroke-width=".75" stroke-miterlimit="10" stroke-linecap="round" stroke-linejoin="round"/><path d="M62.648 140.027l3.245 5.491 5.741-3.245m11.733 2.496l27.706 16.224m-27.706-8.736l57.658 33.196m-57.658-25.957l57.658 33.446" stroke="#262626" stroke-width=".75" stroke-miterlimit="10" stroke-linecap="round" stroke-linejoin="round"/><path d="M73.134 122.555l-11.731-6.739c-.998-.749-1.997-2.247-1.997-3.744v-12.98c0-1.497.999-2.246 1.997-1.497l11.731 6.739c.999.749 1.997 2.246 1.997 3.744v12.979c0 1.498-.998 2.247-1.997 1.498z" fill="#D0D2D3" stroke="#262626" stroke-width=".75" stroke-miterlimit="10" stroke-linecap="round" stroke-linejoin="round"/><path d="M62.648 107.329l3.245 5.491 5.741-3.494m11.733 2.746l27.706 15.974m-27.706-8.486l57.658 33.196m-57.658-25.958l57.658 33.446" stroke="#262626" stroke-width=".75" stroke-miterlimit="10" stroke-linecap="round" stroke-linejoin="round"/></svg>