<svg width="100" height="100" fill="none" xmlns="http://www.w3.org/2000/svg"><path d="M0 28.46h10.532l8.623 24.612 9.277-24.612h6.442l9.11 24.335 8.634-24.335h10.6L47.6 71.678h-6.818l-9.173-24.584-9.39 24.584h-6.74L0 28.46zm80.829 15.667l-.833 1.561a2.748 2.748 0 00-.202.438.976.976 0 00.259 1.011c.205.205.464.309.77.309.294 0 .548-.1.755-.296a.964.964 0 00.313-.725.995.995 0 00-.305-.74 1.02 1.02 0 00-.547-.283l.501-.933-.711-.342zm.252 2.29a.271.271 0 01-.08.2c-.107.102-.254.11-.364-.001a.268.268 0 01-.08-.2.27.27 0 01.076-.198.235.235 0 01.178-.074.25.25 0 01.19.076.259.259 0 01.08.196zm3.701-14.344l-1.346 1.916-.02.03v.665h1.32v.594h.81v-.594h.27v-.747h-.27v-1.864h-.764zm-.378 1.864l.332-.468v.468h-.332zM67.166 59.252l1.103-2.162h-1.193v-.754h2.23l-.011.46-1.42 2.786-.709-.33zm13.87 7.51c.067-.067.1-.15.1-.257a.338.338 0 00-.092-.249c-.09-.094-.203-.124-.34-.059a.557.557 0 00-.146.111l-.05.05-.656-.141.412-1.817h1.641v.747h-1.01l-.063.261h.035c.308 0 .568.102.772.305.205.2.308.459.308.77 0 .314-.113.581-.337.797-.225.216-.5.325-.821.325-.284 0-.533-.079-.741-.235a1.1 1.1 0 01-.408-.645l-.034-.143h.835l.035.064a.385.385 0 00.141.16.345.345 0 00.419-.045zm-.384-15.58a.964.964 0 00.314-.725.994.994 0 00-.305-.74 1.019 1.019 0 00-.547-.283l.5-.933-.71-.342-.834 1.561a2.709 2.709 0 00-.201.438.977.977 0 00.259 1.011c.205.205.464.31.77.31.294 0 .548-.1.754-.297zm-1.02-.733a.27.27 0 01.076-.198.233.233 0 01.178-.074.25.25 0 01.19.075.258.258 0 01.08.197.27.27 0 01-.08.2.248.248 0 01-.365-.001.269.269 0 01-.08-.2zm17.695 9.02v-.594h.269v-.747h-.269v-1.865h-.764l-1.346 1.917-.02.03v.665h1.32v.594h.81zm-1.142-1.341l.332-.468v.468h-.332zm-18.001-6.77a.992.992 0 00.177-1.66 1.01 1.01 0 00.152-.231.795.795 0 00.07-.336.916.916 0 00-.497-.813 1.252 1.252 0 00-1.058-.001.892.892 0 00-.282 1.386c-.103.09-.184.188-.243.295a.966.966 0 00-.117.472 1 1 0 00.146.533c.1.16.232.28.398.36.16.077.375.115.636.115.247 0 .455-.04.618-.12zm-.481-2.038a.22.22 0 01-.3 0 .2.2 0 01-.063-.152c0-.063.018-.108.058-.146a.188.188 0 01.142-.054c.07 0 .123.017.164.055.039.035.057.08.057.141a.21.21 0 01-.058.156zm-.407.9a.393.393 0 01.267-.09c.105 0 .188.03.256.088.065.06.096.129.096.215a.254.254 0 01-.09.205c-.125.11-.404.113-.534-.006a.268.268 0 01-.095-.211c0-.078.033-.141.1-.2zm7.942 17.312v-2.378h-.72l.485-.754h1.053v3.132h-.818zm-10.062-2.185a.809.809 0 00-.26.615c0 .172.039.325.115.456a.8.8 0 00.325.308c.26.14.616.146.88.034a1.53 1.53 0 00.42-.302l.09-.085.562.56-.087.083c-.238.223-.458.373-.672.459-.213.086-.457.13-.728.13-.502 0-.92-.155-1.242-.462-.322-.305-.485-.704-.485-1.182 0-.31.074-.588.221-.83.145-.24.358-.437.632-.584a1.893 1.893 0 011.653-.058c.248.108.463.263.64.46l.077.087-.578.526-.085-.086c-.251-.255-.525-.379-.834-.379a.891.891 0 00-.644.25zm3.29 2.258c.294 0 .548-.1.755-.296a.965.965 0 00.313-.725.994.994 0 00-.305-.74 1.018 1.018 0 00-.547-.283l.501-.933-.711-.342-.834 1.561a2.718 2.718 0 00-.201.438.976.976 0 00.259 1.011c.205.205.464.31.77.31zm-.266-1.03a.27.27 0 01.076-.197.233.233 0 01.178-.074.25.25 0 01.19.075.258.258 0 01.08.197.27.27 0 01-.08.2.247.247 0 01-.364-.001.268.268 0 01-.08-.2zm8.757.74l1.103-2.161h-1.194V64.4h2.231l-.011.46-1.42 2.786-.71-.33zm-3.837-17.36a2.79 2.79 0 00.201-.435.975.975 0 00-.259-1.011 1.053 1.053 0 00-.77-.31c-.294 0-.548.1-.755.297a.967.967 0 00-.313.728c0 .291.102.54.305.737.156.153.341.248.55.284l-.504.934.711.34.834-1.564zm-.562-.724c0 .08-.025.143-.076.196a.263.263 0 01-.369-.002.259.259 0 01-.078-.196c0-.08.026-.147.08-.199a.257.257 0 01.187-.077.24.24 0 01.176.077c.055.055.08.118.08.2zm-3.88-2.63a.334.334 0 00.1-.255.338.338 0 00-.09-.25.274.274 0 00-.34-.058.556.556 0 00-.147.11l-.05.05-.656-.14.412-1.818h1.641v.747h-1.01l-.063.262h.034c.309 0 .569.102.773.305.205.199.307.458.307.77 0 .314-.112.581-.336.797-.225.216-.5.325-.821.325-.284 0-.534-.079-.741-.235a1.1 1.1 0 01-.408-.645l-.034-.144h.835l.035.065a.386.386 0 00.141.16c.127.08.309.067.419-.045zm17.73 7.299c0 .4.046.703.14.924.096.228.234.4.41.515.176.114.391.172.643.172.254 0 .468-.058.636-.172.168-.113.303-.29.4-.524.096-.232.142-.54.142-.943 0-.394-.046-.708-.14-.933a1.1 1.1 0 00-.414-.53 1.155 1.155 0 00-.641-.177c-.38 0-.682.15-.899.445-.186.263-.277.663-.277 1.223zm.823.011c0-.27.02-.474.056-.609.032-.12.077-.204.132-.248a.28.28 0 01.178-.06c.062 0 .154.016.242.158.053.085.117.281.117.727 0 .352-.044.602-.133.742-.077.125-.162.142-.226.142s-.158-.017-.248-.154c-.054-.083-.118-.27-.118-.698zM68.113 36.063l-.833 1.561a2.739 2.739 0 00-.202.438.976.976 0 00.259 1.011c.206.205.464.31.77.31.294 0 .548-.1.755-.297a.965.965 0 00.313-.725.995.995 0 00-.305-.74 1.02 1.02 0 00-.546-.282l.5-.934-.71-.342zm.252 2.29a.271.271 0 01-.079.2c-.106.101-.254.11-.365 0a.268.268 0 01-.08-.2c0-.081.026-.146.076-.198a.234.234 0 01.178-.074.25.25 0 01.191.075.259.259 0 01.079.197zm.007 8.26a.287.287 0 00.096-.219c0-.094-.043-.17-.132-.24-.098-.073-.246-.112-.442-.114l-.122-.001v-.7l.114-.008a.826.826 0 00.267-.05.262.262 0 00.108-.086.182.182 0 00.036-.106.14.14 0 00-.048-.11c-.02-.018-.06-.045-.142-.045a.249.249 0 00-.15.049.256.256 0 00-.094.126l-.027.082h-.784l.018-.133a.977.977 0 01.275-.582c.208-.205.47-.309.782-.309.278 0 .516.087.709.259.193.172.29.383.29.624a.722.722 0 01-.131.418.802.802 0 01-.16.17.84.84 0 01.448.758.97.97 0 01-.34.747c-.222.201-.508.303-.849.303-.327 0-.596-.096-.804-.287-.208-.191-.323-.452-.341-.773l-.008-.125h.807l.016.1c.019.122.062.21.124.264.121.108.355.106.484-.012zM75.39 33.4a.658.658 0 00.098-.306.25.25 0 00-.08-.192.31.31 0 00-.428.017.424.424 0 00-.1.283l-.004.114h-.81l.006-.123c.016-.34.13-.617.343-.817.214-.2.489-.302.818-.302.204 0 .388.041.545.125.16.083.29.207.386.367.094.156.143.32.143.485 0 .188-.056.392-.166.607-.108.209-.297.448-.582.733l-.141.142h.913v.746H73.99v-.43l.97-.949c.218-.21.362-.38.43-.5zm.724 10.728l-.833 1.561a2.748 2.748 0 00-.202.438.976.976 0 00.259 1.011c.206.205.464.309.77.309.294 0 .548-.1.755-.296a.964.964 0 00.313-.725.995.995 0 00-.304-.74 1.02 1.02 0 00-.547-.283l.5-.933-.71-.342zm.252 2.29a.271.271 0 01-.078.2.249.249 0 01-.366-.001.268.268 0 01-.08-.2.27.27 0 01.077-.198.234.234 0 01.177-.074c.079 0 .142.025.192.076a.259.259 0 01.078.196zm-1.177 13.838l-.833 1.561a2.717 2.717 0 00-.202.438.976.976 0 00.259 1.01c.206.206.464.31.77.31.294 0 .548-.1.755-.296a.965.965 0 00.313-.725.995.995 0 00-.305-.74 1.02 1.02 0 00-.546-.283l.5-.933-.71-.342zm.252 2.29a.27.27 0 01-.079.2.249.249 0 01-.365-.001.268.268 0 01-.08-.2.27.27 0 01.077-.197.233.233 0 01.177-.075c.079 0 .141.025.191.076a.258.258 0 01.079.197zm-8.36-7.721c.096.228.234.4.41.515.176.114.391.172.643.172.254 0 .468-.058.636-.172.168-.113.303-.29.4-.524a1.67 1.67 0 00.098-.35v.379h1.32v.594h.811v-.594h.269v-.747h-.269v-1.865h-.764l-1.33 1.892c.005-.08.007-.163.007-.252 0-.394-.046-.708-.14-.933a1.102 1.102 0 00-.414-.53 1.154 1.154 0 00-.641-.177c-.38 0-.682.15-.899.445-.186.263-.277.663-.277 1.223 0 .4.046.703.14.924zm3.175-.727l.333-.468v.468h-.333zm-2.492-.186c0-.27.019-.474.055-.609.033-.12.078-.204.133-.248a.28.28 0 01.178-.06c.062 0 .154.016.242.158.053.085.117.281.117.727 0 .352-.044.602-.133.742-.077.125-.162.142-.226.142s-.158-.017-.248-.154c-.054-.083-.118-.27-.118-.698zm7.425-5.752l-.833 1.561a2.709 2.709 0 00-.202.438.976.976 0 00.259 1.01c.206.206.464.31.77.31.294 0 .548-.1.755-.296a.964.964 0 00.313-.725.994.994 0 00-.305-.74 1.02 1.02 0 00-.546-.283l.5-.933-.71-.342zm.252 2.29a.271.271 0 01-.079.2.249.249 0 01-.365-.001.269.269 0 01-.08-.2.27.27 0 01.077-.197.233.233 0 01.177-.074c.079 0 .141.024.191.075a.258.258 0 01.079.197zm-2.586-6.994l.833-1.563a2.8 2.8 0 00.203-.436.974.974 0 00-.259-1.01 1.052 1.052 0 00-.772-.31c-.293 0-.546.1-.753.297a.966.966 0 00-.314.727c0 .292.102.54.305.738.156.153.341.248.55.283l-.504.935.711.34zm-.251-2.29c0-.08.026-.146.08-.198a.257.257 0 01.187-.078c.067 0 .123.026.176.078.055.054.08.118.08.2a.27.27 0 01-.076.197.264.264 0 01-.447-.198zm14.626 1.417a.287.287 0 00.096-.219c0-.095-.043-.171-.132-.24-.098-.074-.246-.112-.442-.114l-.122-.001v-.7l.114-.008a.827.827 0 00.267-.05.26.26 0 00.108-.087.182.182 0 00.036-.105.14.14 0 00-.048-.11c-.02-.018-.06-.045-.142-.045a.249.249 0 00-.15.049.257.257 0 00-.094.126l-.027.082h-.785l.019-.133a.975.975 0 01.275-.583c.208-.205.47-.308.782-.308.278 0 .516.087.708.259.194.172.29.383.29.624a.722.722 0 01-.13.418.803.803 0 01-.16.17.842.842 0 01.447.758.97.97 0 01-.34.746c-.222.202-.507.304-.848.304-.327 0-.596-.096-.804-.287-.208-.191-.323-.452-.341-.773l-.008-.125h.807l.016.1a.43.43 0 00.123.264.388.388 0 00.485-.012zm-17.918-4.208c0 .195.048.375.146.534.1.16.232.28.398.36.16.076.375.114.636.114.247 0 .455-.04.618-.12a.992.992 0 00.177-1.66.981.981 0 00.152-.231.795.795 0 00.07-.336.916.916 0 00-.497-.813 1.253 1.253 0 00-1.058-.001.892.892 0 00-.422 1.167c.035.077.08.148.14.22a1.051 1.051 0 00-.243.295.965.965 0 00-.117.47zm1.317-1.15a.22.22 0 01-.3 0 .202.202 0 01-.063-.152c0-.062.018-.108.058-.146a.188.188 0 01.143-.054c.07 0 .122.017.163.055.039.035.057.08.057.142 0 .067-.02.117-.058.155zm-.14.81c.105 0 .188.03.256.089.065.06.097.128.097.214a.254.254 0 01-.091.205c-.125.11-.404.113-.534-.006a.268.268 0 01-.095-.21c0-.078.033-.142.1-.201a.394.394 0 01.268-.092zm-.016 2.062l-.834 1.56a2.74 2.74 0 00-.202.439.976.976 0 00.259 1.011c.206.205.465.309.77.309.294 0 .548-.1.755-.297a.964.964 0 00.313-.725.995.995 0 00-.304-.74 1.02 1.02 0 00-.547-.282l.5-.934-.71-.341zm.251 2.29a.271.271 0 01-.078.2c-.106.1-.254.11-.366-.002a.268.268 0 01-.08-.199.27.27 0 01.077-.198.234.234 0 01.178-.074c.078 0 .141.025.19.075a.259.259 0 01.08.197zm2.308 11.172a.66.66 0 00.098-.306.25.25 0 00-.08-.192.31.31 0 00-.428.017.424.424 0 00-.1.283l-.004.115h-.81l.006-.124c.015-.34.13-.616.343-.816.214-.201.489-.303.818-.303.204 0 .388.042.545.125.16.084.29.208.386.367a.93.93 0 01.142.486c0 .187-.055.39-.165.606-.108.209-.298.449-.582.733l-.141.143h.913v.746H71.63v-.431l.97-.949c.22-.21.363-.38.43-.5zm-.201-17.495l-.833 1.561a2.713 2.713 0 00-.202.438.976.976 0 00.259 1.011c.205.205.464.31.77.31.294 0 .548-.1.755-.297a.964.964 0 00.313-.725.995.995 0 00-.305-.74 1.02 1.02 0 00-.547-.282l.501-.934-.711-.342zm.251 2.29a.27.27 0 01-.078.2c-.105.101-.254.11-.365 0a.267.267 0 01-.08-.2.27.27 0 01.076-.198.234.234 0 01.178-.074.25.25 0 01.19.075.258.258 0 01.08.197zM69.526 51.19l1.103-2.162h-1.194v-.754h2.231l-.012.46-1.42 2.786-.708-.33zm2.21-5.388c0-.309.074-.588.222-.829.145-.24.358-.437.631-.584a1.894 1.894 0 011.653-.058c.248.107.464.263.641.46l.076.086-.578.527-.084-.087c-.252-.255-.525-.378-.835-.378a.89.89 0 00-.643.25.808.808 0 00-.26.615c0 .172.039.325.115.456a.802.802 0 00.325.308c.26.14.616.145.88.034.124-.054.265-.156.42-.303l.09-.084.562.56-.087.082c-.238.224-.458.373-.673.46-.212.086-.457.13-.728.13-.502 0-.92-.155-1.242-.462-.321-.306-.484-.704-.484-1.183zm3.57 9.637h.81v-.594h.268v-.747h-.268v-1.865h-.765l-1.346 1.917-.02.03v.665h1.32v.594zm-.333-1.341l.332-.468v.468h-.332zm-5.277-6.96c.206.205.465.309.77.309.295 0 .548-.1.755-.296a.964.964 0 00.313-.725.995.995 0 00-.304-.74 1.02 1.02 0 00-.547-.283l.5-.933-.71-.342-.834 1.561a2.745 2.745 0 00-.202.438.976.976 0 00.259 1.011zm.505-.72a.27.27 0 01.076-.199.234.234 0 01.178-.074.25.25 0 01.19.076.259.259 0 01.08.196.271.271 0 01-.08.2.248.248 0 01-.365 0 .267.267 0 01-.08-.2zm4.371 13.01c.161.076.376.115.637.115.246 0 .454-.04.618-.12a.993.993 0 00.177-1.66 1.01 1.01 0 00.151-.232.793.793 0 00.07-.336.916.916 0 00-.497-.813 1.252 1.252 0 00-1.058 0 .893.893 0 00-.422 1.167.959.959 0 00.14.218 1.08 1.08 0 00-.242.296.966.966 0 00-.118.471 1 1 0 00.147.534c.099.16.232.28.397.36zm.773-2.044a.22.22 0 01-.3 0 .202.202 0 01-.063-.152c0-.062.019-.107.059-.145a.188.188 0 01.142-.055c.07 0 .122.017.164.056.038.034.056.08.056.141a.204.204 0 01-.058.155zm-.139.81a.37.37 0 01.255.089c.066.06.097.128.097.214a.253.253 0 01-.09.205c-.124.11-.404.114-.534-.006a.269.269 0 01-.096-.21c0-.078.033-.142.101-.2a.393.393 0 01.267-.092zm-2.999 5.21c.177.113.392.171.643.171.254 0 .468-.058.637-.171a1.14 1.14 0 00.4-.525c.095-.232.141-.54.141-.943 0-.393-.046-.707-.139-.933a1.102 1.102 0 00-.415-.53 1.155 1.155 0 00-.64-.176c-.38 0-.683.15-.9.444-.185.263-.276.664-.276 1.223 0 .4.046.703.14.924.096.228.234.401.409.516zm.273-1.428c0-.27.02-.475.056-.61.033-.12.077-.203.133-.247.05-.04.11-.061.178-.061.061 0 .153.017.242.158.053.086.117.282.117.727 0 .352-.045.603-.133.743-.078.125-.162.141-.226.141s-.159-.016-.248-.154c-.055-.082-.119-.27-.119-.697zm-5.398-19.247c.095.228.233.4.408.515.177.114.392.172.644.172.254 0 .468-.058.636-.172.168-.113.303-.29.4-.524.096-.232.142-.54.142-.943 0-.394-.046-.707-.14-.933a1.103 1.103 0 00-.414-.53 1.154 1.154 0 00-.641-.177c-.38 0-.682.15-.899.445-.186.263-.277.664-.277 1.223 0 .4.046.703.14.924zm.682-.913c0-.27.019-.474.055-.609.033-.12.078-.203.133-.247a.276.276 0 01.178-.062c.062 0 .154.018.242.159.053.086.117.281.117.727 0 .352-.044.602-.133.742-.077.126-.162.142-.226.142s-.158-.017-.248-.154c-.054-.083-.118-.27-.118-.697zm-.683 8.977c.096.228.234.4.41.515.176.113.391.171.643.171.254 0 .468-.058.636-.171a1.14 1.14 0 00.4-.525c.096-.231.142-.54.142-.942 0-.394-.046-.708-.14-.934a1.103 1.103 0 00-.414-.53 1.154 1.154 0 00-.641-.176c-.38 0-.682.15-.899.444-.186.263-.277.664-.277 1.223 0 .401.046.703.14.925zm.683-.913c0-.27.019-.475.055-.61.033-.12.078-.203.133-.247a.28.28 0 01.178-.061c.062 0 .154.017.242.158.053.086.117.282.117.728 0 .352-.044.602-.133.742-.077.125-.162.141-.226.141s-.158-.016-.248-.154c-.054-.082-.118-.27-.118-.697zm7.45-10.456l.833-1.563c.105-.196.171-.338.202-.436a.982.982 0 00-.259-1.01 1.053 1.053 0 00-.772-.31c-.292 0-.546.1-.753.297a.966.966 0 00-.313.727c0 .292.101.54.304.737.156.153.341.248.55.284l-.504.935.712.339zm-.252-2.29c0-.08.027-.147.08-.199a.258.258 0 01.187-.077c.068 0 .124.025.177.077a.27.27 0 01.08.2c0 .08-.026.144-.077.198a.262.262 0 01-.368-.003.259.259 0 01-.079-.196zM71.883 51.19l1.103-2.162h-1.194v-.754h2.232l-.013.46-1.42 2.786-.708-.33zm2.268-10.98h2.23l-.011.46-1.42 2.786-.709-.33 1.103-2.162h-1.193v-.754zm-2.538 23.292h-2.341v-.43l.97-.95c.219-.21.363-.379.43-.5a.66.66 0 00.098-.305.251.251 0 00-.08-.192.312.312 0 00-.428.017.427.427 0 00-.1.283l-.004.114h-.81l.006-.124c.016-.34.13-.616.344-.816.214-.2.488-.302.817-.302.205 0 .388.041.546.125.16.083.289.207.385.367.095.156.143.32.143.485 0 .188-.056.391-.165.607-.108.208-.298.448-.582.733l-.142.142h.913v.746zm.04-6.705l-1.42 2.786-.708-.33 1.103-2.162h-1.194v-.754h2.231l-.012.46zm1.177-.573l-.833 1.56a2.713 2.713 0 00-.202.439.976.976 0 00.259 1.011c.205.204.464.309.77.309.294 0 .548-.1.755-.297a.964.964 0 00.313-.724.994.994 0 00-.305-.74 1.02 1.02 0 00-.547-.283l.501-.934-.711-.341zm.251 2.29a.27.27 0 01-.078.2c-.105.1-.254.11-.365-.002a.268.268 0 01-.08-.199.27.27 0 01.076-.198.234.234 0 01.178-.074.25.25 0 01.19.075.258.258 0 01.08.197zm-3.826-23.235h-2.341v-.43l.97-.949c.218-.21.362-.38.43-.5a.66.66 0 00.098-.306.251.251 0 00-.08-.192.31.31 0 00-.428.017.424.424 0 00-.1.283l-.004.114h-.81l.006-.123c.016-.34.13-.617.343-.817.214-.2.489-.302.818-.302.204 0 .388.041.545.125.16.083.29.207.386.367.094.156.143.32.143.485 0 .188-.056.392-.166.607-.108.209-.297.448-.581.733l-.142.142h.913v.746zm1.373-6.41h-1.194v-.755h2.231l-.012.46-1.42 2.787-.708-.33 1.103-2.163zm-2.359 0h-1.193v-.755h2.23l-.011.46-1.42 2.787-.709-.33 1.103-2.163zm1.38 38.45c-.209-.191-.324-.452-.342-.772l-.007-.125h.806l.016.1c.02.12.062.209.125.263.122.108.354.107.483-.011a.287.287 0 00.096-.22c0-.094-.042-.17-.132-.239-.098-.074-.245-.112-.441-.115h-.122v-.7l.113-.008a.833.833 0 00.268-.051.26.26 0 00.107-.086.182.182 0 00.037-.105.14.14 0 00-.049-.11c-.02-.019-.06-.045-.141-.045a.257.257 0 00-.244.175l-.027.082h-.785l.018-.133a.975.975 0 01.276-.583 1.07 1.07 0 01.78-.308c.279 0 .517.087.71.258.192.173.29.384.29.624a.724.724 0 01-.13.418.803.803 0 01-.162.17.84.84 0 01.447.759.97.97 0 01-.338.746c-.222.201-.508.303-.849.303-.326 0-.596-.096-.804-.287zm-1.542.287c.294 0 .548-.1.755-.296a.964.964 0 00.313-.725.994.994 0 00-.305-.74 1.019 1.019 0 00-.546-.283l.5-.933-.71-.342-.834 1.561a2.734 2.734 0 00-.202.438.976.976 0 00.259 1.011c.206.205.464.31.77.31zm-.266-1.03c0-.08.026-.145.076-.197a.234.234 0 01.178-.074.25.25 0 01.191.075.26.26 0 01.079.197.271.271 0 01-.079.2c-.106.102-.254.11-.365-.001a.268.268 0 01-.08-.2zm-.765 1.857h2.23l-.011.46-1.42 2.786-.709-.33 1.103-2.162h-1.193v-.754zm5.748-37.113c.294 0 .548-.1.755-.296a.964.964 0 00.313-.725.995.995 0 00-.305-.74 1.02 1.02 0 00-.547-.283l.501-.933L72.83 28l-.833 1.561a2.709 2.709 0 00-.202.438.976.976 0 00.259 1.011c.205.205.464.309.77.309zm-.266-1.03a.27.27 0 01.076-.198.234.234 0 01.178-.074.25.25 0 01.19.076.258.258 0 01.08.197.27.27 0 01-.08.2.247.247 0 01-.364-.001.267.267 0 01-.08-.2zm-5.226 33.05a1.1 1.1 0 01-.408-.645l-.033-.144h.834l.035.065a.383.383 0 00.142.16.338.338 0 00.519-.3.338.338 0 00-.092-.25c-.091-.095-.204-.123-.34-.059a.555.555 0 00-.147.111l-.05.05-.656-.142.413-1.817h1.64v.748h-1.01l-.062.261h.034c.308 0 .568.102.773.305.204.199.307.459.307.77 0 .314-.113.581-.337.797-.224.216-.5.325-.82.325-.285 0-.534-.079-.742-.235zm4.198-30.56a1.103 1.103 0 00-.415-.53 1.155 1.155 0 00-.64-.176c-.38 0-.683.15-.9.444-.186.263-.277.664-.277 1.223 0 .401.046.703.14.925.096.228.234.4.41.515.176.113.391.171.643.171.254 0 .468-.058.636-.171.168-.114.304-.29.4-.525.043-.102.074-.217.098-.35v.38h1.321v.593h.81v-.594h.269v-.747h-.269v-1.864h-.764l-1.33 1.892a3.39 3.39 0 00.007-.252c0-.394-.046-.708-.14-.934zm-.683.94c0 .353-.045.603-.133.743-.078.125-.162.141-.227.141-.064 0-.158-.016-.248-.154-.054-.082-.118-.27-.118-.697 0-.27.02-.475.056-.61.032-.12.077-.203.133-.247.05-.04.11-.061.177-.061.062 0 .154.017.242.158.054.086.118.282.118.728zm1.766.218l.333-.468v.468h-.333zm8.46.534l-.034-.143h.835l.035.064a.387.387 0 00.141.16.338.338 0 00.519-.301.338.338 0 00-.092-.249c-.09-.094-.202-.124-.34-.059a.556.556 0 00-.146.111l-.05.05-.656-.141.412-1.817h1.641v.747h-1.01l-.062.261h.034c.308 0 .568.102.772.305.205.2.308.459.308.77 0 .314-.113.581-.337.797-.225.216-.5.325-.82.325a1.2 1.2 0 01-.742-.235 1.1 1.1 0 01-.408-.645zm1.345-5.604h-1.194v-.754h2.232l-.012.46-1.42 2.787-.709-.33 1.103-2.163zm-2.698 1.219l-.503.934.71.34.834-1.564a2.8 2.8 0 00.202-.435.975.975 0 00-.259-1.011 1.053 1.053 0 00-.771-.31c-.293 0-.547.1-.754.297a.966.966 0 00-.313.727c0 .292.102.54.305.738.156.153.34.248.549.284zm-.044-1.016a.27.27 0 01.08-.2.257.257 0 01.188-.077c.067 0 .123.026.176.078.054.054.08.118.08.2 0 .08-.026.144-.076.197a.263.263 0 01-.369-.002.259.259 0 01-.079-.196zm3.74.917v.665h1.32v.594h.81v-.594h.27v-.747h-.27v-1.864h-.764l-1.346 1.916-.02.03zm.988-.082l.332-.468v.468h-.332zM77.54 31.32c.294 0 .548-.1.755-.296a.964.964 0 00.314-.725.994.994 0 00-.305-.74 1.02 1.02 0 00-.547-.283l.5-.933-.71-.342-.834 1.561a2.744 2.744 0 00-.202.438.975.975 0 00.259 1.011c.206.205.465.309.77.309zm-.266-1.03a.27.27 0 01.077-.198.235.235 0 01.178-.074c.078 0 .14.025.19.076a.259.259 0 01.08.197.271.271 0 01-.08.2.249.249 0 01-.365-.001.268.268 0 01-.08-.2zm-2.703.915c.161.077.376.115.637.115.246 0 .454-.04.618-.12a.992.992 0 00.177-1.66 1.01 1.01 0 00.151-.232.794.794 0 00.07-.335.915.915 0 00-.497-.813 1.252 1.252 0 00-1.058-.002.892.892 0 00-.281 1.387 1.08 1.08 0 00-.243.295.966.966 0 00-.118.471 1 1 0 00.147.534c.099.16.232.28.397.36zm.773-2.044a.219.219 0 01-.3 0 .202.202 0 01-.063-.151c0-.063.019-.108.059-.146a.188.188 0 01.142-.055.23.23 0 01.164.056c.038.035.056.08.056.141a.204.204 0 01-.058.155zm-.139.81a.37.37 0 01.255.089c.066.06.097.128.097.214a.254.254 0 01-.09.205c-.124.11-.404.114-.534-.006a.268.268 0 01-.096-.21c0-.078.033-.142.101-.2a.393.393 0 01.267-.092zm3.268 2.103h-.764l-1.346 1.916-.02.03v.665h1.32v.594h.81v-.594h.268v-.747h-.268v-1.864zm-1.143 1.864l.333-.468v.468h-.333zm2.39.181l-.503.934.71.34.834-1.564a2.8 2.8 0 00.202-.435.974.974 0 00-.259-1.01 1.052 1.052 0 00-.771-.31c-.293 0-.547.1-.754.296a.966.966 0 00-.313.728c0 .291.102.54.305.737.156.153.34.248.549.284zm-.044-1.016c0-.08.027-.147.08-.199a.258.258 0 01.188-.077.24.24 0 01.176.077c.054.055.08.118.08.2 0 .08-.026.144-.076.197a.262.262 0 01-.369-.002.259.259 0 01-.079-.196zm15.946 31.4a1.157 1.157 0 00-.64-.175c-.38 0-.683.15-.9.445-.186.262-.276.663-.276 1.222 0 .401.046.703.14.925.096.228.233.4.409.515.176.113.392.171.643.171.254 0 .468-.058.636-.171a1.13 1.13 0 00.4-.525c.096-.231.142-.54.142-.942 0-.394-.046-.708-.139-.934a1.106 1.106 0 00-.415-.53zm-.268 1.472c0 .352-.045.602-.133.742-.078.125-.162.141-.227.141-.064 0-.158-.016-.247-.154-.055-.082-.119-.27-.119-.697 0-.27.02-.475.056-.61.032-.12.077-.203.133-.247.05-.04.11-.061.178-.061.061 0 .153.017.241.158.054.086.118.282.118.728zm-3.43 4.845h.913v.746h-2.341v-.431l.97-.949c.218-.21.362-.38.43-.5a.659.659 0 00.098-.306.252.252 0 00-.08-.192.31.31 0 00-.428.018.425.425 0 00-.1.282l-.004.115h-.81l.006-.124c.016-.34.13-.616.343-.817.214-.2.489-.302.818-.302.204 0 .388.042.545.125.16.084.29.208.386.367a.94.94 0 01.143.486c0 .187-.056.391-.166.606-.107.209-.297.448-.582.733l-.141.143zm.925-4.033h.913v.746h-2.341v-.43l.97-.949c.219-.21.363-.38.43-.5a.661.661 0 00.098-.306.251.251 0 00-.08-.192.311.311 0 00-.428.017.424.424 0 00-.1.283l-.004.114h-.81l.006-.124c.016-.34.13-.616.344-.816.214-.2.488-.302.817-.302.204 0 .388.041.546.125a.97.97 0 01.385.367.93.93 0 01.143.485c0 .188-.056.392-.166.607-.107.209-.297.448-.581.733l-.142.142zm-5.66 2.808l.5-.934-.71-.341-.834 1.56a2.71 2.71 0 00-.201.438.976.976 0 00.259 1.01c.205.206.464.31.77.31.293 0 .547-.1.754-.296a.965.965 0 00.313-.725.995.995 0 00-.304-.74 1.02 1.02 0 00-.547-.282zm.041 1.014a.27.27 0 01-.079.2c-.106.102-.253.11-.364 0a.268.268 0 01-.08-.2.27.27 0 01.076-.198.234.234 0 01.177-.074c.08 0 .142.024.192.075a.257.257 0 01.078.197zm-17.796-2.176h2.231l-.012.46-1.42 2.786-.708-.33 1.103-2.162h-1.194v-.754zm17.232-35.117h-.81l.005-.123c.016-.34.13-.617.344-.817.214-.2.488-.302.817-.302.205 0 .388.041.546.125.16.083.289.207.385.367.095.156.143.32.143.485 0 .188-.056.392-.166.607-.107.209-.297.448-.581.733l-.142.142h.913v.746h-2.34v-.43l.97-.949c.219-.21.363-.38.43-.5a.66.66 0 00.099-.306.25.25 0 00-.08-.192.31.31 0 00-.428.017.425.425 0 00-.101.283l-.003.114zm12.85 24.466a1.02 1.02 0 00-.546-.283l.5-.934-.71-.341-.834 1.56a2.722 2.722 0 00-.202.439.976.976 0 00.259 1.011c.206.204.464.309.77.309.294 0 .548-.1.755-.297a.964.964 0 00.313-.724.995.995 0 00-.304-.74zm-.505.731a.271.271 0 01-.078.2c-.105.101-.256.11-.366 0a.268.268 0 01-.08-.2.27.27 0 01.077-.198.234.234 0 01.177-.074c.079 0 .142.024.192.075a.259.259 0 01.078.197zm-3.56 4.243h.914v.746h-2.341v-.43l.97-.95c.218-.21.362-.379.43-.5a.66.66 0 00.098-.305.251.251 0 00-.08-.192.312.312 0 00-.428.017.426.426 0 00-.1.283l-.004.114h-.81l.006-.124c.015-.34.13-.616.343-.816.214-.2.489-.302.818-.302.204 0 .388.041.545.125.16.083.29.207.386.367.094.156.143.32.143.485 0 .188-.056.391-.166.607-.108.208-.297.448-.582.733l-.141.142zm2.774-2.283a1.155 1.155 0 00-.641-.176c-.38 0-.682.15-.899.444-.186.263-.277.664-.277 1.223 0 .4.046.703.14.924.096.228.234.401.41.516.176.113.391.171.643.171.254 0 .468-.058.636-.171a1.14 1.14 0 00.4-.525c.096-.232.142-.54.142-.943 0-.393-.046-.707-.14-.933a1.102 1.102 0 00-.414-.53zm-.269 1.47c0 .352-.044.603-.133.743-.077.125-.162.141-.226.141s-.158-.016-.248-.154c-.054-.082-.118-.27-.118-.697 0-.27.02-.475.056-.61.032-.12.077-.203.132-.247a.28.28 0 01.178-.061c.062 0 .154.017.242.158.053.086.117.282.117.727zm-7.809 7.803c.205.2.307.459.307.77 0 .314-.112.582-.336.797a1.14 1.14 0 01-.82.326c-.285 0-.534-.08-.742-.236a1.1 1.1 0 01-.408-.645l-.034-.143h.835l.035.065a.386.386 0 00.141.16.338.338 0 00.519-.302.336.336 0 00-.092-.249c-.09-.094-.202-.123-.34-.059a.56.56 0 00-.146.112l-.05.05-.656-.142.412-1.817h1.641v.747h-1.01l-.062.262h.034c.308 0 .568.102.772.304zM73.04 65.561l.501-.933-.711-.342-.833 1.561a2.709 2.709 0 00-.202.438.976.976 0 00.259 1.011c.205.205.464.31.77.31.294 0 .548-.1.755-.297a.964.964 0 00.313-.725.994.994 0 00-.305-.74 1.019 1.019 0 00-.547-.283zm.041 1.015a.27.27 0 01-.078.2c-.105.102-.254.11-.365-.001a.267.267 0 01-.08-.2.27.27 0 01.076-.197.234.234 0 01.178-.074.25.25 0 01.19.075.259.259 0 01.08.197zm2.921 3.282a1.01 1.01 0 00.153-.232.794.794 0 00.07-.336.916.916 0 00-.497-.813 1.252 1.252 0 00-1.059 0 .891.891 0 00-.281 1.385 1.08 1.08 0 00-.243.296.965.965 0 00-.118.471 1 1 0 00.147.534c.099.16.232.28.397.36.161.076.376.115.637.115.246 0 .454-.041.618-.12a.992.992 0 00.177-1.66zm-.658-.379a.219.219 0 01-.3 0 .202.202 0 01-.063-.152c0-.062.019-.108.059-.146a.188.188 0 01.142-.054c.07 0 .122.017.164.056.038.034.056.08.056.14a.204.204 0 01-.058.156zm-.406.901a.393.393 0 01.267-.091.37.37 0 01.255.089c.066.06.097.128.097.214a.254.254 0 01-.09.205c-.124.109-.404.115-.534-.006a.268.268 0 01-.096-.21c0-.078.033-.142.101-.201zm-1.898-.786l.501-.934-.711-.341-.833 1.56a2.7 2.7 0 00-.202.438.976.976 0 00.259 1.01c.205.206.464.31.77.31.294 0 .548-.1.755-.296a.965.965 0 00.313-.725.995.995 0 00-.305-.74 1.02 1.02 0 00-.547-.282zm.041 1.014a.27.27 0 01-.078.2c-.105.102-.254.11-.365 0a.268.268 0 01-.08-.2.27.27 0 01.076-.198.234.234 0 01.178-.074.25.25 0 01.19.075.257.257 0 01.08.197zm4.676-1.014l.5-.934-.71-.341-.834 1.56a2.735 2.735 0 00-.202.438.975.975 0 00.259 1.01c.206.206.465.31.77.31.294 0 .548-.1.755-.296a.964.964 0 00.314-.725.995.995 0 00-.305-.74 1.02 1.02 0 00-.547-.282zm.041 1.014a.272.272 0 01-.078.2.249.249 0 01-.366 0 .269.269 0 01-.08-.2.27.27 0 01.077-.198.234.234 0 01.178-.074c.078 0 .14.024.19.075a.258.258 0 01.08.197zm5.646-1.716l-1.42 2.786-.709-.33 1.103-2.162h-1.194v-.754h2.232l-.012.46zm2.103-.533h-.765l-1.346 1.917-.02.03v.665h1.32v.594h.81v-.594h.27v-.747h-.27v-1.865zm-1.143 1.865l.332-.468v.468h-.332zm-4.471-1.865c-.293 0-.547.1-.754.297a.966.966 0 00-.313.727c0 .292.102.54.305.738.156.152.341.247.549.283l-.503.935.71.34.834-1.564a2.8 2.8 0 00.202-.436.975.975 0 00-.259-1.011 1.053 1.053 0 00-.771-.309zm.267 1.03c0 .08-.026.144-.076.198a.264.264 0 01-.448-.198.267.267 0 01.268-.277c.067 0 .123.026.176.077a.27.27 0 01.08.2zm14.224-18.872l-.142.142h.913v.746h-2.341v-.43l.97-.949c.219-.21.363-.38.43-.5a.66.66 0 00.099-.306.25.25 0 00-.08-.192.311.311 0 00-.429.017.424.424 0 00-.1.283l-.004.114h-.81l.006-.123c.016-.341.13-.617.344-.817.214-.2.488-.302.817-.302.205 0 .388.041.546.125.16.083.289.207.386.367.094.156.142.32.142.485 0 .188-.056.392-.165.607-.108.209-.298.448-.582.733zm-2.7-5.905c-.186.263-.277.664-.277 1.223 0 .4.046.703.14.924.096.228.234.4.41.516.176.113.391.171.643.171.254 0 .468-.058.636-.171.168-.114.304-.29.4-.525.096-.232.142-.54.142-.943 0-.393-.046-.707-.14-.933a1.104 1.104 0 00-.414-.53 1.156 1.156 0 00-.641-.177c-.38 0-.682.15-.899.445zm1.154.475c.053.086.118.281.118.727 0 .352-.045.602-.134.743-.077.125-.162.14-.226.14s-.158-.015-.248-.153c-.054-.082-.118-.27-.118-.697 0-.27.02-.475.055-.61.033-.12.078-.203.133-.247a.281.281 0 01.178-.062c.062 0 .154.018.242.159zm-5.905-13.768c.293 0 .547-.1.754-.296a.965.965 0 00.313-.725.995.995 0 00-.304-.74 1.02 1.02 0 00-.547-.283l.5-.933-.71-.342-.834 1.561a2.718 2.718 0 00-.201.438.976.976 0 00.259 1.011c.205.205.464.309.77.309zm-.266-1.03a.27.27 0 01.076-.198.234.234 0 01.177-.074c.08 0 .142.025.192.076a.258.258 0 01.078.197.27.27 0 01-.079.2c-.106.102-.253.11-.364-.001a.267.267 0 01-.08-.2zm2.63 17.87l-.833 1.561a2.74 2.74 0 00-.202.438.976.976 0 00.259 1.01c.205.206.464.31.77.31.294 0 .548-.1.755-.296a.965.965 0 00.313-.725.995.995 0 00-.305-.74 1.02 1.02 0 00-.547-.283l.501-.933-.71-.342zm.252 2.29a.27.27 0 01-.08.2.247.247 0 01-.364-.001.269.269 0 01-.08-.2.27.27 0 01.076-.197.234.234 0 01.178-.074.25.25 0 01.19.075.258.258 0 01.08.197zm4.456-10.353l-.833 1.56a2.725 2.725 0 00-.202.439.976.976 0 00.259 1.011c.205.205.464.309.77.309.294 0 .548-.1.755-.297a.964.964 0 00.313-.725.995.995 0 00-.305-.74 1.02 1.02 0 00-.546-.282l.5-.934-.71-.341zm.252 2.29a.27.27 0 01-.079.2c-.104.1-.254.11-.365-.002a.268.268 0 01-.08-.199.27.27 0 01.076-.198.234.234 0 01.178-.074c.079 0 .142.025.191.075a.259.259 0 01.079.197zm-3.665 4.099l-.141.142h.913v.746h-2.341v-.43l.97-.95c.218-.21.362-.38.43-.5a.661.661 0 00.098-.305.251.251 0 00-.08-.193.31.31 0 00-.428.018.425.425 0 00-.1.282l-.004.115h-.81l.006-.124c.016-.34.13-.616.343-.816.214-.2.489-.303.818-.303.204 0 .388.042.545.126.16.083.29.207.386.367.094.156.143.32.143.485 0 .188-.056.391-.166.607-.108.208-.298.448-.582.733zm-3.521 6.77c0 .293.101.54.304.739.156.152.341.247.55.283l-.504.935.712.339.833-1.563c.105-.196.171-.338.202-.436a.975.975 0 00-.259-1.011 1.052 1.052 0 00-.772-.309c-.292 0-.546.1-.753.297a.966.966 0 00-.313.727zm.81.007c0-.081.026-.147.08-.2a.257.257 0 01.187-.077.24.24 0 01.177.078c.054.054.08.118.08.2 0 .08-.026.143-.077.197a.263.263 0 01-.369-.002.26.26 0 01-.078-.196zm2.545 2.249c-.284 0-.533-.079-.74-.236a1.1 1.1 0 01-.408-.644l-.034-.144h.834l.035.065a.386.386 0 00.142.16.338.338 0 00.519-.301.338.338 0 00-.092-.25c-.09-.093-.202-.122-.34-.059a.556.556 0 00-.146.112l-.05.05-.657-.142.413-1.817h1.64v.747h-1.01l-.062.262h.034c.309 0 .569.102.773.304.204.2.307.459.307.77 0 .314-.112.582-.336.797-.225.217-.5.326-.822.326zm1.864-15.199a1.154 1.154 0 00-.64-.176c-.38 0-.683.15-.9.445-.186.263-.276.664-.276 1.223 0 .4.046.703.14.924.096.228.233.4.409.515.176.114.392.172.643.172.254 0 .468-.058.636-.172a1.13 1.13 0 00.4-.524c.096-.232.142-.54.142-.943 0-.394-.046-.707-.139-.933a1.104 1.104 0 00-.415-.53zm-.268 1.471c0 .352-.045.602-.133.742-.078.126-.162.142-.226.142-.065 0-.159-.017-.248-.154-.055-.083-.119-.27-.119-.697 0-.27.02-.475.056-.61.032-.12.077-.203.133-.247a.274.274 0 01.178-.062c.061 0 .153.018.241.159.054.086.118.281.118.727zm-1.987 17.462a.964.964 0 00.313-.724.994.994 0 00-.305-.74 1.021 1.021 0 00-.546-.283l.5-.934-.711-.341-.833 1.56a2.745 2.745 0 00-.202.439.976.976 0 00.259 1.011c.205.204.464.309.77.309.294 0 .548-.1.755-.297zm-1.02-.733a.27.27 0 01.075-.198.234.234 0 01.178-.074c.078 0 .141.024.191.075a.259.259 0 01.079.197.27.27 0 01-.079.2c-.105.101-.255.11-.365 0a.269.269 0 01-.08-.2zm6.538-3.963l-.141.143h.913v.746h-2.341v-.431l.97-.949c.218-.21.362-.38.43-.5a.66.66 0 00.098-.306.251.251 0 00-.08-.192.31.31 0 00-.428.017.425.425 0 00-.1.283l-.004.115h-.81l.006-.124c.015-.34.13-.616.343-.816.214-.201.489-.303.818-.303.204 0 .388.042.545.125.16.084.29.208.386.367a.94.94 0 01.143.486c0 .187-.056.39-.166.606-.108.209-.297.449-.582.733zm-6.102-18.445l-1.346 1.917-.021.03v.664h1.32v.594h.811v-.594h.269v-.747h-.269v-1.864h-.764zm-.379 1.864l.333-.467v.468h-.333zm5.14.57c.068-.066.1-.15.1-.256a.338.338 0 00-.092-.249c-.09-.093-.202-.124-.34-.059a.553.553 0 00-.146.111l-.05.05-.656-.141.413-1.817h1.64v.747h-1.01l-.062.262h.034c.308 0 .568.102.773.304.204.2.307.459.307.77 0 .314-.113.582-.337.797a1.14 1.14 0 01-.82.325 1.2 1.2 0 01-.742-.235 1.1 1.1 0 01-.408-.645l-.033-.143h.834l.035.065a.386.386 0 00.142.16.344.344 0 00.418-.046zm-.46 16.9v-.594h.268v-.747h-.269v-1.865h-.764L91.68 54.15l-.02.03v.665h1.32v.594h.81zm-1.144-1.341l.333-.468v.468h-.333zm-.94 5.485l.834-1.563a2.8 2.8 0 00.202-.436.974.974 0 00-.259-1.01 1.053 1.053 0 00-.772-.31c-.292 0-.546.1-.753.297a.966.966 0 00-.313.727c0 .292.101.54.304.738.157.153.342.248.55.284l-.504.934.712.34zm-.25-2.29c0-.08.026-.146.079-.198a.258.258 0 01.187-.078c.068 0 .124.026.177.078.054.054.08.118.08.2a.27.27 0 01-.076.197.263.263 0 01-.37-.002.26.26 0 01-.078-.196zm-3.353-11.799a.66.66 0 00.098-.305.251.251 0 00-.08-.193.31.31 0 00-.428.018.424.424 0 00-.1.282l-.004.115h-.81l.005-.124c.016-.34.131-.616.344-.816.214-.2.488-.303.817-.303.205 0 .389.042.546.126.16.083.289.207.386.367.094.156.142.32.142.485 0 .188-.055.391-.165.607-.108.208-.298.448-.582.733l-.142.142h.914v.746h-2.342v-.43l.97-.95c.219-.21.363-.38.43-.5zm1.424-4.03a.66.66 0 00.098-.306.25.25 0 00-.08-.193.31.31 0 00-.428.018.424.424 0 00-.1.282l-.004.115h-.81l.006-.124c.016-.34.13-.616.344-.816.214-.2.488-.303.817-.303.205 0 .388.042.546.125.16.084.288.208.385.367a.93.93 0 01.143.486c0 .187-.056.391-.166.607-.107.208-.297.448-.581.733l-.142.142h.913v.746h-2.34v-.431l.97-.948c.219-.211.363-.38.43-.5zm-1.356 22.152l.833-1.564c.105-.195.171-.338.202-.435a.975.975 0 00-.259-1.011 1.052 1.052 0 00-.772-.31c-.292 0-.546.1-.753.297a.965.965 0 00-.313.727c0 .292.101.54.304.738.156.153.341.248.55.284l-.504.934.712.34zm-.252-2.29c0-.08.026-.147.08-.199a.257.257 0 01.187-.078.24.24 0 01.177.078c.054.055.08.118.08.2a.27.27 0 01-.077.197.262.262 0 01-.369-.002.26.26 0 01-.078-.196zm3.21-13.052h1.64v.747h-1.01l-.062.261h.034c.308 0 .568.102.773.305.204.2.307.459.307.77 0 .314-.113.581-.336.797a1.149 1.149 0 01-.822.325c-.284 0-.533-.078-.74-.235a1.1 1.1 0 01-.409-.645l-.033-.143h.834l.035.064a.386.386 0 00.142.16.338.338 0 00.519-.301.338.338 0 00-.092-.249c-.091-.094-.204-.124-.34-.059a.552.552 0 00-.147.111l-.05.05-.656-.141.413-1.817zM94.21 32.9h-1.194v-.754h2.231l-.012.46-1.42 2.786-.708-.33L94.21 32.9zM91.7 62.514l-.007-.125h.807l.015.1c.02.122.062.21.125.264.122.108.353.108.484-.012a.288.288 0 00.095-.218c0-.095-.042-.172-.132-.24-.097-.074-.245-.112-.441-.115h-.122v-.7l.114-.009a.824.824 0 00.267-.05.26.26 0 00.108-.086.182.182 0 00.035-.105.139.139 0 00-.048-.11c-.02-.019-.059-.046-.141-.046a.257.257 0 00-.244.175l-.027.082h-.785l.018-.133a.976.976 0 01.276-.582 1.07 1.07 0 01.781-.308c.278 0 .516.087.709.258.192.172.29.383.29.624a.721.721 0 01-.13.418.804.804 0 01-.161.17.842.842 0 01.448.758.971.971 0 01-.34.747c-.222.201-.508.303-.848.303-.327 0-.597-.096-.805-.287-.208-.191-.323-.452-.34-.773zm3.524-5.718l-1.42 2.786-.708-.33 1.103-2.162h-1.194v-.754h2.231l-.012.46zM91.851 32.9h-1.193v-.754h2.231l-.012.46-1.42 2.786-.709-.33 1.103-2.162zm4.24 4.447h-.811l.006-.124c.016-.34.13-.616.343-.817.215-.2.49-.302.818-.302.204 0 .388.042.546.125.16.084.288.207.385.367a.93.93 0 01.143.485c0 .188-.056.392-.166.607-.107.209-.297.448-.581.733l-.142.143h.913v.745h-2.341v-.43l.97-.949c.219-.21.363-.38.43-.5a.663.663 0 00.098-.306.25.25 0 00-.08-.192.311.311 0 00-.428.017.424.424 0 00-.1.283l-.004.115zm-6.547-6.872c.068-.066.1-.15.1-.256a.337.337 0 00-.092-.25c-.09-.093-.202-.123-.34-.058a.557.557 0 00-.146.111l-.05.05-.656-.142.412-1.817h1.641v.747h-1.01l-.062.262h.034c.308 0 .568.102.772.305.205.199.307.458.307.77 0 .314-.112.581-.336.797-.225.216-.5.325-.82.325-.285 0-.534-.079-.742-.235a1.1 1.1 0 01-.408-.645l-.034-.144h.835l.035.065a.385.385 0 00.141.16c.126.08.309.067.419-.045zm.437 1.774a1.155 1.155 0 00-.642-.176c-.38 0-.682.15-.898.444-.187.263-.277.664-.277 1.223 0 .401.046.703.14.925.096.228.233.4.409.515.177.113.392.171.643.171.254 0 .468-.058.637-.171a1.14 1.14 0 00.4-.525c.095-.231.141-.54.141-.942 0-.394-.046-.708-.139-.934a1.104 1.104 0 00-.414-.53zm-.269 1.47c0 .353-.045.603-.133.743-.078.125-.162.141-.226.141s-.159-.016-.248-.154c-.055-.082-.119-.27-.119-.697 0-.27.02-.475.056-.61.032-.12.077-.203.133-.247.05-.04.11-.061.178-.061.061 0 .153.017.242.158.053.086.117.282.117.728zm1.969 5.663c.294 0 .548-.1.754-.296a.964.964 0 00.314-.725.994.994 0 00-.305-.74 1.02 1.02 0 00-.547-.282l.501-.934-.711-.342-.833 1.562a2.753 2.753 0 00-.203.437.976.976 0 00.259 1.011c.206.205.465.31.77.31zm-.266-1.029a.27.27 0 01.076-.198.235.235 0 01.178-.074.25.25 0 01.19.075.259.259 0 01.08.197.27.27 0 01-.08.2c-.105.101-.253.11-.364 0a.268.268 0 01-.08-.2zM83.18 67.605c.294 0 .548-.1.755-.296a.964.964 0 00.313-.725.995.995 0 00-.305-.74 1.02 1.02 0 00-.546-.283l.5-.933-.71-.342-.834 1.561a2.699 2.699 0 00-.202.438.976.976 0 00.259 1.011c.205.205.464.31.77.31zm-.266-1.03a.27.27 0 01.076-.197.234.234 0 01.178-.074.25.25 0 01.191.075.26.26 0 01.079.197.271.271 0 01-.079.2.248.248 0 01-.365-.001.268.268 0 01-.08-.2zm-.27-22.335h1.053v3.133h-.818v-2.379h-.72l.484-.754zm3.288-8.063h2.231l-.012.46-1.42 2.786-.709-.33 1.103-2.162h-1.194v-.754zm5.755 24.651l-1.42 2.787-.708-.33 1.103-2.162h-1.194v-.755H91.7l-.012.46zm-7.18-16.588h2.231l-.012.46-1.42 2.786-.708-.33 1.103-2.162h-1.194v-.754zm6.896 23.292h-2.341v-.43l.97-.949c.218-.21.362-.38.43-.5a.662.662 0 00.098-.306.252.252 0 00-.08-.192.312.312 0 00-.428.017.425.425 0 00-.1.283l-.004.114h-.81l.006-.124c.016-.34.13-.616.343-.816.214-.2.489-.302.818-.302.204 0 .388.041.545.125.16.083.29.207.386.367.094.156.143.32.143.485 0 .188-.056.392-.166.607-.108.209-.297.448-.582.733l-.141.142h.913v.746zM84.382 51.52l-.709-.33 1.103-2.162h-1.193v-.754h2.231l-.012.46-1.42 2.786zm2.713-.114h.81v-.594h.269v-.747h-.269V48.2h-.764l-1.346 1.916-.02.03v.665h1.32v.594zm-.333-1.34l.333-.469v.468h-.333z" fill="#E84142"/></svg>