<svg width="100" height="100" fill="none" xmlns="http://www.w3.org/2000/svg"><mask id="a" fill="#fff"><path d="M60.221 29.033l-8.128-4.742a5.451 5.451 0 00-4.904 0l-8.128 4.742c-1.742 1.032-1.774 2.71 0 3.71l8.129 4.806a5.257 5.257 0 004.903 0l8.128-4.806a1.967 1.967 0 000-3.71z"/><path d="M91.933 23.162L52.643.582a5.452 5.452 0 00-4.903 0L8.453 23.162A5.516 5.516 0 006 27.42v45.16a5.516 5.516 0 002.452 4.258l39.288 22.58a5.451 5.451 0 004.904 0l39.289-22.58a5.517 5.517 0 002.451-4.258V27.42a5.517 5.517 0 00-2.451-4.258zM74.448 33.646l-22.354 13.16a5.258 5.258 0 01-4.903 0L33 38.485c-1.742-1.064-3.226-.226-3.226 1.807v25.192a2.032 2.032 0 01-3.225 1.936l-2.42-1.258a5.225 5.225 0 01-2.516-4.194V34.613a5.515 5.515 0 012.452-4.258L47.16 16.938a5.451 5.451 0 014.903 0L74.417 29.84a1.967 1.967 0 01.032 3.807z"/><path fill-rule="evenodd" clip-rule="evenodd" d="M74.45 33.646l-22.355 13.16a5.258 5.258 0 01-4.903 0L33 38.485c-1.742-1.064-3.226-.226-3.226 1.807v25.192a2.032 2.032 0 01-3.225 1.936l-2.42-1.258a5.225 5.225 0 01-2.516-4.194V34.613a5.515 5.515 0 012.452-4.258L47.16 16.938a5.451 5.451 0 014.903 0L74.417 29.84a1.967 1.967 0 01.032 3.807zM52.091 24.29l8.13 4.742a1.967 1.967 0 010 3.71l-8.13 4.806a5.257 5.257 0 01-4.902 0l-8.13-4.806c-1.773-1-1.741-2.678 0-3.71l8.13-4.742a5.451 5.451 0 014.903 0z"/></mask><path d="M60.221 29.033l-1.007 1.728.162.095.178.062.667-1.885zm-8.128-4.742l1.007-1.727-.053-.031-.055-.028-.9 1.786zm-4.904 0l-.899-1.786-.055.028-.053.03 1.008 1.728zm-8.128 4.742l-1.008-1.728-.012.008 1.02 1.72zm0 3.71l1.018-1.722-.018-.01-.018-.01-.982 1.742zm8.129 4.806l-1.018 1.721.042.025.043.023.933-1.77zm2.451.606v2-2zm2.452-.606l.932 1.77.043-.024.042-.025-1.017-1.721zm8.128-4.806l-.667-1.886-.184.065-.167.1 1.018 1.72zm1.311-1.855h2-2zm12.917 2.758l-.524-1.93-.259.07-.231.136 1.014 1.724zm-22.354 13.16l.933 1.77.041-.022.04-.024-1.014-1.723zm-4.903 0l-1.011 1.726.039.023.04.02.932-1.768zM33 38.485l-1.043 1.707.016.01.015.008L33 38.484zm-3.226 27h-2v.152l.024.15 1.976-.303zm-3.225 1.935l1.197-1.602-.13-.097-.145-.076-.922 1.775zm-2.42-1.258l-1.034 1.712.055.033.057.03.922-1.775zm-2.516-4.194h-2v.054l.003.053 1.997-.107zm0-27.354l-1.996-.121-.004.06v.061h2zm2.452-4.258l-1.005-1.729-.052.03-.05.034 1.107 1.665zM47.16 16.938l-.9-1.787-.053.027-.052.03 1.005 1.73zm4.903 0l1-1.733-.05-.028-.05-.026-.9 1.787zM74.417 29.84l-1 1.733.24.138.269.068.491-1.939zm-13.188-2.534L53.1 22.564l-2.015 3.455 8.129 4.742 2.015-3.456zm-8.237-4.8a7.451 7.451 0 00-3.351-.796v4c.54 0 1.07.126 1.552.369l1.799-3.573zm-3.351-.796a7.451 7.451 0 00-3.35.796l1.798 3.573a3.452 3.452 0 011.552-.369v-4zm-3.46.855l-8.128 4.741 2.016 3.456 8.128-4.742-2.015-3.455zm-8.14 4.748c-1.235.732-2.29 1.96-2.299 3.576-.01 1.64 1.059 2.876 2.337 3.597L40.043 31c-.24-.134-.322-.239-.336-.259-.006-.008.004.004.015.038a.427.427 0 01.002.254c-.01.026-.015.03-.003.013.025-.036.12-.15.36-.292l-2.04-3.442zm.002 7.152l8.129 4.806 2.035-3.443-8.128-4.806-2.036 3.443zm8.214 4.854a7.257 7.257 0 003.384.837v-4c-.53 0-1.05-.129-1.519-.375l-1.865 3.538zm3.384.837c1.18 0 2.34-.287 3.384-.837L51.16 35.78c-.468.246-.99.375-1.519.375v4zm3.47-.885l8.128-4.806-2.036-3.443-8.128 4.806 2.035 3.444zm7.778-4.642a3.967 3.967 0 001.916-1.45l-3.267-2.309a.032.032 0 01.016-.012l1.335 3.77zm1.916-1.45a3.97 3.97 0 00.727-2.29h-4c0-.007.002-.013.006-.019l3.267 2.309zm.727-2.29c0-.82-.254-1.62-.727-2.29l-3.267 2.309a.032.032 0 01-.006-.02h4zm-.727-2.29a3.968 3.968 0 00-1.916-1.45l-1.335 3.77a.032.032 0 01-.016-.011l3.267-2.309zm10.63 3.324L51.08 45.083l2.03 3.447 22.354-13.16-2.03-3.448zM51.163 45.037a3.26 3.26 0 01-1.52.376v4a7.26 7.26 0 003.385-.837l-1.865-3.539zm-1.52.376c-.529 0-1.05-.129-1.518-.376l-1.865 3.539a7.259 7.259 0 003.384.837v-4zm-1.44-.332L34.012 36.76l-2.024 3.45 14.194 8.323 2.023-3.45zm-14.161-8.303c-1.253-.766-2.86-1.098-4.288-.296-1.428.802-1.98 2.345-1.98 3.809h4c0-.272.05-.4.063-.427.006-.012.002 0-.02.025a.418.418 0 01-.228.128c-.033.006-.046.003-.032.004.03.003.166.027.4.17l2.085-3.413zm-6.269 3.513v25.192h4V40.291h-4zm.024 25.495c0 .007 0 .013-.003.019l3.62 1.7c.34-.724.458-1.533.336-2.325l-3.953.606zm-.003.019a.032.032 0 01-.013.014l2.058 3.43a4.033 4.033 0 001.575-1.743l-3.62-1.701zm-.013.014a.033.033 0 01-.018.004l-.203 3.995a4.03 4.03 0 002.28-.57l-2.059-3.43zm-.018.004a.031.031 0 01-.018-.006l-2.395 3.204c.641.479 1.41.757 2.21.797l.203-3.995zm-.293-.179l-2.419-1.258-1.845 3.55 2.419 1.257 1.845-3.549zm-2.307-1.195a3.225 3.225 0 01-1.098-1.102l-3.43 2.059a7.226 7.226 0 002.46 2.467l2.068-3.424zm-1.098-1.102a3.225 3.225 0 01-.456-1.487l-3.994.214a7.226 7.226 0 001.02 3.332l3.43-2.059zm-.453-1.38V34.613h-4v27.354h4zm-.003-27.232c.033-.542.191-1.07.462-1.54l-3.466-1.997a7.516 7.516 0 00-.989 3.294l3.993.243zm.462-1.54a3.521 3.521 0 011.1-1.174l-2.215-3.33a7.516 7.516 0 00-2.351 2.508l3.466 1.995zm.998-1.11l23.096-13.42-2.01-3.458-23.096 13.42 2.01 3.458zm22.99-13.362a3.45 3.45 0 011.552-.369v-4a7.451 7.451 0 00-3.35.796l1.798 3.573zm1.552-.369c.54 0 1.071.127 1.553.369l1.798-3.573a7.45 7.45 0 00-3.35-.796v4zm1.452.315l22.354 12.903 2-3.465-22.354-12.902-2 3.464zm22.863 13.11a.032.032 0 01-.018-.012l3.147-2.47a3.968 3.968 0 00-2.147-1.396l-.982 3.877zm-.018-.012a.032.032 0 01-.007-.02l4-.034a3.967 3.967 0 00-.846-2.416l-3.147 2.47zm-.007-.02c0-.007.003-.014.007-.02l3.188 2.417c.53-.7.813-1.554.805-2.43l-4 .033zm.007-.02a.032.032 0 01.017-.011l1.048 3.86a3.968 3.968 0 002.123-1.432l-3.188-2.417zm18.025-8.565l2.214-3.33-.108-.073-.113-.065-1.993 3.468zM52.643.582l1.994-3.468-.096-.055-.099-.05L52.644.583zm-4.903 0L45.942-2.99l-.099.05-.096.054L47.74.582zM8.453 23.162l-1.994-3.468-.113.065-.108.072 2.215 3.331zM6 27.42l-3.993-.243-.007.122v.121h4zm0 45.16H2v.121l.007.122L6 72.58zm2.452 4.258l-2.215 3.33.108.073.113.065 1.994-3.468zm39.288 22.58l-1.993 3.468.096.055.099.049 1.798-3.572zm4.904 0l1.798 3.572.099-.049.096-.055-1.993-3.468zm39.289-22.58l1.993 3.468.113-.065.108-.072-2.215-3.331zm2.451-4.258l3.993.243.007-.121v-.122h-4zm0-45.16h4v-.122l-.007-.121-3.993.243zm-.458-7.726l-39.29-22.58L50.65 4.05l39.29 22.58 3.986-6.936zM54.442-2.99A9.452 9.452 0 0050.192-4v8c.227 0 .45.053.653.155l3.597-7.145zM50.192-4a9.452 9.452 0 00-4.25 1.01l3.597 7.145c.203-.102.426-.155.653-.155v-8zm-4.445 1.114L6.458 19.694l3.987 6.936L49.734 4.05l-3.987-6.936zM6.237 19.831a9.516 9.516 0 00-2.978 3.176L10.192 27a1.53 1.53 0 01.474-.506l-4.43-6.662zm-2.978 3.176a9.516 9.516 0 00-1.252 4.17l7.986.486a1.51 1.51 0 01.199-.664l-6.933-3.992zM2 27.42v45.16h8V27.42H2zm.007 45.403a9.516 9.516 0 001.252 4.17L10.192 73a1.515 1.515 0 01-.2-.664l-7.985.486zm1.252 4.17a9.516 9.516 0 002.978 3.176l4.43-6.662a1.516 1.516 0 01-.475-.506l-6.933 3.992zm3.2 3.313l39.288 22.58 3.987-6.936-39.29-22.58-3.986 6.936zm39.483 22.684a9.45 9.45 0 004.25 1.01v-8c-.227 0-.45-.053-.653-.155l-3.597 7.145zm4.25 1.01a9.45 9.45 0 004.25-1.01l-3.597-7.145a1.452 1.452 0 01-.653.155v8zm4.445-1.114l39.289-22.58-3.987-6.936L50.65 95.95l3.987 6.936zm39.51-22.717a9.516 9.516 0 002.978-3.176L90.192 73a1.53 1.53 0 01-.474.506l4.43 6.662zm2.978-3.176a9.516 9.516 0 001.252-4.17l-7.986-.486a1.517 1.517 0 01-.199.664l6.933 3.992zm1.26-4.413V27.42h-8v45.16h8zm-.008-45.403a9.516 9.516 0 00-1.252-4.17L90.192 27c.117.203.185.43.2.664l7.985-.486zm-1.252-4.17a9.517 9.517 0 00-2.978-3.176l-4.43 6.662c.196.13.358.303.475.506l6.933-3.992z" fill="#262626" mask="url(#a)"/></svg>