<svg width="100" height="100" fill="none" xmlns="http://www.w3.org/2000/svg"><path d="M75.665 48.227c3.5-4.427 5.4-9.908 5.39-15.551C81.056 18.793 69.809 8 55.932 8h-30.51v3.14h29.834c12.264 0 22.206 9.496 22.206 21.76a22.118 22.118 0 01-4.372 13.236l2.576 2.091z" fill="#4BBC24"/><path d="M72.257 45.628A18.118 18.118 0 0077.46 32.9a18.171 18.171 0 00-18.17-18.171H33.492v3.142h26.469a14.803 14.803 0 0114.813 14.805 14.769 14.769 0 01-5.276 11.33l2.76 1.622z" fill="#4BBC24"/><path d="M67.29 43.258c4.244-1.855 7.493-5.895 7.493-10.583 0-6.442-6.12-11.664-12.562-11.664H39.78v1.793h22.21c5.316 0 10.541 4.321 10.541 9.647 0 4.315-3.42 7.975-7.552 9.2l2.31 1.607zM16.445 87.86h4.936V91h-4.936v-3.14zm4.938-6.282h19.74v2.242h-19.74v-2.242zm0-13.906H42.47v1.796H21.383v-1.796zm25.125 0h13.46v1.796h-13.46v-1.796zM25.422 61.39h7.177v1.795h-7.177V61.39zm11.218 0h23.33v1.795H36.64v-1.796z" fill="#4BBC24"/><path d="M44.265 33.125H59.52v1.795H44.265v-1.795zM26.32 21.01h8.525v1.797H26.32V21.01zm2.243 6.73h31.404v1.796H28.563V27.74zm-8.079 5.384h19.291v1.796h-19.29v-1.796zm5.383 54.287v3.14h34.095c13.883 0 25.125-10.799 25.125-24.675A25.124 25.124 0 0059.962 40.75H37.98v2.694h21.312a22.209 22.209 0 0122.206 22.209c0 12.267-9.942 21.76-22.206 21.76l-33.425-.003z" fill="#4BBC24"/><path d="M31.25 47.48v3.142h32.751a14.804 14.804 0 0110.47 25.275 14.807 14.807 0 01-10.47 4.337h-19.29v3.588h18.608a18.17 18.17 0 0012.847-31.02 18.171 18.171 0 00-12.847-5.322H31.25z" fill="#4BBC24"/><path d="M40.676 54.211v1.793h25.349c5.316 0 10.541 4.321 10.541 9.647 0 5.317-5.213 9.647-10.541 9.647H16v2.242h50.25c6.441 0 12.561-5.223 12.561-11.665 0-6.442-6.12-11.664-12.562-11.664H40.676z" fill="#4BBC24"/></svg>