<svg width="100" height="100" fill="none" xmlns="http://www.w3.org/2000/svg"><path d="M74.665 49.227c3.5-4.427 5.4-9.908 5.39-15.551C80.056 19.793 68.809 9 54.932 9h-30.51v3.14h29.834c12.264 0 22.206 9.496 22.206 21.76a22.118 22.118 0 01-4.372 13.236l2.576 2.091z" fill="#fff"/><path d="M71.257 46.628A18.118 18.118 0 0076.46 33.9a18.171 18.171 0 00-18.17-18.171H32.492v3.142h26.469a14.803 14.803 0 0114.813 14.805 14.769 14.769 0 01-5.276 11.33l2.76 1.622z" fill="#fff"/><path d="M66.29 44.258c4.244-1.855 7.493-5.895 7.493-10.583 0-6.442-6.12-11.664-12.562-11.664H38.78v1.793h22.21c5.316 0 10.541 4.321 10.541 9.647 0 4.315-3.42 7.975-7.552 9.2l2.31 1.607zM15.445 88.86h4.936V92h-4.936v-3.14zm4.938-6.282h19.74v2.242h-19.74v-2.242zm0-13.906H41.47v1.796H20.383v-1.796zm25.125 0h13.46v1.796h-13.46v-1.796zM24.422 62.39h7.177v1.795h-7.177V62.39zm11.218 0h23.33v1.795H35.64v-1.796z" fill="#fff"/><path d="M43.266 34.125h15.253v1.795H43.266v-1.795zM25.32 22.01h8.525v1.797H25.32V22.01zm2.243 6.73h31.404v1.796H27.563V28.74zm-8.079 5.384h19.291v1.796h-19.29v-1.796zm5.383 54.287v3.14h34.095c13.883 0 25.125-10.799 25.125-24.675A25.124 25.124 0 0058.962 41.75H36.98v2.694h21.312a22.209 22.209 0 0122.206 22.209c0 12.267-9.942 21.76-22.206 21.76l-33.425-.003z" fill="#fff"/><path d="M30.25 48.48v3.142h32.751a14.804 14.804 0 0110.47 25.275 14.807 14.807 0 01-10.47 4.337h-19.29v3.588h18.608a18.17 18.17 0 0012.847-31.02 18.171 18.171 0 00-12.847-5.322H30.25z" fill="#fff"/><path d="M39.676 55.211v1.793h25.349c5.316 0 10.541 4.321 10.541 9.647 0 5.317-5.213 9.647-10.541 9.647H15v2.242h50.25c6.441 0 12.561-5.223 12.561-11.665 0-6.442-6.12-11.664-12.562-11.664H39.676z" fill="#fff"/></svg>