<svg width="100" height="100" fill="none" xmlns="http://www.w3.org/2000/svg"><path d="M98 50c0 26.51-21.49 48-48 48S2 76.51 2 50 23.49 2 50 2s48 21.49 48 48z" stroke="#fff" stroke-width="4"/><path d="M63.227 56.566c3.85 0 6.97-3.157 6.97-7.05 0-3.895-3.12-7.052-6.97-7.052-3.849 0-6.97 3.157-6.97 7.051s3.121 7.051 6.97 7.051z" fill="#fff"/><path d="M82.28 59.931l-.206-.32-.054-.09c-.765-1.2-.997-1.453-1.365-2.006-5.1-7.85-2.185-12.894.109-15.468.28-.313.54-.682.778-.969.35-.404.65-.849.894-1.324l.041-.068a6.459 6.459 0 00.683-2.983 6.826 6.826 0 00-13.597 0c0 1.131.286 2.244.832 3.235.082.164.471.683.512.772.083.13.18.25.287.361.237.294.492.572.764.833.677.753 1.268 1.58 1.761 2.464a12.122 12.122 0 01-1.194 12.587l-1.693 2.43a2.47 2.47 0 00-.15.219l-.041.054a6.594 6.594 0 00-1.017 3.639 6.826 6.826 0 0013.597 0 6.634 6.634 0 00-.921-3.365h-.02zm-26.395.001l-.198-.321-.061-.089c-.765-1.201-.997-1.454-1.366-2.007-5.099-7.85-2.184-12.894.11-15.467.28-.314.539-.683.778-.97.35-.404.65-.849.894-1.324l.04-.068a6.65 6.65 0 00.683-2.983 6.826 6.826 0 10-12.764 3.235c.082.164.47.683.512.772.083.13.179.251.287.361.236.294.492.572.764.833a13.647 13.647 0 011.782 2.464 12.13 12.13 0 01-1.16 12.587A13.657 13.657 0 0144.82 58.6l-.116.117a13.646 13.646 0 01-2.485 1.781c-7.112 3.393-12.867-1.297-12.867-1.297l-.58-.478a4.588 4.588 0 01-1.085-1.208c-5.1-7.85-2.184-12.894.11-15.467.279-.314.538-.683.777-.97.35-.404.65-.849.894-1.324l.041-.068a6.559 6.559 0 00.717-2.983 6.826 6.826 0 00-13.597 0 6.69 6.69 0 00.833 3.235c.082.164.47.683.512.772.082.13.179.251.286.361.237.294.492.572.765.833a13.59 13.59 0 011.747 2.464 12.122 12.122 0 01-1.194 12.587l-.867 1.23a6.826 6.826 0 00-2.11 4.934v.157a6.826 6.826 0 0011.646 4.71c.334-.232.552-.396.86-.594 7.85-5.099 12.894-2.184 15.474.11.205.184.423.361.642.525a6.826 6.826 0 0011.604-4.778 6.634 6.634 0 00-.922-3.365l-.02.048z" fill="#fff"/></svg>