<svg width="100" height="100" fill="none" xmlns="http://www.w3.org/2000/svg"><path d="M33.681 9.007c-1.253-.193-1.306-.213-.713-.3 1.133-.173 3.8.06 5.64.493 4.293 1.014 8.2 3.614 12.373 8.234l1.107 1.226 1.587-.253c6.68-1.067 13.466-.22 19.153 2.387 1.567.72 4.033 2.146 4.333 2.513.107.12.287.867.4 1.673.427 2.787.22 4.914-.64 6.507-.466.867-.493 1.14-.18 1.887a1.828 1.828 0 001.64 1.026c1.414 0 2.934-2.266 3.634-5.426l.28-1.26.553.626c3.047 3.427 5.433 8.094 5.84 11.414l.107.866-.507-.786a9.747 9.747 0 00-2.9-3.02c-2.04-1.34-4.2-1.8-9.907-2.1-5.16-.267-8.08-.707-10.973-1.647-4.927-1.6-7.407-3.72-13.26-11.347-2.6-3.393-4.2-5.266-5.8-6.773-3.633-3.433-7.2-5.233-11.767-5.933v-.007z" fill="#fff"/><path d="M78.33 16.574c.127-2.267.433-3.767 1.06-5.133.137-.346.31-.676.513-.987.033 0-.073.4-.24.887-.453 1.333-.533 3.146-.213 5.26.4 2.68.62 3.066 3.466 5.96 1.34 1.36 2.894 3.066 3.46 3.806l1.027 1.334-1.027-.954c-1.253-1.166-4.133-3.446-4.773-3.773-.426-.213-.493-.213-.753.047-.247.24-.293.6-.334 2.306-.046 2.66-.413 4.367-1.293 6.067-.473.933-.546.733-.12-.313.32-.774.354-1.12.354-3.694 0-5.166-.627-6.413-4.247-8.533a39.788 39.788 0 00-3.36-1.733 12.75 12.75 0 01-1.64-.8c.1-.1 3.633.926 5.053 1.466 2.12.814 2.467.914 2.727.82.166-.066.253-.566.333-2.033h.007zm-42.22 8.847c-2.54-3.48-4.12-8.82-3.773-12.814l.1-1.233.58.1c1.093.2 2.966.893 3.846 1.427 2.407 1.453 3.454 3.366 4.514 8.286.313 1.44.72 3.067.906 3.627.3.887 1.447 2.96 2.374 4.307.666.973.226 1.433-1.254 1.3-2.26-.2-5.32-2.3-7.293-5zm39.127 25.913c-11.894-4.753-16.08-8.887-16.08-15.853 0-1.027.033-1.867.08-1.867.04 0 .5.333 1.02.753 2.413 1.92 5.113 2.74 12.593 3.827 4.4.64 6.867 1.153 9.153 1.907 7.267 2.393 11.754 7.246 12.827 13.867.306 1.92.133 5.52-.38 7.42-.4 1.5-1.614 4.2-1.934 4.306-.093.034-.18-.306-.2-.773-.12-2.48-1.386-4.9-3.506-6.714-2.413-2.06-5.654-3.7-13.573-6.866v-.007zm-8.347 1.98c-.14-.844-.331-1.68-.573-2.5l-.307-.9.566.633c.78.867 1.4 1.98 1.92 3.467.4 1.133.44 1.467.44 3.307 0 1.806-.053 2.187-.426 3.2a10.12 10.12 0 01-2.507 3.973c-2.173 2.2-4.966 3.413-9 3.92-.7.087-2.74.233-4.533.327-4.527.233-7.507.72-10.18 1.653a2.16 2.16 0 01-.767.18c-.106-.106 1.72-1.186 3.22-1.906 2.12-1.02 4.234-1.574 8.967-2.354 2.333-.386 4.753-.86 5.367-1.046 5.786-1.76 8.766-6.314 7.813-11.954z" fill="#fff"/><path d="M72.345 62.94c-1.58-3.373-1.947-6.633-1.08-9.673.093-.333.24-.593.333-.593.087 0 .467.2.827.447.733.486 2.187 1.306 6.08 3.413 4.853 2.633 7.627 4.666 9.507 7 1.646 2.033 2.666 4.36 3.16 7.187.28 1.6.113 5.466-.3 7.08-1.307 5.093-4.334 9.093-8.667 11.426-.633.34-1.2.62-1.267.62-.06 0 .174-.58.513-1.293 1.46-3.027 1.627-5.967.527-9.24-.68-2.007-2.053-4.453-4.826-8.593-3.227-4.8-4.014-6.087-4.807-7.78zm-44.68 18.22c4.42-3.706 9.907-6.333 14.913-7.146 2.579-.33 5.195-.23 7.74.3 3.2.813 6.067 2.64 7.553 4.807 1.454 2.126 2.08 3.973 2.734 8.093.253 1.62.533 3.253.613 3.62.487 2.133 1.44 3.84 2.613 4.693 1.867 1.36 5.094 1.447 8.26.22.33-.151.677-.26 1.034-.32.113.113-1.48 1.173-2.6 1.733a8.894 8.894 0 01-4.32 1.04c-2.9 0-5.307-1.466-7.32-4.453a35.342 35.342 0 01-1.974-3.92c-2.12-4.806-3.166-6.266-5.626-7.873-2.147-1.4-4.913-1.647-6.993-.633-2.734 1.333-3.494 4.8-1.534 7a6.074 6.074 0 003.414 1.773 3.632 3.632 0 004.126-3.627c0-1.447-.56-2.266-1.966-2.906-1.927-.86-3.987.146-3.98 1.94 0 .766.34 1.246 1.113 1.6.493.22.507.233.1.153-1.76-.367-2.173-2.48-.76-3.88 1.707-1.68 5.227-.94 6.433 1.36.507.967.567 2.887.127 4.047-1 2.6-3.88 3.966-6.813 3.22-2-.507-2.807-1.054-5.214-3.514-4.18-4.28-5.8-5.113-11.826-6.046l-1.16-.18 1.313-1.1z" fill="#fff"/><path fill-rule="evenodd" clip-rule="evenodd" d="M8.054 4.56c13.96 16.84 23.58 23.787 24.647 25.253.88 1.214.547 2.307-.96 3.16a9.207 9.207 0 01-3.433.954c-.98 0-1.32-.374-1.32-.374-.567-.533-.887-.44-3.8-5.58a886.019 886.019 0 00-7.52-11.506c-.214-.2-.207-.2 7.113 12.82 1.18 2.713.233 3.706.233 4.093 0 .787-.22 1.2-1.193 2.287-1.627 1.8-2.354 3.826-2.88 8.02-.587 4.7-2.24 8.02-6.827 13.706-2.68 3.327-3.12 3.934-3.8 5.28-.853 1.687-1.086 2.634-1.18 4.76-.1 2.26.094 3.714.787 5.867.6 1.893 1.24 3.133 2.86 5.627 1.4 2.153 2.2 3.753 2.2 4.38 0 .493.093.493 2.267.006 5.173-1.16 9.38-3.2 11.746-5.713 1.467-1.553 1.807-2.407 1.82-4.533.007-1.387-.04-1.68-.42-2.48-.613-1.3-1.733-2.387-4.2-4.067-3.24-2.2-4.627-3.967-5-6.4-.32-2 .047-3.407 1.834-7.133 1.853-3.867 2.313-5.514 2.626-9.4.2-2.514.474-3.507 1.2-4.307.76-.827 1.44-1.107 3.32-1.36 3.06-.42 5-1.2 6.6-2.667a5.687 5.687 0 002.067-4.346l.066-1.4-.78-.894C33.322 25.36 6.174 2 6.001 2c-.033 0 .887 1.153 2.053 2.56zm6.507 65.433a2.467 2.467 0 00-.767-3.26c-1-.666-2.567-.346-2.567.514 0 .266.147.46.48.626.56.287.6.607.16 1.267-.446.66-.406 1.24.1 1.64.82.633 1.98.287 2.594-.787zM38.834 38.66c-1.433.433-2.827 1.947-3.267 3.533-.26.967-.106 2.667.287 3.187.64.847 1.254 1.067 2.927 1.06 3.267-.02 6.107-1.413 6.44-3.16.267-1.427-.98-3.4-2.7-4.273a6.434 6.434 0 00-3.687-.347zm3.827 2.967c.5-.714.28-1.48-.58-2-1.627-.994-4.1-.174-4.1 1.36 0 .766 1.286 1.6 2.466 1.6.787 0 1.867-.467 2.214-.96z" fill="#fff"/></svg>