<svg width="100" height="102" fill="none" xmlns="http://www.w3.org/2000/svg"><g clip-path="url(#clip0_94_170)"><path opacity=".3" d="M96.677 70.188C96.677 85.5 75.68 98 49.838 98 23.998 98 3 85.5 3 70.187V63h94v7.188h-.323z" fill="#E31673"/><path fill-rule="evenodd" clip-rule="evenodd" d="M17.981 15.805C16.404 7.586 22.713 0 30.915 0c7.255 0 13.249 6.006 13.249 13.276v16.437c1.893 0 3.785-.316 5.678-.316 1.893 0 3.47 0 5.363.316V13.276C55.205 6.006 61.199 0 68.455 0c8.201 0 14.51 7.586 13.249 15.805l-3.47 19.281C90.535 40.46 100 49.943 100 61.638v7.27c0 9.799-6.31 18.017-15.457 23.39-9.149 5.69-21.136 8.851-34.7 8.851-13.565 0-25.553-3.16-34.701-8.85C6.309 86.925 0 78.707 0 68.908v-7.27C0 49.943 9.148 40.46 21.451 35.086l-3.47-19.281zm55.52 21.81l4.102-22.759c.946-5.69-3.155-11.063-9.149-11.063-5.047 0-9.148 4.11-9.148 9.167v20.862c-1.262-.316-2.84-.316-4.101-.316-1.893 0-3.47-.316-5.363-.316-1.892 0-3.785 0-5.678.316-1.262 0-2.84.316-4.1.316V13.276c0-5.058-4.102-9.167-9.15-9.167-5.677 0-10.094 5.374-8.832 11.063l4.101 22.759C12.933 42.989 4.101 51.839 4.101 61.954v7.27c0 15.489 20.505 28.132 45.741 28.132 25.237 0 45.742-12.643 45.742-28.132v-7.27c.315-10.431-8.518-19.282-22.082-24.34z" fill="#E31673"/><path fill-rule="evenodd" clip-rule="evenodd" d="M22.08 15.173c-1.262-5.69 3.154-11.064 8.833-11.064 5.047 0 9.148 4.11 9.148 9.167v20.862c3.154-.316 6.309-.632 9.779-.632 3.154 0 6.31.316 9.464.632V13.276c0-5.057 4.1-9.167 9.148-9.167 5.678 0 10.095 5.374 9.148 11.064L73.5 37.93c13.247 5.06 22.396 13.91 22.396 24.024 0 15.489-20.505 28.132-45.742 28.132-25.236 0-45.74-12.643-45.74-28.132 0-10.115 8.832-18.965 22.081-24.023L22.08 15.173z" fill="#fff"/><path d="M37.227 59.742c0 4.109-2.208 7.586-5.047 7.586-2.839 0-5.047-3.477-5.047-7.587 0-4.109 2.208-7.586 5.047-7.586 2.84 0 5.047 3.477 5.047 7.587zm35.016 0c0 4.109-2.208 7.586-5.047 7.586-2.84 0-5.048-3.477-5.048-7.587 0-4.109 2.209-7.586 5.048-7.586s5.047 3.477 5.047 7.587z" fill="#E31673"/></g><defs><clipPath id="clip0_94_170"><path fill="#fff" d="M0 0h100v101.149H0z"/></clipPath></defs></svg>