<svg width="100" height="100" fill="none" xmlns="http://www.w3.org/2000/svg"><path d="M88.118 19C86.998 31.35 74.89 29.8 74.89 29.8V19H62.752v10.8H36.549V19H24.663v10.766c-11.94.735-12.723-10.538-12.723-10.538H0v.496a22.065 22.065 0 006.148 15.298 21.6 21.6 0 0014.96 6.633l3.444.095v15.383a23.671 23.671 0 006.822 16.647 23.165 23.165 0 0016.469 6.895h3.783a23.236 23.236 0 0016.449-6.916 23.743 23.743 0 006.842-16.626V41.665h3.588a21.3 21.3 0 008.227-1.654 21.479 21.479 0 006.974-4.71 21.743 21.743 0 004.659-7.05A21.939 21.939 0 00100 19.934V19H88.118zM62.809 55.814a13.29 13.29 0 01-3.829 9.345 13.006 13.006 0 01-9.244 3.872 13.006 13.006 0 01-9.246-3.87 13.29 13.29 0 01-3.83-9.347V41.41h26.149v14.404z" fill="#7E44FE"/></svg>