<svg width="38" height="40" fill="none" xmlns="http://www.w3.org/2000/svg"><path d="M0 0h37.77l-.429 4.598L.556 4.513 0 0zm7.015 24.466l12.34 9.753v5.496L3.422 27.097l3.593-2.63z" fill="#7A18D5"/><path d="M6.802 22.135l.235 2.396-3.614 2.566L2.375 18.8l4.427 3.336zm24.574 2.46l-12.02 9.624-.235 2.716.235 2.78L35.054 26.99l-3.678-2.395zM12.79 19.826h15.42l-1.519 3.999H11.7l1.09-4zM.547 4.367l4.524-.325.834 10.544-3.871 1.839L.547 4.367z" fill="#7A18D5"/><path d="M2.031 16.425L5.86 14.48l7.25 5.39-1.413 3.956-9.665-7.4z" fill="#7A18D5"/><path d="M2.031 16.425L5.86 14.48l7.25 5.39-1.413 3.956-9.665-7.4zM33.45 4.092l3.935.036-1.07 10.928-3.635-3.037.77-7.927zm-6.29 5.361H11.633v4.02H27.16v-4.02z" fill="#7A18D5"/><path d="M27.165 9.453l8.851 7.314-3.4 2.396-8.077-6.459 2.626-3.25z" fill="#7A18D5"/><path d="M36.016 16.767l-.962 10.223-3.679-2.395.568-8.042 4.073.214zm-29.43-3.144l5.047-4.17 2.716 2.63-4.576 3.786-3.187-2.245zm18.864 6.181l2.95-2.416 2.524 2.373-4.234 4.064-1.24-4.02z" fill="#7A18D5"/></svg>