<svg width="260" height="413" fill="none" xmlns="http://www.w3.org/2000/svg"><path d="M143.394 398.088c0 7.468-6.05 13.547-13.547 13.547-7.468 0-13.546-6.05-13.546-13.547 0-7.468 6.049-13.546 13.546-13.546a13.527 13.527 0 0113.547 13.546z" fill="#231F20" stroke="#231F20" stroke-width="2.171" stroke-miterlimit="10" stroke-linecap="round" stroke-linejoin="round"/><path d="M181.727 310.787v35.401c0 28.657-23.215 51.871-51.871 51.871-28.657 0-51.872-23.214-51.872-51.871v-35.401h103.743z" fill="#fff"/><path d="M102 335.652c-1.795 12.013-.029 24.546 5.008 35.633 5.036 11.057 13.315 20.638 23.562 27.18-11.144-1.679-22.694-3.618-31.899-10.102-10.391-7.324-16.412-19.597-18.786-32.072-2.373-12.476-1.534-25.328-.665-37.978 4.66 8.019 12.215 14.329 20.957 17.484" fill="#CCC"/><path d="M181.727 310.787v35.401c0 28.657-23.215 51.871-51.871 51.871-28.657 0-51.872-23.214-51.872-51.871v-35.401h103.743v0z" stroke="#231F20" stroke-width="2.171" stroke-miterlimit="10" stroke-linecap="round" stroke-linejoin="round"/><path d="M181.721 336.839c0 2.142-.377 4.313-1.216 6.426-2.026 5.413-6.687 10.565-14.01 14.762-20.233 11.723-53.087 11.723-73.35 0-7.293-4.226-11.954-9.378-13.98-14.762-.84-2.084-1.216-4.255-1.216-6.426" stroke="#231F20" stroke-width="2.171" stroke-miterlimit="10" stroke-linecap="round" stroke-linejoin="round"/><path d="M258.295 130.424c0 36.038-14.878 68.602-38.817 91.933-24.575 23.967-37.745 54.129-37.745 88.43 0-7.671-5.066-15.313-15.226-21.16-20.233-11.694-53.087-11.694-73.349 0-10.131 5.847-15.197 13.518-15.197 21.16 0-35.025-14.646-65.129-39.308-89.993-25.791-26.023-40.554-63.016-36.588-103.395C8.115 55.889 58.394 6.941 120.02 2.367c75.404-5.586 138.275 53.898 138.275 128.057z" fill="#FFCF53"/><path d="M53.527 169.762c0-2.721 8.771-4.95 9.06-7.584.29-2.692-7.757-6.802-7.178-9.407.608-2.634 9.639-2.866 10.536-5.384.898-2.547-6.05-8.366-4.892-10.768 1.187-2.432 10.044-.608 11.463-2.895 1.447-2.286-4.024-9.494-2.345-11.578 1.68-2.113 9.929 1.65 11.81-.261 1.91-1.91-1.823-10.131.26-11.81 2.114-1.678 9.292 3.792 11.58 2.345 2.286-1.418.462-10.276 2.894-11.463 2.402-1.157 8.22 5.761 10.768 4.892 2.518-.897 2.721-9.928 5.384-10.536 2.605-.579 6.686 7.468 9.407 7.179 2.663-.29 4.863-9.06 7.584-9.06 2.721 0 4.95 8.77 7.584 9.06 2.692.289 6.802-7.758 9.407-7.179 2.634.608 2.866 9.639 5.384 10.536 2.547.898 8.365-6.05 10.768-4.892 2.431 1.187.608 10.045 2.895 11.463 2.286 1.447 9.494-4.023 11.578-2.345 2.113 1.679-1.65 9.929.261 11.81 1.91 1.911 10.131-1.823 11.809.261 1.679 2.113-3.791 9.292-2.344 11.578 1.418 2.287 10.276.463 11.462 2.895 1.158 2.402-5.76 8.221-4.891 10.768.897 2.518 9.928 2.721 10.536 5.384.579 2.605-7.468 6.686-7.179 9.407.29 2.663 9.06 4.863 9.06 7.584" stroke="#FFCF53" stroke-width="2.171" stroke-miterlimit="10"/><path d="M181.721 310.787c0 2.142-.377 4.313-1.216 6.426-2.026 5.413-6.687 10.565-14.01 14.762-20.233 11.723-53.087 11.723-73.35 0-7.293-4.226-11.954-9.378-13.98-14.762-.84-2.084-1.216-4.255-1.216-6.426 0-7.671 5.037-15.313 15.197-21.16 20.262-11.694 53.116-11.694 73.349 0 10.16 5.847 15.226 13.518 15.226 21.16z" fill="#FFCF53"/><path d="M181.723 310.787c0-7.671-5.065-15.312-15.225-21.159a57.812 57.812 0 00-5.182-2.635m-62.41-.231a59.212 59.212 0 00-5.76 2.865c-10.131 5.847-15.197 13.518-15.197 21.16" stroke="#231F20" stroke-width="2.171" stroke-miterlimit="10" stroke-linecap="round" stroke-linejoin="round"/><path d="M160.858 276.225c0 4.603-3.04 9.176-9.089 12.65-12.1 7.005-31.725 7.005-43.853 0-6.05-3.503-9.06-8.076-9.06-12.65 0-4.573 3.01-9.176 9.06-12.649 12.128-6.976 31.753-6.976 43.853 0 6.078 3.502 9.089 8.076 9.089 12.649z" fill="#fff" stroke="#231F20" stroke-width="2.171" stroke-miterlimit="10" stroke-linecap="round" stroke-linejoin="round"/><path d="M160.858 276.225v29.409c0 4.574-3.039 9.176-9.089 12.65-12.1 7.005-31.725 7.005-43.853 0-6.05-3.503-9.09-8.076-9.06-12.65v-29.409c0 4.603 3.01 9.176 9.06 12.649 12.128 7.005 31.753 7.005 43.853 0 6.079-3.473 9.089-8.046 9.089-12.649z" fill="#FFCF53" stroke="#231F20" stroke-width="2.171" stroke-miterlimit="10" stroke-linecap="round" stroke-linejoin="round"/><path d="M65.5 157l7.877-4.376a1 1 0 00.243-1.56l-6.114-6.495a1 1 0 01.357-1.614l7.587-3.035a1 1 0 00.505-1.411l-4.253-7.733a1 1 0 01.74-1.473l8.428-1.149a1 1 0 00.83-1.254l-2.3-8.432a1 1 0 011.107-1.253l7.852 1.122a1 1 0 001.141-.99v-9.396a1 1 0 011.356-.934l7.96 3.032a1 1 0 001.348-.805l1.128-8.649a1 1 0 011.546-.703l6.68 4.453a1 1 0 001.466-.421l3.473-7.717a1 1 0 011.556-.354l7.736 6.515a1 1 0 001.397-.106l5.702-6.517a1 1 0 011.404-.1l5.545 4.752a1 1 0 001.358-.052l4.321-4.32a1 1 0 011.619.296l3.421 7.603a1 1 0 001.466.421l6.708-4.472a1 1 0 011.544.684l1.119 7.461a1 1 0 001.13.842l8.376-1.197a1 1 0 011.141.99v8.847a1 1 0 001 1h8.636a1 1 0 01.953 1.301l-2.234 7.075a1 1 0 00.812 1.291l7.96 1.137a1 1 0 01.753 1.437l-3.933 7.865a1 1 0 00.447 1.341l7.865 3.933a.999.999 0 01.26 1.601l-5.605 5.605a1 1 0 00.2 1.569L194.5 157" stroke="#F3B148" stroke-width="2" stroke-linecap="round"/><path d="M114.687 271.97l-3.937-155.845c4.863-1.389 8.51-7.497 8.51-14.82 0-8.337 4.747-15.11 10.623-15.11 5.876 0 10.623 6.773 10.623 15.11 0 7.323 3.648 13.431 8.482 14.82l-4.024 155.99c0 2.258-1.476 4.487-4.429 6.194-5.905 3.416-15.486 3.416-21.362 0-2.981-1.707-4.486-4.11-4.486-6.339z" fill="#fff" stroke="#231F20" stroke-width="2.605" stroke-miterlimit="10" stroke-linecap="round" stroke-linejoin="round"/><path opacity=".16" d="M258.26 130.424c0 9.031-.927 17.889-2.721 26.399-5.326 25.444-18.149 48.079-36.096 65.534-24.575 23.967-37.745 54.129-37.745 88.43 0 2.142-.377 4.313-1.216 6.426-2.026 5.413-6.687 10.565-14.01 14.762-20.233 11.723-53.087 11.723-73.35 0-7.294-4.226-11.954-9.378-13.98-14.762-.84-2.084-1.216-4.255-1.216-6.426 0-35.025-14.647-65.129-39.308-89.993C12.827 194.771-1.936 157.778 2.03 117.399c4.718-47.732 36.038-87.91 78.675-105.653 12.302-5.124 25.472-8.366 39.28-9.379C195.389-3.219 258.26 56.265 258.26 130.424z" fill="#FFCF53"/><path d="M255.574 156.823c-5.326 25.444-18.149 48.079-36.096 65.534-24.575 23.967-37.745 54.129-37.745 88.43 0 2.142-.377 4.313-1.216 6.426-2.026 5.413-6.687 10.565-14.01 14.762-20.233 11.723-53.087 11.723-73.349 0-7.294-4.226-11.955-9.378-13.98-14.762-.84-2.084-1.217-4.255-1.217-6.426 0-35.025-14.646-65.129-39.308-89.993-25.791-26.023-40.554-63.016-36.588-103.395C6.783 69.667 38.103 29.489 80.74 11.746c-28.396 38.295-38.845 89.761-26.456 135.901 5.934 22.144 16.933 43.246 33.403 59.195 16.47 15.949 38.643 26.485 61.568 27.006 27.325.608 53.579-12.967 73.147-32.043 13.431-13.054 24.025-28.569 33.172-44.982z" fill="#FAB045" fill-opacity=".9" style="mix-blend-mode:darken"/><path d="M77.98 310.787c0-35.025-14.646-65.129-39.308-89.993-25.79-26.023-40.553-63.016-36.587-103.395C8.135 55.889 58.413 6.941 120.039 2.367c75.376-5.615 138.246 53.869 138.246 128.057 0 36.038-14.878 68.602-38.816 91.933-24.575 23.967-37.746 54.129-37.746 88.43m-.002 0c0 2.142-.377 4.313-1.216 6.426-2.026 5.413-6.687 10.565-14.01 14.762-20.233 11.724-53.087 11.724-73.35 0-7.293-4.226-11.954-9.378-13.98-14.762-.84-2.084-1.216-4.255-1.216-6.426" stroke="#231F20" stroke-width="2.171" stroke-miterlimit="10" stroke-linecap="round" stroke-linejoin="round"/></svg>