<svg width="570" height="630" fill="none" xmlns="http://www.w3.org/2000/svg"><path d="M408.218 532.281l-110.111-65.533c-7.323-4.371-18.496-4.979-24.922-1.361l-112.6 63.016c-3.126 1.736-4.574 4.168-4.371 6.715v.029c.203 2.663 2.229 5.442 5.963 7.671l110.11 65.533c7.324 4.371 18.497 4.95 24.923 1.361l101.224-56.676 11.347-6.369c2.779-1.563 4.226-3.647 4.4-5.847.231-2.894-1.795-6.049-5.963-8.539z" fill="#fff" stroke="#231F20" stroke-width="2.171" stroke-miterlimit="10" stroke-linecap="round" stroke-linejoin="round"/><path d="M284.502 485.244l-89.877 50.308 91.267 54.332 89.877-50.308-91.267-54.332z" fill="#fff" stroke="#231F20" stroke-width="2.171" stroke-miterlimit="10" stroke-linecap="round" stroke-linejoin="round"/><path d="M375.884 531.123l-14.763 8.25 14.531 8.655 14.762-8.25-14.53-8.655zm-91.27-54.331l-14.762 8.278 14.53 8.626 14.763-8.25-14.531-8.654zm1.391 104.64l-14.763 8.249 14.531 8.655 14.763-8.249-14.531-8.655zM194.743 527.1l-14.763 8.279 14.531 8.655 14.763-8.279-14.531-8.655z" fill="#FFCF53" stroke="#231F20" stroke-width="2.171" stroke-miterlimit="10" stroke-linecap="round" stroke-linejoin="round"/><path d="M414.181 540.849c-.174 2.2-1.621 4.284-4.4 5.848l-11.347 6.368-101.224 56.676c-6.426 3.589-17.599 3.01-24.922-1.361l-110.111-65.533c-3.734-2.229-5.76-5.008-5.963-7.671l-.173 14.878-.029 1.534c.318 2.577 2.315 5.269 5.963 7.411l110.081 65.504c7.323 4.371 18.497 4.979 24.952 1.361l112.599-63.016c2.866-1.621 4.313-3.792 4.4-6.078v-.232l.174-15.689z" fill="#2B2829" stroke="#231F20" stroke-width="2.171" stroke-miterlimit="10" stroke-linecap="round" stroke-linejoin="round"/><path d="M284.77 505.101l.868 64.926m-56.626-33.693l112.397 2.489" stroke="#231F20" stroke-width="2.171" stroke-miterlimit="10" stroke-linecap="round" stroke-linejoin="round"/><path opacity=".25" d="M156.219 520.211V373.947M414.223 526.84V380.865m-6.43-19.307l-109.705-65.302c-7.295-4.342-18.41-4.95-24.836-1.36l-112.195 62.812c-3.126 1.737-4.573 4.169-4.37 6.687v.029c.202 2.634 2.228 5.442 5.934 7.642l109.705 65.302c7.294 4.342 18.438 4.949 24.835 1.36l100.877-56.473 11.318-6.34c2.779-1.563 4.226-3.618 4.371-5.847.231-2.865-1.766-6.021-5.934-8.51z" stroke="#231F20" stroke-width="2.171" stroke-linecap="round" stroke-linejoin="round" stroke-dasharray="5.77 5.77"/><path d="M298.394 398.088c0 7.468-6.05 13.547-13.547 13.547-7.468 0-13.546-6.05-13.546-13.547 0-7.468 6.049-13.546 13.546-13.546a13.527 13.527 0 0113.547 13.546z" fill="#231F20" stroke="#231F20" stroke-width="2.171" stroke-miterlimit="10" stroke-linecap="round" stroke-linejoin="round"/><path d="M336.727 310.787v35.401c0 28.657-23.215 51.871-51.871 51.871-28.657 0-51.872-23.214-51.872-51.871v-35.401h103.743z" fill="#fff"/><path d="M257 335.652c-1.795 12.013-.029 24.546 5.008 35.633 5.036 11.057 13.315 20.638 23.562 27.18-11.144-1.679-22.694-3.618-31.899-10.102-10.391-7.324-16.412-19.597-18.786-32.072-2.373-12.476-1.534-25.328-.665-37.978 4.66 8.019 12.215 14.329 20.957 17.484" fill="#CCC"/><path d="M336.727 310.787v35.401c0 28.657-23.215 51.871-51.871 51.871-28.657 0-51.872-23.214-51.872-51.871v-35.401h103.743v0z" stroke="#231F20" stroke-width="2.171" stroke-miterlimit="10" stroke-linecap="round" stroke-linejoin="round"/><path d="M336.721 336.839c0 2.142-.377 4.313-1.216 6.426-2.026 5.413-6.687 10.565-14.01 14.762-20.233 11.723-53.087 11.723-73.349 0-7.295-4.226-11.955-9.378-13.981-14.762-.839-2.084-1.216-4.255-1.216-6.426" stroke="#231F20" stroke-width="2.171" stroke-miterlimit="10" stroke-linecap="round" stroke-linejoin="round"/><path d="M413.295 130.424c0 36.038-14.878 68.602-38.817 91.933-24.575 23.967-37.745 54.129-37.745 88.43 0-7.671-5.066-15.313-15.226-21.16-20.233-11.694-53.087-11.694-73.349 0-10.131 5.847-15.197 13.518-15.197 21.16 0-35.025-14.646-65.129-39.308-89.993-25.791-26.023-40.554-63.016-36.588-103.395 6.05-61.51 56.329-110.458 117.955-115.032 75.404-5.586 138.275 53.898 138.275 128.057z" fill="#FFCF53"/><path d="M208.527 169.762c0-2.721 8.771-4.95 9.06-7.584.29-2.692-7.757-6.802-7.178-9.407.608-2.634 9.639-2.866 10.536-5.384.897-2.547-6.05-8.366-4.892-10.768 1.187-2.432 10.045-.608 11.463-2.895 1.447-2.286-4.024-9.494-2.345-11.578 1.679-2.113 9.929 1.65 11.81-.261 1.911-1.91-1.823-10.131.261-11.81 2.113-1.678 9.291 3.792 11.578 2.345 2.287-1.418.463-10.276 2.895-11.463 2.402-1.157 8.22 5.761 10.768 4.892 2.518-.897 2.721-9.928 5.384-10.536 2.605-.579 6.686 7.468 9.407 7.179 2.663-.29 4.863-9.06 7.584-9.06 2.721 0 4.95 8.77 7.584 9.06 2.692.289 6.802-7.758 9.407-7.179 2.634.608 2.866 9.639 5.384 10.536 2.547.898 8.365-6.05 10.768-4.892 2.431 1.187.608 10.045 2.895 11.463 2.286 1.447 9.494-4.023 11.578-2.345 2.113 1.679-1.65 9.929.261 11.81 1.91 1.911 10.131-1.823 11.809.261 1.679 2.113-3.791 9.292-2.344 11.578 1.418 2.287 10.276.463 11.462 2.895 1.158 2.402-5.76 8.221-4.891 10.768.897 2.518 9.928 2.721 10.536 5.384.579 2.605-7.468 6.686-7.179 9.407.29 2.663 9.06 4.863 9.06 7.584" stroke="#FFCF53" stroke-width="2.171" stroke-miterlimit="10"/><path d="M336.721 310.787c0 2.142-.377 4.313-1.216 6.426-2.026 5.413-6.687 10.565-14.01 14.762-20.233 11.723-53.087 11.723-73.349 0-7.295-4.226-11.955-9.378-13.981-14.762-.839-2.084-1.216-4.255-1.216-6.426 0-7.671 5.037-15.313 15.197-21.16 20.262-11.694 53.116-11.694 73.349 0 10.16 5.847 15.226 13.518 15.226 21.16z" fill="#FFCF53"/><path d="M336.723 310.787c0-7.671-5.065-15.312-15.225-21.159a57.812 57.812 0 00-5.182-2.635m-62.41-.231a59.174 59.174 0 00-5.76 2.865c-10.131 5.847-15.197 13.518-15.197 21.16" stroke="#231F20" stroke-width="2.171" stroke-miterlimit="10" stroke-linecap="round" stroke-linejoin="round"/><path d="M315.858 276.225c0 4.603-3.04 9.176-9.089 12.65-12.1 7.005-31.725 7.005-43.853 0-6.05-3.503-9.061-8.076-9.061-12.65 0-4.573 3.011-9.176 9.061-12.649 12.128-6.976 31.753-6.976 43.853 0 6.078 3.502 9.089 8.076 9.089 12.649z" fill="#fff" stroke="#231F20" stroke-width="2.171" stroke-miterlimit="10" stroke-linecap="round" stroke-linejoin="round"/><path d="M315.858 276.225v29.409c0 4.574-3.039 9.176-9.089 12.65-12.1 7.005-31.725 7.005-43.853 0-6.05-3.503-9.089-8.076-9.06-12.65v-29.409c0 4.603 3.01 9.176 9.06 12.649 12.128 7.005 31.753 7.005 43.853 0 6.079-3.473 9.089-8.046 9.089-12.649z" fill="#FFCF53" stroke="#231F20" stroke-width="2.171" stroke-miterlimit="10" stroke-linecap="round" stroke-linejoin="round"/><path d="M220.5 157l7.877-4.376a1 1 0 00.242-1.56l-6.113-6.495a1 1 0 01.357-1.614l7.587-3.035a1 1 0 00.505-1.411l-4.253-7.733a1 1 0 01.741-1.473l8.427-1.149a1 1 0 00.83-1.254l-2.3-8.432a1 1 0 011.107-1.253l7.852 1.122a1 1 0 001.141-.99v-9.396a1 1 0 011.356-.934l7.96 3.032a1 1 0 001.348-.805l1.128-8.649a1 1 0 011.546-.703l6.68 4.453a1 1 0 001.466-.421l3.473-7.717a1 1 0 011.556-.354l7.736 6.515a1 1 0 001.397-.106l5.702-6.517a1 1 0 011.404-.1l5.545 4.752a1 1 0 001.358-.052l4.321-4.32a1 1 0 011.619.296l3.421 7.603a1 1 0 001.466.421l6.708-4.472a1 1 0 011.544.684l1.119 7.461a1 1 0 001.13.842l8.376-1.197a1 1 0 011.141.99v8.847a1 1 0 001 1h8.636a1 1 0 01.953 1.301l-2.234 7.075a1 1 0 00.812 1.291l7.96 1.137a1 1 0 01.753 1.437l-3.933 7.865a1 1 0 00.447 1.341l7.865 3.933a.999.999 0 01.26 1.601l-5.605 5.605a1 1 0 00.2 1.569L349.5 157" stroke="#F3B148" stroke-width="2" stroke-linecap="round"/><path d="M269.687 271.97l-3.937-155.845c4.863-1.389 8.51-7.497 8.51-14.82 0-8.337 4.747-15.11 10.623-15.11 5.876 0 10.623 6.773 10.623 15.11 0 7.323 3.648 13.431 8.482 14.82l-4.024 155.99c0 2.258-1.476 4.487-4.429 6.194-5.905 3.416-15.486 3.416-21.362 0-2.981-1.707-4.486-4.11-4.486-6.339z" fill="#fff" stroke="#231F20" stroke-width="2.605" stroke-miterlimit="10" stroke-linecap="round" stroke-linejoin="round"/><path opacity=".16" d="M413.26 130.424c0 9.031-.927 17.889-2.721 26.399-5.326 25.444-18.149 48.079-36.096 65.534-24.575 23.967-37.745 54.129-37.745 88.43 0 2.142-.377 4.313-1.216 6.426-2.026 5.413-6.687 10.565-14.01 14.762-20.233 11.723-53.087 11.723-73.349 0-7.295-4.226-11.955-9.378-13.981-14.762-.84-2.084-1.216-4.255-1.216-6.426 0-35.025-14.646-65.129-39.308-89.993-25.791-26.023-40.554-63.016-36.588-103.395 4.718-47.732 36.038-87.91 78.675-105.653 12.302-5.124 25.472-8.366 39.28-9.379C350.389-3.219 413.26 56.265 413.26 130.424z" fill="#FFCF53"/><path d="M410.574 156.823c-5.326 25.444-18.149 48.079-36.096 65.534-24.575 23.967-37.745 54.129-37.745 88.43 0 2.142-.377 4.313-1.216 6.426-2.026 5.413-6.687 10.565-14.01 14.762-20.233 11.723-53.087 11.723-73.349 0-7.294-4.226-11.955-9.378-13.981-14.762-.839-2.084-1.216-4.255-1.216-6.426 0-35.025-14.646-65.129-39.308-89.993-25.791-26.023-40.554-63.016-36.588-103.395 4.718-47.732 36.038-87.91 78.675-105.653-28.396 38.295-38.845 89.761-26.456 135.901 5.933 22.144 16.933 43.246 33.403 59.195 16.47 15.949 38.643 26.485 61.568 27.006 27.325.608 53.579-12.967 73.147-32.043 13.431-13.054 24.025-28.569 33.172-44.982z" fill="#FAB045" fill-opacity=".9" style="mix-blend-mode:darken"/><path d="M232.981 310.787c0-35.025-14.647-65.129-39.309-89.993-25.791-26.023-40.553-63.016-36.587-103.395 6.049-61.51 56.328-110.458 117.954-115.032 75.376-5.615 138.246 53.869 138.246 128.057 0 36.038-14.878 68.602-38.816 91.933-24.575 23.967-37.746 54.129-37.746 88.43m-.002 0c0 2.142-.377 4.313-1.216 6.426-2.026 5.413-6.687 10.565-14.01 14.762-20.233 11.724-53.087 11.724-73.349 0-7.295-4.226-11.955-9.378-13.981-14.762-.839-2.084-1.216-4.255-1.216-6.426" stroke="#231F20" stroke-width="2.171" stroke-miterlimit="10" stroke-linecap="round" stroke-linejoin="round"/><path opacity=".25" d="M516.829 163.944v316.959a30.471 30.471 0 01-15.168 26.341l-75.462 43.158M52.066 159.197v316.958a30.47 30.47 0 0015.168 26.341l78.183 44.895" stroke="#231F20" stroke-width="2.171" stroke-linecap="round" stroke-linejoin="round" stroke-dasharray="5.77 5.77"/><path d="M475.703 272.549v67.126c0 7.236 4.429 15.66 9.842 18.786l61.163 35.314c2.344 1.36 4.515 1.505 6.194.666l.232-.116c2.084-1.216 3.444-3.966 3.444-7.989v-67.097c0-7.236-4.429-15.66-9.841-18.786l-50.598-29.235-7.555-4.4-2.981-1.708c-2.258-1.303-4.313-1.476-5.963-.724 0 .029-.029.029-.058.029-.319.203-.55.319-.695.406a1.605 1.605 0 01-.145.086c-1.91 1.303-3.039 3.966-3.039 7.642z" fill="#7369F6" stroke="#231F20" stroke-width="2.171" stroke-miterlimit="10" stroke-linecap="round" stroke-linejoin="round"/><path d="M540.374 315.476l-48.456 27.962m0-55.924l48.456 83.886" stroke="#231F20" stroke-width="2.171" stroke-miterlimit="10" stroke-linecap="round" stroke-linejoin="round"/><path d="M479.578 264.358c1.65-.724 3.734-.579 5.963.723l2.981 1.708 7.555 4.4 50.598 29.235c5.442 3.126 9.842 11.55 9.842 18.786v67.097c0 3.995-1.332 6.773-3.445 7.989l12.186-7.063.087-.058.868-.463c1.911-1.273 3.127-3.965 3.127-7.757v-67.126c0-7.236-4.4-15.66-9.813-18.786l-61.192-35.314c-2.316-1.332-4.429-1.505-6.107-.695 0 0-.261.145-.724.434-2.258 1.303-9.35 5.413-11.926 6.89zM93.705 125.764v66.402l-12.852-7.41-7.44-4.284c-3.762-2.171-9.812 1.331-13.575 7.815l-8.307 14.328c-1.882 3.242-4.313 5.732-6.774 7.15-2.46 1.389-4.892 1.737-6.773.666-3.705-2.171-9.784 1.331-13.547 7.815l-11.636 20.117v-65.938c0-4.284 3.04-9.524 6.773-11.695l58.992-34.069 2.258-1.303 6.079-3.502c1.563-.897 3.01-1.1 4.139-.724.463.116.926.377 1.273.724l.03.029c.897.839 1.36 2.142 1.36 3.879z" fill="#fff" stroke="#231F20" stroke-width="2.171" stroke-miterlimit="10" stroke-linecap="round" stroke-linejoin="round"/><path d="M93.711 192.166v11.347c0 4.313-3.01 9.523-6.773 11.694l-67.329 38.874c-1.852 1.071-3.531 1.187-4.747.521-1.274-.694-2.026-2.229-2.026-4.399v-11.839l11.636-20.118c3.763-6.484 9.813-9.986 13.547-7.815 1.881 1.071 4.313.723 6.773-.666 2.46-1.418 4.892-3.908 6.774-7.15l8.307-14.328c3.763-6.484 9.813-9.986 13.576-7.815l7.439 4.284 12.823 7.41z" fill="#9CE2C8" stroke="#231F20" stroke-width="2.171" stroke-miterlimit="10" stroke-linecap="round" stroke-linejoin="round"/><path d="M47.514 174.798c0 5.992-4.226 13.286-9.407 16.297-5.21 3.01-9.408.578-9.408-5.442 0-6.021 4.226-13.287 9.408-16.297 5.21-3.01 9.407-.579 9.407 5.442z" fill="#FFCF53" stroke="#231F20" stroke-width="2.171" stroke-miterlimit="10" stroke-linecap="round" stroke-linejoin="round"/><path d="M91.064 121.133c-1.1-.377-2.576-.145-4.14.723l-6.078 3.503-2.258 1.302-58.992 34.099c-3.705 2.171-6.773 7.41-6.773 11.694v77.749c0 2.171.753 3.676 2.026 4.4l-12.562-7.237-.26-.145C.752 246.527 0 244.993 0 242.822v-77.778c0-4.284 3.01-9.523 6.744-11.694l67.329-38.875c1.881-1.071 3.56-1.187 4.776-.463l12.215 7.121z" fill="#fff" stroke="#231F20" stroke-width="2.171" stroke-miterlimit="10" stroke-linecap="round" stroke-linejoin="round"/><path d="M93.867 271.739v67.097c0 7.236-4.428 15.659-9.841 18.814l-61.163 35.315c-2.403 1.389-4.632 1.505-6.368.578l-.087-.057c-2.055-1.216-3.416-3.966-3.416-7.961V318.4c0-7.237 4.429-15.631 9.842-18.786l51.755-29.873 6.426-3.705 2.982-1.707c2.228-1.303 4.284-1.506 5.934-.753l.868.463.087.058c1.823 1.303 2.981 3.937 2.981 7.642z" fill="#EA5328" stroke="#231F20" stroke-width="2.171" stroke-miterlimit="10" stroke-linecap="round" stroke-linejoin="round"/><path d="M27.113 326.562l26.312-15.167m-26.312 32.419l52.624-30.364m-52.624 47.616l52.624-30.393" stroke="#231F20" stroke-width="2.171" stroke-miterlimit="10" stroke-linecap="round" stroke-linejoin="round"/><path d="M89.958 263.518c-1.65-.724-3.705-.55-5.933.753l-2.982 1.708-6.426 3.705-51.784 29.93c-5.442 3.155-9.842 11.549-9.842 18.786v67.125c0 3.966 1.332 6.745 3.416 7.961L4.48 386.481l-1.795-1.042c-1.563-1.39-2.518-3.937-2.518-7.324V310.99c0-7.208 4.4-15.631 9.813-18.786L71.2 256.89c2.49-1.419 4.748-1.535 6.455-.464l.348.232 11.954 6.86z" fill="#fff" stroke="#231F20" stroke-width="2.171" stroke-miterlimit="10" stroke-linecap="round" stroke-linejoin="round"/><path d="M489.211 123.824v65.389c0 7.237 4.371 15.66 9.813 18.757l53.637 30.973 4.515 2.605v-65.36c0-7.237-4.429-15.66-9.842-18.815l-50.568-29.178-7.555-4.371z" fill="#FFCF53" stroke="#231F20" stroke-width="2.171" stroke-miterlimit="10" stroke-linecap="round" stroke-linejoin="round"/><path d="M476.387 129.527v67.068c0 7.236 4.428 15.631 9.841 18.757l61.105 35.285c2.345 1.36 4.516 1.534 6.224.637l.318-.203c2.026-1.216 3.3-3.965 3.3-7.873v-67.039c0-7.237-4.429-15.66-9.842-18.815l-50.568-29.177-7.555-4.371-2.982-1.708c-2.286-1.303-4.37-1.505-6.078-.724l-.463.29c-2.056 1.215-3.3 3.965-3.3 7.873z" fill="#FFCF53" stroke="#231F20" stroke-width="2.171" stroke-miterlimit="10" stroke-linecap="round" stroke-linejoin="round"/><path d="M516.762 163.944v52.797m-26.367-68.023l52.739 30.422" stroke="#231F20" stroke-width="2.171" stroke-miterlimit="10" stroke-linecap="round" stroke-linejoin="round"/><path d="M480.152 121.364c1.679-.752 3.792-.579 6.079.724l2.981 1.708 7.555 4.371 50.569 29.177c5.442 3.155 9.842 11.55 9.842 18.815v67.039c0 3.908-1.274 6.658-3.3 7.873l12.36-7.149.521-.29c1.997-1.245 3.242-3.965 3.242-7.844v-67.039c0-7.237-4.371-15.66-9.813-18.757l-61.134-35.314c-2.084-1.216-4.023-1.419-5.615-.869l-.087.029-1.419.869-11.781 6.657z" fill="#fff" stroke="#231F20" stroke-width="2.171" stroke-miterlimit="10" stroke-linecap="round" stroke-linejoin="round"/></svg>