<svg width="251" height="42" fill="none" xmlns="http://www.w3.org/2000/svg"><g clip-path="url(#clip0_0_2029)" fill="#000"><path d="M58.609 20.706c0 4.974 3.685 8.294 8.153 8.294 2.424.005 4.802-.67 6.868-1.95v4.832c-.929.58-3.718 1.635-6.832 1.635-7.265-.013-13.018-5.568-13.018-12.811 0-7.244 5.753-12.787 13.018-12.787 3.114 0 5.903 1.047 6.832 1.635v4.803a13.024 13.024 0 00-6.868-1.941c-4.468 0-8.153 3.315-8.153 8.29zM95.008 21v12.145h-4.46v-10.71c0-2.126-.933-3.712-3.329-3.712-2.323 0-3.68 1.476-3.68 4.145v10.277h-4.46V6.824h4.46V18.11c.32-.818 1.572-3.356 5.326-3.356 3.856 0 6.143 2.31 6.143 6.246zm24.248 8.36v3.785h-5.757a.669.669 0 01-.511-.19.687.687 0 01-.207-.508v-3.23c-.608 2.125-2.25 4.287-5.676 4.287-4.65 0-8.01-3.495-8.01-9.373 0-5.952 3.681-9.377 8.258-9.377 4.22 0 5.08 3.499 5.08 3.499v-3.135h4.459v14.241h2.364zm-6.689-5.192c0-3.389-1.622-5.518-4.29-5.518-2.574 0-4.541 1.913-4.541 5.481 0 3.569 1.622 5.482 4.326 5.482 2.753 0 4.505-1.803 4.505-5.445zm16.926-8.33v17.307h-4.46V18.903h-3.243v-3.785h7.006a.675.675 0 01.655.442.69.69 0 01.042.277zm-.142-4.473h-4.828V6.824h4.828v4.541zm5.352 3.753h4.399v3.208c.146-.47 1.216-3.572 5.4-3.572 3.864 0 6.154 2.31 6.154 6.238v12.153h-4.459v-10.71c0-2.126-.929-3.712-3.325-3.712-2.327 0-3.685 1.476-3.685 4.145v10.277h-4.46l-.024-18.027zm40.198 14.241v3.786h-5.757a.673.673 0 01-.668-.423.686.686 0 01-.05-.276v-3.23c-.608 2.126-2.25 4.288-5.676 4.288-4.65 0-8.011-3.495-8.011-9.373 0-5.952 3.681-9.377 8.262-9.377 4.221 0 5.076 3.499 5.076 3.499v-3.135h4.46v14.241h2.364zm-6.69-5.191c0-3.389-1.622-5.518-4.289-5.518-2.575 0-4.541 1.913-4.541 5.481 0 3.569 1.642 5.482 4.346 5.482 2.733 0 4.484-1.803 4.484-5.445zm15.812-16.249v25.226h-4.484V10.609h-2.79V6.824h6.187a1.07 1.07 0 011.007.674c.054.134.081.277.08.421zm8.031 33.52h-4.46v-3.785h3.296c1.18 0 1.719-.36 2.145-1.444l1.326-3.388-6.884-17.704h4.97l4.184 12.725 4.33-12.725h4.971l-8.798 22.822c-.928 2.416-2.469 3.499-5.08 3.499zm16.355-9.447V27.63c.608.41 3.073 2.044 5.83 2.044 2.108 0 3.036-.613 3.036-1.802 0-3.57-9.117-.937-9.117-7.714 0-3.066 2.574-5.412 7.297-5.412 2.607 0 4.46.686 5.186 1.12v4.316c-.896-.58-2.684-1.733-5.117-1.733-2.108 0-2.895.65-2.895 1.66 0 2.918 9.082.9 9.082 7.538 0 3.605-2.968 5.874-7.298 5.874-2.846-.017-5.181-.99-6.004-1.53zm23.997-16.155v17.308h-4.46V18.903h-3.243v-3.785h7.01a.667.667 0 01.504.205.674.674 0 01.189.514zm-.142-4.472h-4.829V6.824h4.829v4.541zm4.922 20.627V27.63c.604.41 3.073 2.044 5.826 2.044 2.112 0 3.041-.613 3.041-1.802 0-3.57-9.118-.937-9.118-7.714 0-3.066 2.574-5.412 7.297-5.412 2.611 0 4.46.686 5.186 1.12v4.316a9.215 9.215 0 00-5.113-1.733c-2.112 0-2.899.65-2.899 1.66 0 2.918 9.086.9 9.086 7.538 0 3.605-2.968 5.874-7.298 5.874-2.842-.017-5.189-.99-6.008-1.53zM20.614.562c.454 0 .97.057.97.057a11.624 11.624 0 00-2.628 6.507 13.65 13.65 0 00-7.544 3.98 13.845 13.845 0 00-3.75 7.707C5.037 19.1 2.07 20.31.362 22.04-.042 10.176 8.975.562 20.614.562zm2.92 35.637c-.537.08-1.08.12-1.622.118a19.767 19.767 0 01-2.798-.233 21.23 21.23 0 01-2.838 4.905 20.22 20.22 0 01-9.673-5.215 20.475 20.475 0 01-5.562-9.533c1.828-2.187 6.053-3.454 8.676-3.454 5.595 0 8.562 2.992 9.592 7.656-3.37-.92-5.368-2.82-6.681-5.641a6.714 6.714 0 00-2.396-.409 6.772 6.772 0 00-2.17.348c1.484 5.702 6.966 9.962 13.643 9.962 6.167 0 8.79-3.164 8.79-3.164v-4.84s-3.025 3.168-6.791 3.801a13.834 13.834 0 00-3.888-7.802 13.637 13.637 0 00-7.756-3.885c.969-4.835 4.622-7.541 9.588-7.541 4.967 0 8.964 3.625 8.964 3.625V10.12s-2.57-2.42-7.135-2.935c.113-2.126 1.484-4.779 2.967-5.76 6.22 1.958 12.216 7.256 13.927 14.97 0 0-2.74 2.763-7.878 2.763-4.224 0-6.892-2.13-8.392-5.87a6.953 6.953 0 00-2.453-.409 6.199 6.199 0 00-2.282.409c1.654 5.988 6.892 10.015 12.73 10.015 5.708 0 8.79-2.645 8.79-2.645 0 11.973-9.078 20.553-19.866 20.782 1.257-1.226 2.226-3.916 2.514-5.24z"/></g><defs><clipPath id="clip0_0_2029"><path fill="#fff" transform="translate(.343 .561)" d="M0 0h250.147v40.878H0z"/></clipPath></defs></svg>