<svg width="272" height="34" fill="none" xmlns="http://www.w3.org/2000/svg"><g clip-path="url(#clip0_0_2046)"><path d="M62.274 24.386c-3.16 0-5.637-.933-7.456-2.787-1.82-1.853-2.71-4.338-2.71-7.413 0-3.28 1.013-5.957 3.038-7.975s4.652-3.075 7.894-3.075c2.025 0 3.694.247 5.062.768v4.448c-1.382-.81-2.955-1.208-4.706-1.208-1.943 0-3.489.604-4.666 1.826-1.176 1.222-1.778 2.869-1.778 4.942 0 1.99.56 3.57 1.655 4.736 1.136 1.18 2.64 1.785 4.501 1.785 1.82 0 3.448-.44 4.94-1.332v4.214c.013-.014-3.339 1.071-5.774 1.071z" fill="#0A1623"/><path d="M62.274 24.592c-3.188 0-5.746-.961-7.607-2.856-1.833-1.88-2.777-4.42-2.777-7.55 0-3.336 1.04-6.067 3.106-8.113 2.08-2.086 4.788-3.13 8.044-3.13 2.08 0 3.763.261 5.144.783l.137.055v4.942l-.3-.179c-1.342-.782-2.888-1.18-4.598-1.18-1.888 0-3.365.576-4.515 1.757-1.149 1.18-1.723 2.8-1.723 4.804 0 1.909.547 3.46 1.6 4.6 1.095 1.139 2.559 1.715 4.351 1.715 1.779 0 3.366-.425 4.843-1.304l.301-.178v4.708l-.137.041c-.15.028-3.434 1.085-5.869 1.085zm.766-21.25c-3.146 0-5.76 1.015-7.757 3.02C53.299 8.338 52.3 10.974 52.3 14.2c0 3.02.89 5.463 2.655 7.262 1.806 1.84 4.186 2.732 7.305 2.732 2.094 0 4.94-.838 5.596-1.044v-3.706c-1.45.796-3.01 1.194-4.747 1.194-1.902 0-3.462-.618-4.638-1.84-1.136-1.221-1.724-2.868-1.724-4.873 0-2.114.615-3.816 1.833-5.079 1.204-1.249 2.832-1.88 4.802-1.88 1.656 0 3.174.356 4.501 1.07V4.042c-1.286-.467-2.873-.7-4.843-.7zm17.821 10.076c-.533-.289-1.176-.44-1.901-.44-.972 0-1.738.371-2.313 1.098-.56.728-.848 1.703-.848 2.952v7.001h-4.542V9.327H75.8v2.718h.041c.725-1.99 2.025-2.993 3.886-2.993.492 0 .848.041 1.135.165v4.2z" fill="#0A1623"/><path d="M76.008 24.221H71.07v-15.1h4.939v2.045c.807-1.537 2.052-2.32 3.735-2.32.56 0 .916.055 1.217.179l.123.055v4.68l-.3-.164c-.507-.275-1.136-.426-1.807-.426-.916 0-1.614.33-2.148 1.016-.547.7-.807 1.62-.807 2.828v7.207h-.014zm-4.542-.398h4.132v-6.795c0-1.304.287-2.306.89-3.075.601-.783 1.436-1.167 2.476-1.167.615 0 1.19.11 1.696.33V9.354c-.219-.069-.52-.096-.93-.096-1.779 0-2.996.934-3.694 2.87l-.055.136h-.383V9.533h-4.132v14.29zM98.13 9.327l-5.952 15.828c-1.422 3.802-3.612 5.71-6.485 5.71-1.094 0-1.983-.123-2.709-.37v-3.597c.602.37 1.26.522 1.943.522 1.177 0 1.984-.563 2.435-1.661l.767-1.826-5.965-14.647h5.062l2.75 8.909c.164.563.328 1.208.41 1.95h.041c.082-.564.246-1.209.493-1.95l2.75-8.95h4.46v.082z" fill="#0A1623"/><path d="M85.698 31.071c-1.109 0-2.025-.123-2.778-.37l-.137-.042v-4.104l.301.178a3.54 3.54 0 001.847.494c1.095 0 1.82-.508 2.244-1.537l.739-1.744L81.867 9.08h5.513l2.805 9.046c.082.288.178.618.246.988.082-.315.178-.645.301-1.002l2.805-9.087h4.816l-.014.357-5.951 15.827c-1.464 3.9-3.708 5.862-6.69 5.862zm-2.518-.714c.684.206 1.519.316 2.517.316 2.791 0 4.912-1.88 6.294-5.573l5.883-15.636h-4.05l-2.709 8.8a10.786 10.786 0 00-.479 1.907l-.027.179h-.397l-.013-.179c-.082-.755-.26-1.413-.397-1.908l-2.709-8.758h-4.624l5.869 14.455-.807 1.895c-.48 1.18-1.368 1.784-2.613 1.784-.63 0-1.204-.123-1.738-.384v3.102zm21.356-8.03h-.041v8.456h-4.543V9.327h4.543v2.182h.041c1.135-1.702 2.668-2.553 4.706-2.553 1.902 0 3.366.645 4.419 1.95 1.054 1.303 1.546 3.074 1.546 5.298 0 2.43-.602 4.407-1.82 5.876-1.217 1.496-2.832 2.224-4.815 2.224-1.724.04-3.106-.646-4.036-1.977zm-.123-6.04v1.18c0 1.016.287 1.826.807 2.471.533.645 1.258.975 2.107.975 1.012 0 1.819-.398 2.394-1.208.561-.81.848-1.95.848-3.405 0-2.594-1.012-3.885-2.996-3.885-.93 0-1.697.371-2.271 1.057-.561.714-.889 1.648-.889 2.815z" fill="#0A1623"/><path d="M104.704 30.989h-4.94V9.12h4.94v1.812c1.149-1.455 2.64-2.17 4.542-2.17 1.943 0 3.489.673 4.57 2.019 1.067 1.318 1.587 3.088 1.587 5.436 0 2.498-.63 4.516-1.875 5.999-1.231 1.524-2.914 2.306-4.98 2.306-1.573.041-2.886-.535-3.844-1.647v8.113zm-4.542-.412h4.131V22.12h.356l.055.082c.889 1.277 2.23 1.922 3.844 1.894 1.943 0 3.516-.727 4.666-2.155 1.176-1.414 1.778-3.35 1.778-5.738 0-2.251-.492-3.94-1.491-5.175-1.026-1.263-2.422-1.867-4.255-1.867-1.943 0-3.42.81-4.528 2.457l-.055.096h-.356V9.532h-4.132v21.045h-.013zm7.182-9.472c-.93 0-1.71-.357-2.271-1.044-.574-.7-.862-1.578-.862-2.594v-1.18c0-1.167.315-2.156.931-2.952.615-.741 1.45-1.126 2.435-1.126 2.121 0 3.201 1.373 3.201 4.091 0 1.496-.301 2.677-.889 3.514-.602.852-1.464 1.29-2.545 1.29zm.233-8.498c-.862 0-1.573.33-2.107.975-.561.714-.848 1.634-.848 2.704v1.181c0 .947.246 1.702.766 2.347.479.59 1.149.893 1.956.893.958 0 1.697-.385 2.23-1.126.534-.769.821-1.88.821-3.28-.013-2.486-.93-3.694-2.818-3.694zm16.449 11.738c-3.202 0-4.789-1.661-4.789-4.983V12.69h-2.394V9.368h2.394V6.211l4.501-1.29v4.447h3.284v3.322h-3.284v5.958c0 1.538.602 2.306 1.82 2.306.493 0 .971-.123 1.464-.398v3.281c0-.014-1.614.508-2.996.508z" fill="#0A1623"/><path d="M124.03 24.55c-3.311 0-4.98-1.743-4.98-5.175v-6.48h-2.394V9.163h2.394V6.059l4.898-1.413v4.516h3.283v3.72h-3.283v5.752c0 1.441.52 2.1 1.614 2.1.479 0 .917-.123 1.355-.37l.301-.179v3.775l-.137.041c-.055.042-1.656.55-3.051.55zm-6.978-12.066h2.395v6.877c0 3.213 1.491 4.778 4.583 4.778 1.094 0 2.38-.343 2.791-.467v-2.8a3.057 3.057 0 01-1.259.274c-.93 0-2.025-.44-2.025-2.512v-6.15h3.284v-2.91h-3.284V5.18l-4.09 1.18v3.213h-2.395v2.91zm19.447 11.861c-2.435 0-4.378-.687-5.76-2.06-1.423-1.372-2.107-3.24-2.107-5.587 0-2.43.725-4.337 2.189-5.71 1.464-1.373 3.407-2.06 5.869-2.06 2.436 0 4.337.687 5.76 2.06 1.382 1.373 2.066 3.198 2.066 5.422 0 2.43-.725 4.366-2.148 5.793-1.423 1.428-3.393 2.142-5.869 2.142zm.082-11.902c-1.054 0-1.902.37-2.517 1.098-.602.728-.89 1.785-.89 3.116 0 2.828 1.136 4.215 3.407 4.215 2.189 0 3.242-1.455 3.242-4.338.041-2.718-1.053-4.091-3.242-4.091z" fill="#0A1623"/><path d="M136.503 24.55c-2.504 0-4.488-.713-5.897-2.127-1.436-1.4-2.161-3.322-2.161-5.725 0-2.47.752-4.447 2.257-5.861 1.491-1.4 3.516-2.114 6.02-2.114 2.462 0 4.446.713 5.896 2.127 1.41 1.414 2.135 3.281 2.135 5.574 0 2.47-.739 4.475-2.203 5.93-1.491 1.455-3.516 2.197-6.047 2.197zm.205-15.43c-2.421 0-4.31.66-5.732 2.005-1.41 1.345-2.135 3.212-2.135 5.573 0 2.32.671 4.105 2.053 5.436 1.327 1.332 3.215 2.005 5.609 2.005 2.421 0 4.351-.7 5.732-2.087 1.382-1.386 2.094-3.28 2.094-5.642 0-2.169-.671-3.953-2.012-5.285-1.381-1.345-3.228-2.004-5.609-2.004zm-.123 11.944c-2.394 0-3.612-1.483-3.612-4.407 0-1.414.315-2.498.944-3.253.643-.769 1.546-1.167 2.668-1.167 1.026 0 1.847.302 2.422.879.711.713 1.053 1.866 1.026 3.418 0 3.006-1.163 4.53-3.448 4.53zm0-8.415c-.999 0-1.792.343-2.353 1.016-.561.672-.848 1.674-.848 2.992 0 2.69 1.053 4.009 3.201 4.009 2.039 0 3.037-1.346 3.037-4.132.028-1.442-.287-2.499-.916-3.13-.493-.494-1.204-.755-2.121-.755z" fill="#0A1623"/><path d="M164.557 23.356c-1.505.727-3.447 1.098-5.869 1.098-3.16 0-5.637-.933-7.456-2.787-1.82-1.867-2.709-4.338-2.709-7.413 0-3.28 1.012-5.957 3.037-8.016 2.025-2.06 4.665-3.075 7.908-3.075 2.025 0 3.694.247 5.062.768V8.38c-1.382-.81-2.955-1.208-4.706-1.208-1.943 0-3.489.604-4.666 1.826-1.176 1.208-1.778 2.869-1.778 4.942 0 1.99.561 3.569 1.655 4.736 1.136 1.18 2.641 1.784 4.542 1.784 1.82 0 3.448-.439 4.98-1.331v4.228zm10.17 1.098c-2.435 0-4.378-.686-5.8-2.059-1.423-1.373-2.107-3.24-2.107-5.587 0-2.43.725-4.338 2.189-5.71 1.463-1.374 3.406-2.06 5.91-2.06 2.435 0 4.337.686 5.76 2.06 1.382 1.372 2.066 3.198 2.066 5.422 0 2.43-.725 4.365-2.148 5.793-1.451 1.441-3.393 2.141-5.87 2.141zm.124-11.902c-1.054 0-1.902.371-2.518 1.098-.602.728-.889 1.785-.889 3.117 0 2.828 1.135 4.214 3.407 4.214 2.189 0 3.242-1.455 3.242-4.338.041-2.718-1.053-4.09-3.242-4.09zm34.161 11.532h-4.543v-8.347c0-2.141-.766-3.198-2.353-3.198-.725 0-1.341.33-1.819.975-.493.645-.685 1.455-.685 2.388v8.223h-4.542v-8.456c0-2.06-.766-3.116-2.312-3.116-.766 0-1.382.329-1.861.933-.451.604-.684 1.455-.684 2.512v8.14h-4.542V9.437h4.542v2.307h.041a5.77 5.77 0 011.984-1.909 5.571 5.571 0 012.791-.727c2.066 0 3.489.933 4.255 2.76 1.136-1.827 2.75-2.76 4.939-2.76 3.201 0 4.789 1.99 4.789 5.917v9.06zm8.188-1.703h-.041v8.457h-4.543V9.436h4.543v2.224h.041c1.135-1.702 2.668-2.553 4.706-2.553 1.902 0 3.366.645 4.419 1.95 1.054 1.29 1.546 3.074 1.546 5.34 0 2.43-.602 4.406-1.819 5.916-1.218 1.496-2.832 2.224-4.816 2.224-1.779-.083-3.106-.783-4.036-2.155zm-.123-5.985v1.18c0 1.017.287 1.827.807 2.472.533.645 1.258.975 2.107.975 1.012 0 1.819-.399 2.394-1.209.561-.81.848-1.949.848-3.404 0-2.595-1.012-3.885-2.996-3.885-.93 0-1.697.37-2.271 1.057-.616.7-.889 1.634-.889 2.814zm25.699 7.688h-4.296v-2.1h-.082c-.971 1.66-2.435 2.47-4.378 2.47-1.423 0-2.558-.398-3.366-1.208-.807-.81-1.217-1.908-1.217-3.24 0-2.827 1.696-4.488 5.062-4.941l3.967-.522c0-1.62-.848-2.388-2.599-2.388-1.738 0-3.407.521-4.98 1.578v-3.418c.643-.33 1.505-.604 2.599-.851 1.095-.247 2.107-.37 2.997-.37 4.172 0 6.279 2.1 6.279 6.273l.014 8.717zm-4.255-5.944v-.975l-2.668.33c-1.464.205-2.23.85-2.23 1.99 0 .522.164.934.534 1.25.369.329.848.48 1.464.48.848 0 1.546-.289 2.066-.893.547-.535.834-1.304.834-2.182zm17.419-4.627c-.534-.288-1.177-.439-1.902-.439-.972 0-1.738.37-2.312 1.098-.561.728-.849 1.702-.849 2.952v7h-4.542V9.437h4.542v2.718h.041c.726-1.99 2.025-2.992 3.886-2.992.492 0 .848.04 1.136.164v4.187zm15.198 4.544h-9.604c.164 2.142 1.505 3.199 4.008 3.199 1.615 0 3.038-.371 4.255-1.14v3.281c-1.382.728-3.119 1.098-5.308 1.098-2.394 0-4.214-.645-5.514-1.99-1.299-1.29-1.984-3.158-1.984-5.505 0-2.43.685-4.365 2.107-5.793 1.423-1.414 3.161-2.142 5.227-2.142 2.148 0 3.803.646 4.98 1.909 1.176 1.249 1.737 2.992 1.737 5.175v1.908h.096zm-4.214-2.8c0-2.1-.848-3.158-2.558-3.158-.725 0-1.341.288-1.902.893-.534.603-.848 1.331-.971 2.265h5.431z" fill="#00D665"/><path d="M15.507 24.605v-3.872l4.036-4.035v7.907m1.839 0V19.25l1.956 1.414 2.422-2.045v5.985m1.599.001h4.638V13.142l-4.638 4.09" fill="#0A1623"/><path d="M15.287 18.62l-.944-1.1 5.226-5.01 3.749 3.556 6.622-6.013-1.108-1.318 4.665-1.07-.917 4.502-1.327-.947-7.935 7.646-3.749-3.212-.383-.343s-3.461 3.555-3.694 3.432" fill="#00D665"/><path d="M28.903 31.674l-.862-3.184c6.732-1.826 12.519-5.766 15.105-10.269 1.327-2.333 1.737-4.667 1.163-6.781-.821-3.006-3.53-5.354-7.648-6.63-4.378-1.36-9.714-1.305-15.036.137l-.876-3.185C26.673.156 32.666.128 37.632 1.666c5.226 1.62 8.729 4.777 9.85 8.91.808 2.964.302 6.177-1.477 9.293-3.037 5.312-9.44 9.733-17.102 11.805z" fill="#00D665"/><path d="M18.367 33.473c-2.79 0-5.472-.371-7.894-1.126-5.226-1.62-8.729-4.791-9.85-8.91-.808-2.964-.301-6.177 1.477-9.293 3.051-5.326 9.454-9.746 17.115-11.82l.862 3.186C13.347 7.335 7.56 11.274 4.973 15.777c-1.327 2.333-1.737 4.667-1.163 6.767.821 3.007 3.53 5.354 7.648 6.63 4.378 1.36 9.714 1.305 15.036-.136l.862 3.184c-3.024.838-6.075 1.25-8.989 1.25z" fill="#0A1623"/></g><defs><clipPath id="clip0_0_2046"><path fill="#fff" transform="translate(.241 .527)" d="M0 0h270.891v32.946H0z"/></clipPath></defs></svg>