<svg width="410" height="67" fill="none" xmlns="http://www.w3.org/2000/svg"><g clip-path="url(#clip0_0_899)" fill="#000"><path d="M95.5 33.017c0 8.154 6.041 13.595 13.363 13.595a21.278 21.278 0 0011.257-3.196v7.92c-1.522.95-6.093 2.68-11.197 2.68-11.908-.02-21.337-9.126-21.337-20.998 0-11.873 9.43-20.958 21.337-20.958 5.104 0 9.675 1.715 11.197 2.68v7.872a21.345 21.345 0 00-11.257-3.182c-7.322 0-13.363 5.434-13.363 13.587zm59.66.483v19.906h-7.31V35.852c0-3.484-1.528-6.084-5.456-6.084-3.807 0-6.033 2.419-6.033 6.794v16.844h-7.31V10.264h7.31v18.499c.525-1.34 2.578-5.5 8.731-5.5 6.32 0 10.068 3.785 10.068 10.237zm39.744 13.7v6.205h-9.436a1.102 1.102 0 01-.838-.313 1.131 1.131 0 01-.339-.834v-5.292c-.996 3.484-3.688 7.028-9.303 7.028-7.622 0-13.13-5.728-13.13-15.363 0-9.755 6.033-15.37 13.536-15.37 6.917 0 8.326 5.735 8.326 5.735V23.86h7.31V47.2h3.874zm-10.965-8.509c0-5.554-2.658-9.045-7.03-9.045-4.22 0-7.443 3.136-7.443 8.985 0 5.85 2.658 8.985 7.091 8.985 4.512 0 7.382-2.955 7.382-8.925zm27.743-13.654v28.368h-7.309V30.063h-5.316v-6.204h11.482a1.104 1.104 0 011.074.724c.054.145.078.3.069.455zm-.232-7.33h-7.914v-7.444h7.914v7.444zm8.771 6.15h7.21v5.26c.239-.77 1.994-5.856 8.851-5.856 6.333 0 10.088 3.786 10.088 10.224v19.92h-7.31V35.852c0-3.484-1.522-6.084-5.449-6.084-3.814 0-6.04 2.419-6.04 6.794v16.844h-7.31l-.04-29.547zM286.107 47.2v6.205h-9.436a1.1 1.1 0 01-.838-.313 1.124 1.124 0 01-.338-.833v-5.293c-.997 3.484-3.688 7.028-9.303 7.028-7.622 0-13.131-5.728-13.131-15.363 0-9.755 6.034-15.37 13.543-15.37 6.917 0 8.319 5.735 8.319 5.735V23.86h7.31V47.2h3.874zm-10.964-8.509c0-5.554-2.658-9.045-7.031-9.045-4.219 0-7.442 3.136-7.442 8.985 0 5.85 2.691 8.985 7.123 8.985 4.479 0 7.35-2.955 7.35-8.925zm25.915-26.632v41.346h-7.349V16.468h-4.572v-6.204h10.141a1.746 1.746 0 011.265.52 1.773 1.773 0 01.515 1.276zM314.222 67h-7.309v-6.204h5.402c1.934 0 2.818-.59 3.515-2.365l2.173-5.555L306.72 23.86h8.147l6.858 20.857 7.096-20.857h8.147l-14.42 37.406c-1.521 3.96-4.046 5.735-8.326 5.735zm26.806-15.484v-7.149c.997.67 5.037 3.35 9.556 3.35 3.455 0 4.977-1.005 4.977-2.954 0-5.85-14.945-1.535-14.945-12.643 0-5.025 4.22-8.871 11.962-8.871 4.272 0 7.309 1.126 8.499 1.836v7.075c-1.469-.951-4.399-2.84-8.387-2.84-3.455 0-4.744 1.064-4.744 2.72 0 4.783 14.885 1.473 14.885 12.354 0 5.91-4.864 9.628-11.961 9.628-4.665-.027-8.493-1.621-9.842-2.506zm39.333-26.478v28.368h-7.31V30.063h-5.316v-6.204h11.489a1.096 1.096 0 01.827.336 1.122 1.122 0 01.31.843zm-.233-7.33h-7.914v-7.444h7.914v7.444zm8.067 33.808v-7.149c.99.67 5.037 3.35 9.549 3.35 3.462 0 4.984-1.005 4.984-2.954 0-5.85-14.945-1.535-14.945-12.643 0-5.025 4.22-8.871 11.961-8.871 4.28 0 7.31 1.126 8.499 1.836v7.075a15.1 15.1 0 00-8.379-2.84c-3.462 0-4.752 1.064-4.752 2.72 0 4.783 14.892 1.473 14.892 12.354 0 5.91-4.864 9.628-11.961 9.628-4.658-.027-8.506-1.621-9.848-2.506zM33.221 0c.745 0 1.589.094 1.589.094a19.053 19.053 0 00-4.306 10.666 22.374 22.374 0 00-12.366 6.523 22.692 22.692 0 00-6.148 12.633c-4.299.468-9.163 2.452-11.96 5.286C-.636 15.758 14.143 0 33.22 0zm4.785 58.41c-.88.132-1.769.197-2.658.195a32.404 32.404 0 01-4.585-.382 34.798 34.798 0 01-4.652 8.04 33.141 33.141 0 01-15.855-8.549A33.56 33.56 0 011.139 42.09c2.997-3.584 9.921-5.661 14.22-5.661 9.17 0 14.035 4.904 15.723 12.549-5.522-1.508-8.798-4.623-10.951-9.246a11.002 11.002 0 00-3.928-.67 11.1 11.1 0 00-3.555.57c2.432 9.346 11.416 16.327 22.36 16.327 10.108 0 14.407-5.185 14.407-5.185V42.84s-4.957 5.192-11.13 6.23a22.675 22.675 0 00-6.372-12.788A22.352 22.352 0 0019.2 29.916c1.588-7.927 7.576-12.362 15.716-12.362s14.692 5.943 14.692 5.943v-7.832s-4.213-3.967-11.695-4.811c.186-3.484 2.432-7.832 4.864-9.44 10.194 3.209 20.022 11.892 22.826 24.535 0 0-4.492 4.53-12.912 4.53-6.924 0-11.296-3.491-13.755-9.622a11.398 11.398 0 00-4.02-.67 10.158 10.158 0 00-3.741.67c2.71 9.816 11.296 16.415 20.865 16.415 9.357 0 14.407-4.335 14.407-4.335 0 19.625-14.879 33.688-32.561 34.063 2.06-2.01 3.648-6.419 4.12-8.59z"/></g><defs><clipPath id="clip0_0_899"><path fill="#fff" d="M0 0h410v67H0z"/></clipPath></defs></svg>