<svg width="444" height="55" fill="none" xmlns="http://www.w3.org/2000/svg"><g clip-path="url(#clip0_0_1164)"><path d="M101.672 39.605c-5.18 0-9.24-1.53-12.221-4.568-2.983-3.037-4.44-7.11-4.44-12.15 0-5.377 1.659-9.765 4.978-13.072 3.319-3.308 7.624-5.04 12.938-5.04 3.319 0 6.055.405 8.297 1.26v7.29c-2.264-1.328-4.843-1.98-7.714-1.98-3.184 0-5.718.99-7.646 2.992-1.929 2.003-2.915 4.703-2.915 8.1 0 3.263.92 5.85 2.713 7.763 1.861 1.935 4.328 2.925 7.378 2.925 2.982 0 5.651-.72 8.095-2.183v6.908c.022-.023-5.472 1.755-9.463 1.755z" fill="#0A1623"/><path d="M101.672 39.943c-5.225 0-9.419-1.575-12.468-4.68-3.005-3.083-4.552-7.245-4.552-12.375 0-5.468 1.704-9.946 5.09-13.298 3.408-3.42 7.848-5.13 13.185-5.13 3.409 0 6.167.427 8.432 1.282l.224.09v8.1l-.493-.292c-2.198-1.283-4.732-1.935-7.535-1.935-3.094 0-5.516.945-7.4 2.88-1.883 1.935-2.825 4.59-2.825 7.875 0 3.127.897 5.67 2.623 7.537 1.794 1.868 4.194 2.813 7.131 2.813 2.915 0 5.517-.698 7.939-2.138l.493-.292v7.717l-.224.068c-.247.045-5.629 1.778-9.62 1.778zm1.255-34.83c-5.157 0-9.44 1.664-12.714 4.95-3.252 3.24-4.889 7.56-4.889 12.847 0 4.95 1.458 8.955 4.35 11.902 2.96 3.016 6.862 4.478 11.975 4.478 3.431 0 8.095-1.373 9.172-1.71v-6.075c-2.377 1.305-4.934 1.957-7.782 1.957-3.117 0-5.673-1.012-7.601-3.015-1.862-2.002-2.826-4.702-2.826-7.987 0-3.465 1.01-6.255 3.005-8.325 1.973-2.047 4.642-3.082 7.871-3.082 2.713 0 5.202.584 7.378 1.754V6.26c-2.108-.765-4.71-1.148-7.939-1.148zm29.219 16.514c-.874-.472-1.928-.72-3.117-.72-1.592 0-2.848.608-3.79 1.8-.919 1.193-1.39 2.79-1.39 4.838V39.02h-7.445V14.922h7.445v4.455h.067c1.189-3.262 3.319-4.905 6.369-4.905.807 0 1.39.068 1.861.27v6.885z" fill="#0A1623"/><path d="M124.185 39.335h-8.095v-24.75h8.095v3.352c1.324-2.52 3.364-3.802 6.122-3.802.92 0 1.503.09 1.996.293l.202.09v7.672l-.493-.27c-.83-.45-1.862-.698-2.96-.698-1.503 0-2.647.54-3.521 1.665-.897 1.148-1.323 2.655-1.323 4.636v11.812h-.023zm-7.444-.653h6.772V27.545c0-2.138.471-3.78 1.457-5.04.987-1.282 2.355-1.912 4.059-1.912 1.009 0 1.951.18 2.781.54v-6.165c-.359-.113-.852-.158-1.525-.158-2.915 0-4.911 1.53-6.055 4.702l-.089.226h-.628V15.26h-6.772v23.422zm43.705-23.759l-9.755 25.942c-2.332 6.233-5.92 9.36-10.629 9.36-1.794 0-3.251-.202-4.44-.607v-5.895c.987.607 2.063.855 3.184.855 1.929 0 3.252-.923 3.992-2.723l1.256-2.992-9.777-24.008h8.297l4.507 14.603c.269.922.538 1.98.673 3.195h.067c.134-.923.403-1.98.807-3.195l4.507-14.67h7.311v.135z" fill="#0A1623"/><path d="M140.062 50.563c-1.816 0-3.319-.203-4.552-.608l-.224-.067V43.16l.493.293a5.81 5.81 0 003.027.81c1.794 0 2.983-.833 3.678-2.52l1.211-2.858-9.912-24.367h9.037l4.597 14.827c.135.473.292 1.013.404 1.62.134-.517.291-1.058.493-1.642l4.597-14.896h7.893l-.022.585-9.755 25.943c-2.399 6.39-6.077 9.608-10.965 9.608zm-4.126-1.17c1.121.337 2.489.517 4.126.517 4.575 0 8.05-3.082 10.315-9.135l9.643-25.627h-6.638l-4.44 14.422a17.692 17.692 0 00-.785 3.127l-.045.293h-.65l-.022-.293c-.135-1.237-.426-2.317-.651-3.127l-4.44-14.355h-7.579l9.62 23.692-1.323 3.106c-.785 1.934-2.243 2.925-4.283 2.925-1.032 0-1.974-.203-2.848-.63v5.084zM170.94 36.23h-.067v13.86h-7.445V14.922h7.445V18.5h.067c1.861-2.79 4.373-4.185 7.714-4.185 3.117 0 5.516 1.057 7.243 3.195 1.727 2.137 2.534 5.04 2.534 8.685 0 3.982-.987 7.222-2.982 9.63-1.996 2.452-4.642 3.645-7.894 3.645-2.825.067-5.09-1.058-6.615-3.24zm-.202-9.9v1.935c0 1.665.471 2.992 1.323 4.05.875 1.057 2.063 1.597 3.454 1.597 1.659 0 2.982-.652 3.924-1.98.919-1.327 1.39-3.195 1.39-5.58 0-4.252-1.659-6.367-4.911-6.367-1.525 0-2.78.607-3.722 1.732-.92 1.17-1.458 2.7-1.458 4.613z" fill="#0A1623"/><path d="M171.209 50.428h-8.095V14.584h8.095v2.97c1.884-2.385 4.328-3.555 7.445-3.555 3.184 0 5.718 1.102 7.49 3.308 1.749 2.16 2.601 5.062 2.601 8.91 0 4.095-1.032 7.402-3.072 9.832-2.018 2.498-4.777 3.78-8.163 3.78-2.578.068-4.731-.877-6.301-2.7v13.297zm-7.445-.675h6.772v-13.86h.583l.09.135c1.458 2.092 3.655 3.15 6.301 3.105 3.185 0 5.763-1.193 7.647-3.533 1.929-2.318 2.915-5.49 2.915-9.405 0-3.69-.807-6.457-2.444-8.483-1.682-2.07-3.969-3.06-6.974-3.06-3.184 0-5.606 1.328-7.422 4.028l-.09.157h-.583V15.26h-6.772v34.492h-.023zm11.773-15.526c-1.525 0-2.803-.584-3.722-1.71-.942-1.147-1.413-2.587-1.413-4.252V26.33c0-1.912.516-3.532 1.525-4.837 1.009-1.215 2.377-1.845 3.991-1.845 3.476 0 5.248 2.25 5.248 6.704 0 2.453-.494 4.388-1.458 5.76-.987 1.395-2.399 2.115-4.171 2.115zm.381-13.927c-1.412 0-2.579.54-3.453 1.598-.919 1.17-1.39 2.677-1.39 4.432v1.935c0 1.552.403 2.79 1.255 3.847.785.968 1.884 1.463 3.207 1.463 1.57 0 2.781-.63 3.655-1.845.875-1.26 1.346-3.082 1.346-5.378-.023-4.072-1.525-6.052-4.62-6.052zm26.977 19.238c-5.248 0-7.849-2.723-7.849-8.168V20.435h-3.924V14.99h3.924V9.815l7.378-2.115v7.29h5.381v5.445h-5.381V30.2c0 2.52.986 3.78 2.982 3.78.807 0 1.592-.202 2.399-.652v5.377c0-.023-2.646.833-4.91.833z" fill="#0A1623"/><path d="M202.895 39.875c-5.427 0-8.163-2.858-8.163-8.483v-10.62h-3.924v-6.12h3.924V9.569l8.028-2.318v7.402h5.382v6.098h-5.382v9.427c0 2.363.852 3.443 2.646 3.443.785 0 1.502-.203 2.22-.607l.493-.293v6.188l-.224.067c-.09.067-2.713.9-5 .9zm-11.437-19.777h3.924V31.37c0 5.265 2.445 7.83 7.513 7.83 1.793 0 3.901-.563 4.574-.765v-4.59c-.65.293-1.345.45-2.063.45-1.525 0-3.319-.72-3.319-4.118v-10.08h5.382v-4.77h-5.382v-7.2l-6.705 1.935v5.266h-3.924v4.77zm31.888 19.439c-3.992 0-7.176-1.125-9.441-3.375-2.332-2.25-3.453-5.31-3.453-9.157 0-3.983 1.188-7.11 3.588-9.36 2.399-2.25 5.583-3.375 9.62-3.375 3.991 0 7.108 1.125 9.44 3.375 2.265 2.25 3.386 5.242 3.386 8.887 0 3.983-1.188 7.155-3.52 9.495-2.333 2.34-5.562 3.51-9.62 3.51zm.134-19.507c-1.727 0-3.117.607-4.126 1.8-.987 1.192-1.457 2.925-1.457 5.107 0 4.635 1.861 6.908 5.583 6.908 3.588 0 5.315-2.385 5.315-7.11.067-4.455-1.727-6.705-5.315-6.705z" fill="#0A1623"/><path d="M223.346 39.875c-4.104 0-7.356-1.17-9.665-3.488-2.355-2.295-3.543-5.445-3.543-9.382 0-4.05 1.233-7.29 3.7-9.608 2.444-2.295 5.763-3.465 9.866-3.465 4.037 0 7.288 1.17 9.665 3.488 2.31 2.317 3.498 5.377 3.498 9.135 0 4.05-1.211 7.335-3.61 9.72-2.444 2.385-5.763 3.6-9.911 3.6zm.336-25.29c-3.969 0-7.064 1.08-9.396 3.285-2.31 2.205-3.498 5.265-3.498 9.135 0 3.802 1.099 6.727 3.364 8.91 2.175 2.182 5.269 3.285 9.194 3.285 3.969 0 7.13-1.148 9.395-3.42 2.265-2.273 3.431-5.378 3.431-9.248 0-3.555-1.099-6.48-3.296-8.662-2.265-2.205-5.292-3.285-9.194-3.285zm-.202 19.575c-3.924 0-5.92-2.43-5.92-7.223 0-2.317.516-4.095 1.547-5.332 1.054-1.26 2.534-1.913 4.373-1.913 1.682 0 3.027.495 3.969 1.44 1.166 1.17 1.727 3.06 1.682 5.603 0 4.927-1.906 7.425-5.651 7.425zm0-13.793c-1.637 0-2.937.563-3.857 1.665-.919 1.103-1.39 2.745-1.39 4.905 0 4.41 1.727 6.57 5.247 6.57 3.341 0 4.978-2.205 4.978-6.772.045-2.363-.471-4.095-1.502-5.13-.807-.81-1.973-1.238-3.476-1.238z" fill="#0A1623"/><path d="M269.315 37.918c-2.467 1.192-5.651 1.8-9.62 1.8-5.18 0-9.239-1.53-12.221-4.568-2.982-3.06-4.44-7.11-4.44-12.15 0-5.377 1.659-9.765 4.978-13.14s7.647-5.04 12.961-5.04c3.319 0 6.055.405 8.297 1.26v7.29c-2.265-1.327-4.843-1.98-7.714-1.98-3.184 0-5.718.99-7.646 2.993-1.929 1.98-2.915 4.702-2.915 8.1 0 3.262.919 5.85 2.713 7.762 1.861 1.935 4.328 2.925 7.445 2.925 2.982 0 5.651-.72 8.162-2.182v6.93zm16.661 1.8c-3.991 0-7.175-1.126-9.508-3.376-2.332-2.25-3.453-5.31-3.453-9.157 0-3.982 1.189-7.11 3.588-9.36 2.399-2.25 5.584-3.375 9.687-3.375 3.992 0 7.109 1.125 9.441 3.375 2.265 2.25 3.386 5.242 3.386 8.887 0 3.983-1.189 7.155-3.521 9.496-2.377 2.362-5.561 3.51-9.62 3.51zm.202-19.508c-1.726 0-3.117.607-4.126 1.8-.987 1.192-1.457 2.925-1.457 5.107 0 4.636 1.861 6.908 5.583 6.908 3.588 0 5.315-2.385 5.315-7.11.067-4.455-1.727-6.705-5.315-6.705zm55.994 18.9h-7.445V25.43c0-3.51-1.256-5.242-3.857-5.242-1.189 0-2.198.54-2.983 1.597-.807 1.058-1.121 2.385-1.121 3.915v13.478h-7.445v-13.86c0-3.376-1.256-5.108-3.789-5.108-1.256 0-2.265.54-3.05 1.53-.74.99-1.121 2.385-1.121 4.118V39.2h-7.445V15.102h7.445v3.78h.067a9.445 9.445 0 013.251-3.127 9.136 9.136 0 014.575-1.193c3.386 0 5.718 1.53 6.974 4.523 1.861-2.992 4.507-4.523 8.095-4.523 5.247 0 7.849 3.263 7.849 9.698v14.85zm13.432-2.79h-.068v13.86h-7.444V15.102h7.444v3.645h.068c1.861-2.79 4.372-4.184 7.714-4.184 3.117 0 5.516 1.057 7.243 3.194 1.726 2.115 2.534 5.04 2.534 8.753 0 3.982-.987 7.223-2.983 9.698-1.996 2.452-4.642 3.645-7.893 3.645-2.915-.136-5.09-1.283-6.615-3.533zm-.202-9.81v1.935c0 1.665.471 2.992 1.323 4.05.874 1.058 2.063 1.598 3.453 1.598 1.66 0 2.983-.653 3.924-1.98.92-1.328 1.391-3.195 1.391-5.58 0-4.253-1.66-6.368-4.911-6.368-1.525 0-2.781.608-3.723 1.733-1.009 1.147-1.457 2.677-1.457 4.612zm42.113 12.6h-7.042v-3.443h-.134c-1.592 2.723-3.992 4.05-7.176 4.05-2.332 0-4.193-.652-5.516-1.98-1.323-1.327-1.996-3.127-1.996-5.31 0-4.634 2.78-7.357 8.297-8.1l6.503-.855c0-2.655-1.39-3.915-4.261-3.915-2.848 0-5.583.856-8.162 2.588v-5.602c1.054-.54 2.466-.99 4.26-1.395 1.794-.405 3.454-.608 4.911-.608 6.84 0 10.293 3.443 10.293 10.283l.023 14.287zm-6.974-9.742V27.77l-4.373.54c-2.4.338-3.655 1.395-3.655 3.263 0 .855.269 1.53.874 2.047.606.54 1.391.788 2.4.788 1.39 0 2.534-.473 3.386-1.463.897-.877 1.368-2.137 1.368-3.578zm28.546-7.583c-.875-.472-1.929-.72-3.117-.72-1.593 0-2.848.608-3.79 1.8-.92 1.193-1.39 2.79-1.39 4.838v11.475h-7.445V15.103h7.445v4.455h.067c1.188-3.263 3.319-4.905 6.368-4.905.808 0 1.391.067 1.862.27v6.862zM444 29.233h-15.742c.269 3.51 2.467 5.242 6.57 5.242 2.646 0 4.979-.607 6.974-1.867v5.377c-2.265 1.193-5.112 1.8-8.7 1.8-3.925 0-6.907-1.057-9.037-3.262-2.131-2.115-3.252-5.175-3.252-9.023 0-3.982 1.121-7.155 3.454-9.495 2.332-2.317 5.18-3.51 8.566-3.51 3.52 0 6.234 1.058 8.162 3.128 1.929 2.047 2.848 4.905 2.848 8.482v3.128H444zm-6.907-4.59c0-3.443-1.39-5.175-4.193-5.175-1.189 0-2.198.472-3.117 1.462-.875.99-1.39 2.183-1.592 3.713h8.902z" fill="#00D665"/><path d="M25.025 39.965V33.62l6.616-6.615v12.96m3.004 0V31.19l3.207 2.317 3.97-3.352v9.81m2.623 0h7.602V21.177l-7.602 6.706" fill="#0A1623"/><path d="M24.667 30.155l-1.548-1.8 8.566-8.212 6.145 5.827 10.853-9.855-1.816-2.16 7.646-1.755-1.502 7.38-2.175-1.552L37.83 30.56l-6.145-5.265-.627-.562s-5.674 5.827-6.055 5.625" fill="#00D665"/><path d="M46.979 51.553l-1.413-5.22c11.033-2.993 20.518-9.45 24.757-16.83 2.175-3.825 2.847-7.65 1.906-11.115-1.346-4.928-5.786-8.775-12.536-10.868-7.175-2.227-15.92-2.137-24.644.225l-1.435-5.22c9.71-2.632 19.532-2.677 27.672-.157 8.566 2.655 14.306 7.83 16.145 14.602 1.323 4.86.493 10.125-2.422 15.233-4.978 8.707-15.473 15.952-28.03 19.35z" fill="#00D665"/><path d="M29.712 54.5c-4.574 0-8.97-.608-12.939-1.845C8.207 50 2.467 44.803.628 38.053-.695 33.193.135 27.928 3.05 22.82c5-8.73 15.495-15.975 28.052-19.372l1.413 5.22c-11.032 2.992-20.518 9.45-24.756 16.83-2.175 3.825-2.848 7.65-1.906 11.092 1.345 4.927 5.785 8.775 12.535 10.867 7.176 2.228 15.921 2.138 24.644-.224l1.413 5.22c-4.956 1.372-9.956 2.047-14.733 2.047z" fill="#0A1623"/></g><defs><clipPath id="clip0_0_1164"><path fill="#fff" transform="translate(0 .5)" d="M0 0h444v54H0z"/></clipPath></defs></svg>