<svg width="194" height="56" fill="none" xmlns="http://www.w3.org/2000/svg"><g clip-path="url(#clip0_0_2082)"><path d="M72.37 39.512c-2.218 0-4.082-.493-5.595-1.479a7.906 7.906 0 01-3.198-4.029l3.773-2.191c.87 2.272 2.588 3.408 5.155 3.408 1.236 0 2.142-.222 2.717-.667a2.094 2.094 0 00-.192-3.511c-.704-.435-1.961-.905-3.771-1.41a23.517 23.517 0 01-2.551-.886 10.956 10.956 0 01-2.08-1.21 4.87 4.87 0 01-1.582-1.889 6.16 6.16 0 01-.543-2.67c0-2.015.72-3.62 2.158-4.815 1.439-1.195 3.17-1.794 5.194-1.795a8.684 8.684 0 014.78 1.317 8.88 8.88 0 013.21 3.673l-3.707 2.129c-.894-1.908-2.322-2.862-4.284-2.86-.915 0-1.634.206-2.155.618-.508.38-.8.98-.785 1.611a2.021 2.021 0 00.88 1.7c.585.436 1.709.906 3.371 1.41.684.213 1.201.377 1.552.494.351.117.831.296 1.437.54a8.82 8.82 0 011.418.683c.397.262.776.548 1.135.858.385.314.714.69.975 1.112.246.437.44.902.575 1.384a6.18 6.18 0 01.24 1.763c0 2.057-.752 3.689-2.254 4.895-1.502 1.206-3.457 1.81-5.866 1.813l-.008.004zm67.274-.315c-1.75 0-3.194-.583-4.332-1.748-1.139-1.166-1.709-2.778-1.71-4.835v-5.497h-2.782v-3.94h2.782v-3.212l4.123-1.238v4.45h1.919v3.94h-1.919v4.993c0 1.059.288 1.869.863 2.432.299.29.66.512 1.056.648v4.007zm36.972-14.727c-2.902.052-4.535 1.932-4.535 4.79v9.806h-1.621V29.26c0-3.815 2.379-6.305 6.154-6.305v1.515h.002zm8.923-1.644c-4.66 0-8.407 3.592-8.407 8.296 0 4.703 3.738 8.3 8.407 8.3 4.636 0 8.374-3.59 8.374-8.294 0-4.704-3.738-8.302-8.374-8.302zm0 15.064c-3.76 0-6.808-3.03-6.808-6.768 0-3.739 3.048-6.769 6.808-6.769 3.803 0 6.745 2.987 6.745 6.768 0 3.782-2.942 6.769-6.745 6.769zm-23.597-21.069h-7.607v22.245h1.694v-8.484h5.913c4.028 0 6.97-2.957 6.97-6.865 0-3.94-2.942-6.896-6.97-6.896zm0 12.171h-5.913V18.41h5.913c3.069 0 5.268 2.216 5.268 5.308.008 3.05-2.199 5.275-5.268 5.275zm-17.793-7.722a2.56 2.56 0 01-2.525-2.51 2.464 2.464 0 01.752-1.782 2.41 2.41 0 011.773-.761 2.447 2.447 0 011.807.761 2.46 2.46 0 01.752 1.781 2.41 2.41 0 01-.752 1.763 2.473 2.473 0 01-1.807.747zm-2.048 17.796v-15.89h4.123v15.89h-4.123zm-13.75-18.75c-2.25-.169-3.379.731-3.388 2.701v.16h3.388v3.94h-3.388v11.95h-4.123v-11.95h-2.302v-3.94h2.302v-.16c0-2.246.629-3.952 1.887-5.116 1.257-1.164 3.132-1.673 5.624-1.525v3.94zm-16.392 2.861h4.126v15.89h-4.126v-1.78c-1.001 1.478-2.588 2.217-4.761 2.217-1.748 0-3.192-.583-4.332-1.749-1.14-1.166-1.71-2.777-1.71-4.835v-9.743h4.123v9.248c0 1.06.288 1.87.863 2.431.575.562 1.343.842 2.302.842 1.066 0 1.918-.328 2.557-.985.639-.656.958-1.642.958-2.957v-8.58zm-19.901-.445c1.748 0 3.192.582 4.332 1.748 1.14 1.166 1.71 2.777 1.71 4.835v9.756h-4.119v-9.253c0-1.06-.288-1.87-.863-2.431-.576-.561-1.343-.842-2.302-.842-1.066 0-1.918.328-2.557.985s-.96 1.642-.965 2.955v8.581h-4.123V16.821h4.123v8.136c1.001-1.485 2.589-2.223 4.762-2.215l.002-.01z" fill="#222337"/><path d="M28.455 5.64c12.347 0 22.355 9.95 22.355 22.224 0 12.275-10.008 22.225-22.355 22.225v5.095c-15.176 0-27.48-12.231-27.48-27.32C.976 12.776 13.28.544 28.456.544V5.64zm10.261 12.027c-4.898-4.865-12.571-5.614-18.327-1.787-5.756 3.827-7.99 11.163-5.338 17.522 2.652 6.358 9.453 9.969 16.244 8.623 6.79-1.346 11.679-7.273 11.676-14.157a14.34 14.34 0 00-4.255-10.2z" fill="#EF5350"/></g><defs><clipPath id="clip0_0_2082"><path fill="#fff" transform="translate(.132 .545)" d="M0 0h193.406v54.91H0z"/></clipPath></defs></svg>