<svg width="317" height="91" fill="none" xmlns="http://www.w3.org/2000/svg"><g clip-path="url(#clip0_0_1200)"><path d="M118.391 64.368c-3.634 0-6.69-.807-9.17-2.423a12.96 12.96 0 01-5.24-6.604l6.183-3.592c1.426 3.724 4.243 5.587 8.449 5.587 2.026 0 3.51-.365 4.454-1.093a3.435 3.435 0 001.41-2.963 3.439 3.439 0 00-1.726-2.792c-1.153-.713-3.213-1.484-6.18-2.311a38.48 38.48 0 01-4.181-1.453 17.952 17.952 0 01-3.408-1.981 7.988 7.988 0 01-2.594-3.097 10.099 10.099 0 01-.89-4.378c0-3.302 1.179-5.932 3.537-7.891 2.358-1.96 5.196-2.94 8.512-2.942a14.23 14.23 0 017.834 2.16 14.544 14.544 0 015.264 6.018l-6.077 3.49c-1.466-3.128-3.806-4.69-7.021-4.688-1.501 0-2.679.338-3.533 1.014a3.207 3.207 0 00-1.286 2.64 3.315 3.315 0 001.442 2.787c.958.714 2.8 1.484 5.526 2.312 1.12.347 1.968.617 2.544.809.574.191 1.361.485 2.354.884a14.5 14.5 0 012.325 1.12c.65.429 1.271.898 1.86 1.406a7.282 7.282 0 011.597 1.823c.404.716.721 1.477.943 2.268.27.94.402 1.912.392 2.889 0 3.372-1.231 6.047-3.693 8.023-2.462 1.977-5.666 2.967-9.614 2.972l-.013.006zm110.272-.515c-2.867 0-5.234-.955-7.1-2.866-1.867-1.91-2.801-4.552-2.803-7.924v-9.01h-4.56v-6.459h4.56v-5.262l6.758-2.031v7.293h3.145v6.459h-3.145v8.184c0 1.735.472 3.063 1.415 3.986a4.66 4.66 0 001.73 1.063v6.567zm60.608-24.139c-4.755.086-7.432 3.167-7.432 7.852v16.072h-2.657V47.566c0-6.254 3.899-10.335 10.086-10.335v2.483h.003zm14.621-2.694c-7.638 0-13.779 5.887-13.779 13.596 0 7.71 6.127 13.607 13.779 13.607 7.598 0 13.726-5.887 13.726-13.597S311.49 37.02 303.892 37.02zm0 24.69c-6.163 0-11.159-4.967-11.159-11.094s4.996-11.093 11.159-11.093c6.234 0 11.056 4.896 11.056 11.093 0 6.198-4.822 11.094-11.056 11.094zm-38.679-34.532h-12.467v36.46h2.777V49.733h9.69c6.603 0 11.425-4.847 11.425-11.252 0-6.458-4.822-11.302-11.425-11.302zm0 19.949h-9.69V29.78h9.69c5.032 0 8.635 3.632 8.635 8.7.013 4.998-3.603 8.647-8.635 8.647zm-29.168-12.659c-2.27-.037-4.101-1.858-4.138-4.114a4.036 4.036 0 011.232-2.919 3.95 3.95 0 012.906-1.248 4.011 4.011 0 012.962 1.248 4.032 4.032 0 011.232 2.919 3.946 3.946 0 01-1.232 2.889 4.052 4.052 0 01-2.962 1.225zm-3.352 29.17V37.594h6.759v26.044h-6.759zm-22.534-30.732c-3.689-.277-5.54 1.199-5.553 4.428v.26h5.553v6.459h-5.553v19.585h-6.758V44.053h-3.773v-6.459h3.773v-.26c0-3.683 1.03-6.478 3.092-8.387 2.061-1.908 5.134-2.741 9.219-2.5v6.459zm-26.876 4.688h6.761v26.044h-6.761v-2.915c-1.641 2.42-4.242 3.632-7.805 3.632-2.865 0-5.231-.956-7.1-2.866-1.869-1.911-2.803-4.552-2.803-7.924v-15.97h6.758v15.157c0 1.737.472 3.065 1.415 3.985.943.92 2.201 1.38 3.773 1.38 1.747 0 3.144-.538 4.191-1.614 1.047-1.076 1.571-2.692 1.571-4.847V37.594zm-32.619-.729c2.865 0 5.232.955 7.101 2.866 1.868 1.91 2.802 4.552 2.802 7.924v15.99h-6.751V48.48c0-1.736-.472-3.065-1.415-3.985-.943-.92-2.201-1.38-3.773-1.38-1.746 0-3.144.538-4.191 1.615-1.047 1.076-1.574 2.69-1.581 4.843V63.64h-6.758V27.178h6.758v13.335c1.641-2.434 4.243-3.645 7.805-3.631l.003-.017z" fill="#222337"/><path d="M46.423 8.85c20.236 0 36.64 16.31 36.64 36.428S66.66 81.705 46.424 81.705v8.35c-24.875 0-45.04-20.047-45.04-44.777S21.548.5 46.423.5v8.35zM63.24 28.564c-8.028-7.975-20.604-9.201-30.038-2.929-9.434 6.272-13.097 18.296-8.75 28.718 4.347 10.423 15.495 16.34 26.625 14.135 11.13-2.206 19.142-11.92 19.138-23.204a23.502 23.502 0 00-6.975-16.72z" fill="#EF5350"/></g><defs><clipPath id="clip0_0_1200"><path fill="#fff" transform="translate(0 .5)" d="M0 0h317v90H0z"/></clipPath></defs></svg>