<svg width="251" height="250" fill="none" xmlns="http://www.w3.org/2000/svg"><g clip-path="url(#clip0_1944_3249)"><path d="M62.25 152.866C36.548 94.549 45.52 34.176 82.342 18.008c36.822-16.168 87.475 18.037 113.176 76.354 25.701 58.317 16.729 118.691-20.093 134.859-36.822 16.168-87.476-18.037-113.177-76.355z" fill="#3B2E56" stroke="#262626" stroke-width=".5" stroke-miterlimit="10"/><path d="M55.143 155.67C29.443 97.353 38.602 36.886 75.517 20.718c36.915-16.261 87.756 17.944 113.457 76.261 25.7 58.317 16.635 118.784-20.374 135.046-36.915 16.074-87.756-18.038-113.457-76.355z" fill="#E84142" stroke="#262626" stroke-width=".5" stroke-miterlimit="10"/><path d="M119.933 162.856c-17.276-9.862-31.242-35.148-31.242-54.74.066-19.593 15.158-27.007 32.434-17.21 17.276 9.796 31.308 33.758 31.308 53.35 0 19.593-14.562 29.191-31.904 19.328l-.596-.728zm1.258-77.51c-20.056-11.385-36.34-2.25-36.406 20.453-.066 22.638 16.151 50.372 36.207 61.757 19.99 11.385 36.34 2.25 36.406-20.453.066-22.638-16.151-50.372-36.207-61.757z" fill="#D0D2D3" stroke="#262626" stroke-width=".5" stroke-miterlimit="10"/><path d="M119.801 162.194c-16.747-9.664-30.316-33.162-30.25-52.424.066-19.261 13.702-27.006 30.448-17.342 16.747 9.664 30.316 33.162 30.25 52.424 0 19.196-13.702 27.006-30.448 17.342zm.265-75.26c-19.395-11.186-35.214-2.184-35.28 20.056-.067 22.241 15.621 49.445 35.015 60.632 19.394 11.186 35.148 2.184 35.214-20.056.066-22.241-15.621-49.445-34.949-60.632z" fill="#fff" stroke="#262626" stroke-width=".5" stroke-miterlimit="10"/><mask id="a" maskUnits="userSpaceOnUse" x="45.418" y="-3.939" width="150.329" height="260.377" fill="#000"><path fill="#fff" d="M45.418-3.939h150.329v260.377H45.418z"/><path d="M102.096 177l-5.508 12.748 5.022 5.56-1.027 2.377-12.86-14.236 1.028-2.377 5.022 5.56 5.509-12.748 2.814 3.116zm-15.268-20.99c.956 1.621 1.694 3.228 2.214 4.821.52 1.593.824 3.098.913 4.513.078 1.424-.063 2.689-.421 3.795-.37 1.113-.965 2.002-1.787 2.664-.823.662-1.74.993-2.751.991-1.022.007-2.084-.289-3.184-.89-1.111-.592-2.211-1.455-3.3-2.59-1.09-1.134-2.106-2.502-3.05-4.103-.957-1.621-1.689-3.218-2.197-4.791-.52-1.593-.82-3.102-.897-4.526-.089-1.415.051-2.68.42-3.794.36-1.105.95-1.989 1.772-2.652.822-.662 1.744-.997 2.766-1.004 1.023-.007 2.084.29 3.185.89 1.1.601 2.195 1.468 3.284 2.603 1.078 1.115 2.088 2.472 3.033 4.073zm-1.785 1.482c-.618-1.047-1.284-1.939-1.999-2.676-.714-.737-1.438-1.291-2.17-1.663-.743-.364-1.452-.536-2.125-.519-.696.007-1.329.24-1.898.698-.57.459-.975 1.063-1.217 1.812-.265.738-.378 1.573-.341 2.505.026.941.206 1.933.541 2.975a15.534 15.534 0 001.43 3.135c.618 1.048 1.284 1.94 1.998 2.676.703.717 1.432 1.267 2.187 1.65.732.373 1.446.555 2.142.549.674-.018 1.295-.256 1.865-.715.558-.45.97-1.044 1.234-1.782.253-.758.366-1.607.34-2.548-.037-.932-.223-1.92-.558-2.962a15.554 15.554 0 00-1.43-3.135zm-13.241-25.678l-3.266.121-11.682-12.101-1.368-4.71 9.868 10.061 2.384 2.377 4.064 4.252zm4.657 3.856l-15.144-.48-1.218-4.194 15.144.48 1.218 4.194zm-4.573-15.744l-4.39 8.428-2.861-2.84 5.827-10.492 1.424 4.904zM60.01 98.478l-.168-10.3 2.523 1.374.168 10.3-2.522-1.374zm7.067 3.558l-.19-11.692 2.569 1.4.254 15.541-16.5-8.993-.248-15.126 2.57 1.4.184 11.278 11.361 6.192zm3.448-18.15L55.22 67.477l.943-2.373 15.656 2.9-.467 1.176-11.786-12.635 1.137-2.86 15.306 16.409-.943 2.372-15.656-2.9.468-1.175 11.786 12.635-1.138 2.86zM86.734 58.1l-8.7-18.466-4.267 1.82-1.622-3.443 10.928-4.661 1.622 3.443-4.268 1.82 8.698 18.467-2.391 1.02zm19.163-1.564c-1.239-.264-2.438-.794-3.597-1.59-1.16-.797-2.229-1.788-3.208-2.974a20.008 20.008 0 01-2.532-4.019 20.568 20.568 0 01-1.571-4.729c-.339-1.66-.437-3.135-.296-4.427.136-1.314.486-2.399 1.048-3.255.558-.878 1.3-1.493 2.225-1.845.925-.352 2-.398 3.223-.137 1.239.264 2.431.793 3.575 1.586 1.159.797 2.231 1.798 3.214 3.005a19.202 19.202 0 012.532 4.019 20.15 20.15 0 011.565 4.697c.338 1.66.439 3.146.302 4.46-.136 1.313-.486 2.398-1.048 3.255-.562.856-1.306 1.46-2.231 1.813-.91.355-1.977.402-3.201.141zm-.764-3.642c.8.171 1.501.137 2.103-.1.602-.238 1.08-.655 1.436-1.25.351-.617.567-1.365.648-2.243.092-.896.021-1.918-.214-3.067a13.774 13.774 0 00-1.068-3.218 13.375 13.375 0 00-1.663-2.735c-.646-.83-1.348-1.508-2.106-2.036-.758-.528-1.537-.877-2.338-1.048-.801-.17-1.502-.137-2.104.1-.586.242-1.063.67-1.429 1.283-.355.596-.579 1.341-.67 2.237-.082.878-.005 1.891.23 3.04a14.69 14.69 0 001.045 3.214 14.802 14.802 0 001.692 2.771 9.972 9.972 0 002.1 2.004c.758.528 1.537.878 2.338 1.048zm19.363 6.625l.37-4.287 9.878-3.838 3.405 2.571-8.235 3.389-1.953.868-3.465 1.297zm-3.277 2.418l2.424-18.927 3.032 2.29-2.424 18.927-3.032-2.29zm11.381 8.595l-5.146-13.345 2.335-1.054 6.356 17.076-3.545-2.677zm16.284 4.488l7.056 9.234-1.288 1.965-7.056-9.235 1.288-1.964zm-3.407 5.773l8.009 10.482-1.312 2.001-10.644-13.931 8.422-12.852 10.361 13.56-1.312 2.001-7.725-10.11-5.799 8.85zm11.914 21.06l13.321-4.522 1.489 3.383-4.147 17.361-.738-1.676 10.257-3.481 1.796 4.078-13.321 4.522-1.489-3.383 4.147-17.361.737 1.676-10.257 3.481-1.795-4.078zm13.842 44.248l13.827 5.997-.598-7.105 2.578 1.118 1.53 18.192-2.578-1.118-.598-7.105-13.826-5.997-.335-3.982zm-1.8 25.797c.364-1.33.903-2.364 1.617-3.102.713-.738 1.545-1.182 2.495-1.331.966-.136 2 .029 3.105.493 1.119.478 2.267 1.268 3.443 2.37a18.402 18.402 0 013.047 3.711 19.814 19.814 0 012.052 4.339c.513 1.519.819 3.03.92 4.53.1 1.501-.029 2.909-.389 4.223-.364 1.33-.901 2.356-1.61 3.078-.713.738-1.553 1.175-2.518 1.31-.95.149-1.985-.015-3.105-.493-1.104-.464-2.244-1.247-3.42-2.349a18.735 18.735 0 01-3.07-3.733 19.828 19.828 0 01-2.052-4.338 18.262 18.262 0 01-.897-4.51c-.105-1.484.022-2.884.382-4.198zm2.585 2.391c-.236.86-.317 1.782-.246 2.767.072.984.283 1.977.634 2.979.366 1.015.841 1.98 1.424 2.894a12.91 12.91 0 002.113 2.56c.814.763 1.595 1.301 2.342 1.614.759.344 1.46.481 2.104.412a2.63 2.63 0 001.696-.796c.471-.476.824-1.144 1.06-2.004.235-.86.317-1.782.246-2.766a11.872 11.872 0 00-.657-3 14.43 14.43 0 00-1.417-2.919 13.15 13.15 0 00-2.097-2.514c-.799-.749-1.578-1.295-2.336-1.639-.763-.327-1.474-.464-2.133-.408a2.699 2.699 0 00-1.673.817c-.471.476-.825 1.144-1.06 2.003zm-7.384 18.491l2.853 4.428 1.129 16.097-2.253 1.953-1.069-13.594-.297-3.283-.363-5.601zm-1.151-6.397l12.478 20.556-2.006 1.739-12.478-20.557 2.006-1.738zm-7.53 6.526l9.822 5.784.366 3.94-12.534-7.691 2.346-2.033zm-5.478 16.55l-7.318.439-1.14-3.45 7.318-.439 1.14 3.45zm-3.408-9.661l-8.306.499-1.162-3.514 11.04-.663 7.462 22.57-10.747.646-1.161-3.515 8.012-.481-5.138-15.542zm-16.064-4.306l1.078 21.104-2.517-1.231-11.159-21.301 1.247.61.831 16.25-3.035-1.485-1.079-21.103 2.518 1.231 11.158 21.301-1.247-.61-.83-16.25 3.035 1.484z"/></mask><path d="M102.096 177l-5.508 12.748 5.022 5.56-1.027 2.377-12.86-14.236 1.028-2.377 5.022 5.56 5.509-12.748 2.814 3.116zm-15.268-20.99c.956 1.621 1.694 3.228 2.214 4.821.52 1.593.824 3.098.913 4.513.078 1.424-.063 2.689-.421 3.795-.37 1.113-.965 2.002-1.787 2.664-.823.662-1.74.993-2.751.991-1.022.007-2.084-.289-3.184-.89-1.111-.592-2.211-1.455-3.3-2.59-1.09-1.134-2.106-2.502-3.05-4.103-.957-1.621-1.689-3.218-2.197-4.791-.52-1.593-.82-3.102-.897-4.526-.089-1.415.051-2.68.42-3.794.36-1.105.95-1.989 1.772-2.652.822-.662 1.744-.997 2.766-1.004 1.023-.007 2.084.29 3.185.89 1.1.601 2.195 1.468 3.284 2.603 1.078 1.115 2.088 2.472 3.033 4.073zm-1.785 1.482c-.618-1.047-1.284-1.939-1.999-2.676-.714-.737-1.438-1.291-2.17-1.663-.743-.364-1.452-.536-2.125-.519-.696.007-1.329.24-1.898.698-.57.459-.975 1.063-1.217 1.812-.265.738-.378 1.573-.341 2.505.026.941.206 1.933.541 2.975a15.534 15.534 0 001.43 3.135c.618 1.048 1.284 1.94 1.998 2.676.703.717 1.432 1.267 2.187 1.65.732.373 1.446.555 2.142.549.674-.018 1.295-.256 1.865-.715.558-.45.97-1.044 1.234-1.782.253-.758.366-1.607.34-2.548-.037-.932-.223-1.92-.558-2.962a15.554 15.554 0 00-1.43-3.135zm-13.241-25.678l-3.266.121-11.682-12.101-1.368-4.71 9.868 10.061 2.384 2.377 4.064 4.252zm4.657 3.856l-15.144-.48-1.218-4.194 15.144.48 1.218 4.194zm-4.573-15.744l-4.39 8.428-2.861-2.84 5.827-10.492 1.424 4.904zM60.01 98.478l-.168-10.3 2.523 1.374.168 10.3-2.522-1.374zm7.067 3.558l-.19-11.692 2.569 1.4.254 15.541-16.5-8.993-.248-15.126 2.57 1.4.184 11.278 11.361 6.192zm3.448-18.15L55.22 67.477l.943-2.373 15.656 2.9-.467 1.176-11.786-12.635 1.137-2.86 15.306 16.409-.943 2.372-15.656-2.9.468-1.175 11.786 12.635-1.138 2.86zM86.734 58.1l-8.7-18.466-4.267 1.82-1.622-3.443 10.928-4.661 1.622 3.443-4.268 1.82 8.698 18.467-2.391 1.02zm19.163-1.564c-1.239-.264-2.438-.794-3.597-1.59-1.16-.797-2.229-1.788-3.208-2.974a20.008 20.008 0 01-2.532-4.019 20.568 20.568 0 01-1.571-4.729c-.339-1.66-.437-3.135-.296-4.427.136-1.314.486-2.399 1.048-3.255.558-.878 1.3-1.493 2.225-1.845.925-.352 2-.398 3.223-.137 1.239.264 2.431.793 3.575 1.586 1.159.797 2.231 1.798 3.214 3.005a19.202 19.202 0 012.532 4.019 20.15 20.15 0 011.565 4.697c.338 1.66.439 3.146.302 4.46-.136 1.313-.486 2.398-1.048 3.255-.562.856-1.306 1.46-2.231 1.813-.91.355-1.977.402-3.201.141zm-.764-3.642c.8.171 1.501.137 2.103-.1.602-.238 1.08-.655 1.436-1.25.351-.617.567-1.365.648-2.243.092-.896.021-1.918-.214-3.067a13.774 13.774 0 00-1.068-3.218 13.375 13.375 0 00-1.663-2.735c-.646-.83-1.348-1.508-2.106-2.036-.758-.528-1.537-.877-2.338-1.048-.801-.17-1.502-.137-2.104.1-.586.242-1.063.67-1.429 1.283-.355.596-.579 1.341-.67 2.237-.082.878-.005 1.891.23 3.04a14.69 14.69 0 001.045 3.214 14.802 14.802 0 001.692 2.771 9.972 9.972 0 002.1 2.004c.758.528 1.537.878 2.338 1.048zm19.363 6.625l.37-4.287 9.878-3.838 3.405 2.571-8.235 3.389-1.953.868-3.465 1.297zm-3.277 2.418l2.424-18.927 3.032 2.29-2.424 18.927-3.032-2.29zm11.381 8.595l-5.146-13.345 2.335-1.054 6.356 17.076-3.545-2.677zm16.284 4.488l7.056 9.234-1.288 1.965-7.056-9.235 1.288-1.964zm-3.407 5.773l8.009 10.482-1.312 2.001-10.644-13.931 8.422-12.852 10.361 13.56-1.312 2.001-7.725-10.11-5.799 8.85zm11.914 21.06l13.321-4.522 1.489 3.383-4.147 17.361-.738-1.676 10.257-3.481 1.796 4.078-13.321 4.522-1.489-3.383 4.147-17.361.737 1.676-10.257 3.481-1.795-4.078zm13.842 44.248l13.827 5.997-.598-7.105 2.578 1.118 1.53 18.192-2.578-1.118-.598-7.105-13.826-5.997-.335-3.982zm-1.8 25.797c.364-1.33.903-2.364 1.617-3.102.713-.738 1.545-1.182 2.495-1.331.966-.136 2 .029 3.105.493 1.119.478 2.267 1.268 3.443 2.37a18.402 18.402 0 013.047 3.711 19.814 19.814 0 012.052 4.339c.513 1.519.819 3.03.92 4.53.1 1.501-.029 2.909-.389 4.223-.364 1.33-.901 2.356-1.61 3.078-.713.738-1.553 1.175-2.518 1.31-.95.149-1.985-.015-3.105-.493-1.104-.464-2.244-1.247-3.42-2.349a18.735 18.735 0 01-3.07-3.733 19.828 19.828 0 01-2.052-4.338 18.262 18.262 0 01-.897-4.51c-.105-1.484.022-2.884.382-4.198zm2.585 2.391c-.236.86-.317 1.782-.246 2.767.072.984.283 1.977.634 2.979.366 1.015.841 1.98 1.424 2.894a12.91 12.91 0 002.113 2.56c.814.763 1.595 1.301 2.342 1.614.759.344 1.46.481 2.104.412a2.63 2.63 0 001.696-.796c.471-.476.824-1.144 1.06-2.004.235-.86.317-1.782.246-2.766a11.872 11.872 0 00-.657-3 14.43 14.43 0 00-1.417-2.919 13.15 13.15 0 00-2.097-2.514c-.799-.749-1.578-1.295-2.336-1.639-.763-.327-1.474-.464-2.133-.408a2.699 2.699 0 00-1.673.817c-.471.476-.825 1.144-1.06 2.003zm-7.384 18.491l2.853 4.428 1.129 16.097-2.253 1.953-1.069-13.594-.297-3.283-.363-5.601zm-1.151-6.397l12.478 20.556-2.006 1.739-12.478-20.557 2.006-1.738zm-7.53 6.526l9.822 5.784.366 3.94-12.534-7.691 2.346-2.033zm-5.478 16.55l-7.318.439-1.14-3.45 7.318-.439 1.14 3.45zm-3.408-9.661l-8.306.499-1.162-3.514 11.04-.663 7.462 22.57-10.747.646-1.161-3.515 8.012-.481-5.138-15.542zm-16.064-4.306l1.078 21.104-2.517-1.231-11.159-21.301 1.247.61.831 16.25-3.035-1.485-1.079-21.103 2.518 1.231 11.158 21.301-1.247-.61-.83-16.25 3.035 1.484z" fill="#fff"/><path d="M102.096 177l-5.508 12.748 5.022 5.56-1.027 2.377-12.86-14.236 1.028-2.377 5.022 5.56 5.509-12.748 2.814 3.116zm-15.268-20.99c.956 1.621 1.694 3.228 2.214 4.821.52 1.593.824 3.098.913 4.513.078 1.424-.063 2.689-.421 3.795-.37 1.113-.965 2.002-1.787 2.664-.823.662-1.74.993-2.751.991-1.022.007-2.084-.289-3.184-.89-1.111-.592-2.211-1.455-3.3-2.59-1.09-1.134-2.106-2.502-3.05-4.103-.957-1.621-1.689-3.218-2.197-4.791-.52-1.593-.82-3.102-.897-4.526-.089-1.415.051-2.68.42-3.794.36-1.105.95-1.989 1.772-2.652.822-.662 1.744-.997 2.766-1.004 1.023-.007 2.084.29 3.185.89 1.1.601 2.195 1.468 3.284 2.603 1.078 1.115 2.088 2.472 3.033 4.073zm-1.785 1.482c-.618-1.047-1.284-1.939-1.999-2.676-.714-.737-1.438-1.291-2.17-1.663-.743-.364-1.452-.536-2.125-.519-.696.007-1.329.24-1.898.698-.57.459-.975 1.063-1.217 1.812-.265.738-.378 1.573-.341 2.505.026.941.206 1.933.541 2.975a15.534 15.534 0 001.43 3.135c.618 1.048 1.284 1.94 1.998 2.676.703.717 1.432 1.267 2.187 1.65.732.373 1.446.555 2.142.549.674-.018 1.295-.256 1.865-.715.558-.45.97-1.044 1.234-1.782.253-.758.366-1.607.34-2.548-.037-.932-.223-1.92-.558-2.962a15.554 15.554 0 00-1.43-3.135zm-13.241-25.678l-3.266.121-11.682-12.101-1.368-4.71 9.868 10.061 2.384 2.377 4.064 4.252zm4.657 3.856l-15.144-.48-1.218-4.194 15.144.48 1.218 4.194zm-4.573-15.744l-4.39 8.428-2.861-2.84 5.827-10.492 1.424 4.904zM60.01 98.478l-.168-10.3 2.523 1.374.168 10.3-2.522-1.374zm7.067 3.558l-.19-11.692 2.569 1.4.254 15.541-16.5-8.993-.248-15.126 2.57 1.4.184 11.278 11.361 6.192zm3.448-18.15L55.22 67.477l.943-2.373 15.656 2.9-.467 1.176-11.786-12.635 1.137-2.86 15.306 16.409-.943 2.372-15.656-2.9.468-1.175 11.786 12.635-1.138 2.86zM86.734 58.1l-8.7-18.466-4.267 1.82-1.622-3.443 10.928-4.661 1.622 3.443-4.268 1.82 8.698 18.467-2.391 1.02zm19.163-1.564c-1.239-.264-2.438-.794-3.597-1.59-1.16-.797-2.229-1.788-3.208-2.974a20.008 20.008 0 01-2.532-4.019 20.568 20.568 0 01-1.571-4.729c-.339-1.66-.437-3.135-.296-4.427.136-1.314.486-2.399 1.048-3.255.558-.878 1.3-1.493 2.225-1.845.925-.352 2-.398 3.223-.137 1.239.264 2.431.793 3.575 1.586 1.159.797 2.231 1.798 3.214 3.005a19.202 19.202 0 012.532 4.019 20.15 20.15 0 011.565 4.697c.338 1.66.439 3.146.302 4.46-.136 1.313-.486 2.398-1.048 3.255-.562.856-1.306 1.46-2.231 1.813-.91.355-1.977.402-3.201.141zm-.764-3.642c.8.171 1.501.137 2.103-.1.602-.238 1.08-.655 1.436-1.25.351-.617.567-1.365.648-2.243.092-.896.021-1.918-.214-3.067a13.774 13.774 0 00-1.068-3.218 13.375 13.375 0 00-1.663-2.735c-.646-.83-1.348-1.508-2.106-2.036-.758-.528-1.537-.877-2.338-1.048-.801-.17-1.502-.137-2.104.1-.586.242-1.063.67-1.429 1.283-.355.596-.579 1.341-.67 2.237-.082.878-.005 1.891.23 3.04a14.69 14.69 0 001.045 3.214 14.802 14.802 0 001.692 2.771 9.972 9.972 0 002.1 2.004c.758.528 1.537.878 2.338 1.048zm19.363 6.625l.37-4.287 9.878-3.838 3.405 2.571-8.235 3.389-1.953.868-3.465 1.297zm-3.277 2.418l2.424-18.927 3.032 2.29-2.424 18.927-3.032-2.29zm11.381 8.595l-5.146-13.345 2.335-1.054 6.356 17.076-3.545-2.677zm16.284 4.488l7.056 9.234-1.288 1.965-7.056-9.235 1.288-1.964zm-3.407 5.773l8.009 10.482-1.312 2.001-10.644-13.931 8.422-12.852 10.361 13.56-1.312 2.001-7.725-10.11-5.799 8.85zm11.914 21.06l13.321-4.522 1.489 3.383-4.147 17.361-.738-1.676 10.257-3.481 1.796 4.078-13.321 4.522-1.489-3.383 4.147-17.361.737 1.676-10.257 3.481-1.795-4.078zm13.842 44.248l13.827 5.997-.598-7.105 2.578 1.118 1.53 18.192-2.578-1.118-.598-7.105-13.826-5.997-.335-3.982zm-1.8 25.797c.364-1.33.903-2.364 1.617-3.102.713-.738 1.545-1.182 2.495-1.331.966-.136 2 .029 3.105.493 1.119.478 2.267 1.268 3.443 2.37a18.402 18.402 0 013.047 3.711 19.814 19.814 0 012.052 4.339c.513 1.519.819 3.03.92 4.53.1 1.501-.029 2.909-.389 4.223-.364 1.33-.901 2.356-1.61 3.078-.713.738-1.553 1.175-2.518 1.31-.95.149-1.985-.015-3.105-.493-1.104-.464-2.244-1.247-3.42-2.349a18.735 18.735 0 01-3.07-3.733 19.828 19.828 0 01-2.052-4.338 18.262 18.262 0 01-.897-4.51c-.105-1.484.022-2.884.382-4.198zm2.585 2.391c-.236.86-.317 1.782-.246 2.767.072.984.283 1.977.634 2.979.366 1.015.841 1.98 1.424 2.894a12.91 12.91 0 002.113 2.56c.814.763 1.595 1.301 2.342 1.614.759.344 1.46.481 2.104.412a2.63 2.63 0 001.696-.796c.471-.476.824-1.144 1.06-2.004.235-.86.317-1.782.246-2.766a11.872 11.872 0 00-.657-3 14.43 14.43 0 00-1.417-2.919 13.15 13.15 0 00-2.097-2.514c-.799-.749-1.578-1.295-2.336-1.639-.763-.327-1.474-.464-2.133-.408a2.699 2.699 0 00-1.673.817c-.471.476-.825 1.144-1.06 2.003zm-7.384 18.491l2.853 4.428 1.129 16.097-2.253 1.953-1.069-13.594-.297-3.283-.363-5.601zm-1.151-6.397l12.478 20.556-2.006 1.739-12.478-20.557 2.006-1.738zm-7.53 6.526l9.822 5.784.366 3.94-12.534-7.691 2.346-2.033zm-5.478 16.55l-7.318.439-1.14-3.45 7.318-.439 1.14 3.45zm-3.408-9.661l-8.306.499-1.162-3.514 11.04-.663 7.462 22.57-10.747.646-1.161-3.515 8.012-.481-5.138-15.542zm-16.064-4.306l1.078 21.104-2.517-1.231-11.159-21.301 1.247.61.831 16.25-3.035-1.485-1.079-21.103 2.518 1.231 11.158 21.301-1.247-.61-.83-16.25 3.035 1.484z" stroke="#000" stroke-width="2" mask="url(#a)"/></g><defs><clipPath id="clip0_1944_3249"><path fill="#fff" transform="translate(.555)" d="M0 0h250v250H0z"/></clipPath></defs></svg>