<svg version="1.1" id="Layer_1" xmlns="http://www.w3.org/2000/svg" xmlns:xlink="http://www.w3.org/1999/xlink" x="0" y="0" viewBox="0 0 735 1157" xml:space="preserve"><style>.st1{fill:#fff}.st2,.st5{fill:none;stroke:#4d4d4d;stroke-width:2.37;stroke-miterlimit:10}.st5{stroke-width:2.09}.st9{fill:#e06ae9}.st12{fill:#e3e4e9}.st13{fill:#4d4d4d}.st14{fill:#b3b3b3}.st18{fill:#518282}.st19{fill:#749b9b}.st20{fill:#ffca00}.st21{opacity:.3;fill:#fff;enable-background:new}.st24{fill:#feda44}.st25{fill:#eebf00}.st28{fill:#1d1d1f}.st29{fill:#2e2e30}.st30{fill:#3e3d43}.st31{fill:#e0e0e2}.st32{fill:#77767e}.st34{fill:#57565c}.st38{fill:#009eff}.st43{fill:#ff3400}.st45{fill:#ff6936}.st46{fill:#00baff}.st47{fill:#604ee8}.st49{fill:#408e0d}.st50{fill:#bbd4da}.st51{fill:#e5eff2}.st52{fill:#d6e5e9}.st61{fill:#ff9134}</style><defs><path id="SVGID_1_" d="M.7.1l702.7 369.2 31.4 787.1L32.1 787.2z"/></defs><clipPath id="SVGID_00000028283446161628492730000005784215160199309719_"><use xlink:href="#SVGID_1_" overflow="visible"/></clipPath><g clip-path="url(#SVGID_00000028283446161628492730000005784215160199309719_)"><path class="st1" d="M703.4 369.3L.7.1l31.4 787.2 702.7 369.2-31.4-787.2z"/><path class="st2" d="M632.9 721.3c6.5 164.4-107.1 235.1-253.8 158"/><path d="M318.6 267.5c12.1 4.5 24.4 10 36.8 16.5 146.7 77.1 270.9 272.8 277.5 437.1" fill="none" stroke="#4d4d4d" stroke-width="1.39" stroke-linecap="round" stroke-miterlimit="10"/><path class="st2" d="M101.6 442.1c-6-150.4 88.6-222.4 217-174.6"/><path d="M379.1 879.3c-146.7-77.1-270.9-272.8-277.5-437.1" fill="none" stroke="#262626" stroke-width=".7" stroke-miterlimit="10"/><path class="st1" d="M482.1 963.5c26.4 13.9 46.8 1.1 45.6-28.4-1.2-29.5-23.5-64.7-49.9-78.6-26.4-13.9-46.8-1.1-45.6 28.4 1.2 29.6 23.5 64.8 49.9 78.6z"/><path class="st5" d="M482.1 963.5c26.4 13.9 46.8 1.1 45.6-28.4-1.2-29.5-23.5-64.7-49.9-78.6-26.4-13.9-46.8-1.1-45.6 28.4 1.2 29.6 23.5 64.8 49.9 78.6z"/><path class="st1" d="M278.9 856.8c26.4 13.9 46.8 1.1 45.6-28.4-1.2-29.5-23.5-64.7-49.9-78.6-26.4-13.9-46.8-1.1-45.6 28.4 1.2 29.5 23.5 64.7 49.9 78.6z"/><path class="st5" d="M278.9 856.8c26.4 13.9 46.8 1.1 45.6-28.4-1.2-29.5-23.5-64.7-49.9-78.6-26.4-13.9-46.8-1.1-45.6 28.4 1.2 29.5 23.5 64.7 49.9 78.6z"/><path class="st1" d="M128.6 620.5c26.4 13.9 46.8 1.1 45.6-28.4-1.2-29.5-23.5-64.7-49.9-78.6-26.4-13.9-46.8-1.1-45.6 28.4s23.5 64.7 49.9 78.6z"/><path class="st5" d="M128.6 620.5c26.4 13.9 46.8 1.1 45.6-28.4-1.2-29.5-23.5-64.7-49.9-78.6-26.4-13.9-46.8-1.1-45.6 28.4s23.5 64.7 49.9 78.6z"/><path class="st1" d="M119.3 392.5c26.4 13.9 46.8 1.1 45.6-28.4-1.2-29.5-23.5-64.7-49.9-78.6-26.4-13.9-46.8-1.1-45.6 28.4 1.2 29.5 23.5 64.7 49.9 78.6z"/><path class="st5" d="M119.3 392.5c26.4 13.9 46.8 1.1 45.6-28.4-1.2-29.5-23.5-64.7-49.9-78.6-26.4-13.9-46.8-1.1-45.6 28.4 1.2 29.5 23.5 64.7 49.9 78.6z"/><path class="st1" d="M493.4 415.8c17.8-11.1 16.5-45-3-75.7s-49.7-46.6-67.5-35.5c-17.8 11.1-16.5 45 3 75.7 19.4 30.7 49.7 46.5 67.5 35.5z"/><path class="st5" d="M493.4 415.8c17.8-11.1 16.5-45-3-75.7s-49.7-46.6-67.5-35.5c-17.8 11.1-16.5 45 3 75.7 19.4 30.7 49.7 46.5 67.5 35.5z"/><path class="st1" d="M655.4 627.7c3.1-27-15.8-63.9-42.1-82.3s-50.1-11.5-53.1 15.5c-3.1 27 15.8 63.9 42.1 82.3 26.3 18.5 50.1 11.5 53.1-15.5z"/><path d="M655.4 627.7c3.1-27-15.8-63.9-42.1-82.3s-50.1-11.5-53.1 15.5c-3.1 27 15.8 63.9 42.1 82.3 26.3 18.5 50.1 11.5 53.1-15.5z" fill="none" stroke="#4d4d4d" stroke-width="2.096" stroke-miterlimit="10"/><path class="st1" d="M664.3 861.4c4.8-25.6-12.3-62.8-38.3-83-26-20.2-50.9-15.8-55.7 9.9-4.8 25.6 12.3 62.8 38.3 83 25.9 20.1 50.9 15.7 55.7-9.9z"/><path class="st5" d="M664.3 861.4c4.8-25.6-12.3-62.8-38.3-83-26-20.2-50.9-15.8-55.7 9.9-4.8 25.6 12.3 62.8 38.3 83 25.9 20.1 50.9 15.7 55.7-9.9z"/><path class="st1" d="M289.8 308.7c17.8-11.1 16.5-45-3-75.7-19.5-30.7-49.7-46.6-67.5-35.5-17.8 11.1-16.5 45 3 75.7s49.7 46.6 67.5 35.5z"/><path class="st5" d="M289.8 308.7c17.8-11.1 16.5-45-3-75.7-19.5-30.7-49.7-46.6-67.5-35.5-17.8 11.1-16.5 45 3 75.7s49.7 46.6 67.5 35.5z"/><path d="M523.8 580.7l6.8 170c.2 5.6-.9 10.4-3.2 14-2.3 3.5-5.7 5.7-10 6.2l-128.1 16c-4.2.5-9.1-.6-14.1-3.2s-10-6.7-14.4-11.7l-60-68.5-74.9-85.6c-4.4-5.1-8.2-11-10.9-17.1-2.7-6.2-4.2-12.3-4.4-17.9l-6.8-170c-.2-5.6.9-10.4 3.2-13.9 2.3-3.5 5.7-5.7 9.9-6.2l128.1-16c4.2-.5 9.1.6 14.1 3.2s10 6.7 14.4 11.7l107.1 122.4 27.7 31.7c4.4 5 8.2 10.9 10.9 17.1 2.8 6 4.3 12.2 4.6 17.8z" fill="#fe90c7"/><path d="M480.7 513.9L300.9 703.3 226 617.7c-4.4-5.1-8.2-11-10.9-17.1-2.7-6.2-4.2-12.3-4.4-17.9l-1.4-35 155.8-164.1c3 2.2 5.8 4.9 8.5 7.9l107.1 122.4z" fill="#fe6bb4"/><path class="st9" d="M513 741l-6.4-161.7c-.1-3-.9-6.3-2.4-9.6s-3.4-6.5-5.8-9.2L370.1 414c-2.4-2.7-5-4.9-7.7-6.3-2.7-1.4-5.3-2-7.5-1.7l-121.8 15.2c-2.3.3-4.1 1.4-5.3 3.3-1.2 1.9-1.8 4.5-1.7 7.5l6.4 161.7c.1 3 .9 6.3 2.4 9.6 1.4 3.3 3.4 6.5 5.8 9.2L369 759c2.4 2.7 5 4.9 7.7 6.3 2.7 1.4 5.3 2 7.5 1.7L506 751.8c2.3-.3 4.1-1.4 5.3-3.3 1.3-1.9 1.8-4.5 1.7-7.5z"/><path d="M504.6 574.9l6.4 161.7c.1 3-.5 5.6-1.7 7.5-1.2 1.9-3.1 3-5.3 3.3l-121.8 15.2c-2.3.3-4.9-.3-7.5-1.7-2.7-1.4-5.3-3.6-7.7-6.3l-72.8-83.2-55.4-63.4c-2.4-2.7-4.4-5.9-5.8-9.2s-2.3-6.6-2.4-9.6l-6.4-161.7c-.1-3 .5-5.6 1.7-7.5 1.2-1.9 3.1-3 5.3-3.3l80.9-10.1 40.9-5.1c2.3-.3 4.9.3 7.5 1.7 2.7 1.4 5.3 3.6 7.7 6.3l83.5 95.4 44.7 51.1c2.4 2.7 4.4 5.9 5.8 9.2s2.3 6.7 2.4 9.7z" fill="#7a18d5"/><path class="st1" d="M281 456.7l165.1 86.7-1 21.5L284.3 480l-3.3-23.3zm35.4 135.9l55.8 76.1 2.6 14.9-1.6 12-72.1-98.4 15.3-4.6z"/><path class="st1" d="M315 580.7l1.5 12.3-5.8 5-9.5-.7-6.2-43 20 26.4zm107.9 68.5l-50.7 19.5-.5 12.8 1.6 14.2 66.1-26.3-5-22.5-11.5 2.3zm-82.1-66l67.4 35.4-5.9 16.1-65.5-34.4 4-17.1zm-56.6-103.8l19.7 8.8 5.7 53.5-16.6.1-8.8-62.4z"/><path class="st1" d="M293.1 541.8l16.4-.7 32.7 43-5.4 16.1-43.7-58.4z"/><path class="st1" d="M293.1 541.8l16.4-.7 32.7 43-5.4 16.1-43.7-58.4zM428 553.6l17.2 9.2-2.5 51.1-16.5-23.2 1.8-37.1zm-94.3-23.9l67.9 35.7.7 19.7-67.8-35.7z"/><path class="st1" d="M401.6 565.4l40.1 56.1-14.4 3.9-36.6-50.2 10.9-9.8z"/><path class="st1" d="M441.7 621.5l-2.2 47.9-16.5-20.2.9-38.1 17.8 10.4zm-129.3-82.9l21.2-8.8 12.4 19.1-19.3 8-14.3-18.3zm83.7 73.5l12.4-5.1 11.5 17.4-17.7 10.2-6.2-22.5z"/><path d="M451.3 504.7L293.8 671l-55.4-63.3c-2.4-2.7-4.4-5.9-5.8-9.2-1.4-3.3-2.3-6.6-2.4-9.6l-3.7-92.6 85.2-89.9 40.9-5.1c2.3-.3 4.9.3 7.5 1.7 2.7 1.4 5.3 3.6 7.7 6.3l83.5 95.4z" fill="#7e44fe" fill-opacity=".1"/><path class="st12" d="M432.6 492.2c-.2 1.7-.9 3-2 3.7-1.1.7-2.6.8-4.2.3 1.6 1.2 3.1 2.9 4.4 4.8 1.2 1.9 2 4 2.4 6 .2-1.7.9-2.9 2-3.7 1.1-.7 2.5-.8 4.1-.4-1.6-1.2-3.1-2.9-4.3-4.8-1.2-1.8-2-3.9-2.4-5.9z"/><path class="st1" d="M417.1 453.3c-.4 2.8-1.5 5-3.4 6.2-1.9 1.2-4.3 1.4-7 .6 2.8 2.1 5.3 4.9 7.4 8.2 2 3.3 3.4 6.8 4 10.1.4-2.8 1.5-5 3.4-6.2 1.9-1.2 4.3-1.4 7-.6-2.8-2.1-5.3-4.9-7.4-8.2-2-3.2-3.4-6.8-4-10.1zM268.2 653.2c6 3.2 10.7.1 10.4-6.8-.3-6.9-5.4-15.1-11.4-18.3-6-3.2-10.7-.1-10.4 6.8s5.4 15.1 11.4 18.3z"/><path class="st13" d="M151 631.1c2.1 1.1 3.8.1 3.7-2.3-.1-2.4-1.9-5.2-4-6.3s-3.8-.1-3.7 2.3c.1 2.3 1.9 5.1 4 6.3zM438.9 904c0 1-.2 1.8-.6 2.4-.5.6-1.1.8-1.9.8-.8 0-1.7-.4-2.6-1.1-.9-.6-1.7-1.5-2.3-2.6-.6-1-1.1-2.1-1.3-3.2-.2-1.1-.2-2 .1-2.7.3-.7.8-1.2 1.6-1.4s1.6 0 2.4.5c1.2.6 2.3 1.7 3.2 3.1.9 1.4 1.4 2.9 1.4 4.2zM628 658c0 .9-.2 1.6-.6 2.1-.4.5-1 .7-1.7.7s-1.5-.4-2.2-.9c-.8-.6-1.5-1.3-2-2.2-.6-.9-1-1.9-1.2-2.8-.2-.9-.1-1.8.1-2.4s.7-1.1 1.4-1.2c.6-.1 1.4 0 2.1.4.5.3 1 .6 1.5 1.1.5.5.9 1 1.3 1.6.4.6.7 1.2.9 1.9.3.5.4 1.1.4 1.7zM501.4 410.9c1.8.9 3.2.1 3.1-1.9-.1-2-1.6-4.4-3.4-5.4-1.8-1-3.2-.1-3.1 1.9s1.6 4.4 3.4 5.4zm49.4 61.2c0 .8-.2 1.5-.5 1.9-.4.5-.9.7-1.6.6-.7 0-1.4-.4-2.1-.9-.7-.5-1.4-1.3-1.9-2.1s-.9-1.8-1.1-2.6c-.2-.9-.1-1.7.1-2.3.2-.6.7-1 1.3-1.1.6-.1 1.3 0 2 .4.5.3 1 .6 1.4 1 .5.4.9 1 1.2 1.5.4.6.6 1.2.8 1.7.2.8.4 1.4.4 1.9zm17 29.1c0 .8-.2 1.5-.5 2-.4.5-1 .7-1.6.7-.7 0-1.4-.4-2.2-.9-.7-.5-1.4-1.3-2-2.2-.5-.9-.9-1.8-1.1-2.7-.2-.9-.1-1.7.1-2.3s.7-1 1.3-1.2c.6-.1 1.3 0 2.1.4.5.3 1 .6 1.5 1.1.5.5.9 1 1.3 1.6.4.6.7 1.2.9 1.8.1.5.2 1.1.2 1.7zM174.3 274.8c2.2 1.2 3.9.1 3.8-2.4s-2-5.4-4.2-6.6c-2.2-1.2-3.9-.1-3.8 2.4.1 2.4 1.9 5.4 4.2 6.6zm-63.8 110.5c0 1.2-.2 2.3-.8 3-.6.7-1.4 1.1-2.4 1-1-.1-2.1-.5-3.2-1.3s-2.1-1.9-2.9-3.2c-.8-1.3-1.4-2.7-1.7-4s-.2-2.5.2-3.5c.4-.9 1.1-1.5 2-1.7.9-.2 2 0 3.1.6 1.5.8 2.9 2.2 4 3.9.9 1.6 1.6 3.5 1.7 5.2zm-5 22.9c0 .8-.1 1.4-.5 1.9-.4.4-.9.7-1.5.6-.6 0-1.3-.3-2-.8s-1.3-1.2-1.8-2-.9-1.7-1-2.5c-.2-.8-.1-1.6.1-2.2.2-.6.7-1 1.2-1.1.6-.1 1.2 0 1.9.4.5.2.9.6 1.4 1 .4.4.8.9 1.2 1.4.3.5.6 1.1.8 1.7s.1 1 .2 1.6zm251.6-120c1.6.9 2.9.1 2.8-1.8-.1-1.8-1.5-4-3.1-4.9-1.6-.9-2.9-.1-2.8 1.8.1 1.9 1.5 4 3.1 4.9zm-16.3-11.3c0 .5-.1.9-.3 1.2-.2.3-.6.4-1 .4s-.9-.2-1.3-.6c-.5-.3-.9-.8-1.2-1.3-.3-.5-.6-1.1-.7-1.7-.1-.5-.1-1 .1-1.4.2-.4.4-.6.8-.7.4-.1.8 0 1.3.2.3.2.6.4.9.7.3.3.5.6.8 1s.4.7.5 1.1c.1.4.1.8.1 1.1zM596.6 864c1.9 1 3.3.1 3.2-2-.1-2.1-1.7-4.6-3.5-5.6-1.9-1-3.3-.1-3.2 2 .1 2.1 1.7 4.6 3.5 5.6zm-10 11.4c1.4.7 2.5.1 2.4-1.5-.1-1.5-1.2-3.4-2.6-4.1-1.4-.7-2.5-.1-2.4 1.5 0 1.5 1.2 3.4 2.6 4.1zm-47.4-10.2l-29.1-15.3-7.2-11.3-1.3-32.6 6.6-4.1 29.1 15.3 7.2 11.3 1.3 32.6-6.6 4.1z"/><path class="st14" d="M512 800.4l-1.6-.8.2 5.2 1.6.8-.2-5.2zm3.8 2l-1.6-.8.2 5.2 1.6.8-.2-5.2zm3.8 2l-1.6-.8.2 5.2 1.6.8-.2-5.2zm3.8 2l-1.6-.8.2 5.2 1.6.8-.2-5.2zm3.8 2l-1.6-.8.2 5.2 1.6.8-.2-5.2zm3.8 2l-1.6-.8.2 5.2 1.6.8-.2-5.2zm3.7 1.9l-1.6-.8.2 5.2 1.6.8-.2-5.2zm-20.7 38l-1.6-.8.2 5.2 1.6.8-.2-5.2zm3.8 2l-1.6-.8.2 5.2 1.6.8-.2-5.2zm3.8 2l-1.6-.8.2 5.2 1.6.8-.2-5.2zm3.8 1.9l-1.6-.8.2 5.2 1.6.8-.2-5.2zm3.7 2l-1.6-.8.2 5.2 1.6.8-.2-5.2zm3.8 2l-1.6-.8.2 5.2 1.6.8-.2-5.2zm3.8 2l-1.6-.8.2 5.2 1.6.8-.2-5.2zm11.1-27.6l-.1-1.7-4.7-2.5.1 1.7 4.7 2.5zm.2 4.2l-.1-1.7-4.7-2.5.1 1.7 4.7 2.5zm.2 4.3l-.1-1.7-4.7-2.5.1 1.7 4.7 2.5zm.1 4.2l-.1-1.7-4.7-2.5.1 1.7 4.7 2.5zm.2 4.3l-.1-1.7-4.7-2.5.1 1.7 4.7 2.5zm.2 4.2l-.1-1.7-4.7-2.5.1 1.7 4.7 2.5zm.1 4.2l-.1-1.7-4.7-2.5.1 1.7 4.7 2.5zm-45.5-48.8l-.1-1.7-4.7-2.5.1 1.7 4.7 2.5zm.2 4.3l-.1-1.7-4.7-2.5.1 1.7 4.7 2.5zm.2 4.2l-.1-1.7-4.7-2.5.1 1.7 4.7 2.5zm.1 4.2l-.1-1.7-4.7-2.5.1 1.7 4.7 2.5zm.2 4.3l-.1-1.7-4.7-2.5.1 1.7 4.7 2.5zm.1 4.2l-.1-1.7-4.7-2.5.1 1.7 4.7 2.5zm.2 4.2l-.1-1.7-4.7-2.5.1 1.7 4.7 2.5z"/><path d="M542.7 862.9l18.5 29.1m-74.4-117.1l18.5 29.1" fill="none" stroke="#4d4d4d" stroke-width="1.39" stroke-miterlimit="10"/><path class="st13" d="M563.8 893.7c0 .6-.1 1.2-.4 1.5-.3.4-.7.6-1.2.5-.5 0-1.1-.3-1.6-.7-.6-.4-1.1-1-1.5-1.6-.4-.7-.7-1.4-.8-2-.1-.7-.1-1.3.1-1.7.2-.5.5-.8 1-.8.5-.1 1 0 1.6.3.7.4 1.4 1.1 2 1.9.5.9.8 1.8.8 2.6zm-74.2-116.9c0 .6-.1 1.1-.4 1.5-.3.3-.7.5-1.2.5s-1-.2-1.6-.6c-.5-.4-1-.9-1.4-1.6-.4-.6-.7-1.3-.8-2-.1-.7-.1-1.2.1-1.7s.5-.8.9-.9c.4-.1.9 0 1.5.2.7.4 1.5 1.1 2 1.9.5.9.9 1.8.9 2.7z"/><path class="st9" d="M251 358.1l-58.9-31-3.4-5.4-.5-12.1 3.1-2 58.9 31 3.4 5.4.5 12.1-3.1 2z"/><path class="st12" d="M209 318.4l1.3.7-.2-4.8-1.3-.7.2 4.8zm-3.9-2l1.3.7-.2-4.8-1.3-.7.2 4.8zm11.6 6.1l1.3.7-.2-4.8-1.3-.7.2 4.8zm-3.8-2l1.3.7-.2-4.8-1.3-.7.2 4.8zm-11.7-6.1l1.3.7-.2-4.9-1.3-.7.2 4.9zm-7.7-4.1l1.3.7-.2-4.8-1.3-.7.2 4.8zm3.9 2l1.3.7-.2-4.9-1.3-.7.2 4.9zm23.2 12.2l1.3.7-.2-4.8-1.3-.7.2 4.8zm23.2 12.2l1.3.7-.2-4.8-1.3-.7.2 4.8zm-3.9-2l1.3.7-.2-4.8-1.3-.7.2 4.8zm7.6-.8l.2 4.8 1.3.7-.2-4.8-1.3-.7zm-23.1-7.3l1.2.6-.2-4.8-1.3-.7.3 4.9zm3.9 2l1.3.7-.2-4.9-1.3-.7.2 4.9zm3.9 2l1.3.7-.2-4.8-1.3-.7.2 4.8zm3.9 2.1l1.3.7-.2-4.8-1.3-.7.2 4.8zm-26.3 7.1l1.3.7-.2-4.9-1.3-.7.2 4.9zm-3.8-2l1.3.7-.2-4.9-1.3-.7.2 4.9zm11.6 6.1l1.3.7-.2-4.9-1.3-.7.2 4.9zm-3.9-2l1.3.7-.2-4.9-1.3-.7.2 4.9zm-11.6-6.1l1.3.7-.2-4.9-1.3-.7.2 4.9zm-7.7-4.1l1.3.7-.2-4.9-1.3-.7.2 4.9zm3.8 2l1.3.7-.2-4.9-1.3-.7.2 4.9zm23.2 12.2l1.3.7-.2-4.9-1.3-.7.2 4.9zm23.2 12.2l1.3.7-.2-4.9-1.3-.7.2 4.9zm-3.8-2l1.3.7-.2-4.9-1.3-.7.2 4.9zm7.5-.8l.2 4.9 1.3.7-.2-4.9-1.3-.7zm-23-7.3l1.2.6-.2-4.9-1.3-.7.3 5zm3.9 2l1.3.7-.2-4.9-1.3-.7.2 4.9zm3.8 2l1.3.7-.2-4.9-1.3-.7.2 4.9zm3.9 2.1l1.3.7-.2-4.9-1.3-.7.2 4.9zm228.2 125.3l-9-4.7-2.6-4.1-1-26 2.4-1.5 9 4.7 2.6 4.1 1 26-2.4 1.5z"/><path class="st9" d="M483 488.8l-9-4.7-2.6-4.1-1-26 2.4-1.5 9 4.7 2.6 4.1 1 26-2.4 1.5z"/><path class="st12" d="M500.8 498.2l-9-4.7-2.6-4.1-1-26 2.4-1.5 9 4.7 2.6 4.1 1 26-2.4 1.5z"/><path class="st14" d="M187.9 483.9l-23.4-12.3-2-3-1-26.2 1.8-1.1 23.5 12.3 1.9 3 1 26.2-1.8 1.1z"/><path class="st12" d="M163 444.9l-4.8-2.5v1.2l4.8 2.5v-1.2zm.2 5.3l-4.8-2.5v1.2l4.8 2.5v-1.2zm.2 5.4l-4.8-2.5.1 1.2 4.8 2.5-.1-1.2zm.2 5.3l-4.8-2.5.1 1.2 4.8 2.5-.1-1.2zm.2 5.4l-4.8-2.5v1.2l4.8 2.5v-1.2zm28.2-6.2l-4.8-2.5.1 1.2 4.8 2.5-.1-1.2zm.2 5.4l-4.8-2.5v1.2l4.8 2.5v-1.2zm.2 5.3l-4.8-2.5.1 1.2 4.8 2.5-.1-1.2zm.3 5.4l-4.8-2.5.1 1.2 4.8 2.5-.1-1.2zm.2 5.3l-4.8-2.5.1 1.2 4.8 2.5-.1-1.2zm-7.8-27.2l-.2-5.4-1.1-.6.2 5.4 1.1.6zm-4.8-2.5l-.2-5.4-1.1-.6.2 5.4 1.1.6zm-4.7-2.5l-.2-5.4-1.1-.6.2 5.4 1.1.6zm-4.8-2.5l-.2-5.4-1.1-.6.2 5.4 1.1.6zm-4.8-2.5l-.2-5.4-1.1-.6.2 5.4 1.1.6zm20.4 42.5l-.2-5.4-1.1-.6.2 5.4 1.1.6zm-4.8-2.5l-.2-5.4-1.1-.6.2 5.4 1.1.6zm-4.7-2.5l-.2-5.4-1.1-.6.2 5.4 1.1.6zm-4.8-2.5l-.2-5.4-1.1-.6.2 5.4 1.1.6zm-4.8-2.5l-.2-5.4-1.1-.6.2 5.4 1.1.6z"/><path class="st9" d="M189.8 531.2l-23.4-12.3-2-3-1-26.2 1.8-1.1 23.5 12.3 1.9 3 1 26.2-1.8 1.1z"/><path class="st12" d="M164.9 492.2l-4.8-2.5.1 1.2 4.8 2.5-.1-1.2zm.2 5.3l-4.8-2.5v1.2l4.8 2.5v-1.2zm.2 5.4l-4.8-2.5v1.2l4.8 2.5v-1.2zm.2 5.3l-4.8-2.5v1.2l4.8 2.5v-1.2zm.2 5.4l-4.8-2.5v1.2l4.8 2.5v-1.2zm28.2-6.2l-4.8-2.5.1 1.2 4.8 2.5-.1-1.2zm.2 5.4l-4.8-2.5.1 1.2 4.8 2.5-.1-1.2zm.2 5.3l-4.8-2.5v1.2l4.8 2.5v-1.2zm.2 5.4l-4.8-2.5v1.2l4.8 2.5v-1.2zm.3 5.3l-4.8-2.5v1.2l4.8 2.5v-1.2zm-7.8-27.2l-.2-5.4-1.1-.6.2 5.4 1.1.6zm-4.8-2.5l-.2-5.4-1.1-.6.2 5.4 1.1.6zm-4.7-2.5l-.2-5.4-1.1-.6.2 5.4 1.1.6zm-4.8-2.5l-.2-5.4-1.1-.6.2 5.4 1.1.6zm-4.8-2.6l-.2-5.4-1.1-.6.2 5.4 1.1.6zm20.4 42.6l-.2-5.4-1.1-.6.2 5.4 1.1.6zm-4.8-2.5l-.2-5.4-1.1-.6.2 5.4 1.1.6zm-4.8-2.5l-.2-5.4-1.1-.6.2 5.4 1.1.6zm-4.7-2.5l-.2-5.4-1.1-.6.2 5.4 1.1.6zm-4.8-2.5l-.2-5.4-1.1-.6.2 5.4 1.1.6z"/><path class="st14" d="M228.1 674.4l-13.8-7.3-1.1-1.8-.6-15.5 1-.6 13.8 7.3 1.1 1.8.6 15.5-1 .6z"/><path class="st12" d="M213.4 651.4l-2.8-1.5v.7l2.8 1.5v-.7zm.1 3.1l-2.8-1.5v.7l2.8 1.5v-.7zm.2 3.2l-2.8-1.5v.7l2.8 1.5v-.7zm.1 3.2l-2.8-1.5v.7l2.8 1.5v-.7zm.1 3.2l-2.8-1.5v.7l2.8 1.5v-.7zm16.7-3.7l-2.8-1.5v.7l2.8 1.5v-.7zm.1 3.2l-2.8-1.5v.7l2.8 1.5v-.7zm.2 3.2l-2.8-1.5v.7l2.8 1.5v-.7zm.1 3.1l-2.8-1.5v.7l2.8 1.5v-.7zm.1 3.2l-2.8-1.5v.7l2.8 1.5v-.7zm-4.6-16.1l-.1-3.2-.7-.3.1 3.2.7.3zm-2.8-1.5l-.1-3.2-.7-.3.1 3.2.7.3zm-2.8-1.5l-.1-3.2-.7-.3.1 3.2.7.3zm-2.9-1.5l-.1-3.2-.7-.3.1 3.2.7.3zm-2.8-1.5l-.1-3.2-.7-.3.1 3.2.7.3zm12.1 25.2l-.1-3.2-.7-.3.1 3.2.7.3zm-2.8-1.5l-.1-3.2-.7-.3.1 3.2.7.3zm-2.9-1.5l-.1-3.2-.7-.3.1 3.2.7.3zm-2.8-1.4l-.1-3.2-.7-.3.1 3.2.7.3zm-2.8-1.5l-.1-3.2-.7-.3.1 3.2.7.3z"/><path class="st13" d="M118.5 199.8l-2.2-1.1c-.6-.3-1.1-.8-1.5-1.5-.4-.7-.7-1.4-.7-2l-.1-2.4c0-.6-.2-1.2-.5-1.8-.3-.6-.8-1.2-1.3-1.6-.3-.2-.6-.4-.9-.5-.3-.1-.6-.1-.8 0-.2.1-.4.3-.6.5-.1.3-.2.6-.2.9l.1 2.5c0 .3 0 .6-.1.8-.1.2-.2.4-.4.5s-.4.2-.7.2c-.3 0-.5-.1-.8-.3l-2.1-1.1c-.5-.3-1-.4-1.4-.2-.4.1-.7.5-.7 1 0 .3 0 .7.1 1.1.1.4.2.8.5 1.2.2.4.5.7.8 1.1.3.3.6.6.9.7l2.2 1.2c.6.3 1.1.8 1.5 1.5.4.6.7 1.4.7 2l.1 2.4c0 .6.2 1.2.5 1.8.3.6.8 1.2 1.3 1.6.3.2.6.4.9.5.3.1.6.1.8 0 .2-.1.4-.3.6-.5s.2-.6.2-.9l-.1-2.5c0-.6.2-1.1.6-1.4.4-.2.9-.2 1.5.1l2.2 1.2c.3.2.6.3.9.3.3 0 .5-.1.7-.3.2-.2.3-.4.4-.7.1-.3.1-.7 0-1.1-.1-.6-.5-1.2-.9-1.8-.5-.7-1-1.1-1.5-1.4z"/><path class="st12" d="M673.6 723.5l-1.9-1c-.3-.1-.5-.3-.7-.6-.2-.2-.5-.5-.6-.8-.2-.3-.3-.6-.4-.9-.1-.3-.2-.6-.2-.9l-.1-2.2c0-.5-.2-1.1-.5-1.7-.3-.6-.7-1.1-1.2-1.4-.3-.2-.6-.4-.9-.4-.3-.1-.5-.1-.7 0-.2.1-.4.3-.5.5-.1.2-.2.5-.2.8l.1 2.3c0 .6-.2 1-.5 1.2-.3.2-.8.2-1.3-.1l-1.9-1c-.5-.3-.9-.3-1.2-.2-.3.1-.6.4-.7.9 0 .3 0 .6.1 1 .1.3.2.7.4 1.1.2.3.4.7.7.9.3.3.6.5.8.6l2 1.1c.5.3 1 .8 1.4 1.4.4.6.6 1.3.6 1.8l.1 2.2c0 .5.2 1.1.5 1.6.3.6.7 1 1.2 1.4.3.2.6.4.9.4.3.1.5.1.7 0 .2-.1.4-.2.5-.5.1-.2.2-.5.2-.8l-.3-2.2c0-.3 0-.5.1-.8.1-.2.2-.4.4-.5.2-.1.4-.2.6-.1.2 0 .5.1.7.2l2 1.1c.3.2.6.2.8.2.3 0 .5-.1.6-.2.2-.2.3-.4.3-.7.1-.3.1-.6 0-.9-.1-.6-.4-1.1-.8-1.6-.2-.5-.6-.9-1.1-1.2z"/><path d="M144 695.6l-2.8-1.5c-.7-.4-1.4-1-1.9-1.9-.5-.8-.8-1.7-.9-2.5l-.1-3c0-.7-.2-1.5-.7-2.3-.4-.8-1-1.5-1.6-2-.4-.3-.8-.5-1.2-.6-.4-.1-.7-.1-1 0-.3.1-.5.3-.7.7-.2.3-.2.7-.2 1.2l.1 3.1c0 .8-.2 1.4-.7 1.7-.5.3-1.2.3-1.9-.1l-2.6-1.4c-.6-.4-1.3-.5-1.8-.3s-.8.6-1 1.2c-.1.4 0 .9.1 1.3.1.5.3 1 .6 1.5s.6.9 1 1.3.8.7 1.2.9l2.8 1.5c.7.4 1.4 1 1.9 1.9.5.8.8 1.7.9 2.5l.1 3c0 .7.2 1.5.7 2.3.4.8 1 1.5 1.6 2 .4.3.8.5 1.2.6.4.1.7.1 1 0 .3-.1.5-.3.7-.7.2-.3.2-.7.2-1.2l-.1-3.1c0-.8.2-1.4.7-1.7.5-.3 1.1-.3 1.8.1l2.8 1.5c.4.2.8.3 1.1.3.4 0 .7-.1.9-.3.2-.2.4-.5.5-.9.1-.4.1-.8 0-1.3-.2-.8-.5-1.6-1-2.3-.4-.5-1-1.1-1.7-1.5z" fill="none" stroke="#808490" stroke-width="1.39" stroke-miterlimit="10"/><path class="st14" d="M613.5 952.6L585.9 938c-.7-.4-1.5-1.1-2-2-.5-.9-.9-1.8-.9-2.7 0-.8.2-1.5.7-1.8.5-.3 1.2-.3 2 .1l27.6 14.5c.7.4 1.5 1.1 2 2 .6.9.9 1.8.9 2.7 0 .8-.2 1.5-.7 1.8-.5.4-1.2.4-2 0zm13.2 6.9l-3.2-1.7c-.7-.4-1.5-1.1-2-2-.6-.9-.9-1.8-.9-2.7 0-.8.2-1.5.7-1.8.5-.3 1.2-.3 2 .1l3.2 1.7c.7.4 1.5 1.1 2 2 .6.9.9 1.8.9 2.7 0 .8-.2 1.5-.7 1.8-.6.3-1.3.3-2-.1zm16.2 8.5l-.6-.3c-.7-.4-1.5-1.1-2-2-.6-.9-.9-1.8-.9-2.7 0-.8.2-1.5.7-1.8.5-.3 1.2-.3 2 .1l.6.3c.7.4 1.5 1.1 2 2 .6.9.9 1.8.9 2.7 0 .8-.2 1.5-.7 1.8-.6.3-1.3.3-2-.1z"/><path class="st9" d="M326.8 232.6l-27.6-14.5c-.7-.4-1.5-1.1-2-2-.6-.9-.9-1.8-.9-2.7 0-.8.2-1.5.7-1.8.5-.3 1.2-.3 2 .1l27.6 14.5c.7.4 1.5 1.1 2 2 .6.9.9 1.8.9 2.7 0 .8-.2 1.5-.7 1.8-.6.3-1.3.3-2-.1zm13.1 6.9l-3.2-1.7c-.7-.4-1.5-1.1-2-2-.6-.9-.9-1.8-.9-2.7 0-.8.2-1.5.7-1.8.5-.3 1.2-.3 2 .1l3.2 1.7c.7.4 1.5 1.1 2 2 .6.9.9 1.8.9 2.7 0 .8-.2 1.5-.7 1.8-.5.3-1.2.3-2-.1zm16.2 8.5l-.6-.3c-.7-.4-1.5-1.1-2-2-.6-.9-.9-1.8-.9-2.7 0-.8.2-1.5.7-1.8.5-.3 1.2-.3 2 .1l.6.3c.7.4 1.5 1.1 2 2 .6.9.9 1.8.9 2.7 0 .8-.2 1.5-.7 1.8-.5.3-1.2.3-2-.1z"/><path class="st14" d="M565.5 687.6c0 .7-.1 1.2-.4 1.6-.3.4-.8.6-1.3.5s-1.2-.3-1.8-.7c-.6-.4-1.2-1.1-1.6-1.8-.4-.7-.8-1.5-.9-2.2-.1-.7-.1-1.4.1-1.9s.6-.8 1.1-.9c.5-.1 1.1 0 1.7.3.8.4 1.6 1.2 2.2 2.1.5 1.1.8 2.1.9 3zm7.5-4.6c0 .7-.1 1.2-.4 1.6s-.8.6-1.3.5-1.2-.3-1.8-.7-1.2-1.1-1.6-1.8c-.4-.7-.8-1.5-.9-2.2-.1-.7-.1-1.4.1-1.9s.6-.8 1.1-.9 1.1 0 1.7.3c.8.4 1.6 1.2 2.2 2.1.5 1 .8 2.1.9 3zm7.4-4.7c0 .7-.1 1.2-.4 1.6-.3.4-.8.6-1.3.5-.5 0-1.2-.3-1.8-.7-.6-.4-1.2-1.1-1.6-1.8s-.8-1.5-.9-2.2c-.1-.7-.1-1.4.1-1.9s.6-.8 1.1-.9c.5-.1 1.1 0 1.7.3.8.4 1.6 1.2 2.2 2.1.5 1.1.9 2.1.9 3zM640 905.2c0 .3-.1.6-.2.8-.2.2-.4.3-.6.3-.3 0-.6-.1-.8-.4-.3-.2-.6-.5-.8-.8-.2-.3-.4-.7-.4-1.1-.1-.4-.1-.7 0-.9.1-.2.3-.4.5-.5.2-.1.5 0 .8.2.2.1.4.2.6.4.2.2.4.4.5.6.1.2.3.5.3.7.1.2.1.5.1.7zm-188.9-92.1c0 .3-.1.5-.2.7-.1.2-.3.2-.6.2-.2 0-.5-.1-.8-.3-.3-.2-.5-.5-.7-.8-.2-.3-.3-.6-.4-.9-.1-.3-.1-.6 0-.8.1-.2.2-.4.4-.4.2-.1.4 0 .7.1.2.1.4.2.6.4.2.2.3.4.5.6.1.2.2.5.3.7.1.1.2.3.2.5z"/><path class="st13" d="M365.1 889.9c0 .3-.1.6-.2.8-.2.2-.4.3-.6.3-.3 0-.6-.2-.9-.4-.3-.2-.6-.5-.8-.9-.2-.3-.4-.7-.4-1.1-.1-.4 0-.7.1-.9.1-.2.3-.4.5-.4s.5 0 .8.2c.2.1.4.2.6.4.2.2.3.4.5.6.1.2.2.5.3.7 0 .3.1.5.1.7z"/><path class="st14" d="M324.8 886.4c0 .3-.1.5-.2.7-.1.2-.3.3-.6.2-.2 0-.5-.1-.8-.3-.3-.2-.5-.5-.7-.8-.2-.3-.3-.6-.4-1-.1-.3 0-.6 0-.8.1-.2.3-.4.5-.4s.5 0 .7.1c.4.2.7.5.9.9.4.6.5 1 .6 1.4z"/><path class="st13" d="M266.2 701.4c0 .3-.1.6-.2.8-.2.2-.4.3-.6.3-.3 0-.6-.2-.9-.4-.3-.2-.6-.5-.8-.9-.2-.3-.4-.7-.4-1.1-.1-.4 0-.7.1-.9.1-.2.3-.4.5-.4s.5 0 .8.2c.2.1.4.2.6.4.2.2.3.4.5.6.1.2.2.5.3.7.1.2.1.4.1.7z"/><path class="st14" d="M133.8 650.6c1 .5 1.7 0 1.7-1.1s-.9-2.4-1.8-2.9c-1-.5-1.7 0-1.7 1.1s.9 2.4 1.8 2.9zM68.9 391.3c.9.5 1.6 0 1.6-1s-.8-2.2-1.7-2.7c-.9-.5-1.6 0-1.6 1s.8 2.2 1.7 2.7z"/><path class="st12" d="M48.1 473.7c0 .4-.1.8-.3 1-.2.2-.5.4-.8.3-.3 0-.7-.2-1.1-.5-.4-.3-.7-.7-1-1.1-.3-.4-.5-.9-.6-1.4-.1-.5-.1-.9.1-1.2.1-.3.4-.5.7-.6.3-.1.7 0 1 .2.5.3 1 .7 1.4 1.3.3.7.6 1.4.6 2z"/><path class="st14" d="M169.3 223.3c.9.5 1.6 0 1.6-1s-.8-2.2-1.7-2.7c-.9-.5-1.6 0-1.6 1 .1 1 .8 2.2 1.7 2.7zm243.8 27.2c.9.5 1.6 0 1.6-1s-.8-2.2-1.7-2.7c-.9-.5-1.6 0-1.6 1s.8 2.2 1.7 2.7zm152.5 169.8c0 .3-.1.6-.2.8-.1.2-.4.3-.6.2-.3 0-.5-.1-.8-.3-.3-.2-.5-.5-.7-.8-.2-.3-.3-.7-.4-1-.1-.3-.1-.6 0-.9.1-.2.3-.4.5-.4.2-.1.5 0 .8.1.4.2.7.5 1 1 .2.4.3.9.4 1.3zm-178.3-50.1c.9.5 1.6 0 1.6-1s-.8-2.2-1.7-2.7c-.9-.5-1.6 0-1.6 1s.8 2.2 1.7 2.7z"/><path class="st13" d="M663.1 543.6c0 .4-.1.8-.3 1-.2.2-.5.4-.8.3-.3 0-.7-.2-1.1-.5-.4-.3-.7-.7-1-1.1s-.5-.9-.6-1.4c-.1-.5-.1-.9.1-1.2.1-.3.4-.5.7-.6.3-.1.7 0 1 .2.5.3 1 .7 1.4 1.3.4.8.6 1.4.6 2z"/><path class="st14" d="M565.5 621.3c0 .3-.1.6-.2.8-.1.2-.4.3-.6.2-.3 0-.5-.1-.8-.3-.3-.2-.5-.5-.7-.8-.2-.3-.3-.7-.4-1-.1-.3-.1-.6 0-.9.1-.2.3-.4.5-.4.2-.1.5 0 .8.1.4.2.7.5 1 1 .2.4.4.9.4 1.3zm115.1 186.5c0 .4-.1.8-.3 1s-.5.4-.8.3c-.3 0-.7-.2-1.1-.5-.4-.3-.7-.7-1-1.1-.3-.4-.5-.9-.6-1.4-.1-.5-.1-.9.1-1.2.1-.3.4-.5.7-.6.3-.1.7 0 1 .2.5.3 1 .7 1.4 1.3.4.8.6 1.4.6 2z"/><path class="st12" d="M549.2 762.8c0 .4-.1.8-.3 1-.2.2-.5.4-.8.3-.3 0-.7-.2-1.1-.5-.4-.3-.7-.7-1-1.1-.3-.4-.5-.9-.6-1.4-.1-.5-.1-.9.1-1.2.1-.3.4-.5.7-.6.3-.1.7 0 1 .2.5.3 1 .7 1.4 1.3.4.7.6 1.4.6 2z"/><defs><path id="SVGID_00000157284151201531973400000018032419777889749143_" d="M95 535h63v62H95z"/></defs><clipPath id="SVGID_00000173872975071784162240000004006839864899190945_"><use xlink:href="#SVGID_00000157284151201531973400000018032419777889749143_" overflow="visible"/></clipPath><g clip-path="url(#SVGID_00000173872975071784162240000004006839864899190945_)"><path class="st18" d="M126.5 535.3c-20.8 0-29.5 27.1-12.3 38.7v13.1c0 2.8 2.5 4.7 4.9 5.7.7 5.5 14.1 5.5 14.8 0 2.3-1 4.9-3 4.9-5.7V574c17.1-11.5 8.6-38.7-12.3-38.7z"/><path class="st18" d="M114.2 575.5v11.6c0 3.9 5.5 7.1 12.3 7.1 6.8 0 12.3-3.2 12.3-7.1v-11.6h-24.6z"/><path class="st19" d="M126.5 590.4c-6.8 0-12.3-3.2-12.3-7.1v3.9c0 3.9 5.5 7.1 12.3 7.1 6.8 0 12.3-3.2 12.3-7.1v-3.9c0 3.9-5.5 7.1-12.3 7.1z"/><path class="st19" d="M126.5 582.7c-6.8 0-12.3-3.2-12.3-7.1v3.9c0 3.9 5.5 7.1 12.3 7.1 6.8 0 12.3-3.2 12.3-7.1v-3.9c0 3.9-5.5 7.1-12.3 7.1z"/><path class="st20" d="M148.2 556.4c0-11.8-9.7-21.4-21.7-21.4s-21.7 9.6-21.7 21.4c0 7.3 3.8 13.8 9.5 17.6v1.5c0 3.9 5.5 7.1 12.3 7.1 6.8 0 12.3-3.2 12.3-7.1V574c5.6-3.8 9.3-10.3 9.3-17.6z"/><path class="st21" d="M126.5 582.7c-6.8 0-12.3-3.2-12.3-7.1 0-3.9 5.5-7.1 12.3-7.1s12.3 3.2 12.3 7.1c0 3.9-5.5 7.1-12.3 7.1z"/><path d="M134.7 563.8c-1.3-.4-2.7-.9-3.9-1.7-.7-.2-1.1 0-1.2.7v1.4c-.5-.3-.8-.8-.8-1.3v-2.8c0-1.1-.6-2.2-1.6-2.7l-.1-.1c-1.3-.4-2.1 0-2.3 1.3v2.9c-.5-.3-.8-.8-.8-1.4v-2.8c0-2.1-3.9-4.4-3.9-1.4v.1l-1.8-1v-.2c-.3-1.4-2.5-.9-2.2.5l4.4 17.6c.4 1.6 2.5.7 2.2-.5l-3.8-15.3 1.7 1c.7.2 1.1 0 1.2-.7v-1.3c.9.7.8 3.1.6 4 0 1.2.6 2.2 1.7 2.8l.1.1c1.3.4 2 0 2.3-1.3v-2.9c.5.3.8.8.8 1.3v2.8c0 1.1.6 2.2 1.6 2.7 1 .4 2.4.3 2.4-1.3v-.2l1.9 1-4 12c-.4 1.3 1.6 2.2 2.1.7l4.2-12.6c.1-.5-.2-1.2-.8-1.4-.2 0 .6.2 0 0z" fill="#caa414"/><path class="st21" d="M119.9 558.8c-5.2 0-9.5-4.2-9.5-9.3 0-5.2 4.3-9.3 9.5-9.3s9.5 4.2 9.5 9.3c0 5.2-4.3 9.3-9.5 9.3z"/></g><defs><path id="SVGID_00000045593073608624804920000015603765183573865121_" d="M224 222h60v60h-60z"/></defs><clipPath id="SVGID_00000025406770305758896220000005519134169774375323_"><use xlink:href="#SVGID_00000045593073608624804920000015603765183573865121_" overflow="visible"/></clipPath><g clip-path="url(#SVGID_00000025406770305758896220000005519134169774375323_)"><path class="st24" d="M234.1 229.4c-3.9 2.1-6.3 6.9-6.3 13.7 0 13.3 9.3 29.5 20.8 36.1 5.7 3.3 10.9 3.6 14.7 1.4l10.7-6.1c3.8-2.2 6.2-6.9 6.2-13.6 0-13.3-9.3-29.5-20.8-36.1-5.7-3.3-10.9-3.6-14.7-1.4l-10.7 6.1s.1 0 .1-.1z"/><path class="st25" d="M234 229.5l10.7-6.1c3.8-2.2 8.9-1.9 14.7 1.4 11.5 6.6 20.8 22.7 20.8 36.1 0 6.7-2.4 11.4-6.2 13.6l-10.7 6.1c3.8-2.2 6.2-6.9 6.2-13.6 0-13.3-9.3-29.5-20.8-36.1-5.8-3.2-11-3.5-14.7-1.4z"/><path class="st24" d="M227.8 243.1c0-13.3 9.3-18.8 20.8-12.2 11.5 6.6 20.8 22.7 20.8 36.1 0 13.3-9.3 18.8-20.8 12.2-11.5-6.6-20.8-22.7-20.8-36.1z"/><path class="st25" d="M261.5 247.5c3.6 6.3 5.5 13.1 5.2 19.1-.2 5.2-2.1 9.2-5.2 11-3.1 1.8-7.3 1.5-12-.9-5.3-2.7-10.2-7.7-13.9-14-3.6-6.3-5.5-13.1-5.2-19.1.2-5.2 2.1-9.2 5.2-11 3.1-1.8 7.3-1.5 12 .9 5.4 2.7 10.3 7.7 13.9 14zm-25.2 14.8c3.6 6.2 8.4 11.1 13.6 13.8 4.4 2.3 8.5 2.6 11.4 1 2.9-1.7 4.7-5.5 4.9-10.5.3-5.9-1.6-12.5-5.1-18.7-3.6-6.2-8.4-11.1-13.6-13.8-4.4-2.3-8.5-2.6-11.4-1-2.9 1.7-4.7 5.5-4.9 10.5-.3 5.9 1.5 12.5 5.1 18.7z"/><path d="M263.4 229.4l-9.4 5.4.6.6 10.7-6.2-.6-.6-1.3.8zm9.6 9.1c-.1-.2-.3-.5-.4-.7l-10.7 6.2c.1.2.3.5.4.7l10.7-6.2zm-19.6-16.1c-.4-.1-.8-.2-1.2-.2l-10.7 6.2c.4.1.8.1 1.2.2l10.7-6.2zm-4.7 8.6c.3.2.5.3.8.5l10.7-6.2c-.3-.2-.5-.3-.8-.5l-10.7 6.2zm9.5 8.2c.2.2.4.4.5.6l10.7-6.2c-.2-.2-.4-.4-.5-.6l-10.7 6.2zm8.9 15.4c.1.3.2.5.3.8l10.7-6.2c-.1-.3-.2-.5-.3-.8l-10.7 6.2zm-2.3-5.5c.1.2.2.5.4.7l10.7-6.2c-.1-.2-.2-.5-.4-.7l-10.7 6.2zm13.7 20.4c.2-.4.4-.8.5-1.2l-10.7 6.2c-.2.4-.3.8-.5 1.2l10.7-6.2zm-9.7-9c.1.3.1.6.2.8l10.7-6.2c-.1-.3-.1-.6-.2-.8l-10.7 6.2zm.7 7.3l10.7-6.2v-1l-10.7 6.2v1z" fill="#fece00"/></g></g><defs><path id="SVGID_00000180351719460124964550000000444217015107837886_" d="M427 331h60v60h-60z"/></defs><clipPath id="SVGID_00000151526892362314725550000002367923248183556006_"><use xlink:href="#SVGID_00000180351719460124964550000000444217015107837886_" overflow="visible"/></clipPath><g clip-path="url(#SVGID_00000151526892362314725550000002367923248183556006_)"><path class="st28" d="M487 351.6c.1-3.6-2.3-7.3-7.1-10.1-9.4-5.4-24.7-5.4-34 0-4.7 2.7-7 6.3-7 9.8v7.1c0 3.6 2.4 7.2 7.1 9.9 9.4 5.4 24.7 5.4 34 0 4.6-2.7 7-6.2 7-9.8v-7.1.2zm-40 9c-2.9-1.7-4.8-3.7-5.8-5.8 1-2.1 2.9-4 5.7-5.7 8.8-5.1 23.1-5.1 31.9 0 2.9 1.7 4.8 3.7 5.8 5.8-1 2.1-2.9 4-5.7 5.7-8.7 5.1-23 5.1-31.9 0z"/><path class="st28" d="M485.5 351.5v7.1c0-3.4-2.2-6.7-6.7-9.3-8.8-5.1-23.2-5.1-31.9 0-4.4 2.5-6.5 5.9-6.6 9.2v-7.1c0-3.3 2.2-6.7 6.6-9.2 8.8-5.1 23.1-5.1 31.9 0 4.5 2.5 6.7 5.9 6.7 9.3z"/><path class="st29" d="M487 351.5v7.1c0 3.5-2.3 7.1-7 9.8-9.4 5.4-24.6 5.4-34 0-4.7-2.7-7.1-6.3-7.1-9.9v-7.1c0 3.6 2.4 7.2 7.1 9.9 9.4 5.4 24.7 5.4 34 0 4.7-2.8 7-6.3 7-9.8z"/><path class="st30" d="M479.9 341.5c9.4 5.4 9.5 14.3.1 19.7s-24.6 5.4-34 0c-9.4-5.4-9.5-14.3-.1-19.7s24.6-5.4 34 0zM447 360.6c8.8 5.1 23.2 5.1 31.9 0 8.8-5.1 8.7-13.4-.1-18.5-8.8-5.1-23.2-5.1-31.9 0-8.8 5.1-8.7 13.4.1 18.5z"/><path class="st31" d="M474.6 366c0-3.7-.8-6.3-1.8-5.9-4.6 1.7-13.9-.2-21.6-4.7-3.8-2.2-6.5-4.6-8-6.8 0-3.3-.3-5.6-.7-5.3-4.9 2.8-9.8 5.7-14.7 8.5-.1 0-.2.1-.3.2l-.1.1v.2c-.1.2-.1.4-.2.7 0 .2-.1.8-.1 2.6 0 1.6-.1 3.2-.1 3.8v1.7c0 2.5 0 5.4.2 6.5 0 .2 0 .3.1.4 0 .1.1.2.1.3 0 .1.1.1.2.2l.1.1c.1.1.2.1.2.2l2.7 1.5 2.7 1.5 2.7 1.5 2.7 1.5 2.7 1.5 2.7 1.5 2.7 1.5 2.7 1.5 2.7 1.5 2.7 1.5c.2.1.4.2.7.3.3.1.6.1.8.1.3 0 .5 0 .8-.1.2 0 .3-.1.4-.1.1 0 .1 0 .3-.1.2-.2.5-.3.8-.4s.6-.3.8-.4c.2-.2.5-.3.8-.4.2-.1.5-.3.8-.4l3-1.8c3.1-1.8 6.1-3.6 9.2-5.4 1-.6 1.7-3.9 1.7-7.5l-.4-1.6z"/><path class="st30" d="M442.5 358.5c-.1.1-.1.2-.2.3 0 .1-.1.2-.1.3 0 0-.1.1-.1.2.1-.7.3-2.7.3-5.6 0-.9.3-1.7.8-2.4 0 3.5-.3 6.7-.7 7.2z"/><path class="st30" d="M442.4 353.6v-1.7c0-.9.3-1.7.8-2.4v1.7c-.5.7-.8 1.5-.8 2.4z"/><path class="st31" d="M427.9 351.9c4.9-2.8 9.8-5.7 14.7-8.5l-14.7 8.5z"/><path class="st29" d="M457.6 369.1c-.8.5-2.1.5-2.9 0l-26.8-15.5c-.6-.3-.8-.8-.5-1.3v.1c-.1.2-.1.4-.2.7 0 .2-.1.8-.1 2.6 0 1.6-.1 3.2-.1 3.8v1.7c0 2.5 0 5.4.2 6.5 0 .2 0 .3.1.4 0 .1.1.2.1.3 0 .1.1.1.2.2l.1.1c.1.1.2.1.2.2l2.7 1.5 2.7 1.5 2.7 1.5 2.7 1.5 2.7 1.5 2.7 1.5 2.7 1.5 2.7 1.5 2.7 1.5 2.7 1.5c.2.1.4.2.7.3.3.1.6.1.8.1.3 0 .5 0 .8-.1.2 0 .3-.1.4-.1.1 0 .1 0 .3-.1.1-.1.2-3 .2-6.6v-1.7c-.3-3.5-.4-6.6-.5-6.6z"/><path class="st32" d="M442.4 351.9c0-.6 0-1.9-.1-3.2-.1-1.8-.2-2-.2-2s-1-1.8.3-3.4c.4-.3.7 2.4.7 6.1-.4.8-.7 1.7-.7 2.5z"/><path class="st30" d="M433.8 349c2.6 10.9 12.4 19.1 24.1 19.1 6 0 11.5-2.1 15.7-5.7-2.6-10.9-12.4-19.1-24.1-19.1-6 .1-11.5 2.2-15.7 5.7zm-6.1 13.1v-1.7c0-3.7.1-6.8.2-6.8-.6-.3-.8-.8-.5-1.3v.1c-.1.2-.1.4-.2.7 0 .2-.1.8-.1 2.6 0 1.6-.1 3.2-.1 3.8v1.7c0 2.5 0 5.4.2 6.5 0 .2 0 .3.1.4 0 .1.1.2.1.3 0 .1.1.1.2.2l.1.1c.1.1.2.1.2.2-.2-.2-.2-3.2-.2-6.8zm26.9 22.1c.2.1.4.2.7.3.3.1.6.1.8.1.3 0 .5 0 .8-.1.2 0 .3-.1.4-.1.1 0 .1 0 .3-.1.1-.1.2-3 .2-6.6V376c0-3.7-.1-6.8-.2-6.8-.8.5-2.1.5-2.9 0l-.1 15z"/><path class="st29" d="M454.7 369.1l-26.8-15.5c-.1.1-.2 3.1-.2 6.8v1.7c0 3.6.1 6.6.1 6.6l2.7 1.5 2.7 1.5 2.7 1.5 2.7 1.5 2.7 1.5 2.7 1.5 2.7 1.5 2.7 1.5 2.7 1.5 2.7 1.5-.1-14.6z"/><path class="st30" d="M427.7 362.1v-1.7c0-3.7.1-6.8.2-6.8-.6-.3-.8-.8-.5-1.3v.1c-.1.2-.1.4-.2.7 0 .2-.1.8-.1 2.6 0 1.6-.1 3.2-.1 3.8v1.7c0 2.5 0 5.4.2 6.5 0 .2 0 .3.1.4 0 .1.1.2.1.3 0 .1.1.1.2.2l.1.1c.1.1.2.1.2.2-.2-.2-.2-3.2-.2-6.8z"/><path d="M427.5 352.2zm-.1.1zm0-.1s.1 0 0 0c.1 0 0 0 0 0zm.5-.3c-.1 0-.2.1-.3.2.1-.1.2-.2.3-.2zm-.3.2zm0 0z" fill="#d8d8da"/><path class="st31" d="M472.8 360.1c-5.1 3-10.1 6-15.2 8.9-.8.5-2.1.5-2.9 0-8.9-5.2-17.9-10.3-26.8-15.5-.8-.5-.8-1.2 0-1.7 4.9-2.8 9.8-5.7 14.6-8.5-2 2.8 1.4 7.9 8.7 12.1 7.7 4.5 17 6.5 21.6 4.7z"/><path class="st34" d="M451.4 360.4l-8.1-4.7-2.5 1.5 8.1 4.7 2.5-1.5z"/><path d="M474.6 366c0-3.7-.8-6.3-1.8-5.9l-15.2 8.9c.1.1.2 3.1.2 6.8v1.7c0 3.6-.1 6.6-.2 6.6.2-.2.5-.3.8-.4l.8-.4c.2-.2.5-.3.8-.4.2-.1.5-.3.8-.4l3-1.8c3.1-1.8 6.1-3.6 9.2-5.4 1-.6 1.7-3.9 1.7-7.5l-.1-1.8z" fill="#acabb1"/><path d="M449.5 369.5c-.7-.4-1.3-.1-1.3.7 0 .8.6 1.8 1.3 2.2.7.4 1.3.1 1.3-.7 0-.8-.6-1.8-1.3-2.2zm0 6.6c-.7-.4-1.3-.1-1.3.7 0 .8.6 1.8 1.3 2.2.7.4 1.3.1 1.3-.7 0-.7-.6-1.7-1.3-2.2zm3.3-1.4c-.7-.4-1.3-.1-1.3.7 0 .8.6 1.8 1.3 2.2.7.4 1.3.1 1.3-.7 0-.8-.6-1.8-1.3-2.2zm-19.9-15c-.7-.4-1.3-.1-1.3.7 0 .8.6 1.8 1.3 2.2.7.4 1.3.1 1.3-.7 0-.8-.6-1.8-1.3-2.2zm0 6.7c-.7-.4-1.3-.1-1.3.7 0 .8.6 1.8 1.3 2.2.7.4 1.3.1 1.3-.7 0-.8-.6-1.8-1.3-2.2zm-3.3-5.3c-.7-.4-1.3-.1-1.3.7 0 .8.6 1.8 1.3 2.2.7.4 1.3.1 1.3-.7 0-.8-.6-1.8-1.3-2.2z" fill="#59a4ff"/><path class="st32" d="M447.6 350.7c1.7 0 3.1-1.4 3.1-3.1s-1.4-3.1-3.1-3.1c-1.7 0-3.1 1.4-3.1 3.1s1.5 3.1 3.1 3.1z"/><path class="st28" d="M450.8 360.6c0-2.4-1.7-5.3-3.7-6.5-1-.6-2-.6-2.6-.3l-1.9 1.1s-1.1.5-1.1 2.4l7.5 4.4 1.8-1.1z"/><path class="st34" d="M447.1 354.1c-1-.6-2-.6-2.6-.3l-1.9 1.1c.7-.4 1.6-.3 2.6.3 2.1 1.2 3.7 4.1 3.7 6.5l1.9-1.1c0-2.4-1.6-5.3-3.7-6.5z"/><path class="st30" d="M447.8 354.9l-1.7 1 .1.1 1.9-1.1-.1-.1-.2.1zm1.7 1.6l-.1-.1-1.9 1.1.1.1 1.9-1.1zm-3.5-2.8h-.2l-1.9 1.1h.2l1.9-1.1zm-.8 1.5l.1.1 1.9-1.1-.1-.1-1.9 1.1zm1.7 1.5l.1.1 1.9-1.1-.1-.1-1.9 1.1zm1.6 2.7v.1l1.9-1.1v-.1l-1.9 1.1zm-.4-.9s0 .1.1.1l1.9-1.1s0-.1-.1-.1l-1.9 1.1zm.7 2v.2l1.9-1.1v-.2l-1.9 1.1z"/><path class="st29" d="M445.2 355.2c-2.1-1.2-3.7-.2-3.7 2.1l7.5 4.4c-.1-2.4-1.8-5.3-3.8-6.5z"/><path class="st28" d="M445.2 357.2c-1.1-.6-2-.1-2 1.2l4.1 2.4c-.1-1.4-1-3-2.1-3.6z"/></g><defs><path id="SVGID_00000174586394101465895190000008640222379766339519_" d="M245 773h60v60h-60z"/></defs><clipPath id="SVGID_00000061455576365049753660000011386871015051171458_"><use xlink:href="#SVGID_00000174586394101465895190000008640222379766339519_" overflow="visible"/></clipPath><g clip-path="url(#SVGID_00000061455576365049753660000011386871015051171458_)"><path class="st38" d="M296.4 819.1c0-6.3-2.6-13.3-6.4-18.4.1-.7.1-1.4.1-2.1 0-9.3-5.7-20.1-12.6-24.1-3.4-2-6.5-2-8.8-.3l-4.1 2.3c-2.8 1.5-4.6 5.1-4.6 10.4 0 .7 0 1.5.1 2.2-3.8.7-6.4 4.7-6.4 11 0 9.3 5.7 20.1 12.6 24.1 2.3 1.3 4.5 1.8 6.3 1.4 1.9 2.5 4 4.6 6.3 5.9 3.3 1.9 6.2 2 8.5.5l4.8-2.8c2.5-1.5 4.2-5.1 4.2-10.1z"/><path d="M283.7 811.8c0 9.3-5.7 13.6-12.6 9.5-7-4-12.6-14.8-12.6-24.1s5.7-13.6 12.6-9.5c7 4 12.6 14.8 12.6 24.1z" fill="#f7e041"/><path d="M264.9 786.3c.8 8.7 6.1 18.2 12.5 21.9 2.3 1.3 4.4 1.7 6.2 1.4-.8-8.7-6.1-18.2-12.5-21.9-2.3-1.3-4.4-1.7-6.2-1.4z" fill="#e9662c"/><path d="M277.4 808.2c2.3 1.3 4.4 1.7 6.2 1.4-.5-5.6-2.9-11.5-6.2-16-3.3.6-5.7 3.8-6.2 8.8 1.8 2.5 4 4.5 6.2 5.8z" fill="#d36bc5"/><path d="M277.4 808.2c-2.3-1.3-4.4-3.3-6.2-5.8-.1.7-.1 1.4-.1 2.1 0 6.2 2.5 13.1 6.3 18.2 3.8-.7 6.3-4.7 6.3-10.9 0-.7 0-1.5-.1-2.2-1.8.3-3.9-.1-6.2-1.4z" fill="#a4c639"/><path class="st43" d="M285.2 801.4c0 9.3-5.7 13.6-12.6 9.5-7-4-12.6-14.8-12.6-24.1s5.7-13.6 12.6-9.5c7 4 12.6 14.8 12.6 24.1z"/><path d="M277.4 774.5c-3.4-2-6.5-2-8.8-.3l-4.1 2.3c2.2-1.1 5-1 8 .8 7 4 12.6 14.8 12.6 24.1 0 .7 0 1.4-.1 2.1l4.8-2.8c.1-.7.1-1.4.1-2.1.2-9.3-5.5-20.1-12.5-24.1z" fill="#750601"/><path class="st20" d="M278.9 814.6c0 9.3-5.7 13.6-12.6 9.5-7-4-12.6-14.8-12.6-24.1s5.7-13.6 12.6-9.5c6.9 4 12.6 14.8 12.6 24.1z"/><path class="st45" d="M260.1 789.1c.8 8.7 6.1 18.2 12.5 21.9 2.3 1.3 4.4 1.7 6.2 1.4-.8-8.7-6.1-18.2-12.5-21.9-2.3-1.3-4.4-1.7-6.2-1.4z"/><path class="st46" d="M291.5 821.9c0 9.3-5.7 13.6-12.6 9.5-7-4-12.6-14.8-12.6-24.1s5.7-13.6 12.6-9.5c7 4 12.6 14.8 12.6 24.1z"/><path class="st47" d="M266.4 805.2c1.8 2.4 3.9 4.5 6.2 5.8 6.4 3.7 11.7.4 12.5-7.4-1.8-2.4-4-4.5-6.2-5.8-6.4-3.7-11.7-.4-12.5 7.4z"/><path d="M272.6 811c2.3 1.3 4.4 1.7 6.2 1.4-.5-5.6-2.9-11.5-6.2-16-3.3.6-5.7 3.8-6.2 8.8 1.8 2.5 3.9 4.5 6.2 5.8z" fill="#ea6e8a"/><path class="st49" d="M272.6 811c-2.3-1.3-4.4-3.3-6.2-5.8-.1.7-.1 1.4-.1 2.1 0 6.2 2.5 13.1 6.3 18.2 3.8-.7 6.3-4.7 6.3-10.9 0-.7 0-1.5-.1-2.2-1.8.3-4-.1-6.2-1.4z"/></g><path class="st50" d="M496.8 900l-31.2-18-2.5 1.5V924l31.2 18 2.5-1.5V900z"/><path class="st51" d="M463.2 924v-40.5l31.2 18v40.6L463.2 924z"/><path class="st52" d="M463.2 883.5l2.5-1.5 31.2 18-2.5 1.5-31.2-18z"/><path d="M467.1 890.2l23.4 13.5v31.5l-23.4-13.5v-31.5z" fill="#008bbf"/><path d="M467.1 911.1v-20.9l23.4 13.5v20.9l-23.4-13.5z" fill="#33c8ff"/><path class="st49" d="M467.1 911.1l7.2-4.2 5.1 8.4 5-.9 6.2 10.2-23.5-13.5z"/><path class="st20" d="M486.7 909.9c0 2.7-1.7 4-3.7 2.8-2.1-1.2-3.7-4.4-3.7-7.1 0-2.7 1.7-4 3.7-2.8 2 1.2 3.7 4.4 3.7 7.1z"/><defs><path id="SVGID_00000009553940406868810880000017611756825410612135_" d="M584 789h60v60h-60z"/></defs><clipPath id="SVGID_00000055688562692784632870000010765431748101870982_"><use xlink:href="#SVGID_00000009553940406868810880000017611756825410612135_" overflow="visible"/></clipPath><g clip-path="url(#SVGID_00000055688562692784632870000010765431748101870982_)"><path d="M626.3 800.9l-20.1-11.5c-.8-.5-1.7-.4-2.4 0l-3.3 2c-.9.3-1.5 1.1-1.5 2.2v38.8c0 2 1.1 3.9 2.8 4.9l20.1 11.5c.7.4 1.5.4 2.2.1l3.8-2.2c.7-.4 1.2-1.1 1.2-2V806c0-2.3-1.1-4.1-2.8-5.1z" fill="#9f9ead"/><path d="M598.9 832.3v-38.8c0-1.8 2-2.9 3.5-2l20.1 11.5c1.8 1 2.8 2.9 2.8 4.9v38.7c0 1.8-2 2.9-3.5 2l-20.1-11.5c-1.7-.9-2.8-2.8-2.8-4.8z" fill="#e3e3e3"/><path class="st46" d="M601.4 794.8l20.6 11.7v35l-20.6-12v-34.7z"/><path class="st43" d="M605.2 799l1.9 1.1c.7.4 1.1 1.2 1.1 2v3.1c0 .7-.8 1.1-1.4.8l-1.9-1.1c-.7-.4-1.1-1.2-1.1-2v-3.1c0-.7.7-1.1 1.4-.8z"/><path class="st47" d="M610.9 802.3l1.9 1.1c.7.4 1.1 1.2 1.1 2v3.1c0 .7-.8 1.1-1.4.8l-1.9-1.1c-.7-.4-1.1-1.2-1.1-2v-3.1c0-.7.8-1.1 1.4-.8z"/><path class="st38" d="M616.7 805.6l1.9 1.1c.7.4 1.1 1.2 1.1 2v3.1c0 .7-.8 1.1-1.4.8l-1.9-1.1c-.7-.4-1.1-1.2-1.1-2v-3.1c0-.8.7-1.2 1.4-.8z"/><path class="st49" d="M605.2 807.4l1.9 1.1c.7.4 1.1 1.2 1.1 2v3.1c0 .7-.8 1.1-1.4.8l-1.9-1.1c-.7-.4-1.1-1.2-1.1-2v-3.1c0-.7.7-1.1 1.4-.8z"/><path class="st20" d="M610.9 810.7l1.9 1.1c.7.4 1.1 1.2 1.1 2v3.1c0 .7-.8 1.1-1.4.8l-1.9-1.1c-.7-.4-1.1-1.2-1.1-2v-3.1c0-.7.8-1.1 1.4-.8z"/><path class="st45" d="M616.7 814l1.9 1.1c.7.4 1.1 1.2 1.1 2v3.1c0 .7-.8 1.1-1.4.8l-1.9-1.1c-.7-.4-1.1-1.2-1.1-2v-3.1c0-.7.8-1.1 1.4-.8z"/><path class="st38" d="M605.1 815.9l1.9 1.1c.7.4 1.1 1.2 1.1 2v3.1c0 .7-.8 1.1-1.4.8l-1.9-1.1c-.7-.4-1.1-1.2-1.1-2v-3.1c.1-.7.8-1.1 1.4-.8z"/><path class="st43" d="M610.9 819.2l1.9 1.1c.7.4 1.1 1.2 1.1 2v3.1c0 .7-.8 1.1-1.4.8l-1.9-1.1c-.7-.4-1.1-1.2-1.1-2V820c0-.7.8-1.2 1.4-.8z"/><path class="st47" d="M616.7 822.5l1.9 1.1c.7.4 1.1 1.2 1.1 2v3.1c0 .7-.8 1.1-1.4.8l-1.9-1.1c-.7-.4-1.1-1.2-1.1-2v-3.1c0-.8.8-1.2 1.4-.8z"/><path class="st20" d="M605.1 824.3l1.9 1.1c.7.4 1.1 1.2 1.1 2v3.1c0 .7-.8 1.1-1.4.8l-1.9-1.1c-.7-.4-1.1-1.2-1.1-2v-3.1c.1-.7.8-1.1 1.4-.8z"/><path class="st49" d="M610.9 827.6l1.9 1.1c.7.4 1.1 1.2 1.1 2v3.1c0 .7-.8 1.1-1.4.8l-1.9-1.1c-.7-.4-1.1-1.2-1.1-2v-3.1c0-.7.8-1.1 1.4-.8z"/><path class="st38" d="M616.7 830.9l1.9 1.1c.7.4 1.1 1.2 1.1 2v3.1c0 .7-.8 1.1-1.4.8l-1.9-1.1c-.7-.4-1.1-1.2-1.1-2v-3.1c0-.7.8-1.2 1.4-.8z"/><path d="M612.8 839.9c0 1.3-.8 1.9-1.7 1.3-1-.6-1.7-2.1-1.7-3.3 0-1.3.8-1.9 1.7-1.3.9.6 1.7 2.1 1.7 3.3z" fill="#d1d1d1"/><path d="M601.4 825.2l20.6-15.6v-3.1l-14.8-8.4-5.8 4.4v22.7zm20.6 8.5V818l-17.5 13.2 11.7 6.8 5.8-4.3z" opacity=".1" fill="#fff"/></g><path d="M594 595l-13 7.5v7.5l26 15 25.8-14.9v-7.6l-12.8-7.4-26-.1z" fill="#8475ff"/><path class="st61" d="M607.1 565l25.8 15v7.6l-25.8 14.9-26-15V580l26-15z"/><path class="st45" d="M607.1 565l-26 15 26 15 25.8-15-25.8-15z"/><path d="M607.1 617.5v7.5l25.8-14.9v-7.6l-25.8 15z" fill="#30469a"/><path class="st47" d="M607.1 602.6L594 595l-13 7.5 26 15 25.8-15-12.8-7.4-12.9 7.5z"/><path d="M607.1 595.1v7.5l25.8-14.9V580l-25.8 15.1z" fill="#ff4404"/><path class="st61" d="M581.1 580l26 15v7.5l-26-15V580z"/><path class="st50" d="M133.8 324l-31.3-18-2.3 1.3v40.6l31.3 18.1 2.3-1.3V324z"/><path class="st51" d="M100.2 347.9v-40.6l31.3 18v40.6l-31.3-18z"/><path class="st52" d="M100.2 307.3l2.3-1.3 31.3 18-2.3 1.4-31.3-18.1z"/><path class="st50" d="M102.3 324.5l11.7 6.8v15.9l-11.7-6.8v-15.9z"/><path class="st47" d="M131.5 336.7l-31.3-18v-11.3l31.3 18v11.3z"/><path class="st1" d="M126.6 329.8L105.1 317v-2.9l21.6 12.8v2.9z"/><path d="M127.4 341l-11.5-6.6v-2.1l11.5 6.6v2.1zm0 4.5l-11.5-6.6v-2.1l11.5 6.6v2.1zm0 4.5l-11.5-6.6v-2.1l11.5 6.6v2.1zm0 4.5l-11.5-6.6v-2.1l11.5 6.6v2.1zm0 4.7l-25.1-14.5v-2.1l25.1 14.5v2.1z" fill="#969698"/></svg>