<svg width="735" height="1157" fill="none" xmlns="http://www.w3.org/2000/svg"><g clip-path="url(#clip0_0_29)"><path fill-rule="evenodd" clip-rule="evenodd" d="M379.1 878.104c146.109 76.767 259.283 6.335 252.759-157.368l2.098 1.102c6.577 165.029-107.51 236.001-254.762 158.634l-.095-2.368z" fill="#4D4D4D"/><path fill-rule="evenodd" clip-rule="evenodd" d="M355.403 284.771c-12.313-6.471-24.573-11.982-36.694-16.496-.334-.124-.655-.553-.717-.957-.061-.405.16-.631.495-.507 12.176 4.534 24.492 10.071 36.861 16.571m276.89 437.489c-6.533-163.915-130.433-359.179-276.835-436.1m-.055-1.389c147.072 77.273 271.557 273.444 278.12 438.136.016.383-.247.549-.587.371-.34-.179-.628-.634-.643-1.018" fill="#4D4D4D"/><path fill-rule="evenodd" clip-rule="evenodd" d="M318.786 268.791c-127.963-47.61-222.145 24.124-216.177 173.871l-2.098-1.102c-6.016-150.961 88.926-223.25 217.895-175.265l.38 2.496z" fill="#4D4D4D"/><path fill-rule="evenodd" clip-rule="evenodd" d="M101.935 442.367c6.54 164.107 130.6 359.604 277.153 436.605l.028.699c-146.892-77.178-271.245-273.131-277.801-437.63l.62.326z" fill="#262626"/><g filter="url(#filter0_d_0_29)"><path d="M482.082 963.545c26.374 13.857 46.8 1.139 45.623-28.407-1.178-29.546-23.513-64.731-49.887-78.588-26.375-13.858-46.801-1.14-45.624 28.406 1.178 29.546 23.513 64.732 49.888 78.589z" fill="#fff"/></g><g filter="url(#filter1_d_0_29)"><path fill-rule="evenodd" clip-rule="evenodd" d="M477.859 857.594c-25.87-13.593-45.894-1.113-44.739 27.848 1.154 28.962 23.05 63.466 48.92 77.059 25.87 13.592 45.894 1.113 44.74-27.849-1.154-28.962-23.051-63.466-48.921-77.058zm-46.59 26.876c-1.2-30.13 19.628-43.087 46.507-28.965 26.879 14.123 49.653 49.989 50.854 80.119 1.201 30.13-19.628 43.088-46.507 28.965-26.878-14.122-49.653-49.989-50.854-80.119z" fill="#4D4D4D"/></g><g filter="url(#filter2_d_0_29)"><path d="M278.886 856.787c26.375 13.857 46.801 1.139 45.624-28.407-1.178-29.546-23.513-64.731-49.888-78.589-26.374-13.857-46.8-1.139-45.623 28.407 1.178 29.546 23.513 64.731 49.887 78.589z" fill="#fff"/></g><g filter="url(#filter3_d_0_29)"><path fill-rule="evenodd" clip-rule="evenodd" d="M274.664 750.836c-25.87-13.593-45.894-1.114-44.74 27.848 1.154 28.962 23.051 63.466 48.921 77.059 25.87 13.592 45.894 1.113 44.739-27.849-1.154-28.962-23.05-63.466-48.92-77.058zm-46.59 26.876c-1.201-30.13 19.628-43.087 46.507-28.965 26.878 14.122 49.653 49.989 50.854 80.119 1.2 30.13-19.628 43.087-46.507 28.965-26.879-14.122-49.653-49.989-50.854-80.119z" fill="#4D4D4D"/></g><g filter="url(#filter4_d_0_29)"><path d="M128.566 620.476c26.375 13.858 46.801 1.14 45.623-28.406-1.177-29.546-23.513-64.732-49.887-78.589s-46.8-1.139-45.623 28.407c1.177 29.546 23.513 64.731 49.887 78.588z" fill="#fff"/></g><g filter="url(#filter5_d_0_29)"><path fill-rule="evenodd" clip-rule="evenodd" d="M124.344 514.525c-25.87-13.592-45.894-1.113-44.74 27.849 1.154 28.962 23.05 63.466 48.92 77.058 25.871 13.593 45.894 1.114 44.74-27.848-1.154-28.962-23.05-63.466-48.92-77.059zm-46.59 26.877c-1.201-30.13 19.628-43.087 46.506-28.965 26.879 14.122 49.653 49.989 50.854 80.119 1.201 30.13-19.628 43.087-46.506 28.965-26.879-14.123-49.654-49.989-50.854-80.119z" fill="#4D4D4D"/></g><g filter="url(#filter6_d_0_29)"><path d="M119.261 392.482c26.375 13.857 46.801 1.139 45.624-28.407-1.178-29.546-23.513-64.731-49.888-78.589-26.374-13.857-46.8-1.139-45.623 28.407 1.178 29.546 23.513 64.731 49.887 78.589z" fill="#fff"/></g><g filter="url(#filter7_d_0_29)"><path fill-rule="evenodd" clip-rule="evenodd" d="M115.039 286.53c-25.87-13.592-45.894-1.113-44.74 27.849 1.154 28.962 23.05 63.466 48.921 77.058 25.87 13.593 45.894 1.114 44.739-27.848-1.154-28.962-23.05-63.466-48.92-77.059zm-46.59 26.877c-1.2-30.13 19.628-43.087 46.507-28.965 26.878 14.122 49.653 49.989 50.854 80.119 1.2 30.13-19.628 43.087-46.507 28.965-26.879-14.123-49.653-49.989-50.854-80.119z" fill="#4D4D4D"/></g><g filter="url(#filter8_d_0_29)"><path d="M493.374 415.754c17.817-11.094 16.467-44.967-3.015-75.657-19.482-30.691-49.719-46.578-67.536-35.484-17.817 11.093-16.467 44.966 3.015 75.657 19.482 30.691 49.719 46.577 67.536 35.484z" fill="#fff"/></g><g filter="url(#filter9_d_0_29)"><path fill-rule="evenodd" clip-rule="evenodd" d="M423.509 305.693c-17.471 10.878-16.147 44.092 2.956 74.186 19.104 30.094 48.753 45.672 66.223 34.794 17.471-10.878 16.147-44.092-2.956-74.186-19.104-30.094-48.753-45.672-66.223-34.794zm1.702 74.967c-19.861-31.287-21.237-65.819-3.074-77.128 18.163-11.309 48.988 4.887 68.849 36.174 19.861 31.288 21.237 65.819 3.074 77.128-18.163 11.31-48.988-4.886-68.849-36.174z" fill="#4D4D4D"/></g><g filter="url(#filter10_d_0_29)"><path d="M655.439 627.694c3.055-27.034-15.789-63.902-42.088-82.348-26.299-18.446-50.095-11.485-53.149 15.548-3.054 27.034 15.789 63.902 42.089 82.348 26.299 18.446 50.094 11.485 53.148-15.548z" fill="#fff"/></g><g filter="url(#filter11_d_0_29)"><path fill-rule="evenodd" clip-rule="evenodd" d="M561.125 561.542c-2.994 26.499 15.478 62.652 41.274 80.745 25.795 18.093 49.124 11.259 52.118-15.24 2.994-26.5-15.478-62.653-41.274-80.746-25.796-18.093-49.125-11.259-52.118 15.241zm41.058 82.655c-26.803-18.799-46.018-56.382-42.904-83.95 3.115-27.567 27.377-34.655 54.18-15.856 26.802 18.799 46.018 56.383 42.903 83.95-3.114 27.567-27.377 34.656-54.179 15.856z" fill="#4D4D4D"/></g><g filter="url(#filter12_d_0_29)"><path d="M664.327 861.368c4.826-25.64-12.302-62.791-38.258-82.98-25.956-20.189-50.91-15.77-55.736 9.87-4.827 25.639 12.302 62.791 38.258 82.98 25.956 20.189 50.91 15.77 55.736-9.87z" fill="#fff"/></g><g filter="url(#filter13_d_0_29)"><path fill-rule="evenodd" clip-rule="evenodd" d="M571.243 788.966c-4.731 25.134 12.06 61.564 37.518 81.366 25.459 19.802 49.924 15.462 54.655-9.672 4.731-25.134-12.059-61.564-37.518-81.366-25.458-19.802-49.923-15.462-54.655 9.672zm37.177 83.178c-26.453-20.576-43.92-58.449-38.998-84.595 4.922-26.145 30.364-30.642 56.817-10.067 26.453 20.576 43.92 58.449 38.999 84.595-4.922 26.145-30.365 30.642-56.818 10.067z" fill="#4D4D4D"/></g><g filter="url(#filter14_d_0_29)"><path d="M289.788 308.74c17.817-11.093 16.467-44.966-3.015-75.657-19.482-30.691-49.719-46.578-67.536-35.484-17.817 11.093-16.467 44.966 3.015 75.657 19.482 30.691 49.719 46.578 67.536 35.484z" fill="#fff"/></g><g filter="url(#filter15_d_0_29)"><path fill-rule="evenodd" clip-rule="evenodd" d="M219.923 198.679c-17.471 10.878-16.147 44.093 2.956 74.187 19.104 30.094 48.753 45.671 66.223 34.794 17.471-10.878 16.147-44.092-2.956-74.186-19.104-30.095-48.753-45.672-66.223-34.795zm1.702 74.968c-19.861-31.288-21.237-65.819-3.074-77.129 18.163-11.309 48.988 4.887 68.849 36.174 19.861 31.288 21.237 65.819 3.074 77.129-18.163 11.309-48.988-4.887-68.849-36.174z" fill="#4D4D4D"/></g><g filter="url(#filter16_d_0_29)"><path d="M523.762 580.682l6.776 170.034c.236 5.617-.854 10.445-3.16 13.994-2.306 3.549-5.746 5.694-9.973 6.219l-128.058 15.954c-4.211.528-9.058-.575-14.052-3.199-4.994-2.623-9.958-6.675-14.393-11.746l-59.956-68.496-74.878-85.584a67.117 67.117 0 01-10.873-17.127c-2.69-6.153-4.224-12.337-4.449-17.929l-6.776-170.034c-.224-5.592.871-10.395 3.175-13.926 2.304-3.53 5.735-5.663 9.948-6.185l128.058-15.954c4.213-.523 9.06.583 14.053 3.206 4.993 2.624 9.956 6.672 14.392 11.74l107.112 122.404 27.723 31.676a67.096 67.096 0 0110.856 17.067c2.691 6.134 4.234 12.301 4.475 17.886z" fill="#FE90C7"/></g><path d="M480.704 513.943L300.942 703.332l-74.878-85.584a67.134 67.134 0 01-10.873-17.127c-2.69-6.153-4.224-12.337-4.449-17.929l-1.394-34.983 155.824-164.093c2.952 2.226 5.809 4.908 8.462 7.945l107.07 122.382z" fill="#FE6BB4"/><path d="M513.016 740.971l-6.444-161.689c-.121-2.997-.944-6.31-2.384-9.607a36.03 36.03 0 00-5.822-9.179L370.149 413.993c-2.375-2.717-5.034-4.888-7.708-6.293-2.675-1.405-5.271-1.996-7.526-1.711l-121.772 15.203c-2.255.284-4.091 1.43-5.325 3.322-1.233 1.892-1.821 4.465-1.703 7.459l6.443 161.69c.122 2.997.944 6.31 2.384 9.606a36.015 36.015 0 005.823 9.179l128.217 146.519c2.377 2.711 5.035 4.877 7.708 6.281 2.673 1.405 5.269 1.999 7.526 1.723L505.99 751.8c2.261-.285 4.1-1.437 5.334-3.337 1.233-1.901 1.817-4.485 1.692-7.492z" fill="#E06AE9"/><path d="M504.635 574.882l6.444 161.69c.122 2.996-.464 5.569-1.698 7.459-1.234 1.89-3.073 3.031-5.331 3.306l-121.758 15.195c-2.261.274-4.858-.322-7.534-1.727-2.675-1.406-5.335-3.573-7.715-6.285l-72.816-83.206-55.402-63.328a36 36 0 01-5.82-9.17c-1.44-3.294-2.263-6.605-2.385-9.6l-6.444-161.69c-.114-2.992.474-5.562 1.708-7.454 1.233-1.892 3.067-3.039 5.32-3.327l80.876-10.085 40.897-5.086c2.258-.283 4.856.308 7.533 1.715 2.677 1.406 5.338 3.578 7.716 6.296l83.499 95.432 44.69 51.072a35.953 35.953 0 015.834 9.18c1.443 3.299 2.266 6.615 2.386 9.613z" fill="#7A18D5"/><path d="M280.984 456.711l165.1 86.745-.973 21.535-160.815-84.905-3.312-23.375zm35.442 135.926l55.846 76.099 2.649 14.889-1.576 12.026-72.111-98.384 15.192-4.63z" fill="#fff"/><path d="M315.024 580.725l1.496 12.27-5.799 4.966-9.5-.699-6.201-43.043 20.004 26.506zm107.911 68.485l-50.662 19.524-.498 12.76 1.571 14.155 66.136-26.261-4.951-22.521-11.596 2.343zm-82.183-66.045l67.405 35.415-5.857 16.097-65.535-34.433 3.987-17.079zM284.227 479.35l19.712 8.798 5.703 53.548-16.562.116-8.853-62.462z" fill="#fff"/><path d="M293.062 541.808l16.355-.738 32.744 43.043-5.405 16.13-43.694-58.435z" fill="#fff"/><path d="M293.062 541.808l16.355-.738 32.744 43.043-5.405 16.13-43.694-58.435zm134.927 11.762l17.209 9.214-2.542 51.061-16.485-23.222 1.818-37.053zm-94.301-23.846l67.872 35.661.784 19.689-67.872-35.661-.784-19.689z" fill="#fff"/><path d="M401.586 565.397l40.118 56.146-14.397 3.92-36.566-50.178 10.845-9.888z" fill="#fff"/><path d="M441.688 621.534l-2.212 47.851-16.548-20.178.914-38.074 17.846 10.401zm-129.243-82.978l21.25-8.83 12.386 19.12-19.268 8.026-14.368-18.316zm83.652 73.586l12.429-5.056 11.495 17.421-17.717 10.173-6.207-22.538z" fill="#fff"/><path d="M451.342 504.667L293.845 670.964l-55.403-63.328a36 36 0 01-5.82-9.17c-1.44-3.295-2.263-6.605-2.385-9.6l-3.692-92.637 85.152-89.919 40.898-5.086c2.257-.284 4.855.308 7.532 1.714 2.677 1.407 5.339 3.579 7.716 6.297l83.499 95.432z" fill="#7E44FE" fill-opacity=".1"/><path d="M432.632 492.222c-.213 1.681-.92 2.964-2.029 3.681-1.109.716-2.567.832-4.182.331 1.632 1.218 3.149 2.902 4.353 4.833 1.204 1.93 2.038 4.017 2.394 5.987.217-1.669.921-2.945 2.021-3.665 1.1-.719 2.545-.848 4.148-.369-1.625-1.224-3.131-2.908-4.327-4.833-1.195-1.924-2.023-4.003-2.378-5.965z" fill="#E3E4E9"/><path d="M417.078 453.311c-.351 2.837-1.532 5.011-3.388 6.236-1.857 1.225-4.302 1.444-7.016.629 2.762 2.067 5.328 4.92 7.363 8.189s3.445 6.801 4.045 10.136c.356-2.831 1.538-5.001 3.394-6.225 1.856-1.224 4.298-1.447 7.009-.64-2.762-2.066-5.328-4.92-7.363-8.189s-3.444-6.801-4.044-10.136zm-148.844 199.84c6.023 3.165 10.682.112 10.406-6.818-.276-6.93-5.383-15.113-11.406-18.278-6.023-3.164-10.682-.112-10.406 6.818.276 6.93 5.383 15.113 11.406 18.278z" fill="#fff"/><path d="M151.039 631.062c2.119 1.113 3.76.091 3.665-2.283-.095-2.373-1.889-5.2-4.008-6.313-2.119-1.114-3.76-.092-3.665 2.282.094 2.374 1.889 5.2 4.008 6.314zm287.9 272.976c.042.987-.178 1.815-.632 2.38s-1.122.841-1.919.792c-.797-.048-1.687-.418-2.558-1.062-.87-.645-1.682-1.536-2.331-2.559-.65-1.024-1.109-2.134-1.318-3.19-.21-1.057-.16-2.012.141-2.744.302-.732.842-1.209 1.553-1.369.711-.161 1.56.002 2.439.467 1.174.621 2.318 1.735 3.185 3.1.866 1.365 1.384 2.869 1.44 4.185zm189.099-246.076c.034.863-.161 1.586-.561 2.079-.399.492-.986.731-1.685.687-.699-.045-1.479-.371-2.241-.937-.763-.567-1.473-1.348-2.041-2.246-.568-.897-.969-1.87-1.151-2.795-.183-.925-.139-1.761.126-2.401.265-.641.739-1.058 1.362-1.197.623-.14 1.367.003 2.138.411a6.552 6.552 0 011.501 1.113c.48.468.921 1.014 1.298 1.609.376.594.681 1.225.896 1.856.215.631.337 1.25.358 1.821zM501.442 410.884c1.808.95 3.209.078 3.128-1.948-.08-2.026-1.612-4.438-3.42-5.388-1.809-.951-3.21-.078-3.129 1.947.081 2.026 1.612 4.439 3.421 5.389zm49.334 61.25c.03.808-.155 1.484-.532 1.943-.376.459-.927.681-1.583.637-.655-.043-1.386-.35-2.101-.882-.714-.531-1.379-1.264-1.912-2.105-.532-.841-.908-1.752-1.079-2.619-.172-.867-.131-1.651.116-2.253.247-.601.69-.993 1.273-1.127.582-.133 1.279-.002 2.001.377.481.253.961.61 1.414 1.05.452.44.868.955 1.222 1.515.355.56.642 1.154.845 1.749.202.594.317 1.177.336 1.715zm17.074 29.042c.031.832-.16 1.529-.548 2.003-.388.473-.956.702-1.632.657-.676-.044-1.429-.361-2.166-.909-.736-.548-1.422-1.303-1.971-2.17-.548-.866-.936-1.806-1.112-2.7-.177-.893-.136-1.701.119-2.321.255-.621.711-1.025 1.312-1.163.601-.137 1.319-.002 2.063.389.496.261.991.628 1.457 1.082.467.453.895.984 1.261 1.561.365.578.661 1.19.87 1.803.209.613.327 1.214.347 1.768zM174.261 274.758c2.213 1.162 3.926.095 3.827-2.383-.099-2.478-1.972-5.429-4.184-6.591-2.212-1.163-3.926-.096-3.827 2.382.099 2.478 1.972 5.429 4.184 6.592zm-63.798 110.508c.049 1.245-.232 2.289-.808 3.001-.577.711-1.422 1.057-2.431.993-1.008-.063-2.133-.532-3.233-1.348-1.1-.816-2.126-1.942-2.947-3.236-.822-1.293-1.402-2.697-1.667-4.032-.266-1.336-.205-2.544.175-3.471s1.061-1.532 1.957-1.738c.897-.206 1.969-.005 3.081.579 1.491.784 2.948 2.199 4.049 3.933 1.101 1.735 1.757 3.648 1.824 5.319zm-5.003 22.896c.031.776-.144 1.426-.503 1.869-.359.442-.886.657-1.513.618-.628-.039-1.328-.331-2.013-.839-.685-.508-1.323-1.209-1.835-2.014-.51-.806-.872-1.679-1.037-2.511-.166-.831-.128-1.583.109-2.16.236-.577.66-.954 1.218-1.082.559-.129 1.226-.003 1.918.361.46.239.92.579 1.353.999a7.97 7.97 0 011.171 1.446 7.92 7.92 0 01.809 1.673c.194.568.304 1.126.323 1.64zm251.661-119.961c1.63.856 2.892.07 2.82-1.756-.073-1.826-1.454-4-3.083-4.857-1.63-.856-2.893-.07-2.82 1.756.073 1.826 1.453 4 3.083 4.857zm-16.283-11.286c.02.511-.095.939-.332 1.23-.236.292-.583.434-.996.408-.414-.026-.875-.218-1.326-.553a4.968 4.968 0 01-1.208-1.327 4.94 4.94 0 01-.684-1.653c-.109-.548-.084-1.043.072-1.423.156-.38.435-.628.803-.713.367-.084.807-.002 1.263.238.303.157.606.38.892.657.285.276.548.6.772.953.224.353.405.727.532 1.102.128.375.2.742.212 1.081zm255.797 587.098c1.87.983 3.319.081 3.235-2.014-.083-2.096-1.667-4.591-3.538-5.574-1.87-.983-3.319-.081-3.236 2.015.084 2.095 1.668 4.591 3.539 5.573zm-10.043 11.401c1.382.726 2.452.06 2.39-1.488-.062-1.548-1.232-3.391-2.613-4.117-1.382-.726-2.452-.059-2.39 1.488.062 1.548 1.232 3.391 2.613 4.117zm-47.38-10.221l-29.106-15.292-7.194-11.349-1.3-32.605 6.579-4.097 29.106 15.293 7.208 11.34 1.299 32.605-6.592 4.105z" fill="#4D4D4D"/><path d="M512.037 800.421l-1.56-.82.208 5.227 1.56.82-.208-5.227zm3.789 1.986l-1.56-.82.208 5.227 1.56.82-.208-5.227zm3.773 1.987l-1.56-.82.208 5.227 1.56.82-.208-5.227zm3.781 1.986l-1.56-.82.209 5.227 1.56.82-.209-5.227zm3.782 1.986l-1.56-.819.208 5.227 1.56.819-.208-5.227zm3.789 1.994l-1.56-.82.208 5.227 1.56.82-.208-5.227zm3.789 1.986l-1.56-.819.208 5.227 1.56.819-.208-5.227zm-20.711 37.936l-1.56-.82.208 5.227 1.56.82-.208-5.227zm3.781 1.986l-1.56-.82.208 5.227 1.56.82-.208-5.227zm3.773 1.986l-1.56-.819.209 5.227 1.56.819-.209-5.227zm3.79 1.987l-1.561-.82.209 5.227 1.56.82-.208-5.227zm3.773 1.986l-1.56-.82.208 5.227 1.56.82-.208-5.227zm3.797 1.994l-1.56-.82.208 5.227 1.56.82-.208-5.227zm3.781 1.986l-1.56-.82.208 5.227 1.56.82-.208-5.227zm11.096-27.606l-.07-1.748-4.666-2.451.07 1.747 4.666 2.452zm.164 4.235l-.07-1.748-4.666-2.451.07 1.747 4.666 2.452zm.179 4.243l-.069-1.748-4.666-2.451.069 1.747 4.666 2.452zm.157 4.243l-.07-1.748-4.666-2.451.07 1.747 4.666 2.452zm.172 4.235l-.07-1.748-4.666-2.451.07 1.747 4.666 2.452zm.171 4.235l-.069-1.748-4.666-2.451.069 1.748 4.666 2.451zm.164 4.235l-.069-1.747-4.666-2.452.07 1.748 4.665 2.451zm-45.523-48.811l-.07-1.748-4.666-2.451.07 1.747 4.666 2.452zm.188 4.242l-.07-1.748-4.666-2.451.07 1.747 4.666 2.452zm.164 4.235l-.07-1.747-4.666-2.452.07 1.748 4.666 2.451zm.156 4.228l-.07-1.748-4.666-2.451.07 1.747 4.666 2.452zm.164 4.251l-.07-1.748-4.666-2.451.07 1.747 4.666 2.452zm.172 4.235l-.07-1.748-4.666-2.451.07 1.747 4.666 2.452zm.187 4.242l-.069-1.747-4.666-2.452.069 1.748 4.666 2.451z" fill="#B3B3B3"/><path fill-rule="evenodd" clip-rule="evenodd" d="M560.719 892.302l-18.469-29.095.828-.53 18.469 29.095-.828.53zm-55.881-88.048l-18.455-29.072.828-.53 18.454 29.072-.827.53z" fill="#4D4D4D"/><path d="M563.845 893.738c.039.637-.091 1.175-.374 1.545-.282.37-.704.556-1.21.532-.507-.023-1.075-.254-1.631-.663a6.082 6.082 0 01-1.491-1.63c-.415-.654-.707-1.364-.838-2.038-.13-.673-.094-1.281.104-1.743.198-.462.55-.758 1.009-.849.459-.092 1.006.025 1.568.336.722.399 1.422 1.09 1.955 1.929.533.84.858 1.764.908 2.581zM489.611 776.78c.024.604-.112 1.11-.39 1.457-.278.346-.686.517-1.173.49-.488-.026-1.032-.249-1.567-.639a5.904 5.904 0 01-1.436-1.556 5.929 5.929 0 01-.828-1.954c-.137-.65-.117-1.241.057-1.7.175-.459.496-.765.923-.879.428-.115.943-.034 1.481.234.733.385 1.451 1.076 1.999 1.926.548.849.883 1.79.934 2.621z" fill="#4D4D4D"/><path d="M250.979 358.117l-58.914-30.954-3.406-5.366-.482-12.091 3.115-1.956 58.914 30.954 3.42 5.389.482 12.091-3.129 1.933z" fill="#E06AE9"/><path d="M208.971 318.443l1.265.665-.193-4.85-1.265-.664.193 4.849zm-3.865-2.031l1.265.665-.193-4.849-1.265-.665.193 4.849zm11.609 6.1l1.265.664-.193-4.849-1.265-.664.193 4.849zm-3.865-2.031l1.265.665-.193-4.85-1.265-.664.193 4.849zm-11.608-6.099l1.264.664-.193-4.849-1.265-.664.194 4.849zm-7.744-4.069l1.265.665-.193-4.849-1.265-.665.193 4.849zm3.865 2.031l1.265.664-.194-4.849-1.264-.664.193 4.849zm23.217 12.198l1.265.665-.194-4.849-1.264-.665.193 4.849zm23.217 12.199l1.265.664-.194-4.849-1.264-.664.193 4.849zm-3.865-2.031l1.265.665-.193-4.849-1.265-.665.193 4.849zm7.536-.788l.194 4.849 1.279.672-.194-4.849-1.279-.672zm-23.023-7.349l1.236.65-.193-4.849-1.279-.672.236 4.871zm3.878 2.038l1.265.664-.193-4.849-1.265-.664.193 4.849zm3.865 2.03l1.265.665-.193-4.849-1.265-.665.193 4.849zm3.865 2.031l1.279.672-.193-4.849-1.279-.672.193 4.849zm-26.23 7.151l1.265.665-.194-4.865-1.264-.665.193 4.865zm-3.864-2.03l1.264.664-.193-4.865-1.265-.664.194 4.865zm11.608 6.099l1.265.664-.194-4.864-1.265-.665.194 4.865zm-3.865-2.031l1.265.665-.194-4.865-1.265-.665.194 4.865zm-11.608-6.099l1.265.665-.194-4.865-1.265-.665.194 4.865zm-7.744-4.069l1.265.665-.194-4.865-1.265-.664.194 4.864zm3.865 2.031l1.265.665-.194-4.865-1.265-.665.194 4.865zm23.217 12.198l1.265.665-.194-4.865-1.265-.664.194 4.864zm23.217 12.199l1.265.664-.194-4.864-1.265-.665.194 4.865zm-3.865-2.031l1.265.665-.194-4.865-1.265-.665.194 4.865zm7.536-.803l.194 4.865 1.279.671-.194-4.864-1.279-.672zm-23.023-7.334l1.237.65-.194-4.865-1.279-.672.236 4.887zm3.879 2.038l1.265.665-.194-4.865-1.265-.665.194 4.865zm3.865 2.031l1.264.664-.194-4.865-1.264-.664.194 4.865zm3.864 2.03l1.279.672-.194-4.865-1.279-.672.194 4.865zm228.207 125.373l-9.036-4.748-2.599-4.094-1.038-26.04 2.377-1.48 9.036 4.748 2.599 4.094 1.038 26.04-2.377 1.48z" fill="#E3E4E9"/><path d="M482.956 488.803l-9.037-4.748-2.598-4.094-1.038-26.04 2.376-1.48 9.037 4.748 2.613 4.101 1.037 26.041-2.39 1.472z" fill="#E06AE9"/><path d="M500.808 498.181l-9.037-4.748-2.599-4.094-1.038-26.04 2.377-1.48 9.037 4.748 2.598 4.093 1.038 26.041-2.376 1.48z" fill="#E3E4E9"/><path d="M187.896 483.892l-23.428-12.309-1.951-3.044-1.044-26.198 1.759-1.095 23.456 12.324 1.923 3.029 1.044 26.198-1.759 1.095z" fill="#B3B3B3"/><path d="M162.974 444.857l-4.779-2.51.05 1.243 4.778 2.511-.049-1.244zm.211 5.353l-4.779-2.51.05 1.243 4.778 2.511-.049-1.244zm.218 5.353l-4.778-2.51.05 1.243 4.778 2.511-.05-1.244zm.211 5.353l-4.778-2.51.05 1.243 4.778 2.511-.05-1.244zm.211 5.353l-4.778-2.51.049 1.243 4.779 2.511-.05-1.244zm28.188-6.156l-4.779-2.511.05 1.244 4.778 2.51-.049-1.243zm.211 5.353l-4.779-2.511.05 1.244 4.778 2.51-.049-1.243zm.218 5.353l-4.778-2.511.05 1.244 4.778 2.51-.05-1.243zm.211 5.352l-4.778-2.51.05 1.244 4.778 2.51-.05-1.244zm.211 5.353l-4.778-2.51.05 1.243 4.778 2.511-.05-1.244zm-7.752-27.22l-.214-5.353-1.11-.584.214 5.353 1.11.584zm-4.766-2.519l-.213-5.353-1.11-.584.213 5.353 1.11.584zm-4.773-2.511l-.214-5.353-1.11-.583.213 5.352 1.111.584zm-4.782-2.511l-.213-5.353-1.11-.583.213 5.353 1.11.583zm-4.773-2.51l-.213-5.353-1.111-.584.214 5.353 1.11.584zm20.391 42.562l-.214-5.353-1.11-.583.213 5.352 1.111.584zm-4.774-2.511l-.213-5.353-1.11-.583.213 5.353 1.11.583zm-4.781-2.511l-.213-5.353-1.111-.583.214 5.353 1.11.583zm-4.774-2.51l-.213-5.353-1.11-.584.213 5.353 1.11.584zm-4.765-2.504l-.213-5.352-1.111-.584.214 5.353 1.11.583z" fill="#E3E4E9"/><path d="M189.779 531.187l-23.428-12.309-1.951-3.045-1.044-26.198 1.758-1.095 23.456 12.324 1.924 3.03 1.044 26.198-1.759 1.095z" fill="#E06AE9"/><path d="M164.856 492.152l-4.778-2.51.05 1.243 4.778 2.511-.05-1.244zm.219 5.353l-4.778-2.511.049 1.244 4.779 2.511-.05-1.244zm.211 5.353l-4.778-2.511.049 1.244 4.779 2.511-.05-1.244zm.211 5.353l-4.778-2.511.049 1.244 4.779 2.51-.05-1.243zm.219 5.353l-4.778-2.511.049 1.244 4.778 2.511-.049-1.244zm28.179-6.157l-4.778-2.51.05 1.244 4.778 2.51-.05-1.244zm.219 5.353l-4.778-2.51.05 1.244 4.778 2.51-.05-1.244zm.211 5.353l-4.778-2.51.049 1.243 4.779 2.511-.05-1.244zm.211 5.353l-4.778-2.51.049 1.243 4.779 2.511-.05-1.244zm.219 5.353l-4.778-2.51.049 1.243 4.778 2.511-.049-1.244zm-7.76-27.221l-.214-5.353-1.11-.583.213 5.353 1.111.583zm-4.758-2.519l-.214-5.353-1.11-.583.213 5.353 1.111.583zm-4.774-2.511l-.213-5.352-1.11-.584.213 5.353 1.11.583zm-4.781-2.51l-.213-5.353-1.111-.583.214 5.353 1.11.583zm-4.773-2.511l-.214-5.353-1.11-.583.213 5.353 1.111.583zm20.382 42.562l-.213-5.353-1.11-.583.213 5.353 1.11.583zm-4.773-2.51l-.213-5.353-1.111-.584.214 5.353 1.11.584zm-4.781-2.511l-.214-5.353-1.11-.583.213 5.353 1.111.583zm-4.774-2.511l-.213-5.353-1.11-.583.213 5.353 1.11.583zm-4.757-2.503l-.214-5.353-1.11-.583.213 5.353 1.111.583z" fill="#E3E4E9"/><path d="M228.139 674.44l-13.843-7.273-1.145-1.788-.618-15.524 1.048-.636 13.843 7.273 1.144 1.788.619 15.524-1.048.636z" fill="#B3B3B3"/><path d="M213.403 651.377l-2.825-1.484.03.74 2.824 1.484-.029-.74zm.125 3.165l-2.825-1.484.03.74 2.824 1.484-.029-.74zm.125 3.18l-2.825-1.484.03.74 2.824 1.484-.029-.74zm.133 3.164l-2.825-1.484.029.74 2.825 1.484-.029-.74zm.125 3.165l-2.825-1.484.029.74 2.825 1.484-.029-.74zm16.695-3.636l-2.825-1.484.03.74 2.825 1.484-.03-.74zm.125 3.165l-2.825-1.485.03.74 2.825 1.485-.03-.74zm.125 3.18l-2.825-1.484.03.74 2.825 1.484-.03-.74zm.125 3.165l-2.825-1.485.03.74 2.825 1.485-.03-.74zm.125 3.164l-2.825-1.484.03.74 2.825 1.484-.03-.74zm-4.574-16.14l-.126-3.164-.66-.347.126 3.164.66.347zm-2.836-1.475l-.126-3.165-.66-.347.126 3.165.66.347zm-2.82-1.485l-.126-3.164-.661-.347.127 3.164.66.347zm-2.828-1.484l-.126-3.164-.661-.347.126 3.164.661.347zm-2.828-1.5l-.126-3.164-.661-.347.126 3.164.661.347zm12.078 25.215l-.126-3.165-.661-.347.126 3.165.661.347zm-2.828-1.484l-.126-3.165-.661-.347.126 3.165.661.347zm-2.828-1.492l-.126-3.165-.661-.347.126 3.165.661.347zm-2.828-1.484l-.126-3.165-.661-.347.126 3.165.661.347zm-2.821-1.484l-.126-3.165-.66-.347.126 3.165.66.347z" fill="#E3E4E9"/><path d="M118.534 199.805l-2.151-1.129c-.57-.3-1.127-.841-1.548-1.505-.421-.663-.672-1.395-.698-2.034l-.095-2.393c-.01-.565-.195-1.211-.526-1.828a4.958 4.958 0 00-1.288-1.56 2.745 2.745 0 00-.949-.473c-.307-.076-.591-.066-.83.031a1.066 1.066 0 00-.554.528c-.125.251-.184.567-.172.925l.1 2.503c.014.318-.028.604-.123.84-.096.237-.244.42-.435.539a1.124 1.124 0 01-.679.155 2.068 2.068 0 01-.818-.255l-2.136-1.122c-.512-.281-1.005-.357-1.395-.217-.391.14-.655.489-.748.987-.048.319-.026.687.066 1.076s.25.791.464 1.175c.214.385.477.744.773 1.051.295.307.614.554.935.725l2.235 1.174c.559.29 1.107.814 1.526 1.461.42.647.677 1.365.717 1.999l.096 2.409c.013.567.202 1.212.535 1.828a4.965 4.965 0 001.292 1.552c.317.238.641.402.949.479.308.078.592.068.831-.03s.427-.28.55-.534c.123-.254.178-.573.161-.934l-.1-2.503c-.021-.634.183-1.123.568-1.36.385-.236.919-.202 1.487.097l2.235 1.174c.321.169.635.256.92.254.284-.001.531-.091.723-.264.192-.172.324-.421.387-.731.063-.309.055-.67-.024-1.057a4.995 4.995 0 00-.865-1.795c-.415-.551-.914-.987-1.416-1.238z" fill="#4D4D4D"/><path d="M673.605 723.523l-1.926-1.011a3.25 3.25 0 01-.746-.555 4.39 4.39 0 01-.646-.801 4.366 4.366 0 01-.444-.923 3.185 3.185 0 01-.176-.906l-.086-2.156c-.012-.513-.182-1.096-.483-1.652a4.506 4.506 0 00-1.166-1.404 2.467 2.467 0 00-.853-.425c-.276-.068-.531-.058-.746.029a.955.955 0 00-.497.478c-.112.226-.164.511-.151.834l.089 2.251c.023.576-.159 1.022-.506 1.238-.348.216-.832.186-1.346-.084l-1.926-1.012c-.458-.253-.9-.323-1.248-.197-.349.126-.584.44-.664.888a2.53 2.53 0 00.053.963c.08.349.222.71.413 1.056.192.345.429.668.694.943.266.275.553.497.841.648l2.01 1.056c.514.27 1.016.758 1.396 1.357.38.598.607 1.258.63 1.835l.086 2.157c.011.509.179 1.09.477 1.644a4.49 4.49 0 001.158 1.403c.286.212.578.357.855.426s.533.06.749-.027a.964.964 0 00.5-.474c.114-.226.167-.51.157-.833l-.089-2.251a1.806 1.806 0 01.109-.755.998.998 0 01.388-.487c.171-.108.378-.156.608-.142.23.014.479.09.733.223l2.01 1.056c.288.151.57.228.825.226a.96.96 0 00.649-.236c.173-.154.293-.377.35-.654a2.384 2.384 0 00-.017-.945 4.43 4.43 0 00-.772-1.644c-.377-.507-.833-.908-1.292-1.137z" fill="#E3E4E9"/><path fill-rule="evenodd" clip-rule="evenodd" d="M134.68 681.119c.47.118.966.367 1.451.727l.011.009.012.009c.771.607 1.467 1.456 1.973 2.406.503.947.787 1.937.802 2.805l.119 2.982c.024.612.264 1.313.669 1.951.405.638.942 1.16 1.492 1.449l2.818 1.48.007.004c.773.426 1.528 1.129 2.144 1.995.617.866 1.057 1.846 1.25 2.779l.002.013.003.013c.105.582.104 1.122-.003 1.582-.107.46-.316.829-.614 1.08-.298.252-.676.38-1.108.376-.432-.003-.907-.139-1.393-.396h-.001l-.025-.693.028.694-.002-.001-2.807-1.475.001.001-.031-.696.028.694.002.001c-.546-.283-1.058-.313-1.426-.084-.367.229-.56.697-.539 1.302l-.001-.002-.615-.323.616.327v-.002l.125 3.147c.021.553-.067 1.042-.258 1.43a1.627 1.627 0 01-.849.815c-.367.149-.803.165-1.274.048-.472-.118-.969-.367-1.455-.728l-.012-.009-.012-.009c-.77-.607-1.467-1.456-1.972-2.407-.504-.947-.787-1.936-.803-2.804l.001.009.615.323-.616-.343v.011l-.118-2.982c-.025-.612-.265-1.314-.67-1.951-.405-.638-.941-1.16-1.492-1.449l-2.81-1.477a5.756 5.756 0 01-1.436-1.106 7.784 7.784 0 01-1.188-1.612 7.046 7.046 0 01-.708-1.808c-.139-.599-.17-1.163-.091-1.652l.001-.008.002-.009c.147-.765.557-1.297 1.16-1.508.6-.21 1.355-.087 2.139.345l-.008-.004.028.695-.011-.686a.04.04 0 01-.009-.005l2.62 1.377c.551.289 1.068.321 1.438.091.37-.231.564-.705.539-1.316l-.125-3.154c-.019-.549.071-1.034.264-1.419s.483-.661.85-.808c.367-.147.801-.162 1.272-.044zm1.253 1.954a2.655 2.655 0 00-.906-.451c-.298-.075-.572-.065-.803.028a1.017 1.017 0 00-.534.507c-.121.241-.177.544-.166.887l.126 3.146c.039.984-.272 1.742-.864 2.111-.591.368-1.415.316-2.288-.143l-2.636-1.385-.009-.005c-.506-.28-.993-.36-1.379-.225-.384.134-.645.471-.74.954a2.75 2.75 0 00.058 1.023c.087.374.238.76.444 1.131.206.371.46.717.746 1.013.286.296.595.534.905.697l2.811 1.477c.874.459 1.728 1.288 2.375 2.307s1.033 2.145 1.072 3.128l.12 3.001v.01c.008.553.189 1.186.511 1.794a4.95 4.95 0 001.254 1.532c.303.225.614.379.908.452.298.075.573.064.804-.029.231-.094.413-.269.534-.513.12-.243.175-.548.161-.893l-.125-3.149v-.004c-.035-.974.277-1.725.864-2.091.588-.366 1.404-.317 2.271.134l.004.001 2.81 1.477.003.001c.307.163.608.249.881.251.273.003.511-.078.698-.236.187-.158.319-.39.385-.678.066-.284.068-.618.004-.977a4.809 4.809 0 00-.795-1.761c-.393-.552-.875-1.002-1.37-1.277l-2.803-1.472c-.873-.459-1.727-1.289-2.374-2.308s-1.034-2.144-1.073-3.127l-.119-3.001v-.01c-.009-.554-.189-1.187-.512-1.794a4.964 4.964 0 00-1.253-1.533z" fill="#808490"/><path d="M613.542 952.571l-27.644-14.525c-.746-.391-1.474-1.099-2.025-1.966-.55-.868-.878-1.824-.912-2.659-.033-.835.231-1.481.735-1.794.504-.314 1.205-.27 1.951.122l27.644 14.524c.745.392 1.473 1.099 2.024 1.967.551.867.879 1.824.912 2.659.033.835-.231 1.48-.735 1.794-.503.313-1.205.269-1.95-.122zm13.138 6.904l-3.204-1.684c-.746-.391-1.474-1.099-2.024-1.966-.551-.868-.879-1.824-.912-2.659-.034-.835.23-1.481.734-1.794.504-.314 1.205-.27 1.951.122l3.204 1.683c.746.392 1.474 1.099 2.024 1.967.551.867.879 1.824.912 2.659.034.835-.231 1.48-.734 1.794-.504.313-1.205.269-1.951-.122zm16.2 8.514l-.576-.303c-.746-.392-1.474-1.099-2.024-1.967-.551-.867-.879-1.823-.912-2.659-.034-.835.231-1.48.734-1.794.504-.313 1.205-.269 1.951.122l.576.303c.746.392 1.474 1.099 2.024 1.967.551.867.879 1.824.912 2.659.034.835-.231 1.48-.734 1.794-.504.313-1.205.269-1.951-.122z" fill="#B3B3B3"/><path d="M326.77 232.591l-27.63-14.517c-.746-.392-1.474-1.099-2.024-1.966-.551-.868-.879-1.824-.912-2.659-.034-.836.231-1.481.734-1.794.504-.314 1.205-.27 1.951.122l27.63 14.517c.745.391 1.473 1.099 2.024 1.966.551.868.879 1.824.912 2.659.033.835-.231 1.481-.734 1.794-.504.314-1.206.27-1.951-.122zm13.159 6.912l-3.219-1.691c-.745-.392-1.473-1.099-2.024-1.967-.551-.867-.879-1.824-.912-2.659-.033-.835.231-1.48.734-1.794.504-.313 1.206-.269 1.951.122l3.219 1.691c.745.392 1.473 1.099 2.024 1.967.55.867.879 1.824.912 2.659.033.835-.231 1.48-.735 1.794-.503.313-1.205.27-1.95-.122zm16.179 8.507l-.562-.296c-.745-.391-1.473-1.099-2.024-1.966-.551-.868-.879-1.824-.912-2.659-.033-.835.231-1.481.734-1.794.504-.314 1.206-.27 1.951.122l.562.295c.746.392 1.474 1.099 2.025 1.967.55.867.878 1.824.912 2.659.033.835-.231 1.48-.735 1.794-.504.313-1.205.269-1.951-.122z" fill="#E06AE9"/><path d="M565.478 687.624c.027.676-.126 1.243-.439 1.628-.312.386-.771.574-1.318.539-.547-.034-1.158-.288-1.754-.731a6.6 6.6 0 01-1.599-1.755c-.446-.702-.76-1.464-.905-2.188-.144-.725-.111-1.38.095-1.883.206-.503.576-.831 1.062-.943.487-.112 1.069-.002 1.672.315.809.424 1.599 1.192 2.196 2.133.598.941.954 1.979.99 2.885zm7.476-4.656c.027.675-.125 1.242-.438 1.628-.313.386-.772.573-1.319.539-.547-.034-1.157-.289-1.754-.731-.597-.443-1.153-1.054-1.599-1.756-.445-.702-.76-1.463-.904-2.188-.144-.724-.111-1.379.095-1.882.206-.503.575-.832 1.062-.943.487-.112 1.068-.003 1.671.314.809.425 1.599 1.192 2.197 2.134.597.941.953 1.979.989 2.885zm7.469-4.672c.027.676-.126 1.243-.439 1.629-.314.386-.773.573-1.321.538-.548-.035-1.159-.291-1.756-.735a6.622 6.622 0 01-1.599-1.76c-.445-.703-.759-1.466-.901-2.19-.143-.725-.108-1.38.1-1.881.208-.502.58-.828 1.069-.937.488-.109 1.071.004 1.675.324.807.428 1.593 1.196 2.188 2.135.594.939.948 1.973.984 2.877zm59.571 226.888c.013.327-.061.601-.212.788-.152.187-.374.277-.638.261-.265-.017-.56-.14-.849-.354a3.197 3.197 0 01-.774-.85 3.162 3.162 0 01-.437-1.058c-.07-.351-.054-.668.046-.911a.719.719 0 01.514-.456c.235-.055.516-.002.808.152.196.092.394.23.581.405a3.232 3.232 0 01.843 1.329c.079.243.119.479.118.694zm-188.935-92.042c-.002.281-.079.512-.222.666-.143.154-.344.223-.581.2-.237-.023-.498-.138-.753-.331a2.897 2.897 0 01-.682-.755 2.87 2.87 0 01-.392-.936c-.065-.311-.056-.594.026-.815a.662.662 0 01.433-.432c.202-.061.446-.03.703.09.187.087.375.218.553.385a3.063 3.063 0 01.804 1.267 2.1 2.1 0 01.111.661z" fill="#B3B3B3"/><path d="M365.056 889.934c.013.33-.063.606-.217.792-.155.187-.381.275-.65.253-.269-.021-.568-.151-.859-.373a3.223 3.223 0 01-.773-.871 3.132 3.132 0 01-.421-1.07c-.062-.351-.035-.665.075-.901a.712.712 0 01.546-.422c.244-.04.533.03.828.2.191.1.381.243.56.419a3.264 3.264 0 01.8 1.301 2.2 2.2 0 01.111.672z" fill="#4D4D4D"/><path d="M324.76 886.406c.015.299-.05.55-.185.722a.656.656 0 01-.577.243c-.24-.013-.508-.124-.771-.318a2.896 2.896 0 01-.703-.771 2.87 2.87 0 01-.397-.962c-.062-.318-.047-.606.045-.826a.653.653 0 01.471-.409c.215-.046.472.005.737.147.35.188.69.521.948.927s.413.854.432 1.247z" fill="#B3B3B3"/><path d="M266.228 701.356c.013.33-.063.606-.217.793-.155.186-.381.274-.65.253-.269-.022-.568-.151-.859-.373a3.238 3.238 0 01-.773-.871 3.14 3.14 0 01-.421-1.07c-.062-.351-.036-.665.075-.901a.715.715 0 01.545-.423c.245-.04.534.03.829.201.191.1.381.242.56.418a3.264 3.264 0 01.8 1.301c.074.235.112.464.111.672z" fill="#4D4D4D"/><path d="M133.835 650.576c.978.514 1.736.043 1.692-1.053-.044-1.096-.872-2.4-1.85-2.914-.978-.514-1.735-.042-1.692 1.053.044 1.096.872 2.4 1.85 2.914zM68.908 391.305c.908.477 1.612.04 1.571-.978-.04-1.017-.81-2.229-1.718-2.706-.908-.477-1.61-.039-1.57.978.04 1.018.81 2.229 1.717 2.706z" fill="#B3B3B3"/><path d="M48.088 473.666c.017.424-.079.779-.275 1.021-.196.241-.484.359-.826.337-.343-.021-.726-.181-1.1-.458a4.132 4.132 0 01-1.002-1.1 4.106 4.106 0 01-.567-1.371c-.09-.454-.07-.865.06-1.18.129-.315.36-.521.666-.591.305-.07.669-.002 1.047.197.507.266 1.002.747 1.377 1.337.374.59.597 1.24.62 1.808z" fill="#E3E4E9"/><path d="M169.346 223.251c.908.477 1.611.039 1.571-.978-.041-1.018-.81-2.229-1.718-2.706-.908-.478-1.611-.04-1.571.978.041 1.017.81 2.229 1.718 2.706zm243.734 27.236c.908.478 1.612.04 1.571-.978-.04-1.017-.809-2.228-1.718-2.706-.908-.477-1.611-.039-1.571.978.041 1.018.81 2.229 1.718 2.706zm152.473 169.819c.013.312-.058.573-.202.751a.694.694 0 01-.607.248c-.252-.016-.534-.133-.809-.337a3.05 3.05 0 01-.737-.809 3.01 3.01 0 01-.416-1.008c-.067-.334-.052-.636.043-.868a.687.687 0 01.49-.434c.224-.052.492-.002.77.145.373.195.737.549 1.012.983.276.434.44.912.456 1.329zm-178.231-50.129c.908.477 1.612.039 1.571-.978-.04-1.018-.809-2.229-1.717-2.706-.909-.478-1.612-.04-1.571.978.04 1.017.809 2.229 1.717 2.706z" fill="#B3B3B3"/><path d="M663.142 543.593c.017.424-.078.779-.274 1.021-.196.241-.484.359-.827.337-.343-.021-.725-.18-1.099-.458a4.13 4.13 0 01-1.002-1.1 4.106 4.106 0 01-.567-1.371c-.09-.454-.07-.865.06-1.18.129-.315.36-.521.665-.591.305-.07.67-.002 1.048.197.507.266 1.002.747 1.376 1.337.375.59.598 1.24.62 1.808z" fill="#4D4D4D"/><path d="M565.522 621.326c.012.311-.058.572-.202.75-.144.178-.356.264-.608.249-.252-.016-.533-.133-.808-.337a3.05 3.05 0 01-.737-.809 3.047 3.047 0 01-.417-1.009c-.066-.333-.051-.635.044-.867a.689.689 0 01.49-.435c.224-.051.492-.001.77.145.373.196.737.55 1.012.983.275.434.439.912.456 1.33zm115.105 186.486c.017.424-.079.779-.275 1.021-.196.241-.483.359-.826.338-.343-.022-.726-.181-1.1-.459a4.147 4.147 0 01-1.002-1.1 4.127 4.127 0 01-.567-1.371c-.09-.454-.069-.865.06-1.18.129-.315.361-.521.666-.591.305-.07.669-.002 1.047.197.507.266 1.002.747 1.377 1.337.374.59.597 1.24.62 1.808z" fill="#B3B3B3"/><path d="M549.205 762.76c.017.424-.079.779-.275 1.021-.196.241-.483.359-.826.337-.343-.021-.726-.18-1.1-.458a4.147 4.147 0 01-1.002-1.1 4.103 4.103 0 01-.566-1.371c-.091-.454-.07-.865.059-1.18.129-.315.361-.521.666-.591.305-.07.669-.002 1.047.197.507.266 1.002.747 1.377 1.337.374.59.597 1.24.62 1.808z" fill="#E3E4E9"/><g clip-path="url(#clip1_0_29)"><path d="M126.5 535.323c-20.822 0-29.469 27.103-12.254 38.702v13.145c0 2.8 2.546 4.664 4.856 5.684.738 5.528 14.058 5.528 14.796 0 2.313-1.021 4.856-2.965 4.856-5.684v-13.145c17.157-11.56 8.641-38.702-12.254-38.702z" fill="#518282"/><path d="M114.246 575.548v11.622c0 3.938 5.486 7.131 12.254 7.131s12.254-3.193 12.254-7.131v-11.622h-24.508z" fill="#518282"/><path d="M126.5 590.425c-6.768 0-12.254-3.193-12.254-7.131v3.876c0 3.938 5.486 7.131 12.254 7.131s12.254-3.193 12.254-7.131v-3.876c0 3.938-5.486 7.131-12.254 7.131z" fill="#749B9B"/><path d="M126.5 582.679c-6.768 0-12.254-3.193-12.254-7.131v3.876c0 3.938 5.486 7.131 12.254 7.131s12.254-3.193 12.254-7.131v-3.876c0 3.938-5.486 7.131-12.254 7.131z" fill="#749B9B"/><path d="M148.221 556.376c0-11.806-9.725-21.376-21.721-21.376s-21.721 9.57-21.721 21.376c0 7.331 3.752 13.798 9.467 17.649v1.523c0 3.938 5.486 7.131 12.254 7.131s12.254-3.193 12.254-7.131v-1.523c5.715-3.851 9.467-10.318 9.467-17.649z" fill="#FFCA00"/><path opacity=".3" d="M126.5 582.679c-6.768 0-12.254-3.193-12.254-7.131 0-3.939 5.486-7.131 12.254-7.131s12.254 3.192 12.254 7.131c0 3.938-5.486 7.131-12.254 7.131z" fill="#fff"/><path d="M134.711 563.831c-1.314-.426-2.689-.92-3.905-1.732-.669-.211-1.068.023-1.196.703v1.412l-.019-.01a1.543 1.543 0 01-.804-1.349v-2.76a3.142 3.142 0 00-1.596-2.721l-.101-.057c-1.295-.442-2.071 0-2.33 1.324v2.858l-.021-.011a1.54 1.54 0 01-.82-1.357v-2.772c0-2.131-3.885-4.407-3.885-1.373v.077l-1.833-1.011-.05-.202c-.345-1.395-2.538-.869-2.193.526l4.364 17.621c.392 1.586 2.505.736 2.193-.526l-3.789-15.297 1.722.95c.674.222 1.077-.01 1.209-.697v-1.312c.936.676.809 3.076.639 4.016 0 1.152.639 2.21 1.668 2.761l.123.066c1.283.409 2.048-.039 2.296-1.343v-2.855c.482.275.781.787.781 1.336v2.759c0 1.137.626 2.188 1.635 2.743.975.447 2.434.267 2.434-1.267v-.192l1.858.983-4.018 12.003c-.42 1.254 1.634 2.219 2.144.695l4.212-12.586a1.106 1.106 0 00-.718-1.403c.592.192-.222-.071 0 0z" fill="#CAA414"/><path opacity=".3" d="M119.895 558.84c-5.244 0-9.494-4.184-9.494-9.344 0-5.16 4.25-9.344 9.494-9.344 5.243 0 9.494 4.184 9.494 9.344 0 5.16-4.251 9.344-9.494 9.344z" fill="#fff"/></g><g clip-path="url(#clip2_0_29)"><path d="M234.133 229.447c-3.896 2.149-6.317 6.893-6.317 13.682 0 13.323 9.323 29.472 20.825 36.069 5.732 3.288 10.923 3.582 14.688 1.401l-.036.021 10.719-6.148c3.811-2.186 6.172-6.897 6.172-13.602 0-13.324-9.323-29.473-20.825-36.07-5.713-3.277-10.89-3.58-14.652-1.422l-10.719 6.148.145-.079z" fill="#FEDA44"/><path d="M233.988 229.526l10.719-6.148c3.762-2.158 8.938-1.855 14.652 1.423 11.502 6.597 20.825 22.745 20.825 36.069 0 6.705-2.361 11.417-6.172 13.603l-10.719 6.148c3.812-2.186 6.173-6.898 6.173-13.603 0-13.323-9.324-29.472-20.825-36.069-5.714-3.278-10.89-3.581-14.653-1.423z" fill="#EEBF00"/><path d="M227.816 243.129c0-13.324 9.323-18.777 20.825-12.18 11.501 6.596 20.825 22.745 20.825 36.069 0 13.324-9.324 18.777-20.825 12.18-11.502-6.597-20.825-22.745-20.825-36.069z" fill="#FEDA44"/><path d="M261.555 247.507c3.635 6.297 5.492 13.069 5.229 19.068-.23 5.224-2.125 9.241-5.199 11.021-3.09 1.789-7.35 1.453-11.996-.947-5.306-2.74-10.229-7.715-13.862-14.009-3.636-6.297-5.493-13.069-5.229-19.068.23-5.224 2.125-9.241 5.199-11.021 3.089-1.789 7.349-1.453 11.996.947 5.305 2.74 10.228 7.715 13.862 14.009zm-25.281 14.817c3.574 6.191 8.405 11.079 13.605 13.764 4.448 2.297 8.493 2.639 11.389.962 2.884-1.67 4.665-5.498 4.885-10.503.258-5.88-1.569-12.53-5.145-18.724-3.574-6.191-8.406-11.079-13.605-13.764-4.449-2.297-8.493-2.639-11.39-.962-2.884 1.671-4.664 5.498-4.884 10.503-.259 5.881 1.569 12.53 5.145 18.724z" fill="#EEBF00"/><path d="M263.353 229.388l-9.382 5.416c.213.188.424.378.634.571l10.692-6.172a41.921 41.921 0 00-.635-.571l-1.309.756zm9.607 9.069a61.195 61.195 0 00-.442-.683l-10.699 6.178c.148.226.296.453.441.682l10.7-6.177zm-19.552-16.069c-.413-.094-.82-.172-1.222-.232l-10.662 6.156c.4.061.805.141 1.216.236l10.668-6.16zm-4.687 8.608c.267.154.532.314.796.478l10.685-6.169c-.264-.164-.53-.324-.797-.477l-10.684 6.168zm9.526 8.179c.178.209.353.419.528.632l10.696-6.175c-.174-.213-.35-.424-.528-.632l-10.696 6.175zm8.881 15.39c.093.26.184.52.272.78l10.707-6.181a45.14 45.14 0 00-.272-.781l-10.707 6.182zm-2.35-5.483c.122.243.242.486.359.73l10.704-6.179a49.328 49.328 0 00-.359-.73l-10.704 6.179zm13.701 20.384c.188-.395.361-.808.52-1.237l-10.738 6.199c-.161.432-.338.846-.528 1.243l10.746-6.205zm-9.702-9.014c.057.282.111.563.161.844l10.712-6.184c-.05-.281-.105-.563-.162-.844l-10.711 6.184zm.675 7.387l10.72-6.19c.007-.257.012-.516.012-.779l-.001-.164-10.719 6.188.002.124c0 .277-.006.55-.014.821z" fill="#FECE00"/></g></g><g clip-path="url(#clip3_0_29)"><path d="M486.997 351.594c.07-3.637-2.294-7.292-7.091-10.061-9.415-5.436-24.684-5.435-34.037.001-4.662 2.709-6.988 6.265-6.983 9.823v-.035l-.02 7.064c-.011 3.593 2.356 7.191 7.094 9.926 9.414 5.436 24.683 5.436 34.037 0 4.646-2.7 6.973-6.242 6.983-9.789l.02-7.064-.003.135zm-39.971 9.047c-2.876-1.661-4.82-3.661-5.832-5.779 1.004-2.073 2.906-4.028 5.708-5.657 8.777-5.1 23.103-5.1 31.937 0 2.877 1.661 4.82 3.661 5.832 5.78-1.004 2.072-2.905 4.027-5.708 5.656-8.776 5.1-23.103 5.1-31.937 0z" fill="#1D1D1F"/><path d="M485.515 351.456l-.02 7.064c.009-3.372-2.211-6.748-6.656-9.315-8.834-5.1-23.16-5.1-31.937 0-4.36 2.534-6.542 5.857-6.552 9.185l.02-7.063c.01-3.328 2.192-6.651 6.552-9.185 8.777-5.1 23.103-5.101 31.937 0 4.445 2.566 6.665 5.943 6.656 9.314z" fill="#1D1D1F"/><path d="M487 351.46l-.02 7.063c-.01 3.547-2.337 7.089-6.983 9.789-9.354 5.436-24.623 5.436-34.037.001-4.738-2.736-7.105-6.334-7.094-9.927l.02-7.063c-.011 3.592 2.356 7.191 7.094 9.926 9.415 5.436 24.683 5.436 34.037 0 4.647-2.7 6.973-6.242 6.983-9.789z" fill="#2E2E30"/><path d="M479.906 341.533c9.415 5.436 9.464 14.28.111 19.716-9.354 5.436-24.622 5.436-34.037 0-9.416-5.436-9.465-14.279-.111-19.715 9.353-5.436 24.622-5.437 34.037-.001zm-32.88 19.108c8.834 5.1 23.161 5.1 31.937 0 8.777-5.101 8.729-13.399-.104-18.499-8.834-5.101-23.16-5.101-31.937 0-8.776 5.1-8.73 13.399.104 18.499z" fill="#3E3D43"/><path d="M474.59 365.996c.011-3.715-.78-6.349-1.766-5.883-4.61 1.739-13.923-.211-21.642-4.668-3.772-2.178-6.512-4.577-7.992-6.779-.034-3.285-.325-5.598-.686-5.285l.022-.016-14.654 8.517a1.67 1.67 0 00-.257.186l-.008.007-.027.024-.038.04a1.227 1.227 0 00-.084.096l-.011.014a1.136 1.136 0 00-.09.138c-.112.194-.135.396-.167.675-.023.197-.08.838-.13 2.558-.045 1.559-.052 3.154-.055 3.835l-.004 1.681c-.007 2.455.038 5.406.155 6.465.025.228.049.338.065.39.041.138.069.184.144.307.038.062.106.132.155.185.026.028.066.06.095.085.06.055.155.111.224.155l2.678 1.546 2.679 1.547 2.679 1.546 2.678 1.547 2.679 1.546 2.679 1.547 2.678 1.546 2.679 1.547 2.679 1.546 2.678 1.547c.201.115.434.205.694.266a3.516 3.516 0 001.571 0c.194-.046.264-.073.432-.138.072-.028.111-.049.259-.128.212-.159.532-.313.76-.447.228-.134.551-.285.761-.447.209-.162.532-.313.76-.447l.76-.447 3.044-1.79 9.171-5.391c.96-.564 1.738-3.897 1.748-7.542l.005-1.681z" fill="#E0E0E2"/><path d="M442.502 358.471c-.053.084-.133.191-.177.28-.041.085-.098.198-.134.285-.014.036-.051.13-.072.222.125-.682.262-2.738.271-5.643.002-.87.261-1.691.798-2.44-.01 3.587-.314 6.775-.686 7.296z" fill="#3E3D43"/><path d="M442.39 353.615l.004-1.681c.003-.87.262-1.692.799-2.441l-.005 1.682a4.124 4.124 0 00-.798 2.44z" fill="#3E3D43"/><path d="M427.872 351.881l14.654-8.516a.146.146 0 00-.021.016l-14.628 8.5h-.005z" fill="#E0E0E2"/><path d="M457.618 369.053c-.81.471-2.129.471-2.944 0l-26.787-15.466c-.599-.346-.758-.848-.483-1.277l-.047.077c-.112.195-.135.396-.167.676-.023.196-.08.837-.13 2.557a155.346 155.346 0 00-.054 3.835l-.005 1.681c-.007 2.455.038 5.406.155 6.465.025.228.049.338.065.391.041.137.069.183.144.306.038.062.106.132.155.185.026.028.066.06.095.085.061.055.155.111.224.155l2.678 1.546 2.679 1.547 2.679 1.546 2.679 1.547 2.678 1.546 2.679 1.547 2.679 1.546 2.678 1.547 2.679 1.546 2.679 1.547c.2.115.433.205.693.266a3.522 3.522 0 001.571 0c.194-.046.264-.073.432-.138.072-.028.112-.049.259-.128.095-.055.18-2.981.19-6.626l.005-1.682c.011-3.715-.06-6.772-.158-6.827z" fill="#2E2E30"/><path d="M442.394 351.934c0-.616 0-1.896-.051-3.197-.07-1.758-.161-1.957-.165-1.978 0 0-.995-1.769.326-3.378.391-.339.699 2.398.689 6.112a4.135 4.135 0 00-.799 2.441z" fill="#77767E"/><path d="M433.758 349.008c2.558 10.949 12.381 19.104 24.109 19.104a24.655 24.655 0 0015.748-5.653c-2.558-10.949-12.381-19.104-24.109-19.104a24.655 24.655 0 00-15.748 5.653zm-6.069 13.089l.004-1.682c.011-3.714.098-6.772.194-6.828-.599-.346-.758-.848-.483-1.277l-.047.077c-.112.195-.135.396-.167.676-.023.196-.08.837-.13 2.557a155.346 155.346 0 00-.054 3.835l-.005 1.681c-.007 2.455.038 5.406.155 6.465.025.228.049.338.065.391.041.137.069.183.144.306.038.062.106.132.155.185.026.028.066.06.095.085.061.055.155.111.224.155-.094-.054-.161-2.98-.15-6.626zm26.937 22.091c.2.116.433.205.693.266a3.528 3.528 0 001.572 0c.193-.046.263-.073.431-.138.072-.028.112-.049.259-.128.095-.055.18-2.981.19-6.626l.005-1.682c.011-3.714-.06-6.772-.157-6.828-.811.471-2.129.471-2.945 0l-.048 15.136z" fill="#3E3D43"/><path d="M454.674 369.052l-26.787-15.465c-.096.056-.183 3.113-.194 6.828l-.004 1.682c-.011 3.646.056 6.571.15 6.626l2.679 1.546 2.678 1.547 2.679 1.546 2.679 1.547 2.678 1.546 2.679 1.547 2.679 1.546 2.678 1.547 2.679 1.546 2.679 1.547.048-15.136z" fill="#2E2E30"/><path d="M427.689 362.097l.004-1.682c.011-3.714.098-6.772.194-6.828-.599-.346-.758-.848-.483-1.277l-.047.077c-.112.195-.135.396-.167.676-.023.196-.08.837-.13 2.557a155.346 155.346 0 00-.054 3.835l-.005 1.681c-.007 2.455.038 5.406.155 6.465.025.228.049.338.065.391.041.137.069.183.144.306.038.062.106.132.155.185.026.028.066.06.095.085.061.055.155.111.224.155-.094-.054-.161-2.98-.15-6.626z" fill="#3E3D43"/><path d="M427.458 352.235zm-.054.075l.043-.061-.043.061zm.043-.061l.012-.014a.08.08 0 00-.012.014zm.425-.368c-.079.05-.168.106-.257.187a1.71 1.71 0 01.262-.187h-.005zm-.265.194l.008-.007-.008.007zm-.027.024l-.038.04c.021-.021.042-.043.065-.064l-.027.024z" fill="#D8D8DA"/><path d="M472.825 360.113l-15.207 8.94c-.81.471-2.129.471-2.944 0l-26.787-15.466c-.816-.471-.82-1.235-.01-1.706l14.627-8.5c-2.031 2.841 1.405 7.865 8.678 12.064 7.719 4.457 17.032 6.407 21.643 4.668z" fill="#E0E0E2"/><path d="M451.448 360.428l-8.131-4.695-2.512 1.461 8.13 4.694 2.513-1.46z" fill="#57565C"/><path d="M474.59 365.996c.011-3.715-.78-6.349-1.766-5.883l-15.206 8.939c.098.056.169 3.113.158 6.828l-.005 1.682c-.01 3.645-.095 6.57-.19 6.626.212-.159.532-.313.76-.447.228-.134.551-.285.761-.447.209-.162.532-.313.76-.447l.761-.447 3.044-1.79 9.17-5.391c.96-.564 1.738-3.896 1.748-7.542l.005-1.681z" fill="#ACABB1"/><path d="M449.494 369.455c-.715-.412-1.295-.081-1.297.74-.003.821.574 1.821 1.288 2.234.715.412 1.296.081 1.299-.74.002-.821-.576-1.821-1.29-2.234zm-.019 6.684c-.715-.413-1.295-.081-1.298.739-.002.821.575 1.821 1.289 2.234.715.412 1.296.081 1.299-.74.002-.82-.576-1.821-1.29-2.233zm3.313-1.435c-.714-.412-1.295-.081-1.298.74-.002.821.575 1.821 1.289 2.233.715.412 1.296.082 1.298-.739.003-.821-.575-1.821-1.289-2.234zM432.895 359.7c-.715-.413-1.295-.081-1.297.74-.003.821.574 1.821 1.289 2.233.714.413 1.295.081 1.298-.74.002-.821-.576-1.821-1.29-2.233zm-.019 6.683c-.715-.412-1.295-.081-1.297.74-.003.821.574 1.821 1.289 2.233.714.413 1.295.081 1.298-.74.002-.82-.575-1.82-1.29-2.233zm-3.294-5.249c-.714-.412-1.295-.081-1.298.74-.002.821.575 1.82 1.29 2.233.715.412 1.295.082 1.297-.74.003-.821-.574-1.82-1.289-2.233z" fill="#59A4FF"/><path d="M447.643 350.692a3.069 3.069 0 10-.001-6.137 3.069 3.069 0 00.001 6.137z" fill="#77767E"/><path d="M450.839 360.581c-.001-2.397-1.678-5.303-3.748-6.49-1.028-.59-1.96-.644-2.637-.256l-1.929 1.106s-1.111.532-1.111 2.405l7.496 4.356 1.929-1.121z" fill="#1D1D1F"/><path d="M447.091 354.091c-1.028-.59-1.96-.644-2.637-.256l-1.929 1.106c.677-.388 1.608-.333 2.637.257 2.07 1.187 3.748 4.093 3.748 6.491v.013l1.929-1.121c-.001-2.397-1.679-5.303-3.748-6.49z" fill="#57565C"/><path d="M447.81 354.917l-1.689.975.114.102 1.925-1.11a5.626 5.626 0 00-.115-.103l-.235.136zm1.729 1.632l-.08-.123-1.926 1.112c.027.041.054.081.08.123l1.926-1.112zm-3.519-2.892a3.137 3.137 0 00-.22-.042l-1.919 1.108c.072.011.145.025.219.043l1.92-1.109zm-.844 1.549l.144.086 1.923-1.11c-.048-.03-.096-.058-.144-.086l-1.923 1.11zm1.715 1.472l.095.114 1.925-1.112-.095-.114-1.925 1.112zm1.598 2.77l.049.141 1.927-1.113a7.863 7.863 0 00-.049-.141l-1.927 1.113zm-.423-.987l.065.131 1.926-1.112-.064-.131-1.927 1.112zm.72 2.047l.029.152 1.928-1.113-.029-.152-1.928 1.113z" fill="#3E3D43"/><path d="M445.162 355.197c-2.058-1.18-3.728-.217-3.748 2.149l7.496 4.356v-.013c0-2.398-1.678-5.304-3.748-6.492z" fill="#2E2E30"/><path d="M445.162 357.175c-1.122-.643-2.032-.119-2.043 1.171l4.086 2.375v-.007c0-1.307-.915-2.892-2.043-3.539z" fill="#1D1D1F"/></g><g clip-path="url(#clip4_0_29)"><path d="M296.368 819.136c0-6.29-2.588-13.265-6.42-18.37.069-.673.105-1.379.105-2.117 0-9.302-5.655-20.107-12.631-24.134-3.413-1.97-6.509-1.953-8.782-.332l-4.074 2.327c-2.82 1.461-4.619 5.107-4.619 10.353 0 .736.04 1.483.108 2.234-3.834.677-6.423 4.668-6.423 10.961 0 9.301 5.655 20.106 12.631 24.133 2.302 1.33 4.46 1.754 6.318 1.392 1.858 2.505 4.012 4.573 6.313 5.901 3.269 1.887 6.248 1.951 8.491.529l4.773-2.756v-.001c2.584-1.592 4.21-5.133 4.21-10.12z" fill="#009EFF"/><path d="M283.737 811.844c0 9.301-5.655 13.576-12.631 9.549-6.975-4.028-12.631-14.833-12.631-24.134s5.656-13.576 12.631-9.549c6.976 4.028 12.631 14.833 12.631 24.134z" fill="#F7E041"/><path d="M264.899 786.302c.801 8.735 6.1 18.187 12.523 21.895 2.257 1.303 4.373 1.732 6.207 1.408-.801-8.735-6.1-18.187-12.523-21.895-2.256-1.303-4.373-1.732-6.207-1.408z" fill="#E9662C"/><path d="M277.422 808.197c2.257 1.304 4.374 1.733 6.208 1.408-.514-5.604-2.881-11.502-6.208-15.99-3.328.646-5.694 3.811-6.208 8.822 1.833 2.442 3.951 4.457 6.208 5.76z" fill="#D36BC5"/><path d="M277.422 808.197c-2.257-1.303-4.374-3.318-6.208-5.76a20.683 20.683 0 00-.108 2.114c0 6.233 2.541 13.137 6.316 18.229 3.774-.733 6.315-4.704 6.315-10.936 0-.738-.038-1.486-.107-2.239-1.834.325-3.951-.104-6.208-1.408z" fill="#A4C639"/><path d="M285.209 801.448c0 9.301-5.655 13.576-12.631 9.549-6.976-4.028-12.631-14.833-12.631-24.134s5.655-13.576 12.631-9.549c6.976 4.028 12.631 14.833 12.631 24.134z" fill="#FF3400"/><path d="M277.422 774.515c-3.413-1.97-6.509-1.953-8.782-.332l-4.074 2.327c2.18-1.129 4.971-.952 8.012.804 6.976 4.028 12.631 14.833 12.631 24.134 0 .735-.035 1.439-.104 2.11l4.839-2.796.004.004c.069-.673.105-1.379.105-2.117 0-9.302-5.655-20.107-12.631-24.134z" fill="#750601"/><path d="M278.894 814.643c0 9.301-5.655 13.576-12.631 9.549-6.976-4.028-12.631-14.833-12.631-24.134s5.655-13.576 12.631-9.549c6.976 4.028 12.631 14.833 12.631 24.134z" fill="#FFCA00"/><path d="M260.056 789.101c.801 8.735 6.1 18.187 12.522 21.895 2.257 1.303 4.374 1.733 6.207 1.409-.801-8.735-6.1-18.188-12.522-21.896-2.257-1.303-4.374-1.732-6.207-1.408z" fill="#FF6936"/><path d="M291.525 821.935c0 9.302-5.655 13.577-12.631 9.549-6.976-4.027-12.631-14.832-12.631-24.134 0-9.301 5.655-13.576 12.631-9.548 6.975 4.027 12.631 14.832 12.631 24.133z" fill="#00BAFF"/><path d="M266.371 805.237c1.834 2.442 3.951 4.457 6.207 5.76 6.423 3.708 11.722.374 12.523-7.436-1.834-2.441-3.951-4.456-6.207-5.759-6.423-3.708-11.722-.375-12.523 7.435z" fill="#604EE8"/><path d="M272.578 810.997c2.257 1.303 4.374 1.732 6.208 1.408-.514-5.605-2.88-11.502-6.208-15.991-3.327.646-5.694 3.812-6.208 8.822 1.834 2.442 3.951 4.458 6.208 5.761z" fill="#EA6E8A"/><path d="M272.578 810.996c-2.257-1.303-4.374-3.318-6.208-5.76a20.69 20.69 0 00-.107 2.114c0 6.233 2.541 13.138 6.315 18.229 3.774-.733 6.316-4.704 6.316-10.936 0-.738-.039-1.486-.108-2.239-1.833.325-3.951-.104-6.208-1.408z" fill="#408E0D"/></g><g clip-path="url(#clip5_0_29)"><path d="M496.828 899.957L465.628 882l-2.456 1.466v40.519L494.375 942l2.453-1.465v-40.578z" fill="#BBD4DA"/><path d="M463.172 923.985v-40.519l31.187 17.982.016 40.552-31.203-18.015z" fill="#E5EFF2"/><path d="M463.172 883.466l2.456-1.466 31.2 17.957-2.469 1.49-31.187-17.981z" fill="#D6E5E9"/><path d="M467.08 890.223l23.386 13.502v31.517l-23.361-13.487-.025-31.532z" fill="#008BBF"/><path d="M467.096 911.126v-20.893l23.37 13.492v20.893l-23.37-13.492z" fill="#33C8FF"/><path d="M467.096 911.126l7.19-4.251 5.058 8.386 4.971-.851 6.151 10.208-23.37-13.492z" fill="#408E0D"/><path d="M486.699 909.933c0 2.74-1.666 4-3.721 2.813-2.055-1.186-3.721-4.369-3.721-7.109s1.666-4 3.721-2.813c2.055 1.186 3.721 4.369 3.721 7.109z" fill="#FFCA00"/></g><g clip-path="url(#clip6_0_29)"><path d="M626.251 800.852l-20.143-11.534a2.327 2.327 0 00-2.373.014v-.001l-3.322 1.979a2.336 2.336 0 00-1.504 2.191v38.755a5.682 5.682 0 002.842 4.922l20.141 11.503a2.32 2.32 0 002.192.08l.01.022 3.807-2.241v-.001a2.328 2.328 0 001.19-2.043v-38.725a5.684 5.684 0 00-2.84-4.921z" fill="#9F9EAD"/><path d="M598.909 832.256v-38.755c0-1.81 1.96-2.942 3.527-2.036l20.142 11.534a5.682 5.682 0 012.841 4.921v38.725c0 1.81-1.959 2.941-3.527 2.036l-20.141-11.503a5.682 5.682 0 01-2.842-4.922z" fill="#E3E3E3"/><path d="M601.43 794.786l20.616 11.717v34.974l-20.616-12.01v-34.681z" fill="#00BAFF"/><path d="M605.151 799.039l1.9 1.097a2.266 2.266 0 011.132 1.96v3.075a.908.908 0 01-1.363.786l-1.898-1.096a2.262 2.262 0 01-1.132-1.958l-.002-3.076a.909.909 0 011.363-.788z" fill="#FF3400"/><path d="M610.903 802.3l1.901 1.097a2.263 2.263 0 011.131 1.96v3.074a.908.908 0 01-1.362.787l-1.898-1.096a2.263 2.263 0 01-1.132-1.958l-.002-3.077a.908.908 0 011.362-.787z" fill="#604EE8"/><path d="M616.656 805.56l1.901 1.098a2.262 2.262 0 011.131 1.96v3.074a.908.908 0 01-1.362.787l-1.899-1.096a2.266 2.266 0 01-1.131-1.959l-.003-3.076a.91.91 0 011.363-.788z" fill="#009EFF"/><path d="M605.151 807.431l1.9 1.098a2.263 2.263 0 011.132 1.96v3.074a.91.91 0 01-1.363.787l-1.898-1.096a2.265 2.265 0 01-1.132-1.959l-.002-3.076a.909.909 0 011.363-.788z" fill="#408E0D"/><path d="M610.9 810.748l1.909 1.102a2.273 2.273 0 011.137 1.969v3.089a.913.913 0 01-1.369.791l-1.907-1.101a2.273 2.273 0 01-1.137-1.968l-.003-3.091a.913.913 0 011.37-.791z" fill="#FFCA00"/><path d="M616.679 814.024l1.91 1.102a2.275 2.275 0 011.137 1.969v3.089a.913.913 0 01-1.369.791l-1.907-1.102a2.268 2.268 0 01-1.137-1.967l-.003-3.091a.913.913 0 011.369-.791z" fill="#FF6936"/><path d="M605.119 815.903l1.91 1.103a2.273 2.273 0 011.137 1.969v3.089a.912.912 0 01-1.369.79l-1.907-1.101a2.272 2.272 0 01-1.137-1.967l-.003-3.091a.913.913 0 011.369-.792z" fill="#009EFF"/><path d="M610.9 819.18l1.909 1.102a2.273 2.273 0 011.137 1.969v3.089a.913.913 0 01-1.369.791l-1.907-1.102a2.27 2.27 0 01-1.137-1.967l-.003-3.091a.913.913 0 011.37-.791z" fill="#FF3400"/><path d="M616.679 822.456l1.91 1.102a2.275 2.275 0 011.137 1.969v3.089a.913.913 0 01-1.369.791l-1.907-1.101a2.271 2.271 0 01-1.137-1.968l-.003-3.091a.913.913 0 011.369-.791z" fill="#604EE8"/><path d="M605.119 824.335l1.91 1.103a2.273 2.273 0 011.137 1.969v3.089a.913.913 0 01-1.369.79l-1.907-1.101a2.273 2.273 0 01-1.137-1.967l-.003-3.091a.913.913 0 011.369-.792z" fill="#FFCA00"/><path d="M610.9 827.611l1.909 1.103a2.273 2.273 0 011.137 1.969v3.089a.912.912 0 01-1.369.79l-1.907-1.101a2.273 2.273 0 01-1.137-1.967l-.003-3.091a.914.914 0 011.37-.792z" fill="#408E0D"/><path d="M616.679 830.888l1.91 1.102a2.275 2.275 0 011.137 1.969v3.089a.913.913 0 01-1.369.791l-1.907-1.102a2.27 2.27 0 01-1.137-1.967l-.003-3.091a.913.913 0 011.369-.791z" fill="#009EFF"/><path d="M612.768 839.948c0 1.285-.782 1.877-1.746 1.32-.965-.557-1.746-2.051-1.746-3.337s.781-1.877 1.746-1.32c.964.557 1.746 2.051 1.746 3.337z" fill="#D1D1D1"/><path opacity=".1" d="M601.43 825.159l20.616-15.585v-3.071l-14.783-8.402-5.833 4.41v22.648zm20.616 8.547v-15.679l-17.519 13.244 11.713 6.824 5.806-4.389z" fill="#fff"/></g><g clip-path="url(#clip7_0_29)"><path d="M594.01 595l-12.95 7.477v7.488L607.101 625l25.839-14.918v-7.605l-12.799-7.448L594.01 595z" fill="#8475FF"/><path d="M607.101 565l25.839 15.035v7.605l-25.839 14.918-26.041-15.035v-7.488L607.101 565z" fill="#FF9134"/><path d="M607.101 565l-26.041 15.035 26.041 15.034 25.839-15.034L607.101 565z" fill="#FF6936"/><path d="M607.101 617.511V625l25.839-14.918v-7.605l-25.839 15.034z" fill="#30469A"/><path d="M607.101 602.558L594.01 595l-12.95 7.477 26.041 15.034 25.839-15.034-12.799-7.448-13.04 7.529z" fill="#604EE8"/><path d="M607.101 595.07v7.488l25.839-14.918v-7.605l-25.839 15.035z" fill="#FF4404"/><path d="M581.06 580.035l26.041 15.035v7.488l-26.041-15.035v-7.488z" fill="#FF9134"/></g><g clip-path="url(#clip8_0_29)"><path d="M133.773 323.996L102.505 306l-2.278 1.34v40.606L131.497 366l2.276-1.339v-40.665z" fill="#BBD4DA"/><path d="M100.227 347.946V307.34l31.255 18.02.015 40.64-31.27-18.054z" fill="#E5EFF2"/><path d="M100.227 307.34l2.278-1.34 31.268 17.996-2.291 1.364-31.255-18.02z" fill="#D6E5E9"/><path d="M102.294 324.516l11.718 6.766v15.871l-11.706-6.758-.012-15.879z" fill="#BBD4DA"/><path d="M131.497 336.67l-31.27-18.02v-11.31l31.27 18.02v11.31z" fill="#604EE8"/><path d="M126.643 329.826l-21.562-12.78v-2.862l21.562 12.78v2.862z" fill="#fff"/><path d="M127.386 341.008l-11.524-6.617v-2.06l11.524 6.617v2.06zm0 4.507l-11.524-6.617v-2.06l11.524 6.617v2.06zm0 4.528l-11.524-6.617v-2.06l11.524 6.617v2.06zm0 4.507l-11.524-6.617v-2.06l11.524 6.617v2.06zm0 4.642l-25.092-14.485v-2.06l25.092 14.485v2.06z" fill="#969698"/></g><defs><filter id="filter0_d_0_29" x="432.146" y="845.944" width="100.607" height="123.207" filterUnits="userSpaceOnUse" color-interpolation-filters="sRGB"><feFlood flood-opacity="0" result="BackgroundImageFix"/><feColorMatrix in="SourceAlpha" values="0 0 0 0 0 0 0 0 0 0 0 0 0 0 0 0 0 0 127 0" result="hardAlpha"/><feOffset dx="5" dy="-5"/><feComposite in2="hardAlpha" operator="out"/><feColorMatrix values="0 0 0 0 0.15 0 0 0 0 0.15 0 0 0 0 0.15 0 0 0 1 0"/><feBlend in2="BackgroundImageFix" result="effect1_dropShadow_0_29"/><feBlend in="SourceGraphic" in2="effect1_dropShadow_0_29" result="shape"/></filter><filter id="filter1_d_0_29" x="431.22" y="844.792" width="102.459" height="125.51" filterUnits="userSpaceOnUse" color-interpolation-filters="sRGB"><feFlood flood-opacity="0" result="BackgroundImageFix"/><feColorMatrix in="SourceAlpha" values="0 0 0 0 0 0 0 0 0 0 0 0 0 0 0 0 0 0 127 0" result="hardAlpha"/><feOffset dx="5" dy="-5"/><feComposite in2="hardAlpha" operator="out"/><feColorMatrix values="0 0 0 0 0.15 0 0 0 0 0.15 0 0 0 0 0.15 0 0 0 1 0"/><feBlend in2="BackgroundImageFix" result="effect1_dropShadow_0_29"/><feBlend in="SourceGraphic" in2="effect1_dropShadow_0_29" result="shape"/></filter><filter id="filter2_d_0_29" x="228.951" y="739.186" width="100.607" height="123.207" filterUnits="userSpaceOnUse" color-interpolation-filters="sRGB"><feFlood flood-opacity="0" result="BackgroundImageFix"/><feColorMatrix in="SourceAlpha" values="0 0 0 0 0 0 0 0 0 0 0 0 0 0 0 0 0 0 127 0" result="hardAlpha"/><feOffset dx="5" dy="-5"/><feComposite in2="hardAlpha" operator="out"/><feColorMatrix values="0 0 0 0 0.15 0 0 0 0 0.15 0 0 0 0 0.15 0 0 0 1 0"/><feBlend in2="BackgroundImageFix" result="effect1_dropShadow_0_29"/><feBlend in="SourceGraphic" in2="effect1_dropShadow_0_29" result="shape"/></filter><filter id="filter3_d_0_29" x="228.025" y="738.034" width="102.459" height="125.51" filterUnits="userSpaceOnUse" color-interpolation-filters="sRGB"><feFlood flood-opacity="0" result="BackgroundImageFix"/><feColorMatrix in="SourceAlpha" values="0 0 0 0 0 0 0 0 0 0 0 0 0 0 0 0 0 0 127 0" result="hardAlpha"/><feOffset dx="5" dy="-5"/><feComposite in2="hardAlpha" operator="out"/><feColorMatrix values="0 0 0 0 0.15 0 0 0 0 0.15 0 0 0 0 0.15 0 0 0 1 0"/><feBlend in2="BackgroundImageFix" result="effect1_dropShadow_0_29"/><feBlend in="SourceGraphic" in2="effect1_dropShadow_0_29" result="shape"/></filter><filter id="filter4_d_0_29" x="78.63" y="502.875" width="100.607" height="123.207" filterUnits="userSpaceOnUse" color-interpolation-filters="sRGB"><feFlood flood-opacity="0" result="BackgroundImageFix"/><feColorMatrix in="SourceAlpha" values="0 0 0 0 0 0 0 0 0 0 0 0 0 0 0 0 0 0 127 0" result="hardAlpha"/><feOffset dx="5" dy="-5"/><feComposite in2="hardAlpha" operator="out"/><feColorMatrix values="0 0 0 0 0.15 0 0 0 0 0.15 0 0 0 0 0.15 0 0 0 1 0"/><feBlend in2="BackgroundImageFix" result="effect1_dropShadow_0_29"/><feBlend in="SourceGraphic" in2="effect1_dropShadow_0_29" result="shape"/></filter><filter id="filter5_d_0_29" x="77.704" y="501.724" width="102.459" height="125.51" filterUnits="userSpaceOnUse" color-interpolation-filters="sRGB"><feFlood flood-opacity="0" result="BackgroundImageFix"/><feColorMatrix in="SourceAlpha" values="0 0 0 0 0 0 0 0 0 0 0 0 0 0 0 0 0 0 127 0" result="hardAlpha"/><feOffset dx="5" dy="-5"/><feComposite in2="hardAlpha" operator="out"/><feColorMatrix values="0 0 0 0 0.15 0 0 0 0 0.15 0 0 0 0 0.15 0 0 0 1 0"/><feBlend in2="BackgroundImageFix" result="effect1_dropShadow_0_29"/><feBlend in="SourceGraphic" in2="effect1_dropShadow_0_29" result="shape"/></filter><filter id="filter6_d_0_29" x="69.326" y="274.88" width="100.607" height="123.207" filterUnits="userSpaceOnUse" color-interpolation-filters="sRGB"><feFlood flood-opacity="0" result="BackgroundImageFix"/><feColorMatrix in="SourceAlpha" values="0 0 0 0 0 0 0 0 0 0 0 0 0 0 0 0 0 0 127 0" result="hardAlpha"/><feOffset dx="5" dy="-5"/><feComposite in2="hardAlpha" operator="out"/><feColorMatrix values="0 0 0 0 0.15 0 0 0 0 0.15 0 0 0 0 0.15 0 0 0 1 0"/><feBlend in2="BackgroundImageFix" result="effect1_dropShadow_0_29"/><feBlend in="SourceGraphic" in2="effect1_dropShadow_0_29" result="shape"/></filter><filter id="filter7_d_0_29" x="68.4" y="273.729" width="102.459" height="125.51" filterUnits="userSpaceOnUse" color-interpolation-filters="sRGB"><feFlood flood-opacity="0" result="BackgroundImageFix"/><feColorMatrix in="SourceAlpha" values="0 0 0 0 0 0 0 0 0 0 0 0 0 0 0 0 0 0 127 0" result="hardAlpha"/><feOffset dx="5" dy="-5"/><feComposite in2="hardAlpha" operator="out"/><feColorMatrix values="0 0 0 0 0.15 0 0 0 0 0.15 0 0 0 0 0.15 0 0 0 1 0"/><feBlend in2="BackgroundImageFix" result="effect1_dropShadow_0_29"/><feBlend in="SourceGraphic" in2="effect1_dropShadow_0_29" result="shape"/></filter><filter id="filter8_d_0_29" x="410.295" y="296.078" width="100.606" height="123.211" filterUnits="userSpaceOnUse" color-interpolation-filters="sRGB"><feFlood flood-opacity="0" result="BackgroundImageFix"/><feColorMatrix in="SourceAlpha" values="0 0 0 0 0 0 0 0 0 0 0 0 0 0 0 0 0 0 127 0" result="hardAlpha"/><feOffset dx="5" dy="-5"/><feComposite in2="hardAlpha" operator="out"/><feColorMatrix values="0 0 0 0 0.15 0 0 0 0 0.15 0 0 0 0 0.15 0 0 0 1 0"/><feBlend in2="BackgroundImageFix" result="effect1_dropShadow_0_29"/><feBlend in="SourceGraphic" in2="effect1_dropShadow_0_29" result="shape"/></filter><filter id="filter9_d_0_29" x="409.366" y="294.928" width="102.465" height="125.51" filterUnits="userSpaceOnUse" color-interpolation-filters="sRGB"><feFlood flood-opacity="0" result="BackgroundImageFix"/><feColorMatrix in="SourceAlpha" values="0 0 0 0 0 0 0 0 0 0 0 0 0 0 0 0 0 0 127 0" result="hardAlpha"/><feOffset dx="5" dy="-5"/><feComposite in2="hardAlpha" operator="out"/><feColorMatrix values="0 0 0 0 0.15 0 0 0 0 0.15 0 0 0 0 0.15 0 0 0 1 0"/><feBlend in2="BackgroundImageFix" result="effect1_dropShadow_0_29"/><feBlend in="SourceGraphic" in2="effect1_dropShadow_0_29" result="shape"/></filter><filter id="filter10_d_0_29" x="559.877" y="530.031" width="100.887" height="123.527" filterUnits="userSpaceOnUse" color-interpolation-filters="sRGB"><feFlood flood-opacity="0" result="BackgroundImageFix"/><feColorMatrix in="SourceAlpha" values="0 0 0 0 0 0 0 0 0 0 0 0 0 0 0 0 0 0 127 0" result="hardAlpha"/><feOffset dx="5" dy="-5"/><feComposite in2="hardAlpha" operator="out"/><feColorMatrix values="0 0 0 0 0.15 0 0 0 0 0.15 0 0 0 0 0.15 0 0 0 1 0"/><feBlend in2="BackgroundImageFix" result="effect1_dropShadow_0_29"/><feBlend in="SourceGraphic" in2="effect1_dropShadow_0_29" result="shape"/></filter><filter id="filter11_d_0_29" x="558.948" y="528.877" width="102.745" height="125.834" filterUnits="userSpaceOnUse" color-interpolation-filters="sRGB"><feFlood flood-opacity="0" result="BackgroundImageFix"/><feColorMatrix in="SourceAlpha" values="0 0 0 0 0 0 0 0 0 0 0 0 0 0 0 0 0 0 127 0" result="hardAlpha"/><feOffset dx="5" dy="-5"/><feComposite in2="hardAlpha" operator="out"/><feColorMatrix values="0 0 0 0 0.15 0 0 0 0 0.15 0 0 0 0 0.15 0 0 0 1 0"/><feBlend in2="BackgroundImageFix" result="effect1_dropShadow_0_29"/><feBlend in="SourceGraphic" in2="effect1_dropShadow_0_29" result="shape"/></filter><filter id="filter12_d_0_29" x="569.519" y="760.721" width="100.622" height="123.184" filterUnits="userSpaceOnUse" color-interpolation-filters="sRGB"><feFlood flood-opacity="0" result="BackgroundImageFix"/><feColorMatrix in="SourceAlpha" values="0 0 0 0 0 0 0 0 0 0 0 0 0 0 0 0 0 0 127 0" result="hardAlpha"/><feOffset dx="5" dy="-5"/><feComposite in2="hardAlpha" operator="out"/><feColorMatrix values="0 0 0 0 0.15 0 0 0 0 0.15 0 0 0 0 0.15 0 0 0 1 0"/><feBlend in2="BackgroundImageFix" result="effect1_dropShadow_0_29"/><feBlend in="SourceGraphic" in2="effect1_dropShadow_0_29" result="shape"/></filter><filter id="filter13_d_0_29" x="568.592" y="759.571" width="102.476" height="125.483" filterUnits="userSpaceOnUse" color-interpolation-filters="sRGB"><feFlood flood-opacity="0" result="BackgroundImageFix"/><feColorMatrix in="SourceAlpha" values="0 0 0 0 0 0 0 0 0 0 0 0 0 0 0 0 0 0 127 0" result="hardAlpha"/><feOffset dx="5" dy="-5"/><feComposite in2="hardAlpha" operator="out"/><feColorMatrix values="0 0 0 0 0.15 0 0 0 0 0.15 0 0 0 0 0.15 0 0 0 1 0"/><feBlend in2="BackgroundImageFix" result="effect1_dropShadow_0_29"/><feBlend in="SourceGraphic" in2="effect1_dropShadow_0_29" result="shape"/></filter><filter id="filter14_d_0_29" x="206.71" y="190.064" width="101.606" height="122.211" filterUnits="userSpaceOnUse" color-interpolation-filters="sRGB"><feFlood flood-opacity="0" result="BackgroundImageFix"/><feColorMatrix in="SourceAlpha" values="0 0 0 0 0 0 0 0 0 0 0 0 0 0 0 0 0 0 127 0" result="hardAlpha"/><feOffset dx="6" dy="-4"/><feComposite in2="hardAlpha" operator="out"/><feColorMatrix values="0 0 0 0 0.15 0 0 0 0 0.15 0 0 0 0 0.15 0 0 0 1 0"/><feBlend in2="BackgroundImageFix" result="effect1_dropShadow_0_29"/><feBlend in="SourceGraphic" in2="effect1_dropShadow_0_29" result="shape"/></filter><filter id="filter15_d_0_29" x="205.78" y="188.915" width="103.465" height="124.51" filterUnits="userSpaceOnUse" color-interpolation-filters="sRGB"><feFlood flood-opacity="0" result="BackgroundImageFix"/><feColorMatrix in="SourceAlpha" values="0 0 0 0 0 0 0 0 0 0 0 0 0 0 0 0 0 0 127 0" result="hardAlpha"/><feOffset dx="6" dy="-4"/><feComposite in2="hardAlpha" operator="out"/><feColorMatrix values="0 0 0 0 0.15 0 0 0 0 0.15 0 0 0 0 0.15 0 0 0 1 0"/><feBlend in2="BackgroundImageFix" result="effect1_dropShadow_0_29"/><feBlend in="SourceGraphic" in2="effect1_dropShadow_0_29" result="shape"/></filter><filter id="filter16_d_0_29" x="203.941" y="366.577" width="341.628" height="420.435" filterUnits="userSpaceOnUse" color-interpolation-filters="sRGB"><feFlood flood-opacity="0" result="BackgroundImageFix"/><feColorMatrix in="SourceAlpha" values="0 0 0 0 0 0 0 0 0 0 0 0 0 0 0 0 0 0 127 0" result="hardAlpha"/><feOffset dx="15" dy="-10"/><feComposite in2="hardAlpha" operator="out"/><feColorMatrix values="0 0 0 0 0.15 0 0 0 0 0.15 0 0 0 0 0.15 0 0 0 1 0"/><feBlend in2="BackgroundImageFix" result="effect1_dropShadow_0_29"/><feBlend in="SourceGraphic" in2="effect1_dropShadow_0_29" result="shape"/></filter><clipPath id="clip0_0_29"><path fill="#fff" transform="matrix(.88525 .46512 .03982 .9992 .742 .053)" d="M0 0h793.782v787.819H0z"/></clipPath><clipPath id="clip1_0_29"><path fill="#fff" transform="matrix(-1 0 0 1 158 535)" d="M0 0h63v62H0z"/></clipPath><clipPath id="clip2_0_29"><path fill="#fff" transform="translate(224 222)" d="M0 0h60v60H0z"/></clipPath><clipPath id="clip3_0_29"><path fill="#fff" transform="translate(427 331)" d="M0 0h60v60H0z"/></clipPath><clipPath id="clip4_0_29"><path fill="#fff" transform="matrix(-1 0 0 1 305 773)" d="M0 0h60v60H0z"/></clipPath><clipPath id="clip5_0_29"><path fill="#fff" transform="matrix(-1 0 0 1 510 882)" d="M0 0h60v60H0z"/></clipPath><clipPath id="clip6_0_29"><path fill="#fff" transform="matrix(-1 0 0 1 644 789)" d="M0 0h60v60H0z"/></clipPath><clipPath id="clip7_0_29"><path fill="#fff" transform="matrix(-1 0 0 1 637 565)" d="M0 0h60v60H0z"/></clipPath><clipPath id="clip8_0_29"><path fill="#fff" transform="matrix(-1 0 0 1 147 306)" d="M0 0h60v60H0z"/></clipPath></defs></svg>