<svg width="621" height="785" fill="none" xmlns="http://www.w3.org/2000/svg"><path d="M569.68 534.136c6.55 164.366-107.08 235.069-253.76 158.001" stroke="#4D4D4D" stroke-width="2.37" stroke-miterlimit="10"/><path d="M255.37 80.393c12.149 4.524 24.437 10.048 36.778 16.533 146.737 77.097 270.929 272.815 277.477 437.118" stroke="#4D4D4D" stroke-width="1.39" stroke-miterlimit="10" stroke-linecap="round"/><path d="M38.332 254.961C32.34 104.607 126.902 32.595 255.368 80.393" stroke="#4D4D4D" stroke-width="2.37" stroke-miterlimit="10"/><path d="M315.874 692.171C169.152 615.082 44.945 419.357 38.397 255.053" stroke="#262626" stroke-width=".7" stroke-miterlimit="10"/><g filter="url(#filter0_d_5_608)"><path d="M418.854 776.395c26.374 13.857 46.801 1.139 45.623-28.407-1.177-29.546-23.513-64.731-49.887-78.589-26.375-13.857-46.801-1.139-45.623 28.407 1.177 29.546 23.512 64.731 49.887 78.589z" fill="#fff"/><path d="M418.854 776.395c26.374 13.857 46.801 1.139 45.623-28.407-1.177-29.546-23.513-64.731-49.887-78.589-26.375-13.857-46.801-1.139-45.623 28.407 1.177 29.546 23.512 64.731 49.887 78.589z" stroke="#4D4D4D" stroke-width="2.09" stroke-miterlimit="10"/></g><g filter="url(#filter1_d_5_608)"><path d="M215.659 669.636c26.374 13.858 46.8 1.14 45.623-28.406-1.178-29.546-23.513-64.732-49.887-78.589-26.375-13.857-46.801-1.139-45.624 28.407 1.178 29.546 23.513 64.731 49.888 78.588z" fill="#fff"/><path d="M215.659 669.636c26.374 13.858 46.8 1.14 45.623-28.406-1.178-29.546-23.513-64.732-49.887-78.589-26.375-13.857-46.801-1.139-45.624 28.407 1.178 29.546 23.513 64.731 49.888 78.588z" stroke="#4D4D4D" stroke-width="2.09" stroke-miterlimit="10"/></g><g filter="url(#filter2_d_5_608)"><path d="M65.338 433.326c26.375 13.857 46.801 1.139 45.623-28.407-1.177-29.546-23.512-64.731-49.887-78.588-26.374-13.858-46.8-1.139-45.623 28.406 1.178 29.546 23.513 64.732 49.887 78.589z" fill="#fff"/><path d="M65.338 433.326c26.375 13.857 46.801 1.139 45.623-28.407-1.177-29.546-23.512-64.731-49.887-78.588-26.374-13.858-46.8-1.139-45.623 28.406 1.178 29.546 23.513 64.732 49.887 78.589z" stroke="#4D4D4D" stroke-width="2.09" stroke-miterlimit="10"/></g><g filter="url(#filter3_d_5_608)"><path d="M56.034 205.331c26.374 13.858 46.8 1.139 45.623-28.406-1.178-29.546-23.513-64.732-49.887-78.59C25.395 84.48 4.969 97.198 6.146 126.744c1.178 29.546 23.513 64.731 49.888 78.588z" fill="#fff"/><path d="M56.034 205.331c26.374 13.858 46.8 1.139 45.623-28.406-1.178-29.546-23.513-64.732-49.887-78.59C25.395 84.48 4.969 97.198 6.146 126.744c1.178 29.546 23.513 64.731 49.888 78.588z" stroke="#4D4D4D" stroke-width="2.09" stroke-miterlimit="10"/></g><g filter="url(#filter4_d_5_608)"><path d="M430.146 228.603c17.817-11.093 16.467-44.966-3.015-75.657-19.482-30.691-49.719-46.577-67.536-35.484-17.817 11.094-16.467 44.967 3.015 75.657 19.482 30.691 49.719 46.578 67.536 35.484z" fill="#fff"/><path d="M430.146 228.603c17.817-11.093 16.467-44.966-3.015-75.657-19.482-30.691-49.719-46.577-67.536-35.484-17.817 11.094-16.467 44.967 3.015 75.657 19.482 30.691 49.719 46.578 67.536 35.484z" stroke="#4D4D4D" stroke-width="2.09" stroke-miterlimit="10"/></g><g filter="url(#filter5_d_5_608)"><path d="M592.212 440.543c3.054-27.033-15.79-63.901-42.089-82.348-26.299-18.446-50.094-11.484-53.149 15.549-3.054 27.033 15.79 63.902 42.089 82.348 26.299 18.446 50.095 11.485 53.149-15.549z" fill="#fff"/><path d="M592.212 440.543c3.054-27.033-15.79-63.901-42.089-82.348-26.299-18.446-50.094-11.484-53.149 15.549-3.054 27.033 15.79 63.902 42.089 82.348 26.299 18.446 50.095 11.485 53.149-15.549z" stroke="#4D4D4D" stroke-width="2.096" stroke-miterlimit="10"/></g><g filter="url(#filter6_d_5_608)"><path d="M601.099 674.218c4.827-25.64-12.302-62.792-38.258-82.98-25.956-20.189-50.91-15.771-55.736 9.869-4.826 25.64 12.302 62.792 38.258 82.98 25.956 20.189 50.91 15.77 55.736-9.869z" fill="#fff"/><path d="M601.099 674.218c4.827-25.64-12.302-62.792-38.258-82.98-25.956-20.189-50.91-15.771-55.736 9.869-4.826 25.64 12.302 62.792 38.258 82.98 25.956 20.189 50.91 15.77 55.736-9.869z" stroke="#4D4D4D" stroke-width="2.09" stroke-miterlimit="10"/></g><g filter="url(#filter7_d_5_608)"><path d="M226.56 121.589c17.817-11.093 16.467-44.966-3.015-75.657-19.482-30.69-49.719-46.577-67.536-35.484-17.817 11.094-16.467 44.967 3.015 75.657 19.482 30.691 49.719 46.578 67.536 35.484z" fill="#fff"/><path d="M226.56 121.589c17.817-11.093 16.467-44.966-3.015-75.657-19.482-30.69-49.719-46.577-67.536-35.484-17.817 11.094-16.467 44.967 3.015 75.657 19.482 30.691 49.719 46.578 67.536 35.484z" stroke="#4D4D4D" stroke-width="2.09" stroke-miterlimit="10"/></g><g filter="url(#filter8_d_5_608)"><path d="M460.534 393.531l6.777 170.034c.236 5.618-.854 10.445-3.16 13.994-2.306 3.55-5.747 5.695-9.973 6.22L326.12 599.733c-4.212.528-9.059-.575-14.053-3.199-4.993-2.624-9.958-6.675-14.392-11.747l-59.956-68.495-74.879-85.584a67.134 67.134 0 01-10.873-17.127c-2.689-6.154-4.224-12.337-4.449-17.929l-6.776-170.034c-.223-5.593.872-10.396 3.175-13.926 2.304-3.531 5.735-5.664 9.948-6.185l128.058-15.954c4.214-.523 9.06.583 14.053 3.206s9.956 6.672 14.393 11.739l107.112 122.405 27.722 31.675a67.119 67.119 0 0110.856 17.068c2.691 6.133 4.234 12.301 4.475 17.885z" fill="#FE90C7"/></g><path d="M417.477 326.793L237.714 516.182l-74.878-85.585a67.111 67.111 0 01-10.873-17.126c-2.69-6.154-4.224-12.337-4.449-17.93l-1.394-34.982 155.824-164.094c2.952 2.227 5.809 4.909 8.463 7.945l107.07 122.383z" fill="#FE6BB4"/><path d="M449.788 553.821l-6.444-161.69c-.121-2.997-.943-6.309-2.384-9.606a36.012 36.012 0 00-5.822-9.179L306.921 226.843c-2.374-2.717-5.033-4.888-7.708-6.294-2.675-1.405-5.271-1.995-7.526-1.71l-121.772 15.202c-2.255.285-4.091 1.431-5.324 3.323-1.234 1.892-1.821 4.464-1.704 7.459l6.444 161.689c.121 2.997.943 6.31 2.384 9.607a36.03 36.03 0 005.822 9.179l128.217 146.518c2.377 2.711 5.035 4.877 7.708 6.282 2.674 1.404 5.269 1.998 7.527 1.723l121.773-15.171c2.261-.286 4.1-1.437 5.334-3.338 1.233-1.901 1.817-4.485 1.692-7.491z" fill="#E06AE9"/><path d="M441.408 387.732l6.443 161.689c.122 2.996-.464 5.569-1.698 7.459-1.234 1.891-3.073 3.031-5.33 3.307l-121.759 15.194c-2.261.275-4.858-.321-7.534-1.727-2.675-1.405-5.335-3.572-7.715-6.284L231 484.164l-55.402-63.329a35.941 35.941 0 01-5.821-9.17c-1.44-3.294-2.263-6.604-2.385-9.6l-6.444-161.689c-.114-2.993.475-5.563 1.708-7.455 1.233-1.891 3.067-3.038 5.32-3.327l80.876-10.084 40.898-5.087c2.257-.283 4.856.309 7.532 1.715 2.677 1.407 5.339 3.579 7.716 6.297l83.499 95.432 44.69 51.072a35.919 35.919 0 015.834 9.18c1.443 3.299 2.266 6.614 2.387 9.613z" fill="#7A18D5"/><path d="M217.757 269.561l165.099 86.745-.972 21.534-160.816-84.904-3.311-23.375zm35.442 135.926l55.845 76.098 2.649 14.89-1.576 12.026-72.111-98.384 15.193-4.63z" fill="#fff"/><path d="M251.796 393.575l1.496 12.27-5.799 4.966-9.5-.7-6.201-43.042 20.004 26.506zm107.911 68.485l-50.662 19.523-.498 12.761 1.571 14.155 66.136-26.261-4.951-22.522-11.596 2.344zm-82.183-66.045l67.405 35.415-5.857 16.097-65.535-34.433 3.987-17.079zM220.999 292.2l19.712 8.798 5.704 53.547-16.563.116-8.853-62.461z" fill="#fff"/><path d="M229.835 354.658l16.354-.738 32.744 43.043-5.405 16.129-43.693-58.434z" fill="#fff"/><path d="M229.835 354.658l16.354-.738 32.744 43.043-5.405 16.129-43.693-58.434zm134.926 11.761l17.209 9.215-2.541 51.061-16.486-23.222 1.818-37.054zm-94.301-23.845l67.872 35.66.785 19.69-67.872-35.66z" fill="#fff"/><path d="M338.358 378.246l40.118 56.146-14.397 3.92-36.566-50.178 10.845-9.888z" fill="#fff"/><path d="M378.46 434.384l-2.212 47.85-16.548-20.178.914-38.074 17.846 10.402zm-129.242-82.978l21.249-8.83 12.386 19.12-19.268 8.025-14.367-18.315zm83.651 73.586l12.43-5.056 11.494 17.421-17.717 10.173-6.207-22.538z" fill="#fff"/><path d="M388.114 317.516L230.617 483.814l-55.402-63.329a35.986 35.986 0 01-5.821-9.17c-1.44-3.294-2.262-6.604-2.385-9.6l-3.692-92.637 85.152-89.918 40.898-5.087c2.258-.283 4.856.309 7.533 1.715 2.677 1.407 5.338 3.578 7.715 6.297l83.499 95.431z" fill="#7E44FE" fill-opacity=".1"/><path d="M369.404 305.071c-.212 1.681-.92 2.965-2.029 3.681-1.109.717-2.567.832-4.182.331 1.633 1.219 3.15 2.903 4.353 4.833 1.204 1.931 2.038 4.017 2.394 5.988.218-1.669.922-2.946 2.021-3.665 1.1-.719 2.545-.848 4.148-.37-1.624-1.224-3.131-2.907-4.326-4.832-1.196-1.925-2.024-4.003-2.379-5.966z" fill="#E3E4E9"/><path d="M353.85 266.161c-.351 2.837-1.531 5.01-3.388 6.235-1.856 1.225-4.302 1.445-7.016.63 2.762 2.066 5.328 4.92 7.363 8.189s3.445 6.801 4.045 10.136c.356-2.832 1.539-5.001 3.394-6.225 1.856-1.225 4.298-1.448 7.01-.64-2.763-2.067-5.329-4.92-7.364-8.189s-3.444-6.801-4.044-10.136zm-148.844 199.84c6.023 3.164 10.682.112 10.406-6.818-.276-6.93-5.383-15.114-11.406-18.278-6.023-3.165-10.682-.112-10.406 6.818.277 6.93 5.383 15.113 11.406 18.278z" fill="#fff"/><path d="M87.81 443.911c2.12 1.114 3.76.092 3.666-2.282-.094-2.374-1.889-5.201-4.008-6.314-2.119-1.113-3.76-.091-3.665 2.282.094 2.374 1.889 5.201 4.008 6.314zm287.901 272.977c.042.987-.178 1.815-.632 2.38-.454.564-1.122.84-1.919.792-.797-.048-1.687-.418-2.558-1.063-.87-.645-1.681-1.535-2.331-2.559-.65-1.023-1.109-2.133-1.318-3.19-.209-1.056-.16-2.011.141-2.743.302-.732.842-1.209 1.553-1.37.711-.16 1.56.002 2.44.468 1.173.62 2.318 1.734 3.184 3.099.866 1.365 1.384 2.87 1.44 4.186zM564.81 470.811c.034.863-.161 1.587-.56 2.079-.4.493-.987.732-1.686.687-.699-.044-1.479-.37-2.241-.937-.762-.566-1.473-1.348-2.041-2.245-.568-.897-.969-1.87-1.151-2.795-.183-.925-.138-1.761.127-2.402.265-.64.739-1.057 1.362-1.197.623-.14 1.367.003 2.137.411a6.557 6.557 0 011.501 1.114c.48.467.922 1.014 1.298 1.608.377.595.681 1.225.896 1.856.215.631.337 1.25.358 1.821zM438.214 223.734c1.809.95 3.209.078 3.129-1.948-.081-2.026-1.613-4.439-3.421-5.389-1.809-.95-3.209-.078-3.129 1.948.081 2.026 1.613 4.439 3.421 5.389zm49.335 61.25c.029.807-.156 1.483-.533 1.942-.376.46-.927.682-1.582.638-.656-.043-1.387-.35-2.101-.882-.715-.532-1.38-1.264-1.913-2.105-.532-.841-.908-1.752-1.079-2.62-.172-.867-.131-1.65.116-2.252.247-.601.69-.994 1.273-1.127.582-.134 1.279-.003 2.001.377.481.252.961.609 1.414 1.049.452.44.868.955 1.223 1.515.354.561.641 1.155.844 1.749a6.07 6.07 0 01.337 1.716zm17.073 29.042c.031.832-.16 1.529-.548 2.002-.388.474-.956.703-1.632.658-.675-.045-1.429-.361-2.165-.909-.737-.548-1.422-1.303-1.971-2.17-.549-.867-.936-1.806-1.113-2.7-.177-.894-.135-1.702.119-2.322.255-.62.712-1.024 1.312-1.162.601-.138 1.319-.002 2.063.389.496.26.991.628 1.458 1.081.466.454.894.985 1.26 1.562.365.577.661 1.19.87 1.803.209.612.327 1.213.347 1.768zM111.034 87.607c2.212 1.162 3.925.096 3.826-2.382-.099-2.478-1.972-5.43-4.184-6.592s-3.925-.095-3.827 2.383c.099 2.478 1.973 5.429 4.185 6.591zM47.235 198.115c.05 1.246-.231 2.29-.808 3.001-.576.711-1.422 1.057-2.43.994-1.009-.063-2.134-.532-3.234-1.348-1.1-.816-2.126-1.942-2.947-3.236-.821-1.294-1.402-2.697-1.667-4.033-.266-1.335-.205-2.543.175-3.47s1.06-1.532 1.958-1.739c.897-.206 1.969-.004 3.08.58 1.491.783 2.948 2.198 4.05 3.933 1.1 1.735 1.757 3.648 1.823 5.318zm-5.003 22.897c.03.775-.144 1.426-.503 1.868-.359.443-.885.658-1.513.619-.627-.039-1.328-.331-2.013-.839-.685-.508-1.323-1.209-1.834-2.015-.512-.805-.873-1.679-1.038-2.51-.166-.831-.128-1.583.109-2.16.236-.578.66-.954 1.218-1.083.559-.128 1.226-.002 1.918.361.46.24.92.579 1.353.999.434.42.832.912 1.171 1.447.34.535.615 1.104.81 1.672a5.79 5.79 0 01.322 1.641zM293.893 101.05c1.63.857 2.893.071 2.82-1.755-.073-1.826-1.453-4-3.083-4.857-1.63-.856-2.893-.07-2.82 1.755.073 1.826 1.453 4.001 3.083 4.857zM277.61 89.764c.02.511-.095.94-.331 1.23-.237.292-.584.434-.997.408-.413-.025-.875-.218-1.326-.552a5.002 5.002 0 01-1.208-1.327 4.95 4.95 0 01-.684-1.653c-.108-.548-.083-1.043.072-1.423.156-.38.435-.629.803-.713.368-.085.807-.002 1.263.238.303.157.606.38.892.656.286.277.548.6.772.954.224.352.405.727.533 1.102.127.374.199.742.211 1.08zm255.797 587.099c1.87.983 3.319.081 3.236-2.015-.084-2.095-1.668-4.591-3.539-5.574-1.87-.982-3.319-.08-3.235 2.015.083 2.096 1.667 4.591 3.538 5.574zm-10.043 11.401c1.382.726 2.452.059 2.39-1.488-.061-1.548-1.231-3.391-2.613-4.117s-2.452-.06-2.39 1.488c.062 1.548 1.232 3.391 2.613 4.117zm-47.38-10.221l-29.106-15.293-7.194-11.348-1.3-32.606 6.579-4.096 29.106 15.292 7.208 11.34 1.299 32.606-6.592 4.105z" fill="#4D4D4D"/><path d="M448.809 613.271l-1.56-.82.208 5.227 1.56.82-.208-5.227zm3.789 1.986l-1.56-.82.208 5.227 1.56.82-.208-5.227zm3.773 1.986l-1.56-.819.209 5.227 1.56.819-.209-5.227zm3.782 1.986l-1.56-.819.208 5.227 1.56.819-.208-5.227zm3.781 1.987l-1.56-.82.208 5.227 1.56.82-.208-5.227zm3.789 1.994l-1.56-.82.208 5.227 1.56.819-.208-5.226zm3.789 1.986l-1.56-.82.208 5.227 1.56.82-.208-5.227zm-20.711 37.935l-1.56-.819.209 5.227 1.56.819-.209-5.227zm3.781 1.986l-1.56-.819.209 5.227 1.56.819-.209-5.227zm3.774 1.987l-1.56-.82.208 5.227 1.56.82-.208-5.227zm3.789 1.986l-1.56-.819.208 5.226 1.56.82-.208-5.227zm3.773 1.987l-1.56-.82.208 5.227 1.56.82-.208-5.227zm3.797 1.993l-1.56-.819.208 5.227 1.56.819-.208-5.227zm3.781 1.987l-1.56-.82.209 5.227 1.56.82-.209-5.227zm11.096-27.607l-.07-1.747-4.666-2.452.07 1.748 4.666 2.451zm.164 4.236l-.069-1.748-4.666-2.452.069 1.748 4.666 2.452zm.18 4.242l-.07-1.747-4.666-2.452.07 1.748 4.666 2.451zm.156 4.243l-.07-1.747-4.666-2.452.07 1.748 4.666 2.451zm.172 4.236l-.07-1.748-4.666-2.452.07 1.748 4.666 2.452zm.172 4.235l-.07-1.748-4.666-2.451.07 1.747 4.666 2.452zm.164 4.235l-.07-1.748-4.666-2.451.07 1.747 4.666 2.452zm-45.524-48.812l-.069-1.747-4.666-2.452.069 1.748 4.666 2.451zm.188 4.243l-.07-1.748-4.666-2.451.07 1.747 4.666 2.452zm.164 4.235l-.07-1.748-4.666-2.451.07 1.747 4.666 2.452zm.156 4.227l-.07-1.747-4.666-2.452.07 1.748 4.666 2.451zm.164 4.251l-.07-1.747-4.665-2.452.069 1.748 4.666 2.451zm.172 4.236l-.069-1.748-4.666-2.451.069 1.747 4.666 2.452zm.187 4.242l-.069-1.748-4.666-2.451.07 1.747 4.665 2.452z" fill="#B3B3B3"/><path d="M479.437 675.792l18.469 29.094m-74.337-117.119l18.455 29.071" stroke="#4D4D4D" stroke-width="1.39" stroke-miterlimit="10"/><path d="M500.617 706.588c.039.636-.091 1.174-.374 1.545-.282.37-.703.555-1.21.532-.506-.023-1.075-.254-1.631-.663a6.088 6.088 0 01-1.491-1.631 6.018 6.018 0 01-.837-2.037c-.131-.674-.095-1.281.103-1.743.199-.462.55-.758 1.009-.85.46-.091 1.006.026 1.568.337.722.399 1.422 1.089 1.955 1.929.533.839.858 1.763.908 2.581zM426.383 589.63c.024.603-.111 1.11-.389 1.456-.278.347-.687.517-1.174.491-.487-.027-1.032-.249-1.566-.639a5.923 5.923 0 01-1.437-1.556 5.956 5.956 0 01-.827-1.954c-.137-.65-.118-1.241.057-1.7.174-.459.495-.765.923-.88.427-.114.942-.033 1.48.235.734.385 1.451 1.076 1.999 1.925.548.85.883 1.79.934 2.622z" fill="#4D4D4D"/><path d="M187.752 170.966l-58.914-30.954-3.406-5.365-.482-12.092 3.114-1.955 58.914 30.954 3.421 5.389.482 12.091-3.129 1.932z" fill="#E06AE9"/><path d="M145.743 131.293l1.265.664-.193-4.849-1.265-.664.193 4.849zm-3.864-2.031l1.265.665-.194-4.85-1.265-.664.194 4.849zm11.608 6.099l1.265.665-.193-4.849-1.265-.665.193 4.849zm-3.865-2.03l1.265.664-.193-4.849-1.265-.664.193 4.849zm-11.608-6.1l1.265.665-.194-4.849-1.264-.665.193 4.849zm-7.744-4.068l1.265.664-.193-4.849-1.265-.664.193 4.849zm3.865 2.03l1.265.665-.193-4.849-1.265-.665.193 4.849zm23.217 12.199l1.265.664-.193-4.849-1.265-.664.193 4.849zm23.217 12.198l1.265.665-.193-4.849-1.265-.665.193 4.849zm-3.865-2.03l1.265.664-.193-4.849-1.265-.664.193 4.849zm7.537-.788l.193 4.849 1.279.672-.193-4.849-1.279-.672zm-23.024-7.35l1.237.65-.194-4.849-1.279-.672.236 4.871zm3.879 2.038l1.265.665-.194-4.849-1.265-.665.194 4.849zm3.865 2.031l1.264.665-.193-4.849-1.265-.665.194 4.849zm3.864 2.031l1.279.672-.193-4.849-1.279-.672.193 4.849zm-26.229 7.151l1.265.664-.194-4.864-1.265-.665.194 4.865zm-3.865-2.031l1.265.665-.194-4.865-1.265-.665.194 4.865zm11.608 6.099l1.265.665-.194-4.865-1.265-.664.194 4.864zm-3.864-2.03l1.264.664-.193-4.864-1.265-.665.194 4.865zm-11.609-6.099l1.265.664-.194-4.865-1.265-.664.194 4.865zm-7.744-4.069l1.265.665-.194-4.865-1.265-.665.194 4.865zm3.865 2.031l1.265.664-.194-4.865-1.265-.664.194 4.865zm23.217 12.198l1.265.665-.194-4.865-1.265-.665.194 4.865zm23.217 12.199l1.265.664-.194-4.865-1.265-.664.194 4.865zm-3.865-2.031l1.265.664-.194-4.864-1.264-.665.193 4.865zm7.536-.804l.194 4.865 1.279.672-.194-4.865-1.279-.672zm-23.023-7.333l1.237.65-.194-4.865-1.279-.672.236 4.887zm3.879 2.038l1.265.664-.194-4.865-1.265-.664.194 4.865zm3.865 2.03l1.265.665-.194-4.865-1.265-.665.194 4.865zm3.865 2.031l1.278.672-.193-4.865-1.279-.672.194 4.865zm228.206 125.373l-9.036-4.748-2.599-4.094-1.038-26.04 2.377-1.48 9.037 4.748 2.598 4.093 1.038 26.041-2.377 1.48z" fill="#E3E4E9"/><path d="M419.728 301.652l-9.036-4.747-2.599-4.094-1.038-26.04 2.377-1.48 9.036 4.748 2.613 4.101 1.038 26.04-2.391 1.472z" fill="#E06AE9"/><path d="M437.58 311.03l-9.037-4.748-2.598-4.093-1.038-26.041 2.376-1.479 9.037 4.747 2.599 4.094 1.037 26.04-2.376 1.48z" fill="#E3E4E9"/><path d="M124.668 296.742l-23.428-12.309-1.95-3.045-1.045-26.198 1.759-1.095 23.456 12.324 1.923 3.03 1.044 26.198-1.759 1.095z" fill="#B3B3B3"/><path d="M99.746 257.707l-4.778-2.511.05 1.244 4.777 2.511-.05-1.244zm.211 5.353l-4.778-2.511.049 1.244 4.778 2.511-.05-1.244zm.219 5.353l-4.779-2.511.05 1.244 4.778 2.511-.049-1.244zm.21 5.353l-4.778-2.511.05 1.244 4.778 2.51-.05-1.243zm.211 5.353l-4.778-2.511.05 1.244 4.778 2.511-.05-1.244zm28.188-6.157l-4.778-2.51.049 1.243 4.778 2.511-.049-1.244zm.211 5.353l-4.778-2.51.049 1.243 4.778 2.511-.049-1.244zm.219 5.353l-4.779-2.51.05 1.243 4.778 2.511-.049-1.244zm.211 5.353l-4.779-2.511.05 1.244 4.778 2.511-.049-1.244zm.21 5.353l-4.778-2.511.05 1.244 4.778 2.511-.05-1.244zm-7.752-27.221l-.213-5.353-1.111-.583.214 5.353 1.11.583zm-4.766-2.519l-.213-5.353-1.11-.583.213 5.353 1.11.583zm-4.773-2.511l-.213-5.352-1.111-.584.214 5.353 1.11.583zm-4.781-2.51l-.214-5.353-1.11-.583.213 5.353 1.111.583zm-4.774-2.511l-.213-5.353-1.11-.583.213 5.353 1.11.583zm20.391 42.562l-.213-5.352-1.111-.584.214 5.353 1.11.583zm-4.774-2.511l-.213-5.352-1.11-.584.213 5.353 1.11.583zm-4.781-2.51l-.213-5.353-1.11-.583.213 5.353 1.11.583zm-4.773-2.511l-.214-5.353-1.11-.583.213 5.353 1.111.583zm-4.766-2.503l-.213-5.353-1.11-.583.213 5.353 1.11.583z" fill="#E3E4E9"/><path d="M126.551 344.037l-23.428-12.31-1.951-3.044-1.044-26.198 1.759-1.095 23.456 12.324 1.923 3.03 1.044 26.197-1.759 1.096z" fill="#E06AE9"/><path d="M101.629 305.002l-4.779-2.511.05 1.244 4.778 2.511-.049-1.244zm.218 5.353l-4.778-2.511.05 1.244 4.778 2.51-.05-1.243zm.211 5.352l-4.778-2.51.05 1.244 4.778 2.51-.05-1.244zm.211 5.353l-4.778-2.51.05 1.244 4.778 2.51-.05-1.244zm.219 5.353l-4.778-2.51.05 1.244 4.778 2.51-.05-1.244zm28.18-6.156l-4.779-2.511.05 1.244 4.778 2.511-.049-1.244zm.218 5.353l-4.778-2.511.05 1.244 4.778 2.511-.05-1.244zm.211 5.353l-4.778-2.511.05 1.244 4.778 2.511-.05-1.244zm.211 5.353l-4.778-2.511.05 1.244 4.778 2.51-.05-1.243zm.219 5.353l-4.778-2.511.049 1.244 4.779 2.511-.05-1.244zm-7.76-27.221l-.214-5.353-1.11-.584.214 5.353 1.11.584zm-4.758-2.519l-.213-5.353-1.111-.583.214 5.353 1.11.583zm-4.773-2.511l-.214-5.353-1.11-.583.213 5.353 1.111.583zm-4.782-2.51l-.213-5.353-1.11-.584.213 5.353 1.11.584zm-4.773-2.511l-.213-5.353-1.111-.583.214 5.353 1.11.583zm20.383 42.562l-.214-5.353-1.11-.583.213 5.353 1.111.583zm-4.774-2.511l-.213-5.353-1.11-.583.213 5.353 1.11.583zm-4.781-2.51l-.213-5.353-1.111-.584.214 5.353 1.11.584zm-4.773-2.511l-.214-5.353-1.11-.583.213 5.353 1.111.583zm-4.758-2.503l-.214-5.353-1.11-.584.213 5.353 1.111.584z" fill="#E3E4E9"/><path d="M164.911 487.29l-13.843-7.274-1.144-1.788-.619-15.523 1.048-.637 13.843 7.274 1.144 1.788.619 15.523-1.048.637z" fill="#B3B3B3"/><path d="M150.175 464.227l-2.825-1.484.03.74 2.825 1.484-.03-.74zm.125 3.164l-2.825-1.484.03.74 2.825 1.484-.03-.74zm.125 3.181l-2.825-1.485.03.74 2.825 1.485-.03-.74zm.133 3.164l-2.825-1.484.03.74 2.824 1.484-.029-.74zm.125 3.164l-2.825-1.484.03.74 2.824 1.484-.029-.74zm16.695-3.635l-2.825-1.484.03.739 2.825 1.485-.03-.74zm.125 3.164l-2.825-1.484.03.74 2.825 1.484-.03-.74zm.125 3.181l-2.825-1.485.03.74 2.825 1.485-.03-.74zm.125 3.164l-2.825-1.484.03.74 2.825 1.484-.03-.74zm.125 3.165l-2.825-1.485.03.74 2.825 1.484-.03-.739zm-4.573-16.14l-.127-3.164-.66-.348.126 3.165.661.347zm-2.836-1.476l-.126-3.164-.661-.347.126 3.164.661.347zm-2.821-1.484l-.126-3.165-.66-.347.126 3.165.66.347zm-2.828-1.484l-.126-3.165-.66-.347.126 3.165.66.347zm-2.828-1.5l-.126-3.165-.661-.347.127 3.165.66.347zm12.078 25.214l-.126-3.164-.66-.347.126 3.164.66.347zm-2.828-1.484l-.126-3.164-.661-.347.127 3.164.66.347zm-2.828-1.492l-.126-3.164-.661-.347.126 3.164.661.347zm-2.828-1.484l-.126-3.164-.661-.347.126 3.164.661.347zm-2.82-1.484l-.127-3.164-.66-.347.126 3.164.661.347z" fill="#E3E4E9"/><path d="M55.306 12.655l-2.15-1.13c-.57-.3-1.128-.84-1.549-1.504-.421-.664-.672-1.395-.698-2.034l-.095-2.393c-.01-.566-.195-1.211-.525-1.829A4.982 4.982 0 0049 2.205a2.74 2.74 0 00-.948-.472c-.308-.077-.591-.066-.83.03-.24.097-.43.277-.555.529-.125.25-.184.567-.172.924l.1 2.504c.014.318-.027.603-.123.84s-.244.42-.435.539a1.122 1.122 0 01-.678.154A2.058 2.058 0 0144.54 7l-2.137-1.123c-.512-.28-1.005-.356-1.395-.216-.39.14-.654.488-.748.986-.048.32-.025.688.066 1.077.092.389.25.79.464 1.175.214.385.478.743.773 1.05.295.307.615.555.935.726l2.235 1.174c.56.29 1.107.814 1.527 1.461.42.647.676 1.365.716 1.999l.096 2.409c.013.567.202 1.212.535 1.828.333.615.79 1.163 1.292 1.552.317.237.641.401.95.479.307.078.591.067.83-.03a1.05 1.05 0 00.55-.535c.123-.253.178-.572.161-.933l-.1-2.503c-.021-.634.183-1.123.568-1.36.385-.237.92-.202 1.487.096l2.235 1.174c.321.17.636.257.92.255.284-.002.531-.092.723-.264.192-.172.325-.422.387-.731.063-.31.055-.67-.024-1.057a4.985 4.985 0 00-.865-1.795c-.415-.551-.914-.988-1.416-1.238z" fill="#4D4D4D"/><path d="M610.377 536.373l-1.925-1.012a3.25 3.25 0 01-.747-.554 4.42 4.42 0 01-.645-.801 4.403 4.403 0 01-.445-.924 3.175 3.175 0 01-.175-.905l-.086-2.157c-.013-.512-.183-1.095-.483-1.651a4.498 4.498 0 00-1.167-1.404 2.449 2.449 0 00-.853-.425c-.276-.068-.531-.059-.746.029a.948.948 0 00-.496.477c-.112.227-.164.512-.152.834l.09 2.252c.023.576-.16 1.021-.507 1.238-.348.216-.832.186-1.346-.085l-1.926-1.011c-.458-.254-.899-.323-1.248-.197s-.584.439-.664.887c-.046.286-.028.615.053.964.08.349.222.71.413 1.055.192.346.429.668.695.943.265.276.552.497.84.649l2.01 1.056c.514.27 1.017.758 1.397 1.357.38.598.606 1.258.629 1.834l.086 2.157c.011.51.18 1.09.477 1.645.298.554.706 1.05 1.158 1.403.286.211.578.357.855.426s.533.059.749-.027a.955.955 0 00.5-.475c.114-.226.168-.51.158-.832l-.09-2.251a1.825 1.825 0 01.109-.756c.086-.213.218-.378.389-.486a1.01 1.01 0 01.607-.143c.23.014.48.09.734.224l2.009 1.056c.289.15.57.227.825.226a.965.965 0 00.65-.237c.172-.153.292-.377.349-.653a2.407 2.407 0 00-.016-.946 4.464 4.464 0 00-.773-1.644c-.376-.506-.833-.908-1.292-1.136z" fill="#E3E4E9"/><path d="M80.82 508.478l-2.811-1.477c-.712-.374-1.407-1.05-1.933-1.878-.526-.828-.84-1.742-.871-2.539l-.12-2.992c-.01-.712-.242-1.525-.656-2.304-.415-.779-.986-1.476-1.62-1.974-.395-.295-.8-.497-1.183-.594-.384-.096-.739-.084-1.038.036-.299.12-.535.344-.692.658-.157.313-.23.707-.215 1.154l.126 3.149c.032.797-.22 1.413-.702 1.713-.48.299-1.15.257-1.863-.117l-2.628-1.38c-.646-.359-1.27-.461-1.764-.288-.494.172-.83.609-.95 1.235-.064.397-.039.855.074 1.342.112.486.309.988.576 1.469.267.481.597.93.967 1.313a4.7 4.7 0 001.17.901l2.811 1.477c.712.374 1.407 1.05 1.933 1.878.526.829.84 1.742.871 2.54l.12 2.991c.01.712.242 1.525.656 2.304.415.779.986 1.476 1.62 1.974.396.296.802.499 1.187.595.385.096.74.083 1.039-.039.299-.121.535-.348.69-.664.157-.315.228-.712.21-1.161l-.125-3.149c-.027-.79.225-1.4.703-1.698.477-.297 1.142-.258 1.849.109l2.81 1.477c.397.21.785.321 1.137.324.353.003.661-.102.904-.306.242-.205.413-.505.5-.879.086-.374.087-.813.002-1.287-.158-.763-.519-1.565-1.024-2.276-.505-.71-1.126-1.287-1.76-1.637z" stroke="#808490" stroke-width="1.39" stroke-miterlimit="10"/><path d="M550.314 765.42l-27.644-14.524c-.746-.392-1.474-1.099-2.024-1.967-.551-.867-.879-1.824-.912-2.659-.034-.835.231-1.48.734-1.794.504-.313 1.205-.269 1.951.122l27.644 14.525c.745.391 1.474 1.099 2.024 1.966.551.868.879 1.824.912 2.659.033.835-.231 1.481-.734 1.794-.504.314-1.206.27-1.951-.122zm13.138 6.904l-3.204-1.683c-.745-.392-1.474-1.099-2.024-1.967-.551-.867-.879-1.824-.912-2.659-.034-.835.231-1.48.734-1.794.504-.313 1.206-.269 1.951.122l3.204 1.684c.746.391 1.474 1.099 2.025 1.966.55.868.878 1.824.912 2.659.033.836-.231 1.481-.735 1.794-.504.314-1.205.27-1.951-.122zm16.2 8.514l-.576-.302c-.745-.392-1.473-1.099-2.024-1.967-.551-.867-.879-1.824-.912-2.659-.033-.835.231-1.48.734-1.794.504-.314 1.206-.27 1.951.122l.576.303c.746.391 1.474 1.099 2.025 1.966.55.868.878 1.824.912 2.659.033.835-.231 1.481-.735 1.794-.503.314-1.205.27-1.951-.122z" fill="#B3B3B3"/><path d="M263.542 45.44l-27.63-14.516c-.745-.392-1.474-1.1-2.024-1.967-.551-.867-.879-1.824-.912-2.659-.033-.835.231-1.48.734-1.794.504-.313 1.206-.27 1.951.122l27.63 14.517c.746.392 1.474 1.1 2.024 1.967.551.867.879 1.824.912 2.659.034.835-.231 1.48-.734 1.794-.504.313-1.205.27-1.951-.122zm13.159 6.912l-3.219-1.69c-.745-.392-1.473-1.1-2.024-1.967-.551-.868-.879-1.824-.912-2.66-.033-.834.231-1.48.735-1.793.503-.314 1.205-.27 1.95.122l3.219 1.69c.745.392 1.473 1.1 2.024 1.967.551.868.879 1.824.912 2.66.033.834-.231 1.48-.734 1.793-.504.314-1.206.27-1.951-.122zm16.179 8.507l-.562-.296c-.745-.391-1.473-1.099-2.024-1.966-.551-.868-.879-1.824-.912-2.66-.033-.834.231-1.48.735-1.793.503-.314 1.205-.27 1.95.122l.563.295c.745.392 1.473 1.1 2.024 1.967.55.867.879 1.824.912 2.659.033.835-.231 1.48-.735 1.794-.503.313-1.205.27-1.951-.122z" fill="#E06AE9"/><path d="M502.25 500.474c.027.676-.125 1.242-.438 1.628-.313.386-.772.573-1.319.539-.547-.034-1.157-.289-1.754-.731-.597-.443-1.153-1.054-1.599-1.756-.445-.702-.76-1.463-.904-2.187-.144-.725-.111-1.38.095-1.883.206-.503.575-.831 1.062-.943.487-.112 1.068-.003 1.671.314.809.425 1.599 1.193 2.197 2.134.597.941.953 1.979.989 2.885zm7.477-4.657c.027.676-.126 1.243-.439 1.628-.312.386-.771.574-1.318.54-.547-.035-1.158-.289-1.754-.732-.597-.442-1.154-1.053-1.599-1.755-.446-.702-.76-1.463-.904-2.188-.145-.725-.112-1.38.094-1.883.206-.503.576-.831 1.063-.943.486-.112 1.068-.002 1.671.315.809.425 1.599 1.192 2.196 2.133.598.941.954 1.979.99 2.885zm7.468-4.672c.027.677-.125 1.244-.439 1.629-.313.386-.773.573-1.321.538-.547-.035-1.159-.291-1.756-.735a6.608 6.608 0 01-1.599-1.76c-.445-.703-.758-1.465-.901-2.19-.142-.724-.107-1.379.101-1.881.208-.501.58-.827 1.068-.936.489-.109 1.072.004 1.676.324.806.428 1.593 1.195 2.187 2.134.595.94.948 1.974.984 2.877zm59.571 226.889c.013.327-.061.601-.212.787-.151.187-.373.278-.638.261-.265-.016-.56-.139-.849-.354a3.173 3.173 0 01-.773-.849 3.17 3.17 0 01-.438-1.059c-.07-.35-.054-.667.046-.911a.722.722 0 01.514-.456c.235-.054.517-.001.809.152.196.092.393.23.58.406.187.175.358.384.504.613.145.229.261.473.34.716.078.243.118.479.117.694zm-188.935-92.043c-.002.282-.079.513-.222.667-.142.154-.344.223-.581.2-.237-.024-.498-.138-.753-.331a2.932 2.932 0 01-.682-.755c-.19-.3-.326-.626-.391-.936-.065-.311-.057-.594.025-.816a.666.666 0 01.434-.432c.201-.06.445-.029.702.091.187.087.376.218.554.385.178.167.342.366.48.585.139.218.249.45.324.681.075.232.112.457.11.661z" fill="#B3B3B3"/><path d="M301.829 702.784c.012.33-.063.606-.218.792-.155.186-.381.274-.65.253-.269-.021-.568-.151-.859-.373a3.235 3.235 0 01-.772-.871 3.122 3.122 0 01-.422-1.07c-.061-.351-.035-.665.075-.901a.715.715 0 01.546-.423c.245-.039.533.031.828.201.191.1.381.242.56.418.179.176.342.383.479.606.138.224.247.461.321.696.075.235.113.463.112.672z" fill="#4D4D4D"/><path d="M261.533 699.256c.014.299-.05.55-.186.722a.66.66 0 01-.576.243c-.24-.013-.509-.124-.771-.318a2.897 2.897 0 01-.704-.771 2.854 2.854 0 01-.396-.962c-.063-.319-.048-.606.044-.826a.653.653 0 01.471-.409c.216-.047.472.004.738.147.349.188.689.52.947.927.258.406.413.854.433 1.247z" fill="#B3B3B3"/><path d="M203 514.206c.013.33-.062.606-.217.792-.155.187-.381.275-.65.253-.269-.021-.568-.151-.859-.373a3.22 3.22 0 01-.772-.871 3.115 3.115 0 01-.422-1.07c-.061-.351-.035-.665.075-.901a.712.712 0 01.546-.422c.245-.04.533.03.828.2.191.1.381.243.56.419a3.264 3.264 0 01.8 1.301 2.2 2.2 0 01.111.672z" fill="#4D4D4D"/><path d="M70.607 463.426c.978.514 1.736.042 1.692-1.053-.044-1.096-.872-2.401-1.85-2.915-.978-.513-1.735-.042-1.692 1.054.044 1.095.872 2.4 1.85 2.914zM5.68 204.155c.909.477 1.612.039 1.571-.978-.04-1.017-.81-2.229-1.717-2.706-.908-.477-1.612-.039-1.571.978.04 1.017.81 2.229 1.718 2.706zM106.118 36.1c.908.477 1.611.04 1.571-.978-.041-1.017-.81-2.229-1.718-2.706-.908-.477-1.611-.039-1.571.978.041 1.018.81 2.23 1.718 2.706zm243.734 27.237c.909.477 1.612.04 1.571-.978-.04-1.017-.809-2.229-1.717-2.706-.909-.477-1.612-.04-1.571.978.04 1.017.809 2.229 1.717 2.706zm152.473 169.819c.013.311-.057.572-.202.75a.694.694 0 01-.607.249c-.252-.016-.534-.133-.809-.337a3.046 3.046 0 01-.736-.809 3.005 3.005 0 01-.417-1.009c-.066-.333-.051-.635.044-.867a.69.69 0 01.489-.435c.224-.051.492-.001.77.145.373.196.737.55 1.012.983.276.434.44.912.456 1.33zm-178.23-50.13c.908.477 1.611.039 1.57-.978-.04-1.017-.809-2.229-1.717-2.706-.908-.477-1.612-.039-1.571.978.04 1.018.809 2.229 1.718 2.706z" fill="#B3B3B3"/><path d="M599.915 356.443c.016.423-.079.778-.275 1.02s-.484.36-.826.338c-.343-.021-.726-.181-1.1-.458a4.161 4.161 0 01-1.002-1.1 4.132 4.132 0 01-.567-1.372c-.09-.454-.069-.864.06-1.18.129-.315.361-.52.665-.591.305-.07.67-.001 1.048.197.507.267 1.002.748 1.376 1.338.375.59.598 1.24.621 1.808z" fill="#4D4D4D"/><path d="M502.294 434.175c.013.312-.058.573-.202.751a.694.694 0 01-.607.248c-.252-.016-.534-.133-.809-.337a3.05 3.05 0 01-.737-.809 3.01 3.01 0 01-.416-1.008c-.067-.334-.052-.636.043-.868a.69.69 0 01.49-.434c.224-.052.492-.001.77.145.373.196.737.549 1.012.983.275.434.44.912.456 1.329zm115.105 186.487c.017.423-.079.778-.275 1.02s-.483.36-.826.338c-.343-.021-.725-.181-1.099-.458a4.161 4.161 0 01-1.002-1.1 4.082 4.082 0 01-.567-1.372c-.09-.454-.07-.864.059-1.18.129-.315.361-.52.666-.591.305-.07.67-.001 1.048.197.506.267 1.002.748 1.376 1.338.374.59.598 1.24.62 1.808z" fill="#B3B3B3"/><path d="M485.977 575.61c.017.423-.078.778-.274 1.02s-.484.36-.827.338c-.343-.021-.725-.181-1.099-.458a4.161 4.161 0 01-1.002-1.1 4.103 4.103 0 01-.567-1.372c-.09-.454-.07-.864.06-1.18.129-.315.36-.521.665-.591.305-.07.67-.001 1.048.197.507.267 1.002.748 1.376 1.338.375.59.598 1.24.62 1.808z" fill="#E3E4E9"/><g clip-path="url(#clip0_5_608)"><path d="M423.769 164.444c.071-3.638-2.293-7.292-7.09-10.061-9.415-5.436-24.684-5.435-34.038 0-4.662 2.71-6.987 6.265-6.982 9.824l-.001-.035-.02 7.063c-.01 3.593 2.356 7.192 7.094 9.927 9.415 5.436 24.683 5.436 34.037 0 4.647-2.701 6.973-6.242 6.983-9.79l.02-7.063-.003.135zm-39.97 9.047c-2.877-1.661-4.821-3.661-5.833-5.78 1.005-2.072 2.906-4.027 5.709-5.656 8.776-5.101 23.102-5.101 31.936 0 2.877 1.661 4.821 3.661 5.833 5.779-1.005 2.073-2.906 4.028-5.708 5.656-8.777 5.101-23.104 5.101-31.937.001z" fill="#1D1D1F"/><path d="M422.287 164.306l-.02 7.063c.01-3.371-2.21-6.748-6.656-9.314-8.834-5.101-23.16-5.1-31.936 0-4.36 2.534-6.543 5.857-6.552 9.185l.02-7.063c.009-3.329 2.192-6.652 6.552-9.185 8.776-5.101 23.102-5.101 31.936 0 4.446 2.566 6.666 5.942 6.656 9.314z" fill="#1D1D1F"/><path d="M423.772 164.309l-.02 7.063c-.01 3.548-2.336 7.089-6.983 9.79-9.354 5.436-24.622 5.436-34.037 0-4.738-2.735-7.104-6.334-7.094-9.927l.02-7.063c-.01 3.593 2.356 7.191 7.094 9.927 9.415 5.435 24.683 5.435 34.037-.001 4.647-2.7 6.973-6.242 6.983-9.789z" fill="#2E2E30"/><path d="M416.679 154.383c9.415 5.435 9.464 14.28.11 19.716-9.354 5.435-24.622 5.435-34.037 0-9.415-5.436-9.465-14.28-.111-19.716 9.354-5.435 24.623-5.436 34.038 0zm-32.88 19.108c8.833 5.099 23.161 5.099 31.936-.001 8.777-5.1 8.73-13.399-.104-18.499s-23.16-5.1-31.936.001c-8.776 5.1-8.731 13.398.104 18.499z" fill="#3E3D43"/><path d="M411.362 178.845c.011-3.714-.78-6.349-1.765-5.882-4.611 1.739-13.923-.211-21.643-4.668-3.772-2.178-6.512-4.578-7.992-6.78-.034-3.284-.324-5.598-.685-5.284a.112.112 0 01.022-.016l-14.655 8.516a1.681 1.681 0 00-.257.187l-.007.007-.027.024-.039.04a1.2 1.2 0 00-.083.095l-.012.015a1.44 1.44 0 00-.09.138c-.112.194-.135.396-.167.675-.022.196-.08.838-.13 2.558-.044 1.558-.051 3.153-.054 3.834l-.005 1.682c-.007 2.454.038 5.405.155 6.465.026.228.05.338.065.39.041.137.069.183.144.307.038.062.106.132.155.185.026.028.067.06.095.085.061.054.155.111.224.154l2.679 1.547 2.678 1.546 2.679 1.547 2.679 1.546 2.678 1.547 2.679 1.546 2.679 1.547 2.678 1.546 2.679 1.547 2.679 1.546c.2.116.433.205.693.267a3.517 3.517 0 001.572 0c.193-.047.263-.074.431-.139.072-.027.112-.049.259-.128.002 0 .003-.004.005-.007-.002.003-.003.006-.005.007.212-.158.532-.312.761-.447.228-.134.551-.285.76-.447.209-.161.532-.312.76-.447l.761-.447 3.044-1.789 9.17-5.391c.96-.565 1.738-3.897 1.748-7.542l.005-1.682z" fill="#E0E0E2"/><path d="M379.274 171.321c-.053.084-.133.19-.176.279-.042.085-.099.198-.134.286a1.5 1.5 0 00-.072.221c.124-.681.262-2.738.27-5.642.002-.87.262-1.692.799-2.44-.01 3.587-.314 6.775-.687 7.296z" fill="#3E3D43"/><path d="M379.162 166.465l.005-1.682c.002-.87.261-1.691.798-2.44l-.004 1.682a4.123 4.123 0 00-.799 2.44z" fill="#3E3D43"/><path d="M364.644 164.731l14.655-8.516a.082.082 0 00-.022.016l-14.627 8.5a.006.006 0 00-.006 0z" fill="#E0E0E2"/><path d="M394.391 181.902c-.811.471-2.129.471-2.945 0l-26.787-15.465c-.598-.346-.758-.848-.482-1.277a1.44 1.44 0 00-.048.077c-.112.194-.135.396-.167.675-.022.196-.08.838-.13 2.558-.044 1.558-.051 3.153-.054 3.834l-.005 1.682c-.007 2.454.038 5.406.155 6.465.026.228.05.338.065.39.041.137.069.184.144.307.038.062.106.132.155.185.026.028.067.06.095.085.061.054.155.111.224.154l2.679 1.547 2.678 1.546 2.679 1.547 2.679 1.546 2.678 1.547 2.679 1.546 2.679 1.547 2.678 1.546 2.679 1.547 2.679 1.546c.2.116.433.206.693.267a3.517 3.517 0 001.572 0c.193-.047.263-.074.431-.139.072-.027.112-.049.259-.128.096-.055.18-2.98.19-6.626l.005-1.681c.011-3.715-.06-6.772-.157-6.828z" fill="#2E2E30"/><path d="M379.167 164.783c0-.615 0-1.896-.052-3.196-.069-1.758-.161-1.958-.165-1.978 0 0-.994-1.769.327-3.378.39-.34.699 2.397.688 6.112a4.124 4.124 0 00-.798 2.44z" fill="#77767E"/><path d="M370.531 161.857c2.557 10.95 12.38 19.105 24.108 19.105a24.661 24.661 0 0015.748-5.653c-2.558-10.949-12.38-19.105-24.109-19.105a24.656 24.656 0 00-15.747 5.653zm-6.07 13.09l.005-1.682c.01-3.715.097-6.772.193-6.828-.598-.346-.758-.848-.482-1.277a1.44 1.44 0 00-.048.077c-.112.194-.135.396-.167.675-.022.196-.08.838-.13 2.558-.044 1.558-.051 3.153-.054 3.834l-.005 1.682c-.007 2.454.038 5.406.155 6.465.026.228.05.338.065.39.041.137.069.184.144.307.038.062.106.132.155.185.026.028.067.06.095.085.061.055.155.111.224.154-.094-.054-.161-2.979-.15-6.625zm26.937 22.091c.2.115.433.205.693.266a3.52 3.52 0 001.572 0c.193-.047.263-.074.431-.138.072-.028.112-.049.259-.128.096-.056.18-2.981.191-6.627l.004-1.681c.011-3.715-.06-6.772-.157-6.828-.81.471-2.129.471-2.945 0l-.048 15.136z" fill="#3E3D43"/><path d="M391.446 181.902l-26.787-15.465c-.096.056-.183 3.113-.193 6.828l-.005 1.681c-.01 3.647.057 6.572.15 6.626l2.679 1.547 2.679 1.546 2.678 1.547 2.679 1.546 2.679 1.547 2.678 1.546 2.679 1.547 2.679 1.546 2.678 1.547 2.679 1.546.048-15.135z" fill="#2E2E30"/><path d="M364.461 174.947l.005-1.682c.01-3.715.097-6.772.193-6.828-.598-.346-.758-.848-.482-1.277a1.44 1.44 0 00-.048.077c-.112.194-.135.396-.167.675-.022.196-.08.838-.13 2.558-.044 1.558-.051 3.153-.054 3.834l-.005 1.682c-.007 2.454.038 5.406.155 6.465.026.228.05.338.065.39.041.137.069.184.144.307.038.062.106.132.155.185.026.028.067.06.095.085.061.055.155.111.224.154-.094-.054-.161-2.979-.15-6.625z" fill="#3E3D43"/><path d="M364.231 165.084zm-.054.076zm.042-.061l.012-.015-.012.015zm.425-.368a1.732 1.732 0 00-.257.187 1.69 1.69 0 01.262-.187h-.005zm-.265.194l.008-.008-.008.008zm-.027.024l-.038.04c.021-.022.042-.043.065-.064l-.027.024z" fill="#D8D8DA"/><path d="M409.597 172.963l-15.206 8.939c-.81.471-2.129.471-2.945 0l-26.787-15.465c-.816-.472-.82-1.235-.009-1.706l14.627-8.501c-2.032 2.842 1.404 7.866 8.677 12.064 7.72 4.458 17.032 6.408 21.643 4.669z" fill="#E0E0E2"/><path d="M388.22 173.277l-8.13-4.694-2.513 1.46 8.131 4.695 2.512-1.461z" fill="#57565C"/><path d="M411.362 178.845c.011-3.714-.78-6.349-1.765-5.882l-15.206 8.939c.097.056.168 3.113.157 6.828l-.005 1.681c-.01 3.646-.094 6.57-.19 6.626.212-.158.532-.312.761-.447.228-.134.551-.285.76-.446.209-.162.532-.313.76-.448l.761-.447 3.044-1.789 9.17-5.391c.96-.565 1.738-3.897 1.749-7.542l.004-1.682z" fill="#ACABB1"/><path d="M386.266 182.305c-.714-.413-1.295-.081-1.297.74-.002.821.574 1.821 1.289 2.233.715.413 1.296.082 1.298-.739.002-.821-.575-1.822-1.29-2.234zm-.019 6.683c-.714-.412-1.295-.081-1.297.74-.002.821.574 1.821 1.289 2.233.715.413 1.296.081 1.298-.74.002-.82-.575-1.82-1.29-2.233zm3.313-1.434c-.714-.412-1.295-.081-1.297.74-.003.821.575 1.82 1.289 2.232.714.413 1.295.082 1.298-.739.002-.821-.575-1.821-1.29-2.233zm-19.892-15.005c-.715-.412-1.296-.081-1.298.74-.002.821.574 1.821 1.289 2.234.715.412 1.296.081 1.298-.74.002-.821-.575-1.821-1.289-2.234zm-.02 6.684c-.714-.412-1.295-.081-1.297.739-.002.822.574 1.821 1.289 2.234.715.412 1.296.081 1.298-.74.002-.82-.575-1.82-1.29-2.233zm-3.293-5.249c-.715-.413-1.296-.081-1.298.74-.003.821.575 1.82 1.289 2.232.715.413 1.295.082 1.298-.739.002-.821-.575-1.82-1.289-2.233z" fill="#59A4FF"/><path d="M384.415 163.542a3.069 3.069 0 100-6.138 3.069 3.069 0 000 6.138z" fill="#77767E"/><path d="M387.611 173.431c0-2.398-1.678-5.303-3.748-6.49-1.028-.59-1.96-.645-2.637-.256l-1.929 1.106s-1.11.532-1.11 2.405l7.495 4.356 1.929-1.121z" fill="#1D1D1F"/><path d="M383.863 166.941c-1.028-.59-1.96-.645-2.637-.256l-1.929 1.106c.677-.388 1.609-.334 2.637.256 2.07 1.187 3.748 4.094 3.748 6.492v.013l1.929-1.121c0-2.398-1.678-5.303-3.748-6.49z" fill="#57565C"/><path d="M384.582 167.766l-1.689.975.115.103 1.924-1.111a10.604 10.604 0 00-.114-.103l-.236.136zm1.729 1.632a5.124 5.124 0 00-.08-.122l-1.925 1.111.079.123 1.926-1.112zm-3.519-2.891a3.03 3.03 0 00-.22-.042l-1.919 1.108c.072.011.145.025.219.042l1.92-1.108zm-.844 1.549c.049.027.096.056.144.086l1.923-1.11a3.641 3.641 0 00-.144-.086l-1.923 1.11zm1.715 1.472l.095.113 1.925-1.111-.095-.114-1.925 1.112zm1.598 2.77c.017.046.034.093.049.14l1.927-1.112c-.015-.047-.032-.094-.049-.141l-1.927 1.113zm-.423-.987l.065.131 1.926-1.112a7.972 7.972 0 00-.064-.132l-1.927 1.113zm.72 2.046l.029.152 1.928-1.113-.029-.152-1.928 1.113z" fill="#3E3D43"/><path d="M381.934 168.047c-2.057-1.18-3.727-.217-3.747 2.149l7.495 4.356v-.013c0-2.398-1.678-5.305-3.748-6.492z" fill="#2E2E30"/><path d="M381.934 170.025c-1.121-.644-2.032-.119-2.043 1.171l4.086 2.375.001-.008c-.001-1.307-.915-2.891-2.044-3.538z" fill="#1D1D1F"/></g><g clip-path="url(#clip1_5_608)"><path d="M233.14 631.986c0-6.291-2.588-13.266-6.42-18.37.069-.673.105-1.38.105-2.118 0-9.301-5.655-20.106-12.631-24.133-3.413-1.971-6.509-1.953-8.782-.333l-4.074 2.328c-2.819 1.46-4.618 5.107-4.618 10.352 0 .737.039 1.483.108 2.235-3.835.677-6.424 4.668-6.424 10.96 0 9.302 5.655 20.107 12.631 24.134 2.302 1.329 4.46 1.754 6.319 1.392 1.857 2.505 4.012 4.573 6.312 5.901 3.269 1.887 6.248 1.951 8.491.529l4.774-2.756v-.001c2.583-1.592 4.209-5.133 4.209-10.12z" fill="#009EFF"/><path d="M220.51 624.693c0 9.302-5.655 13.577-12.631 9.549-6.976-4.027-12.631-14.832-12.631-24.134 0-9.301 5.655-13.576 12.631-9.548 6.976 4.027 12.631 14.832 12.631 24.133z" fill="#F7E041"/><path d="M201.672 599.151c.8 8.735 6.099 18.188 12.522 21.896 2.257 1.303 4.373 1.732 6.207 1.408-.801-8.735-6.1-18.187-12.523-21.895-2.256-1.303-4.373-1.732-6.206-1.409z" fill="#E9662C"/><path d="M214.194 621.047c2.257 1.303 4.374 1.732 6.208 1.408-.514-5.604-2.88-11.502-6.208-15.991-3.327.647-5.694 3.812-6.208 8.822 1.834 2.442 3.951 4.458 6.208 5.761z" fill="#D36BC5"/><path d="M214.194 621.047c-2.257-1.303-4.374-3.319-6.208-5.761a20.71 20.71 0 00-.107 2.115c0 6.232 2.541 13.137 6.315 18.229 3.774-.734 6.316-4.704 6.316-10.937 0-.738-.039-1.485-.108-2.238-1.834.324-3.951-.105-6.208-1.408z" fill="#A4C639"/><path d="M221.981 614.297c0 9.302-5.655 13.577-12.63 9.549-6.976-4.027-12.631-14.832-12.631-24.134 0-9.301 5.655-13.576 12.631-9.548 6.975 4.027 12.63 14.832 12.63 24.133z" fill="#FF3400"/><path d="M214.194 587.365c-3.413-1.971-6.509-1.953-8.782-.333l-4.074 2.328c2.18-1.13 4.971-.952 8.012.804 6.976 4.027 12.631 14.832 12.631 24.133 0 .736-.035 1.44-.104 2.111l4.839-2.797.004.005c.069-.673.105-1.38.105-2.118 0-9.301-5.655-20.106-12.631-24.133z" fill="#750601"/><path d="M215.666 627.492c0 9.302-5.655 13.577-12.631 9.549-6.976-4.027-12.631-14.832-12.631-24.133 0-9.302 5.655-13.577 12.631-9.549 6.976 4.027 12.631 14.832 12.631 24.133z" fill="#FFCA00"/><path d="M196.828 601.951c.801 8.735 6.1 18.187 12.522 21.895 2.257 1.303 4.374 1.732 6.207 1.408-.8-8.735-6.1-18.187-12.522-21.895-2.257-1.303-4.373-1.732-6.207-1.408z" fill="#FF6936"/><path d="M228.297 634.785c0 9.301-5.655 13.576-12.631 9.549-6.976-4.028-12.631-14.833-12.631-24.134s5.655-13.576 12.631-9.549c6.976 4.028 12.631 14.833 12.631 24.134z" fill="#00BAFF"/><path d="M203.143 618.087c1.834 2.441 3.951 4.456 6.207 5.759 6.423 3.708 11.722.375 12.523-7.436-1.834-2.441-3.95-4.456-6.207-5.759-6.423-3.708-11.722-.374-12.523 7.436z" fill="#604EE8"/><path d="M209.35 623.846c2.258 1.303 4.375 1.733 6.209 1.408-.515-5.604-2.881-11.502-6.209-15.99-3.327.646-5.693 3.811-6.208 8.822 1.834 2.442 3.951 4.457 6.208 5.76z" fill="#EA6E8A"/><path d="M209.351 623.846c-2.258-1.303-4.375-3.319-6.209-5.761a20.71 20.71 0 00-.107 2.115c0 6.232 2.541 13.137 6.316 18.229 3.774-.734 6.315-4.704 6.315-10.937 0-.738-.038-1.485-.107-2.238-1.834.324-3.951-.105-6.208-1.408z" fill="#408E0D"/></g><g clip-path="url(#clip2_5_608)"><path d="M433.6 712.807l-31.2-17.958-2.456 1.466v40.519l31.203 18.015 2.454-1.464-.001-40.578z" fill="#BBD4DA"/><path d="M399.944 736.834v-40.519l31.188 17.982.015 40.552-31.203-18.015z" fill="#E5EFF2"/><path d="M399.944 696.315l2.456-1.466 31.2 17.958-2.468 1.49-31.188-17.982z" fill="#D6E5E9"/><path d="M403.852 703.073l23.386 13.502v31.517l-23.361-13.488-.025-31.531z" fill="#008BBF"/><path d="M403.868 723.975v-20.893l23.37 13.493v20.892l-23.37-13.492z" fill="#33C8FF"/><path d="M403.868 723.975l7.19-4.25 5.058 8.385 4.971-.851 6.151 10.208-23.37-13.492z" fill="#408E0D"/><path d="M423.471 722.783c0 2.74-1.666 3.999-3.721 2.813-2.055-1.187-3.721-4.37-3.721-7.11s1.666-3.999 3.721-2.812c2.055 1.186 3.721 4.369 3.721 7.109z" fill="#FFCA00"/></g><g clip-path="url(#clip3_5_608)"><path d="M563.023 613.701l-20.142-11.533a2.33 2.33 0 00-2.373.013h-.001l-3.322 1.979a2.337 2.337 0 00-1.504 2.19v38.756a5.686 5.686 0 002.842 4.922l20.142 11.503a2.32 2.32 0 002.191.079l.01.023 3.807-2.242a2.328 2.328 0 001.19-2.043v-38.726a5.683 5.683 0 00-2.84-4.921z" fill="#9F9EAD"/><path d="M535.681 645.106V606.35c0-1.81 1.96-2.941 3.527-2.035l20.143 11.533a5.685 5.685 0 012.84 4.921v38.726c0 1.81-1.959 2.941-3.527 2.036l-20.141-11.503a5.683 5.683 0 01-2.842-4.922z" fill="#E3E3E3"/><path d="M538.202 607.635l20.616 11.718v34.974l-20.616-12.011v-34.681z" fill="#00BAFF"/><path d="M541.923 611.889l1.9 1.097a2.263 2.263 0 011.132 1.96v3.074a.908.908 0 01-1.363.787l-1.898-1.096a2.263 2.263 0 01-1.132-1.958l-.002-3.077a.909.909 0 011.363-.787z" fill="#FF3400"/><path d="M547.676 615.149l1.9 1.098a2.263 2.263 0 011.132 1.96v3.074a.91.91 0 01-1.363.787l-1.898-1.096a2.265 2.265 0 01-1.132-1.959l-.002-3.076a.909.909 0 011.363-.788z" fill="#604EE8"/><path d="M553.428 618.41l1.901 1.097a2.263 2.263 0 011.131 1.96v3.074a.908.908 0 01-1.362.787l-1.898-1.096a2.263 2.263 0 01-1.132-1.958l-.002-3.077a.908.908 0 011.362-.787z" fill="#009EFF"/><path d="M541.923 620.281l1.9 1.097a2.266 2.266 0 011.132 1.96v3.075a.908.908 0 01-1.363.786l-1.898-1.096a2.263 2.263 0 01-1.132-1.958l-.002-3.077a.909.909 0 011.363-.787z" fill="#408E0D"/><path d="M547.672 623.597l1.909 1.103a2.273 2.273 0 011.137 1.969v3.089a.913.913 0 01-1.369.79l-1.907-1.101a2.273 2.273 0 01-1.137-1.967l-.003-3.091a.914.914 0 011.37-.792z" fill="#FFCA00"/><path d="M553.452 626.873l1.909 1.103a2.272 2.272 0 011.137 1.969v3.089a.913.913 0 01-1.369.79l-1.907-1.101a2.273 2.273 0 01-1.137-1.967l-.003-3.092a.914.914 0 011.37-.791z" fill="#FF6936"/><path d="M541.892 628.753l1.909 1.102a2.274 2.274 0 011.137 1.97v3.089a.913.913 0 01-1.369.79l-1.907-1.101a2.273 2.273 0 01-1.137-1.968l-.003-3.091a.914.914 0 011.37-.791z" fill="#009EFF"/><path d="M547.672 632.029l1.909 1.103a2.272 2.272 0 011.137 1.969v3.089a.913.913 0 01-1.369.79l-1.907-1.101a2.273 2.273 0 01-1.137-1.967l-.003-3.092a.914.914 0 011.37-.791z" fill="#FF3400"/><path d="M553.452 635.305l1.909 1.103a2.273 2.273 0 011.137 1.969v3.089a.913.913 0 01-1.369.79l-1.907-1.101a2.273 2.273 0 01-1.137-1.967l-.003-3.091a.914.914 0 011.37-.792z" fill="#604EE8"/><path d="M541.892 637.185l1.909 1.102a2.274 2.274 0 011.137 1.97v3.088a.913.913 0 01-1.369.791l-1.907-1.101a2.273 2.273 0 01-1.137-1.968l-.003-3.091a.913.913 0 011.37-.791z" fill="#FFCA00"/><path d="M547.672 640.461l1.909 1.102a2.274 2.274 0 011.137 1.97v3.088a.913.913 0 01-1.369.791l-1.907-1.101a2.273 2.273 0 01-1.137-1.968l-.003-3.091a.914.914 0 011.37-.791z" fill="#408E0D"/><path d="M553.452 643.737l1.909 1.103a2.272 2.272 0 011.137 1.969v3.089a.913.913 0 01-1.369.79l-1.907-1.101a2.273 2.273 0 01-1.137-1.968l-.003-3.091a.914.914 0 011.37-.791z" fill="#009EFF"/><path d="M549.54 652.797c0 1.286-.782 1.877-1.746 1.32-.965-.557-1.746-2.05-1.746-3.336s.781-1.877 1.746-1.32c.964.556 1.746 2.05 1.746 3.336z" fill="#D1D1D1"/><path opacity=".1" d="M538.202 638.009l20.616-15.585v-3.071l-14.783-8.402-5.833 4.409v22.649zm20.616 8.546v-15.678l-17.519 13.244 11.713 6.823 5.806-4.389z" fill="#fff"/></g><g clip-path="url(#clip4_5_608)"><path d="M530.782 407.849l-12.95 7.477v7.489l26.041 15.034 25.839-14.918v-7.605l-12.799-7.447-26.131-.03z" fill="#8475FF"/><path d="M543.873 377.849l25.839 15.035v7.605l-25.839 14.918-26.041-15.035v-7.488l26.041-15.035z" fill="#FF9134"/><path d="M543.873 377.849l-26.041 15.035 26.041 15.035 25.839-15.035-25.839-15.035z" fill="#FF6936"/><path d="M543.873 430.361v7.488l25.839-14.918v-7.605l-25.839 15.035z" fill="#30469A"/><path d="M543.873 415.407l-13.091-7.558-12.95 7.477 26.041 15.035 25.839-15.035-12.799-7.447-13.04 7.528z" fill="#604EE8"/><path d="M543.873 407.919v7.488l25.839-14.918v-7.605l-25.839 15.035z" fill="#FF4404"/><path d="M517.832 392.884l26.041 15.035v7.488l-26.041-15.034v-7.489z" fill="#FF9134"/></g><g clip-path="url(#clip5_5_608)"><path d="M70.545 136.845l-31.268-17.996L37 120.19v40.606l31.27 18.053 2.276-1.338v-40.666z" fill="#BBD4DA"/><path d="M37 160.796V120.19l31.254 18.02.015 40.639L37 160.796z" fill="#E5EFF2"/><path d="M37 120.19l2.277-1.341 31.268 17.996-2.29 1.365-31.256-18.02z" fill="#D6E5E9"/><path d="M39.066 137.366l11.718 6.765v15.872l-11.706-6.758-.012-15.879z" fill="#BBD4DA"/><path d="M68.27 149.52L37 131.499V120.19l31.27 18.02v11.31z" fill="#604EE8"/><path d="M63.416 142.675l-21.563-12.779v-2.862l21.563 12.779v2.862z" fill="#fff"/><path d="M64.158 153.858l-11.523-6.617v-2.06l11.523 6.617v2.06zm0 4.507l-11.523-6.617v-2.06l11.523 6.617v2.06zm0 4.528l-11.523-6.617v-2.06l11.523 6.617v2.06zm0 4.506l-11.523-6.617v-2.06l11.523 6.617v2.06zm0 4.642l-25.092-14.484v-2.06l25.092 14.484v2.06z" fill="#969698"/></g><g clip-path="url(#clip6_5_608)"><path d="M63.273 348.172c-20.823 0-29.47 27.104-12.254 38.702v13.146c0 2.8 2.545 4.664 4.855 5.684.738 5.527 14.059 5.527 14.797 0 2.313-1.022 4.855-2.966 4.855-5.684v-13.146c17.158-11.56 8.641-38.702-12.253-38.702z" fill="#518282"/><path d="M51.019 388.397v11.622c0 3.939 5.486 7.132 12.254 7.132 6.767 0 12.253-3.193 12.253-7.132v-11.622H51.02z" fill="#518282"/><path d="M63.272 403.275c-6.767 0-12.254-3.193-12.254-7.131v3.876c0 3.938 5.487 7.131 12.254 7.131 6.768 0 12.254-3.193 12.254-7.131v-3.876c0 3.938-5.486 7.131-12.254 7.131z" fill="#749B9B"/><path d="M63.272 395.529c-6.767 0-12.254-3.193-12.254-7.132v3.876c0 3.939 5.487 7.132 12.254 7.132 6.768 0 12.254-3.193 12.254-7.132v-3.876c0 3.939-5.486 7.132-12.254 7.132z" fill="#749B9B"/><path d="M84.993 369.225c0-11.805-9.725-21.376-21.72-21.376-11.997 0-21.722 9.571-21.722 21.376 0 7.332 3.752 13.798 9.467 17.649v1.523c0 3.939 5.487 7.132 12.254 7.132 6.768 0 12.254-3.193 12.254-7.132v-1.523c5.716-3.851 9.467-10.317 9.467-17.649z" fill="#FFCA00"/><path opacity=".3" d="M63.272 395.529c-6.767 0-12.254-3.193-12.254-7.132 0-3.938 5.486-7.131 12.254-7.131s12.255 3.193 12.255 7.131c0 3.939-5.487 7.132-12.255 7.132z" fill="#fff"/><path d="M71.483 376.681c-1.314-.426-2.689-.92-3.905-1.733-.669-.211-1.068.024-1.196.704v1.412l-.019-.01a1.544 1.544 0 01-.803-1.349v-2.76a3.144 3.144 0 00-1.597-2.722l-.1-.057c-1.295-.441-2.072 0-2.331 1.324v2.859l-.02-.011a1.542 1.542 0 01-.82-1.358v-2.771c0-2.131-3.886-4.408-3.886-1.373v.077l-1.833-1.011-.05-.202c-.345-1.395-2.538-.869-2.192.526l4.363 17.621c.393 1.586 2.505.736 2.193-.526l-3.788-15.298 1.722.951c.673.222 1.076-.01 1.208-.697v-1.312c.936.675.81 3.075.64 4.016a3.13 3.13 0 001.667 2.76l.123.066c1.283.41 2.048-.038 2.296-1.343v-2.855c.482.276.781.787.781 1.336v2.76c0 1.137.626 2.188 1.635 2.743.976.447 2.434.267 2.434-1.267v-.193l1.858.984-4.018 12.002c-.42 1.254 1.634 2.219 2.144.695l4.213-12.586a1.106 1.106 0 00-.719-1.402c-.222-.072.592.192 0 0z" fill="#CAA414"/><path opacity=".3" d="M56.667 371.689c-5.243 0-9.494-4.183-9.494-9.343 0-5.161 4.25-9.344 9.494-9.344s9.495 4.183 9.495 9.344c0 5.16-4.251 9.343-9.495 9.343z" fill="#fff"/></g><g clip-path="url(#clip7_5_608)"><path d="M170.905 42.297c-3.896 2.15-6.317 6.893-6.317 13.681 0 13.324 9.323 29.473 20.825 36.07 5.732 3.288 10.923 3.582 14.688 1.4l-.035.022 10.718-6.148c3.811-2.186 6.172-6.897 6.172-13.602 0-13.324-9.323-29.473-20.825-36.07-5.713-3.277-10.889-3.58-14.652-1.422l-10.719 6.148c.048-.027.097-.052.145-.08z" fill="#FEDA44"/><path d="M170.76 42.376l10.719-6.148c3.763-2.158 8.939-1.855 14.653 1.422 11.501 6.598 20.825 22.746 20.825 36.07 0 6.705-2.361 11.417-6.173 13.603l-10.718 6.148c3.811-2.186 6.172-6.898 6.172-13.603 0-13.324-9.323-29.472-20.825-36.07-5.714-3.277-10.89-3.58-14.653-1.422z" fill="#EEBF00"/><path d="M164.588 55.979c0-13.324 9.323-18.777 20.825-12.18 11.501 6.596 20.825 22.745 20.825 36.07 0 13.323-9.323 18.776-20.825 12.18-11.501-6.598-20.825-22.747-20.825-36.07z" fill="#FEDA44"/><path d="M198.327 60.357c3.636 6.297 5.493 13.069 5.229 19.068-.23 5.224-2.125 9.24-5.199 11.021-3.089 1.789-7.349 1.453-11.996-.947-5.305-2.74-10.228-7.715-13.862-14.009-3.635-6.297-5.492-13.069-5.229-19.068.23-5.224 2.125-9.241 5.199-11.021 3.09-1.789 7.35-1.453 11.996.947 5.305 2.74 10.228 7.715 13.862 14.009zm-25.281 14.817c3.574 6.19 8.406 11.079 13.605 13.764 4.448 2.297 8.493 2.639 11.389.962 2.885-1.67 4.665-5.498 4.885-10.503.258-5.88-1.569-12.53-5.145-18.724-3.574-6.19-8.406-11.079-13.605-13.764-4.448-2.297-8.493-2.639-11.389-.962-2.884 1.67-4.665 5.498-4.885 10.503-.258 5.88 1.569 12.53 5.145 18.724z" fill="#EEBF00"/><path d="M200.125 42.238l-9.382 5.416c.213.188.424.378.634.571l10.692-6.172c-.21-.193-.422-.384-.635-.571l-1.309.756zm9.607 9.069a45.658 45.658 0 00-.442-.683l-10.699 6.178c.149.226.296.453.441.682l10.7-6.177zM190.18 35.238c-.412-.094-.82-.172-1.221-.232l-10.662 6.156c.399.06.805.14 1.215.236l10.668-6.16zm-4.686 8.608c.266.154.531.314.795.478l10.685-6.169a28.151 28.151 0 00-.796-.477l-10.684 6.168zm9.525 8.179c.178.209.353.42.528.633l10.696-6.176c-.174-.213-.35-.424-.528-.632l-10.696 6.175zm8.882 15.39c.092.26.183.52.271.78l10.707-6.181a48.18 48.18 0 00-.272-.78l-10.706 6.18zm-2.35-5.483c.122.243.241.486.359.73l10.703-6.18a50.822 50.822 0 00-.359-.73l-10.703 6.18zm13.7 20.385c.188-.396.361-.809.52-1.238l-10.738 6.2a14.77 14.77 0 01-.528 1.242l10.746-6.204zm-9.702-9.015c.057.282.111.563.161.844l10.713-6.184a35.837 35.837 0 00-.163-.844l-10.711 6.184zm.675 7.387l10.72-6.19c.008-.256.013-.516.013-.779l-.002-.164-10.718 6.188.001.124c0 .278-.006.55-.014.82z" fill="#FECE00"/></g><defs><filter id="filter0_d_5_608" x="367.992" y="657.642" width="102.459" height="125.51" filterUnits="userSpaceOnUse" color-interpolation-filters="sRGB"><feFlood flood-opacity="0" result="BackgroundImageFix"/><feColorMatrix in="SourceAlpha" values="0 0 0 0 0 0 0 0 0 0 0 0 0 0 0 0 0 0 127 0" result="hardAlpha"/><feOffset dx="5" dy="-5"/><feComposite in2="hardAlpha" operator="out"/><feColorMatrix values="0 0 0 0 0.15 0 0 0 0 0.15 0 0 0 0 0.15 0 0 0 1 0"/><feBlend in2="BackgroundImageFix" result="effect1_dropShadow_5_608"/><feBlend in="SourceGraphic" in2="effect1_dropShadow_5_608" result="shape"/></filter><filter id="filter1_d_5_608" x="164.797" y="550.884" width="102.459" height="125.51" filterUnits="userSpaceOnUse" color-interpolation-filters="sRGB"><feFlood flood-opacity="0" result="BackgroundImageFix"/><feColorMatrix in="SourceAlpha" values="0 0 0 0 0 0 0 0 0 0 0 0 0 0 0 0 0 0 127 0" result="hardAlpha"/><feOffset dx="5" dy="-5"/><feComposite in2="hardAlpha" operator="out"/><feColorMatrix values="0 0 0 0 0.15 0 0 0 0 0.15 0 0 0 0 0.15 0 0 0 1 0"/><feBlend in2="BackgroundImageFix" result="effect1_dropShadow_5_608"/><feBlend in="SourceGraphic" in2="effect1_dropShadow_5_608" result="shape"/></filter><filter id="filter2_d_5_608" x="14.477" y="314.573" width="102.459" height="125.51" filterUnits="userSpaceOnUse" color-interpolation-filters="sRGB"><feFlood flood-opacity="0" result="BackgroundImageFix"/><feColorMatrix in="SourceAlpha" values="0 0 0 0 0 0 0 0 0 0 0 0 0 0 0 0 0 0 127 0" result="hardAlpha"/><feOffset dx="5" dy="-5"/><feComposite in2="hardAlpha" operator="out"/><feColorMatrix values="0 0 0 0 0.15 0 0 0 0 0.15 0 0 0 0 0.15 0 0 0 1 0"/><feBlend in2="BackgroundImageFix" result="effect1_dropShadow_5_608"/><feBlend in="SourceGraphic" in2="effect1_dropShadow_5_608" result="shape"/></filter><filter id="filter3_d_5_608" x="5.172" y="86.578" width="102.459" height="125.51" filterUnits="userSpaceOnUse" color-interpolation-filters="sRGB"><feFlood flood-opacity="0" result="BackgroundImageFix"/><feColorMatrix in="SourceAlpha" values="0 0 0 0 0 0 0 0 0 0 0 0 0 0 0 0 0 0 127 0" result="hardAlpha"/><feOffset dx="5" dy="-5"/><feComposite in2="hardAlpha" operator="out"/><feColorMatrix values="0 0 0 0 0.15 0 0 0 0 0.15 0 0 0 0 0.15 0 0 0 1 0"/><feBlend in2="BackgroundImageFix" result="effect1_dropShadow_5_608"/><feBlend in="SourceGraphic" in2="effect1_dropShadow_5_608" result="shape"/></filter><filter id="filter4_d_5_608" x="346.138" y="107.778" width="102.465" height="125.51" filterUnits="userSpaceOnUse" color-interpolation-filters="sRGB"><feFlood flood-opacity="0" result="BackgroundImageFix"/><feColorMatrix in="SourceAlpha" values="0 0 0 0 0 0 0 0 0 0 0 0 0 0 0 0 0 0 127 0" result="hardAlpha"/><feOffset dx="5" dy="-5"/><feComposite in2="hardAlpha" operator="out"/><feColorMatrix values="0 0 0 0 0.15 0 0 0 0 0.15 0 0 0 0 0.15 0 0 0 1 0"/><feBlend in2="BackgroundImageFix" result="effect1_dropShadow_5_608"/><feBlend in="SourceGraphic" in2="effect1_dropShadow_5_608" result="shape"/></filter><filter id="filter5_d_5_608" x="495.721" y="341.727" width="102.745" height="125.834" filterUnits="userSpaceOnUse" color-interpolation-filters="sRGB"><feFlood flood-opacity="0" result="BackgroundImageFix"/><feColorMatrix in="SourceAlpha" values="0 0 0 0 0 0 0 0 0 0 0 0 0 0 0 0 0 0 127 0" result="hardAlpha"/><feOffset dx="5" dy="-5"/><feComposite in2="hardAlpha" operator="out"/><feColorMatrix values="0 0 0 0 0.15 0 0 0 0 0.15 0 0 0 0 0.15 0 0 0 1 0"/><feBlend in2="BackgroundImageFix" result="effect1_dropShadow_5_608"/><feBlend in="SourceGraphic" in2="effect1_dropShadow_5_608" result="shape"/></filter><filter id="filter6_d_5_608" x="505.364" y="572.421" width="102.476" height="125.484" filterUnits="userSpaceOnUse" color-interpolation-filters="sRGB"><feFlood flood-opacity="0" result="BackgroundImageFix"/><feColorMatrix in="SourceAlpha" values="0 0 0 0 0 0 0 0 0 0 0 0 0 0 0 0 0 0 127 0" result="hardAlpha"/><feOffset dx="5" dy="-5"/><feComposite in2="hardAlpha" operator="out"/><feColorMatrix values="0 0 0 0 0.15 0 0 0 0 0.15 0 0 0 0 0.15 0 0 0 1 0"/><feBlend in2="BackgroundImageFix" result="effect1_dropShadow_5_608"/><feBlend in="SourceGraphic" in2="effect1_dropShadow_5_608" result="shape"/></filter><filter id="filter7_d_5_608" x="142.552" y="1.764" width="103.465" height="124.51" filterUnits="userSpaceOnUse" color-interpolation-filters="sRGB"><feFlood flood-opacity="0" result="BackgroundImageFix"/><feColorMatrix in="SourceAlpha" values="0 0 0 0 0 0 0 0 0 0 0 0 0 0 0 0 0 0 127 0" result="hardAlpha"/><feOffset dx="6" dy="-4"/><feComposite in2="hardAlpha" operator="out"/><feColorMatrix values="0 0 0 0 0.15 0 0 0 0 0.15 0 0 0 0 0.15 0 0 0 1 0"/><feBlend in2="BackgroundImageFix" result="effect1_dropShadow_5_608"/><feBlend in="SourceGraphic" in2="effect1_dropShadow_5_608" result="shape"/></filter><filter id="filter8_d_5_608" x="140.714" y="179.427" width="341.628" height="420.435" filterUnits="userSpaceOnUse" color-interpolation-filters="sRGB"><feFlood flood-opacity="0" result="BackgroundImageFix"/><feColorMatrix in="SourceAlpha" values="0 0 0 0 0 0 0 0 0 0 0 0 0 0 0 0 0 0 127 0" result="hardAlpha"/><feOffset dx="15" dy="-10"/><feComposite in2="hardAlpha" operator="out"/><feColorMatrix values="0 0 0 0 0.15 0 0 0 0 0.15 0 0 0 0 0.15 0 0 0 1 0"/><feBlend in2="BackgroundImageFix" result="effect1_dropShadow_5_608"/><feBlend in="SourceGraphic" in2="effect1_dropShadow_5_608" result="shape"/></filter><clipPath id="clip0_5_608"><path fill="#fff" transform="translate(363.772 143.849)" d="M0 0h60v60H0z"/></clipPath><clipPath id="clip1_5_608"><path fill="#fff" transform="matrix(-1 0 0 1 241.772 585.849)" d="M0 0h60v60H0z"/></clipPath><clipPath id="clip2_5_608"><path fill="#fff" transform="matrix(-1 0 0 1 446.772 694.849)" d="M0 0h60v60H0z"/></clipPath><clipPath id="clip3_5_608"><path fill="#fff" transform="matrix(-1 0 0 1 580.772 601.849)" d="M0 0h60v60H0z"/></clipPath><clipPath id="clip4_5_608"><path fill="#fff" transform="matrix(-1 0 0 1 573.772 377.849)" d="M0 0h60v60H0z"/></clipPath><clipPath id="clip5_5_608"><path fill="#fff" transform="matrix(-1 0 0 1 83.772 118.849)" d="M0 0h60v60H0z"/></clipPath><clipPath id="clip6_5_608"><path fill="#fff" transform="matrix(-1 0 0 1 94.772 347.849)" d="M0 0h63v62H0z"/></clipPath><clipPath id="clip7_5_608"><path fill="#fff" transform="translate(160.772 34.85)" d="M0 0h60v60H0z"/></clipPath></defs></svg>