<svg width="641" height="787" fill="none" xmlns="http://www.w3.org/2000/svg"><path d="M592.902 533.3c6.5 164.4-107.1 235.1-253.8 158" stroke="#4D4D4D" stroke-width="2.37" stroke-miterlimit="10"/><path d="M278.602 79.5c12.1 4.5 24.4 10 36.8 16.5 146.7 77.1 270.9 272.8 277.5 437.1" stroke="#4D4D4D" stroke-width="1.39" stroke-miterlimit="10" stroke-linecap="round"/><path d="M61.598 254.1c-6-150.4 88.6-222.4 217-174.6" stroke="#4D4D4D" stroke-width="2.37" stroke-miterlimit="10"/><path d="M339.102 691.3c-146.7-77.1-270.9-272.8-277.5-437.1" stroke="#262626" stroke-width=".7" stroke-miterlimit="10"/><path d="M442.099 775.5c26.4 13.9 46.8 1.1 45.6-28.4-1.2-29.5-23.5-64.7-49.9-78.6-26.4-13.9-46.8-1.1-45.6 28.4 1.2 29.6 23.5 64.8 49.9 78.6z" fill="#fff"/><path d="M442.099 775.5c26.4 13.9 46.8 1.1 45.6-28.4-1.2-29.5-23.5-64.7-49.9-78.6-26.4-13.9-46.8-1.1-45.6 28.4 1.2 29.6 23.5 64.8 49.9 78.6z" stroke="#4D4D4D" stroke-width="2.09" stroke-miterlimit="10"/><path d="M238.903 668.8c26.4 13.9 46.8 1.1 45.6-28.4-1.2-29.5-23.5-64.7-49.9-78.6-26.4-13.9-46.8-1.1-45.6 28.4 1.2 29.5 23.5 64.7 49.9 78.6z" fill="#fff"/><path d="M238.903 668.8c26.4 13.9 46.8 1.1 45.6-28.4-1.2-29.5-23.5-64.7-49.9-78.6-26.4-13.9-46.8-1.1-45.6 28.4 1.2 29.5 23.5 64.7 49.9 78.6z" stroke="#4D4D4D" stroke-width="2.09" stroke-miterlimit="10"/><path d="M88.599 432.5c26.4 13.9 46.8 1.1 45.6-28.4-1.2-29.5-23.5-64.7-49.9-78.6-26.4-13.9-46.8-1.1-45.6 28.4 1.2 29.5 23.5 64.7 49.9 78.6z" fill="#fff"/><path d="M88.599 432.5c26.4 13.9 46.8 1.1 45.6-28.4-1.2-29.5-23.5-64.7-49.9-78.6-26.4-13.9-46.8-1.1-45.6 28.4 1.2 29.5 23.5 64.7 49.9 78.6z" stroke="#4D4D4D" stroke-width="2.09" stroke-miterlimit="10"/><path d="M79.302 204.5c26.4 13.9 46.8 1.1 45.6-28.4-1.2-29.5-23.5-64.7-49.9-78.6-26.4-13.9-46.8-1.1-45.6 28.4 1.2 29.5 23.5 64.7 49.9 78.6z" fill="#fff"/><path d="M79.302 204.5c26.4 13.9 46.8 1.1 45.6-28.4-1.2-29.5-23.5-64.7-49.9-78.6-26.4-13.9-46.8-1.1-45.6 28.4 1.2 29.5 23.5 64.7 49.9 78.6z" stroke="#4D4D4D" stroke-width="2.09" stroke-miterlimit="10"/><path d="M453.401 227.8c17.8-11.1 16.5-45-3-75.7-19.5-30.7-49.7-46.6-67.5-35.5-17.8 11.1-16.5 45 3 75.7 19.4 30.7 49.7 46.5 67.5 35.5z" fill="#fff"/><path d="M453.401 227.8c17.8-11.1 16.5-45-3-75.7-19.5-30.7-49.7-46.6-67.5-35.5-17.8 11.1-16.5 45 3 75.7 19.4 30.7 49.7 46.5 67.5 35.5z" stroke="#4D4D4D" stroke-width="2.09" stroke-miterlimit="10"/><path d="M615.4 439.7c3.1-27-15.8-63.9-42.1-82.3s-50.1-11.5-53.1 15.5c-3.1 27 15.8 63.9 42.1 82.3 26.3 18.5 50.1 11.5 53.1-15.5z" fill="#fff"/><path d="M615.4 439.7c3.1-27-15.8-63.9-42.1-82.3s-50.1-11.5-53.1 15.5c-3.1 27 15.8 63.9 42.1 82.3 26.3 18.5 50.1 11.5 53.1-15.5z" stroke="#4D4D4D" stroke-width="2.096" stroke-miterlimit="10"/><path d="M624.299 673.4c4.8-25.6-12.3-62.8-38.3-83-26-20.2-50.9-15.8-55.7 9.9-4.8 25.6 12.3 62.8 38.3 83 25.9 20.1 50.9 15.7 55.7-9.9z" fill="#fff"/><path d="M624.299 673.4c4.8-25.6-12.3-62.8-38.3-83-26-20.2-50.9-15.8-55.7 9.9-4.8 25.6 12.3 62.8 38.3 83 25.9 20.1 50.9 15.7 55.7-9.9z" stroke="#4D4D4D" stroke-width="2.09" stroke-miterlimit="10"/><path d="M249.8 120.7c17.8-11.1 16.5-45-3-75.7-19.5-30.7-49.7-46.6-67.5-35.5-17.8 11.1-16.5 45 3 75.7 19.5 30.7 49.7 46.6 67.5 35.5z" fill="#fff"/><path d="M249.8 120.7c17.8-11.1 16.5-45-3-75.7-19.5-30.7-49.7-46.6-67.5-35.5-17.8 11.1-16.5 45 3 75.7 19.5 30.7 49.7 46.6 67.5 35.5z" stroke="#4D4D4D" stroke-width="2.09" stroke-miterlimit="10"/><path d="M483.797 392.7l6.8 170c.2 5.6-.9 10.4-3.2 14-2.3 3.5-5.7 5.7-10 6.2l-128.1 16c-4.2.5-9.1-.6-14.1-3.2s-10-6.7-14.4-11.7l-60-68.5-74.9-85.6c-4.4-5.1-8.2-11-10.9-17.1-2.7-6.2-4.2-12.3-4.4-17.9l-6.8-170c-.2-5.6.9-10.4 3.2-13.9 2.3-3.5 5.7-5.7 9.9-6.2l128.1-16c4.2-.5 9.1.6 14.1 3.2s10 6.7 14.4 11.7l107.1 122.4 27.7 31.7c4.4 5 8.2 10.9 10.9 17.1 2.8 6 4.3 12.2 4.6 17.8z" fill="#FE90C7"/><path d="M440.697 325.9l-179.8 189.4-74.9-85.6c-4.4-5.1-8.2-11-10.9-17.1-2.7-6.2-4.2-12.3-4.4-17.9l-1.4-35 155.8-164.1c3 2.2 5.8 4.9 8.5 7.9l107.1 122.4z" fill="#FE6BB4"/><path d="M472.997 553l-6.4-161.7c-.1-3-.9-6.3-2.4-9.6s-3.4-6.5-5.8-9.2L330.097 226c-2.4-2.7-5-4.9-7.7-6.3-2.7-1.4-5.3-2-7.5-1.7l-121.8 15.2c-2.3.3-4.1 1.4-5.3 3.3-1.2 1.9-1.8 4.5-1.7 7.5l6.4 161.7c.1 3 .9 6.3 2.4 9.6 1.4 3.3 3.4 6.5 5.8 9.2l128.3 146.5c2.4 2.7 5 4.9 7.7 6.3 2.7 1.4 5.3 2 7.5 1.7l121.8-15.2c2.3-.3 4.1-1.4 5.3-3.3 1.3-1.9 1.8-4.5 1.7-7.5z" fill="#E06AE9"/><path d="M464.598 386.9l6.4 161.7c.1 3-.5 5.6-1.7 7.5-1.2 1.9-3.1 3-5.3 3.3l-121.8 15.2c-2.3.3-4.9-.3-7.5-1.7-2.7-1.4-5.3-3.6-7.7-6.3l-72.8-83.2-55.4-63.4c-2.4-2.7-4.4-5.9-5.8-9.2-1.4-3.3-2.3-6.6-2.4-9.6l-6.4-161.7c-.1-3 .5-5.6 1.7-7.5 1.2-1.9 3.1-3 5.3-3.3l80.9-10.1 40.9-5.1c2.3-.3 4.9.3 7.5 1.7 2.7 1.4 5.3 3.6 7.7 6.3l83.5 95.4 44.7 51.1c2.4 2.7 4.4 5.9 5.8 9.2 1.4 3.3 2.3 6.7 2.4 9.7z" fill="#7A18D5"/><path d="M241 268.7l165.1 86.7-1 21.5L244.3 292l-3.3-23.3zm35.402 135.9l55.8 76.1 2.6 14.9-1.6 12-72.1-98.4 15.3-4.6z" fill="#fff"/><path d="M275 392.7l1.5 12.3-5.8 5-9.5-.7-6.2-43 20 26.4zm107.903 68.5l-50.7 19.5-.5 12.8 1.6 14.2 66.1-26.3-5-22.5-11.5 2.3zm-82.106-66l67.4 35.4-5.9 16.1-65.5-34.4 4-17.1zm-56.594-103.8l19.7 8.8 5.7 53.5-16.6.1-8.8-62.4z" fill="#fff"/><path d="M253.102 353.8l16.4-.7 32.7 43-5.4 16.1-43.7-58.4z" fill="#fff"/><path d="M253.102 353.8l16.4-.7 32.7 43-5.4 16.1-43.7-58.4zm134.901 11.8l17.2 9.2-2.5 51.1-16.5-23.2 1.8-37.1zm-94.3-23.9l67.9 35.7.7 19.7-67.8-35.7-.8-19.7z" fill="#fff"/><path d="M361.603 377.4l40.1 56.1-14.4 3.9-36.6-50.2 10.9-9.8z" fill="#fff"/><path d="M401.7 433.5l-2.2 47.9-16.5-20.2.9-38.1 17.8 10.4zm-129.302-82.9l21.2-8.8 12.4 19.1-19.3 8-14.3-18.3zm83.704 73.5l12.4-5.1 11.5 17.4-17.7 10.2-6.2-22.5z" fill="#fff"/><path d="M411.3 316.7L253.8 483l-55.4-63.3c-2.4-2.7-4.4-5.9-5.8-9.2-1.4-3.3-2.3-6.6-2.4-9.6l-3.7-92.6 85.2-89.9 40.9-5.1c2.3-.3 4.9.3 7.5 1.7 2.7 1.4 5.3 3.6 7.7 6.3l83.5 95.4z" fill="#7E44FE" fill-opacity=".1"/><path d="M392.598 304.2c-.2 1.7-.9 3-2 3.7-1.1.7-2.6.8-4.2.3 1.6 1.2 3.1 2.9 4.4 4.8 1.2 1.9 2 4 2.4 6 .2-1.7.9-2.9 2-3.7 1.1-.7 2.5-.8 4.1-.4-1.6-1.2-3.1-2.9-4.3-4.8-1.2-1.8-2-3.9-2.4-5.9z" fill="#E3E4E9"/><path d="M377.103 265.3c-.4 2.8-1.5 5-3.4 6.2-1.9 1.2-4.3 1.4-7 .6 2.8 2.1 5.3 4.9 7.4 8.2 2 3.3 3.4 6.8 4 10.1.4-2.8 1.5-5 3.4-6.2 1.9-1.2 4.3-1.4 7-.6-2.8-2.1-5.3-4.9-7.4-8.2-2-3.2-3.4-6.8-4-10.1zm-148.9 199.9c6 3.2 10.7.1 10.4-6.8-.3-6.9-5.4-15.1-11.4-18.3-6-3.2-10.7-.1-10.4 6.8.3 6.9 5.4 15.1 11.4 18.3z" fill="#fff"/><path d="M110.996 443.1c2.1 1.1 3.8.1 3.7-2.3-.1-2.4-1.9-5.2-4-6.3-2.1-1.1-3.8-.1-3.7 2.3.1 2.3 1.9 5.1 4 6.3zM398.902 716c0 1-.2 1.8-.6 2.4-.5.6-1.1.8-1.9.8-.8 0-1.7-.4-2.6-1.1-.9-.6-1.7-1.5-2.3-2.6-.6-1-1.1-2.1-1.3-3.2-.2-1.1-.2-2 .1-2.7.3-.7.8-1.2 1.6-1.4.8-.2 1.6 0 2.4.5 1.2.6 2.3 1.7 3.2 3.1.9 1.4 1.4 2.9 1.4 4.2zm189.095-246c0 .9-.2 1.6-.6 2.1-.4.5-1 .7-1.7.7s-1.5-.4-2.2-.9c-.8-.6-1.5-1.3-2-2.2-.6-.9-1-1.9-1.2-2.8-.2-.9-.1-1.8.1-2.4.2-.6.7-1.1 1.4-1.2.6-.1 1.4 0 2.1.4.5.3 1 .6 1.5 1.1.5.5.9 1 1.3 1.6.4.6.699 1.2.899 1.9.3.5.401 1.1.401 1.7zm-126.6-247.1c1.8.9 3.2.1 3.1-1.9-.1-2-1.6-4.4-3.4-5.4-1.8-1-3.2-.1-3.1 1.9.1 2 1.6 4.4 3.4 5.4zm49.404 61.2c0 .8-.2 1.5-.5 1.9-.4.5-.9.7-1.6.6-.7 0-1.4-.4-2.1-.9-.7-.5-1.4-1.3-1.9-2.1s-.9-1.8-1.1-2.6c-.2-.9-.1-1.7.1-2.3.2-.6.7-1 1.3-1.1.6-.1 1.3 0 2 .4.5.3 1 .6 1.4 1 .5.4.9 1 1.2 1.5.4.6.6 1.2.8 1.7.2.8.4 1.4.4 1.9zm16.997 29.1c0 .8-.2 1.5-.5 2-.4.5-1 .7-1.6.7-.7 0-1.4-.4-2.2-.9-.7-.5-1.4-1.3-2-2.2-.5-.9-.9-1.8-1.1-2.7-.2-.9-.1-1.7.1-2.3.2-.6.7-1 1.3-1.2.6-.1 1.3 0 2.1.4.5.3 1 .6 1.5 1.1.5.5.9 1 1.3 1.6.4.6.7 1.2.9 1.8.1.5.2 1.1.2 1.7zm-393.5-226.4c2.2 1.2 3.9.1 3.8-2.4-.1-2.5-2-5.4-4.2-6.6-2.2-1.2-3.9-.1-3.8 2.4.1 2.4 1.9 5.4 4.2 6.6zM70.503 197.3c0 1.2-.2 2.3-.8 3-.6.7-1.4 1.1-2.4 1-1-.1-2.1-.5-3.2-1.3s-2.1-1.9-2.9-3.2c-.8-1.3-1.4-2.7-1.7-4-.3-1.3-.2-2.5.2-3.5.4-.9 1.1-1.5 2-1.7.9-.2 2 0 3.1.6 1.5.8 2.9 2.2 4 3.9.9 1.6 1.6 3.5 1.7 5.2zm-5 22.9c0 .8-.1 1.4-.5 1.9-.4.4-.9.7-1.5.6-.6 0-1.3-.3-2-.8s-1.3-1.2-1.8-2-.9-1.7-1-2.5c-.2-.8-.1-1.6.1-2.2.2-.6.7-1 1.2-1.1.6-.1 1.2 0 1.9.4.5.2.9.6 1.4 1 .4.4.8.9 1.2 1.4.3.5.6 1.1.8 1.7.2.6.1 1 .2 1.6zm251.595-120c1.6.9 2.9.1 2.8-1.8-.1-1.8-1.5-4-3.1-4.9-1.6-.9-2.9-.1-2.8 1.8.1 1.9 1.5 4 3.1 4.9zM300.8 88.9c0 .5-.1.9-.3 1.2-.2.3-.6.4-1 .4s-.9-.2-1.3-.6c-.5-.3-.9-.8-1.2-1.3-.3-.5-.6-1.1-.7-1.7-.1-.5-.1-1 .1-1.4.2-.4.4-.6.8-.7.4-.1.8 0 1.3.2.3.2.6.4.9.7.3.3.5.6.8 1 .3.4.4.7.5 1.1.1.4.1.8.1 1.1zM556.599 676c1.9 1 3.3.1 3.2-2-.1-2.1-1.7-4.6-3.5-5.6-1.9-1-3.3-.1-3.2 2 .1 2.1 1.7 4.6 3.5 5.6zm-10.001 11.4c1.4.7 2.501.1 2.401-1.5-.1-1.5-1.2-3.4-2.6-4.1-1.4-.7-2.5-.1-2.4 1.5 0 1.5 1.199 3.4 2.599 4.1zm-47.396-10.2l-29.1-15.3-7.2-11.3-1.3-32.6 6.6-4.1 29.1 15.3 7.2 11.3 1.3 32.6-6.6 4.1z" fill="#4D4D4D"/><path d="M471.998 612.4l-1.6-.8.2 5.2 1.6.8-.2-5.2zm3.805 2l-1.6-.8.2 5.2 1.6.8-.2-5.2zm3.797 2l-1.6-.8.2 5.2 1.6.8-.2-5.2zm3.797 2l-1.6-.8.2 5.2 1.6.8-.2-5.2zm3.805 2l-1.6-.8.2 5.2 1.6.8-.2-5.2zm3.796 2l-1.6-.8.2 5.2 1.6.8-.2-5.2zm3.704 1.9l-1.6-.8.2 5.2 1.6.8-.2-5.2zm-20.704 38l-1.6-.8.2 5.2 1.6.8-.2-5.2zm3.805 2l-1.6-.8.2 5.2 1.6.8-.2-5.2zm3.797 2l-1.6-.8.2 5.2 1.6.8-.2-5.2zm3.797 1.9l-1.6-.8.2 5.2 1.6.8-.2-5.2zm3.703 2l-1.6-.8.2 5.2 1.6.8-.2-5.2zm3.797 2l-1.6-.8.2 5.2 1.6.8-.2-5.2zm3.805 2l-1.6-.8.2 5.2 1.6.8-.2-5.2zm11.098-27.6l-.1-1.7-4.7-2.5.1 1.7 4.7 2.5zm.203 4.2l-.1-1.7-4.7-2.5.1 1.7 4.7 2.5zm.195 4.3l-.1-1.7-4.7-2.5.1 1.7 4.7 2.5zm.102 4.2l-.1-1.7-4.7-2.5.1 1.7 4.7 2.5zm.203 4.3l-.1-1.7-4.7-2.5.1 1.7 4.7 2.5zm.195 4.2l-.1-1.7-4.7-2.5.1 1.7 4.7 2.5zm.102 4.2l-.1-1.7-4.7-2.5.1 1.7 4.7 2.5zm-45.5-48.8l-.1-1.7-4.7-2.5.1 1.7 4.7 2.5zm.203 4.3l-.1-1.7-4.7-2.5.1 1.7 4.7 2.5zm.195 4.2l-.1-1.7-4.7-2.5.1 1.7 4.7 2.5zm.102 4.2l-.1-1.7-4.7-2.5.1 1.7 4.7 2.5zm.203 4.3l-.1-1.7-4.7-2.5.1 1.7 4.7 2.5zm.094 4.2l-.1-1.7-4.7-2.5.1 1.7 4.7 2.5zm.203 4.2l-.1-1.7-4.7-2.5.1 1.7 4.7 2.5z" fill="#B3B3B3"/><path d="M502.703 674.9l18.5 29.1m-74.406-117.1l18.5 29.1" stroke="#4D4D4D" stroke-width="1.39" stroke-miterlimit="10"/><path d="M523.8 705.7c0 .6-.1 1.2-.4 1.5-.3.4-.7.6-1.2.5-.5 0-1.1-.3-1.6-.7-.6-.4-1.1-1-1.5-1.6-.4-.7-.7-1.4-.8-2-.1-.7-.1-1.3.1-1.7.2-.5.5-.8 1-.8.5-.1 1 0 1.6.3.7.4 1.4 1.1 2 1.9.5.9.8 1.8.8 2.6zm-74.201-116.9c0 .6-.1 1.1-.4 1.5-.3.3-.701.5-1.201.5-.5 0-1-.2-1.6-.6-.5-.4-1-.9-1.4-1.6-.4-.6-.699-1.3-.799-2-.1-.7-.101-1.2.099-1.7s.501-.8.901-.9c.4-.1.9 0 1.5.2.7.4 1.5 1.1 2 1.9.5.9.9 1.8.9 2.7z" fill="#4D4D4D"/><path d="M211.003 170.1l-58.9-31-3.4-5.4-.5-12.1 3.1-2 58.9 31 3.4 5.4.5 12.1-3.1 2z" fill="#E06AE9"/><path d="M168.997 130.4l1.3.7-.2-4.8-1.3-.7.2 4.8zm-3.9-2l1.3.7-.2-4.8-1.3-.7.2 4.8zm11.6 6.1l1.3.7-.2-4.8-1.3-.7.2 4.8zm-3.8-2l1.3.7-.2-4.8-1.3-.7.2 4.8zm-11.7-6.1l1.3.7-.2-4.9-1.3-.7.2 4.9zm-7.7-4.1l1.3.7-.2-4.8-1.3-.7.2 4.8zm3.9 2l1.3.7-.2-4.9-1.3-.7.2 4.9zm23.2 12.2l1.3.7-.2-4.8-1.3-.7.2 4.8zm23.2 12.2l1.3.7-.2-4.8-1.3-.7.2 4.8zm-3.9-2l1.3.7-.2-4.8-1.3-.7.2 4.8zm7.6-.8l.2 4.8 1.3.7-.2-4.8-1.3-.7zm-23.1-7.3l1.2.6-.2-4.8-1.3-.7.3 4.9zm3.9 2l1.3.7-.2-4.9-1.3-.7.2 4.9zm3.9 2l1.3.7-.2-4.8-1.3-.7.2 4.8zm3.9 2.1l1.3.7-.2-4.8-1.3-.7.2 4.8zm-26.294 7.1l1.3.7-.2-4.9-1.3-.7.2 4.9zm-3.8-2l1.3.7-.2-4.9-1.3-.7.2 4.9zm11.6 6.1l1.3.7-.2-4.9-1.3-.7.2 4.9zm-3.9-2l1.3.7-.2-4.9-1.3-.7.2 4.9zm-11.6-6.1l1.3.7-.2-4.9-1.3-.7.2 4.9zm-7.7-4.1l1.3.7-.2-4.9-1.3-.7.2 4.9zm3.8 2l1.3.7-.2-4.9-1.3-.7.2 4.9zm23.2 12.2l1.3.7-.2-4.9-1.3-.7.2 4.9zm23.2 12.2l1.3.7-.2-4.9-1.3-.7.2 4.9zm-3.8-2l1.3.7-.2-4.9-1.3-.7.2 4.9zm7.5-.8l.2 4.9 1.3.7-.2-4.9-1.3-.7zm-23-7.3l1.2.6-.2-4.9-1.3-.7.3 5zm3.9 2l1.3.7-.2-4.9-1.3-.7.2 4.9zm3.8 2l1.3.7-.2-4.9-1.3-.7.2 4.9zm3.9 2.1l1.3.7-.2-4.9-1.3-.7.2 4.9zM425.1 291.4l-9-4.7-2.6-4.1-1-26 2.4-1.5 9 4.7 2.6 4.1 1 26-2.4 1.5z" fill="#E3E4E9"/><path d="M442.998 300.8l-9-4.7-2.6-4.1-1-26 2.4-1.5 9 4.7 2.6 4.1 1 26-2.4 1.5z" fill="#E06AE9"/><path d="M460.803 310.2l-9-4.7-2.6-4.1-1-26 2.4-1.5 9 4.7 2.6 4.1 1 26-2.4 1.5z" fill="#E3E4E9"/><path d="M147.9 295.9l-23.4-12.3-2-3-1-26.2 1.8-1.1 23.5 12.3 1.9 3 1 26.2-1.8 1.1z" fill="#B3B3B3"/><path d="M123.003 256.9l-4.8-2.5v1.2l4.8 2.5v-1.2zm.195 5.3l-4.8-2.5v1.2l4.8 2.5v-1.2zm.204 5.4l-4.8-2.5.1 1.2 4.8 2.5-.1-1.2zm.195 5.3l-4.8-2.5.1 1.2 4.8 2.5-.1-1.2zm.203 5.4l-4.8-2.5v1.2l4.8 2.5v-1.2zm28.203-6.2l-4.8-2.5.1 1.2 4.8 2.5-.1-1.2zm.195 5.4l-4.8-2.5v1.2l4.8 2.5v-1.2zm.204 5.3l-4.8-2.5.1 1.2 4.8 2.5-.1-1.2zm.296 5.4l-4.8-2.5.1 1.2 4.8 2.5-.1-1.2zm.204 5.3l-4.8-2.5.1 1.2 4.8 2.5-.1-1.2zm-7.805-27.2l-.2-5.4-1.1-.6.2 5.4 1.1.6zm-4.797-2.5l-.2-5.4-1.1-.6.2 5.4 1.1.6zm-4.703-2.5l-.2-5.4-1.1-.6.2 5.4 1.1.6zm-4.797-2.5l-.2-5.4-1.1-.6.2 5.4 1.1.6zm-4.797-2.5l-.2-5.4-1.1-.6.2 5.4 1.1.6zm20.399 42.5l-.2-5.4-1.1-.6.2 5.4 1.1.6zm-4.805-2.5l-.2-5.4-1.1-.6.2 5.4 1.1.6zm-4.695-2.5l-.2-5.4-1.1-.6.2 5.4 1.1.6zm-4.805-2.5l-.2-5.4-1.1-.6.2 5.4 1.1.6zm-4.797-2.5l-.2-5.4-1.1-.6.2 5.4 1.1.6z" fill="#E3E4E9"/><path d="M149.798 343.2l-23.4-12.3-2-3-1-26.2 1.8-1.1 23.5 12.3 1.9 3 1 26.2-1.8 1.1z" fill="#E06AE9"/><path d="M124.902 304.2l-4.8-2.5.1 1.2 4.8 2.5-.1-1.2zm.195 5.3l-4.8-2.5v1.2l4.8 2.5v-1.2zm.203 5.4l-4.8-2.5v1.2l4.8 2.5v-1.2zm.203 5.3l-4.8-2.5v1.2l4.8 2.5v-1.2zm.195 5.4l-4.8-2.5v1.2l4.8 2.5v-1.2zm28.204-6.2l-4.8-2.5.1 1.2 4.8 2.5-.1-1.2zm.195 5.4l-4.8-2.5.1 1.2 4.8 2.5-.1-1.2zm.203 5.3l-4.8-2.5v1.2l4.8 2.5v-1.2zm.203 5.4l-4.8-2.5v1.2l4.8 2.5v-1.2zm.297 5.3l-4.8-2.5v1.2l4.8 2.5v-1.2zm-7.797-27.2l-.2-5.4-1.1-.6.2 5.4 1.1.6zm-4.805-2.5l-.2-5.4-1.1-.6.2 5.4 1.1.6zm-4.695-2.5l-.2-5.4-1.1-.6.2 5.4 1.1.6zm-4.805-2.5l-.2-5.4-1.1-.6.2 5.4 1.1.6zm-4.796-2.6l-.2-5.4-1.1-.6.2 5.4 1.1.6zm20.398 42.6l-.2-5.4-1.1-.6.2 5.4 1.1.6zm-4.797-2.5l-.2-5.4-1.1-.6.2 5.4 1.1.6zm-4.805-2.5l-.2-5.4-1.1-.6.2 5.4 1.1.6zm-4.695-2.5l-.2-5.4-1.1-.6.2 5.4 1.1.6zm-4.805-2.5l-.2-5.4-1.1-.6.2 5.4 1.1.6z" fill="#E3E4E9"/><path d="M188.102 486.4l-13.8-7.3-1.1-1.8-.6-15.5 1-.6 13.8 7.3 1.1 1.8.6 15.5-1 .6z" fill="#B3B3B3"/><path d="M173.402 463.4l-2.8-1.5v.7l2.8 1.5v-.7zm.101 3.1l-2.8-1.5v.7l2.8 1.5v-.7zm.195 3.2l-2.8-1.5v.7l2.8 1.5v-.7zm.102 3.2l-2.8-1.5v.7l2.8 1.5v-.7zm.102 3.2l-2.8-1.5v.7l2.8 1.5v-.7zm16.695-3.7l-2.8-1.5v.7l2.8 1.5v-.7zm.101 3.2l-2.8-1.5v.7l2.8 1.5v-.7zm.204 3.2l-2.8-1.5v.7l2.8 1.5v-.7zm.101 3.1l-2.8-1.5v.7l2.8 1.5v-.7zm.094 3.2l-2.8-1.5v.7l2.8 1.5v-.7zm-4.594-16.1l-.1-3.2-.7-.3.1 3.2.7.3zm-2.805-1.5l-.1-3.2-.7-.3.1 3.2.7.3zm-2.796-1.5l-.1-3.2-.7-.3.1 3.2.7.3zm-2.899-1.5l-.1-3.2-.7-.3.1 3.2.7.3zm-2.805-1.5l-.1-3.2-.7-.3.1 3.2.7.3zm12.102 25.2l-.1-3.2-.7-.3.1 3.2.7.3zm-2.797-1.5l-.1-3.2-.7-.3.1 3.2.7.3zm-2.906-1.5l-.1-3.2-.7-.3.1 3.2.7.3zm-2.797-1.4l-.1-3.2-.7-.3.1 3.2.7.3zm-2.797-1.5l-.1-3.2-.7-.3.1 3.2.7.3z" fill="#E3E4E9"/><path d="M78.502 11.8l-2.2-1.1c-.6-.3-1.1-.8-1.5-1.5-.4-.7-.7-1.4-.7-2l-.1-2.4c0-.6-.2-1.2-.5-1.8-.3-.6-.8-1.2-1.3-1.6-.3-.2-.6-.4-.9-.5-.3-.1-.6-.1-.8 0-.2.1-.4.3-.6.5-.1.3-.2.6-.2.9l.1 2.5c0 .3 0 .6-.1.8-.1.2-.2.4-.4.5-.2.1-.4.2-.7.2-.3 0-.5-.1-.8-.3l-2.1-1.1c-.5-.3-1-.4-1.4-.2-.4.1-.7.5-.7 1 0 .3 0 .7.1 1.1.1.4.2.8.5 1.2.2.4.5.7.8 1.1.3.3.6.6.9.7l2.2 1.2c.6.3 1.1.8 1.5 1.5.4.6.7 1.4.7 2l.1 2.4c0 .6.2 1.2.5 1.8.3.6.8 1.2 1.3 1.6.3.2.6.4.9.5.3.1.6.1.8 0 .2-.1.4-.3.6-.5.2-.2.2-.6.2-.9l-.1-2.5c0-.6.2-1.1.6-1.4.4-.2.9-.2 1.5.1l2.2 1.2c.3.2.6.3.9.3.3 0 .5-.1.7-.3.2-.2.3-.4.4-.7.1-.3.1-.7 0-1.1-.1-.6-.5-1.2-.9-1.8-.5-.7-1-1.1-1.5-1.4z" fill="#4D4D4D"/><path d="M633.603 535.5l-1.9-1c-.3-.1-.5-.3-.7-.6-.2-.2-.5-.5-.6-.8-.2-.3-.3-.6-.4-.9-.1-.3-.2-.6-.2-.9l-.1-2.2c0-.5-.2-1.1-.5-1.7-.3-.6-.7-1.1-1.2-1.4-.3-.2-.6-.4-.9-.4-.3-.1-.5-.1-.7 0-.2.1-.4.3-.5.5-.1.2-.2.5-.2.8l.1 2.3c0 .6-.2 1-.5 1.2-.3.2-.8.2-1.3-.1l-1.9-1c-.5-.3-.9-.3-1.2-.2-.3.1-.6.4-.7.9 0 .3 0 .6.1 1 .1.3.2.7.4 1.1.2.3.4.7.7.9.3.3.6.5.8.6l2 1.1c.5.3 1 .8 1.4 1.4.4.6.6 1.3.6 1.8l.1 2.2c0 .5.2 1.1.5 1.6.3.6.7 1 1.2 1.4.3.2.6.4.9.4.3.1.5.1.7 0 .2-.1.4-.2.5-.5.1-.2.2-.5.2-.8l-.3-2.2c0-.3 0-.5.1-.8.1-.2.2-.4.4-.5.2-.1.4-.2.6-.1.2 0 .5.1.7.2l2 1.1c.3.2.6.2.8.2.3 0 .5-.1.6-.2.2-.2.3-.4.3-.7.1-.3.1-.6 0-.9-.1-.6-.4-1.1-.8-1.6-.2-.5-.6-.9-1.1-1.2z" fill="#E3E4E9"/><path d="M104.002 507.6l-2.8-1.5c-.7-.4-1.4-1-1.9-1.9-.5-.8-.8-1.7-.9-2.5l-.1-3c0-.7-.2-1.5-.7-2.3-.4-.8-1-1.5-1.6-2-.4-.3-.8-.5-1.2-.6-.4-.1-.7-.1-1 0-.3.1-.5.3-.7.7-.2.3-.2.7-.2 1.2l.1 3.1c0 .8-.2 1.4-.7 1.7-.5.3-1.2.3-1.9-.1l-2.6-1.4c-.6-.4-1.3-.5-1.8-.3s-.8.6-1 1.2c-.1.4 0 .9.1 1.3.1.5.3 1 .6 1.5s.6.9 1 1.3.8.7 1.2.9l2.8 1.5c.7.4 1.4 1 1.9 1.9.5.8.8 1.7.9 2.5l.1 3c0 .7.2 1.5.7 2.3.4.8 1 1.5 1.6 2 .4.3.8.5 1.2.6.4.1.7.1 1 0 .3-.1.5-.3.7-.7.2-.3.2-.7.2-1.2l-.1-3.1c0-.8.2-1.4.7-1.7.5-.3 1.1-.3 1.8.1l2.8 1.5c.4.2.8.3 1.1.3.4 0 .7-.1.9-.3.2-.2.4-.5.5-.9.1-.4.1-.8 0-1.3-.2-.8-.5-1.6-1-2.3-.4-.5-1-1.1-1.7-1.5z" stroke="#808490" stroke-width="1.39" stroke-miterlimit="10"/><path d="M573.5 764.6L545.9 750c-.7-.4-1.5-1.1-2-2-.5-.9-.9-1.8-.9-2.7 0-.8.2-1.5.7-1.8.5-.3 1.2-.3 2 .1l27.6 14.5c.7.4 1.5 1.1 2 2 .6.9.9 1.8.9 2.7 0 .8-.2 1.5-.7 1.8-.5.4-1.2.4-2 0zm13.202 6.9l-3.2-1.7c-.7-.4-1.5-1.1-2-2-.6-.9-.9-1.8-.9-2.7 0-.8.2-1.5.7-1.8.5-.3 1.2-.3 2 .1l3.2 1.7c.7.4 1.5 1.1 2 2 .6.9.9 1.8.9 2.7 0 .8-.2 1.5-.7 1.8-.6.3-1.3.3-2-.1zm16.196 8.5l-.6-.3c-.7-.4-1.5-1.1-2-2-.6-.9-.9-1.8-.9-2.7 0-.8.2-1.5.7-1.8.5-.3 1.2-.3 2 .1l.6.3c.7.4 1.5 1.1 2 2 .6.9.9 1.8.9 2.7 0 .8-.2 1.5-.7 1.8-.6.3-1.3.3-2-.1z" fill="#B3B3B3"/><path d="M286.797 44.6l-27.6-14.5c-.7-.4-1.5-1.1-2-2-.6-.9-.9-1.8-.9-2.7 0-.8.2-1.5.7-1.8.5-.3 1.2-.3 2 .1l27.6 14.5c.7.4 1.5 1.1 2 2 .6.9.9 1.8.9 2.7 0 .8-.2 1.5-.7 1.8-.6.3-1.3.3-2-.1zm13.1 6.9l-3.2-1.7c-.7-.4-1.5-1.1-2-2-.6-.9-.9-1.8-.9-2.7 0-.8.2-1.5.7-1.8.5-.3 1.2-.3 2 .1l3.2 1.7c.7.4 1.5 1.1 2 2 .6.9.9 1.8.9 2.7 0 .8-.2 1.5-.7 1.8-.5.3-1.2.3-2-.1zm16.205 8.5l-.6-.3c-.7-.4-1.5-1.1-2-2-.6-.9-.9-1.8-.9-2.7 0-.8.2-1.5.7-1.8.5-.3 1.2-.3 2 .1l.6.3c.7.4 1.5 1.1 2 2 .6.9.9 1.8.9 2.7 0 .8-.2 1.5-.7 1.8-.5.3-1.2.3-2-.1z" fill="#E06AE9"/><path d="M525.503 499.6c0 .7-.1 1.2-.4 1.6-.3.4-.8.6-1.3.5-.5-.1-1.2-.3-1.8-.7-.6-.4-1.2-1.1-1.6-1.8-.4-.7-.8-1.5-.9-2.2-.1-.7-.1-1.4.1-1.9s.6-.8 1.1-.9c.5-.1 1.1 0 1.7.3.8.4 1.6 1.2 2.2 2.1.5 1.1.8 2.1.9 3zm7.5-4.6c0 .7-.1 1.2-.4 1.6-.3.4-.8.6-1.3.5-.5-.1-1.2-.3-1.8-.7-.6-.4-1.2-1.1-1.6-1.8-.4-.7-.8-1.5-.9-2.2-.1-.7-.1-1.4.1-1.9s.6-.8 1.1-.9c.5-.1 1.1 0 1.7.3.8.4 1.6 1.2 2.2 2.1.5 1 .8 2.1.9 3zm7.399-4.7c0 .7-.1 1.2-.4 1.6-.3.4-.8.6-1.3.5-.5 0-1.2-.3-1.8-.7-.6-.4-1.2-1.1-1.6-1.8-.4-.7-.8-1.5-.9-2.2-.1-.7-.1-1.4.1-1.9s.6-.8 1.1-.9c.5-.1 1.1 0 1.7.3.8.4 1.6 1.2 2.2 2.1.5 1.1.9 2.1.9 3zM600 717.2c0 .3-.1.6-.2.8-.2.2-.4.3-.6.3-.3 0-.6-.1-.8-.4-.3-.2-.6-.5-.8-.8-.2-.3-.4-.7-.4-1.1-.1-.4-.1-.7 0-.9.1-.2.3-.4.5-.5.2-.1.5 0 .8.2.2.1.4.2.6.4.2.2.4.4.5.6.1.2.3.5.3.7.1.2.1.5.1.7zm-188.897-92.1c0 .3-.1.5-.2.7-.1.2-.3.2-.6.2-.2 0-.5-.1-.8-.3-.3-.2-.5-.5-.7-.8-.2-.3-.3-.6-.4-.9-.1-.3-.1-.6 0-.8.1-.2.2-.4.4-.4.2-.1.4 0 .7.1.2.1.4.2.6.4.2.2.3.4.5.6.1.2.2.5.3.7.1.1.2.3.2.5z" fill="#B3B3B3"/><path d="M325.098 701.9c0 .3-.1.6-.2.8-.2.2-.4.3-.6.3-.3 0-.6-.2-.9-.4-.3-.2-.6-.5-.8-.9-.2-.3-.4-.7-.4-1.1-.1-.4 0-.7.1-.9.1-.2.3-.4.5-.4s.5 0 .8.2c.2.1.4.2.6.4.2.2.3.4.5.6.1.2.2.5.3.7 0 .3.1.5.1.7z" fill="#4D4D4D"/><path d="M284.799 698.4c0 .3-.1.5-.2.7-.1.2-.3.3-.6.2-.2 0-.5-.1-.8-.3-.3-.2-.5-.5-.7-.8-.2-.3-.3-.6-.4-1-.1-.3 0-.6 0-.8.1-.2.3-.4.5-.4s.5 0 .7.1c.4.2.7.5.9.9.4.6.5 1 .6 1.4z" fill="#B3B3B3"/><path d="M226.199 513.4c0 .3-.1.6-.2.8-.2.2-.4.3-.6.3-.3 0-.6-.2-.9-.4-.3-.2-.6-.5-.8-.9-.2-.3-.4-.7-.4-1.1-.1-.4 0-.7.1-.9.1-.2.3-.4.5-.4s.5 0 .8.2c.2.1.4.2.6.4.2.2.3.4.5.6.1.2.2.5.3.7.1.2.1.4.1.7z" fill="#4D4D4D"/><path d="M93.8 462.6c1 .5 1.7 0 1.7-1.1s-.9-2.4-1.8-2.9c-1-.5-1.7 0-1.7 1.1s.9 2.4 1.8 2.9zM28.903 203.3c.9.5 1.6 0 1.6-1s-.8-2.2-1.7-2.7c-.9-.5-1.6 0-1.6 1s.8 2.2 1.7 2.7z" fill="#B3B3B3"/><path d="M8.1 285.7c0 .4-.1.8-.3 1-.2.2-.5.4-.8.3-.3 0-.7-.2-1.1-.5-.4-.3-.7-.7-1-1.1-.3-.4-.5-.9-.6-1.4-.1-.5-.1-.9.1-1.2.1-.3.4-.5.7-.6.3-.1.7 0 1 .2.5.3 1 .7 1.4 1.3.3.7.6 1.4.6 2z" fill="#E3E4E9"/><path d="M129.302 35.3c.9.5 1.6 0 1.6-1s-.8-2.2-1.7-2.7c-.9-.5-1.6 0-1.6 1 .1 1 .8 2.2 1.7 2.7zm243.796 27.2c.9.5 1.6 0 1.6-1s-.8-2.2-1.7-2.7c-.9-.5-1.6 0-1.6 1s.8 2.2 1.7 2.7zm152.505 169.8c0 .3-.1.6-.2.8-.1.2-.4.3-.6.2-.3 0-.5-.1-.8-.3-.3-.2-.5-.5-.7-.8-.2-.3-.3-.7-.4-1-.1-.3-.1-.6 0-.9.1-.2.3-.4.5-.4.2-.1.5 0 .8.1.4.2.7.5 1 1 .2.4.3.9.4 1.3zm-178.301-50.1c.9.5 1.6 0 1.6-1s-.8-2.2-1.7-2.7c-.9-.5-1.6 0-1.6 1s.8 2.2 1.7 2.7z" fill="#B3B3B3"/><path d="M623.1 355.6c0 .4-.1.8-.3 1-.2.2-.5.4-.8.3-.3 0-.7-.2-1.1-.5-.4-.3-.7-.7-1-1.1-.3-.4-.5-.9-.6-1.4-.1-.5-.1-.9.1-1.2.1-.3.4-.5.7-.6.3-.1.7 0 1 .2.5.3 1 .7 1.4 1.3.4.8.6 1.4.6 2z" fill="#4D4D4D"/><path d="M525.502 433.3c0 .3-.1.6-.2.8-.1.2-.4.3-.6.2-.3 0-.5-.1-.8-.3-.3-.2-.5-.5-.7-.8-.2-.3-.3-.7-.4-1-.1-.3-.1-.6 0-.9.1-.2.3-.4.5-.4.2-.1.5 0 .8.1.4.2.7.5 1 1 .2.4.4.9.4 1.3zM640.6 619.8c0 .4-.1.8-.3 1-.2.2-.5.4-.8.3-.3 0-.7-.2-1.1-.5-.4-.3-.7-.7-1-1.1-.3-.4-.5-.9-.6-1.4-.1-.5-.1-.9.1-1.2.1-.3.4-.5.7-.6.3-.1.7 0 1 .2.5.3 1 .7 1.4 1.3.4.8.6 1.4.6 2z" fill="#B3B3B3"/><path d="M509.202 574.8c0 .4-.1.8-.3 1-.2.2-.5.4-.8.3-.3 0-.7-.2-1.1-.5-.4-.3-.7-.7-1-1.1-.3-.4-.5-.9-.6-1.4-.1-.5-.1-.9.1-1.2.1-.3.4-.5.7-.6.3-.1.7 0 1 .2.5.3 1 .7 1.4 1.3.4.7.6 1.4.6 2z" fill="#E3E4E9"/><path d="M86.493 347.3c-20.8 0-29.5 27.1-12.3 38.7v13.1c0 2.8 2.5 4.7 4.9 5.7.7 5.5 14.1 5.5 14.8 0 2.3-1 4.9-3 4.9-5.7V386c17.1-11.5 8.6-38.7-12.3-38.7z" fill="#518282"/><path d="M74.195 387.5v11.6c0 3.9 5.5 7.1 12.3 7.1 6.8 0 12.3-3.2 12.3-7.1v-11.6h-24.6z" fill="#518282"/><path d="M86.495 402.4c-6.8 0-12.3-3.2-12.3-7.1v3.9c0 3.9 5.5 7.1 12.3 7.1 6.8 0 12.3-3.2 12.3-7.1v-3.9c0 3.9-5.5 7.1-12.3 7.1z" fill="#749B9B"/><path d="M86.495 394.7c-6.8 0-12.3-3.2-12.3-7.1v3.9c0 3.9 5.5 7.1 12.3 7.1 6.8 0 12.3-3.2 12.3-7.1v-3.9c0 3.9-5.5 7.1-12.3 7.1z" fill="#749B9B"/><path d="M108.197 368.4c0-11.8-9.7-21.4-21.7-21.4s-21.7 9.6-21.7 21.4c0 7.3 3.8 13.8 9.5 17.6v1.5c0 3.9 5.5 7.1 12.3 7.1 6.8 0 12.3-3.2 12.3-7.1V386c5.6-3.8 9.3-10.3 9.3-17.6z" fill="#FFCA00"/><path opacity=".3" d="M86.495 394.7c-6.8 0-12.3-3.2-12.3-7.1 0-3.9 5.5-7.1 12.3-7.1 6.8 0 12.3 3.2 12.3 7.1 0 3.9-5.5 7.1-12.3 7.1z" fill="#fff"/><path d="M94.698 375.8c-1.3-.4-2.7-.9-3.9-1.7-.7-.2-1.1 0-1.2.7v1.4c-.5-.3-.8-.8-.8-1.3v-2.8c0-1.1-.6-2.2-1.6-2.7l-.1-.1c-1.3-.4-2.1 0-2.3 1.3v2.9c-.5-.3-.8-.8-.8-1.4v-2.8c0-2.1-3.9-4.4-3.9-1.4v.1l-1.8-1v-.2c-.3-1.4-2.5-.9-2.2.5l4.4 17.6c.4 1.6 2.5.7 2.2-.5l-3.8-15.3 1.7 1c.7.2 1.1 0 1.2-.7v-1.3c.9.7.8 3.1.6 4 0 1.2.6 2.2 1.7 2.8l.1.1c1.3.4 2 0 2.3-1.3v-2.9c.5.3.8.8.8 1.3v2.8c0 1.1.6 2.2 1.6 2.7 1 .4 2.4.3 2.4-1.3v-.2l1.9 1-4 12c-.4 1.3 1.6 2.2 2.1.7l4.2-12.6c.1-.5-.2-1.2-.8-1.4.6.2-.2 0 0 0z" fill="#CAA414"/><path opacity=".3" d="M79.898 370.8c-5.2 0-9.5-4.2-9.5-9.3 0-5.2 4.3-9.3 9.5-9.3s9.5 4.2 9.5 9.3c0 5.2-4.3 9.3-9.5 9.3z" fill="#fff"/><path d="M194.097 41.4c-3.9 2.1-6.3 6.9-6.3 13.7 0 13.3 9.3 29.5 20.8 36.1 5.7 3.3 10.9 3.6 14.7 1.4l10.7-6.1c3.8-2.2 6.2-6.9 6.2-13.6 0-13.3-9.3-29.5-20.8-36.1-5.7-3.3-10.9-3.6-14.7-1.4l-10.7 6.1s.1 0 .1-.1z" fill="#FEDA44"/><path d="M194 41.5l10.7-6.1c3.8-2.2 8.9-1.9 14.7 1.4 11.5 6.6 20.8 22.7 20.8 36.1 0 6.7-2.4 11.4-6.2 13.6l-10.7 6.1c3.8-2.2 6.2-6.9 6.2-13.6 0-13.3-9.3-29.5-20.8-36.1-5.8-3.2-11-3.5-14.7-1.4z" fill="#EEBF00"/><path d="M187.797 55.1c0-13.3 9.3-18.8 20.8-12.2 11.5 6.6 20.8 22.7 20.8 36.1 0 13.3-9.3 18.8-20.8 12.2-11.5-6.6-20.8-22.7-20.8-36.1z" fill="#FEDA44"/><path d="M221.498 59.5c3.6 6.3 5.5 13.1 5.2 19.1-.2 5.2-2.1 9.2-5.2 11-3.1 1.8-7.3 1.5-12-.9-5.3-2.7-10.2-7.7-13.9-14-3.6-6.3-5.5-13.1-5.2-19.1.2-5.2 2.1-9.2 5.2-11 3.1-1.8 7.3-1.5 12 .9 5.4 2.7 10.3 7.7 13.9 14zm-25.2 14.8c3.6 6.2 8.4 11.1 13.6 13.8 4.4 2.3 8.5 2.6 11.4 1 2.9-1.7 4.7-5.5 4.9-10.5.3-5.9-1.6-12.5-5.1-18.7-3.6-6.2-8.4-11.1-13.6-13.8-4.4-2.3-8.5-2.6-11.4-1-2.9 1.7-4.7 5.5-4.9 10.5-.3 5.9 1.5 12.5 5.1 18.7z" fill="#EEBF00"/><path d="M223.4 41.4l-9.4 5.4.6.6 10.7-6.2-.6-.6-1.3.8zm9.598 9.1c-.1-.2-.3-.5-.4-.7l-10.7 6.2c.1.2.3.5.4.7l10.7-6.2zM213.4 34.4c-.4-.1-.8-.2-1.2-.2l-10.7 6.2c.4.1.8.1 1.2.2l10.7-6.2zm-4.705 8.6c.3.2.5.3.8.5l10.7-6.2c-.3-.2-.5-.3-.8-.5l-10.7 6.2zm9.5 8.2c.2.2.4.4.5.6l10.7-6.2c-.2-.2-.4-.4-.5-.6l-10.7 6.2zm8.899 15.4c.1.3.2.5.3.8l10.7-6.2c-.1-.3-.2-.5-.3-.8l-10.7 6.2zm-2.297-5.5c.1.2.2.5.4.7l10.7-6.2c-.1-.2-.2-.5-.4-.7l-10.7 6.2zm13.7 20.4c.2-.4.4-.8.5-1.2l-10.7 6.2c-.2.4-.3.8-.5 1.2l10.7-6.2zm-9.7-9c.1.3.1.6.2.8l10.7-6.2c-.1-.3-.1-.6-.2-.8l-10.7 6.2zm.703 7.3l10.7-6.2v-1l-10.7 6.2v1z" fill="#FECE00"/><path d="M446.998 163.6c.1-3.6-2.3-7.3-7.1-10.1-9.4-5.4-24.7-5.4-34 0-4.7 2.7-7 6.3-7 9.8v7.1c0 3.6 2.4 7.2 7.1 9.9 9.4 5.4 24.7 5.4 34 0 4.6-2.7 7-6.2 7-9.8v-7.1.2zm-40 9c-2.9-1.7-4.8-3.7-5.8-5.8 1-2.1 2.9-4 5.7-5.7 8.8-5.1 23.1-5.1 31.9 0 2.9 1.7 4.8 3.7 5.8 5.8-1 2.1-2.9 4-5.7 5.7-8.7 5.1-23 5.1-31.9 0z" fill="#1D1D1F"/><path d="M445.497 163.5v7.1c0-3.4-2.2-6.7-6.7-9.3-8.8-5.1-23.2-5.1-31.9 0-4.4 2.5-6.5 5.9-6.6 9.2v-7.1c0-3.3 2.2-6.7 6.6-9.2 8.8-5.1 23.1-5.1 31.9 0 4.5 2.5 6.7 5.9 6.7 9.3z" fill="#1D1D1F"/><path d="M446.998 163.5v7.1c0 3.5-2.3 7.1-7 9.8-9.4 5.4-24.6 5.4-34 0-4.7-2.7-7.1-6.3-7.1-9.9v-7.1c0 3.6 2.4 7.2 7.1 9.9 9.4 5.4 24.7 5.4 34 0 4.7-2.8 7-6.3 7-9.8z" fill="#2E2E30"/><path d="M439.899 153.5c9.4 5.4 9.5 14.3.1 19.7-9.4 5.4-24.6 5.4-34 0-9.4-5.4-9.5-14.3-.1-19.7 9.4-5.4 24.6-5.4 34 0zm-32.9 19.1c8.8 5.1 23.2 5.1 31.9 0 8.8-5.1 8.7-13.4-.1-18.5-8.8-5.1-23.2-5.1-31.9 0-8.8 5.1-8.7 13.4.1 18.5z" fill="#3E3D43"/><path d="M434.6 178c0-3.7-.8-6.3-1.8-5.9-4.6 1.7-13.9-.2-21.6-4.7-3.8-2.2-6.5-4.6-8-6.8 0-3.3-.3-5.6-.7-5.3-4.9 2.8-9.8 5.7-14.7 8.5-.1 0-.2.1-.3.2l-.1.1v.2c-.1.2-.1.4-.2.7 0 .2-.1.8-.1 2.6 0 1.6-.1 3.2-.1 3.8v1.7c0 2.5 0 5.4.2 6.5 0 .2 0 .3.1.4 0 .1.1.2.1.3 0 .1.1.1.2.2l.1.1c.1.1.2.1.2.2l2.7 1.5 2.7 1.5 2.7 1.5 2.7 1.5 2.7 1.5 2.7 1.5 2.7 1.5 2.7 1.5 2.7 1.5 2.7 1.5c.2.1.4.2.7.3.3.1.6.1.8.1.3 0 .5 0 .8-.1.2 0 .3-.1.4-.1.1 0 .1 0 .3-.1.2-.2.5-.3.8-.4.3-.1.6-.3.8-.4.2-.2.5-.3.8-.4.2-.1.5-.3.8-.4l3-1.8c3.1-1.8 6.1-3.6 9.2-5.4 1-.6 1.7-3.9 1.7-7.5l-.4-1.6z" fill="#E0E0E2"/><path d="M402.502 170.5c-.1.1-.1.2-.2.3 0 .1-.1.2-.1.3 0 0-.1.1-.1.2.1-.7.3-2.7.3-5.6 0-.9.3-1.7.8-2.4 0 3.5-.3 6.7-.7 7.2z" fill="#3E3D43"/><path d="M402.398 165.6v-1.7c0-.9.3-1.7.8-2.4v1.7c-.5.7-.8 1.5-.8 2.4z" fill="#3E3D43"/><path d="M387.898 163.9c4.9-2.8 9.8-5.7 14.7-8.5l-14.7 8.5z" fill="#E0E0E2"/><path d="M417.6 181.1c-.8.5-2.1.5-2.9 0l-26.8-15.5c-.6-.3-.8-.8-.5-1.3v.1c-.1.2-.1.4-.2.7 0 .2-.1.8-.1 2.6 0 1.6-.1 3.2-.1 3.8v1.7c0 2.5 0 5.4.2 6.5 0 .2 0 .3.1.4 0 .1.1.2.1.3 0 .1.1.1.2.2l.1.1c.1.1.2.1.2.2l2.7 1.5 2.7 1.5 2.7 1.5 2.7 1.5 2.7 1.5 2.7 1.5 2.7 1.5 2.7 1.5 2.7 1.5 2.7 1.5c.2.1.4.2.7.3.3.1.6.1.8.1.3 0 .5 0 .8-.1.2 0 .3-.1.4-.1.1 0 .1 0 .3-.1.1-.1.2-3 .2-6.6v-1.7c-.3-3.5-.4-6.6-.5-6.6z" fill="#2E2E30"/><path d="M402.402 163.9c0-.6 0-1.9-.1-3.2-.1-1.8-.2-2-.2-2s-1-1.8.3-3.4c.4-.3.7 2.4.7 6.1-.4.8-.7 1.7-.7 2.5z" fill="#77767E"/><path d="M393.797 161c2.6 10.9 12.4 19.1 24.1 19.1 6 0 11.5-2.1 15.7-5.7-2.6-10.9-12.4-19.1-24.1-19.1-6 .1-11.5 2.2-15.7 5.7zm-6.097 13.1v-1.7c0-3.7.1-6.8.2-6.8-.6-.3-.8-.8-.5-1.3v.1c-.1.2-.1.4-.2.7 0 .2-.1.8-.1 2.6 0 1.6-.1 3.2-.1 3.8v1.7c0 2.5 0 5.4.2 6.5 0 .2 0 .3.1.4 0 .1.1.2.1.3 0 .1.1.1.2.2l.1.1c.1.1.2.1.2.2-.2-.2-.2-3.2-.2-6.8zm26.902 22.1c.2.1.4.2.7.3.3.1.6.1.8.1.3 0 .5 0 .8-.1.2 0 .3-.1.4-.1.1 0 .1 0 .3-.1.1-.1.2-3 .2-6.6V188c0-3.7-.1-6.8-.2-6.8-.8.5-2.1.5-2.9 0l-.1 15z" fill="#3E3D43"/><path d="M414.703 181.1l-26.8-15.5c-.1.1-.2 3.1-.2 6.8v1.7c0 3.6.1 6.6.1 6.6l2.7 1.5 2.7 1.5 2.7 1.5 2.7 1.5 2.7 1.5 2.7 1.5 2.7 1.5 2.7 1.5 2.7 1.5 2.7 1.5-.1-14.6z" fill="#2E2E30"/><path d="M387.7 174.1v-1.7c0-3.7.1-6.8.2-6.8-.6-.3-.8-.8-.5-1.3v.1c-.1.2-.1.4-.2.7 0 .2-.1.8-.1 2.6 0 1.6-.1 3.2-.1 3.8v1.7c0 2.5 0 5.4.2 6.5 0 .2 0 .3.1.4 0 .1.1.2.1.3 0 .1.1.1.2.2l.1.1c.1.1.2.1.2.2-.2-.2-.2-3.2-.2-6.8z" fill="#3E3D43"/><path d="M387.902 163.9c-.1 0-.2.1-.3.2.1-.1.2-.2.3-.2z" fill="#D8D8DA"/><path d="M432.797 172.1c-5.1 3-10.1 6-15.2 8.9-.8.5-2.1.5-2.9 0-8.9-5.2-17.9-10.3-26.8-15.5-.8-.5-.8-1.2 0-1.7 4.9-2.8 9.8-5.7 14.6-8.5-2 2.8 1.4 7.9 8.7 12.1 7.7 4.5 17 6.5 21.6 4.7z" fill="#E0E0E2"/><path d="M411.397 172.4l-8.1-4.7-2.5 1.5 8.1 4.7 2.5-1.5z" fill="#57565C"/><path d="M434.602 178c0-3.7-.8-6.3-1.8-5.9l-15.2 8.9c.1.1.2 3.1.2 6.8v1.7c0 3.6-.1 6.6-.2 6.6.2-.2.5-.3.8-.4l.8-.4c.2-.2.5-.3.8-.4.2-.1.5-.3.8-.4l3-1.8c3.1-1.8 6.1-3.6 9.2-5.4 1-.6 1.7-3.9 1.7-7.5l-.1-1.8z" fill="#ACABB1"/><path d="M409.503 181.5c-.7-.4-1.3-.1-1.3.7 0 .8.6 1.8 1.3 2.2.7.4 1.3.1 1.3-.7 0-.8-.6-1.8-1.3-2.2zm0 6.6c-.7-.4-1.3-.1-1.3.7 0 .8.6 1.8 1.3 2.2.7.4 1.3.1 1.3-.7 0-.7-.6-1.7-1.3-2.2zm3.297-1.4c-.7-.4-1.3-.1-1.3.7 0 .8.6 1.8 1.3 2.2.7.4 1.3.1 1.3-.7 0-.8-.6-1.8-1.3-2.2zm-19.898-15c-.7-.4-1.3-.1-1.3.7 0 .8.6 1.8 1.3 2.2.7.4 1.3.1 1.3-.7 0-.8-.6-1.8-1.3-2.2zm0 6.7c-.7-.4-1.3-.1-1.3.7 0 .8.6 1.8 1.3 2.2.7.4 1.3.1 1.3-.7 0-.8-.6-1.8-1.3-2.2zm-3.305-5.3c-.7-.4-1.3-.1-1.3.7 0 .8.6 1.8 1.3 2.2.7.4 1.3.1 1.3-.7 0-.8-.6-1.8-1.3-2.2z" fill="#59A4FF"/><path d="M407.6 162.7c1.7 0 3.1-1.4 3.1-3.1 0-1.7-1.4-3.1-3.1-3.1-1.7 0-3.1 1.4-3.1 3.1 0 1.7 1.5 3.1 3.1 3.1z" fill="#77767E"/><path d="M410.8 172.6c0-2.4-1.7-5.3-3.7-6.5-1-.6-2-.6-2.6-.3l-1.9 1.1s-1.1.5-1.1 2.4l7.5 4.4 1.8-1.1z" fill="#1D1D1F"/><path d="M407.102 166.1c-1-.6-2-.6-2.6-.3l-1.9 1.1c.7-.4 1.6-.3 2.6.3 2.1 1.2 3.7 4.1 3.7 6.5l1.9-1.1c0-2.4-1.6-5.3-3.7-6.5z" fill="#57565C"/><path d="M407.802 166.9l-1.7 1 .1.1 1.9-1.1-.1-.1-.2.1zm1.698 1.6l-.1-.1-1.9 1.1.1.1 1.9-1.1zm-3.502-2.8h-.2l-1.9 1.1h.2l1.9-1.1zm-.795 1.5l.1.1 1.9-1.1-.1-.1-1.9 1.1zm1.695 1.5l.1.1 1.9-1.1-.1-.1-1.9 1.1zm1.602 2.7v.1l1.9-1.1v-.1l-1.9 1.1zm-.398-.9s0 .1.1.1l1.9-1.1s0-.1-.1-.1l-1.9 1.1zm.695 2v.2l1.9-1.1v-.2l-1.9 1.1z" fill="#3E3D43"/><path d="M405.2 167.2c-2.1-1.2-3.7-.2-3.7 2.1l7.5 4.4c-.1-2.4-1.8-5.3-3.8-6.5z" fill="#2E2E30"/><path d="M405.203 169.2c-1.1-.6-2-.1-2 1.2l4.1 2.4c-.1-1.4-1-3-2.1-3.6z" fill="#1D1D1F"/><path d="M256.403 631.1c0-6.3-2.6-13.3-6.4-18.4.1-.7.1-1.4.1-2.1 0-9.3-5.7-20.1-12.6-24.1-3.4-2-6.5-2-8.8-.3l-4.1 2.3c-2.8 1.5-4.6 5.1-4.6 10.4 0 .7 0 1.5.1 2.2-3.8.7-6.4 4.7-6.4 11 0 9.3 5.7 20.1 12.6 24.1 2.3 1.3 4.5 1.8 6.3 1.4 1.9 2.5 4 4.6 6.3 5.9 3.3 1.9 6.2 2 8.5.5l4.8-2.8c2.5-1.5 4.2-5.1 4.2-10.1z" fill="#009EFF"/><path d="M243.7 623.8c0 9.3-5.7 13.6-12.6 9.5-7-4-12.6-14.8-12.6-24.1s5.7-13.6 12.6-9.5c7 4 12.6 14.8 12.6 24.1z" fill="#F7E041"/><path d="M224.906 598.3c.8 8.7 6.1 18.2 12.5 21.9 2.3 1.3 4.4 1.7 6.2 1.4-.8-8.7-6.1-18.2-12.5-21.9-2.3-1.3-4.4-1.7-6.2-1.4z" fill="#E9662C"/><path d="M237.403 620.2c2.3 1.3 4.4 1.7 6.2 1.4-.5-5.6-2.9-11.5-6.2-16-3.3.6-5.7 3.8-6.2 8.8 1.8 2.5 4 4.5 6.2 5.8z" fill="#D36BC5"/><path d="M237.402 620.2c-2.3-1.3-4.4-3.3-6.2-5.8-.1.7-.1 1.4-.1 2.1 0 6.2 2.5 13.1 6.3 18.2 3.8-.7 6.3-4.7 6.3-10.9 0-.7 0-1.5-.1-2.2-1.8.3-3.9-.1-6.2-1.4z" fill="#A4C639"/><path d="M245.2 613.4c0 9.3-5.7 13.6-12.6 9.5-7-4-12.6-14.8-12.6-24.1s5.7-13.6 12.6-9.5c7 4 12.6 14.8 12.6 24.1z" fill="#FF3400"/><path d="M237.4 586.5c-3.4-2-6.5-2-8.8-.3l-4.1 2.3c2.2-1.1 5-1 8 .8 7 4 12.6 14.8 12.6 24.1 0 .7 0 1.4-.1 2.1l4.8-2.8c.1-.7.1-1.4.1-2.1.2-9.3-5.5-20.1-12.5-24.1z" fill="#750601"/><path d="M238.903 626.6c0 9.3-5.7 13.6-12.6 9.5-7-4-12.6-14.8-12.6-24.1s5.7-13.6 12.6-9.5c6.9 4 12.6 14.8 12.6 24.1z" fill="#FFCA00"/><path d="M220.102 601.1c.8 8.7 6.1 18.2 12.5 21.9 2.3 1.3 4.4 1.7 6.2 1.4-.8-8.7-6.1-18.2-12.5-21.9-2.3-1.3-4.4-1.7-6.2-1.4z" fill="#FF6936"/><path d="M251.505 633.9c0 9.3-5.7 13.6-12.6 9.5-7-4-12.6-14.8-12.6-24.1s5.7-13.6 12.6-9.5c7 4 12.6 14.8 12.6 24.1z" fill="#00BAFF"/><path d="M226.406 617.2c1.8 2.4 3.9 4.5 6.2 5.8 6.4 3.7 11.7.4 12.5-7.4-1.8-2.4-4-4.5-6.2-5.8-6.4-3.7-11.7-.4-12.5 7.4z" fill="#604EE8"/><path d="M232.606 623c2.3 1.3 4.4 1.7 6.2 1.4-.5-5.6-2.9-11.5-6.2-16-3.3.6-5.7 3.8-6.2 8.8 1.8 2.5 3.9 4.5 6.2 5.8z" fill="#EA6E8A"/><path d="M232.605 623c-2.3-1.3-4.4-3.3-6.2-5.8-.1.7-.1 1.4-.1 2.1 0 6.2 2.5 13.1 6.3 18.2 3.8-.7 6.3-4.7 6.3-10.9 0-.7 0-1.5-.1-2.2-1.8.3-4-.1-6.2-1.4z" fill="#408E0D"/><path d="M456.802 712l-31.2-18-2.5 1.5V736l31.2 18 2.5-1.5V712z" fill="#BBD4DA"/><path d="M423.203 736v-40.5l31.2 18v40.6l-31.2-18.1z" fill="#E5EFF2"/><path d="M423.203 695.5l2.5-1.5 31.2 18-2.5 1.5-31.2-18z" fill="#D6E5E9"/><path d="M427.102 702.2l23.4 13.5v31.5l-23.4-13.5v-31.5z" fill="#008BBF"/><path d="M427.102 723.1v-20.9l23.4 13.5v20.9l-23.4-13.5z" fill="#33C8FF"/><path d="M427.102 723.1l7.2-4.2 5.1 8.4 5-.9 6.2 10.2-23.5-13.5z" fill="#408E0D"/><path d="M446.697 721.9c0 2.7-1.7 4-3.7 2.8-2.1-1.2-3.7-4.4-3.7-7.1 0-2.7 1.7-4 3.7-2.8 2 1.2 3.7 4.4 3.7 7.1z" fill="#FFCA00"/><path d="M586.3 612.9l-20.1-11.5c-.8-.5-1.7-.4-2.4 0l-3.3 2c-.9.3-1.5 1.1-1.5 2.2v38.8c0 2 1.1 3.9 2.8 4.9l20.1 11.5c.7.4 1.5.4 2.2.1l3.8-2.2c.7-.4 1.2-1.1 1.2-2V618c0-2.3-1.1-4.1-2.8-5.1z" fill="#9F9EAD"/><path d="M558.898 644.3v-38.8c0-1.8 2-2.9 3.5-2l20.1 11.5c1.8 1 2.8 2.9 2.8 4.9v38.7c0 1.8-2 2.9-3.5 2l-20.1-11.5c-1.7-.9-2.8-2.8-2.8-4.8z" fill="#E3E3E3"/><path d="M561.398 606.8l20.6 11.7v35l-20.6-12v-34.7z" fill="#00BAFF"/><path d="M565.197 611l1.9 1.1c.7.4 1.1 1.2 1.1 2v3.1c0 .7-.8 1.1-1.4.8l-1.9-1.1c-.7-.4-1.1-1.2-1.1-2v-3.1c0-.7.7-1.1 1.4-.8z" fill="#FF3400"/><path d="M570.9 614.3l1.9 1.1c.7.4 1.1 1.2 1.1 2v3.1c0 .7-.8 1.1-1.4.8l-1.9-1.1c-.7-.4-1.1-1.2-1.1-2v-3.1c0-.7.8-1.1 1.4-.8z" fill="#604EE8"/><path d="M576.697 617.6l1.9 1.1c.7.4 1.1 1.2 1.1 2v3.1c0 .7-.8 1.1-1.4.8l-1.9-1.1c-.7-.4-1.1-1.2-1.1-2v-3.1c0-.8.7-1.2 1.4-.8z" fill="#009EFF"/><path d="M565.197 619.4l1.9 1.1c.7.4 1.1 1.2 1.1 2v3.1c0 .7-.8 1.1-1.4.8l-1.9-1.1c-.7-.4-1.1-1.2-1.1-2v-3.1c0-.7.7-1.1 1.4-.8z" fill="#408E0D"/><path d="M570.9 622.7l1.9 1.1c.7.4 1.1 1.2 1.1 2v3.1c0 .7-.8 1.1-1.4.8l-1.9-1.1c-.7-.4-1.1-1.2-1.1-2v-3.1c0-.7.8-1.1 1.4-.8z" fill="#FFCA00"/><path d="M576.697 626l1.9 1.1c.7.4 1.1 1.2 1.1 2v3.1c0 .7-.8 1.1-1.4.8l-1.9-1.1c-.7-.4-1.1-1.2-1.1-2v-3.1c0-.7.8-1.1 1.4-.8z" fill="#FF6936"/><path d="M565.095 627.9l1.9 1.1c.7.4 1.1 1.2 1.1 2v3.1c0 .7-.8 1.1-1.4.8l-1.9-1.1c-.7-.4-1.1-1.2-1.1-2v-3.1c.1-.7.8-1.1 1.4-.8z" fill="#009EFF"/><path d="M570.9 631.2l1.9 1.1c.7.4 1.1 1.2 1.1 2v3.1c0 .7-.8 1.1-1.4.8l-1.9-1.1c-.7-.4-1.1-1.2-1.1-2V632c0-.7.8-1.2 1.4-.8z" fill="#FF3400"/><path d="M576.697 634.5l1.9 1.1c.7.4 1.1 1.2 1.1 2v3.1c0 .7-.8 1.1-1.4.8l-1.9-1.1c-.7-.4-1.1-1.2-1.1-2v-3.1c0-.8.8-1.2 1.4-.8z" fill="#604EE8"/><path d="M565.095 636.3l1.9 1.1c.7.4 1.1 1.2 1.1 2v3.1c0 .7-.8 1.1-1.4.8l-1.9-1.1c-.7-.4-1.1-1.2-1.1-2v-3.1c.1-.7.8-1.1 1.4-.8z" fill="#FFCA00"/><path d="M570.9 639.6l1.9 1.1c.7.4 1.1 1.2 1.1 2v3.1c0 .7-.8 1.1-1.4.8l-1.9-1.1c-.7-.4-1.1-1.2-1.1-2v-3.1c0-.7.8-1.1 1.4-.8z" fill="#408E0D"/><path d="M576.697 642.9l1.9 1.1c.7.4 1.1 1.2 1.1 2v3.1c0 .7-.8 1.1-1.4.8l-1.9-1.1c-.7-.4-1.1-1.2-1.1-2v-3.1c0-.7.8-1.2 1.4-.8z" fill="#009EFF"/><path d="M572.798 651.9c0 1.3-.8 1.9-1.7 1.3-1-.6-1.7-2.1-1.7-3.3 0-1.3.8-1.9 1.7-1.3.9.6 1.7 2.1 1.7 3.3z" fill="#D1D1D1"/><path opacity=".1" d="M561.398 637.2l20.6-15.6v-3.1l-14.8-8.4-5.8 4.4v22.7zM582 645.7V630l-17.5 13.2 11.7 6.8 5.8-4.3z" fill="#fff"/><path d="M554 407l-13 7.5v7.5l26 15 25.8-14.9v-7.6l-12.8-7.4-26-.1z" fill="#8475FF"/><path d="M567.102 377l25.8 15v7.6l-25.8 14.9-26-15V392l26-15z" fill="#FF9134"/><path d="M567.102 377l-26 15 26 15 25.8-15-25.8-15z" fill="#FF6936"/><path d="M567.102 429.5v7.5l25.8-14.9v-7.6l-25.8 15z" fill="#30469A"/><path d="M567.1 414.6L554 407l-13 7.5 26 15 25.8-15-12.8-7.4-12.9 7.5z" fill="#604EE8"/><path d="M567.102 407.1v7.5l25.8-14.9V392l-25.8 15.1z" fill="#FF4404"/><path d="M541.102 392l26 15v7.5l-26-15V392z" fill="#FF9134"/><path d="M93.803 136l-31.3-18-2.3 1.3v40.6l31.3 18.1 2.3-1.3V136z" fill="#BBD4DA"/><path d="M60.203 159.9v-40.6l31.3 18v40.6l-31.3-18z" fill="#E5EFF2"/><path d="M60.203 119.3l2.3-1.3 31.3 18-2.3 1.4-31.3-18.1z" fill="#D6E5E9"/><path d="M62.297 136.5l11.7 6.8v15.9l-11.7-6.8v-15.9z" fill="#BBD4DA"/><path d="M91.503 148.7l-31.3-18v-11.3l31.3 18v11.3z" fill="#604EE8"/><path d="M86.602 141.8l-21.5-12.8v-2.9l21.6 12.8v2.9h-.1z" fill="#fff"/><path d="M87.398 153l-11.5-6.6v-2.1l11.5 6.6v2.1zm0 4.5l-11.5-6.6v-2.1l11.5 6.6v2.1zm0 4.5l-11.5-6.6v-2.1l11.5 6.6v2.1zm0 4.5l-11.5-6.6v-2.1l11.5 6.6v2.1zm-.001 4.7l-25.1-14.5v-2.1l25.1 14.5v2.1z" fill="#969698"/></svg>