<svg width="750" height="524" fill="none" xmlns="http://www.w3.org/2000/svg"><path opacity=".1" fill="#7E44FE" d="M20 0h471v377H20z"/><path opacity=".1" fill="#E06AE9" d="M279 141h471v377H279z"/><path opacity=".1" fill="#E84142" d="M577 9h137v110H577z"/><path d="M389.072 185.277h-55.636l-.422-1.263 56.058 1.263zm0 0c0-11.792 3.793-20.635 11.38-26.531 7.586-5.896 16.718-8.843 27.396-8.843 12.645 0 22.409 3.509 29.293 10.528 7.025 7.018 10.537 16.915 10.537 29.689 0 7.159-1.264 14.178-3.793 21.056-2.389 6.878-6.112 13.616-11.169 20.214-4.918 6.598-11.31 13.195-19.178 19.793l-44.466-65.906zm4.979 142.761v.5h58.322v-.5c0-8.128.421-14.766 1.258-19.923v-.002c.834-5.275 2.498-9.984 4.989-14.134 2.635-4.156 6.601-8.54 11.915-13.15l.004-.004c11.111-9.837 20.75-19.397 28.915-28.68l.003-.003c8.177-9.438 14.527-19.306 19.045-29.603 4.667-10.456 6.998-21.826 6.998-34.104 0-26.23-8.616-46.941-25.881-62.07C482.36 111.1 458.344 103.5 427.637 103.5c-18.742 0-35.321 3.168-49.726 9.518-14.41 6.352-25.656 15.605-33.722 27.763-8.073 12.03-11.957 26.452-11.675 43.241l.002.077.024.073.421 1.263.114.342h56.497v-.5c0-11.676 3.749-20.357 11.186-26.136 7.49-5.82 16.511-8.738 27.09-8.738 12.551 0 22.171 3.48 28.936 10.378l.004.003c6.906 6.9 10.39 16.655 10.39 29.336 0 7.099-1.253 14.059-3.762 20.883l-.003.009c-2.369 6.821-6.064 13.513-11.094 20.074l-.004.005c-4.889 6.559-11.251 13.128-19.095 19.706-8.155 6.603-14.773 12.511-19.848 17.722-5.084 5.08-9.048 10.241-11.885 15.484h0l-.005.009c-2.697 5.249-4.608 11.336-5.739 18.257-1.129 6.914-1.692 15.506-1.692 25.769zM393.84 415v.5h58.743v-52.798H393.84V415z" fill="#D9C2F7" stroke="#8647C1"/><path d="M369.072 165.277h-55.636l-.422-1.263 56.058 1.263zm0 0c0-11.792 3.793-20.635 11.38-26.531 7.586-5.896 16.718-8.843 27.396-8.843 12.645 0 22.409 3.509 29.293 10.528 7.025 7.018 10.537 16.915 10.537 29.689 0 7.159-1.264 14.178-3.793 21.056-2.389 6.878-6.112 13.616-11.169 20.214-4.918 6.598-11.31 13.195-19.178 19.793l-44.466-65.906zm4.979 142.761v.5h58.322v-.5c0-8.128.421-14.766 1.258-19.923v-.002c.834-5.275 2.498-9.984 4.989-14.134 2.635-4.156 6.601-8.54 11.915-13.15l.004-.004c11.111-9.837 20.75-19.397 28.915-28.68l.003-.003c8.177-9.438 14.527-19.306 19.045-29.603 4.667-10.456 6.998-21.826 6.998-34.104 0-26.23-8.616-46.941-25.881-62.07C462.36 91.1 438.344 83.5 407.637 83.5c-18.742 0-35.321 3.168-49.726 9.518-14.41 6.352-25.656 15.605-33.722 27.763-8.073 12.03-11.957 26.452-11.675 43.241l.002.077.024.073.421 1.263.114.342h56.497v-.5c0-11.676 3.749-20.357 11.186-26.136 7.49-5.82 16.511-8.738 27.09-8.738 12.551 0 22.171 3.48 28.936 10.378l.004.003c6.906 6.9 10.39 16.655 10.39 29.336 0 7.099-1.253 14.059-3.762 20.883l-.003.009c-2.369 6.821-6.064 13.513-11.094 20.074l-.004.005c-4.889 6.559-11.251 13.128-19.095 19.706-8.155 6.603-14.773 12.511-19.848 17.722-5.084 5.08-9.048 10.241-11.885 15.484h0l-.005.009c-2.697 5.249-4.608 11.336-5.739 18.257-1.129 6.914-1.692 15.506-1.692 25.769zM373.84 395v.5h58.743v-52.798H373.84V395z" fill="#D9C2F7" stroke="#8647C1"/><path d="M349.072 145.277h-55.636l-.422-1.263 56.058 1.263zm0 0c0-11.792 3.793-20.635 11.38-26.531 7.586-5.896 16.718-8.843 27.396-8.843 12.645 0 22.409 3.509 29.293 10.528 7.025 7.018 10.537 16.915 10.537 29.689 0 7.159-1.264 14.178-3.793 21.056-2.389 6.878-6.112 13.616-11.169 20.214-4.918 6.598-11.31 13.195-19.178 19.793l-44.466-65.906zm4.979 142.761v.5h58.322v-.5c0-8.128.421-14.766 1.258-19.923v-.002c.834-5.275 2.498-9.984 4.989-14.134 2.635-4.156 6.601-8.54 11.915-13.15l.004-.004c11.111-9.837 20.75-19.397 28.915-28.68l.003-.003c8.177-9.438 14.527-19.306 19.045-29.603 4.667-10.456 6.998-21.826 6.998-34.104 0-26.23-8.616-46.941-25.881-62.07C442.36 71.1 418.344 63.5 387.637 63.5c-18.742 0-35.321 3.168-49.726 9.518-14.41 6.352-25.656 15.606-33.722 27.763-8.073 12.03-11.957 26.452-11.675 43.241l.002.077.024.073.421 1.263.114.342h56.497v-.5c0-11.676 3.749-20.357 11.186-26.136 7.49-5.82 16.511-8.738 27.09-8.738 12.551 0 22.171 3.48 28.936 10.378l.004.003c6.906 6.9 10.39 16.655 10.39 29.336 0 7.099-1.253 14.059-3.762 20.883l-.003.009c-2.369 6.821-6.064 13.513-11.094 20.074l-.004.005c-4.889 6.559-11.251 13.128-19.095 19.706-8.155 6.603-14.773 12.511-19.848 17.722-5.084 5.08-9.048 10.241-11.885 15.484h0l-.005.009c-2.697 5.249-4.608 11.336-5.739 18.257-1.129 6.914-1.692 15.506-1.692 25.769zM353.84 375v.5h58.743v-52.798H353.84V375z" fill="#D9C2F7" stroke="#8647C1"/><path d="M329.072 125.277h-55.636l-.422-1.263 56.058 1.263zm0 0c0-11.792 3.793-20.635 11.38-26.53 7.586-5.897 16.718-8.844 27.396-8.844 12.645 0 22.409 3.509 29.293 10.528 7.025 7.018 10.537 16.915 10.537 29.689 0 7.159-1.264 14.178-3.793 21.056-2.389 6.878-6.112 13.616-11.169 20.214-4.918 6.598-11.31 13.195-19.178 19.793l-44.466-65.906zm4.979 142.761v.5h58.322v-.5c0-8.128.421-14.766 1.258-19.923v-.002c.834-5.275 2.498-9.984 4.989-14.134 2.635-4.156 6.601-8.54 11.915-13.15l.004-.004c11.111-9.837 20.75-19.397 28.915-28.68l.003-.003c8.177-9.438 14.527-19.306 19.045-29.603 4.667-10.456 6.998-21.826 6.998-34.104 0-26.23-8.616-46.94-25.881-62.07C422.36 51.1 398.344 43.5 367.637 43.5c-18.742 0-35.321 3.168-49.726 9.518-14.41 6.352-25.656 15.606-33.722 27.763-8.073 12.03-11.957 26.452-11.675 43.241l.002.077.024.073.421 1.263.114.342h56.497v-.5c0-11.676 3.749-20.357 11.186-26.136 7.49-5.82 16.511-8.739 27.09-8.739 12.551 0 22.171 3.481 28.936 10.379l.004.003c6.906 6.9 10.39 16.655 10.39 29.336 0 7.099-1.253 14.059-3.762 20.883l-.003.009c-2.369 6.821-6.064 13.513-11.094 20.074l-.004.005c-4.889 6.559-11.251 13.128-19.095 19.706-8.155 6.603-14.773 12.511-19.848 17.722-5.084 5.08-9.048 10.241-11.885 15.484h0l-.005.009c-2.697 5.249-4.608 11.336-5.739 18.257-1.129 6.914-1.692 15.506-1.692 25.769zM333.84 355v.5h58.743v-52.798H333.84V355z" fill="#D9C2F7" stroke="#8647C1"/><path d="M309.072 105.277h-55.636l-.422-1.263 56.058 1.263zm0 0c0-11.792 3.793-20.635 11.38-26.53 7.586-5.897 16.718-8.844 27.396-8.844 12.645 0 22.409 3.509 29.293 10.528 7.025 7.018 10.537 16.915 10.537 29.689 0 7.159-1.264 14.178-3.793 21.056-2.389 6.878-6.112 13.616-11.169 20.214-4.918 6.598-11.31 13.195-19.178 19.793l-44.466-65.906zm4.979 142.761v.5h58.322v-.5c0-8.128.421-14.766 1.258-19.923v-.002c.834-5.275 2.498-9.984 4.989-14.134 2.635-4.156 6.601-8.54 11.915-13.15l.004-.004c11.111-9.837 20.75-19.397 28.915-28.68l.003-.003c8.177-9.438 14.527-19.306 19.045-29.603 4.667-10.456 6.998-21.826 6.998-34.104 0-26.23-8.616-46.94-25.881-62.07C402.36 31.1 378.344 23.5 347.637 23.5c-18.742 0-35.321 3.168-49.726 9.518-14.41 6.352-25.656 15.605-33.722 27.763-8.073 12.03-11.957 26.452-11.675 43.241l.002.077.024.073.421 1.263.114.342h56.497v-.5c0-11.676 3.749-20.357 11.186-26.136 7.49-5.82 16.511-8.739 27.09-8.739 12.551 0 22.171 3.481 28.936 10.379l.004.003c6.906 6.9 10.39 16.655 10.39 29.336 0 7.099-1.253 14.059-3.762 20.883l-.003.009c-2.369 6.821-6.064 13.513-11.094 20.074l-.004.005c-4.889 6.559-11.251 13.128-19.095 19.706-8.155 6.603-14.773 12.511-19.848 17.722-5.084 5.08-9.048 10.241-11.885 15.484h0l-.005.009c-2.697 5.249-4.608 11.336-5.739 18.257-1.129 6.914-1.692 15.506-1.692 25.769zM313.84 335v.5h58.743v-52.798H313.84V335z" fill="#D9C2F7" stroke="#8647C1"/><path d="M289.072 85.277h-55.636l-.422-1.264 56.058 1.264zm0 0c0-11.792 3.793-20.635 11.38-26.53 7.586-5.897 16.718-8.844 27.396-8.844 12.645 0 22.409 3.509 29.293 10.528 7.025 7.018 10.537 16.915 10.537 29.689 0 7.159-1.264 14.178-3.793 21.056-2.389 6.878-6.112 13.616-11.169 20.214-4.918 6.598-11.31 13.195-19.178 19.793l-44.466-65.906zm4.979 142.761v.5h58.322v-.5c0-8.128.421-14.766 1.258-19.923v-.002c.834-5.275 2.498-9.984 4.989-14.134 2.635-4.156 6.601-8.54 11.915-13.15l.004-.004c11.111-9.837 20.75-19.397 28.915-28.68l.003-.003c8.177-9.438 14.527-19.306 19.045-29.603 4.667-10.456 6.998-21.826 6.998-34.104 0-26.23-8.616-46.94-25.881-62.07C382.36 11.1 358.344 3.5 327.637 3.5c-18.742 0-35.321 3.168-49.726 9.518-14.41 6.352-25.656 15.605-33.722 27.763-8.073 12.03-11.957 26.452-11.675 43.24l.002.078.024.073.421 1.263.114.342h56.497v-.5c0-11.676 3.749-20.357 11.186-26.136 7.49-5.82 16.511-8.738 27.09-8.738 12.551 0 22.171 3.48 28.936 10.378l.004.003c6.906 6.9 10.39 16.655 10.39 29.336 0 7.099-1.253 14.059-3.762 20.883l-.003.009c-2.369 6.821-6.064 13.513-11.094 20.074l-.004.005c-4.889 6.559-11.251 13.128-19.095 19.706-8.155 6.603-14.773 12.511-19.848 17.722-5.084 5.08-9.048 10.241-11.885 15.484h0l-.005.009c-2.697 5.249-4.608 11.336-5.739 18.257-1.129 6.914-1.692 15.506-1.692 25.769zM293.84 315v.5h58.743v-52.798H293.84V315z" fill="#7A18D5" stroke="#000"/><path d="M123.923 456.562v.5h44.793v-.5c0-6.206.322-11.271.96-15.203v-.002c.635-4.016 1.902-7.599 3.796-10.754 2.005-3.162 5.026-6.502 9.08-10.02l.003-.003c8.492-7.518 15.86-14.826 22.102-21.922l.002-.003c6.255-7.218 11.113-14.767 14.57-22.646 3.572-8.004 5.356-16.707 5.356-26.102 0-20.068-6.593-35.925-19.812-47.51-13.214-11.686-31.593-17.498-55.072-17.498-14.332 0-27.015 2.423-38.038 7.281-11.028 4.862-19.638 11.945-25.814 21.254-6.183 9.213-9.155 20.256-8.94 33.103l.002.077.025.073.321.965.115.342h43.365v-.5c0-8.893 2.855-15.487 8.501-19.875 5.699-4.428 12.564-6.651 20.624-6.651 9.566 0 16.882 2.652 22.023 7.893l.003.004c5.248 5.244 7.904 12.662 7.904 22.329 0 5.409-.955 10.713-2.868 15.914h0l-.003.008c-1.805 5.198-4.621 10.299-8.457 15.303l-.004.006c-3.729 5.002-8.582 10.014-14.569 15.034-6.232 5.046-11.291 9.562-15.172 13.548-3.89 3.887-6.927 7.839-9.1 11.856l-.005.01c-2.068 4.022-3.531 8.685-4.396 13.982-.865 5.291-1.295 11.862-1.295 19.707zM123.762 523v.5h45.115v-40.573h-45.115V523z" fill="#FFDCFE" stroke="#C78BCC"/><path d="M108.643 441.282v.5h44.794v-.5c0-6.206.321-11.271.959-15.202l.001-.002c.634-4.017 1.901-7.599 3.796-10.755 2.005-3.162 5.025-6.502 9.079-10.019l.003-.004c8.493-7.518 15.86-14.825 22.102-21.922l.003-.003c6.254-7.218 11.112-14.767 14.569-22.645 3.573-8.005 5.356-16.708 5.356-26.103 0-20.068-6.593-35.925-19.812-47.509-13.213-11.687-31.593-17.499-55.072-17.499-14.332 0-27.015 2.423-38.038 7.282-11.028 4.861-19.638 11.945-25.813 21.253-6.184 9.214-9.156 20.256-8.94 33.103l.001.077.025.073.322.965.114.342h43.365v-.5c0-8.893 2.855-15.487 8.501-19.875 5.699-4.428 12.565-6.651 20.624-6.651 9.566 0 16.882 2.653 22.023 7.894l.003.003c5.249 5.244 7.904 12.663 7.904 22.329 0 5.409-.955 10.713-2.867 15.914h0l-.003.009c-1.805 5.198-4.622 10.299-8.458 15.303l-.004.005c-3.728 5.002-8.582 10.014-14.569 15.035-6.232 5.045-11.291 9.561-15.172 13.547-3.89 3.887-6.927 7.839-9.1 11.857l-.005.009c-2.068 4.022-3.53 8.686-4.396 13.982-.865 5.291-1.295 11.862-1.295 19.707zm-.161 66.438v.5h45.116v-40.573h-45.116v40.073z" fill="#FFDCFE" stroke="#C78BCC"/><path d="M93.364 426.002v.5h44.793v-.5c0-6.206.321-11.271.959-15.202l.001-.002c.634-4.016 1.902-7.599 3.796-10.755 2.005-3.161 5.025-6.502 9.079-10.019l.004-.003c8.492-7.519 15.86-14.826 22.101-21.923l.003-.002c6.254-7.219 11.112-14.767 14.569-22.646 3.573-8.005 5.356-16.708 5.356-26.103 0-20.068-6.592-35.925-19.812-47.509-13.213-11.687-31.593-17.499-55.072-17.499-14.332 0-27.015 2.423-38.037 7.282-11.028 4.861-19.639 11.945-25.814 21.253-6.184 9.214-9.156 20.257-8.94 33.103l.002.077.024.073.322.965.114.342h43.365v-.5c0-8.893 2.855-15.486 8.502-19.874 5.698-4.429 12.564-6.652 20.623-6.652 9.567 0 16.882 2.653 22.023 7.894l.004.003c5.248 5.244 7.903 12.663 7.903 22.329 0 5.409-.955 10.713-2.867 15.914h0l-.003.009c-1.805 5.198-4.622 10.299-8.458 15.303l-.004.005c-3.728 5.002-8.582 10.014-14.569 15.035-6.232 5.046-11.29 9.562-15.172 13.547-3.89 3.887-6.926 7.839-9.1 11.857l-.005.009c-2.067 4.023-3.53 8.686-4.396 13.983-.864 5.291-1.294 11.862-1.294 19.706zm-.161 66.438v.5h45.115v-40.573H93.203v40.073z" fill="#FFDCFE" stroke="#C78BCC"/><path d="M78.084 410.722v.5h44.793v-.5c0-6.206.322-11.271.96-15.202v-.002c.635-4.016 1.902-7.599 3.796-10.755 2.005-3.161 5.025-6.502 9.079-10.019l.004-.003c8.492-7.519 15.86-14.826 22.102-21.922l.002-.003c6.254-7.219 11.112-14.767 14.569-22.646 3.573-8.005 5.357-16.708 5.357-26.103 0-20.067-6.593-35.925-19.812-47.509-13.214-11.687-31.593-17.498-55.072-17.498-14.332 0-27.015 2.422-38.038 7.281-11.028 4.861-19.639 11.945-25.814 21.254-6.184 9.213-9.155 20.256-8.94 33.103l.002.076.024.073.322.966.114.341h43.366v-.5c0-8.893 2.854-15.486 8.5-19.874 5.7-4.429 12.565-6.651 20.625-6.651 9.566 0 16.882 2.652 22.022 7.893l.004.004c5.248 5.243 7.903 12.662 7.903 22.328 0 5.41-.955 10.713-2.867 15.914h0l-.003.009c-1.805 5.198-4.622 10.299-8.458 15.303l-.004.005c-3.728 5.002-8.582 10.015-14.569 15.035-6.231 5.046-11.29 9.562-15.172 13.547-3.89 3.888-6.926 7.839-9.1 11.857l-.005.009c-2.067 4.023-3.53 8.686-4.396 13.983-.864 5.291-1.294 11.862-1.294 19.706zm-.161 66.439v.5h45.115v-40.574H77.923v40.074z" fill="#FFDCFE" stroke="#C78BCC"/><path d="M62.804 395.443v.5h44.793v-.5c0-6.207.322-11.271.96-15.203v-.002c.635-4.016 1.902-7.599 3.796-10.755 2.005-3.161 5.026-6.501 9.079-10.019l.004-.003c8.492-7.518 15.86-14.826 22.102-21.922l.002-.003c6.254-7.218 11.113-14.767 14.57-22.646 3.572-8.004 5.356-16.707 5.356-26.102 0-20.068-6.593-35.925-19.812-47.51-13.214-11.687-31.593-17.498-55.072-17.498-14.332 0-27.015 2.422-38.038 7.281-11.028 4.861-19.639 11.945-25.814 21.254-6.183 9.213-9.155 20.256-8.94 33.103l.002.077.024.073.322.965.114.342h43.366v-.5c0-8.894 2.854-15.487 8.501-19.875 5.699-4.428 12.564-6.651 20.624-6.651 9.566 0 16.882 2.652 22.022 7.893l.004.004c5.248 5.244 7.904 12.662 7.904 22.329 0 5.409-.955 10.713-2.868 15.914h0l-.003.008c-1.805 5.198-4.621 10.299-8.458 15.303l-.004.006c-3.728 5.002-8.582 10.014-14.568 15.034-6.232 5.046-11.291 9.562-15.172 13.548-3.89 3.887-6.927 7.839-9.1 11.856l-.005.01c-2.068 4.022-3.53 8.685-4.396 13.982-.865 5.291-1.295 11.862-1.295 19.707zm-.161 66.438v.5h45.115v-40.574H62.643v40.074z" fill="#FFDCFE" stroke="#C78BCC"/><path d="M47.524 380.163v.5h44.793v-.5c0-6.206.322-11.271.96-15.202v-.003c.635-4.016 1.902-7.598 3.796-10.754 2.005-3.162 5.026-6.502 9.08-10.02l.003-.003c8.493-7.518 15.86-14.825 22.102-21.922l.002-.003c6.255-7.218 11.113-14.767 14.57-22.646 3.572-8.004 5.356-16.707 5.356-26.102 0-20.068-6.593-35.925-19.812-47.51-13.213-11.686-31.593-17.498-55.072-17.498-14.332 0-27.015 2.423-38.038 7.282-11.028 4.861-19.638 11.944-25.814 21.253-6.183 9.214-9.155 20.256-8.939 33.103l.001.077.025.073.322.965.114.342h43.365v-.5c0-8.893 2.855-15.487 8.501-19.875 5.699-4.428 12.564-6.651 20.624-6.651 9.566 0 16.882 2.653 22.023 7.894l.003.003c5.248 5.244 7.904 12.662 7.904 22.329 0 5.409-.955 10.713-2.868 15.914h0l-.003.008c-1.805 5.198-4.621 10.299-8.457 15.303l-.004.006c-3.728 5.002-8.582 10.014-14.57 15.035-6.23 5.045-11.29 9.561-15.171 13.547-3.89 3.887-6.927 7.839-9.1 11.856l-.005.01c-2.068 4.022-3.53 8.685-4.396 13.982-.865 5.291-1.295 11.862-1.295 19.707zm-.16 66.438v.5h45.114v-40.573H47.363v40.073z" fill="#E06AE9" stroke="#000"/><path d="M629.003 397.433v.5h27.081v-.5c0-3.69.191-6.694.569-9.021v-.002c.374-2.368 1.12-4.475 2.233-6.33 1.18-1.86 2.964-3.834 5.368-5.921l.004-.003c5.062-4.482 9.456-8.84 13.18-13.073l.002-.003c3.737-4.312 6.641-8.825 8.709-13.537 2.14-4.795 3.207-10.006 3.207-15.627 0-12-3.945-21.503-11.867-28.446-7.917-7.002-18.917-10.471-32.932-10.471-8.558 0-16.139 1.446-22.734 4.353-6.6 2.91-11.759 7.152-15.46 12.731-3.709 5.526-5.487 12.144-5.358 19.829l.001.077.025.073.192.575.114.342h26.173v-.5c0-5.25 1.683-9.11 4.985-11.677 3.354-2.606 7.398-3.918 12.158-3.918 5.659 0 9.958 1.568 12.971 4.64l.004.004c3.077 3.075 4.647 7.435 4.647 13.154 0 3.197-.564 6.332-1.695 9.408h0l-.003.009c-1.067 3.072-2.733 6.091-5.006 9.056h0l-.004.006c-2.209 2.963-5.088 5.937-8.643 8.918-3.714 3.008-6.732 5.702-9.051 8.082-2.327 2.326-4.148 4.695-5.453 7.107h0l-.005.01c-1.243 2.417-2.12 5.215-2.638 8.387-.517 3.165-.774 7.09-.774 11.768zM628.908 437v.5h27.272v-24.568h-27.272V437z" fill="#FFCACA" stroke="#EA9192"/><path d="M619.905 388.334v.5h27.08v-.5c0-3.691.192-6.695.569-9.022l.001-.002c.374-2.367 1.12-4.475 2.233-6.33 1.18-1.86 2.963-3.834 5.367-5.92l.004-.003c5.062-4.482 9.456-8.84 13.18-13.074l.003-.003c3.736-4.312 6.641-8.824 8.708-13.537 2.14-4.794 3.208-10.006 3.208-15.627 0-12-3.945-21.502-11.868-28.445-7.917-7.003-18.916-10.472-32.931-10.472-8.558 0-16.14 1.447-22.735 4.354-6.6 2.909-11.759 7.152-15.46 12.73-3.709 5.527-5.487 12.145-5.358 19.83l.002.077.024.073.192.574.114.342h26.174v-.5c0-5.249 1.682-9.11 4.984-11.676 3.355-2.607 7.398-3.919 12.159-3.919 5.659 0 9.957 1.568 12.971 4.641l.003.003c3.078 3.075 4.648 7.436 4.648 13.155 0 3.197-.565 6.332-1.695 9.407h0l-.003.009c-1.067 3.072-2.734 6.092-5.007 9.057h0l-.004.005c-2.208 2.964-5.087 5.937-8.643 8.919-3.714 3.007-6.732 5.701-9.051 8.082-2.327 2.326-4.148 4.694-5.453 7.107h0l-.005.009c-1.242 2.418-2.119 5.216-2.638 8.387-.517 3.166-.773 7.091-.773 11.769zm-.096 39.566v.5h27.272v-24.567h-27.272V427.9z" fill="#FFCACA" stroke="#EA9192"/><path d="M610.804 379.234v.5h27.081v-.5c0-3.691.191-6.695.569-9.021v-.002c.374-2.368 1.12-4.476 2.233-6.33 1.18-1.861 2.963-3.835 5.368-5.921l.003-.003c5.063-4.482 9.457-8.84 13.181-13.074l.002-.002c3.736-4.313 6.641-8.825 8.709-13.538 2.14-4.794 3.207-10.005 3.207-15.627 0-12-3.945-21.502-11.868-28.445-7.917-7.002-18.916-10.472-32.931-10.472-8.558 0-16.14 1.447-22.734 4.354-6.6 2.909-11.76 7.152-15.46 12.73-3.709 5.527-5.487 12.145-5.358 19.83l.001.077.025.073.191.575.114.341h26.174v-.5c0-5.249 1.683-9.11 4.985-11.676 3.354-2.607 7.398-3.919 12.158-3.919 5.659 0 9.958 1.568 12.971 4.641l.004.003c3.077 3.075 4.647 7.436 4.647 13.155 0 3.197-.564 6.332-1.695 9.408h0l-.003.008c-1.067 3.073-2.733 6.092-5.006 9.057h0l-.004.005c-2.209 2.964-5.088 5.937-8.643 8.919-3.714 3.007-6.733 5.701-9.051 8.082-2.327 2.326-4.148 4.694-5.454 7.107h0l-.005.009c-1.242 2.418-2.119 5.216-2.637 8.387-.517 3.166-.774 7.091-.774 11.769zm-.096 39.567v.5h27.273v-24.568h-27.273v24.068z" fill="#FFCACA" stroke="#EA9192"/><path d="M601.704 370.134v.5h27.08v-.5c0-3.69.192-6.695.569-9.021v-.002c.375-2.368 1.121-4.476 2.233-6.33 1.181-1.861 2.964-3.835 5.368-5.921l.004-.003c5.062-4.482 9.456-8.84 13.18-13.074l.002-.002c3.737-4.313 6.641-8.825 8.709-13.537 2.14-4.795 3.207-10.006 3.207-15.627 0-12-3.944-21.503-11.867-28.446-7.917-7.002-18.917-10.472-32.931-10.472-8.558 0-16.14 1.447-22.735 4.354-6.6 2.909-11.759 7.152-15.46 12.73-3.709 5.527-5.487 12.145-5.358 19.83l.002.077.024.073.192.575.114.341h26.174v-.5c0-5.249 1.682-9.11 4.984-11.676 3.355-2.607 7.398-3.918 12.158-3.918 5.66 0 9.958 1.568 12.971 4.64l.004.003c3.078 3.075 4.648 7.436 4.648 13.155 0 3.197-.565 6.332-1.696 9.408h0l-.003.008c-1.066 3.073-2.733 6.092-5.006 9.057h0l-.004.006c-2.209 2.963-5.087 5.936-8.643 8.918-3.714 3.007-6.732 5.701-9.051 8.082-2.327 2.326-4.148 4.694-5.453 7.107h0l-.005.009c-1.243 2.418-2.12 5.216-2.638 8.387-.517 3.166-.773 7.091-.773 11.769zm-.096 39.567v.5h27.272v-24.568h-27.272v24.068z" fill="#FFCACA" stroke="#EA9192"/><path d="M592.605 361.034v.5h27.081v-.5c0-3.69.191-6.694.569-9.021v-.002c.375-2.368 1.121-4.475 2.233-6.33 1.18-1.86 2.964-3.834 5.368-5.92l.004-.004c5.062-4.482 9.456-8.839 13.18-13.073l.002-.003c3.737-4.312 6.641-8.825 8.709-13.537 2.14-4.795 3.207-10.006 3.207-15.627 0-12-3.945-21.503-11.867-28.446-7.917-7.002-18.917-10.471-32.932-10.471-8.558 0-16.139 1.446-22.734 4.353-6.6 2.91-11.759 7.152-15.46 12.731-3.709 5.526-5.487 12.145-5.358 19.829l.001.077.025.073.192.575.114.342h26.173v-.5c0-5.25 1.683-9.11 4.985-11.677 3.354-2.606 7.398-3.918 12.158-3.918 5.659 0 9.958 1.568 12.971 4.64l.004.004c3.077 3.075 4.648 7.435 4.648 13.154 0 3.197-.565 6.332-1.696 9.408h0l-.003.009c-1.067 3.072-2.733 6.091-5.006 9.057h0l-.004.005c-2.209 2.963-5.087 5.937-8.643 8.919-3.714 3.007-6.732 5.701-9.051 8.081-2.327 2.326-4.148 4.695-5.453 7.107h0l-.005.01c-1.243 2.417-2.12 5.215-2.638 8.387-.517 3.165-.774 7.09-.774 11.768zm-.095 39.567v.5h27.272v-24.567H592.51v24.067z" fill="#FFCACA" stroke="#EA9192"/><path d="M583.505 351.935v.5h27.081v-.5c0-3.691.191-6.695.568-9.022l.001-.002c.374-2.367 1.12-4.475 2.233-6.33 1.18-1.86 2.963-3.834 5.367-5.92l.004-.004c5.063-4.482 9.457-8.839 13.18-13.073l.003-.003c3.736-4.312 6.641-8.824 8.709-13.537 2.139-4.795 3.207-10.006 3.207-15.627 0-12-3.945-21.502-11.868-28.446-7.917-7.002-18.916-10.471-32.931-10.471-8.558 0-16.14 1.447-22.735 4.354-6.6 2.909-11.759 7.151-15.46 12.73-3.709 5.526-5.487 12.145-5.357 19.83l.001.076.024.073.192.575.114.342h26.174v-.5c0-5.249 1.682-9.11 4.984-11.676 3.355-2.607 7.399-3.919 12.159-3.919 5.659 0 9.957 1.568 12.971 4.64l.003.004c3.078 3.075 4.648 7.435 4.648 13.154 0 3.198-.564 6.333-1.695 9.408h0l-.003.009c-1.067 3.072-2.733 6.091-5.007 9.057h0l-.004.005c-2.208 2.963-5.087 5.937-8.643 8.919-3.713 3.007-6.732 5.701-9.05 8.082-2.328 2.325-4.149 4.694-5.454 7.107h0l-.005.009c-1.242 2.418-2.119 5.215-2.637 8.387-.518 3.165-.774 7.09-.774 11.769zm-.096 39.566v.5h27.272v-24.567h-27.272v24.067z" fill="#E84142" stroke="#000"/></svg>