<svg width="32" height="32" fill="none" xmlns="http://www.w3.org/2000/svg"><g clip-path="url(#clip0_2133_2005)"><path fill-rule="evenodd" clip-rule="evenodd" d="M31.267 7.931c.221-.728 0-1.264-1.06-1.264h-3.5c-.891 0-1.302.463-1.524.973 0 0-1.78 4.262-4.302 7.03-.816.802-1.186 1.057-1.632 1.057-.222 0-.557-.255-.557-.984V7.931c0-.875-.245-1.264-.987-1.264h-5.504c-.556 0-.89.405-.89.79 0 .829 1.261 1.02 1.39 3.351v5.064c0 1.111-.204 1.312-.649 1.312-1.187 0-4.073-4.281-5.787-9.18-.332-.953-.668-1.337-1.562-1.337H1.2c-1 0-1.2.463-1.2.973 0 .91 1.187 5.427 5.527 11.402 2.893 4.08 6.966 6.292 10.677 6.292 2.225 0 2.5-.491 2.5-1.338v-3.084c0-.982.21-1.178.916-1.178.52 0 1.41.256 3.487 2.222 2.373 2.332 2.764 3.378 4.1 3.378h3.5c1 0 1.501-.491 1.213-1.462-.317-.965-1.45-2.366-2.953-4.029-.816-.947-2.04-1.967-2.412-2.477-.519-.655-.371-.947 0-1.53 0 0 4.266-5.901 4.71-7.905h.002z" fill="#7A18D5"/></g><defs><clipPath id="clip0_2133_2005"><path fill="#fff" d="M0 0h32v32H0z"/></clipPath></defs></svg>