<svg width="32" height="33" fill="none" xmlns="http://www.w3.org/2000/svg"><path d="M31.525 6.689c-1.114.493-2.31.827-3.567.977a6.227 6.227 0 002.73-3.437 12.4 12.4 0 01-3.943 1.507 6.213 6.213 0 00-10.584 5.666 17.638 17.638 0 01-12.803-6.49 6.208 6.208 0 00-.84 3.122 6.214 6.214 0 002.763 5.17 6.197 6.197 0 01-2.814-.776v.08a6.213 6.213 0 004.983 6.09 6.257 6.257 0 01-2.805.107 6.215 6.215 0 005.802 4.312 12.464 12.464 0 01-7.714 2.66c-.496 0-.99-.029-1.483-.087a17.567 17.567 0 009.52 2.79c11.427 0 17.673-9.463 17.673-17.671 0-.267-.006-.536-.018-.803a12.628 12.628 0 003.097-3.213l.003-.004z" fill="#7A18D5"/></svg>