<svg width="32" height="33" fill="none" xmlns="http://www.w3.org/2000/svg"><path d="M16 11.94a4.174 4.174 0 00-4.165 4.166A4.174 4.174 0 0016 20.272a4.174 4.174 0 004.166-4.166A4.174 4.174 0 0016 11.941zm12.494 4.166c0-1.725.015-3.434-.081-5.156-.097-2-.553-3.775-2.016-5.238-1.466-1.465-3.237-1.918-5.237-2.015-1.726-.097-3.435-.081-5.157-.081-1.725 0-3.434-.016-5.156.08-2 .098-3.775.554-5.237 2.016C4.144 7.178 3.69 8.95 3.594 10.95c-.097 1.725-.081 3.434-.081 5.156 0 1.722-.016 3.435.08 5.156.098 2 .554 3.775 2.017 5.238 1.465 1.466 3.237 1.919 5.237 2.016 1.725.096 3.434.08 5.156.08 1.725 0 3.435.016 5.157-.08 2-.097 3.774-.554 5.237-2.016 1.466-1.466 1.919-3.238 2.016-5.238.1-1.721.08-3.43.08-5.156zM16 22.516a6.4 6.4 0 01-6.41-6.41A6.4 6.4 0 0116 9.696a6.4 6.4 0 016.41 6.41 6.4 6.4 0 01-6.41 6.41zm6.672-11.585a1.495 1.495 0 01-1.497-1.497c0-.828.669-1.497 1.497-1.497a1.495 1.495 0 011.383 2.07 1.495 1.495 0 01-1.383.924z" fill="#7A18D5"/></svg>