<svg width="32" height="32" fill="none" xmlns="http://www.w3.org/2000/svg"><path d="M31.326 8.271a4.006 4.006 0 00-2.787-2.78c-2.495-.668-12.525-.668-12.525-.668s-10.01-.016-12.532.667a4.005 4.005 0 00-2.78 2.781 41.574 41.574 0 00-.698 7.745 42.136 42.136 0 00.697 7.708 4.022 4.022 0 002.781 2.787c2.495.667 12.532.667 12.532.667s10.005 0 12.525-.667a4.023 4.023 0 002.787-2.787c.46-2.54.683-5.125.667-7.708.016-2.6-.203-5.188-.667-7.745zM12.81 20.803v-9.595l8.35 4.808-8.35 4.787z" fill="#7A18D5"/></svg>