<svg width="32" height="32" fill="none" xmlns="http://www.w3.org/2000/svg"><path d="M21.71 10C20.774 4.419 18.568.5 16 .5s-4.774 3.919-5.71 9.5h11.42zM9.806 16c0 1.387.078 2.719.213 4h11.955a37.827 37.827 0 000-8H10.02a37.949 37.949 0 00-.213 4zm20.949-6c-1.845-4.244-5.58-7.525-10.194-8.85 1.575 2.113 2.658 5.294 3.226 8.85h6.968zM11.432 1.15C6.826 2.475 3.084 5.756 1.245 10h6.968c.561-3.556 1.645-6.737 3.22-8.85zM31.445 12h-7.4c.136 1.313.213 2.656.213 4a38.92 38.92 0 01-.213 4h7.394c.355-1.281.555-2.613.555-4s-.2-2.719-.549-4zM7.742 16c0-1.344.077-2.688.213-4h-7.4A15.179 15.179 0 000 16c0 1.387.206 2.719.555 4h7.393a41.007 41.007 0 01-.206-4zm2.548 6c.936 5.581 3.142 9.5 5.71 9.5s4.774-3.919 5.71-9.5H10.29zm10.278 8.85c4.606-1.325 8.348-4.606 10.193-8.85h-6.967c-.568 3.556-1.652 6.738-3.226 8.85zM1.245 22c1.845 4.244 5.58 7.525 10.194 8.85C9.865 28.737 8.78 25.556 8.213 22H1.245z" fill="#7A18D5"/></svg>