<svg width="970" height="72" fill="none" xmlns="http://www.w3.org/2000/svg"><mask id="a" maskUnits="userSpaceOnUse" x="-.595" y=".36" width="971" height="71" fill="#000"><path fill="#fff" d="M-.595.36h971v71h-971z"/><path d="M4.445 69v-9.975L30.095 34.8c2.027-1.837 3.515-3.483 4.465-4.94.95-1.457 1.584-2.787 1.9-3.99.38-1.203.57-2.312.57-3.325 0-2.66-.918-4.687-2.755-6.08-1.773-1.457-4.401-2.185-7.885-2.185-2.786 0-5.383.538-7.79 1.615-2.343 1.077-4.338 2.755-5.985 5.035l-11.21-7.22c2.534-3.8 6.08-6.808 10.64-9.025 4.56-2.217 9.817-3.325 15.77-3.325 4.94 0 9.247.823 12.92 2.47 3.737 1.583 6.619 3.832 8.645 6.745 2.09 2.913 3.135 6.397 3.135 10.45 0 2.153-.285 4.307-.855 6.46-.506 2.09-1.583 4.307-3.23 6.65-1.583 2.343-3.926 4.972-7.03 7.885L20.12 62.065l-2.945-5.605H54.7V69H4.445zm85.105 1.14c-5.446 0-10.323-1.33-14.63-3.99-4.306-2.723-7.695-6.65-10.165-11.78-2.47-5.13-3.705-11.337-3.705-18.62 0-7.283 1.235-13.49 3.705-18.62C67.225 12 70.614 8.105 74.92 5.445c4.307-2.723 9.184-4.085 14.63-4.085 5.51 0 10.387 1.362 14.63 4.085 4.307 2.66 7.695 6.555 10.165 11.685 2.47 5.13 3.705 11.337 3.705 18.62 0 7.283-1.235 13.49-3.705 18.62-2.47 5.13-5.858 9.057-10.165 11.78-4.243 2.66-9.12 3.99-14.63 3.99zm0-13.015c2.597 0 4.845-.728 6.745-2.185 1.964-1.457 3.484-3.768 4.56-6.935 1.14-3.167 1.71-7.252 1.71-12.255 0-5.003-.57-9.088-1.71-12.255-1.076-3.167-2.596-5.478-4.56-6.935-1.9-1.457-4.148-2.185-6.745-2.185-2.533 0-4.781.728-6.745 2.185-1.9 1.457-3.42 3.768-4.56 6.935-1.076 3.167-1.615 7.252-1.615 12.255 0 5.003.539 9.088 1.615 12.255 1.14 3.167 2.66 5.478 4.56 6.935 1.964 1.457 4.212 2.185 6.745 2.185zM124.587 69v-9.975l25.65-24.225c2.027-1.837 3.515-3.483 4.465-4.94.95-1.457 1.583-2.787 1.9-3.99.38-1.203.57-2.312.57-3.325 0-2.66-.918-4.687-2.755-6.08-1.773-1.457-4.402-2.185-7.885-2.185-2.787 0-5.383.538-7.79 1.615-2.343 1.077-4.338 2.755-5.985 5.035l-11.21-7.22c2.533-3.8 6.08-6.808 10.64-9.025 4.56-2.217 9.817-3.325 15.77-3.325 4.94 0 9.247.823 12.92 2.47 3.737 1.583 6.618 3.832 8.645 6.745 2.09 2.913 3.135 6.397 3.135 10.45 0 2.153-.285 4.307-.855 6.46-.507 2.09-1.583 4.307-3.23 6.65-1.583 2.343-3.927 4.972-7.03 7.885l-21.28 20.045-2.945-5.605h37.525V69h-50.255zm66.865 0V8.2l6.65 6.65h-19.95V2.5h28.69V69h-15.39zm66.993 0v-9.975l25.65-24.225c2.027-1.837 3.515-3.483 4.465-4.94.95-1.457 1.584-2.787 1.9-3.99.38-1.203.57-2.312.57-3.325 0-2.66-.918-4.687-2.755-6.08-1.773-1.457-4.401-2.185-7.885-2.185-2.786 0-5.383.538-7.79 1.615-2.343 1.077-4.338 2.755-5.985 5.035l-11.21-7.22c2.534-3.8 6.08-6.808 10.64-9.025 4.56-2.217 9.817-3.325 15.77-3.325 4.94 0 9.247.823 12.92 2.47 3.737 1.583 6.619 3.832 8.645 6.745 2.09 2.913 3.135 6.397 3.135 10.45 0 2.153-.285 4.307-.855 6.46-.506 2.09-1.583 4.307-3.23 6.65-1.583 2.343-3.926 4.972-7.03 7.885l-21.28 20.045-2.945-5.605H308.7V69h-50.255zm85.105 1.14c-5.446 0-10.323-1.33-14.63-3.99-4.306-2.723-7.695-6.65-10.165-11.78-2.47-5.13-3.705-11.337-3.705-18.62 0-7.283 1.235-13.49 3.705-18.62 2.47-5.13 5.859-9.025 10.165-11.685 4.307-2.723 9.184-4.085 14.63-4.085 5.51 0 10.387 1.362 14.63 4.085 4.307 2.66 7.695 6.555 10.165 11.685 2.47 5.13 3.705 11.337 3.705 18.62 0 7.283-1.235 13.49-3.705 18.62-2.47 5.13-5.858 9.057-10.165 11.78-4.243 2.66-9.12 3.99-14.63 3.99zm0-13.015c2.597 0 4.845-.728 6.745-2.185 1.964-1.457 3.484-3.768 4.56-6.935 1.14-3.167 1.71-7.252 1.71-12.255 0-5.003-.57-9.088-1.71-12.255-1.076-3.167-2.596-5.478-4.56-6.935-1.9-1.457-4.148-2.185-6.745-2.185-2.533 0-4.781.728-6.745 2.185-1.9 1.457-3.42 3.768-4.56 6.935-1.076 3.167-1.615 7.252-1.615 12.255 0 5.003.539 9.088 1.615 12.255 1.14 3.167 2.66 5.478 4.56 6.935 1.964 1.457 4.212 2.185 6.745 2.185zM378.587 69v-9.975l25.65-24.225c2.027-1.837 3.515-3.483 4.465-4.94.95-1.457 1.583-2.787 1.9-3.99.38-1.203.57-2.312.57-3.325 0-2.66-.918-4.687-2.755-6.08-1.773-1.457-4.402-2.185-7.885-2.185-2.787 0-5.383.538-7.79 1.615-2.343 1.077-4.338 2.755-5.985 5.035l-11.21-7.22c2.533-3.8 6.08-6.808 10.64-9.025 4.56-2.217 9.817-3.325 15.77-3.325 4.94 0 9.247.823 12.92 2.47 3.737 1.583 6.618 3.832 8.645 6.745 2.09 2.913 3.135 6.397 3.135 10.45 0 2.153-.285 4.307-.855 6.46-.507 2.09-1.583 4.307-3.23 6.65-1.583 2.343-3.927 4.972-7.03 7.885l-21.28 20.045-2.945-5.605h37.525V69h-50.255zm66.865 0V8.2l6.65 6.65h-19.95V2.5h28.69V69h-15.39zm66.993 0v-9.975l25.65-24.225c2.027-1.837 3.515-3.483 4.465-4.94.95-1.457 1.584-2.787 1.9-3.99.38-1.203.57-2.312.57-3.325 0-2.66-.918-4.687-2.755-6.08-1.773-1.457-4.401-2.185-7.885-2.185-2.786 0-5.383.538-7.79 1.615-2.343 1.077-4.338 2.755-5.985 5.035l-11.21-7.22c2.534-3.8 6.08-6.808 10.64-9.025 4.56-2.217 9.817-3.325 15.77-3.325 4.94 0 9.247.823 12.92 2.47 3.737 1.583 6.619 3.832 8.645 6.745 2.09 2.913 3.135 6.397 3.135 10.45 0 2.153-.285 4.307-.855 6.46-.506 2.09-1.583 4.307-3.23 6.65-1.583 2.343-3.926 4.972-7.03 7.885l-21.28 20.045-2.945-5.605H562.7V69h-50.255zm85.105 1.14c-5.446 0-10.323-1.33-14.63-3.99-4.306-2.723-7.695-6.65-10.165-11.78-2.47-5.13-3.705-11.337-3.705-18.62 0-7.283 1.235-13.49 3.705-18.62 2.47-5.13 5.859-9.025 10.165-11.685 4.307-2.723 9.184-4.085 14.63-4.085 5.51 0 10.387 1.362 14.63 4.085 4.307 2.66 7.695 6.555 10.165 11.685 2.47 5.13 3.705 11.337 3.705 18.62 0 7.283-1.235 13.49-3.705 18.62-2.47 5.13-5.858 9.057-10.165 11.78-4.243 2.66-9.12 3.99-14.63 3.99zm0-13.015c2.597 0 4.845-.728 6.745-2.185 1.964-1.457 3.484-3.768 4.56-6.935 1.14-3.167 1.71-7.252 1.71-12.255 0-5.003-.57-9.088-1.71-12.255-1.076-3.167-2.596-5.478-4.56-6.935-1.9-1.457-4.148-2.185-6.745-2.185-2.533 0-4.781.728-6.745 2.185-1.9 1.457-3.42 3.768-4.56 6.935-1.076 3.167-1.615 7.252-1.615 12.255 0 5.003.539 9.088 1.615 12.255 1.14 3.167 2.66 5.478 4.56 6.935 1.964 1.457 4.212 2.185 6.745 2.185zM632.587 69v-9.975l25.65-24.225c2.027-1.837 3.515-3.483 4.465-4.94.95-1.457 1.583-2.787 1.9-3.99.38-1.203.57-2.312.57-3.325 0-2.66-.918-4.687-2.755-6.08-1.773-1.457-4.402-2.185-7.885-2.185-2.787 0-5.383.538-7.79 1.615-2.343 1.077-4.338 2.755-5.985 5.035l-11.21-7.22c2.533-3.8 6.08-6.808 10.64-9.025 4.56-2.217 9.817-3.325 15.77-3.325 4.94 0 9.247.823 12.92 2.47 3.737 1.583 6.618 3.832 8.645 6.745 2.09 2.913 3.135 6.397 3.135 10.45 0 2.153-.285 4.307-.855 6.46-.507 2.09-1.583 4.307-3.23 6.65-1.583 2.343-3.927 4.972-7.03 7.885l-21.28 20.045-2.945-5.605h37.525V69h-50.255zm66.865 0V8.2l6.65 6.65h-19.95V2.5h28.69V69h-15.39zm66.993 0v-9.975l25.65-24.225c2.027-1.837 3.515-3.483 4.465-4.94.95-1.457 1.584-2.787 1.9-3.99.38-1.203.57-2.312.57-3.325 0-2.66-.918-4.687-2.755-6.08-1.773-1.457-4.401-2.185-7.885-2.185-2.786 0-5.383.538-7.79 1.615-2.343 1.077-4.338 2.755-5.985 5.035l-11.21-7.22c2.534-3.8 6.08-6.808 10.64-9.025 4.56-2.217 9.817-3.325 15.77-3.325 4.94 0 9.247.823 12.92 2.47 3.737 1.583 6.619 3.832 8.645 6.745 2.09 2.913 3.135 6.397 3.135 10.45 0 2.153-.285 4.307-.855 6.46-.506 2.09-1.583 4.307-3.23 6.65-1.583 2.343-3.926 4.972-7.03 7.885l-21.28 20.045-2.945-5.605H816.7V69h-50.255zm85.105 1.14c-5.446 0-10.323-1.33-14.63-3.99-4.306-2.723-7.695-6.65-10.165-11.78-2.47-5.13-3.705-11.337-3.705-18.62 0-7.283 1.235-13.49 3.705-18.62 2.47-5.13 5.859-9.025 10.165-11.685 4.307-2.723 9.184-4.085 14.63-4.085 5.51 0 10.387 1.362 14.63 4.085 4.307 2.66 7.695 6.555 10.165 11.685 2.47 5.13 3.705 11.337 3.705 18.62 0 7.283-1.235 13.49-3.705 18.62-2.47 5.13-5.858 9.057-10.165 11.78-4.243 2.66-9.12 3.99-14.63 3.99zm0-13.015c2.597 0 4.845-.728 6.745-2.185 1.964-1.457 3.484-3.768 4.56-6.935 1.14-3.167 1.71-7.252 1.71-12.255 0-5.003-.57-9.088-1.71-12.255-1.076-3.167-2.596-5.478-4.56-6.935-1.9-1.457-4.148-2.185-6.745-2.185-2.533 0-4.781.728-6.745 2.185-1.9 1.457-3.42 3.768-4.56 6.935-1.076 3.167-1.615 7.252-1.615 12.255 0 5.003.539 9.088 1.615 12.255 1.14 3.167 2.66 5.478 4.56 6.935 1.964 1.457 4.212 2.185 6.745 2.185zM886.587 69v-9.975l25.65-24.225c2.027-1.837 3.515-3.483 4.465-4.94.95-1.457 1.583-2.787 1.9-3.99.38-1.203.57-2.312.57-3.325 0-2.66-.918-4.687-2.755-6.08-1.773-1.457-4.402-2.185-7.885-2.185-2.787 0-5.383.538-7.79 1.615-2.343 1.077-4.338 2.755-5.985 5.035l-11.21-7.22c2.533-3.8 6.08-6.808 10.64-9.025 4.56-2.217 9.817-3.325 15.77-3.325 4.94 0 9.247.823 12.92 2.47 3.737 1.583 6.618 3.832 8.645 6.745 2.09 2.913 3.135 6.397 3.135 10.45 0 2.153-.285 4.307-.855 6.46-.507 2.09-1.583 4.307-3.23 6.65-1.583 2.343-3.927 4.972-7.03 7.885l-21.28 20.045-2.945-5.605h37.525V69h-50.255zm66.865 0V8.2l6.65 6.65h-19.95V2.5h28.69V69h-15.39z"/></mask><path d="M4.445 69v-9.975L30.095 34.8c2.027-1.837 3.515-3.483 4.465-4.94.95-1.457 1.584-2.787 1.9-3.99.38-1.203.57-2.312.57-3.325 0-2.66-.918-4.687-2.755-6.08-1.773-1.457-4.401-2.185-7.885-2.185-2.786 0-5.383.538-7.79 1.615-2.343 1.077-4.338 2.755-5.985 5.035l-11.21-7.22c2.534-3.8 6.08-6.808 10.64-9.025 4.56-2.217 9.817-3.325 15.77-3.325 4.94 0 9.247.823 12.92 2.47 3.737 1.583 6.619 3.832 8.645 6.745 2.09 2.913 3.135 6.397 3.135 10.45 0 2.153-.285 4.307-.855 6.46-.506 2.09-1.583 4.307-3.23 6.65-1.583 2.343-3.926 4.972-7.03 7.885L20.12 62.065l-2.945-5.605H54.7V69H4.445zm85.105 1.14c-5.446 0-10.323-1.33-14.63-3.99-4.306-2.723-7.695-6.65-10.165-11.78-2.47-5.13-3.705-11.337-3.705-18.62 0-7.283 1.235-13.49 3.705-18.62C67.225 12 70.614 8.105 74.92 5.445c4.307-2.723 9.184-4.085 14.63-4.085 5.51 0 10.387 1.362 14.63 4.085 4.307 2.66 7.695 6.555 10.165 11.685 2.47 5.13 3.705 11.337 3.705 18.62 0 7.283-1.235 13.49-3.705 18.62-2.47 5.13-5.858 9.057-10.165 11.78-4.243 2.66-9.12 3.99-14.63 3.99zm0-13.015c2.597 0 4.845-.728 6.745-2.185 1.964-1.457 3.484-3.768 4.56-6.935 1.14-3.167 1.71-7.252 1.71-12.255 0-5.003-.57-9.088-1.71-12.255-1.076-3.167-2.596-5.478-4.56-6.935-1.9-1.457-4.148-2.185-6.745-2.185-2.533 0-4.781.728-6.745 2.185-1.9 1.457-3.42 3.768-4.56 6.935-1.076 3.167-1.615 7.252-1.615 12.255 0 5.003.539 9.088 1.615 12.255 1.14 3.167 2.66 5.478 4.56 6.935 1.964 1.457 4.212 2.185 6.745 2.185zM124.587 69v-9.975l25.65-24.225c2.027-1.837 3.515-3.483 4.465-4.94.95-1.457 1.583-2.787 1.9-3.99.38-1.203.57-2.312.57-3.325 0-2.66-.918-4.687-2.755-6.08-1.773-1.457-4.402-2.185-7.885-2.185-2.787 0-5.383.538-7.79 1.615-2.343 1.077-4.338 2.755-5.985 5.035l-11.21-7.22c2.533-3.8 6.08-6.808 10.64-9.025 4.56-2.217 9.817-3.325 15.77-3.325 4.94 0 9.247.823 12.92 2.47 3.737 1.583 6.618 3.832 8.645 6.745 2.09 2.913 3.135 6.397 3.135 10.45 0 2.153-.285 4.307-.855 6.46-.507 2.09-1.583 4.307-3.23 6.65-1.583 2.343-3.927 4.972-7.03 7.885l-21.28 20.045-2.945-5.605h37.525V69h-50.255zm66.865 0V8.2l6.65 6.65h-19.95V2.5h28.69V69h-15.39z" stroke="url(#paint0_linear_226_507)" stroke-width="2" mask="url(#a)"/><path d="M258.445 69v-9.975l25.65-24.225c2.027-1.837 3.515-3.483 4.465-4.94.95-1.457 1.584-2.787 1.9-3.99.38-1.203.57-2.312.57-3.325 0-2.66-.918-4.687-2.755-6.08-1.773-1.457-4.401-2.185-7.885-2.185-2.786 0-5.383.538-7.79 1.615-2.343 1.077-4.338 2.755-5.985 5.035l-11.21-7.22c2.534-3.8 6.08-6.808 10.64-9.025 4.56-2.217 9.817-3.325 15.77-3.325 4.94 0 9.247.823 12.92 2.47 3.737 1.583 6.619 3.832 8.645 6.745 2.09 2.913 3.135 6.397 3.135 10.45 0 2.153-.285 4.307-.855 6.46-.506 2.09-1.583 4.307-3.23 6.65-1.583 2.343-3.926 4.972-7.03 7.885l-21.28 20.045-2.945-5.605H308.7V69h-50.255zm85.105 1.14c-5.446 0-10.323-1.33-14.63-3.99-4.306-2.723-7.695-6.65-10.165-11.78-2.47-5.13-3.705-11.337-3.705-18.62 0-7.283 1.235-13.49 3.705-18.62 2.47-5.13 5.859-9.025 10.165-11.685 4.307-2.723 9.184-4.085 14.63-4.085 5.51 0 10.387 1.362 14.63 4.085 4.307 2.66 7.695 6.555 10.165 11.685 2.47 5.13 3.705 11.337 3.705 18.62 0 7.283-1.235 13.49-3.705 18.62-2.47 5.13-5.858 9.057-10.165 11.78-4.243 2.66-9.12 3.99-14.63 3.99zm0-13.015c2.597 0 4.845-.728 6.745-2.185 1.964-1.457 3.484-3.768 4.56-6.935 1.14-3.167 1.71-7.252 1.71-12.255 0-5.003-.57-9.088-1.71-12.255-1.076-3.167-2.596-5.478-4.56-6.935-1.9-1.457-4.148-2.185-6.745-2.185-2.533 0-4.781.728-6.745 2.185-1.9 1.457-3.42 3.768-4.56 6.935-1.076 3.167-1.615 7.252-1.615 12.255 0 5.003.539 9.088 1.615 12.255 1.14 3.167 2.66 5.478 4.56 6.935 1.964 1.457 4.212 2.185 6.745 2.185zM378.587 69v-9.975l25.65-24.225c2.027-1.837 3.515-3.483 4.465-4.94.95-1.457 1.583-2.787 1.9-3.99.38-1.203.57-2.312.57-3.325 0-2.66-.918-4.687-2.755-6.08-1.773-1.457-4.402-2.185-7.885-2.185-2.787 0-5.383.538-7.79 1.615-2.343 1.077-4.338 2.755-5.985 5.035l-11.21-7.22c2.533-3.8 6.08-6.808 10.64-9.025 4.56-2.217 9.817-3.325 15.77-3.325 4.94 0 9.247.823 12.92 2.47 3.737 1.583 6.618 3.832 8.645 6.745 2.09 2.913 3.135 6.397 3.135 10.45 0 2.153-.285 4.307-.855 6.46-.507 2.09-1.583 4.307-3.23 6.65-1.583 2.343-3.927 4.972-7.03 7.885l-21.28 20.045-2.945-5.605h37.525V69h-50.255zm66.865 0V8.2l6.65 6.65h-19.95V2.5h28.69V69h-15.39z" stroke="url(#paint1_linear_226_507)" stroke-width="2" mask="url(#a)"/><path d="M512.445 69v-9.975l25.65-24.225c2.027-1.837 3.515-3.483 4.465-4.94.95-1.457 1.584-2.787 1.9-3.99.38-1.203.57-2.312.57-3.325 0-2.66-.918-4.687-2.755-6.08-1.773-1.457-4.401-2.185-7.885-2.185-2.786 0-5.383.538-7.79 1.615-2.343 1.077-4.338 2.755-5.985 5.035l-11.21-7.22c2.534-3.8 6.08-6.808 10.64-9.025 4.56-2.217 9.817-3.325 15.77-3.325 4.94 0 9.247.823 12.92 2.47 3.737 1.583 6.619 3.832 8.645 6.745 2.09 2.913 3.135 6.397 3.135 10.45 0 2.153-.285 4.307-.855 6.46-.506 2.09-1.583 4.307-3.23 6.65-1.583 2.343-3.926 4.972-7.03 7.885l-21.28 20.045-2.945-5.605H562.7V69h-50.255zm85.105 1.14c-5.446 0-10.323-1.33-14.63-3.99-4.306-2.723-7.695-6.65-10.165-11.78-2.47-5.13-3.705-11.337-3.705-18.62 0-7.283 1.235-13.49 3.705-18.62 2.47-5.13 5.859-9.025 10.165-11.685 4.307-2.723 9.184-4.085 14.63-4.085 5.51 0 10.387 1.362 14.63 4.085 4.307 2.66 7.695 6.555 10.165 11.685 2.47 5.13 3.705 11.337 3.705 18.62 0 7.283-1.235 13.49-3.705 18.62-2.47 5.13-5.858 9.057-10.165 11.78-4.243 2.66-9.12 3.99-14.63 3.99zm0-13.015c2.597 0 4.845-.728 6.745-2.185 1.964-1.457 3.484-3.768 4.56-6.935 1.14-3.167 1.71-7.252 1.71-12.255 0-5.003-.57-9.088-1.71-12.255-1.076-3.167-2.596-5.478-4.56-6.935-1.9-1.457-4.148-2.185-6.745-2.185-2.533 0-4.781.728-6.745 2.185-1.9 1.457-3.42 3.768-4.56 6.935-1.076 3.167-1.615 7.252-1.615 12.255 0 5.003.539 9.088 1.615 12.255 1.14 3.167 2.66 5.478 4.56 6.935 1.964 1.457 4.212 2.185 6.745 2.185zM632.587 69v-9.975l25.65-24.225c2.027-1.837 3.515-3.483 4.465-4.94.95-1.457 1.583-2.787 1.9-3.99.38-1.203.57-2.312.57-3.325 0-2.66-.918-4.687-2.755-6.08-1.773-1.457-4.402-2.185-7.885-2.185-2.787 0-5.383.538-7.79 1.615-2.343 1.077-4.338 2.755-5.985 5.035l-11.21-7.22c2.533-3.8 6.08-6.808 10.64-9.025 4.56-2.217 9.817-3.325 15.77-3.325 4.94 0 9.247.823 12.92 2.47 3.737 1.583 6.618 3.832 8.645 6.745 2.09 2.913 3.135 6.397 3.135 10.45 0 2.153-.285 4.307-.855 6.46-.507 2.09-1.583 4.307-3.23 6.65-1.583 2.343-3.927 4.972-7.03 7.885l-21.28 20.045-2.945-5.605h37.525V69h-50.255zm66.865 0V8.2l6.65 6.65h-19.95V2.5h28.69V69h-15.39z" stroke="url(#paint2_linear_226_507)" stroke-width="2" mask="url(#a)"/><path d="M766.445 69v-9.975l25.65-24.225c2.027-1.837 3.515-3.483 4.465-4.94.95-1.457 1.584-2.787 1.9-3.99.38-1.203.57-2.312.57-3.325 0-2.66-.918-4.687-2.755-6.08-1.773-1.457-4.401-2.185-7.885-2.185-2.786 0-5.383.538-7.79 1.615-2.343 1.077-4.338 2.755-5.985 5.035l-11.21-7.22c2.534-3.8 6.08-6.808 10.64-9.025 4.56-2.217 9.817-3.325 15.77-3.325 4.94 0 9.247.823 12.92 2.47 3.737 1.583 6.619 3.832 8.645 6.745 2.09 2.913 3.135 6.397 3.135 10.45 0 2.153-.285 4.307-.855 6.46-.506 2.09-1.583 4.307-3.23 6.65-1.583 2.343-3.926 4.972-7.03 7.885l-21.28 20.045-2.945-5.605H816.7V69h-50.255zm85.105 1.14c-5.446 0-10.323-1.33-14.63-3.99-4.306-2.723-7.695-6.65-10.165-11.78-2.47-5.13-3.705-11.337-3.705-18.62 0-7.283 1.235-13.49 3.705-18.62 2.47-5.13 5.859-9.025 10.165-11.685 4.307-2.723 9.184-4.085 14.63-4.085 5.51 0 10.387 1.362 14.63 4.085 4.307 2.66 7.695 6.555 10.165 11.685 2.47 5.13 3.705 11.337 3.705 18.62 0 7.283-1.235 13.49-3.705 18.62-2.47 5.13-5.858 9.057-10.165 11.78-4.243 2.66-9.12 3.99-14.63 3.99zm0-13.015c2.597 0 4.845-.728 6.745-2.185 1.964-1.457 3.484-3.768 4.56-6.935 1.14-3.167 1.71-7.252 1.71-12.255 0-5.003-.57-9.088-1.71-12.255-1.076-3.167-2.596-5.478-4.56-6.935-1.9-1.457-4.148-2.185-6.745-2.185-2.533 0-4.781.728-6.745 2.185-1.9 1.457-3.42 3.768-4.56 6.935-1.076 3.167-1.615 7.252-1.615 12.255 0 5.003.539 9.088 1.615 12.255 1.14 3.167 2.66 5.478 4.56 6.935 1.964 1.457 4.212 2.185 6.745 2.185zM886.587 69v-9.975l25.65-24.225c2.027-1.837 3.515-3.483 4.465-4.94.95-1.457 1.583-2.787 1.9-3.99.38-1.203.57-2.312.57-3.325 0-2.66-.918-4.687-2.755-6.08-1.773-1.457-4.402-2.185-7.885-2.185-2.787 0-5.383.538-7.79 1.615-2.343 1.077-4.338 2.755-5.985 5.035l-11.21-7.22c2.533-3.8 6.08-6.808 10.64-9.025 4.56-2.217 9.817-3.325 15.77-3.325 4.94 0 9.247.823 12.92 2.47 3.737 1.583 6.618 3.832 8.645 6.745 2.09 2.913 3.135 6.397 3.135 10.45 0 2.153-.285 4.307-.855 6.46-.507 2.09-1.583 4.307-3.23 6.65-1.583 2.343-3.927 4.972-7.03 7.885l-21.28 20.045-2.945-5.605h37.525V69h-50.255zm66.865 0V8.2l6.65 6.65h-19.95V2.5h28.69V69h-15.39z" stroke="url(#paint3_linear_226_507)" stroke-width="2" mask="url(#a)"/><defs><linearGradient id="paint0_linear_226_507" x1=".999" y1="36" x2="968.999" y2="36" gradientUnits="userSpaceOnUse"><stop stop-color="#fff"/><stop offset="1" stop-color="#fff"/></linearGradient><linearGradient id="paint1_linear_226_507" x1=".999" y1="36" x2="968.999" y2="36" gradientUnits="userSpaceOnUse"><stop stop-color="#fff"/><stop offset="1" stop-color="#fff"/></linearGradient><linearGradient id="paint2_linear_226_507" x1=".999" y1="36" x2="968.999" y2="36" gradientUnits="userSpaceOnUse"><stop stop-color="#fff"/><stop offset="1" stop-color="#fff"/></linearGradient><linearGradient id="paint3_linear_226_507" x1=".999" y1="36" x2="968.999" y2="36" gradientUnits="userSpaceOnUse"><stop stop-color="#fff"/><stop offset="1" stop-color="#fff"/></linearGradient></defs></svg>