<svg width="208" height="72" fill="none" xmlns="http://www.w3.org/2000/svg"><path d="M3.946 69.5V58.809l.157-.148 25.65-24.225.007-.007h0c2.011-1.822 3.465-3.436 4.382-4.842.932-1.428 1.537-2.709 1.836-3.844l.003-.012.003-.012c.369-1.166.547-2.223.547-3.174 0-2.531-.865-4.398-2.557-5.682l-.008-.006-.007-.006c-1.648-1.353-4.143-2.071-7.568-2.071-2.72 0-5.245.525-7.583 1.57-2.257 1.038-4.186 2.657-5.786 4.873l-.278.384-.399-.257-11.21-7.22-.427-.275.282-.423c2.588-3.881 6.207-6.946 10.838-9.197C16.467 1.98 21.8.86 27.816.86c4.993 0 9.37.832 13.12 2.511 3.807 1.615 6.767 3.917 8.854 6.915 2.157 3.009 3.226 6.597 3.226 10.739 0 2.196-.29 4.39-.87 6.583-.526 2.165-1.634 4.435-3.303 6.81-1.612 2.385-3.983 5.04-7.099 7.966L3.946 69.5zm0 0h51.255V55.96h-27.87l14.412-13.576L3.947 69.5zm70.708-2.927l.005.002c4.391 2.713 9.36 4.065 14.892 4.065 5.595 0 10.565-1.352 14.896-4.067h.002c4.395-2.78 7.842-6.782 10.348-11.986 2.51-5.214 3.754-11.499 3.754-18.837 0-7.338-1.244-13.623-3.754-18.837-2.506-5.204-5.953-9.175-10.349-11.891C100.117 2.243 95.146.86 89.551.86c-5.533 0-10.503 1.384-14.894 4.16-4.397 2.717-7.845 6.689-10.351 11.893-2.51 5.214-3.755 11.499-3.755 18.837 0 7.338 1.244 13.623 3.755 18.837 2.506 5.204 5.953 9.206 10.348 11.986zM96 54.538l-.007.005c-1.805 1.384-3.944 2.082-6.44 2.082-2.43 0-4.571-.696-6.444-2.084-1.797-1.379-3.27-3.594-4.39-6.701-1.051-3.096-1.587-7.12-1.587-12.09s.536-8.995 1.587-12.09c1.12-3.108 2.593-5.322 4.39-6.701 1.873-1.389 4.015-2.084 6.443-2.084 2.497 0 4.636.698 6.441 2.082h0l.007.004c1.856 1.378 3.328 3.59 4.384 6.695h0l.003.008c1.113 3.093 1.68 7.115 1.68 12.086 0 4.97-.567 8.993-1.68 12.086h0l-.003.008c-1.056 3.105-2.528 5.317-4.384 6.694h0zM124.088 69v.5h51.255V55.96h-27.87l14.412-13.576c3.117-2.925 5.488-5.58 7.099-7.965 1.669-2.376 2.778-4.646 3.304-6.811.579-2.192.87-4.387.87-6.583 0-4.142-1.069-7.73-3.227-10.739-2.087-2.998-5.046-5.3-8.853-6.914-3.75-1.68-8.127-2.512-13.12-2.512-6.016 0-11.35 1.12-15.989 3.375-4.631 2.251-8.249 5.316-10.837 9.197l-.282.423.427.275 11.21 7.22.399.257.277-.384c1.601-2.216 3.53-3.835 5.787-4.873 2.338-1.045 4.864-1.57 7.583-1.57 3.425 0 5.92.718 7.567 2.071l.008.006.008.006c1.691 1.284 2.557 3.151 2.557 5.682 0 .951-.179 2.008-.547 3.174l-.004.012-.003.012c-.298 1.135-.904 2.416-1.835 3.844-.917 1.406-2.371 3.02-4.382 4.842l-.007.007-25.65 24.225-.157.148V69zm66.865 0v.5h16.39V2h-29.69v13.35h13.3V69z" stroke="#fff"/></svg>