<svg width="615" height="615" viewBox="0 0 615 615" fill="none" xmlns="http://www.w3.org/2000/svg">
<path d="M600.744 341.007C596.851 372.383 587.965 402.934 574.422 431.503L456.585 375.645C464.171 359.641 469.149 342.526 471.329 324.95L600.744 341.007Z" fill="#7E44FE"/>
<path d="M546.314 130.14C590.662 191.136 610.101 266.739 600.675 341.561L471.291 325.261C476.571 283.347 465.682 240.996 440.839 206.827L546.314 130.14Z" fill="#151515"/>
<path d="M214.866 586.485C197.135 580.723 179.987 573.302 163.65 564.319L226.478 450.045C235.63 455.077 245.236 459.234 255.168 462.462L214.866 586.485Z" fill="#2F7617"/>
<path d="M163.665 564.327C108.794 534.164 64.882 487.403 38.221 430.748L156.216 375.222C171.151 406.959 195.749 433.153 226.487 450.05L163.665 564.327Z" fill="#287AFF"/>
<path d="M38.2182 430.742C6.10887 362.506 1.20766 284.598 24.5121 212.875L148.536 253.174C135.482 293.351 138.227 336.994 156.214 375.218L38.2182 430.742Z" fill="#37C87B"/>
<path d="M24.5056 212.895C37.99 171.385 60.4721 133.364 90.3472 101.546L185.416 190.81C168.68 208.633 156.086 229.932 148.533 253.185L24.5056 212.895Z" fill="#DB44FE"/>
<path d="M90.3717 101.52C115.955 74.2799 146.457 52.1215 180.271 36.2119L235.789 154.211C216.847 163.123 199.761 175.536 185.429 190.795L90.3717 101.52Z" fill="#B97AD7"/>
<path d="M179.114 36.7592C224.212 15.3024 274 5.58495 323.856 8.50843L316.223 138.692C288.294 137.054 260.404 142.498 235.141 154.517L179.114 36.7592Z" fill="#4BBC24"/>
<path d="M432.785 36.2384C477.971 57.5098 517.052 89.8503 546.401 130.259L440.887 206.894C424.447 184.258 402.554 166.141 377.242 154.225L432.785 36.2384Z" fill="#F55151"/>
<path d="M306.5 8C350.145 8 393.252 17.6356 432.744 36.2188L377.219 154.214C355.097 143.805 330.949 138.407 306.5 138.407L306.5 8Z" fill="#FFAD28"/>
<path d="M585.738 438.42C553.858 506.173 498.351 559.966 429.631 589.706C360.911 619.446 283.7 623.089 212.485 599.952L254.275 471.326C294.168 484.287 337.42 482.246 375.915 465.586C414.411 448.926 445.504 418.793 463.363 380.838L585.738 438.42Z" fill="#FA44FE"/>
</svg>
