<svg width="593" height="593" viewBox="0 0 593 593" fill="none" xmlns="http://www.w3.org/2000/svg">
<path d="M590.744 333.007C586.851 364.383 577.965 394.934 564.422 423.503L446.585 367.645C454.171 351.641 459.149 334.526 461.329 316.95L590.744 333.007Z" fill="#7E44FE"/>
<path d="M536.314 122.14C580.662 183.136 600.101 258.739 590.675 333.561L461.291 317.261C466.571 275.347 455.682 232.996 430.839 198.827L536.314 122.14Z" fill="#151515"/>
<path d="M564.785 422.736C534.045 488.066 480.523 539.935 414.262 568.611C348 597.287 273.552 600.8 204.884 578.491L245.179 454.465C283.645 466.963 325.349 464.995 362.468 448.931C399.586 432.867 429.568 403.811 446.787 367.215L564.785 422.736Z" fill="#FA44FE"/>
<path d="M204.866 578.485C187.135 572.723 169.987 565.302 153.65 556.319L216.478 442.045C225.63 447.077 235.236 451.234 245.168 454.462L204.866 578.485Z" fill="#2F7617"/>
<path d="M153.665 556.327C98.7944 526.164 54.882 479.403 28.221 422.748L146.216 367.222C161.151 398.959 185.749 425.153 216.487 442.05L153.665 556.327Z" fill="#287AFF"/>
<path d="M28.2182 422.742C-3.89113 354.506 -8.79234 276.598 14.5121 204.875L138.536 245.174C125.482 285.351 128.227 328.994 146.214 367.218L28.2182 422.742Z" fill="#37C87B"/>
<path d="M14.5056 204.895C27.99 163.385 50.4721 125.364 80.3472 93.5463L175.416 182.81C158.68 200.633 146.086 221.932 138.533 245.185L14.5056 204.895Z" fill="#DB44FE"/>
<path d="M80.3717 93.5202C105.637 66.6186 135.702 44.6703 169.022 28.8031L225.09 146.542C206.424 155.43 189.582 167.725 175.429 182.795L80.3717 93.5202Z" fill="#B97AD7"/>
<path d="M169.114 28.7592C208.879 9.83979 252.359 0.0155145 296.396 1.83577e-05L296.442 130.407C271.773 130.416 247.417 135.919 225.141 146.517L169.114 28.7592Z" fill="#4BBC24"/>
<path d="M422.785 28.2384C467.971 49.5098 507.052 81.8503 536.401 122.259L430.887 198.894C414.447 176.258 392.554 158.141 367.242 146.225L422.785 28.2384Z" fill="#F55151"/>
<path d="M296.5 0C340.145 5.20464e-07 383.252 9.63556 422.744 28.2188L367.219 146.214C345.097 135.805 320.949 130.407 296.5 130.407L296.5 0Z" fill="#FFAD28"/>
</svg>
